<svg xmlns="http://www.w3.org/2000/svg" viewBox="0 0 30 30"><defs><style>.cls-1{fill:none;stroke:#cb8020;stroke-linecap:round;stroke-linejoin:round;stroke-width:1.5px;}</style></defs><title>all2</title><g id="Layer_1" data-name="Layer 1"><path class="cls-1" d="M5,10.15l3.54,4A1.48,1.48,0,0,0,9,14.5a1.61,1.61,0,0,0,.61.15,1.65,1.65,0,0,0,.62-.1,1.49,1.49,0,0,0,.52-.33l3.08-3a1.38,1.38,0,0,1,.5-.32,1.54,1.54,0,0,1,1.19,0,1.58,1.58,0,0,1,.5.32l3.07,3a1.53,1.53,0,0,0,.53.33,1.65,1.65,0,0,0,.62.1,1.56,1.56,0,0,0,.6-.15,1.52,1.52,0,0,0,.5-.37l3.63-4M5,17.58l3.54,4a1.48,1.48,0,0,0,.49.37,1.61,1.61,0,0,0,.61.15,1.65,1.65,0,0,0,.62-.1,1.36,1.36,0,0,0,.52-.33l3.08-3a1.53,1.53,0,0,1,.5-.32,1.51,1.51,0,0,1,.59-.11,1.52,1.52,0,0,1,.6.11,1.77,1.77,0,0,1,.5.32l3.07,3a1.39,1.39,0,0,0,.53.33,1.65,1.65,0,0,0,.62.1,1.56,1.56,0,0,0,.6-.15,1.52,1.52,0,0,0,.5-.37l3.63-4"/></g></svg>