<svg width="14" height="12" viewBox="0 0 14 12" fill="none" xmlns="http://www.w3.org/2000/svg">
<path d="M1.42969 2.57129L3.40112 4.86843C3.47771 4.95746 3.57179 5.02979 3.67751 5.08095C3.78322 5.1321 3.89832 5.16099 4.01567 5.16581C4.13301 5.17064 4.25009 5.15129 4.35965 5.10898C4.46921 5.06667 4.5689 5.0023 4.65254 4.91986L6.36683 3.20557C6.44651 3.12524 6.54131 3.06147 6.64576 3.01795C6.75022 2.97444 6.86225 2.95203 6.9754 2.95203C7.08855 2.95203 7.20059 2.97444 7.30504 3.01795C7.40949 3.06147 7.50429 3.12524 7.58397 3.20557L9.29826 4.91986C9.3819 5.0023 9.4816 5.06667 9.59115 5.10898C9.70071 5.15129 9.81779 5.17064 9.93514 5.16581C10.0525 5.16099 10.1676 5.1321 10.2733 5.08095C10.379 5.02979 10.4731 4.95746 10.5497 4.86843L12.5725 2.57129M1.42969 6.857L3.40112 9.15415C3.47771 9.24317 3.57179 9.31551 3.67751 9.36666C3.78322 9.41782 3.89832 9.4467 4.01567 9.45153C4.13301 9.45635 4.25009 9.43701 4.35965 9.3947C4.46921 9.35239 4.5689 9.28802 4.65254 9.20557L6.36683 7.49129C6.44651 7.41095 6.54131 7.34718 6.64576 7.30367C6.75022 7.26015 6.86225 7.23775 6.9754 7.23775C7.08855 7.23775 7.20059 7.26015 7.30504 7.30367C7.40949 7.34718 7.50429 7.41095 7.58397 7.49129L9.29826 9.20557C9.3819 9.28802 9.4816 9.35239 9.59115 9.3947C9.70071 9.43701 9.81779 9.45635 9.93514 9.45153C10.0525 9.4467 10.1676 9.41782 10.2733 9.36666C10.379 9.31551 10.4731 9.24317 10.5497 9.15415L12.5725 6.857" stroke="#CB8020" stroke-linecap="round" stroke-linejoin="round"/>
</svg>
