<svg width="12" height="12" viewBox="0 0 12 12" fill="none" xmlns="http://www.w3.org/2000/svg">
<g clip-path="url(#clip0_4837_26127)">
<path d="M2.57254 1.28613C3.14087 1.28613 3.68591 1.5119 4.08777 1.91376C4.48964 2.31562 4.7154 2.86067 4.7154 3.42899C4.7154 3.99731 4.48964 4.54236 4.08777 4.94422C3.68591 5.34608 3.14087 5.57185 2.57254 5.57185C2.00422 5.57185 1.45918 5.34608 1.05732 4.94422C0.655452 4.54236 0.429688 3.99731 0.429688 3.42899C0.429688 2.86067 0.655452 2.31562 1.05732 1.91376C1.45918 1.5119 2.00422 1.28613 2.57254 1.28613ZM2.57254 1.28613H11.5725M9.42969 10.7147C9.99801 10.7147 10.5431 10.4889 10.9449 10.0871C11.3468 9.68521 11.5725 9.14017 11.5725 8.57185C11.5725 8.00353 11.3468 7.45848 10.9449 7.05662C10.5431 6.65475 9.99801 6.42899 9.42969 6.42899C8.86137 6.42899 8.31632 6.65475 7.91446 7.05662C7.51259 7.45848 7.28683 8.00353 7.28683 8.57185C7.28683 9.14017 7.51259 9.68521 7.91446 10.0871C8.31632 10.4889 8.86137 10.7147 9.42969 10.7147ZM9.42969 10.7147H0.429688" stroke="#CB8020" stroke-linecap="round" stroke-linejoin="round"/>
</g>
<defs>
<clipPath id="clip0_4837_26127">
<rect width="12" height="12" fill="white"/>
</clipPath>
</defs>
</svg>
