<svg width="14" height="13" viewBox="0 0 14 13" fill="none" xmlns="http://www.w3.org/2000/svg">
<path d="M10.8583 9.14258C11.3129 9.14258 11.749 9.32319 12.0704 9.64468C12.3919 9.96617 12.5725 10.4022 12.5725 10.8569C12.5725 11.3115 12.3919 11.7476 12.0704 12.069C11.749 12.3905 11.3129 12.5711 10.8583 12.5711C10.4036 12.5711 9.96757 12.3905 9.64608 12.069C9.32458 11.7476 9.14397 11.3115 9.14397 10.8569C9.14397 10.4022 9.32458 9.96617 9.64608 9.64468C9.96757 9.32319 10.4036 9.14258 10.8583 9.14258ZM10.8583 9.14258H1.42969" stroke="#CB8020" stroke-linecap="round" stroke-linejoin="round"/>
<path d="M9.14397 10.8573V1.42871C9.14397 1.42871 5.28683 2.28585 5.28683 5.71442C5.28683 2.28585 1.42969 1.42871 1.42969 1.42871" stroke="#CB8020" stroke-linecap="round" stroke-linejoin="round"/>
</svg>
