<svg xmlns="http://www.w3.org/2000/svg" viewBox="0 0 30 30"><defs><style>.cls-1{fill:none;stroke:#cb8020;stroke-linecap:round;stroke-linejoin:round;stroke-width:1.5px;}</style></defs><title>all2</title><g id="Layer_1" data-name="Layer 1"><path class="cls-1" d="M9.28,8.45V19.9m0-11.45A3.21,3.21,0,0,0,8.08,6,5,5,0,0,0,5,5M9.28,8.45A3.22,3.22,0,0,1,10.49,6a4.1,4.1,0,0,1,2.76-1,5.06,5.06,0,0,1,3.09,1,3.24,3.24,0,0,1,1.21,2.46l-.08,12.59"/><path class="cls-1" d="M25,21.21a3.77,3.77,0,1,1-3.76-3.78A3.76,3.76,0,0,1,25,21.21Z"/><path class="cls-1" d="M17.9,19.44c-.33.51-.92,2.42-1.26,2.92a5.36,5.36,0,0,1-2.44,1.92,5.86,5.86,0,0,1-3.27.15"/></g></svg>