<svg width="14" height="14" viewBox="0 0 14 14" fill="none" xmlns="http://www.w3.org/2000/svg">
<path d="M3.14397 12.5711C3.59863 12.5711 4.03467 12.3905 4.35616 12.069C4.67765 11.7476 4.85826 11.3115 4.85826 10.8569C4.85826 10.4022 4.67765 9.96617 4.35616 9.64468C4.03467 9.32319 3.59863 9.14258 3.14397 9.14258C2.68932 9.14258 2.25328 9.32319 1.93179 9.64468C1.6103 9.96617 1.42969 10.4022 1.42969 10.8569C1.42969 11.3115 1.6103 11.7476 1.93179 12.069C2.25328 12.3905 2.68932 12.5711 3.14397 12.5711Z" stroke="#CB8020" stroke-linecap="round" stroke-linejoin="round"/>
<path d="M12.5737 11.2859C12.5737 11.6268 12.4382 11.9539 12.1971 12.195C11.956 12.4361 11.6289 12.5716 11.2879 12.5716C10.947 12.5716 10.6199 12.4361 10.3788 12.195C10.1377 11.9539 10.0022 11.6268 10.0022 11.2859V4.00014C10.0022 3.31815 9.73131 2.6641 9.24908 2.18186C8.76684 1.69963 8.11279 1.42871 7.4308 1.42871C6.74882 1.42871 6.09477 1.69963 5.61253 2.18186C5.13029 2.6641 4.85938 3.31815 4.85938 4.00014V10.8573" stroke="#CB8020" stroke-linecap="round" stroke-linejoin="round"/>
</svg>
