<svg xmlns="http://www.w3.org/2000/svg" viewBox="0 0 30 30"><defs><style>.cls-1{fill:none;stroke:#cb8020;stroke-linecap:round;stroke-linejoin:round;stroke-width:1.5px;}</style></defs><title>all2</title><g id="Layer_1" data-name="Layer 1"><path class="cls-1" d="M8.66,25a3.65,3.65,0,0,0,2.58-1.07,3.62,3.62,0,0,0,0-5.14,3.66,3.66,0,0,0-5.17,0A3.64,3.64,0,0,0,8.66,25Z"/><path class="cls-1" d="M25,22.69a2.4,2.4,0,0,1-.62,1.63,2,2,0,0,1-3,0,2.4,2.4,0,0,1-.62-1.63V9.62a4.87,4.87,0,0,0-1.24-3.27,4,4,0,0,0-6,0,4.87,4.87,0,0,0-1.24,3.27l0,11.91"/></g></svg>