<svg xmlns="http://www.w3.org/2000/svg" viewBox="0 0 30 30"><defs><style>.cls-1{fill:none;stroke:#cb8020;stroke-linecap:round;stroke-linejoin:round;stroke-width:1.5px;}</style></defs><title>all2</title><g id="Layer_1" data-name="Layer 1"><path class="cls-1" d="M10.83,8.44V22.09m0-13.65A3.75,3.75,0,0,0,10,6,2.67,2.67,0,0,0,7.91,5,2.7,2.7,0,0,0,5.85,6,3.8,3.8,0,0,0,5,8.44V22.09M10.83,8.44A3.74,3.74,0,0,1,11.68,6,2.61,2.61,0,0,1,15.8,6a3.74,3.74,0,0,1,.85,2.43v13.5a3.38,3.38,0,0,0,.76,2.16,2.39,2.39,0,0,0,1.83.9,2.91,2.91,0,0,0,2.07-.9,3.37,3.37,0,0,0,.76-2.17V19.47"/><polyline class="cls-1" points="18.7 22.26 22.07 19.47 25 22.43"/></g></svg>