<svg width="14" height="12" viewBox="0 0 14 12" fill="none" xmlns="http://www.w3.org/2000/svg">
<path d="M1.42773 8.57101V3.42815C1.42773 2.9735 1.60835 2.53746 1.92984 2.21597C2.25133 1.89448 2.68736 1.71387 3.14202 1.71387C3.59668 1.71387 4.03271 1.89448 4.3542 2.21597C4.67569 2.53746 4.85631 2.9735 4.85631 3.42815C4.85631 2.9735 5.03692 2.53746 5.35841 2.21597C5.6799 1.89448 6.11593 1.71387 6.57059 1.71387C7.02525 1.71387 7.46128 1.89448 7.78277 2.21597C8.10427 2.53746 8.28488 2.9735 8.28488 3.42815V8.57101C8.28488 9.02567 8.46549 9.4617 8.78698 9.78319C9.10847 10.1047 9.54451 10.2853 9.99916 10.2853C10.4538 10.2853 10.8899 10.1047 11.2113 9.78319C11.5328 9.4617 11.7134 9.02567 11.7134 8.57101V6.85672" stroke="#CB8020" stroke-linecap="round" stroke-linejoin="round"/>
<path d="M10.8555 7.71345L11.7126 6.85631L12.5698 7.71345M4.85547 3.42773V8.57059" stroke="#CB8020" stroke-linecap="round" stroke-linejoin="round"/>
</svg>
