<svg width="12" height="13" viewBox="0 0 12 13" fill="none" xmlns="http://www.w3.org/2000/svg">
<path d="M6.00167 12.5717C7.02465 12.5717 8.00573 12.1653 8.72909 11.442C9.45244 10.7186 9.85882 9.73754 9.85882 8.71456C9.85882 7.69159 9.45244 6.71051 8.72909 5.98715C8.00573 5.2638 7.02465 4.85742 6.00167 4.85742C4.9787 4.85742 3.99762 5.2638 3.27426 5.98715C2.55091 6.71051 2.14453 7.69159 2.14453 8.71456C2.14453 9.73754 2.55091 10.7186 3.27426 11.442C3.99762 12.1653 4.9787 12.5717 6.00167 12.5717Z" stroke="#CB8020" stroke-linecap="round" stroke-linejoin="round"/>
<path d="M2.17188 1.42871C2.28093 2.36839 2.73149 3.23522 3.43791 3.8644C4.14432 4.49357 5.05732 4.84121 6.0033 4.84121C6.94929 4.84121 7.86228 4.49357 8.5687 3.8644C9.27511 3.23522 9.72568 2.36839 9.83473 1.42871" stroke="#CB8020" stroke-linecap="round" stroke-linejoin="round"/>
</svg>
