<svg width="14" height="12" viewBox="0 0 14 12" fill="none" xmlns="http://www.w3.org/2000/svg">
<path d="M5.28488 2.78599V8.57171M5.28488 2.78599C5.28488 2.2745 5.08169 1.78396 4.72001 1.42229C4.35833 1.06061 3.86779 0.857422 3.35631 0.857422C2.84482 0.857422 2.35428 1.06061 1.9926 1.42229C1.63092 1.78396 1.42773 2.2745 1.42773 2.78599V8.57171M5.28488 2.78599C5.28488 2.2745 5.48807 1.78396 5.84974 1.42229C6.21142 1.06061 6.70196 0.857422 7.21345 0.857422C7.72494 0.857422 8.21548 1.06061 8.57715 1.42229C8.93883 1.78396 9.14202 2.2745 9.14202 2.78599V9.42885C9.14202 9.88351 9.32263 10.3195 9.64412 10.641C9.96561 10.9625 10.4016 11.1431 10.8563 11.1431C11.311 11.1431 11.747 10.9625 12.0685 10.641C12.39 10.3195 12.5706 9.88351 12.5706 9.42885V8.57171" stroke="#CB8020" stroke-linecap="round" stroke-linejoin="round"/>
<path d="M9.14202 3.42871H10.7534C11.0882 3.42822 11.4158 3.52577 11.6958 3.7093C11.9758 3.89284 12.1959 4.15433 12.329 4.46152C12.462 4.7687 12.5023 5.10812 12.4447 5.43791C12.3871 5.76769 12.2342 6.07339 12.0049 6.31728L7.42773 11.143" stroke="#CB8020" stroke-linecap="round" stroke-linejoin="round"/>
</svg>
