<svg xmlns="http://www.w3.org/2000/svg" viewBox="0 0 30 30"><defs><style>.cls-1{fill:none;stroke:#cb8020;stroke-linecap:round;stroke-linejoin:round;stroke-width:1.5px;}</style></defs><title>all2</title><g id="Layer_1" data-name="Layer 1"><path class="cls-1" d="M11.92,8.5V22m0-13.54a3.49,3.49,0,0,0-1-2.47A3.43,3.43,0,0,0,6,6,3.49,3.49,0,0,0,5,8.5V22M11.92,8.5a3.5,3.5,0,0,1,1-2.47,3.42,3.42,0,0,1,4.89,0,3.5,3.5,0,0,1,1,2.47V21.89a3.14,3.14,0,0,0,.9,2.2,3.05,3.05,0,0,0,4.35,0,3.14,3.14,0,0,0,.9-2.2V20.33"/><path class="cls-1" d="M18.85,11h2.89a3,3,0,0,1,1.69.5,3.17,3.17,0,0,1,1.14,1.37,3.07,3.07,0,0,1,.2,1.77,3,3,0,0,1-.79,1.6L15.77,25"/></g></svg>