<svg width="80" height="84" viewBox="0 0 80 84" fill="none" xmlns="http://www.w3.org/2000/svg">
<g clip-path="url(#clip0_4488_20417)">
<path d="M75.2214 39.3201C72.9019 36.8783 69.9953 35.632 67.1754 34.3638C64.3555 33.0965 61.4697 31.6926 59.2976 29.0301C57.3556 26.6488 56.1286 22.9975 56.6755 19.6694C57.6623 17.1488 57.6428 15.4646 56.8282 14.982C55.2225 14.0317 49.6015 17.5481 45.9522 21.5393C42.3023 25.5304 34.1271 35.1293 39.3626 34.9025C39.7952 34.8841 40.2136 34.8105 40.6347 34.7483C44.7562 34.6222 48.8636 38.4522 49.8874 43.7018C50.9556 49.1757 48.9685 54.9893 49.7045 60.5552C50.3348 65.3187 53.0053 69.4176 56.3559 71.5003C59.7066 73.583 63.6458 73.7678 67.2379 72.5443C72.569 70.7296 77.3161 65.6279 79.1397 58.8587C80.9627 52.0895 79.5057 43.8314 75.2214 39.3201Z" fill="url(#paint0_linear_4488_20417)"/>
<path d="M49.5477 27.654C48.3712 29.0781 45.4753 31.7371 41.8078 31.8965C38.1404 32.0559 43.8669 25.3322 46.4231 22.5366C48.9793 19.741 52.9159 17.2782 54.0413 17.9438C55.166 18.6095 53.8993 22.3877 49.5477 27.654Z" fill="#C57207"/>
<path d="M52.8067 22.9492C50.4819 15.8148 45.4677 10.2665 39.6847 8.42989C33.9016 6.5933 27.4883 8.51222 22.9012 13.4518C18.3142 18.3914 15.6638 26.2335 15.9645 33.9731C16.2 40.0364 18.1077 45.7415 19.4026 51.5736C20.6975 57.4065 21.3346 63.9576 19.1652 69.3317C17.5137 73.4226 14.2687 76.3522 10.7465 76.9303C7.22436 77.5083 2.9535 76.586 0.574219 73.1563C2.48397 76.2243 4.66009 79.0769 7.27683 81.072C9.89424 83.0671 12.9953 84.1584 15.9935 83.5567C20.3074 82.6922 23.8968 78.3859 25.783 73.2606C27.6692 68.1353 28.0621 62.2848 27.8946 56.606C27.7277 50.9272 27.0329 45.2904 26.8701 39.6116C26.7523 35.5084 26.9669 31.1626 28.6984 27.7312C30.4757 24.2095 33.8155 22.1356 37.0363 22.5542C40.2571 22.9729 44.0713 27.0857 45.2787 30.9962C45.2787 30.9962 47.4972 30.3306 49.7151 27.8293C51.9342 25.3279 52.8067 22.9492 52.8067 22.9492Z" fill="url(#paint1_linear_4488_20417)"/>
<path d="M47.0238 53.4437C50.3805 51.5896 53.5017 49.0497 56.2766 45.9721C59.05 42.8962 61.473 39.2791 63.4319 35.2792C64.5364 33.024 65.4869 30.6461 66.2767 28.1772C66.3634 27.9057 66.0237 27.7874 65.9376 28.0554C64.5459 32.4065 62.624 36.4703 60.2904 40.0717C57.967 43.6573 55.2393 46.7988 52.2122 49.344C50.509 50.7759 48.7129 52.017 46.8469 53.0487C46.6383 53.1625 46.8173 53.5575 47.0238 53.4437Z" fill="#C57207"/>
<path d="M47.2615 69.3811C49.5526 68.2819 51.7536 66.8771 53.8255 65.1964C55.8967 63.5166 57.8408 61.5679 59.6247 59.4011C61.4188 57.2212 63.0507 54.817 64.4963 52.2351C65.9378 49.6602 67.191 46.9049 68.2236 44.0156C69.2528 41.135 70.0668 38.1231 70.6278 35.0315C70.6971 34.6487 70.763 34.2642 70.8249 33.8789C70.8713 33.5916 70.5323 33.469 70.4858 33.7571C69.9887 36.8426 69.2474 39.8598 68.2788 42.7492C67.3128 45.6306 66.1275 48.3868 64.7553 50.974C63.3776 53.5708 61.8082 55.9933 60.0788 58.2038C58.3506 60.4135 56.4611 62.4087 54.4383 64.1436C52.4176 65.8769 50.2643 67.3553 48.0155 68.5192C47.7343 68.6646 47.4525 68.8047 47.1686 68.9405C46.9574 69.0403 47.0489 69.4826 47.2615 69.3811Z" fill="#C57207"/>
<path d="M63.0565 68.627C63.2825 68.627 63.2832 68.1689 63.0565 68.1689C62.8305 68.1698 62.8298 68.627 63.0565 68.627Z" fill="#C57207"/>
<path d="M69.4896 60.9699C69.5508 60.9699 69.612 60.9699 69.6732 60.9699C69.6974 60.9708 69.7203 60.9647 69.7411 60.9507C69.7627 60.9411 69.7815 60.9253 69.7977 60.9034C69.8151 60.8824 69.8266 60.8578 69.834 60.8298C69.8447 60.8027 69.8501 60.7729 69.8495 60.7414C69.8474 60.7212 69.8454 60.7011 69.8434 60.6809C69.8353 60.6424 69.8198 60.6082 69.7983 60.5802C69.764 60.539 69.7216 60.5128 69.6739 60.5128C69.6127 60.5128 69.5515 60.5128 69.4902 60.5128C69.466 60.5119 69.4438 60.518 69.4223 60.532C69.4008 60.5408 69.3813 60.5574 69.3658 60.5793C69.3483 60.6003 69.3362 60.6249 69.3295 60.6529C69.3187 60.68 69.3133 60.7098 69.3147 60.7414C69.3167 60.7615 69.3187 60.7816 69.3207 60.8018C69.3288 60.8403 69.3443 60.8745 69.3658 60.9025C69.4001 60.9437 69.4425 60.9699 69.4896 60.9699Z" fill="#C57207"/>
<path d="M74.6367 51.8771C74.6979 51.8771 74.7592 51.8771 74.8204 51.8771C74.8446 51.8779 74.8674 51.8718 74.8883 51.8569C74.9098 51.8473 74.9287 51.8315 74.9448 51.8096C74.9616 51.7886 74.9737 51.7641 74.9811 51.7361C74.9919 51.7089 74.9973 51.6791 74.9959 51.6476C74.9939 51.6275 74.9919 51.6073 74.9899 51.5872C74.9818 51.5486 74.9663 51.5145 74.9448 51.4865C74.9105 51.4453 74.8681 51.419 74.8204 51.419C74.7592 51.419 74.6979 51.419 74.6367 51.419C74.6125 51.4182 74.5896 51.4243 74.5688 51.4383C74.5472 51.4471 74.5284 51.4637 74.5123 51.4856C74.4955 51.5066 74.4833 51.5311 74.4759 51.5592C74.4652 51.5863 74.4598 51.6161 74.4611 51.6476C74.4632 51.6677 74.4652 51.6879 74.4672 51.708C74.4753 51.7466 74.4908 51.7807 74.5123 51.8087C74.5466 51.8517 74.589 51.8771 74.6367 51.8771Z" fill="#C57207"/>
<path d="M38.0262 35.769C41.5188 36.8489 45.2542 36.3409 48.516 34.4001C51.6406 32.5416 54.2204 29.323 55.857 25.3993C56.7638 23.2256 57.3793 20.8495 57.647 18.3998C57.6786 18.1117 57.3396 17.9873 57.308 18.2781C56.8418 22.5354 55.3229 26.5545 53.0385 29.6567C50.6383 32.9156 47.4337 35.0035 44.0077 35.6578C42.0515 36.0309 40.0422 35.9223 38.119 35.3276C37.8997 35.2593 37.8055 35.7007 38.0262 35.769Z" fill="#C57207"/>
<path d="M32.9441 23.8347C34.6318 22.718 36.6216 22.4413 38.4554 23.0509C40.1122 23.6017 41.5847 24.8953 42.6354 26.6478C43.2254 27.6314 43.6734 28.7542 43.9519 29.9479C44.0178 30.2291 44.3568 30.1091 44.2909 29.8262C43.7776 27.6252 42.7128 25.688 41.2975 24.3173C39.7678 22.8354 37.8506 22.1356 35.9516 22.3012C34.8417 22.3984 33.7587 22.7837 32.7665 23.4397C32.5647 23.5728 32.7429 23.9678 32.9441 23.8347Z" fill="#C57207"/>
<path d="M45.5681 11.7482C47.9662 13.8335 50.6698 16.2666 51.2382 20.2253C51.2799 20.5143 51.6189 20.3917 51.5772 20.1035C50.992 16.0257 48.2171 13.5025 45.7457 11.3523C45.5567 11.1886 45.3811 11.5853 45.5681 11.7482Z" fill="#C57207"/>
<path d="M55.0511 30.6988C55.1076 30.5937 55.2186 30.4869 55.3121 30.4448C55.3417 30.4317 55.3713 30.4203 55.4023 30.4115C55.4023 30.4115 55.4581 30.3984 55.4291 30.4037C55.4446 30.401 55.4601 30.4002 55.4756 30.3984C55.5099 30.3958 55.5442 30.3975 55.5778 30.401C55.594 30.4028 55.6115 30.4072 55.6505 30.4212C55.7117 30.4431 55.7453 30.4641 55.8065 30.5167C55.8482 30.5526 55.8974 30.6121 55.9391 30.6813C55.9263 30.6603 55.9478 30.6988 55.9511 30.705C55.9599 30.7225 55.9687 30.7391 55.9767 30.7575C55.9962 30.7995 56.009 30.8355 56.0164 30.8591C56.0433 30.9519 56.0514 31.0115 56.0541 31.0886C56.0581 31.2121 56.1321 31.3172 56.2296 31.3172C56.3218 31.3172 56.4093 31.2121 56.4052 31.0886C56.3898 30.5841 56.122 30.1164 55.744 29.9798C55.3693 29.8449 54.9663 30.0586 54.7477 30.4676C54.6932 30.5692 54.7336 30.7216 54.811 30.7803C54.8984 30.8477 54.9973 30.8004 55.0511 30.6988Z" fill="#C57207"/>
<path d="M57.4851 30.3833C57.4959 30.3693 57.5094 30.3483 57.5228 30.3395C57.5174 30.3448 57.5127 30.35 57.5074 30.3553C57.5141 30.3492 57.5208 30.343 57.5282 30.3369C57.5511 30.3176 57.58 30.2914 57.6062 30.2817C57.6002 30.2852 57.5941 30.2887 57.5874 30.2922C57.5955 30.2879 57.6029 30.2844 57.6109 30.2809C57.6231 30.2756 57.6352 30.2712 57.6473 30.2669C57.6614 30.2616 57.6762 30.2581 57.6903 30.2546C57.7367 30.2432 57.6634 30.2554 57.7004 30.2528C57.728 30.2511 57.7556 30.2493 57.7832 30.252C57.7892 30.252 57.7959 30.2528 57.802 30.2537C57.8215 30.2563 57.8188 30.2555 57.7932 30.252C57.8006 30.2572 57.8222 30.259 57.8309 30.2616C57.845 30.266 57.8592 30.2712 57.8733 30.2765C57.8794 30.2791 57.8854 30.2817 57.8914 30.2844C57.9096 30.2931 57.9076 30.2922 57.8847 30.28C57.8881 30.2861 57.9137 30.2984 57.919 30.3019C57.9318 30.3106 57.9446 30.3212 57.9574 30.3317C57.9951 30.3641 57.9412 30.3089 57.9668 30.3395C57.9762 30.35 57.9856 30.3606 57.9944 30.3719C58.0031 30.3833 58.0119 30.3947 58.0199 30.407C58.0253 30.4149 58.0307 30.4236 58.0361 30.4315C58.0213 30.4061 58.0199 30.4035 58.0314 30.4236C58.0448 30.4508 58.059 30.4779 58.0704 30.5068C58.0744 30.5164 58.0778 30.5261 58.0818 30.5357C58.0899 30.5585 58.0886 30.555 58.0791 30.5261C58.0859 30.5366 58.0885 30.5594 58.0919 30.5725C58.0966 30.5918 58.1202 30.6662 58.1128 30.6828C58.1121 30.6732 58.1108 30.6636 58.1101 30.654C58.1108 30.6645 58.1121 30.6759 58.1128 30.6864C58.1134 30.703 58.1141 30.7188 58.1141 30.7354C58.1141 30.7547 58.1134 30.7731 58.1128 30.7923C58.1094 30.8536 58.1195 30.7573 58.1121 30.8037C58.106 30.8414 58.0993 30.8773 58.0892 30.9132C58.0583 31.0262 58.1235 31.1689 58.2117 31.1952C58.3099 31.2241 58.3953 31.1567 58.4276 31.0349C58.5359 30.6347 58.4027 30.1679 58.1343 29.9367C57.8592 29.7002 57.4697 29.7685 57.2363 30.061C57.1703 30.1442 57.167 30.3019 57.2363 30.3851C57.3076 30.4683 57.4145 30.4727 57.4851 30.3833Z" fill="#C57207"/>
<path d="M56.2504 28.4624C56.2659 28.4108 56.2323 28.5045 56.2531 28.4563C56.2592 28.4414 56.2652 28.4274 56.272 28.4125C56.2773 28.4011 56.2841 28.3897 56.2901 28.3784C56.2975 28.3652 56.2948 28.3696 56.282 28.3915C56.2861 28.3854 56.2901 28.3792 56.2948 28.3722C56.2982 28.367 56.3446 28.3065 56.3459 28.3092C56.3406 28.3144 56.3359 28.3188 56.3305 28.324C56.3372 28.317 56.3446 28.3109 56.3513 28.3048C56.3601 28.2969 56.3695 28.2899 56.3782 28.2829C56.3876 28.2759 56.3971 28.2689 56.4065 28.2627C56.4139 28.2575 56.422 28.2531 56.43 28.2487C56.424 28.2522 56.4179 28.2557 56.4119 28.2592C56.4125 28.261 56.4798 28.2321 56.4859 28.2303C56.4919 28.2286 56.5282 28.2225 56.5 28.226C56.4717 28.2295 56.5087 28.226 56.5148 28.2251C56.5276 28.2242 56.5404 28.2242 56.5531 28.2251C56.5599 28.2251 56.5659 28.226 56.5726 28.2268C56.5861 28.2286 56.5814 28.2277 56.5578 28.2233C56.576 28.219 56.611 28.2382 56.6278 28.2461C56.6648 28.2619 56.6285 28.2443 56.6285 28.2443C56.6285 28.2443 56.6621 28.2662 56.6635 28.2671C56.6749 28.275 56.6856 28.2846 56.6971 28.2934C56.7018 28.2978 56.73 28.3276 56.7112 28.3057C56.6917 28.2838 56.7247 28.3223 56.728 28.3267C56.7361 28.3363 56.7435 28.3468 56.7509 28.3573C56.7549 28.3635 56.7758 28.388 56.7765 28.3959C56.7637 28.374 56.761 28.3705 56.7684 28.3836C56.7724 28.3906 56.7758 28.3976 56.7792 28.4046C56.7913 28.4283 56.8007 28.4537 56.8108 28.4791C56.8289 28.5246 56.8027 28.4423 56.8128 28.4878C56.8161 28.5045 56.8209 28.5202 56.8236 28.5369C56.8262 28.5509 56.833 28.5728 56.8316 28.5868C56.831 28.5781 56.8296 28.5684 56.8289 28.5597C56.8296 28.571 56.8303 28.5824 56.8309 28.5938C56.8357 28.7129 56.9083 28.8285 57.0065 28.8224C57.0973 28.8171 57.1875 28.7217 57.1821 28.5938C57.1666 28.2041 56.9413 27.8397 56.6379 27.7793C56.3217 27.7171 56.0251 27.9571 55.9107 28.3407C55.8777 28.4528 55.947 28.5964 56.0338 28.6218C56.1347 28.6516 56.2154 28.5816 56.2504 28.4624Z" fill="#C57207"/>
<path d="M51.4513 45.9693C51.2098 45.7793 50.8977 45.8423 50.6885 46.0753C50.4699 46.3188 50.4457 46.7304 50.5661 47.0518C50.636 47.2392 50.7585 47.3697 50.9038 47.4486C50.9892 47.4941 51.1009 47.3987 51.1197 47.2892C51.1432 47.1561 51.0881 47.0571 50.9973 47.008C50.9973 47.008 51.0309 47.0308 51.0154 47.0177C51.0114 47.0142 51.006 47.0116 51.0013 47.0089C50.9926 47.0028 50.9831 46.9958 50.9744 46.9888C50.969 46.9844 50.9347 46.952 50.9589 46.9756C50.9818 46.9984 50.9508 46.966 50.9455 46.959C50.934 46.945 50.9172 46.9082 50.9031 46.9003C50.9031 46.9003 50.9239 46.9397 50.9152 46.9196C50.9118 46.9117 50.9071 46.9047 50.9031 46.8977C50.8964 46.8845 50.8903 46.8714 50.8843 46.8574C50.8789 46.846 50.8742 46.8337 50.8695 46.8215C50.8674 46.8154 50.8654 46.8092 50.8627 46.8031C50.854 46.7821 50.8701 46.8267 50.8701 46.8267C50.8715 46.8031 50.8526 46.7611 50.8486 46.7365C50.8459 46.7234 50.8446 46.7103 50.8426 46.6971C50.8365 46.656 50.8446 46.7462 50.8439 46.705C50.8432 46.6735 50.8419 46.6428 50.8432 46.6113C50.8439 46.6052 50.8446 46.5981 50.8446 46.5911C50.8446 46.5675 50.8419 46.6192 50.8419 46.6192C50.8459 46.6095 50.8459 46.5911 50.8479 46.5798C50.8506 46.5666 50.8533 46.5535 50.856 46.5412C50.8573 46.5351 50.86 46.529 50.8614 46.522C50.8661 46.4957 50.8453 46.5622 50.8553 46.5395C50.8661 46.5141 50.8769 46.4887 50.8883 46.4633C50.9038 46.4291 50.8647 46.4966 50.8856 46.4668C50.8937 46.4554 50.9011 46.4431 50.9098 46.4326C50.9186 46.4212 50.9273 46.4116 50.9361 46.4011C50.9583 46.374 50.9071 46.4256 50.9327 46.4037C50.9515 46.388 50.9697 46.3722 50.9899 46.3582C50.9959 46.3538 51.0289 46.3354 51.002 46.3494C50.9751 46.3634 51.0121 46.3451 51.0195 46.3416C51.041 46.3319 51.0625 46.3258 51.0847 46.3196C51.1231 46.3083 51.0551 46.3214 51.0841 46.3188C51.0982 46.3179 51.1116 46.3162 51.1251 46.3153C51.1372 46.3153 51.1493 46.3153 51.1614 46.3161C51.1668 46.3161 51.1715 46.317 51.1769 46.3179C51.2018 46.3197 51.1661 46.3188 51.1607 46.3144C51.1796 46.3275 51.2098 46.3275 51.2307 46.3372C51.2341 46.3389 51.2455 46.3459 51.2502 46.3459C51.2435 46.3459 51.2152 46.324 51.2367 46.3389C51.2489 46.3477 51.2609 46.3556 51.2731 46.3652C51.3518 46.4274 51.4695 46.3915 51.5139 46.2829C51.5596 46.1708 51.5354 46.035 51.4513 45.9693Z" fill="#C57207"/>
<path d="M52.0988 46.1996C51.6253 46.5998 51.5459 47.5904 51.9818 48.0835C52.0531 48.1649 52.1601 48.1754 52.23 48.0835C52.2939 48.0003 52.302 47.8418 52.23 47.7594C52.2105 47.7375 52.1917 47.7139 52.1735 47.6885C52.1701 47.6841 52.1412 47.6386 52.1553 47.6622C52.1701 47.6876 52.1466 47.6464 52.1439 47.6412C52.1298 47.6132 52.1163 47.5843 52.1049 47.5545C52.0995 47.5414 52.0948 47.5265 52.0894 47.5133C52.1089 47.5597 52.0887 47.5107 52.0861 47.5002C52.0679 47.4363 52.0558 47.3706 52.0484 47.304C52.0518 47.3356 52.0504 47.3268 52.0491 47.3005C52.0484 47.2821 52.047 47.2637 52.0464 47.2453C52.0457 47.2112 52.0457 47.177 52.0477 47.1429C52.0484 47.1271 52.0504 47.1122 52.0511 47.0965C52.0511 47.0684 52.045 47.1367 52.0511 47.0929C52.0565 47.0561 52.0618 47.0202 52.0692 46.9843C52.0753 46.9546 52.0834 46.9256 52.0908 46.8967C52.1049 46.8407 52.0746 46.9362 52.0948 46.8836C52.1009 46.867 52.1069 46.8503 52.1136 46.8346C52.1244 46.8074 52.1365 46.7812 52.1493 46.7558C52.1527 46.7496 52.1809 46.7006 52.1547 46.7426C52.1621 46.7303 52.1695 46.719 52.1776 46.7076C52.1944 46.6822 52.2125 46.6585 52.232 46.6366C52.2374 46.6305 52.2737 46.5963 52.2408 46.6261C52.2529 46.6156 52.2643 46.6051 52.2764 46.5946C52.3558 46.5271 52.3888 46.3914 52.3397 46.2819C52.2926 46.1786 52.1782 46.1322 52.0988 46.1996Z" fill="#C57207"/>
<path d="M52.0286 44.6829C51.8873 44.5498 51.6976 44.5717 51.5503 44.6716C51.4178 44.7618 51.3021 44.9369 51.2691 45.1287C51.2456 45.2671 51.259 45.3994 51.3075 45.5255C51.3263 45.5745 51.3727 45.6166 51.4124 45.6306C51.4548 45.6455 51.5106 45.6385 51.5476 45.6078C51.6324 45.5369 51.6546 45.4099 51.6108 45.2943C51.6081 45.2881 51.6061 45.2811 51.6041 45.275C51.6102 45.2934 51.6162 45.3118 51.6216 45.3293C51.6129 45.3013 51.6068 45.2732 51.6034 45.2435C51.6055 45.2636 51.6075 45.2837 51.6095 45.3039C51.6068 45.275 51.6075 45.247 51.6102 45.2181C51.6082 45.2382 51.6061 45.2583 51.6041 45.2785C51.6082 45.2452 51.6149 45.2137 51.625 45.1822C51.6189 45.2006 51.6129 45.2189 51.6075 45.2364C51.6203 45.1979 51.6364 45.1629 51.6559 45.1305C51.6465 45.1462 51.6377 45.1611 51.6283 45.1769C51.6499 45.1419 51.6741 45.1103 51.701 45.0823C51.6889 45.0946 51.6774 45.106 51.6653 45.1182C51.6936 45.0893 51.7245 45.0657 51.7575 45.0473C51.7434 45.0552 51.7292 45.0622 51.7158 45.07C51.7434 45.0552 51.7716 45.0447 51.8012 45.0394C51.7857 45.042 51.7703 45.0446 51.7548 45.0473C51.7783 45.0438 51.8019 45.0429 51.8261 45.0464C51.8106 45.0438 51.7952 45.0412 51.7797 45.0385C51.8019 45.0429 51.8227 45.0499 51.8436 45.0604C51.8295 45.0525 51.8153 45.0455 51.8019 45.0376C51.8201 45.0482 51.8369 45.0604 51.853 45.0753C51.888 45.1086 51.9485 45.113 51.9882 45.0981C52.0292 45.0832 52.073 45.042 52.0932 44.993C52.1147 44.9396 52.1254 44.8756 52.1106 44.8169C52.0945 44.76 52.0676 44.7197 52.0286 44.6829Z" fill="#C57207"/>
<path d="M52.6115 49.1904C53.0495 53.0397 53.4874 56.8889 53.926 60.7381C54.0524 61.846 54.1782 62.9539 54.304 64.0618C54.337 64.3517 54.676 64.2291 54.6431 63.9401C54.2051 60.0909 53.7672 56.2417 53.3286 52.3924C53.2022 51.2845 53.0764 50.1766 52.9506 49.0687C52.9176 48.7788 52.5793 48.9023 52.6115 49.1904Z" fill="#C57207"/>
<path d="M54.8779 47.5046C57.8236 49.2869 60.7693 51.0692 63.7149 52.8515C63.9188 52.9749 64.0977 52.5808 63.8925 52.4565C60.9468 50.6742 58.0012 48.8919 55.0555 47.1096C54.8517 46.9861 54.6727 47.3802 54.8779 47.5046Z" fill="#C57207"/>
<path d="M65.6307 49.5474C63.8461 46.588 62.3749 43.309 61.271 39.8311C61.1856 39.5631 60.8452 39.6805 60.932 39.9528C62.0608 43.5095 63.5575 46.8438 65.3825 49.8715C65.5217 50.1027 65.7686 49.7769 65.6307 49.5474Z" fill="#C57207"/>
<path d="M62.7156 37.1776C64.9234 37.837 67.1304 38.4965 69.3382 39.156C69.5581 39.2217 69.6523 38.7803 69.4317 38.7146C67.2239 38.0551 65.0162 37.3956 62.8091 36.7361C62.5891 36.6705 62.495 37.111 62.7156 37.1776Z" fill="#C57207"/>
<path d="M57.4969 71.8729C60.7184 68.5535 63.623 64.7209 66.1395 60.4934C68.6365 56.2991 70.7575 51.7273 72.4318 46.8884C73.3789 44.1515 74.1841 41.334 74.8373 38.456C74.9012 38.1731 74.5622 38.0523 74.4983 38.3343C73.3446 43.4167 71.7147 48.3064 69.6644 52.8843C67.6141 57.4613 65.1487 61.7204 62.3288 65.5416C60.7419 67.6917 59.0441 69.7 57.248 71.5506C57.0711 71.7319 57.3213 72.0533 57.4969 71.8729Z" fill="#C57207"/>
<path d="M63.2722 72.9735C65.9293 69.7767 68.5938 66.5703 70.9616 63.0014C73.2064 59.6181 75.1834 55.8941 76.5274 51.7646C77.2633 49.5033 77.8035 47.1386 78.0779 44.7064C78.1102 44.4183 77.7719 44.2939 77.7389 44.5847C77.2492 48.9244 75.9152 53.0171 74.1333 56.7165C72.2713 60.5824 69.9237 64.0024 67.4415 67.2071C66.0019 69.0655 64.5126 70.8584 63.024 72.6494C62.8571 72.85 63.106 73.1731 63.2722 72.9735Z" fill="#C57207"/>
<path d="M75.0151 39.3822C76.8434 41.5648 78.1733 44.391 78.9126 47.4678C79.6499 50.5375 79.8127 53.8543 79.3041 57.0072C79.0714 58.4514 78.7128 59.8667 78.1538 61.1551C77.6204 62.3838 76.9423 63.4988 76.1909 64.5138C74.5348 66.7524 72.5248 68.5461 70.3938 69.9317C68.3676 71.2489 66.1471 72.2622 63.8795 72.5276C63.636 72.5565 63.3925 72.5749 63.1483 72.5836C62.9223 72.5924 62.9216 73.0496 63.1483 73.0417C65.4206 72.9559 67.6573 72.0616 69.717 70.8548C71.9571 69.5428 74.074 67.7798 75.8627 65.5806C76.6887 64.5646 77.4462 63.4436 78.0718 62.2061C78.6866 60.9904 79.1265 59.6706 79.4279 58.2701C80.11 55.1032 80.106 51.7085 79.5026 48.5214C78.8972 45.322 77.6783 42.3048 75.9306 39.913C75.7154 39.6187 75.4927 39.3349 75.2626 39.0599C75.0972 38.8602 74.8476 39.1826 75.0151 39.3822Z" fill="#C57207"/>
<path d="M48.5994 21.6906C46.2981 18.9765 43.5852 16.8885 40.6604 15.5354C37.7194 14.1744 34.5551 13.5543 31.4372 13.8153C28.3953 14.0693 25.1099 15.2463 22.9748 18.2513C22.0055 19.6149 21.3402 21.3902 21.4371 23.2829C21.5266 25.0424 22.2544 26.7196 23.5594 27.3642C24.6935 27.9247 26.1802 27.6103 26.8609 26.1976C27.426 25.024 27.3157 23.2846 26.5488 22.3011C26.3591 22.0585 26.1365 21.8824 25.8909 21.7554C25.6804 21.6468 25.5889 22.0891 25.7974 22.1968C26.7748 22.7004 27.0728 24.3619 26.7197 25.5495C26.2696 27.0603 24.8483 27.4456 23.7673 26.9753C22.4959 26.4227 21.8172 24.742 21.7822 23.07C21.7438 21.258 22.4347 19.607 23.3919 18.3459C25.4678 15.6107 28.5332 14.5221 31.4009 14.2751C34.286 14.0264 37.2021 14.5405 39.9493 15.7018C42.7006 16.8649 45.2945 18.6901 47.5284 21.0863C47.8083 21.3867 48.0821 21.6959 48.3511 22.0129C48.518 22.2117 48.7675 21.8894 48.5994 21.6906Z" fill="#C57207"/>
<path d="M23.8158 32.1133C23.8824 34.2249 24.0042 36.347 24.0008 38.4603C23.9981 40.1734 23.7391 42.0398 22.5128 42.9813C21.4419 43.8037 20.0569 43.6706 19.1595 42.5189C18.2998 41.4153 17.9366 39.4772 18.7128 38.145C19.1407 37.4111 19.8907 37.1589 20.4874 37.722C21.1036 38.3044 21.1036 39.4841 20.5647 40.1436C20.3993 40.346 20.6482 40.6692 20.813 40.4677C21.3067 39.8634 21.4628 38.8658 21.1621 38.068C20.8594 37.2631 20.1228 36.8138 19.4541 36.9872C18.7868 37.1598 18.3133 37.9112 18.0893 38.7082C17.8498 39.5604 17.9029 40.5264 18.1599 41.361C18.6947 43.0969 20.0246 44.1908 21.4621 43.9316C22.1422 43.8089 22.7933 43.4105 23.2864 42.7851C23.8293 42.0959 24.1266 41.1482 24.2517 40.1883C24.4078 38.9911 24.3459 37.771 24.3076 36.565C24.2605 35.0814 24.2141 33.5978 24.167 32.1133C24.1575 31.8199 23.8064 31.8181 23.8158 32.1133Z" fill="#C57207"/>
<path d="M22.2813 49.2455C23.507 52.1199 24.2442 55.3368 24.4259 58.6168C24.4723 59.4541 24.4837 60.2948 24.4581 61.1339C24.4339 61.9361 24.4185 62.79 24.2436 63.5643C24.0909 64.2421 23.6624 65.0015 23.0448 64.8736C22.5686 64.7746 22.2625 64.1694 22.0587 63.6545C21.9147 63.2901 21.8044 62.9039 21.7062 62.5159C21.6006 62.099 21.5084 61.6462 21.5811 61.2066C21.6396 60.8519 21.8145 60.4507 22.1091 60.3693C22.3399 60.3054 22.6628 60.477 22.6937 60.8151C22.7199 61.1041 23.0718 61.1076 23.0455 60.8151C22.985 60.1416 22.428 59.7413 21.9416 59.9568C21.3463 60.2204 21.1519 61.1382 21.2259 61.8696C21.3066 62.6701 21.577 63.5476 21.908 64.2316C22.1932 64.8211 22.6258 65.3536 23.1949 65.3413C23.8494 65.3273 24.3283 64.6231 24.5369 63.8734C24.7817 62.9915 24.7891 61.9589 24.8133 61.0314C24.8658 59.0643 24.7185 57.0867 24.3875 55.1669C24.0169 53.0159 23.4067 50.9385 22.5854 49.0125C22.4751 48.7568 22.1717 48.988 22.2813 49.2455Z" fill="#C57207"/>
<path d="M10.0477 80.4266C12.7916 81.9312 16.0501 81.4907 18.5881 79.5148C19.8696 78.5173 21.1181 77.0424 21.7491 75.2505C22.0767 74.3195 22.2098 73.2562 21.8937 72.2893C21.6199 71.4529 21.0454 70.7488 20.3243 70.6831C19.5191 70.6104 18.7462 71.4494 18.6332 72.482C18.5195 73.5278 19.0886 74.5621 19.8669 74.8134C20.0862 74.8844 20.1804 74.443 19.9604 74.372C19.3173 74.1645 18.8357 73.2703 19.0011 72.4058C19.1653 71.5493 19.8783 70.9563 20.5403 71.1911C21.1793 71.4179 21.6098 72.2604 21.7074 73.0793C21.8271 74.0821 21.478 75.0902 21.0616 75.9056C19.6079 78.7546 17.0107 80.4975 14.4309 80.8137C12.9712 80.9924 11.4947 80.727 10.1412 79.9851C9.93271 79.8704 9.84189 80.3136 10.0477 80.4266Z" fill="#C57207"/>
<path d="M16.6297 37.5771C15.5184 34.7377 15.2695 31.4753 15.6799 28.3556C16.0976 25.1808 17.1349 22.1618 18.5684 19.5466C20.0066 16.9218 21.8834 14.6964 23.9593 12.9509C26.0298 11.2097 28.3236 9.93189 30.7177 9.17256C33.1199 8.41147 35.6209 8.18028 38.0795 8.53761C38.389 8.58228 38.6971 8.63832 39.0038 8.70137C39.2251 8.74779 39.3206 8.30638 39.0973 8.25996C36.5936 7.73973 34.034 7.82294 31.5478 8.46491C29.0696 9.10514 26.6729 10.2998 24.4994 11.9761C22.3246 13.6541 20.3429 15.8288 18.7789 18.4212C17.2183 21.0084 16.0492 24.0352 15.4902 27.2512C14.946 30.3831 14.9998 33.734 15.9449 36.7293C16.0606 37.0954 16.1871 37.4554 16.3256 37.8083C16.4292 38.0702 16.7326 37.839 16.6297 37.5771Z" fill="#C57207"/>
<path d="M0.0495827 73.2893C1.71784 75.5813 3.53812 77.6798 5.4889 79.5567C7.37846 81.3749 9.40055 82.9925 11.7253 83.6389C13.8678 84.2344 16.1294 84.0926 18.2154 83.2194C20.1877 82.3935 21.9676 80.8993 23.3776 78.9261C24.9046 76.7891 25.9916 74.1293 26.4605 71.2715C26.5076 70.9842 26.1685 70.8616 26.1214 71.1497C25.2967 76.1813 22.5071 80.577 18.8148 82.4565C16.7886 83.4882 14.5446 83.7974 12.3974 83.3393C10.1284 82.8559 8.1386 81.4572 6.28267 79.7424C4.12268 77.7473 2.1201 75.4684 0.29915 72.9662C0.141742 72.7516 -0.10648 73.0756 0.0495827 73.2893Z" fill="#C57207"/>
<path d="M54.4186 0.99318C54.6823 0.99318 54.794 0.343316 54.8141 0.0937078C54.8188 0.0402829 54.8532 0 54.8942 0C54.9359 0 54.9702 0.0411587 54.9742 0.0937078C54.9951 0.344192 55.1061 0.99318 55.3698 0.99318C55.4142 0.99318 55.4505 1.04047 55.4505 1.09827C55.4505 1.15608 55.4142 1.20337 55.3698 1.20337C55.1061 1.20337 54.9944 1.85324 54.9742 2.10372C54.9695 2.15715 54.9352 2.19831 54.8942 2.19831C54.8532 2.19831 54.8182 2.15715 54.8141 2.10372C54.7933 1.85324 54.6823 1.20337 54.4186 1.20337C54.3742 1.20337 54.3379 1.15608 54.3379 1.09827C54.3379 1.03959 54.3742 0.99318 54.4186 0.99318Z" fill="#C57207"/>
<path d="M19.7705 7.61637C20.532 7.61637 20.8529 5.74125 20.9121 5.01958C20.9249 4.86543 21.0244 4.74805 21.1442 4.74805C21.2639 4.74805 21.3635 4.86543 21.3762 5.01958C21.4354 5.74125 21.757 7.61637 22.5178 7.61637C22.6469 7.61637 22.7512 7.75211 22.7512 7.92027C22.7512 8.08843 22.6469 8.22419 22.5178 8.22419C21.7563 8.22419 21.4354 10.0993 21.3762 10.821C21.3635 10.9751 21.2639 11.0925 21.1442 11.0925C21.0251 11.0925 20.9249 10.9751 20.9121 10.821C20.8529 10.0984 20.5313 8.22419 19.7705 8.22419C19.6414 8.22419 19.5371 8.08843 19.5371 7.92027C19.5371 7.75211 19.6414 7.61637 19.7705 7.61637Z" fill="#C57207"/>
<path d="M40.6152 67.3754C40.6152 67.8142 40.8884 68.1698 41.2254 68.1698C41.5624 68.1698 41.8355 67.8142 41.8355 67.3754C41.8355 66.9366 41.5624 66.5811 41.2254 66.5811C40.8884 66.5811 40.6152 66.9366 40.6152 67.3754Z" fill="#C57207"/>
<path d="M32.5596 32.699C32.7371 33.0993 32.6315 33.6116 32.3241 33.8429C32.0167 34.0741 31.6232 33.9366 31.4456 33.5363C31.268 33.1361 31.3736 32.6237 31.681 32.3925C31.9884 32.1613 32.382 32.2988 32.5596 32.699Z" fill="#C57207"/>
<path d="M62.0663 19.5185C62.3549 19.7883 62.4208 20.3111 62.2143 20.6869C62.0071 21.0626 61.6055 21.1484 61.3169 20.8796C61.0284 20.6107 60.9624 20.0869 61.1696 19.7112C61.3761 19.3346 61.7777 19.2488 62.0663 19.5185Z" fill="#C57207"/>
<path d="M79.2836 23.821C79.3623 23.4234 79.1787 23.0188 78.8733 22.9163C78.5679 22.8138 78.2571 23.0529 78.1784 23.4505C78.0997 23.8481 78.2833 24.2528 78.5887 24.3553C78.8941 24.4577 79.2049 24.2186 79.2836 23.821Z" fill="#C57207"/>
<path d="M67.3572 9.23478C67.931 9.23478 68.1732 7.82207 68.2176 7.27819C68.227 7.16171 68.3023 7.07324 68.3925 7.07324C68.4826 7.07324 68.5573 7.16171 68.5674 7.27819C68.6118 7.82207 68.8539 9.23478 69.4277 9.23478C69.5246 9.23478 69.6033 9.33724 69.6033 9.46335C69.6033 9.58947 69.5246 9.69196 69.4277 9.69196C68.8539 9.69196 68.6118 11.1046 68.5674 11.6485C68.5579 11.765 68.4826 11.8535 68.3925 11.8535C68.3023 11.8535 68.2277 11.765 68.2176 11.6485C68.1732 11.1038 67.931 9.69196 67.3572 9.69196C67.2603 9.69196 67.1816 9.58947 67.1816 9.46335C67.1816 9.33724 67.2597 9.23478 67.3572 9.23478Z" fill="#C57207"/>
<path d="M32.6759 51.3441C32.3026 51.3441 32.1452 50.4254 32.1162 50.0716C32.1102 49.9963 32.0611 49.9385 32.0026 49.9385C31.944 49.9385 31.8949 49.9963 31.8889 50.0716C31.86 50.4254 31.7025 51.3441 31.3292 51.3441C31.266 51.3441 31.2148 51.4107 31.2148 51.493C31.2148 51.5754 31.266 51.6419 31.3292 51.6419C31.7025 51.6419 31.86 52.5607 31.8889 52.9145C31.8949 52.9898 31.944 53.0476 32.0026 53.0476C32.0611 53.0476 32.1102 52.9898 32.1162 52.9145C32.1452 52.5607 32.3026 51.6419 32.6759 51.6419C32.7392 51.6419 32.7903 51.5754 32.7903 51.493C32.7903 51.4107 32.7392 51.3441 32.6759 51.3441Z" fill="#C57207"/>
<path d="M74.2952 35.9574C74.2952 35.6264 74.0894 35.3584 73.8351 35.3584C73.5809 35.3584 73.375 35.6264 73.375 35.9574C73.375 36.2885 73.5809 36.5565 73.8351 36.5565C74.0894 36.5565 74.2952 36.2885 74.2952 35.9574Z" fill="#C57207"/>
<path d="M44.2991 50.5795C44.2991 50.2485 44.0933 49.9805 43.839 49.9805C43.5848 49.9805 43.3789 50.2485 43.3789 50.5795C43.3789 50.9106 43.5848 51.1786 43.839 51.1786C44.0933 51.1786 44.2991 50.9106 44.2991 50.5795Z" fill="#C57207"/>
</g>
<defs>
<linearGradient id="paint0_linear_4488_20417" x1="54.2512" y1="23.2532" x2="68.2007" y2="57.1174" gradientUnits="userSpaceOnUse">
<stop stop-color="#EBCB76"/>
<stop offset="1" stop-color="#E19256"/>
</linearGradient>
<linearGradient id="paint1_linear_4488_20417" x1="21.0855" y1="18.6947" x2="39.8466" y2="62.0346" gradientUnits="userSpaceOnUse">
<stop stop-color="#EBCB76"/>
<stop offset="1" stop-color="#E19256"/>
</linearGradient>
<clipPath id="clip0_4488_20417">
<rect width="79.9473" height="84" fill="white"/>
</clipPath>
</defs>
</svg>
