<svg width="57" height="84" viewBox="0 0 57 84" fill="none" xmlns="http://www.w3.org/2000/svg">
<path d="M0.255315 68.5024C4.3613 67.0833 7.3353 62.0048 7.1087 57.669C7.1077 57.6569 7.10568 57.6438 7.10467 57.6318C5.02096 58.5647 2.64015 58.8385 0.409403 58.3443C2.43772 56.2338 4.46604 54.1223 6.49336 52.0118C6.62025 49.9385 7.66161 47.9377 9.29413 46.6514C13.4334 43.3926 16.8464 39.4936 19.2837 34.8247C22.3815 28.8907 22.9163 21.4419 27.7414 16.7992C26.0253 13.0371 26.4049 8.31185 28.8885 5.00466C31.372 1.69748 35.7277 -0.0980205 39.8227 0.497796C44.5037 -0.624392 49.7971 0.0640067 53.2142 3.45271C56.6313 6.84142 57.5589 12.5983 54.9746 16.6573C54.4389 17.4987 53.048 19.8145 51.8244 19.106C51.5928 22.1787 49.785 24.9766 47.1836 26.6332C46.0144 27.377 44.3617 27.8258 43.3284 26.9019C42.3888 26.0615 42.5016 24.5972 42.5459 23.3381C42.6365 20.7777 41.711 17.6064 40.6384 15.2795C40.7714 21.0343 40.9053 26.7902 41.0392 32.5451C45.1694 31.4611 49.792 32.4625 53.1024 35.1578C53.614 38.0363 54.4932 41.0234 53.8104 43.8656C53.1276 46.7078 50.924 49.4021 48.0135 49.699C47.655 49.4182 47.3659 49.1374 47.1242 48.8455C47.0557 49.7603 46.9198 50.6651 46.6217 51.5347C45.9419 53.5184 44.3154 55.324 42.2327 55.5796C41.1722 54.4252 40.4058 53.3 39.3453 52.1456C40.5004 51.1382 41.3545 50.0321 42.5086 49.0246C42.3545 47.0329 42.421 45.1045 42.2669 43.1128C41.4783 43.4016 40.579 43.455 39.6958 43.3392C38.8246 44.9002 37.6392 46.279 36.1739 47.3529C33.641 49.2088 30.5502 50.0955 27.6104 51.2006C26.1048 51.7662 24.5911 52.4294 23.2305 53.2869C23.5709 55.6058 23.7592 57.9438 23.3614 60.2415C22.8216 63.3544 20.9897 66.4321 18.0479 67.5896C16.1334 68.3424 13.8594 68.2649 12.2369 69.528C10.8733 70.5898 10.2841 72.4124 10.3053 74.1395C10.3264 75.8666 10.8753 77.5383 11.4181 79.1788C13.4414 79.7615 15.3922 81.8006 15.0185 83.8708C12.3205 83.6323 9.94875 83.4663 7.28696 83.9675C7.25876 83.6776 7.25171 83.3998 7.22653 83.112C6.31208 83.122 5.3382 83.4381 4.42274 83.6726C2.95236 84.05 1.19998 84.2976 0.0800781 83.272C0.185825 78.3646 0.153597 73.4098 0.255315 68.5024ZM42.6043 38.7951C43.9266 39.0447 45.2288 39.6687 46.0244 40.7537C46.959 42.0268 47.0638 43.7066 47.1323 45.2857C47.7959 44.9485 48.4536 44.6073 49.1576 44.2893C48.7608 41.9735 48.2935 39.7844 47.8967 37.4686C45.5934 37.8883 43.6225 37.9195 41.3182 38.3392C41.3051 38.4449 41.2799 38.5475 41.2648 38.6532C41.714 38.6743 42.1622 38.7116 42.6043 38.7951ZM4.4741 79.83C5.2113 79.3801 6.16302 79.3922 6.99087 79.7052C6.80757 76.0528 6.85994 72.4769 7.14194 68.8265C6.76326 68.8858 6.38258 68.9342 5.99987 68.9644C5.66451 69.5944 4.90816 70.0171 4.19513 69.9718C4.24851 73.0998 4.42173 76.7019 4.4741 79.83Z" fill="url(#paint0_linear_4424_880)"/>
<defs>
<linearGradient id="paint0_linear_4424_880" x1="50.9058" y1="-6.96833" x2="19.5959" y2="69.7213" gradientUnits="userSpaceOnUse">
<stop stop-color="#EBCB76"/>
<stop offset="1" stop-color="#E19256"/>
</linearGradient>
</defs>
</svg>
