<svg width="80" height="84" viewBox="0 0 80 84" fill="none" xmlns="http://www.w3.org/2000/svg">
<g clip-path="url(#clip0_4488_20661)">
<path d="M76.868 61.365C74.1315 60.5412 71.0703 60.4436 68.39 61.4422C68.2282 60.9004 67.7521 60.5285 67.2865 60.224C66.0468 59.4139 64.7052 58.4124 63.2351 58.4251C61.3813 58.4417 59.5284 58.4573 57.6746 58.4739C58.3354 58.1118 59.0038 57.7653 59.6951 57.4636C62.7486 56.1323 66.7352 55.0527 69.8059 56.3412C67.3884 55.4119 65.6688 54.4905 64.2844 53.574C66.0078 53.0079 67.7197 52.3509 69.4803 52.0152C71.8502 51.5632 74.0725 50.3324 75.7397 48.5491C77.4078 46.7648 78.7808 44.2524 78.9655 41.7888C79.1093 39.8708 78.5732 37.9079 77.4792 36.3452C76.3852 34.7825 74.7542 33.9187 72.9366 33.4443C75.1322 35.3047 76.3405 38.3237 76.2319 41.2412C74.8227 42.9445 73.6821 44.7678 72.7023 46.7639C70.4772 46.9308 68.5043 47.9723 67.0142 49.6745C67.0066 49.6404 66.999 49.6072 66.9913 49.573C64.7481 49.207 62.4096 49.5076 60.313 50.4017C60.034 50.1606 59.7532 49.9186 59.4599 49.6775C60.9633 49.5672 62.4544 49.2714 63.8721 48.7463C64.6557 48.4564 65.5098 47.9693 65.8964 47.2138C68.192 46.7297 70.3362 44.8195 70.8142 42.4672C71.6502 38.351 70.7142 34.0865 70.3753 29.8972C70.2553 28.4136 69.3993 27.0119 68.1501 26.2525C67.6836 25.9695 67.1865 25.8962 66.6886 26.1159C67.515 26.8382 68.6262 27.7976 68.5986 28.9104C68.4919 33.3262 68.2586 37.618 68.152 42.0348C66.3848 42.4925 64.6148 43.6404 63.6674 45.2363C60.7481 44.6536 57.6518 45.168 55.022 46.5843C54.9334 46.5276 54.843 46.474 54.7544 46.4174C59.0514 43.9489 63.0333 40.7707 66.501 37.2695C66.3982 34.9162 66.4162 32.1822 66.3134 29.8279C62.6058 26.0993 57.8098 23.5234 52.7092 22.52C48.575 21.7069 44.3351 21.9519 40.9236 24.4799C44.9645 23.3584 49.5852 24.0905 53.1072 26.4097C49.7195 28.395 45.7833 28.8743 42.1118 27.5175C43.9952 30.4418 46.7878 32.7415 49.9804 33.9967C53.1729 35.252 56.9872 35.7303 60.2959 34.8479C59.4932 35.333 58.742 36.1363 58.6687 37.088C55.1448 38.2915 51.9884 40.5677 49.6471 43.5204C49.1463 43.2773 48.6502 43.0245 48.1361 42.8097C44.8635 41.4393 41.2568 40.6965 37.771 41.3007C35.2545 41.737 32.9817 42.8273 30.8223 44.2173C27.4107 41.7214 23.8193 39.4852 20.0688 37.5673C20.3592 36.0895 19.9059 34.5248 19.0004 33.3369C27.1956 33.4072 35.1298 28.558 39.2392 21.2901C35.5344 23.4843 30.8499 24.0934 26.7271 22.9202C29.5226 19.4258 33.8596 17.5927 38.2071 18.3433C36.637 17.2902 34.6375 17.1252 32.7646 17.2287C24.9742 17.6581 17.6056 22.8157 14.3778 30.0983C13.4837 32.1149 14.1445 34.6361 14.0883 36.8508C17.5389 41.211 21.9873 44.7483 26.9937 47.003C26.7871 47.166 26.5805 47.3271 26.3739 47.492C23.486 45.3954 19.7584 44.5413 16.2821 45.2353C15.3347 43.6394 13.5637 42.4916 11.7975 42.0338C11.6908 37.618 11.4576 33.3262 11.3509 28.9094C11.3243 27.7967 12.4354 26.8372 13.2609 26.1149C12.763 25.8953 12.2659 25.9685 11.7994 26.2515C10.5502 27.0109 9.6942 28.4126 9.57423 29.8962C9.23527 34.0865 8.29931 38.35 9.13529 42.4662C9.61327 44.8185 11.7565 46.7287 14.0522 47.2129C14.4387 47.9693 15.2928 48.4554 16.0764 48.7453C18.3368 49.5828 21.1313 49.9801 23.5565 49.7624C22.8595 50.3168 22.1559 50.8527 21.4465 51.3729C18.95 49.7555 15.8746 49.0957 12.9572 49.572C12.9496 49.6062 12.942 49.6394 12.9343 49.6736C11.4442 47.9723 9.47139 46.9298 7.24623 46.7629C6.26648 44.7668 5.12581 42.9445 3.71663 41.2402C3.60809 38.3218 4.81637 35.3027 7.01202 33.4433C5.19342 33.9177 3.56239 34.7815 2.46933 36.3442C1.37531 37.9069 0.839268 39.8698 0.983042 41.7878C1.16776 44.2514 2.5417 46.7639 4.20891 48.5482C5.87706 50.3324 8.09935 51.5623 10.4683 52.0142C12.7506 52.4495 14.9529 53.4227 17.2038 54.0357C15.6365 54.8204 13.9969 55.4051 12.2355 55.6589C15.607 55.1982 19.0995 55.9703 22.3863 57.4236C23.1128 57.7448 23.8164 58.1128 24.5134 58.4934C21.914 58.471 19.3137 58.4485 16.7143 58.4251C15.2442 58.4124 13.9027 59.4139 12.663 60.224C12.1974 60.5285 11.7204 60.9004 11.5585 61.4422C8.87726 60.4436 5.81706 60.5422 3.0806 61.365C0.560278 62.1235 -0.288077 65.8745 0.0832588 68.5402C0.585039 66.3099 2.1875 64.5051 4.12606 63.3699C4.10607 63.3494 4.29268 63.6374 4.27269 63.6169C6.35407 65.3533 8.92011 65.9829 11.5814 65.6305C14.2426 65.2772 16.7382 63.7623 18.3197 61.5407C21.4113 61.2684 24.7352 60.7726 27.8487 60.4798C28.8447 61.1103 29.8416 61.7369 30.848 62.3489C28.7485 62.2084 26.6481 62.0678 24.5486 61.9273C23.9773 61.8892 23.3841 61.8541 22.8528 62.0717C22.3215 62.2894 21.8731 62.8389 21.9569 63.4187C20.621 63.4763 19.5051 64.4709 18.8967 65.692C18.2892 66.9121 18.3749 68.4651 19.1128 69.608C19.1157 71.0858 19.2375 72.6437 19.8383 73.9877C20.4391 75.3318 21.5836 76.4904 23.0014 76.7608C24.4191 77.0321 26.0492 76.2063 26.4338 74.7813C26.73 73.6861 26.2653 72.4943 25.5198 71.6539C24.7742 70.8135 23.7793 70.2571 22.8052 69.7164C24.1239 68.9014 24.8428 67.0937 24.5229 65.5495C27.1603 66.7267 31.1079 65.6539 33.4607 63.8316C36.0952 65.1786 38.9269 66.1537 41.8452 66.0317C43.7962 65.9507 45.6729 65.3787 47.4667 64.5686C49.7537 66.1566 52.9168 66.6691 55.4238 65.5495C55.1038 67.0937 55.8227 68.9014 57.1414 69.7164C56.1674 70.2571 55.1724 70.8135 54.4269 71.6539C53.6814 72.4943 53.2167 73.6861 53.5128 74.7813C53.8975 76.2063 55.5285 77.0321 56.9453 76.7608C58.363 76.4894 59.5075 75.3308 60.1083 73.9877C60.7091 72.6437 60.8319 71.0868 60.8338 69.608C61.5717 68.466 61.6574 66.9131 61.05 65.692C60.4425 64.4719 59.3256 63.4763 57.9898 63.4187C58.0736 62.838 57.6251 62.2894 57.0938 62.0717C56.5625 61.8541 55.9693 61.8882 55.3981 61.9273C54.1869 62.0083 52.9758 62.0893 51.7637 62.1703C52.4826 61.7116 53.1996 61.2489 53.9137 60.7804C56.4845 61.0332 59.06 61.3143 61.627 61.5407C63.2085 63.7633 65.7041 65.2772 68.3644 65.6305C71.0256 65.9839 73.5916 65.3533 75.673 63.6169C75.653 63.6374 75.8396 63.3494 75.8196 63.3699C77.7582 64.5061 79.3607 66.3099 79.8624 68.5402C80.2366 65.8755 79.3883 62.1235 76.868 61.365Z" fill="url(#paint0_linear_4488_20661)"/>
<path d="M12.6931 56.1401C20.4045 55.4588 28.1131 54.714 35.8321 54.1255C43.1312 53.5691 50.498 53.2665 57.7866 54.1333C61.8609 54.6174 65.8942 55.489 69.777 56.8565C70.0807 56.9629 70.2112 56.471 69.9093 56.3646C62.9873 53.9263 55.6443 53.1132 48.3566 53.084C40.8871 53.0527 33.4394 53.7984 26.005 54.4553C21.568 54.8468 17.1311 55.2391 12.6941 55.6306C12.377 55.6579 12.3741 56.1674 12.6931 56.1401Z" fill="#C57207"/>
<path d="M17.0998 54.2288C20.3266 51.9516 23.463 49.5417 26.6955 47.2732C28.2532 46.18 29.8452 45.1483 31.4439 44.1205C32.4589 43.4685 33.4596 42.7833 34.5421 42.2523C35.7257 41.6715 37.0015 41.323 38.305 41.1747C40.0893 40.9726 41.9127 41.0302 43.6704 41.4158C47.3104 42.2152 50.5524 44.1966 53.6412 46.2464C57.1403 48.5675 60.6394 50.8896 64.1376 53.2107C64.5709 53.4977 65.0041 53.7856 65.4364 54.0726C65.7058 54.2512 65.9562 53.81 65.6877 53.6324C62.1372 51.2761 58.5857 48.9209 55.0351 46.5646C51.8683 44.4631 48.6615 42.3138 44.9995 41.2323C43.2305 40.7101 41.4176 40.5012 39.579 40.5705C38.1222 40.6252 36.6626 40.8457 35.2934 41.3728C34.1737 41.8033 33.1444 42.4202 32.1342 43.0702C30.6822 44.0053 29.2216 44.9258 27.7934 45.8989C24.5113 48.1351 21.355 50.5568 18.1281 52.8759C17.7025 53.1815 17.276 53.486 16.8475 53.7876C16.5857 53.973 16.8342 54.4152 17.0998 54.2288Z" fill="#C57207"/>
<path d="M23.5784 58.1261C26.0635 59.7122 28.5476 61.2974 31.0327 62.8835C33.237 64.29 35.4783 65.7561 38.0043 66.4764C40.5161 67.1929 43.0955 66.9215 45.5253 66.0148C48.0009 65.0914 50.2261 63.6419 52.4379 62.2032C54.8963 60.6044 57.409 59.0036 60.255 58.2491C60.5644 58.1671 60.4331 57.6751 60.1227 57.7571C55.1144 59.0846 51.2715 62.8874 46.6193 65.0133C44.2257 66.1075 41.5863 66.7283 38.9765 66.1905C36.4457 65.6692 34.1882 64.289 32.0211 62.9118C29.2875 61.1744 26.5605 59.4272 23.8298 57.6849C23.5565 57.5121 23.3061 57.9533 23.5784 58.1261Z" fill="#C57207"/>
<path d="M16.1004 60.1666C16.1004 60.1666 16.1642 60.1549 16.1262 60.1617C16.089 60.1686 16.1452 60.1598 16.1519 60.1588C16.1852 60.1559 16.2176 60.1539 16.2509 60.1539C16.2842 60.1539 16.3175 60.1549 16.3499 60.1568C16.3632 60.1578 16.3766 60.1598 16.3899 60.1607C16.4556 60.1666 16.3375 60.15 16.4023 60.1627C16.4642 60.1744 16.5251 60.1891 16.586 60.2086C16.6175 60.2193 16.6489 60.231 16.6793 60.2427C16.7136 60.2554 16.627 60.2164 16.6841 60.2447C16.6993 60.2525 16.7146 60.2593 16.7289 60.2671C16.785 60.2964 16.8393 60.3296 16.8917 60.3657C16.905 60.3755 16.9183 60.3853 16.9326 60.395C16.9564 60.4126 16.9021 60.3677 16.9364 60.3989C16.9612 60.4214 16.9869 60.4428 17.0107 60.4663C17.0345 60.4897 17.0573 60.5141 17.0792 60.5395C17.0878 60.5492 17.0964 60.56 17.105 60.5707C17.1478 60.6215 17.0773 60.5287 17.1145 60.5834C17.1526 60.639 17.1878 60.6966 17.2173 60.7571C17.2763 60.8762 17.4496 60.9201 17.5582 60.8489C17.6772 60.7708 17.7105 60.6273 17.6477 60.5004C17.3392 59.8787 16.6279 59.5497 15.9681 59.6747C15.8396 59.6991 15.7558 59.865 15.7948 59.989C15.8386 60.1295 15.9633 60.193 16.1004 60.1666Z" fill="#C57207"/>
<path d="M11.2323 61.8975C10.9105 62.7467 11.1733 63.792 11.8522 64.3787C11.955 64.4675 12.1035 64.4821 12.2045 64.3787C12.293 64.2879 12.3073 64.1073 12.2045 64.0175C11.6408 63.5305 11.4494 62.7252 11.7131 62.0322C11.7617 61.9033 11.6598 61.752 11.5399 61.7179C11.397 61.6798 11.2809 61.7686 11.2323 61.8975Z" fill="#C57207"/>
<path d="M4.90424 61.75C4.27678 62.0233 3.93306 62.8032 4.10444 63.4709C4.13777 63.5997 4.28345 63.6914 4.41008 63.6485C4.53957 63.6056 4.61955 63.4728 4.58432 63.3352C4.57575 63.3001 4.56909 63.2649 4.56243 63.2308C4.55481 63.1956 4.56719 63.2932 4.56243 63.2308C4.56148 63.2142 4.55957 63.1985 4.55862 63.1819C4.55481 63.1243 4.54338 63.0326 4.56433 62.978C4.55386 63.0053 4.55863 63.0131 4.56529 62.978C4.56815 62.9623 4.57099 62.9457 4.57385 62.9301C4.58146 62.895 4.59004 62.8608 4.59956 62.8267C4.60908 62.7954 4.6186 62.7652 4.63003 62.7339C4.6405 62.7066 4.64431 62.7017 4.63003 62.732C4.6386 62.7144 4.64622 62.6968 4.65479 62.6793C4.68335 62.6207 4.71572 62.5651 4.75285 62.5114C4.75857 62.5026 4.79951 62.4538 4.75952 62.5006C4.77 62.4879 4.77952 62.4753 4.78999 62.4635C4.81094 62.4391 4.83188 62.4157 4.85473 62.3923C4.87948 62.3669 4.9052 62.3435 4.93186 62.321C4.96709 62.2898 4.90901 62.3366 4.93376 62.3191C4.94709 62.3103 4.95947 62.3005 4.9728 62.2918C5.03088 62.2517 5.09277 62.2186 5.15656 62.1912C5.27653 62.1385 5.31177 61.9482 5.24607 61.8428C5.16419 61.7139 5.03278 61.6944 4.90424 61.75Z" fill="#C57207"/>
<path d="M23.0604 64.1698C23.069 64.1659 23.1138 64.1523 23.0776 64.161C23.0433 64.1698 23.0804 64.161 23.0881 64.1581C23.1119 64.1493 23.1366 64.1415 23.1614 64.1347C23.1861 64.1279 23.2109 64.122 23.2356 64.1171C23.2433 64.1162 23.2709 64.1054 23.2775 64.1103C23.2718 64.1074 23.2233 64.1162 23.2623 64.1132C23.3137 64.1093 23.3642 64.1074 23.4156 64.1103C23.4299 64.1113 23.4442 64.1123 23.4584 64.1132C23.4775 64.1152 23.5099 64.1279 23.4518 64.1113C23.4756 64.1181 23.5032 64.1201 23.527 64.1259C23.5775 64.1376 23.626 64.1523 23.6746 64.1708C23.6812 64.1737 23.7184 64.1874 23.6841 64.1737C23.6479 64.1591 23.6936 64.1786 23.7012 64.1825C23.7241 64.1942 23.7469 64.206 23.7688 64.2196C23.7907 64.2323 23.8126 64.246 23.8336 64.2616C23.8431 64.2684 23.8526 64.2753 23.8612 64.2811C23.9069 64.3143 23.8336 64.2567 23.8583 64.2791C23.8983 64.3172 23.9383 64.3533 23.9735 64.3953C24.0592 64.4959 24.2392 64.4919 24.3258 64.3953C24.422 64.2879 24.4173 64.1425 24.3258 64.0342C23.9526 63.5959 23.3128 63.4895 22.8081 63.7306C22.6901 63.7872 22.651 63.9707 22.7186 64.08C22.7986 64.203 22.9338 64.2303 23.0604 64.1698Z" fill="#C57207"/>
<path d="M19.6113 69.5953C20.0997 70.3264 21.2271 70.4484 21.8307 69.7935C21.9231 69.6929 21.9278 69.5319 21.8307 69.4323C21.7374 69.3367 21.5717 69.3318 21.4784 69.4323C21.4498 69.4636 21.4194 69.4919 21.3889 69.5202C21.3689 69.5387 21.4146 69.5035 21.3775 69.5299C21.3594 69.5426 21.3413 69.5563 21.3223 69.568C21.2909 69.5885 21.2585 69.606 21.2252 69.6236C21.2204 69.6265 21.1537 69.6539 21.2033 69.6344C21.1861 69.6412 21.169 69.648 21.1509 69.6539C21.1118 69.6675 21.0728 69.6793 21.0328 69.688C21.0147 69.692 20.9966 69.6958 20.9776 69.6998C20.9567 69.7037 20.929 69.7076 20.9662 69.7027C20.8843 69.7124 20.8014 69.7144 20.7186 69.7085C20.6996 69.7076 20.6815 69.7056 20.6624 69.7037C20.6329 69.7007 20.6977 69.7115 20.6501 69.7017C20.6101 69.6929 20.5691 69.6851 20.5291 69.6744C20.4891 69.6636 20.4511 69.649 20.412 69.6353C20.3682 69.6197 20.4244 69.6422 20.3996 69.6305C20.3825 69.6227 20.3663 69.6139 20.3492 69.6051C20.313 69.5856 20.2778 69.5651 20.2435 69.5416C20.2283 69.5309 20.213 69.5201 20.1978 69.5094C20.2387 69.5397 20.1826 69.4957 20.1787 69.4928C20.1511 69.4674 20.1245 69.4411 20.0988 69.4138C20.0835 69.3972 20.0692 69.3796 20.055 69.362C20.0816 69.3962 20.0473 69.3494 20.0407 69.3396C19.9645 69.2264 19.8217 69.1746 19.6998 69.2478C19.5913 69.3123 19.5351 69.4811 19.6113 69.5953Z" fill="#C57207"/>
<path d="M23.2227 74.7106C23.2389 74.7009 23.2551 74.6931 23.2713 74.6853C23.2513 74.694 23.2313 74.7028 23.2122 74.7106C23.2408 74.6989 23.2703 74.6911 23.2998 74.6872C23.2779 74.6902 23.256 74.6931 23.2341 74.696C23.2694 74.6921 23.3046 74.6921 23.3398 74.697C23.3179 74.694 23.296 74.6911 23.2732 74.6882C23.3141 74.695 23.3531 74.7058 23.3912 74.7223C23.3712 74.7136 23.3512 74.7048 23.3322 74.697C23.3731 74.7155 23.4112 74.738 23.4465 74.7663C23.4293 74.7526 23.4131 74.7399 23.396 74.7263C23.4331 74.7565 23.4674 74.7897 23.496 74.8278C23.4826 74.8102 23.4703 74.7936 23.4569 74.776C23.4817 74.8102 23.5026 74.8453 23.5198 74.8844C23.5112 74.8639 23.5026 74.8434 23.495 74.8239C23.5084 74.8571 23.5179 74.8922 23.5236 74.9283C23.5207 74.9058 23.5179 74.8834 23.515 74.86C23.5188 74.8942 23.5188 74.9273 23.515 74.9605C23.5179 74.9381 23.5207 74.9156 23.5236 74.8932C23.5198 74.9147 23.516 74.9351 23.5093 74.9556C23.4693 75.0825 23.556 75.2397 23.6826 75.2689C23.8187 75.3012 23.9454 75.227 23.9882 75.0913C24.0225 74.983 24.0216 74.8649 23.9959 74.7546C23.9701 74.6433 23.9121 74.5486 23.8435 74.4608C23.715 74.2977 23.5179 74.2031 23.317 74.1845C23.1989 74.1738 23.0732 74.2089 22.9713 74.2704C22.8599 74.3388 22.8085 74.5027 22.8818 74.6189C22.9552 74.7341 23.1037 74.7838 23.2227 74.7106Z" fill="#C57207"/>
<path d="M24.069 73.21C24.0785 73.2109 24.1376 73.2187 24.0899 73.21C24.0414 73.2012 24.1004 73.2129 24.1099 73.2139C24.1356 73.2197 24.1614 73.2266 24.1871 73.2353C24.1995 73.2392 24.2118 73.2461 24.2242 73.249C24.1557 73.2285 24.1937 73.2363 24.2128 73.2451C24.2385 73.2578 24.2632 73.2734 24.287 73.289C24.2994 73.2978 24.3118 73.3095 24.3251 73.3164C24.3032 73.3056 24.2832 73.2822 24.3166 73.3105C24.3366 73.3281 24.3566 73.3466 24.3756 73.3671C24.387 73.3788 24.3975 73.3905 24.407 73.4022C24.4137 73.41 24.4442 73.4501 24.4175 73.4139C24.3899 73.3759 24.4251 73.4257 24.4299 73.4325C24.4375 73.4442 24.4451 73.4559 24.4518 73.4677C24.4661 73.4911 24.4794 73.5155 24.4908 73.5399C24.4965 73.5516 24.5013 73.5662 24.508 73.577C24.4708 73.5155 24.4975 73.5506 24.5051 73.5731C24.5146 73.6014 24.5232 73.6297 24.5298 73.658C24.5327 73.6716 24.5356 73.6843 24.5384 73.698C24.5403 73.7068 24.5413 73.7156 24.5432 73.7253C24.5413 73.7117 24.5394 73.698 24.5384 73.6843C24.5394 73.7429 24.5403 73.8014 24.5394 73.86C24.5403 73.7878 24.5451 73.822 24.5403 73.8454C24.5375 73.8591 24.5346 73.8717 24.5317 73.8854C24.5241 73.9166 24.5137 73.9469 24.5013 73.9762C24.4784 74.0328 24.4975 74.1226 24.526 74.1724C24.5565 74.2251 24.6155 74.2758 24.6746 74.2895C24.7384 74.3041 24.8098 74.3012 24.8659 74.2641C24.924 74.226 24.9535 74.1763 24.9802 74.1118C25.0992 73.818 25.0373 73.4598 24.8736 73.1973C24.6936 72.9103 24.4051 72.7151 24.069 72.6975C23.9386 72.6907 23.8148 72.8195 23.8205 72.9523C23.8262 73.0987 23.929 73.2031 24.069 73.21Z" fill="#C57207"/>
<path d="M54.4653 73.5545C54.231 74.1021 54.2644 74.7541 54.6024 75.2509C54.6766 75.3602 54.8233 75.4208 54.9423 75.3427C55.048 75.2724 55.1108 75.1104 55.0318 74.9942C54.9985 74.9444 54.9671 74.8937 54.9394 74.841C54.9261 74.8146 54.9137 74.7873 54.9013 74.7599C54.9252 74.8107 54.889 74.7258 54.8852 74.716C54.8652 74.6594 54.849 74.6018 54.8356 74.5433C54.829 74.514 54.8242 74.4847 54.8185 74.4544C54.8137 74.4242 54.8137 74.4252 54.8175 74.4554C54.8166 74.4447 54.8147 74.433 54.8137 74.4212C54.808 74.3656 54.8061 74.309 54.8071 74.2524C54.8071 74.2221 54.809 74.1919 54.8109 74.1626C54.8118 74.1518 54.8233 74.0572 54.8147 74.1187C54.8242 74.0591 54.8356 74.0006 54.8518 73.943C54.8595 73.9137 54.869 73.8854 54.8785 73.8571C54.8814 73.8473 54.9166 73.7614 54.8947 73.8131C54.9471 73.6911 54.9337 73.534 54.8052 73.4637C54.6976 73.4042 54.5214 73.4237 54.4653 73.5545Z" fill="#C57207"/>
<path d="M55.9734 74.2779C55.6696 74.7142 55.6725 75.3672 55.9848 75.7987C56.0619 75.9051 56.2038 75.9705 56.3247 75.8904C56.4275 75.8221 56.497 75.6562 56.4142 75.541C56.3828 75.498 56.3552 75.4541 56.3314 75.4073C56.3257 75.3965 56.32 75.3848 56.3152 75.3741C56.3124 75.3682 56.2943 75.3292 56.3095 75.3623C56.3257 75.3975 56.3028 75.3438 56.3019 75.3409C56.2981 75.3292 56.2933 75.3175 56.2895 75.3057C56.2733 75.255 56.2609 75.2032 56.2524 75.1515C56.2514 75.1437 56.2485 75.1027 56.2504 75.1388C56.2523 75.1759 56.2505 75.1339 56.2495 75.1261C56.2467 75.0978 56.2457 75.0695 56.2457 75.0412C56.2457 74.9944 56.26 74.9378 56.2542 74.8919C56.2581 74.9192 56.2485 74.9329 56.2552 74.8948C56.2571 74.8821 56.26 74.8704 56.2628 74.8577C56.2676 74.8333 56.2743 74.8089 56.2809 74.7855C56.2885 74.7581 56.298 74.7318 56.3076 74.7054C56.3218 74.6654 56.3076 74.7142 56.3038 74.7142C56.3057 74.7142 56.3181 74.684 56.319 74.6801C56.3438 74.6293 56.3723 74.5815 56.4037 74.5356C56.4799 74.4263 56.4257 74.2467 56.3142 74.1862C56.1857 74.1169 56.0543 74.1618 55.9734 74.2779Z" fill="#C57207"/>
<path d="M58.0706 69.8894C58.084 69.8758 58.0983 69.8631 58.1125 69.8494C58.1249 69.8377 58.1516 69.8152 58.123 69.8377C58.1525 69.8143 58.1839 69.7928 58.2163 69.7733C58.2487 69.7538 58.282 69.7362 58.3153 69.7186C58.3772 69.6864 58.2725 69.7323 58.3391 69.7089C58.3534 69.704 58.3677 69.6981 58.382 69.6933C58.4534 69.6688 58.5267 69.6503 58.6019 69.6395C58.5457 69.6474 58.621 69.6396 58.6257 69.6386C58.641 69.6376 58.6562 69.6366 58.6714 69.6356C58.7133 69.6337 58.7543 69.6347 58.7962 69.6366C58.8152 69.6376 58.8343 69.6396 58.8533 69.6415C58.9019 69.6454 58.8371 69.6376 58.8657 69.6425C58.9028 69.6493 58.9399 69.6561 58.9771 69.6659C59.0142 69.6757 59.0494 69.6864 59.0856 69.6991C59.1037 69.7059 59.1208 69.7118 59.1389 69.7196C59.1056 69.7059 59.1351 69.7186 59.1513 69.7264C59.1846 69.744 59.218 69.7616 59.2503 69.7811C59.2665 69.7909 59.2827 69.8016 59.298 69.8123C59.3027 69.8152 59.3513 69.8514 59.3275 69.8328C59.3037 69.8143 59.3503 69.8523 59.3551 69.8562C59.3694 69.8689 59.3827 69.8816 59.397 69.8953C59.4265 69.9246 59.4541 69.9568 59.4808 69.99C59.5665 70.0964 59.7445 70.0807 59.833 69.99C59.9359 69.8845 59.9187 69.7362 59.833 69.6288C59.3208 68.9924 58.2925 68.9621 57.7222 69.5263C57.625 69.622 57.6279 69.7909 57.7222 69.8875C57.8155 69.988 57.9735 69.9851 58.0706 69.8894Z" fill="#C57207"/>
<path d="M55.9402 65.2494C56.5886 65.307 57.2294 64.8278 57.397 64.1884C57.4313 64.0596 57.3551 63.9054 57.2237 63.8751C57.0933 63.8449 56.9542 63.9151 56.9181 64.0528C56.9095 64.084 56.9009 64.1152 56.8895 64.1465C56.8866 64.1553 56.8619 64.2089 56.88 64.1738C56.8981 64.1387 56.8752 64.1836 56.8714 64.1914C56.8438 64.2499 56.8105 64.3046 56.7743 64.3583C56.741 64.4081 56.8095 64.3163 56.7714 64.3632C56.7619 64.3749 56.7533 64.3856 56.7438 64.3973C56.7229 64.4217 56.701 64.4452 56.6781 64.4676C56.6553 64.4901 56.6315 64.5125 56.6077 64.533C56.5791 64.5574 56.5877 64.5408 56.6105 64.532C56.5981 64.5369 56.5791 64.5555 56.5686 64.5633C56.5163 64.6004 56.461 64.6335 56.4039 64.6618C56.3906 64.6687 56.3782 64.6745 56.3649 64.6804C56.3363 64.6941 56.4125 64.6619 56.3687 64.6785C56.3363 64.6902 56.3039 64.7019 56.2706 64.7116C56.243 64.7194 56.2154 64.7263 56.1868 64.7321C56.1725 64.7351 56.1497 64.736 56.1364 64.7419C56.1583 64.7321 56.182 64.736 56.143 64.7409C56.0773 64.7477 56.0107 64.7477 55.944 64.7409C55.8136 64.7292 55.6898 64.8668 55.6955 64.9957C55.6974 65.1421 55.8003 65.2368 55.9402 65.2494Z" fill="#C57207"/>
<path d="M63.0312 58.7586C62.2799 58.8806 61.7648 59.7796 62.0048 60.5126C62.0457 60.6385 62.1781 60.7352 62.3104 60.6903C62.4332 60.6493 62.5284 60.5116 62.4846 60.376C62.4732 60.3408 62.4628 60.3047 62.4552 60.2676C62.4523 60.254 62.4418 60.2276 62.4456 60.213C62.4504 60.2501 62.4504 60.254 62.4475 60.2257C62.4475 60.2198 62.4466 60.213 62.4456 60.2071C62.4428 60.17 62.4418 60.1329 62.4428 60.0958C62.4437 60.0773 62.4447 60.0587 62.4456 60.0402C62.4466 60.0314 62.4475 60.0216 62.4485 60.0129C62.4504 59.9933 62.4494 60.0002 62.4456 60.0343C62.4399 60.0041 62.4599 59.9553 62.4675 59.925C62.4761 59.8889 62.4875 59.8528 62.4999 59.8177C62.5037 59.8069 62.5285 59.7484 62.5018 59.8089C62.5094 59.7913 62.517 59.7747 62.5247 59.7581C62.5408 59.7249 62.558 59.6917 62.577 59.6595C62.5961 59.6273 62.617 59.5971 62.638 59.5658C62.6151 59.6 62.6265 59.5805 62.6446 59.559C62.656 59.5443 62.6684 59.5307 62.6808 59.517C62.7056 59.4897 62.7313 59.4633 62.7589 59.438C62.7722 59.4253 62.7865 59.4136 62.7998 59.4019C62.7694 59.4282 62.7846 59.4136 62.8074 59.397C62.837 59.3755 62.8674 59.356 62.8989 59.3374C62.9122 59.3296 62.9255 59.3228 62.9388 59.3159C62.9455 59.312 63.0017 59.2857 62.9664 59.3013C62.9312 59.3169 62.9884 59.2935 62.996 59.2906C63.0131 59.2847 63.0302 59.2789 63.0474 59.274C63.0855 59.2632 63.1245 59.2545 63.1635 59.2486C63.2921 59.2281 63.3759 59.0563 63.3368 58.9353C63.2921 58.7938 63.1692 58.7362 63.0312 58.7586Z" fill="#C57207"/>
<path d="M68.1618 62.2293C68.4817 62.2293 68.4827 61.7188 68.1618 61.7188C67.8419 61.7188 67.8419 62.2293 68.1618 62.2293Z" fill="#C57207"/>
<path d="M67.8171 61.8136C67.4572 62.3378 67.3639 63.0483 67.5724 63.6525C67.6162 63.7784 67.7438 63.8751 67.8781 63.8302C67.999 63.7902 68.099 63.6506 68.0514 63.5159C67.9628 63.2611 67.9361 63.022 67.9714 62.7692C67.9752 62.7448 67.9933 62.6491 68.0057 62.5984C68.0228 62.531 68.0447 62.4656 68.0676 62.3992C68.079 62.3709 68.0799 62.367 68.0714 62.3875C68.078 62.3719 68.0847 62.3553 68.0923 62.3397C68.1066 62.3085 68.1218 62.2772 68.138 62.247C68.1704 62.1855 68.2066 62.1269 68.2456 62.0703C68.3208 61.961 68.2684 61.7824 68.1561 61.7209C68.0304 61.6525 67.8981 61.6965 67.8171 61.8136Z" fill="#C57207"/>
<path d="M76.3737 61.5651C75.8662 61.7106 75.4434 62.1752 75.3672 62.7149C75.3577 62.7852 75.3558 62.8467 75.392 62.9112C75.4225 62.9639 75.4815 63.0146 75.5405 63.0283C75.6043 63.0429 75.6757 63.04 75.7319 63.0029C75.7824 62.9697 75.8376 62.9141 75.8462 62.8506C75.8538 62.795 75.8652 62.7413 75.8804 62.6876C75.8881 62.6613 75.8966 62.6349 75.9062 62.6086C75.91 62.5988 75.9261 62.5588 75.909 62.5998C75.8919 62.6427 75.9119 62.5949 75.9157 62.5861C75.9376 62.5383 75.9633 62.4914 75.9918 62.4465C76.0071 62.4231 76.0233 62.4006 76.0385 62.3782C75.9938 62.4465 76.0442 62.3723 76.0595 62.3538C76.0937 62.3138 76.1309 62.2757 76.1699 62.2406C76.1804 62.2318 76.1908 62.222 76.2013 62.2133C76.2327 62.1869 76.2023 62.2152 76.188 62.223C76.2108 62.2093 76.2327 62.1898 76.2546 62.1752C76.3003 62.1449 76.3479 62.1176 76.3974 62.0942C76.4174 62.0844 76.4546 62.0805 76.3879 62.0981C76.4013 62.0951 76.4136 62.0883 76.426 62.0834C76.4517 62.0737 76.4774 62.0658 76.5041 62.058C76.6298 62.0219 76.7193 61.8755 76.6774 61.7437C76.6383 61.612 76.5079 61.5261 76.3737 61.5651Z" fill="#C57207"/>
<path d="M57.2518 35.5237C59.9264 35.8088 62.6438 34.3935 64.0187 32.0304C64.1834 31.7473 63.7531 31.4906 63.5893 31.7727C62.2972 33.9942 59.7569 35.2807 57.2518 35.0133C56.9329 34.9801 56.9357 35.4906 57.2518 35.5237Z" fill="#C57207"/>
<path d="M15.7735 31.3794C18.3328 33.2398 21.7834 33.6653 24.6998 32.4765C24.994 32.3564 24.8655 31.8635 24.5675 31.9845C21.7605 33.1295 18.4899 32.7303 16.0248 30.9392C15.763 30.7488 15.5145 31.191 15.7735 31.3794Z" fill="#C57207"/>
<path d="M24.5657 21.7931C25.5007 23.1313 27.1508 23.4514 28.6485 23.6212C30.6661 23.8497 32.6999 23.8067 34.7089 23.5207C35.025 23.4758 34.8908 22.9848 34.5766 23.0288C32.7332 23.2904 30.8594 23.3294 29.0065 23.1488C27.6107 23.0122 25.8797 22.8013 24.9942 21.5354C24.8104 21.2709 24.3782 21.5256 24.5657 21.7931Z" fill="#C57207"/>
<path d="M45.4108 28.4042C48.5995 29.1519 52.0891 28.0274 54.2705 25.5228C54.4828 25.2788 54.1324 24.9166 53.9182 25.1616C51.8558 27.5296 48.5652 28.6199 45.5422 27.9113C45.2308 27.839 45.0985 28.331 45.4108 28.4042Z" fill="#C57207"/>
<path d="M19.3701 37.4543C18.3618 37.6915 17.2297 37.2699 16.6175 36.41C16.5385 36.2987 16.4014 36.244 16.2776 36.3182C16.1709 36.3826 16.1091 36.5554 16.1881 36.6676C16.9374 37.7198 18.26 38.2382 19.5025 37.9463C19.8139 37.8731 19.6824 37.3811 19.3701 37.4543Z" fill="#C57207"/>
<path d="M21.4654 41.1299C23.1935 41.3876 24.7322 42.6204 25.3463 44.3051C25.4577 44.6096 25.9385 44.4778 25.8262 44.1694C25.1549 42.3275 23.5039 40.923 21.5977 40.6379C21.4635 40.6175 21.3321 40.6721 21.2911 40.8156C21.2578 40.9356 21.3321 41.1104 21.4654 41.1299Z" fill="#C57207"/>
<path d="M57.7077 39.4467C55.8701 39.7268 54.3943 41.3862 54.222 43.268C54.1925 43.595 54.6895 43.5921 54.7199 43.268C54.8723 41.597 56.2348 40.1836 57.8401 39.9386C57.9744 39.9181 58.0448 39.7463 58.0134 39.6243C57.9763 39.4779 57.8401 39.4262 57.7077 39.4467Z" fill="#C57207"/>
<path d="M59.6782 37.5488C60.4942 38.4995 62.0709 38.5347 62.9383 37.6415C63.165 37.4083 62.8126 37.0481 62.586 37.2804C61.8995 37.9871 60.6675 37.9314 60.0295 37.1877C59.8181 36.9417 59.4678 37.3028 59.6782 37.5488Z" fill="#C57207"/>
<path d="M63.9414 45.9896C63.9661 45.9818 63.9909 45.975 64.0166 45.9701C64.029 45.9672 64.0423 45.9652 64.0547 45.9623C64.0861 45.9554 63.9966 45.9672 64.0423 45.9642C64.0938 45.9603 64.1452 45.9574 64.1975 45.9613C64.2109 45.9623 64.2232 45.9642 64.2366 45.9642C64.268 45.9662 64.1718 45.9525 64.2242 45.9623C64.2499 45.9672 64.2756 45.972 64.3004 45.9779C64.3508 45.9906 64.3984 46.0121 64.4479 46.0267C64.4365 46.0238 64.4013 46.0052 64.4318 46.0199C64.446 46.0267 64.4603 46.0335 64.4737 46.0413C64.4965 46.054 64.5193 46.0667 64.5412 46.0804C64.5631 46.094 64.5841 46.1097 64.606 46.1253C64.6336 46.1448 64.5993 46.1233 64.5927 46.1145C64.6003 46.1243 64.6136 46.1321 64.6222 46.1399C64.6612 46.1751 64.6955 46.2141 64.7298 46.2541C64.7498 46.2776 64.6993 46.2092 64.7241 46.2463C64.7307 46.2571 64.7393 46.2678 64.746 46.2795C64.7621 46.3039 64.7755 46.3293 64.7898 46.3556C64.8507 46.4738 65.0202 46.5196 65.1306 46.4474C65.2477 46.3703 65.2858 46.2248 65.2201 46.098C64.9593 45.5963 64.3403 45.3356 63.811 45.4967C63.6862 45.5348 63.5948 45.6773 63.6377 45.811C63.6767 45.9408 63.8081 46.0306 63.9414 45.9896Z" fill="#C57207"/>
<path d="M69.0066 42.0882C69.0095 42.0862 69.0447 42.0686 69.0447 42.0677C69.0447 42.0696 68.9828 42.0921 69.0142 42.0804C69.0228 42.0774 69.0304 42.0745 69.039 42.0716C69.0675 42.0618 69.0961 42.056 69.1256 42.0511C69.1037 42.054 69.0818 42.0569 69.059 42.0599C69.1113 42.053 69.1628 42.053 69.2151 42.0608C69.1932 42.0579 69.1713 42.055 69.1494 42.052C69.1808 42.0569 69.2123 42.0638 69.2428 42.0726C69.2561 42.0765 69.2704 42.0813 69.2837 42.0862C69.2923 42.0891 69.3275 42.1057 69.2837 42.0862C69.2428 42.0686 69.2694 42.0784 69.278 42.0833C69.3065 42.0979 69.3351 42.1126 69.3618 42.1311C69.3665 42.134 69.4017 42.1575 69.4008 42.1594C69.3998 42.1604 69.3503 42.1165 69.3751 42.1399C69.3817 42.1458 69.3884 42.1516 69.3951 42.1575C69.417 42.178 69.4379 42.2004 69.457 42.2238C69.4827 42.2531 69.4246 42.178 69.4408 42.2024C69.4446 42.2082 69.4493 42.2141 69.4532 42.2199C69.4617 42.2336 69.4703 42.2473 69.4779 42.2609C69.4855 42.2746 69.4912 42.2892 69.4989 42.3039C69.5122 42.3283 69.4779 42.2463 69.4865 42.2726C69.4884 42.2795 69.4912 42.2863 69.4941 42.2931C69.5046 42.3253 69.5122 42.3586 69.517 42.3927C69.5141 42.3703 69.5112 42.3478 69.5084 42.3254C69.5103 42.34 69.5112 42.3546 69.5122 42.3693C69.5189 42.502 69.6217 42.6309 69.7607 42.624C69.8902 42.6182 70.0159 42.5118 70.0092 42.3693C69.9949 42.0725 69.8236 41.811 69.5712 41.6665C69.3189 41.523 69.0104 41.5015 68.7543 41.647C68.64 41.7124 68.5934 41.8822 68.6648 41.9964C68.741 42.1145 68.8847 42.1575 69.0066 42.0882Z" fill="#C57207"/>
<path d="M68.7575 29.5597C68.9356 29.4914 69.1145 29.423 69.2926 29.3547C69.2117 29.3332 69.1317 29.3108 69.0508 29.2893C69.1422 29.4055 69.2345 29.5216 69.3259 29.6378C69.364 29.6856 69.4449 29.7129 69.5021 29.7129C69.563 29.7129 69.6363 29.6846 69.6782 29.6378C69.722 29.589 69.7544 29.5255 69.7515 29.4572C69.7487 29.3859 69.722 29.3323 69.6782 29.2766C69.5868 29.1605 69.4944 29.0443 69.403 28.9282C69.3526 28.8637 69.2355 28.8335 69.1612 28.8628C68.9831 28.9311 68.8042 28.9994 68.6261 29.0677C68.5642 29.0912 68.5119 29.1244 68.4776 29.1849C68.4462 29.2395 68.4328 29.3205 68.4528 29.3811C68.49 29.5031 68.6271 29.6095 68.7575 29.5597Z" fill="#C57207"/>
<path d="M76.7757 41.728C76.7919 41.7192 76.8081 41.7114 76.8243 41.7026C76.869 41.6792 76.7795 41.7182 76.8405 41.6968C76.8748 41.685 76.91 41.6753 76.9462 41.6675C76.9548 41.6655 76.9643 41.6636 76.9728 41.6626C77.0004 41.6577 76.9966 41.6587 76.9605 41.6646C76.9709 41.6568 77.0033 41.6607 77.0147 41.6607C77.0509 41.6587 77.0871 41.6616 77.1242 41.6636C77.1766 41.6655 77.0747 41.6528 77.1299 41.6636C77.148 41.6675 77.1661 41.6704 77.1833 41.6743C77.2185 41.6831 77.2528 41.6948 77.288 41.7065C77.3403 41.7251 77.2508 41.6851 77.2956 41.7104C77.3118 41.7192 77.328 41.727 77.3442 41.7358C77.3604 41.7446 77.3756 41.7544 77.3908 41.7651C77.4013 41.7719 77.4108 41.7788 77.4203 41.7866C77.3965 41.767 77.3908 41.7631 77.4051 41.7748C77.4308 41.7992 77.4575 41.8217 77.4813 41.849C77.4927 41.8627 77.5041 41.8764 77.5156 41.89C77.527 41.9047 77.5232 41.8988 77.5032 41.8734C77.5098 41.8832 77.5165 41.893 77.5232 41.9027C77.5422 41.933 77.5603 41.9642 77.5755 41.9964C77.5784 42.0023 77.5803 42.0072 77.5831 42.013C77.5946 42.0384 77.5927 42.0345 77.5793 42.0013C77.5812 42.0159 77.5936 42.0384 77.5974 42.052C77.6089 42.0862 77.6174 42.1214 77.625 42.1565C77.6279 42.1682 77.6298 42.1799 77.6317 42.1916C77.6308 42.1809 77.6288 42.1702 77.6279 42.1594C77.6336 42.1741 77.6317 42.1975 77.6327 42.2131C77.6346 42.2492 77.6346 42.2853 77.6327 42.3205C77.6317 42.3322 77.6308 42.3449 77.6298 42.3566C77.6346 42.3214 77.6355 42.3136 77.6327 42.3332C77.6279 42.3537 77.625 42.3742 77.6203 42.3947C77.5898 42.5245 77.6603 42.6767 77.7945 42.7089C77.9221 42.7392 78.0678 42.6699 78.1002 42.5313C78.1944 42.1282 78.063 41.6675 77.7431 41.4039C77.3965 41.1189 76.9157 41.0721 76.5234 41.2888C76.4092 41.3522 76.3634 41.525 76.4339 41.6382C76.511 41.7553 76.6539 41.7954 76.7757 41.728Z" fill="#C57207"/>
<path d="M73.7712 47.1886C73.8035 47.1945 73.8359 47.2023 73.8683 47.213C73.8844 47.2179 73.8997 47.2238 73.9149 47.2296C73.9654 47.2462 73.8721 47.2072 73.9159 47.2296C73.9454 47.2452 73.974 47.2599 74.0025 47.2774C74.0168 47.2862 74.0301 47.295 74.0435 47.3048C74.0501 47.3096 74.0568 47.3145 74.0635 47.3194C74.0787 47.3311 74.073 47.3262 74.0463 47.3048C74.0673 47.3067 74.1054 47.3565 74.1206 47.3721C74.1444 47.3955 74.1663 47.4209 74.1882 47.4463C74.1939 47.4531 74.1987 47.459 74.2034 47.4658C74.2149 47.4805 74.2101 47.4746 74.1901 47.4482C74.1958 47.4502 74.2149 47.4844 74.2187 47.4902C74.2368 47.5185 74.2539 47.5478 74.2701 47.5781C74.2777 47.5927 74.2853 47.6083 74.2929 47.6239C74.2958 47.6288 74.2977 47.6347 74.2996 47.6396C74.311 47.665 74.3091 47.6601 74.2948 47.6259C74.312 47.6396 74.3215 47.7011 74.3282 47.7225C74.3377 47.7547 74.3453 47.7879 74.352 47.8211C74.3539 47.8289 74.3558 47.869 74.3605 47.8709C74.351 47.866 74.3539 47.8084 74.3586 47.8699C74.3615 47.9031 74.3624 47.9373 74.3615 47.9705C74.3615 47.9841 74.3605 47.9988 74.3596 48.0124C74.3586 48.0212 74.3586 48.029 74.3577 48.0378C74.3548 48.0603 74.3548 48.0602 74.3577 48.0368C74.3605 48.0144 74.3605 48.0134 74.3567 48.0358C74.3558 48.0436 74.3539 48.0525 74.352 48.0603C74.3482 48.0769 74.3443 48.0934 74.3405 48.1091C74.331 48.1452 74.3186 48.1793 74.3053 48.2135C74.2548 48.3375 74.3596 48.4995 74.4795 48.5268C74.6243 48.561 74.7319 48.4809 74.7852 48.3492C75.0547 47.6864 74.5891 46.8275 73.9045 46.6967C73.7769 46.6723 73.6302 46.7328 73.5988 46.8743C73.5693 47.0002 73.634 47.1623 73.7712 47.1886Z" fill="#C57207"/>
<path d="M67.8113 50.6079C67.8256 50.6236 67.8389 50.6392 67.8522 50.6548C67.8865 50.6958 67.8294 50.6206 67.8465 50.647C67.8522 50.6558 67.8589 50.6636 67.8646 50.6724C67.8894 50.7095 67.9113 50.7485 67.9303 50.7885C67.9351 50.7983 67.9389 50.808 67.9436 50.8168C67.9579 50.848 67.9389 50.81 67.937 50.7993C67.9417 50.8217 67.9532 50.8442 67.9598 50.8666C67.9732 50.9096 67.9836 50.9525 67.9912 50.9974C67.9931 51.0081 67.9941 51.0189 67.996 51.0286C67.9941 51.0179 67.9903 50.973 67.9922 51.0081C67.9941 51.0296 67.996 51.0501 67.996 51.0716C67.9979 51.1165 67.996 51.1614 67.9922 51.2053C67.9903 51.2258 67.977 51.2551 67.9941 51.1926C67.9913 51.2024 67.9903 51.2131 67.9884 51.2239C67.9846 51.2444 67.9798 51.2648 67.9751 51.2853C67.9693 51.3078 67.9627 51.3312 67.9551 51.3537C67.9522 51.3634 67.9475 51.3732 67.9446 51.3829C67.9351 51.4132 67.9703 51.3234 67.9484 51.3732C67.9198 51.4376 67.9046 51.4991 67.9237 51.5694C67.9398 51.6289 67.9846 51.6924 68.0379 51.7216C68.1464 51.7802 68.3216 51.7597 68.3788 51.6299C68.4845 51.3878 68.514 51.1399 68.473 50.8773C68.4359 50.6421 68.3216 50.4196 68.1636 50.2468C68.0741 50.1492 67.9008 50.1472 67.8113 50.2468C67.717 50.3512 67.7161 50.5035 67.8113 50.6079Z" fill="#C57207"/>
<path d="M10.6945 29.3902C10.2156 29.2204 9.64713 29.5454 9.51764 30.0423C9.48431 30.1711 9.55954 30.3253 9.69094 30.3556C9.82138 30.3858 9.96134 30.3156 9.99657 30.1779C10.0004 30.1633 10.0051 30.1477 10.0099 30.133C10.0128 30.1252 10.0156 30.1184 10.0175 30.1116C10.0318 30.0696 9.99466 30.1574 10.008 30.135C10.0232 30.1086 10.0356 30.0803 10.0518 30.0549C10.0556 30.0481 10.0604 30.0423 10.0642 30.0354C10.0889 29.9983 10.0499 30.0491 10.0489 30.0549C10.0499 30.0462 10.0718 30.0266 10.0785 30.0198C10.1004 29.9954 10.1251 29.9749 10.1489 29.9524C10.1689 29.9329 10.1023 29.9866 10.1251 29.971C10.1318 29.9671 10.1375 29.9622 10.1432 29.9573C10.1556 29.9485 10.168 29.9398 10.1813 29.9319C10.1946 29.9241 10.207 29.9163 10.2213 29.9085C10.2289 29.9046 10.2575 29.8841 10.267 29.8851C10.267 29.8851 10.207 29.9095 10.2394 29.8968C10.247 29.8939 10.2536 29.8909 10.2603 29.889C10.2746 29.8841 10.2889 29.8792 10.3041 29.8744C10.3365 29.8646 10.3698 29.8578 10.4041 29.8529C10.3822 29.8558 10.3603 29.8587 10.3374 29.8617C10.3936 29.8548 10.4498 29.8539 10.506 29.8607C10.4841 29.8578 10.4622 29.8548 10.4403 29.8519C10.4812 29.8578 10.5222 29.8675 10.5612 29.8812C10.684 29.9251 10.8392 29.8314 10.8678 29.7036C10.8992 29.5611 10.8259 29.4361 10.6945 29.3902Z" fill="#C57207"/>
<path d="M2.83843 41.0399C2.74322 40.954 2.62896 40.8887 2.50233 40.8691C2.37474 40.8496 2.24334 40.8506 2.12242 40.9023C2.04149 40.9365 1.98245 40.9716 1.91485 41.0282C1.86724 41.0683 1.82916 41.12 1.79583 41.1717C1.72633 41.2791 1.69396 41.4099 1.68825 41.5378C1.68158 41.6754 1.71966 41.8257 1.79393 41.9399C1.83011 41.9955 1.87868 42.0394 1.94247 42.057C2.00245 42.0736 2.08149 42.0668 2.13385 42.0316C2.18717 41.9965 2.23382 41.9438 2.24811 41.8794C2.26239 41.815 2.26048 41.7398 2.22335 41.6832C2.20812 41.6607 2.19574 41.6363 2.18527 41.6109C2.19384 41.6314 2.2024 41.6519 2.21001 41.6715C2.19478 41.6344 2.18526 41.5963 2.17955 41.5573C2.1824 41.5797 2.18526 41.6022 2.18812 41.6246C2.1824 41.5817 2.18336 41.5397 2.18812 41.4968C2.18526 41.5192 2.1824 41.5416 2.17955 41.5641C2.18526 41.5211 2.1967 41.4802 2.21193 41.4411C2.20336 41.4616 2.19479 41.4821 2.18717 41.5016C2.20241 41.4645 2.2224 41.4313 2.2462 41.4001C2.23287 41.4177 2.22049 41.4343 2.20716 41.4518C2.22811 41.4255 2.25097 41.4021 2.27763 41.3806C2.26049 41.3943 2.24429 41.407 2.22716 41.4206C2.25477 41.4001 2.28334 41.3826 2.3138 41.3689C2.29381 41.3777 2.27382 41.3865 2.25477 41.3943C2.29191 41.3786 2.32999 41.3679 2.36903 41.3621C2.34713 41.365 2.32522 41.3679 2.30237 41.3708C2.34522 41.365 2.38807 41.365 2.43092 41.3699C2.40902 41.3669 2.38711 41.364 2.36426 41.3611C2.40425 41.3669 2.44234 41.3767 2.47947 41.3923C2.45948 41.3835 2.43949 41.3747 2.42044 41.3669C2.45472 41.3816 2.48615 41.4001 2.51566 41.4235C2.49853 41.4099 2.48233 41.3972 2.46519 41.3835C2.47281 41.3894 2.47948 41.3952 2.48614 41.4021C2.53661 41.447 2.59373 41.4772 2.66229 41.4772C2.72322 41.4772 2.79654 41.4499 2.83843 41.4021C2.88223 41.3533 2.9146 41.2898 2.91174 41.2215C2.90889 41.1551 2.88794 41.0839 2.83843 41.0399Z" fill="#C57207"/>
<path d="M7.12824 47.4704C7.0673 47.3992 7.00542 47.3289 6.94448 47.2576C6.87688 47.1795 6.72834 47.1561 6.64265 47.2176C6.41128 47.3835 6.2437 47.6315 6.18753 47.9165C6.13135 48.2015 6.16563 48.5041 6.31702 48.753C6.38557 48.8662 6.54267 48.9209 6.65693 48.8447C6.76738 48.7715 6.81974 48.6173 6.74643 48.4953C6.7331 48.4728 6.71977 48.4504 6.70835 48.427C6.70454 48.4182 6.68644 48.3752 6.70168 48.4153C6.71787 48.4562 6.69883 48.4074 6.69693 48.4026C6.67979 48.3538 6.66836 48.303 6.65883 48.2523C6.65217 48.2152 6.66455 48.2649 6.6617 48.2737C6.66455 48.2659 6.65883 48.2444 6.65883 48.2347C6.65693 48.2083 6.65693 48.183 6.65693 48.1566C6.65788 48.1303 6.6617 48.1039 6.6617 48.0785C6.6617 48.0473 6.65027 48.1449 6.65979 48.0922C6.6617 48.0795 6.66454 48.0668 6.66645 48.0531C6.67597 48.0043 6.69121 47.9575 6.70644 47.9096C6.72263 47.8589 6.68835 47.9477 6.70168 47.9194C6.70739 47.9077 6.71215 47.896 6.71786 47.8843C6.72929 47.8608 6.74167 47.8384 6.755 47.816C6.76166 47.8042 6.79784 47.7642 6.79784 47.7515C6.79784 47.7593 6.76358 47.7945 6.78738 47.7662C6.79786 47.7544 6.80738 47.7427 6.81785 47.731C6.83308 47.7135 6.84926 47.6978 6.8664 47.6822C6.87116 47.6783 6.89497 47.6627 6.89497 47.6568C6.89306 47.6715 6.84927 47.691 6.89402 47.6588C6.79309 47.6451 6.69312 47.6324 6.59219 47.6188C6.65313 47.689 6.71501 47.7603 6.77595 47.8316C6.86259 47.9321 7.04064 47.9292 7.12824 47.8316C7.22345 47.7242 7.2206 47.5778 7.12824 47.4704Z" fill="#C57207"/>
<path d="M12.6326 50.1221C12.3527 50.206 12.1185 50.4237 12.0014 50.696C11.8738 50.9937 11.8633 51.3197 12.0061 51.6145C12.0642 51.7345 12.2394 51.7775 12.347 51.7062C12.467 51.6272 12.4984 51.4856 12.4365 51.3568C12.426 51.3353 12.4222 51.3031 12.4394 51.3666C12.4356 51.3539 12.4298 51.3402 12.4251 51.3275C12.4175 51.3031 12.4108 51.2787 12.4051 51.2543C12.4022 51.2406 12.4003 51.227 12.3975 51.2133C12.3899 51.183 12.4032 51.2777 12.4003 51.2328C12.3984 51.2055 12.3965 51.1772 12.3975 51.1499C12.3975 51.1225 12.4041 51.0942 12.4032 51.0669C12.4041 51.0835 12.3927 51.1284 12.4013 51.0864C12.4041 51.0727 12.406 51.0591 12.4089 51.0454C12.4146 51.02 12.4213 50.9956 12.4289 50.9712C12.4327 50.9576 12.4375 50.9449 12.4422 50.9312C12.4517 50.9058 12.4698 50.8912 12.4375 50.94C12.4651 50.898 12.4822 50.8482 12.5108 50.8053C12.5184 50.7936 12.5279 50.7828 12.5346 50.7711C12.5041 50.8277 12.5146 50.7975 12.5298 50.7789C12.5479 50.7575 12.566 50.738 12.586 50.7184C12.5946 50.7106 12.6022 50.7028 12.6108 50.695C12.6174 50.6891 12.6565 50.655 12.6222 50.6843C12.5898 50.7126 12.6212 50.6853 12.6298 50.6804C12.6412 50.6726 12.6526 50.6647 12.6641 50.6579C12.6869 50.6442 12.7145 50.6355 12.7364 50.6198C12.7164 50.6345 12.686 50.6403 12.7279 50.6247C12.7412 50.6198 12.7536 50.6159 12.7669 50.612C12.8916 50.5749 12.9821 50.4305 12.9411 50.2987C12.8983 50.1699 12.7669 50.082 12.6326 50.1221Z" fill="#C57207"/>
<path d="M16.1218 45.6016C15.8361 45.588 15.56 45.7109 15.3505 45.9042C15.1382 46.0994 15.0106 46.3757 14.9925 46.6665C14.9849 46.8003 15.1125 46.9271 15.241 46.9213C15.3829 46.9144 15.481 46.809 15.4895 46.6665C15.4905 46.6451 15.4924 46.6246 15.4952 46.6031C15.4924 46.6255 15.4895 46.648 15.4867 46.6704C15.4933 46.6246 15.5029 46.5797 15.5172 46.5357C15.52 46.526 15.5238 46.5162 15.5276 46.5064C15.5419 46.4664 15.5257 46.5172 15.5181 46.5269C15.5305 46.5094 15.5371 46.484 15.5476 46.4645C15.5676 46.4254 15.5914 46.3884 15.6162 46.3522C15.6438 46.3132 15.5762 46.4001 15.6076 46.3639C15.6143 46.3561 15.6209 46.3474 15.6276 46.3395C15.6428 46.322 15.6581 46.3054 15.6743 46.2888C15.6895 46.2741 15.7038 46.2595 15.72 46.2458C15.7342 46.2331 15.7704 46.2107 15.7076 46.2536C15.7161 46.2478 15.7238 46.2409 15.7323 46.2351C15.7676 46.2097 15.8047 46.1863 15.8428 46.1668C15.8542 46.1609 15.8647 46.156 15.8761 46.1502C15.9132 46.1316 15.8285 46.1697 15.8561 46.1589C15.8771 46.1511 15.898 46.1424 15.9199 46.1355C15.9627 46.1219 16.0065 46.1121 16.0513 46.1063C16.0294 46.1092 16.0075 46.1121 15.9847 46.115C16.0294 46.1092 16.0742 46.1072 16.1199 46.1102C16.2503 46.116 16.3741 45.9882 16.3684 45.8554C16.3636 45.7139 16.2608 45.6085 16.1218 45.6016Z" fill="#C57207"/>
<path d="M10.5263 42.2895C10.4549 42.2251 10.3702 42.1714 10.275 42.1558C10.1778 42.1402 10.0807 42.1401 9.98552 42.1714C9.8884 42.2036 9.81032 42.2514 9.7332 42.3178C9.71035 42.3373 9.69036 42.3588 9.67227 42.3812C9.64275 42.4193 9.61228 42.4574 9.59229 42.5023C9.55896 42.5765 9.54371 42.6321 9.53514 42.7131C9.52943 42.7668 9.53706 42.8224 9.54848 42.8751C9.56086 42.9357 9.61132 42.9972 9.66273 43.0274C9.71605 43.0596 9.79509 43.0733 9.85412 43.0528C9.98837 43.0079 10.0579 42.879 10.0284 42.7395C10.0265 42.7307 10.0245 42.7229 10.0236 42.7141C10.0265 42.7365 10.0293 42.759 10.0322 42.7824C10.0293 42.759 10.0293 42.7365 10.0322 42.7131C10.0293 42.7355 10.0265 42.758 10.0236 42.7804C10.0274 42.7541 10.0341 42.7287 10.0445 42.7034C10.036 42.7239 10.0274 42.7443 10.0198 42.7639C10.0312 42.7375 10.0455 42.7121 10.0626 42.6887C10.0493 42.7063 10.0369 42.7229 10.0236 42.7404C10.0445 42.7131 10.0674 42.6897 10.0941 42.6682C10.0769 42.6819 10.0607 42.6946 10.0436 42.7082C10.0741 42.6848 10.1064 42.6653 10.1417 42.6497C10.1217 42.6585 10.1017 42.6672 10.0826 42.675C10.115 42.6614 10.1493 42.6516 10.1845 42.6457C10.1626 42.6487 10.1407 42.6516 10.1179 42.6545C10.1464 42.6506 10.174 42.6507 10.2026 42.6536C10.1807 42.6507 10.1588 42.6477 10.1369 42.6448C10.1626 42.6487 10.1874 42.6555 10.2121 42.6653C10.1921 42.6565 10.1721 42.6477 10.1531 42.6399C10.174 42.6497 10.1931 42.6614 10.2112 42.675C10.194 42.6614 10.1779 42.6487 10.1607 42.635C10.1655 42.6389 10.1702 42.6438 10.175 42.6477C10.2245 42.6926 10.2826 42.7219 10.3511 42.7219C10.4121 42.7219 10.4854 42.6946 10.5273 42.6477C10.5711 42.5989 10.6035 42.5355 10.6006 42.4671C10.5958 42.4047 10.5758 42.3344 10.5263 42.2895Z" fill="#C57207"/>
<path d="M23.9825 52.2374C23.9654 52.2823 23.9939 52.213 23.9958 52.2091C24.0044 52.1915 24.0149 52.174 24.0253 52.1564C24.0358 52.1388 24.0463 52.1222 24.0577 52.1056C24.032 52.1437 24.0758 52.0842 24.0777 52.0812C24.1063 52.0481 24.1386 52.0178 24.171 51.9885C24.1901 51.9719 24.151 52.0012 24.1863 51.9768C24.2063 51.9631 24.2253 51.9495 24.2462 51.9378C24.2634 51.928 24.2805 51.9182 24.2986 51.9085C24.3119 51.9016 24.3472 51.886 24.3148 51.8997C24.3548 51.8831 24.3967 51.8694 24.4386 51.8597C24.4576 51.8548 24.4767 51.8509 24.4967 51.8479C24.4452 51.8567 24.5195 51.847 24.5243 51.847C24.5443 51.846 24.5633 51.846 24.5833 51.846C24.5919 51.846 24.6585 51.8519 24.6328 51.8479C24.6023 51.844 24.6642 51.8548 24.6699 51.8558C24.6928 51.8606 24.7157 51.8675 24.7385 51.8743C24.7433 51.8763 24.8013 51.8977 24.7747 51.887C24.749 51.8763 24.8042 51.9016 24.809 51.9046C24.848 51.9251 24.8842 51.9485 24.9204 51.9739C24.9413 51.9885 24.9032 51.9563 24.9356 51.9866C24.9537 52.0031 24.9708 52.0188 24.988 52.0363C25.0022 52.051 25.0156 52.0656 25.028 52.0812C25.0375 52.092 25.0613 52.1242 25.0413 52.0959C25.0689 52.1349 25.0936 52.1769 25.1155 52.2198C25.1184 52.2247 25.1432 52.2823 25.1327 52.256C25.1222 52.2286 25.1432 52.2882 25.1451 52.293C25.1517 52.3165 25.1584 52.3399 25.1632 52.3633C25.166 52.3741 25.1755 52.4434 25.1698 52.3916C25.1851 52.5283 25.2726 52.6464 25.4183 52.6464C25.5411 52.6464 25.683 52.5293 25.6668 52.3916C25.6078 51.8665 25.2212 51.4185 24.6995 51.3482C24.1796 51.2779 23.6892 51.6118 23.5026 52.1027C23.4541 52.2316 23.5559 52.3828 23.6759 52.416C23.8178 52.4551 23.9339 52.3663 23.9825 52.2374Z" fill="#C57207"/>
<path d="M26.0849 50.1471C26.1059 50.0856 26.0621 50.189 26.082 50.1519C26.0897 50.1383 26.0963 50.1236 26.1049 50.1099C26.1116 50.1002 26.1192 50.0904 26.1249 50.0797C26.0859 50.1461 26.1068 50.1031 26.1239 50.0855C26.1344 50.0738 26.1468 50.0631 26.1582 50.0524C26.1906 50.0202 26.1078 50.0875 26.1449 50.0621C26.1715 50.0436 26.1982 50.028 26.2268 50.0124C26.2668 49.9909 26.1677 50.0328 26.2115 50.0192C26.2268 50.0143 26.2411 50.0084 26.2572 50.0045C26.2725 50.0006 26.2877 49.9977 26.3039 49.9938C26.3487 49.984 26.2392 49.9977 26.2849 49.9967C26.3001 49.9967 26.3163 49.9948 26.3315 49.9957C26.3582 49.9967 26.401 50.0123 26.3239 49.9918C26.3506 49.9987 26.3772 50.0045 26.4039 50.0133C26.4439 50.026 26.3429 49.9821 26.3991 50.0124C26.4096 50.0182 26.4201 50.0241 26.4296 50.0309C26.482 50.066 26.3963 49.9987 26.4267 50.027C26.4382 50.0377 26.4505 50.0485 26.461 50.0602C26.4696 50.069 26.4772 50.0778 26.4848 50.0875C26.5124 50.1187 26.4467 50.0309 26.4819 50.0846C26.4972 50.109 26.5077 50.1353 26.5219 50.1588C26.5048 50.1168 26.501 50.107 26.5105 50.1314C26.5134 50.1392 26.5162 50.1471 26.5181 50.1549C26.5229 50.1705 26.5277 50.1861 26.5305 50.2017C26.5334 50.2134 26.5343 50.2261 26.5372 50.2378C26.5162 50.1588 26.5334 50.2037 26.5343 50.23C26.5353 50.2437 26.5353 50.2583 26.5343 50.272C26.5334 50.2993 26.5172 50.3325 26.5381 50.2583C26.5296 50.2896 26.5248 50.3208 26.5124 50.352C26.4905 50.4106 26.5077 50.4965 26.5372 50.5482C26.5676 50.6009 26.6267 50.6517 26.6857 50.6653C26.8285 50.6985 26.9418 50.6205 26.9913 50.4877C27.0951 50.2134 26.9961 49.8611 26.7809 49.6707C26.6552 49.5595 26.5077 49.496 26.341 49.4872C26.1992 49.4794 26.0478 49.5243 25.9269 49.5985C25.7717 49.6941 25.6603 49.8376 25.6022 50.0124C25.5603 50.1383 25.6507 50.2964 25.7755 50.3257C25.9173 50.3569 26.0402 50.2827 26.0849 50.1471Z" fill="#C57207"/>
<path d="M27.3781 52.1079C27.3848 52.0767 27.3971 52.0464 27.4038 52.0152C27.3924 52.0708 27.3924 52.0416 27.4048 52.0182C27.4124 52.0045 27.42 51.9899 27.4286 51.9772C27.4314 51.9723 27.4343 51.9684 27.4371 51.9635C27.4524 51.941 27.4486 51.9459 27.4267 51.9762C27.4295 51.9772 27.4505 51.9488 27.4524 51.9459C27.4562 51.941 27.5162 51.8883 27.5152 51.8854C27.4857 51.9088 27.4809 51.9127 27.5028 51.8961C27.5076 51.8932 27.5114 51.8903 27.5162 51.8874C27.5295 51.8786 27.5428 51.8708 27.5561 51.863C27.5695 51.8552 27.5857 51.8503 27.5981 51.8415C27.5466 51.8737 27.5752 51.8512 27.5971 51.8444C27.6123 51.8395 27.6266 51.8356 27.6418 51.8317C27.6523 51.8288 27.6971 51.8259 27.6552 51.8278C27.6104 51.8307 27.6676 51.8278 27.6761 51.8268C27.6923 51.8259 27.7075 51.8268 27.7228 51.8278C27.7732 51.8307 27.718 51.8337 27.7114 51.8249C27.7161 51.8307 27.7475 51.8327 27.7571 51.8356C27.7723 51.8395 27.7866 51.8454 27.8018 51.8503C27.8523 51.8678 27.7532 51.8229 27.7999 51.8503C27.8056 51.8532 27.8799 51.9 27.8799 51.9C27.877 51.903 27.8323 51.859 27.8723 51.8952C27.8837 51.9059 27.8951 51.9166 27.9065 51.9283C27.9161 51.9381 27.9237 51.9479 27.9332 51.9576C27.9684 51.9947 27.9075 51.9156 27.9332 51.9566C27.9503 51.984 27.9665 52.0113 27.9808 52.0396C28.0056 52.0884 27.9646 51.985 27.9799 52.0377C27.9846 52.0533 27.9894 52.0679 27.9932 52.0835C27.996 52.0962 27.9989 52.1099 28.0018 52.1226C28.0056 52.1421 28.0037 52.1333 27.9979 52.0943C27.9989 52.105 27.9999 52.1158 27.9999 52.1265C28.0065 52.2592 28.1094 52.3881 28.2484 52.3812C28.3779 52.3754 28.5045 52.269 28.4969 52.1265C28.4759 51.7019 28.1503 51.3583 27.739 51.3193C27.3581 51.2832 26.9744 51.5926 26.8982 51.9713C26.8725 52.1011 26.9353 52.2534 27.0715 52.2846C27.1962 52.3158 27.3495 52.2475 27.3781 52.1079Z" fill="#C57207"/>
<path d="M43.205 63.0617C43.2241 63.0412 43.2431 63.0207 43.2631 63.0011C43.2765 62.9884 43.3345 62.9348 43.2898 62.9748C43.3298 62.9387 43.3812 62.9104 43.4288 62.884C43.4421 62.8762 43.4564 62.8694 43.4697 62.8625C43.4754 62.8596 43.5126 62.8411 43.4821 62.8557C43.4488 62.8723 43.4954 62.8499 43.5031 62.8479C43.5145 62.844 43.5259 62.8391 43.5373 62.8352C43.5926 62.8167 43.6487 62.802 43.7068 62.7913C43.7144 62.7903 43.7554 62.7854 43.7192 62.7893C43.6782 62.7932 43.7382 62.7883 43.7411 62.7874C43.7687 62.7854 43.7963 62.7835 43.8239 62.7835C43.8515 62.7835 43.8792 62.7835 43.9068 62.7854C43.9191 62.7864 43.9315 62.7874 43.9429 62.7884C43.9915 62.7923 43.9087 62.7815 43.9401 62.7874C43.9944 62.7981 44.0477 62.8089 44.1001 62.8264C44.1115 62.8303 44.1229 62.8342 44.1343 62.8391C44.1857 62.8586 44.1334 62.843 44.1343 62.8381C44.1343 62.8411 44.2095 62.8762 44.2162 62.8801C44.3305 62.9445 44.4923 62.9123 44.5561 62.7884C44.618 62.6693 44.5885 62.5082 44.4666 62.4399C43.9487 62.1481 43.2565 62.2505 42.8527 62.6995C42.7642 62.7971 42.7509 62.964 42.8527 63.0607C42.9489 63.1524 43.1108 63.1661 43.205 63.0617Z" fill="#C57207"/>
<path d="M45.7783 62.1113C45.7878 62.0947 45.7973 62.0801 45.8078 62.0645C45.7944 62.0821 45.7821 62.0987 45.7687 62.1162C45.7916 62.0869 45.8163 62.0615 45.8449 62.0381C45.8278 62.0518 45.8116 62.0645 45.7945 62.0782C45.824 62.0557 45.8544 62.0371 45.8878 62.0215C45.8678 62.0303 45.8478 62.0391 45.8287 62.0469C45.8659 62.0313 45.904 62.0196 45.9439 62.0137C45.922 62.0167 45.9001 62.0196 45.8773 62.0225C45.9173 62.0176 45.9563 62.0167 45.9963 62.0225C45.9744 62.0196 45.9525 62.0167 45.9297 62.0137C45.962 62.0186 45.9935 62.0284 46.0239 62.041C46.0039 62.0323 45.9839 62.0235 45.9649 62.0157C45.9954 62.0293 46.0239 62.0469 46.0506 62.0664C46.0334 62.0528 46.0173 62.0401 46.0001 62.0264C46.0296 62.0498 46.0553 62.0762 46.0791 62.1055C46.0658 62.0879 46.0534 62.0713 46.0401 62.0537C46.0649 62.0869 46.0858 62.123 46.102 62.1611C46.0934 62.1406 46.0849 62.1201 46.0772 62.1006C46.0915 62.1357 46.101 62.1718 46.1068 62.2099C46.1039 62.1875 46.101 62.165 46.0982 62.1426C46.102 62.1767 46.1029 62.2099 46.0991 62.2441C46.0925 62.3056 46.1315 62.3827 46.1725 62.4246C46.2153 62.4686 46.2867 62.5018 46.3486 62.4998C46.4133 62.4969 46.48 62.4754 46.5247 62.4246C46.5724 62.3719 46.5904 62.3153 46.5981 62.2441C46.6295 61.9317 46.4086 61.6262 46.122 61.5355C45.8325 61.4437 45.4993 61.5882 45.3489 61.8536C45.2832 61.9688 45.3193 62.1377 45.4383 62.2031C45.5564 62.2665 45.7078 62.2343 45.7783 62.1113Z" fill="#C57207"/>
<path d="M43.825 61.3595C43.8307 61.3087 43.8108 61.4219 43.826 61.3604C43.8298 61.3438 43.8336 61.3273 43.8384 61.3107C43.8422 61.297 43.8469 61.2833 43.8517 61.2687C43.866 61.2199 43.8279 61.3175 43.8479 61.2755C43.8631 61.2453 43.8774 61.215 43.8955 61.1867C43.9022 61.177 43.9155 61.1623 43.9193 61.1506C43.8945 61.1828 43.8907 61.1887 43.9069 61.1682C43.9098 61.1643 43.9136 61.1604 43.9164 61.1574C43.9383 61.1321 43.9612 61.1067 43.986 61.0842C43.9964 61.0745 44.0078 61.0647 44.0183 61.0549C44.0564 61.0218 43.9755 61.0852 44.0136 61.0588C44.0421 61.0393 44.0697 61.0208 44.0993 61.0032C44.1116 60.9964 44.125 60.9886 44.1383 60.9827C44.1459 60.9788 44.203 60.9505 44.1621 60.971C44.1212 60.9905 44.1783 60.9651 44.1869 60.9622C44.2002 60.9573 44.2145 60.9524 44.2288 60.9485C44.2592 60.9398 44.2897 60.9329 44.3202 60.9261C44.3801 60.9124 44.2687 60.93 44.3182 60.9261C44.3325 60.9251 44.3468 60.9232 44.3611 60.9222C44.3925 60.9202 44.423 60.9202 44.4544 60.9222C44.4782 60.9241 44.522 60.9398 44.4515 60.9202C44.4649 60.9241 44.4801 60.9251 44.4934 60.928C44.5239 60.9349 44.5525 60.9446 44.582 60.9534C44.6391 60.971 44.5392 60.93 44.582 60.9524C44.5944 60.9593 44.6077 60.9651 44.6201 60.972C44.6325 60.9788 44.6448 60.9866 44.6572 60.9944C44.6715 61.0042 44.7258 61.0481 44.6658 60.9983C44.7667 61.0813 44.92 61.1076 45.0171 60.9983C45.1 60.9056 45.1257 60.727 45.0171 60.6372C44.8562 60.5054 44.681 60.4322 44.4753 60.4136C44.304 60.398 44.1278 60.4361 43.9698 60.5035C43.6165 60.6557 43.368 60.9622 43.3271 61.3575C43.3137 61.4903 43.4518 61.6181 43.5756 61.6123C43.7232 61.6074 43.8098 61.502 43.825 61.3595Z" fill="#C57207"/>
<path d="M55.6329 51.3739C55.6539 51.3612 55.6758 51.3495 55.6977 51.3387C55.7043 51.3358 55.7395 51.3192 55.7053 51.3348C55.6681 51.3514 55.7129 51.3329 55.7205 51.33C55.7643 51.3143 55.8081 51.3017 55.8538 51.2929C55.8605 51.2919 55.89 51.2909 55.8938 51.2861C55.889 51.2919 55.8376 51.2919 55.8757 51.289C55.9005 51.287 55.9243 51.2851 55.949 51.2841C55.9738 51.2831 55.9976 51.2841 56.0223 51.2851C56.0328 51.286 56.0442 51.2861 56.0547 51.287C56.0642 51.288 56.1118 51.2938 56.0699 51.288C56.0309 51.2821 56.069 51.288 56.0775 51.29C56.088 51.2919 56.0985 51.2938 56.1099 51.2958C56.1337 51.3007 56.1575 51.3065 56.1813 51.3134C56.2051 51.3202 56.228 51.328 56.2508 51.3368C56.2585 51.3397 56.2927 51.3553 56.2594 51.3387C56.2223 51.3212 56.2661 51.3426 56.2746 51.3465C56.3165 51.367 56.3565 51.3905 56.3946 51.4168C56.3984 51.4198 56.4279 51.4364 56.4279 51.4412C56.4279 51.4383 56.3861 51.4051 56.4156 51.4325C56.4356 51.451 56.4565 51.4696 56.4755 51.4891C56.5679 51.5828 56.7365 51.5906 56.8279 51.4891C56.9183 51.3876 56.9269 51.2285 56.8279 51.1289C56.4518 50.7472 55.8424 50.6662 55.3834 50.9356C55.2701 51.002 55.2216 51.1699 55.2939 51.2841C55.3663 51.3993 55.5129 51.4451 55.6329 51.3739Z" fill="#C57207"/>
<path d="M58.0217 51.4867C58.0322 51.4759 58.0427 51.4671 58.0531 51.4574C58.0722 51.4398 57.9989 51.4974 58.0417 51.4672C58.0636 51.4515 58.0874 51.4398 58.1112 51.4271C58.1522 51.4047 58.0531 51.4476 58.0969 51.434C58.1083 51.4301 58.1198 51.4261 58.1322 51.4222C58.1598 51.4144 58.1883 51.4086 58.2159 51.4047C58.194 51.4076 58.1721 51.4105 58.1502 51.4134C58.1998 51.4076 58.2483 51.4076 58.2969 51.4134C58.275 51.4105 58.2531 51.4076 58.2312 51.4047C58.2598 51.4086 58.2874 51.4144 58.315 51.4232C58.3264 51.4271 58.3378 51.433 58.3493 51.4359C58.2893 51.4213 58.3112 51.4183 58.335 51.431C58.3464 51.4369 58.3569 51.4427 58.3674 51.4496C58.3759 51.4545 58.4197 51.4876 58.3816 51.4574C58.3435 51.4271 58.3864 51.4623 58.393 51.4691C58.4016 51.4779 58.4102 51.4857 58.4188 51.4954C58.4273 51.5042 58.434 51.514 58.4426 51.5237C58.3921 51.4681 58.4207 51.4945 58.4321 51.512C58.4483 51.5364 58.4607 51.5618 58.474 51.5872C58.494 51.6262 58.453 51.5277 58.4673 51.5716C58.4711 51.5833 58.4749 51.595 58.4787 51.6067C58.4873 51.634 58.4921 51.6623 58.4968 51.6916C58.494 51.6692 58.4911 51.6467 58.4883 51.6243C58.4949 51.6741 58.4949 51.7229 58.4883 51.7717C58.4911 51.7492 58.494 51.7268 58.4968 51.7043C58.493 51.7326 58.4864 51.7609 58.4778 51.7883C58.4397 51.9161 58.5235 52.0723 58.6511 52.1016C58.7863 52.1328 58.9158 52.0596 58.9577 51.9239C59.0596 51.5852 58.9129 51.2007 58.6225 51.0133C58.3264 50.822 57.916 50.8825 57.6694 51.1294C57.5761 51.2231 57.5714 51.3978 57.6694 51.4906C57.7704 51.5813 57.9227 51.5872 58.0217 51.4867Z" fill="#C57207"/>
<path d="M56.41 50.2814C56.4195 50.2707 56.431 50.2619 56.4405 50.2511C56.4795 50.2121 56.3957 50.2814 56.4319 50.257C56.4519 50.2443 56.471 50.2306 56.4919 50.2199C56.5148 50.2082 56.5585 50.2014 56.4862 50.2209C56.4976 50.218 56.5081 50.2131 56.5195 50.2092C56.5414 50.2014 56.5643 50.1955 56.5881 50.1916C56.6518 50.1789 56.5366 50.1945 56.5804 50.1916C56.5928 50.1906 56.6042 50.1897 56.6157 50.1887C56.6395 50.1877 56.6633 50.1877 56.6871 50.1887C56.7033 50.1897 56.7185 50.1926 56.7347 50.1935C56.7147 50.1926 56.6718 50.1838 56.7156 50.1926C56.7414 50.1975 56.7671 50.2043 56.7918 50.2121C56.8166 50.2199 56.8927 50.259 56.8175 50.218C56.8404 50.2307 56.8642 50.2404 56.887 50.2541C56.9099 50.2677 56.9308 50.2824 56.9527 50.297C56.9908 50.3234 56.9061 50.255 56.9394 50.2872C56.9499 50.297 56.9603 50.3058 56.9699 50.3155C56.988 50.3341 57.0042 50.3546 57.0213 50.3732C56.9708 50.3195 56.9984 50.3419 57.0098 50.3605C57.0175 50.3722 57.0251 50.3839 57.0318 50.3956C57.0384 50.4083 57.0441 50.42 57.0508 50.4327C57.0698 50.4708 57.0299 50.3722 57.0441 50.4161C57.0527 50.4434 57.0613 50.4708 57.066 50.4991C57.0918 50.6299 57.2507 50.7177 57.3717 50.6767C57.5078 50.6318 57.5726 50.503 57.545 50.3624C57.4164 49.7055 56.5071 49.4537 56.0558 49.9193C55.9644 50.014 55.9568 50.1867 56.0558 50.2804C56.1577 50.3751 56.312 50.3829 56.41 50.2814Z" fill="#C57207"/>
<path d="M48.3864 30.6581C50.186 32.1369 52.7425 32.0842 54.4716 30.5107C54.7115 30.2921 54.3583 29.9329 54.1193 30.1505C52.6092 31.5249 50.3174 31.5961 48.7378 30.2979C48.4902 30.0939 48.136 30.4532 48.3864 30.6581Z" fill="#C57207"/>
<path d="M25.8586 26.3046C25.9481 27.0972 26.3736 27.8204 27.0449 28.2362C27.7704 28.6862 28.6921 28.6921 29.4434 28.3094C29.73 28.163 29.4786 27.7238 29.192 27.8692C28.5988 28.1718 27.8647 28.1474 27.2963 27.796C26.7869 27.4817 26.4241 26.9117 26.3556 26.3046C26.3403 26.1679 26.2527 26.0498 26.107 26.0498C25.9852 26.0498 25.8433 26.167 25.8586 26.3046Z" fill="#C57207"/>
<path d="M32.2527 44.0277C31.9061 43.4548 31.5605 42.8828 31.2139 42.3098C31.1434 42.1927 30.9911 42.1478 30.873 42.2181C30.7588 42.2864 30.7131 42.4494 30.7835 42.5675C31.1301 43.1405 31.4757 43.7125 31.8223 44.2854C31.8928 44.4026 32.0451 44.4474 32.1622 44.3772C32.2774 44.3079 32.3241 44.1449 32.2527 44.0277Z" fill="#C57207"/>
<path d="M34.0355 43.033C33.9032 42.4815 33.7708 41.931 33.6375 41.3805C33.6061 41.2506 33.4566 41.1608 33.3319 41.2028C33.2005 41.2458 33.1243 41.3775 33.1586 41.5162C33.2909 42.0667 33.4233 42.6181 33.5566 43.1686C33.588 43.2985 33.7375 43.3883 33.8622 43.3473C33.9927 43.3024 34.0688 43.1716 34.0355 43.033Z" fill="#C57207"/>
<path d="M35.9693 42.1137C35.9274 41.6501 35.8855 41.1864 35.8436 40.7228C35.8312 40.59 35.7379 40.4612 35.5951 40.468C35.4704 40.4739 35.3333 40.5812 35.3466 40.7228C35.3885 41.1864 35.4304 41.6501 35.4723 42.1137C35.4837 42.2465 35.578 42.3753 35.7208 42.3685C35.8455 42.3626 35.9826 42.2562 35.9693 42.1137Z" fill="#C57207"/>
<path d="M38.1524 41.2497C38.0648 40.8309 37.9782 40.4112 37.8906 39.9925C37.863 39.8617 37.7068 39.7739 37.5849 39.8148C37.4507 39.8597 37.3821 39.9886 37.4107 40.1282C37.4983 40.5469 37.5859 40.9666 37.6725 41.3854C37.7002 41.5162 37.8563 41.604 37.9782 41.563C38.1124 41.5191 38.181 41.3893 38.1524 41.2497Z" fill="#C57207"/>
<path d="M44.9437 41.3757C45.2227 40.7793 45.5007 40.183 45.7797 39.5866C45.8378 39.4626 45.813 39.3113 45.6902 39.2372C45.5816 39.1718 45.4084 39.204 45.3503 39.3289C45.0713 39.9253 44.7933 40.5217 44.5143 41.119C44.4562 41.243 44.481 41.3943 44.6038 41.4675C44.7123 41.5329 44.8856 41.5007 44.9437 41.3757Z" fill="#C57207"/>
<path d="M46.5066 41.7768C46.7656 41.4244 47.0245 41.0711 47.2835 40.7187C47.3197 40.6689 47.3235 40.5792 47.3083 40.5225C47.2921 40.463 47.2473 40.3995 47.194 40.3703C47.1359 40.339 47.0664 40.3234 47.0026 40.3449C46.9369 40.3664 46.895 40.4064 46.8541 40.462C46.5951 40.8154 46.3361 41.1677 46.0781 41.5201C46.0419 41.5699 46.0381 41.6597 46.0534 41.7163C46.0695 41.7758 46.1143 41.8393 46.1676 41.8686C46.2257 41.8998 46.2952 41.9154 46.359 41.8939C46.4228 41.8725 46.4647 41.8334 46.5066 41.7768Z" fill="#C57207"/>
<path d="M48.0422 42.3658C48.2831 41.9715 48.524 41.5762 48.7649 41.1818C48.8344 41.0686 48.7916 40.8959 48.6754 40.8324C48.5535 40.766 48.4088 40.8031 48.3345 40.9242C48.0936 41.3185 47.8527 41.7138 47.6118 42.1081C47.5423 42.2214 47.5842 42.3941 47.7013 42.4576C47.8242 42.523 47.9689 42.4869 48.0422 42.3658Z" fill="#C57207"/>
<path d="M49.4764 43.1689C49.6744 42.84 49.8725 42.512 50.0705 42.184C50.1391 42.0698 50.0981 41.898 49.981 41.8346C49.8591 41.7682 49.7135 41.8043 49.6411 41.9263C49.4431 42.2543 49.245 42.5832 49.047 42.9112C48.9784 43.0244 49.0194 43.1972 49.1365 43.2597C49.2574 43.3261 49.4031 43.2899 49.4764 43.1689Z" fill="#C57207"/>
<path d="M35.5953 40.8014C36.3189 40.8014 36.9055 40.2001 36.9055 39.4583C36.9055 38.7166 36.3189 38.1152 35.5953 38.1152C34.8717 38.1152 34.2852 38.7166 34.2852 39.4583C34.2852 40.2001 34.8717 40.8014 35.5953 40.8014Z" fill="url(#paint1_linear_4488_20661)"/>
<path d="M45.5191 40.0602C46.2427 40.0602 46.8293 39.4589 46.8293 38.7171C46.8293 37.9754 46.2427 37.374 45.5191 37.374C44.7956 37.374 44.209 37.9754 44.209 38.7171C44.209 39.4589 44.7956 40.0602 45.5191 40.0602Z" fill="url(#paint2_linear_4488_20661)"/>
<path d="M45.4402 37.4151C44.7994 37.134 44.0453 37.5488 43.8901 38.2448C43.7283 38.9681 44.151 39.7245 44.789 40.0378C45.425 40.3502 46.2086 40.2545 46.6752 39.6816C46.8913 39.4161 47.0332 39.0822 47.0265 38.7318C47.0198 38.3922 46.8656 38.0183 46.5523 37.8651C46.1124 37.6494 45.6373 37.9285 45.2926 38.2057C44.948 38.482 44.7366 38.9251 44.9461 39.3565C45.0889 39.6503 45.5183 39.3926 45.3755 39.0988C45.2784 38.8988 45.4888 38.6879 45.6278 38.5805C45.7925 38.4537 46.1086 38.2096 46.3286 38.318C46.4895 38.398 46.5342 38.6235 46.5285 38.7884C46.5209 38.9934 46.4295 39.1965 46.2991 39.3507C45.6573 40.1081 44.3586 39.5508 44.351 38.5698C44.3491 38.3433 44.4319 38.1257 44.6071 37.9822C44.7594 37.8573 44.9984 37.7743 45.1879 37.8573C45.3117 37.911 45.4545 37.8953 45.5278 37.7655C45.5907 37.6571 45.564 37.4698 45.4402 37.4151Z" fill="#C57207"/>
<path d="M34.7689 37.9324C34.2833 38.3277 34.0491 38.968 34.15 39.5917C34.2414 40.1549 34.6309 40.6625 35.1755 40.8206C35.7344 40.9826 36.3571 40.7816 36.6837 40.2818C36.8541 40.0212 36.9408 39.6932 36.9741 39.3838C37.0046 39.1008 36.9627 38.7982 36.7789 38.5746C36.5456 38.2906 36.1486 38.2672 35.8401 38.4263C35.5106 38.5951 35.3383 38.9592 35.2498 39.3087C35.1688 39.6269 35.6487 39.7625 35.7296 39.4443C35.7792 39.2501 35.8506 39.0295 36.0191 38.9095C36.1429 38.8216 36.319 38.803 36.4066 38.9114C36.4971 39.0236 36.4971 39.2286 36.4761 39.3819C36.4457 39.6044 36.3762 39.8377 36.2533 40.0261C36.0534 40.3296 35.6592 40.4224 35.3374 40.3384C34.9708 40.2428 34.7251 39.9148 34.6452 39.54C34.5433 39.0676 34.7518 38.5951 35.1203 38.2955C35.226 38.2096 35.2079 38.0241 35.1203 37.9343C35.0165 37.826 34.8746 37.8465 34.7689 37.9324Z" fill="#C57207"/>
<path d="M78.8053 56.7534C78.432 56.7534 78.274 56.0291 78.2454 55.7509C78.2388 55.6914 78.1902 55.6455 78.1312 55.6455C78.0721 55.6455 78.0236 55.6914 78.0178 55.7509C77.9883 56.0301 77.8312 56.7534 77.458 56.7534C77.3952 56.7534 77.3438 56.8061 77.3438 56.8705C77.3438 56.9359 77.3952 56.9876 77.458 56.9876C77.8312 56.9876 77.9893 57.7119 78.0178 57.991C78.0245 58.0506 78.0731 58.0955 78.1312 58.0955C78.1892 58.0955 78.2388 58.0506 78.2454 57.991C78.274 57.7119 78.432 56.9876 78.8053 56.9876C78.8681 56.9876 78.9195 56.9349 78.9195 56.8705C78.9195 56.8051 78.8681 56.7534 78.8053 56.7534Z" fill="#C57207"/>
<path d="M65.0145 10.9041C64.2442 10.9041 63.9195 9.41073 63.8595 8.83582C63.8472 8.71283 63.7462 8.61914 63.6253 8.61914C63.5044 8.61914 63.4035 8.71283 63.3911 8.83582C63.3311 9.41073 63.0064 10.9041 62.2361 10.9041C62.1057 10.9041 62 11.0125 62 11.1462C62 11.2799 62.1057 11.3883 62.2361 11.3883C63.0064 11.3883 63.3311 12.8817 63.3911 13.4566C63.4035 13.5796 63.5044 13.6733 63.6253 13.6733C63.7462 13.6733 63.8472 13.5796 63.8595 13.4566C63.9195 12.8807 64.2442 11.3883 65.0145 11.3883C65.1449 11.3883 65.2506 11.2799 65.2506 11.1462C65.2506 11.0125 65.1449 10.9041 65.0145 10.9041Z" fill="#C57207"/>
<path d="M6.88314 73.5841C7.36009 73.5841 7.74673 73.1877 7.74673 72.6988C7.74673 72.2098 7.36009 71.8135 6.88314 71.8135C6.40619 71.8135 6.01953 72.2098 6.01953 72.6988C6.01953 73.1877 6.40619 73.5841 6.88314 73.5841Z" fill="#C57207"/>
<path d="M76.4795 28.165C76.2281 28.611 76.3776 29.1821 76.8127 29.4397C77.2478 29.6974 77.8048 29.5442 78.0562 29.0981C78.3076 28.652 78.1581 28.081 77.723 27.8233C77.2869 27.5657 76.7308 27.7189 76.4795 28.165Z" fill="#C57207"/>
<path d="M17.6236 16.0287C17.2152 16.3294 17.1219 16.9121 17.4151 17.3308C17.7084 17.7495 18.2768 17.8452 18.6853 17.5455C19.0937 17.2459 19.187 16.6622 18.8938 16.2435C18.6005 15.8238 18.0321 15.7281 17.6236 16.0287Z" fill="#C57207"/>
<path d="M41.8441 8.86674C41.7327 8.4236 41.9927 7.97266 42.4249 7.85846C42.8572 7.74426 43.2971 8.01072 43.4085 8.45386C43.5199 8.897 43.26 9.34797 42.8277 9.46217C42.3954 9.57539 41.9555 9.30891 41.8441 8.86674Z" fill="#C57207"/>
<path d="M17.1304 2.40895C16.3182 2.40895 15.9754 0.834527 15.9126 0.228382C15.8993 0.0985629 15.7926 0 15.665 0C15.5374 0 15.4318 0.0985629 15.4175 0.228382C15.3546 0.834527 15.0119 2.40895 14.1997 2.40895C14.0616 2.40895 13.9512 2.52314 13.9512 2.6637C13.9512 2.80425 14.0626 2.91847 14.1997 2.91847C15.0119 2.91847 15.3546 4.4929 15.4175 5.09904C15.4308 5.22886 15.5374 5.32742 15.665 5.32742C15.7926 5.32742 15.8983 5.22886 15.9126 5.09904C15.9754 4.49192 16.3182 2.91847 17.1304 2.91847C17.2675 2.91847 17.3789 2.80425 17.3789 2.6637C17.3789 2.52314 17.2675 2.40895 17.1304 2.40895Z" fill="#C57207"/>
<path d="M43.1033 74.0158C43.6317 74.0158 43.8545 72.9919 43.8955 72.5976C43.904 72.5136 43.9735 72.4492 44.0564 72.4492C44.1392 72.4492 44.2087 72.5136 44.2173 72.5976C44.2582 72.9919 44.481 74.0158 45.0095 74.0158C45.099 74.0158 45.1713 74.09 45.1713 74.1818C45.1713 74.2735 45.099 74.3477 45.0095 74.3477C44.481 74.3477 44.2582 75.3716 44.2173 75.7659C44.2087 75.8499 44.1392 75.9143 44.0564 75.9143C43.9735 75.9143 43.904 75.8499 43.8955 75.7659C43.8545 75.3716 43.6317 74.3477 43.1033 74.3477C43.0138 74.3477 42.9414 74.2735 42.9414 74.1818C42.9414 74.09 43.0138 74.0158 43.1033 74.0158Z" fill="#C57207"/>
<path d="M1.38477 29.0436C1.38477 28.6746 1.67611 28.376 2.03602 28.376C2.39593 28.376 2.68729 28.6746 2.68729 29.0436C2.68729 29.4126 2.39593 29.7113 2.03602 29.7113C1.67611 29.7113 1.38477 29.4126 1.38477 29.0436Z" fill="#C57207"/>
<path d="M22.8926 83.2282C22.8926 82.8592 23.1839 82.5605 23.5438 82.5605C23.9038 82.5605 24.1951 82.8592 24.1951 83.2282C24.1951 83.5971 23.9038 83.8958 23.5438 83.8958C23.1839 83.8958 22.8926 83.5971 22.8926 83.2282Z" fill="#C57207"/>
<path d="M65.1523 75.0397C65.1523 74.6707 65.4437 74.3721 65.8036 74.3721C66.1635 74.3721 66.4549 74.6707 66.4549 75.0397C66.4549 75.4087 66.1635 75.7073 65.8036 75.7073C65.4437 75.7073 65.1523 75.4077 65.1523 75.0397Z" fill="url(#paint3_linear_4488_20661)"/>
</g>
<defs>
<linearGradient id="paint0_linear_4488_20661" x1="42.6967" y1="20.8263" x2="39.6761" y2="63.6647" gradientUnits="userSpaceOnUse">
<stop stop-color="#EBCB76"/>
<stop offset="1" stop-color="#E19256"/>
</linearGradient>
<linearGradient id="paint1_linear_4488_20661" x1="34.7078" y1="-224.386" x2="35.0177" y2="-136.723" gradientUnits="userSpaceOnUse">
<stop stop-color="#EBCB76"/>
<stop offset="1" stop-color="#E19256"/>
</linearGradient>
<linearGradient id="paint2_linear_4488_20661" x1="44.6342" y1="-224.421" x2="44.9441" y2="-136.758" gradientUnits="userSpaceOnUse">
<stop stop-color="#EBCB76"/>
<stop offset="1" stop-color="#E19256"/>
</linearGradient>
<linearGradient id="paint3_linear_4488_20661" x1="67.525" y1="-1.43811" x2="65.6658" y2="77.1504" gradientUnits="userSpaceOnUse">
<stop stop-color="#EBCB76"/>
<stop offset="1" stop-color="#E19256"/>
</linearGradient>
<clipPath id="clip0_4488_20661">
<rect width="79.9473" height="84" fill="white"/>
</clipPath>
</defs>
</svg>
