<svg width="80" height="84" viewBox="0 0 80 84" fill="none" xmlns="http://www.w3.org/2000/svg">
<g clip-path="url(#clip0_4488_20952)">
<path d="M4.24063 42.3688C8.04447 37.7344 15.181 36.6893 21.1553 35.9699C24.7457 35.5373 28.4403 35.597 31.8581 34.3812C35.0558 33.2433 38.05 29.5089 38.5277 26.1665C39.2398 21.1774 39.9636 15.6462 44.1851 13.1085C48.7394 10.3711 53.0736 10.8568 58.1773 12.3602C56.518 9.86641 54.7553 8.77079 51.7611 9.05837C48.7669 9.34595 45.7886 10.2708 42.8052 9.88464C38.918 9.38075 35.4551 6.4602 34.322 2.72994C36.3773 4.75792 40.1687 5.4317 43.0653 5.45242C40.212 4.59797 38.6903 2.20865 38.2159 0C40.1387 1.68819 42.8452 2.22025 45.41 2.16804C47.9748 2.11583 50.5004 1.54895 53.0561 1.33182C55.6634 1.10971 58.3491 1.26386 60.7896 2.20202C63.2302 3.14101 65.4098 4.93362 66.4254 7.3304C67.551 9.98741 67.3084 12.9535 66.8956 15.807C68.7033 15.739 70.5119 15.6702 72.3196 15.6023C71.6183 17.6327 69.7106 19.1477 67.5552 19.0159C64.7561 22.7901 63.0201 27.5141 62.7708 32.1957C62.7191 33.1704 62.7241 34.1632 62.4256 35.0931C62.1279 36.023 57.7137 36.1514 57.2143 34.8818C56.7148 33.6121 56.9566 32.4875 57.1084 31.1333C57.386 28.6536 57.6645 26.1731 57.9422 23.6935C57.0241 24.1518 55.6125 24.1277 54.9638 23.3363C55.1472 28.1754 55.1497 33.2607 55.3332 38.0998C55.3407 38.3079 55.3482 38.5184 55.354 38.7289C58.6451 38.1844 62.0537 38.3418 65.273 39.2096C66.4087 39.5154 67.32 40.3847 67.6586 41.5052C68.5015 44.294 68.8051 47.2444 68.3348 50.1127C67.9896 52.2186 66.417 54.1687 64.5985 55.3016C62.8375 54.9104 61.2457 53.6781 60.6946 51.9708C61.5251 51.3178 62.3739 50.6813 63.2052 50.029C62.4214 48.1834 62.1571 46.0452 62.2296 44.0437C60.0017 44.8302 57.4919 44.9438 55.1247 44.4564C56.3104 46.1819 57.3669 48.0707 58.2715 49.9246C59.3421 52.1175 59.9992 54.5707 59.7315 56.994C59.4639 59.4173 58.1731 61.7958 56.0519 63.0199C52.5699 62.9743 48.9562 63.2743 45.4734 63.2287C44.0601 61.8298 42.846 60.5353 41.4327 59.1363C41.5937 57.0254 43.0928 55.6091 45.2099 55.3779C45.666 56.2903 45.8794 57.1953 46.3355 58.1078C49.1997 58.3357 51.1466 57.8948 54.0108 58.1219C52.4399 56.1428 52.62 53.8239 52.4299 51.3103C51.0424 52.0264 49.3656 51.2863 48.079 50.9448C43.3588 54.0601 37.4646 55.2502 31.9506 53.9541C27.7549 52.9678 24.8207 48.427 20.5191 48.708C17.1155 48.9301 13.9879 51.4636 13.0823 54.7323C12.176 58.0009 13.5576 61.7685 16.3659 63.692C18.7548 65.328 21.834 65.6056 24.7273 65.3951C27.6207 65.1846 30.4823 64.5415 33.3831 64.544C36.284 64.5465 39.359 65.3056 41.3268 67.4248C44.5212 65.9446 48.4176 65.9686 51.6878 67.2731C54.9588 68.5784 57.6403 71.2727 58.9186 74.5372C53.3579 76.3505 46.9784 75.3883 42.0989 72.1777C41.1301 77.3724 37.2954 82.0168 32.3684 84C30.3764 79.8338 31.2936 74.3673 34.4696 71.0042C30.6649 71.0854 27.5156 72.3203 23.8185 73.2161C16.0032 75.1099 7.16062 71.5536 2.86817 64.7909C-1.42346 58.0274 -0.844782 48.5638 4.24063 42.3688Z" fill="url(#paint0_linear_4488_20952)"/>
<path d="M60.8214 21.3729C61.1016 21.3729 61.1024 20.9395 60.8214 20.9395C60.5413 20.9395 60.5413 21.3729 60.8214 21.3729Z" fill="#C57207"/>
<path d="M60.2124 34.7206C60.4925 34.7206 60.4934 34.2871 60.2124 34.2871C59.9322 34.2879 59.9314 34.7206 60.2124 34.7206Z" fill="#C57207"/>
<path d="M66.928 15.3101C66.4694 15.8132 66.4469 16.5027 66.582 17.1367C66.7313 17.8411 67.1198 18.6359 66.7896 19.3462C66.6729 19.5973 67.0481 19.8177 67.1657 19.565C67.4775 18.8945 67.3149 18.1959 67.1273 17.5154C66.9605 16.9121 66.7596 16.1397 67.2365 15.6168C67.4242 15.4096 67.1165 15.1029 66.928 15.3101Z" fill="#C57207"/>
<path d="M42.9102 5.94465C45.2149 5.75072 47.5204 5.55596 49.825 5.36203C50.9774 5.26506 52.1297 5.16644 53.282 5.0703C54.0024 5.01063 54.7228 4.97582 55.4449 5.004C57.1701 5.07196 58.9219 5.26092 60.3919 6.23886C61.059 6.68224 61.5517 7.2574 61.8769 7.98423C62.1362 8.56519 62.3172 9.17847 62.4381 9.8017C62.7966 11.6523 62.7133 13.5875 62.7133 15.4621C62.7133 15.7406 63.1493 15.7414 63.1493 15.4621C63.1493 13.6944 63.2002 11.8993 62.9375 10.1456C62.7349 8.79144 62.3005 7.31293 61.2549 6.36234C60.6362 5.79961 59.8808 5.39932 59.0953 5.12003C58.244 4.8167 57.366 4.71559 56.4697 4.63852C54.6378 4.48105 52.8401 4.67498 51.0141 4.82913C48.3133 5.05704 45.6118 5.28412 42.9111 5.51203C42.6326 5.53441 42.6301 5.96785 42.9102 5.94465Z" fill="#C57207"/>
<path d="M56.9505 46.9727C55.5847 44.6811 53.8279 42.6333 51.7625 40.936C51.5482 40.7594 51.2381 41.0644 51.454 41.2418C53.4919 42.9167 55.2262 44.9289 56.5736 47.1915C56.717 47.431 57.0939 47.213 56.9505 46.9727Z" fill="#C57207"/>
<path d="M52.2564 51.3607C48.8428 51.5489 45.5651 49.7844 43.8883 46.8183C43.4397 46.0243 43.1195 45.1699 42.9277 44.2798C42.8694 44.0071 42.4491 44.1223 42.5075 44.395C43.2388 47.7904 45.8586 50.5602 49.2305 51.4759C50.2136 51.7428 51.2383 51.8497 52.2556 51.7942C52.5349 51.7784 52.5366 51.345 52.2564 51.3607Z" fill="#C57207"/>
<path d="M55.4175 58.2629C55.3642 58.2837 55.31 58.3002 55.2541 58.3118C55.2391 58.3152 55.2249 58.3176 55.2099 58.3201C55.1674 58.3284 55.2324 58.3193 55.2058 58.321C55.1791 58.3226 55.1524 58.3251 55.1257 58.3259C55.0957 58.3268 55.0657 58.3259 55.0357 58.3243C55.0206 58.3234 55.0056 58.3226 54.9906 58.321C54.979 58.3201 54.9373 58.3118 54.9865 58.321C54.9306 58.3102 54.8747 58.2994 54.8197 58.2828C54.7938 58.2746 54.7688 58.2654 54.743 58.2563C54.7038 58.2422 54.7605 58.2654 54.7371 58.2538C54.7238 58.2472 54.7096 58.2414 54.6963 58.2348C54.6454 58.2091 54.5962 58.1801 54.5504 58.1469C54.542 58.1411 54.5104 58.1138 54.5445 58.1428C54.5354 58.1353 54.5262 58.1279 54.517 58.1204C54.4945 58.1013 54.4728 58.0806 54.452 58.0591C54.4312 58.0375 54.412 58.0152 54.3928 57.9928C54.4053 58.0069 54.407 58.0118 54.3945 57.9944C54.3845 57.9795 54.3736 57.9654 54.3644 57.9497C54.3019 57.8552 54.1685 57.8063 54.0659 57.8718C53.9709 57.9331 53.9209 58.0665 53.9876 58.1685C54.3094 58.6574 54.9773 58.897 55.5334 58.6806C55.6393 58.6392 55.7244 58.5331 55.6852 58.4138C55.6518 58.3127 55.5309 58.219 55.4175 58.2629Z" fill="#C57207"/>
<path d="M45.7099 58.0708C45.7041 58.0907 45.6974 58.1106 45.6907 58.1297C45.6882 58.138 45.6649 58.1918 45.6815 58.1545C45.6674 58.186 45.6524 58.2167 45.6349 58.2465C45.6148 58.2822 45.5915 58.3161 45.569 58.3501C45.5481 58.3816 45.574 58.346 45.5598 58.3634C45.549 58.3766 45.5381 58.3899 45.5265 58.4023C45.4131 58.5308 45.3389 58.588 45.1896 58.6667C45.1746 58.675 45.1588 58.6824 45.1429 58.6899C45.1412 58.6907 45.0804 58.7181 45.1187 58.7015C45.0837 58.7164 45.0478 58.7289 45.0112 58.7396C44.9753 58.7512 44.9386 58.7612 44.9011 58.7686C44.8811 58.7728 44.8602 58.7761 44.8402 58.7802C44.7994 58.7885 44.8511 58.7802 44.8269 58.7827C44.7519 58.7902 44.676 58.7927 44.6001 58.7869C44.5826 58.7852 44.5659 58.7844 44.5492 58.7819C44.5951 58.7877 44.5292 58.7769 44.5259 58.7769C44.485 58.7686 44.445 58.7579 44.405 58.7463C44.2924 58.7115 44.1673 58.7877 44.1365 58.8979C44.1048 59.014 44.1757 59.1291 44.2882 59.1648C45.0395 59.3977 45.9017 58.9294 46.1293 58.186C46.1635 58.0741 46.0885 57.9498 45.9767 57.92C45.8617 57.8877 45.7441 57.9581 45.7099 58.0708Z" fill="#C57207"/>
<path d="M45.5993 61.2946C45.2057 61.8101 45.0598 62.4706 45.159 63.1046C45.1773 63.2206 45.3233 63.2844 45.4275 63.2563C45.5517 63.2223 45.5976 63.1063 45.5792 62.9902C45.4992 62.4781 45.6518 61.9369 45.9753 61.5134C46.0462 61.4205 45.9903 61.2714 45.8969 61.2175C45.7852 61.152 45.671 61.2009 45.5993 61.2946Z" fill="#C57207"/>
<path d="M63.8507 42.304C63.6448 43.2396 62.8826 43.9963 61.9413 44.2002C61.6678 44.2598 61.7837 44.6767 62.0572 44.6179C63.137 44.3842 64.035 43.4916 64.2709 42.4192C64.331 42.1473 63.9107 42.0313 63.8507 42.304Z" fill="#C57207"/>
<path d="M63.2406 49.9938C63.389 50.8259 64.1194 51.5328 64.9624 51.6513C65.0783 51.6679 65.1967 51.6231 65.2301 51.5005C65.2584 51.3994 65.1951 51.2502 65.0783 51.2345C64.9824 51.2212 64.8874 51.2005 64.7948 51.1715C64.7523 51.1582 64.7098 51.1433 64.6689 51.1267C64.6031 51.101 64.7023 51.1441 64.6389 51.1134C64.6189 51.1035 64.5981 51.0944 64.578 51.0844C64.4021 50.9966 64.282 50.9112 64.1495 50.7844C63.8885 50.5341 63.7259 50.2424 63.6608 49.8794C63.64 49.7642 63.4991 49.6996 63.3932 49.7286C63.2706 49.7609 63.2206 49.8786 63.2406 49.9938Z" fill="#C57207"/>
<path d="M70.7078 16.2915C70.3718 17.4219 69.2287 18.22 68.048 18.1678C67.7679 18.1554 67.7679 18.5888 68.048 18.6012C69.4221 18.6609 70.7396 17.7145 71.1281 16.4067C71.2082 16.139 70.7879 16.0246 70.7078 16.2915Z" fill="#C57207"/>
<path d="M58.3106 15.4985C56.7005 15.8623 55.0295 15.8905 53.4077 15.5789C53.1334 15.5258 53.0167 15.9435 53.2918 15.9966C54.9928 16.3239 56.7363 16.2974 58.4265 15.9162C58.6991 15.854 58.584 15.4363 58.3106 15.4985Z" fill="#C57207"/>
<path d="M53.1386 15.8452C53.9324 18.2809 56.5072 19.8655 59.0479 19.5912C59.3239 19.5614 59.3264 19.1279 59.0479 19.1578C56.704 19.4105 54.2968 17.995 53.5589 15.73C53.473 15.4665 53.0519 15.5792 53.1386 15.8452Z" fill="#C57207"/>
<path d="M58.7042 13.3609C58.2448 11.8534 57.2409 10.5323 55.8909 9.7019C54.4184 8.79607 52.5999 8.53583 50.9231 8.93944C50.6504 9.00491 50.7663 9.42261 51.039 9.35714C52.6057 8.98088 54.2975 9.23033 55.6716 10.0757C56.9248 10.8464 57.8587 12.0763 58.2848 13.4761C58.3648 13.7421 58.7851 13.6286 58.7042 13.3609Z" fill="#C57207"/>
<path d="M65.3052 15.4692C63.7718 15.9914 62.0542 15.7063 60.7684 14.7283C60.5458 14.5593 60.329 14.9347 60.5483 15.1021C61.9166 16.1438 63.7918 16.4414 65.4211 15.8869C65.6846 15.7974 65.5712 15.3789 65.3052 15.4692Z" fill="#C57207"/>
<path d="M46.7944 14.6866C46.6185 14.3584 46.1816 14.176 45.8247 14.3037C45.4378 14.4421 45.2144 14.8482 45.2961 15.2468C45.3186 15.3579 45.4578 15.4324 45.5637 15.3976C45.6821 15.3595 45.7405 15.2501 45.7155 15.1316C45.713 15.1217 45.7113 15.1117 45.7096 15.1018C45.7138 15.1324 45.7146 15.1391 45.713 15.1225C45.713 15.1051 45.7105 15.0877 45.7113 15.0703C45.7113 15.0554 45.713 15.0404 45.7138 15.0255C45.7163 14.9816 45.7038 15.0703 45.7146 15.0239C45.7213 14.9949 45.728 14.9659 45.7388 14.9368C45.7422 14.9277 45.7455 14.9178 45.7497 14.9087C45.738 14.9352 45.7363 14.941 45.743 14.9261C45.7505 14.9128 45.7563 14.8996 45.7638 14.8863C45.773 14.8714 45.783 14.8565 45.7922 14.8415C45.8147 14.8051 45.7638 14.8722 45.7947 14.8374C45.8147 14.815 45.8347 14.7926 45.8572 14.7728C45.8647 14.7661 45.8722 14.7595 45.8806 14.7537C45.858 14.7703 45.853 14.7744 45.8664 14.7653C45.8789 14.7578 45.8914 14.7487 45.9048 14.7413C45.9131 14.7363 45.9414 14.7147 45.9514 14.7172C45.9431 14.7205 45.9356 14.7239 45.9272 14.7272C45.9364 14.7239 45.9456 14.7205 45.9556 14.7172C45.9673 14.7131 46.0373 14.689 46.0423 14.6965C46.009 14.7006 46.004 14.7015 46.0281 14.699C46.0331 14.699 46.0382 14.6982 46.0432 14.6982C46.0607 14.6973 46.0773 14.6973 46.0949 14.6982C46.1024 14.6982 46.1099 14.699 46.1174 14.6998C46.1416 14.7023 46.1374 14.7015 46.1032 14.6973C46.1057 14.694 46.144 14.7048 46.1474 14.7056C46.1766 14.7123 46.2041 14.7222 46.2324 14.7313C46.2766 14.7462 46.1974 14.7123 46.2349 14.733C46.2499 14.7413 46.2658 14.7487 46.2808 14.7578C46.2883 14.7628 46.3225 14.7777 46.3242 14.786C46.3175 14.781 46.3108 14.7752 46.3033 14.7703C46.3108 14.7761 46.3183 14.7827 46.3258 14.7893C46.3442 14.8051 46.3667 14.8432 46.3875 14.8523C46.3692 14.8275 46.3667 14.8241 46.3808 14.8432C46.3833 14.8473 46.3867 14.8515 46.3892 14.8556C46.4 14.8722 46.41 14.8888 46.4192 14.9062C46.4726 15.0065 46.621 15.0454 46.7177 14.9841C46.8186 14.917 46.8519 14.7935 46.7944 14.6866Z" fill="#C57207"/>
<path d="M44.7162 15.4554C44.4869 15.3195 44.2026 15.3228 43.9674 15.4388C43.7281 15.5565 43.5922 15.8068 43.5739 16.0653C43.5639 16.2079 43.6014 16.3554 43.6722 16.4789C43.7289 16.5775 43.8724 16.6198 43.9699 16.5568C44.07 16.493 44.1083 16.3662 44.0483 16.2609C44.0408 16.2468 44.0333 16.2328 44.0266 16.2187C44.0149 16.1963 44.0441 16.2651 44.0366 16.241C44.0341 16.2328 44.0308 16.2245 44.0274 16.2162C44.0174 16.1863 44.0108 16.1548 44.0066 16.1242C44.0091 16.1432 44.0116 16.1623 44.0141 16.1814C44.0074 16.1283 44.0074 16.0761 44.0149 16.0239C44.0124 16.043 44.0099 16.062 44.0074 16.0811C44.0116 16.0529 44.0174 16.0256 44.0258 15.999C44.03 15.9858 44.035 15.9725 44.0391 15.9593C44.0525 15.922 44.0166 16.0057 44.0341 15.9725C44.0475 15.9477 44.06 15.9228 44.0766 15.8996C44.1083 15.854 44.05 15.9286 44.075 15.9021C44.0833 15.893 44.0917 15.8838 44.1 15.8747C44.1083 15.8656 44.1183 15.8582 44.1275 15.8499C44.1542 15.825 44.0791 15.883 44.125 15.8515C44.1467 15.8366 44.17 15.8233 44.1934 15.8117C44.2376 15.7902 44.1475 15.8275 44.185 15.8151C44.1984 15.8101 44.2117 15.8051 44.2251 15.8018C44.2526 15.7935 44.2801 15.7877 44.3084 15.7836C44.2893 15.786 44.2701 15.7885 44.2501 15.791C44.3034 15.7844 44.356 15.7836 44.4085 15.791C44.3893 15.7885 44.3701 15.786 44.351 15.7836C44.3843 15.7885 44.4168 15.796 44.4485 15.8068C44.4552 15.8093 44.4619 15.8117 44.4685 15.8142C44.4935 15.8225 44.4185 15.791 44.451 15.8068C44.4669 15.8142 44.4827 15.8225 44.4977 15.8316C44.5953 15.8896 44.7412 15.8565 44.7954 15.7537C44.8496 15.6468 44.8204 15.5167 44.7162 15.4554Z" fill="#C57207"/>
<path d="M42.9629 16.6888C42.6302 16.77 42.3426 17.0567 42.2834 17.3965C42.2192 17.7653 42.3818 18.135 42.6978 18.3388C42.7937 18.401 42.9429 18.3612 42.9963 18.2609C43.0538 18.1532 43.0205 18.0305 42.9179 17.9651C42.9179 17.9651 42.872 17.9344 42.8946 17.9501C42.9171 17.9667 42.8779 17.9361 42.8737 17.9319C42.8504 17.9112 42.8304 17.8888 42.8095 17.8664C42.7828 17.8374 42.8162 17.8797 42.8037 17.859C42.7962 17.8457 42.7862 17.8333 42.7787 17.8209C42.7628 17.7943 42.7486 17.7678 42.7353 17.7396C42.7478 17.7678 42.7395 17.7496 42.7336 17.7314C42.7286 17.7164 42.7236 17.7023 42.7203 17.6874C42.7161 17.6725 42.7128 17.6576 42.7095 17.6427C42.707 17.6319 42.7028 17.5896 42.7069 17.6369C42.7044 17.6062 42.7019 17.5764 42.7028 17.5449C42.7028 17.53 42.7053 17.5142 42.7053 17.4993C42.7061 17.4678 42.6944 17.5474 42.7069 17.4935C42.7136 17.4645 42.722 17.4355 42.7303 17.4073C42.737 17.3858 42.7361 17.3916 42.7278 17.409C42.7353 17.3924 42.7428 17.3766 42.7511 17.3609C42.7653 17.3344 42.782 17.3095 42.7987 17.2847C42.8112 17.2664 42.8112 17.2722 42.7978 17.2855C42.8078 17.2747 42.8179 17.2623 42.8279 17.2515C42.8487 17.2291 42.8712 17.2101 42.8937 17.1902C42.9121 17.1736 42.8662 17.2076 42.9004 17.186C42.9129 17.1777 42.9254 17.1695 42.9387 17.162C42.9521 17.1545 42.9646 17.1471 42.9779 17.1404C42.9829 17.138 43.0288 17.1181 43.0013 17.1288C42.9738 17.1396 43.0205 17.123 43.0263 17.1206C43.0438 17.1148 43.0613 17.1106 43.0788 17.1065C43.1897 17.0791 43.2664 16.949 43.2306 16.8404C43.1939 16.7252 43.0813 16.6589 42.9629 16.6888Z" fill="#C57207"/>
<path d="M45.848 16.4723C45.6312 16.3148 45.3094 16.3206 45.0843 16.4574C44.9533 16.5369 44.8633 16.653 44.8074 16.793C44.7574 16.9182 44.7566 17.0591 44.7824 17.19C44.8099 17.3292 44.89 17.4701 45 17.5613C45.0459 17.5986 45.0926 17.6243 45.1543 17.6243C45.2077 17.6243 45.2719 17.6011 45.3086 17.5613C45.3819 17.4817 45.4028 17.3317 45.3086 17.2547C45.2869 17.2364 45.2685 17.2157 45.2485 17.1958C45.2318 17.1792 45.2769 17.2364 45.2644 17.2165C45.261 17.2107 45.2569 17.2058 45.2535 17.2008C45.2452 17.1884 45.2377 17.1759 45.231 17.1627C45.2277 17.1569 45.2252 17.1511 45.2218 17.1453C45.2077 17.1187 45.2318 17.1701 45.2318 17.1701C45.2252 17.1643 45.221 17.1419 45.2185 17.1328C45.2093 17.1047 45.2035 17.0756 45.1985 17.0458C45.201 17.0649 45.2035 17.0839 45.206 17.103C45.2001 17.0566 45.2001 17.011 45.206 16.9646C45.2035 16.9837 45.201 17.0027 45.1985 17.0218C45.2018 16.9986 45.206 16.9762 45.2127 16.9538C45.216 16.9414 45.221 16.929 45.2252 16.9165C45.2377 16.8801 45.2018 16.9638 45.2185 16.9323C45.2293 16.9116 45.241 16.8925 45.2535 16.8726C45.2727 16.8428 45.2143 16.9174 45.2502 16.8776C45.2577 16.8693 45.266 16.861 45.2744 16.8527C45.2827 16.8453 45.2919 16.8378 45.3002 16.8303C45.2527 16.8759 45.2752 16.8494 45.2919 16.8378C45.311 16.8254 45.3319 16.8154 45.3527 16.8046C45.3669 16.7964 45.2952 16.8262 45.3419 16.8096C45.3527 16.8055 45.3636 16.8022 45.3752 16.7988C45.3994 16.7922 45.4236 16.7872 45.4486 16.7839C45.4295 16.7864 45.4103 16.7889 45.3911 16.7914C45.4378 16.7856 45.4836 16.7856 45.5303 16.7914C45.5112 16.7889 45.492 16.7864 45.4728 16.7839C45.5095 16.7889 45.5437 16.7988 45.5779 16.8104C45.6104 16.822 45.5353 16.7897 45.5578 16.8022C45.5654 16.8063 45.5729 16.8096 45.5795 16.8138C45.597 16.8229 45.6137 16.8336 45.6296 16.8461C45.6729 16.8776 45.748 16.8817 45.7972 16.8676C45.848 16.8535 45.9022 16.8146 45.9272 16.7682C45.9539 16.7176 45.9672 16.6571 45.9489 16.6016C45.9289 16.5452 45.8956 16.5079 45.848 16.4723Z" fill="#C57207"/>
<path d="M44.4245 18.1588C44.1769 18.0652 43.8634 18.163 43.6983 18.3643C43.6041 18.4804 43.5449 18.6179 43.549 18.7696C43.5524 18.9039 43.5966 19.0406 43.6774 19.1484C43.775 19.2776 43.9092 19.3829 44.0727 19.4127C44.131 19.4235 44.1877 19.4218 44.2403 19.3912C44.2853 19.3647 44.3287 19.3133 44.3403 19.2619C44.3645 19.1558 44.3078 19.0174 44.1877 18.9959C44.1736 18.9934 44.1586 18.9901 44.1444 18.9859C44.1377 18.9843 44.1302 18.9818 44.1235 18.9793C44.1027 18.971 44.1094 18.9743 44.1452 18.9884C44.1235 18.9751 44.1002 18.9644 44.0785 18.9503C44.0476 18.9312 44.121 18.9876 44.0793 18.9503C44.0685 18.9403 44.0577 18.9304 44.0476 18.9196C44.0426 18.9138 44.0376 18.9088 44.0326 18.903C44.0185 18.8856 44.0226 18.8914 44.046 18.9204C44.041 18.9105 44.0326 18.9022 44.0268 18.8931C44.0185 18.8807 44.0118 18.8682 44.0051 18.855C43.9793 18.8044 44.0168 18.8914 44.0043 18.8566C43.996 18.8318 43.9893 18.8077 43.9834 18.7829C43.9743 18.7464 43.9876 18.8434 43.9843 18.7862C43.9835 18.7713 43.9834 18.7572 43.9834 18.7423C43.9859 18.6851 43.9734 18.782 43.9818 18.7456C43.9851 18.7331 43.9876 18.7207 43.991 18.7083C43.9968 18.6876 44.0176 18.6602 43.986 18.7141C43.9935 18.7017 43.9985 18.6884 44.006 18.676C44.0135 18.6635 44.0226 18.6528 44.0293 18.6403C44.0018 18.6925 44.011 18.6635 44.026 18.647C44.0343 18.6378 44.0435 18.6287 44.0527 18.6204C44.0577 18.6155 44.0635 18.6105 44.0693 18.6063C44.0868 18.5923 44.0802 18.5972 44.051 18.6204C44.0752 18.608 44.0977 18.5914 44.121 18.5782C44.1644 18.5541 44.076 18.5931 44.1144 18.5807C44.1285 18.5757 44.1419 18.5707 44.156 18.5674C44.1702 18.5632 44.1844 18.5608 44.1986 18.5574C44.2378 18.5492 44.1394 18.5599 44.1894 18.5591C44.2019 18.5591 44.2144 18.5574 44.2269 18.5583C44.2494 18.5591 44.2894 18.5724 44.2227 18.555C44.2511 18.5624 44.2794 18.5674 44.307 18.5773C44.4137 18.6179 44.5504 18.5326 44.5746 18.4265C44.6055 18.3022 44.5396 18.2027 44.4245 18.1588Z" fill="#C57207"/>
<path d="M46.2716 18.3112C46.0114 18.2134 45.7179 18.288 45.5061 18.4554C45.2827 18.6328 45.2077 18.9286 45.2602 19.1988C45.2885 19.3455 45.3677 19.4864 45.4753 19.59C45.557 19.6687 45.7029 19.677 45.783 19.59C45.8622 19.5046 45.8705 19.3679 45.783 19.2833C45.7705 19.2717 45.7588 19.2585 45.7471 19.2461C45.7188 19.217 45.773 19.2858 45.7496 19.2494C45.733 19.2237 45.7188 19.1988 45.7046 19.1723C45.6829 19.1325 45.7205 19.2195 45.7063 19.1764C45.7013 19.1599 45.6946 19.1441 45.6904 19.1275C45.6871 19.1151 45.6838 19.1027 45.6813 19.0902C45.6796 19.082 45.6779 19.0737 45.6771 19.0646C45.6788 19.0753 45.6796 19.0861 45.6813 19.0969C45.6854 19.0695 45.6771 19.0355 45.6779 19.0065C45.6779 18.9983 45.6863 18.9436 45.6787 18.9842C45.6712 19.0248 45.6821 18.9692 45.6838 18.9626C45.6904 18.9344 45.7071 18.9046 45.7105 18.8773C45.7063 18.8864 45.7029 18.8963 45.6988 18.9054C45.7021 18.898 45.7063 18.8897 45.7105 18.8822C45.718 18.869 45.7254 18.8557 45.7338 18.8433C45.7371 18.8383 45.7405 18.8325 45.7446 18.8275C45.758 18.8093 45.7546 18.8134 45.7338 18.8408C45.743 18.8325 45.7505 18.8217 45.7588 18.8126C45.7688 18.8018 45.7796 18.7919 45.7905 18.7819C45.8305 18.7471 45.7563 18.8035 45.7913 18.7803C45.8163 18.7637 45.8405 18.748 45.8672 18.7347C45.8714 18.733 45.8747 18.7306 45.8789 18.7289C45.8997 18.719 45.8939 18.7214 45.8622 18.7355C45.8755 18.7339 45.8914 18.7248 45.9047 18.7206C45.9314 18.7123 45.9581 18.7065 45.9848 18.7016C46.0231 18.6941 45.9289 18.7057 45.9898 18.7024C46.0023 18.7016 46.0148 18.7016 46.0281 18.7016C46.0406 18.7016 46.0531 18.7032 46.0665 18.7032C46.1057 18.704 46.0114 18.6924 46.0715 18.704C46.1007 18.7098 46.129 18.7181 46.1574 18.7289C46.2641 18.7687 46.4008 18.6842 46.425 18.5781C46.4525 18.4538 46.3858 18.3535 46.2716 18.3112Z" fill="#C57207"/>
<path d="M42.0626 47.577C37.9135 46.1639 33.3859 45.9236 29.1026 46.8551C27.8769 47.122 26.6746 47.4866 25.5073 47.9433C25.2496 48.0444 25.3613 48.4629 25.6232 48.361C29.6613 46.7822 34.1272 46.3346 38.4013 47.0847C39.6053 47.296 40.7902 47.601 41.9467 47.9955C42.2127 48.085 42.3269 47.6665 42.0626 47.577Z" fill="#C57207"/>
<path d="M10.452 41.2344C10.3169 41.0031 10.0401 40.854 9.76994 40.8738C9.46977 40.8954 9.23713 41.0885 9.13457 41.3653C9.08371 41.5037 9.08038 41.667 9.12457 41.8079C9.15876 41.9156 9.278 41.996 9.39306 41.9595C9.50229 41.9247 9.5815 41.8087 9.54481 41.6935C9.53981 41.6777 9.53564 41.662 9.53148 41.6454C9.53064 41.6413 9.5298 41.6371 9.52897 41.633C9.5248 41.6098 9.52564 41.6164 9.53148 41.6537C9.53564 41.6272 9.52813 41.5949 9.53064 41.5675C9.53064 41.5617 9.53147 41.5551 9.5323 41.5493C9.53397 41.5319 9.53314 41.541 9.52897 41.5758C9.53564 41.5625 9.53564 41.5418 9.53981 41.5277C9.54314 41.5161 9.54648 41.5037 9.55065 41.4921C9.55315 41.4846 9.55648 41.4764 9.55898 41.4689C9.55481 41.4788 9.55064 41.488 9.54648 41.4979C9.56399 41.4772 9.57316 41.4449 9.58817 41.4217C9.59234 41.4159 9.62152 41.3703 9.60068 41.4034C9.58066 41.4349 9.60985 41.3943 9.61652 41.3877C9.62485 41.3786 9.63402 41.3703 9.6432 41.362C9.64903 41.3562 9.65571 41.3512 9.66238 41.3462C9.63487 41.367 9.62986 41.3711 9.64821 41.3578C9.67156 41.3438 9.69407 41.3305 9.71825 41.3181C9.73326 41.3114 9.72575 41.3147 9.6949 41.328C9.70241 41.3247 9.71074 41.3222 9.71825 41.3197C9.72992 41.3156 9.74243 41.3131 9.7541 41.3098C9.76161 41.3081 9.81581 41.2973 9.77411 41.3048C9.73326 41.3131 9.78578 41.3048 9.79495 41.3048C9.80746 41.3048 9.81997 41.3048 9.83247 41.3056C9.84081 41.3056 9.84915 41.3065 9.85749 41.3073C9.88083 41.3098 9.87417 41.3089 9.83665 41.304C9.85999 41.3139 9.89084 41.3147 9.91502 41.323C9.9317 41.328 9.97339 41.3504 9.91586 41.3205C9.9267 41.3263 9.93837 41.3305 9.95005 41.3363C9.9759 41.3496 9.99841 41.3703 10.0234 41.3819C9.97506 41.3587 10.0026 41.3653 10.0176 41.3794C10.0301 41.3902 10.0418 41.4018 10.0526 41.4142C10.0568 41.4183 10.0609 41.4233 10.0643 41.4283C10.0751 41.4407 10.0701 41.4341 10.0493 41.4092C10.0526 41.4217 10.0693 41.4391 10.076 41.4507C10.1335 41.5485 10.2752 41.5916 10.3736 41.5286C10.4728 41.4672 10.5129 41.3396 10.452 41.2344Z" fill="#C57207"/>
<path d="M7.80321 40.922C7.23038 40.8888 6.81098 41.6115 7.11198 42.0914C7.17202 42.1875 7.30876 42.2339 7.40965 42.1693C7.50637 42.1071 7.55223 41.9762 7.48802 41.8726C7.47551 41.8527 7.46551 41.832 7.45467 41.8104C7.48719 41.8734 7.46551 41.8353 7.45968 41.8162C7.45634 41.8071 7.45384 41.7972 7.45217 41.7881C7.45133 41.7847 7.44301 41.7499 7.44467 41.7499C7.44467 41.7499 7.45134 41.8171 7.44801 41.769C7.44634 41.7458 7.44633 41.7234 7.44717 41.7002C7.448 41.6903 7.44967 41.6803 7.44967 41.6712C7.44717 41.745 7.44551 41.701 7.44967 41.6803C7.45384 41.6579 7.46051 41.6347 7.46718 41.6132C7.47052 41.6041 7.47385 41.5941 7.47718 41.585C7.49469 41.5386 7.46468 41.609 7.47302 41.595C7.48469 41.5742 7.49387 41.5527 7.50554 41.5328C7.51721 41.5137 7.52888 41.4963 7.54222 41.4781C7.56307 41.4483 7.50387 41.5237 7.53973 41.4831C7.5464 41.4756 7.55306 41.4681 7.55973 41.4607C7.57557 41.4441 7.59308 41.4284 7.61059 41.4126C7.63894 41.3869 7.56307 41.4449 7.60226 41.4193C7.61227 41.4126 7.62144 41.406 7.63145 41.4002C7.65063 41.3878 7.6723 41.3795 7.69231 41.3679C7.63561 41.4002 7.65813 41.3811 7.67647 41.3753C7.68898 41.3712 7.70149 41.367 7.71399 41.3637C7.72317 41.3612 7.73317 41.3588 7.74234 41.3571C7.79654 41.3463 7.69565 41.3596 7.73317 41.3579C7.75651 41.3571 7.77987 41.3554 7.80405 41.3571C7.91828 41.3637 8.02666 41.2527 8.02166 41.1408C8.01499 41.0156 7.92494 40.9295 7.80321 40.922Z" fill="#C57207"/>
<path d="M9.34853 39.6133C9.06754 39.4226 8.6523 39.421 8.37547 39.6215C8.08697 39.8304 7.9494 40.1901 8.03111 40.5365C8.05696 40.6467 8.19036 40.723 8.29959 40.6873C8.41549 40.65 8.47969 40.539 8.45218 40.4213C8.45134 40.4196 8.44468 40.379 8.44302 40.379C8.44719 40.413 8.44801 40.418 8.44551 40.394C8.44468 40.389 8.44468 40.3848 8.44468 40.3799C8.44218 40.3509 8.44218 40.3227 8.44384 40.2937C8.44718 40.239 8.44885 40.292 8.44218 40.2945C8.44468 40.2937 8.44884 40.258 8.45051 40.2522C8.45635 40.2241 8.46469 40.1967 8.4747 40.1694C8.47803 40.1602 8.48136 40.1511 8.4847 40.1428C8.48136 40.1511 8.47803 40.1594 8.47386 40.1685C8.47136 40.1652 8.48971 40.1362 8.49304 40.1296C8.50638 40.1039 8.52305 40.0807 8.5389 40.0566C8.56391 40.0185 8.51138 40.0857 8.54056 40.055C8.55057 40.045 8.55974 40.0334 8.56975 40.0235C8.57976 40.0136 8.59059 40.0036 8.60143 39.9937C8.60893 39.987 8.61645 39.9812 8.62395 39.9754C8.6006 39.9928 8.5956 39.997 8.60894 39.9879C8.63478 39.9721 8.65897 39.9555 8.68566 39.9423C8.69233 39.939 8.69899 39.9356 8.70566 39.9323C8.67897 39.9431 8.67314 39.9456 8.68815 39.9398C8.70232 39.9348 8.71649 39.9298 8.73067 39.9249C8.75985 39.9158 8.78905 39.9108 8.81823 39.905C8.83491 39.9025 8.82823 39.9033 8.79738 39.9075C8.80488 39.9066 8.81239 39.9058 8.8199 39.9058C8.8349 39.905 8.84991 39.9042 8.86492 39.9042C8.87993 39.9042 8.89494 39.9042 8.90995 39.9058C8.91995 39.9066 8.96665 39.9174 8.9333 39.9075C8.89828 39.8975 8.9483 39.9108 8.9558 39.9124C8.97081 39.9158 8.98499 39.9191 8.99916 39.9232C9.01334 39.9274 9.02751 39.9332 9.04168 39.9373C9.05669 39.9431 9.05086 39.9406 9.02418 39.929C9.03085 39.9323 9.03752 39.9348 9.04419 39.9381C9.07337 39.9522 9.10089 39.9688 9.1284 39.987C9.22262 40.0508 9.37438 40.0078 9.42608 39.9091C9.48528 39.7997 9.44942 39.682 9.34853 39.6133Z" fill="#C57207"/>
<path d="M45.0384 73.3135C43.0114 72.706 41.1078 71.7248 39.446 70.4195C39.2284 70.2488 38.9182 70.5529 39.1375 70.7261C40.861 72.0795 42.8188 73.1005 44.9216 73.7312C45.191 73.8124 45.306 73.3939 45.0384 73.3135Z" fill="#C57207"/>
<path d="M41.7257 72.5336C41.6657 73.5936 41.4322 74.6321 40.967 75.5909C40.5617 76.4263 40.0164 77.1822 39.4669 77.9289C39.301 78.1543 39.6796 78.3706 39.843 78.1477C40.4217 77.3612 40.9953 76.5639 41.4064 75.6755C41.8667 74.6826 42.0993 73.6234 42.161 72.5345C42.1777 72.2552 41.7416 72.256 41.7257 72.5336Z" fill="#C57207"/>
<path d="M38.5751 69.2886C36.2071 69.7311 34.0725 71.1334 32.7476 73.1348C32.5925 73.3686 32.9702 73.5857 33.1236 73.3536C34.3894 71.4425 36.4339 70.1281 38.691 69.7063C38.9661 69.654 38.8494 69.2372 38.5751 69.2886Z" fill="#C57207"/>
<path d="M54.6159 27.5989C55.0854 31.4751 55.1829 35.3935 54.8986 39.2878C54.8185 40.3851 54.7077 41.4799 54.5684 42.5714C54.5334 42.8473 54.9695 42.8448 55.0045 42.5714C55.4989 38.6977 55.6215 34.7802 55.3613 30.8842C55.288 29.786 55.1837 28.6912 55.052 27.5989C55.0187 27.3255 54.5826 27.3221 54.6159 27.5989Z" fill="#C57207"/>
<path d="M5.49205 44.5833C3.2466 47.387 1.95919 50.8944 1.84746 54.4771C1.73907 57.9372 2.79133 61.379 4.75578 64.2324C5.84641 65.817 7.20219 67.2052 8.76892 68.3298C8.99655 68.4931 9.21418 68.1177 8.98905 67.9561C6.29918 66.0251 4.24466 63.2479 3.15654 60.1342C2.02422 56.8954 2.00421 53.3591 3.0348 50.0913C3.62848 48.2092 4.56401 46.434 5.80055 44.89C5.97232 44.6737 5.66631 44.3654 5.49205 44.5833Z" fill="#C57207"/>
<path d="M41.1003 21.5933C40.8727 25.215 40.6159 29.0348 38.6097 32.1857C37.695 33.6236 36.436 34.7698 34.9243 35.5646C33.4017 36.3652 31.7041 36.8094 29.9998 37.0141C27.7693 37.2818 25.5172 37.1724 23.2801 37.0646C23 37.0514 23.0008 37.484 23.2801 37.4981C27.0923 37.6829 31.0771 37.8395 34.6224 36.1969C36.1958 35.4676 37.5599 34.3886 38.5839 32.9921C39.6028 31.6039 40.2723 29.9771 40.6934 28.3171C41.2504 26.12 41.3938 23.8467 41.5356 21.5933C41.5531 21.3148 41.1178 21.3157 41.1003 21.5933Z" fill="#C57207"/>
<path d="M38.6329 67.073C38.6479 67.0713 38.6629 67.0722 38.6779 67.0738C38.6587 67.0713 38.6395 67.0688 38.6195 67.0664C38.637 67.0688 38.6537 67.073 38.6696 67.0796C38.6521 67.0722 38.6345 67.0647 38.6179 67.0581C38.637 67.0664 38.6546 67.0763 38.6704 67.0887C38.6554 67.0771 38.6412 67.0664 38.6262 67.0548C38.6454 67.0697 38.6612 67.0862 38.6762 67.1053C38.6646 67.0904 38.6537 67.0763 38.642 67.0614C38.6579 67.0821 38.6704 67.1036 38.6804 67.1277C38.6729 67.1103 38.6654 67.0929 38.6587 67.0763C38.6679 67.0987 38.6746 67.1211 38.6779 67.1451C38.6754 67.126 38.6729 67.107 38.6704 67.0871C38.6729 67.1086 38.6737 67.1302 38.6712 67.1525C38.6737 67.1335 38.6762 67.1144 38.6787 67.0945C38.6762 67.1119 38.6721 67.1285 38.6654 67.1443C38.6729 67.1269 38.6804 67.1094 38.6871 67.092C38.6804 67.1086 38.6712 67.1235 38.6604 67.1376C38.6721 67.1227 38.6829 67.1086 38.6946 67.0937C38.6937 67.0954 38.6921 67.097 38.6921 67.097C38.6712 67.1169 38.6562 67.1401 38.6471 67.1666C38.6337 67.1923 38.627 67.2205 38.6279 67.2503C38.6279 67.3034 38.6521 67.3672 38.6921 67.4037C38.7338 67.4418 38.788 67.47 38.8463 67.4675C38.9005 67.465 38.9647 67.4476 39.0006 67.4037C39.0465 67.3473 39.0865 67.2868 39.099 67.213C39.1115 67.1376 39.1123 67.068 39.0923 66.9934C39.0823 66.9586 39.0673 66.9238 39.0515 66.8915C39.0431 66.8741 39.0323 66.8575 39.0206 66.8418C38.9764 66.7821 38.928 66.7299 38.8613 66.6934C38.828 66.6752 38.7921 66.6594 38.7546 66.6511C38.7163 66.6429 38.6746 66.6362 38.6346 66.6395C38.6045 66.6387 38.5762 66.6445 38.5503 66.6578C38.5236 66.6669 38.4995 66.6818 38.4803 66.7025C38.4428 66.7398 38.4144 66.802 38.4161 66.8559C38.4186 66.9122 38.4369 66.9702 38.4803 67.0092C38.5195 67.0465 38.5762 67.078 38.6329 67.073Z" fill="#C57207"/>
<path d="M37.7662 67.8097C37.7712 67.8114 37.7762 67.813 37.782 67.8155C37.7645 67.808 37.747 67.8006 37.7295 67.7939C37.7495 67.8022 37.7679 67.813 37.7854 67.8263C37.7704 67.8147 37.7562 67.8039 37.7412 67.7923C37.7595 67.8064 37.7754 67.823 37.7895 67.8412C37.7779 67.8263 37.767 67.8122 37.7554 67.7973C37.7704 67.8171 37.7829 67.8395 37.7937 67.8627C37.7862 67.8453 37.7787 67.8279 37.772 67.8105C37.7837 67.8395 37.792 67.8685 37.7962 67.8992C37.7937 67.8801 37.7912 67.8611 37.7887 67.842C37.792 67.8694 37.792 67.8959 37.7887 67.9232C37.7912 67.9042 37.7937 67.8851 37.7962 67.866C37.7929 67.8909 37.7862 67.9149 37.777 67.9382C37.7845 67.9207 37.792 67.9033 37.7987 67.8868C37.7904 67.9067 37.7795 67.9249 37.7662 67.9415C37.7779 67.9265 37.7887 67.9125 37.8004 67.8975C37.7937 67.9058 37.7862 67.9141 37.7787 67.9216C37.7395 67.9605 37.7153 68.0194 37.7153 68.0749C37.7153 68.1279 37.7387 68.1918 37.7787 68.2282C37.8204 68.2663 37.8746 68.2945 37.933 68.2912C37.9913 68.2887 38.0455 68.2688 38.0872 68.2282C38.2131 68.1039 38.2498 67.9216 38.2106 67.7533C38.1914 67.6696 38.1481 67.5975 38.0947 67.5312C38.0405 67.4641 37.963 67.4202 37.8821 67.3928C37.8304 67.3754 37.7603 67.3879 37.7145 67.4144C37.6695 67.4409 37.6261 67.4923 37.6144 67.5437C37.6019 67.5992 37.6044 67.6613 37.6361 67.7102C37.6678 67.7591 37.7103 67.7906 37.7662 67.8097Z" fill="#C57207"/>
<path d="M37.3884 66.3333C37.4 66.325 37.4134 66.3184 37.4267 66.3126C37.4092 66.3201 37.3917 66.3275 37.375 66.3341C37.3917 66.3275 37.4084 66.3234 37.4259 66.3201C37.4067 66.3225 37.3875 66.325 37.3683 66.3275C37.3909 66.325 37.4134 66.325 37.4359 66.3275C37.4167 66.325 37.3975 66.3225 37.3784 66.3201C37.3992 66.3234 37.4192 66.3292 37.4392 66.3366C37.4217 66.3292 37.4042 66.3217 37.3875 66.3151C37.405 66.3225 37.4217 66.3325 37.4376 66.3441C37.4226 66.3325 37.4084 66.3217 37.3934 66.3101C37.4075 66.3209 37.4201 66.3333 37.4309 66.3474C37.4192 66.3325 37.4084 66.3184 37.3967 66.3035C37.4067 66.3167 37.4142 66.33 37.4209 66.3449C37.4134 66.3275 37.4059 66.3101 37.3992 66.2935C37.4067 66.3109 37.4117 66.33 37.4142 66.3482C37.4117 66.3292 37.4092 66.3101 37.4067 66.2911C37.4092 66.3118 37.4092 66.3325 37.4059 66.3532C37.4084 66.3341 37.4109 66.3151 37.4134 66.296C37.41 66.3167 37.4042 66.3366 37.3967 66.3565C37.4042 66.3391 37.4117 66.3217 37.4184 66.3051C37.41 66.3242 37.3992 66.3424 37.3867 66.359C37.3984 66.3441 37.4092 66.33 37.4209 66.3151C37.41 66.3292 37.3975 66.3408 37.3834 66.3516C37.3984 66.34 37.4126 66.3292 37.4276 66.3176C37.4176 66.325 37.4067 66.3317 37.395 66.3375C37.3483 66.3607 37.3083 66.4179 37.295 66.4668C37.2808 66.519 37.2875 66.5877 37.3167 66.6333C37.3467 66.6797 37.3917 66.7204 37.4467 66.7328C37.5059 66.746 37.5601 66.7386 37.6143 66.7112C37.626 66.7054 37.6368 66.6988 37.6469 66.6913C37.6702 66.6739 37.6952 66.6565 37.7161 66.635C37.7436 66.6051 37.7711 66.5712 37.7894 66.5339C37.8078 66.4958 37.8261 66.4551 37.8328 66.4137C37.8378 66.3847 37.8428 66.3549 37.8436 66.325C37.8445 66.2944 37.8386 66.2637 37.8345 66.2339C37.8286 66.1916 37.8111 66.151 37.7911 66.1137C37.7811 66.0955 37.7686 66.0797 37.7561 66.0631C37.7427 66.0457 37.7302 66.0292 37.7144 66.0151C37.6827 65.9869 37.6485 65.9604 37.6093 65.943C37.5835 65.9314 37.5551 65.9181 37.5276 65.9107C37.4976 65.9024 37.4667 65.8999 37.4367 65.8957C37.39 65.8899 37.3425 65.8966 37.2966 65.9057C37.275 65.9107 37.255 65.9189 37.2341 65.9281C37.2116 65.9372 37.1899 65.9463 37.1699 65.9596C37.1224 65.9919 37.0857 66.0325 37.0699 66.0888C37.0557 66.141 37.0615 66.2098 37.0915 66.2554C37.1216 66.3018 37.1657 66.3424 37.2216 66.3549C37.275 66.3681 37.34 66.3665 37.3884 66.3333Z" fill="#C57207"/>
<path d="M31.8905 65.746C30.3496 65.3648 28.7937 65.7659 27.292 66.1314C25.8412 66.4845 24.2253 66.8143 22.8019 66.1795C22.5485 66.066 22.3267 66.4389 22.5818 66.5533C25.6286 67.9133 28.6886 65.3996 31.7746 66.1629C32.0472 66.2309 32.1631 65.8132 31.8905 65.746Z" fill="#C57207"/>
<path d="M45.0627 50.7086C45.0727 50.7144 45.0827 50.7193 45.0927 50.726C45.1102 50.7367 45.1311 50.7633 45.0835 50.7177C45.0969 50.7309 45.1119 50.7425 45.1253 50.7566C45.1319 50.7633 45.1369 50.7716 45.1436 50.7782C45.0977 50.7318 45.1227 50.7508 45.1344 50.7682C45.1461 50.7856 45.1561 50.803 45.1653 50.8213C45.1736 50.8387 45.1778 50.866 45.1586 50.8039C45.1611 50.813 45.1653 50.8221 45.1686 50.8312C45.1761 50.8528 45.182 50.8743 45.1861 50.8959C45.1878 50.905 45.1894 50.9149 45.1911 50.924C45.1769 50.8553 45.1861 50.8859 45.1878 50.905C45.1894 50.9257 45.1903 50.9472 45.1895 50.968C45.1886 50.9912 45.1744 51.0625 45.1911 50.9829C45.1869 51.002 45.1845 51.021 45.1795 51.0401C45.1745 51.06 45.1661 51.0799 45.1603 51.0997C45.1553 51.1155 45.1861 51.0434 45.1653 51.0873C45.1611 51.0956 45.1569 51.1047 45.1519 51.113C45.1427 51.1296 45.1311 51.1445 45.1211 51.1611C45.1536 51.1055 45.1428 51.1345 45.1286 51.1503C45.1211 51.1586 45.1136 51.1669 45.1061 51.1743C45.0994 51.181 45.0919 51.1868 45.0852 51.1934C45.0577 51.2183 45.1311 51.1627 45.0986 51.1826C45.0794 51.1942 45.0602 51.2067 45.0394 51.2158C44.936 51.2647 44.9009 51.4196 44.961 51.5116C45.0293 51.6169 45.1486 51.6418 45.2595 51.5895C45.7406 51.3616 45.7431 50.5826 45.282 50.334C45.1819 50.2801 45.0402 50.3058 44.9835 50.4119C44.931 50.513 44.956 50.6506 45.0627 50.7086Z" fill="#C57207"/>
<path d="M43.6954 51.237C43.7054 51.4035 43.7146 51.571 43.7246 51.7384C43.778 51.6687 43.8313 51.5991 43.8847 51.5295C43.7721 51.5627 43.6596 51.5966 43.5479 51.6306C43.4386 51.663 43.3586 51.7839 43.3961 51.8967C43.4319 52.0061 43.547 52.0831 43.6637 52.0475C43.7763 52.0143 43.8889 51.9804 44.0006 51.9472C44.0882 51.9207 44.1665 51.8337 44.1607 51.7384C44.1507 51.5718 44.1415 51.4044 44.1315 51.237C44.1282 51.1798 44.1098 51.1251 44.0681 51.0836C44.0306 51.0463 43.9681 51.0182 43.9139 51.0207C43.8005 51.0256 43.6879 51.116 43.6954 51.237Z" fill="#C57207"/>
<path d="M43.4236 49.7154C43.4336 49.727 43.4436 49.7386 43.4536 49.7502C43.4419 49.7353 43.4311 49.7212 43.4194 49.7063C43.4452 49.7403 43.4661 49.7767 43.4828 49.8165C43.4752 49.7991 43.4678 49.7817 43.4611 49.7651C43.4786 49.8074 43.4903 49.8513 43.4961 49.8969C43.4936 49.8779 43.4911 49.8588 43.4886 49.8397C43.4944 49.8886 43.4944 49.9367 43.4886 49.9856C43.4911 49.9665 43.4936 49.9475 43.4961 49.9284C43.4894 49.974 43.4777 50.0171 43.4594 50.0594C43.4669 50.0419 43.4744 50.0245 43.4811 50.008C43.4652 50.0444 43.4452 50.0784 43.4211 50.1099C43.3894 50.1513 43.386 50.2292 43.3994 50.2765C43.4136 50.327 43.4527 50.3809 43.4994 50.4058C43.5503 50.4323 43.6112 50.4456 43.667 50.4273C43.7246 50.4091 43.7613 50.3751 43.7971 50.3279C43.8913 50.2044 43.9363 50.0345 43.9272 49.8812C43.9172 49.7046 43.8521 49.5414 43.7312 49.4104C43.6537 49.3267 43.5003 49.3267 43.4236 49.4104C43.341 49.4983 43.3402 49.6259 43.4236 49.7154Z" fill="#C57207"/>
<path d="M43.3613 3.17463C43.2837 3.14645 43.197 3.14893 43.117 3.16634C43.0353 3.18374 42.9669 3.22684 42.9027 3.27739C42.8852 3.29148 42.8685 3.30723 42.8535 3.32463C42.8277 3.35613 42.801 3.38845 42.7835 3.42491C42.7493 3.49784 42.7226 3.57823 42.7326 3.66028C42.7318 3.69012 42.7376 3.71746 42.7518 3.74398C42.7609 3.77051 42.776 3.79371 42.7968 3.8136C42.8343 3.8509 42.8969 3.87908 42.951 3.87742C43.0077 3.87493 43.0661 3.8567 43.1053 3.8136C43.142 3.77382 43.1762 3.71581 43.1687 3.66028C43.1662 3.64039 43.1662 3.62133 43.1695 3.60227C43.167 3.62133 43.1645 3.64039 43.162 3.65945C43.1653 3.63873 43.1712 3.61884 43.1787 3.59978C43.1712 3.61718 43.1637 3.63459 43.157 3.65116C43.1662 3.63044 43.1779 3.61138 43.1912 3.59315C43.1795 3.60807 43.1687 3.62216 43.157 3.63708C43.1728 3.61636 43.1912 3.59812 43.2112 3.58238C43.1962 3.59398 43.182 3.60475 43.167 3.61636C43.1879 3.60061 43.2095 3.58735 43.2337 3.57741C43.2162 3.58487 43.1987 3.59232 43.182 3.59895C43.2045 3.58984 43.227 3.58321 43.2512 3.57989C43.232 3.58238 43.2129 3.58486 43.1937 3.58735C43.2145 3.58486 43.2354 3.58486 43.2562 3.58735C43.2371 3.58486 43.2179 3.58238 43.1979 3.57989C43.2145 3.58238 43.2304 3.58652 43.2462 3.59149C43.2754 3.60061 43.3046 3.60144 43.3329 3.59564C43.3621 3.59398 43.3888 3.58569 43.4138 3.56995C43.4588 3.54342 43.5022 3.49204 43.5139 3.44066C43.5264 3.38513 43.5239 3.32298 43.4922 3.27408C43.4805 3.25916 43.4697 3.24507 43.458 3.23015C43.4305 3.2028 43.398 3.18457 43.3613 3.17463Z" fill="#C57207"/>
<path d="M41.6812 2.67392C41.6462 2.64243 41.612 2.61094 41.577 2.58027C41.5244 2.53303 41.4644 2.51149 41.3944 2.5206C41.3218 2.53055 41.2785 2.56784 41.2351 2.6242C41.0475 2.86951 40.9908 3.20102 41.0592 3.49854C41.085 3.60877 41.2184 3.68501 41.3268 3.64938C41.4436 3.61208 41.5061 3.50186 41.4786 3.38335C41.4727 3.35765 41.4677 3.33196 41.4644 3.30544C41.4669 3.3245 41.4694 3.34356 41.4719 3.36345C41.4619 3.28804 41.4627 3.21262 41.4719 3.1372C41.4694 3.15626 41.4669 3.17533 41.4644 3.19439C41.4752 3.11897 41.4953 3.04604 41.5236 2.97642C41.5161 2.99383 41.5086 3.01123 41.5019 3.02781C41.5303 2.96151 41.5661 2.89935 41.6103 2.84216C41.4961 2.85708 41.3819 2.87117 41.2685 2.88609C41.3035 2.91758 41.3377 2.94907 41.3727 2.97974C41.4569 3.05598 41.5986 3.06925 41.6812 2.97974C41.7579 2.89686 41.7712 2.75514 41.6812 2.67392Z" fill="#C57207"/>
<path d="M40.4074 6.7019C40.2231 6.73174 40.0655 6.85771 39.963 7.00772C39.8571 7.1627 39.8237 7.35911 39.8646 7.54144C39.8896 7.65166 40.0247 7.72708 40.1322 7.69227C40.2489 7.65498 40.3107 7.54475 40.284 7.42624C40.2815 7.41381 40.279 7.40138 40.2773 7.38812C40.2798 7.40718 40.2823 7.42624 40.2848 7.4453C40.2798 7.40718 40.2806 7.36906 40.2848 7.33011C40.2823 7.34917 40.2798 7.36823 40.2773 7.38729C40.2831 7.34419 40.2956 7.30193 40.3123 7.26132C40.3048 7.27872 40.2973 7.29613 40.2906 7.31353C40.3081 7.27292 40.3307 7.23563 40.3573 7.19999C40.3457 7.21491 40.3348 7.229 40.3232 7.24391C40.3507 7.20911 40.3815 7.17844 40.4157 7.15109C40.4007 7.16269 40.3865 7.17347 40.3715 7.18507C40.4049 7.16021 40.4399 7.13949 40.4783 7.12374C40.4607 7.1312 40.4432 7.13866 40.4266 7.14529C40.4582 7.13286 40.4899 7.12374 40.5233 7.11794C40.5741 7.10965 40.6283 7.06076 40.6533 7.01849C40.6809 6.97208 40.6925 6.90329 40.675 6.85191C40.6575 6.7997 40.625 6.74914 40.575 6.72262C40.5575 6.71516 40.54 6.7077 40.5233 6.70107C40.4849 6.69196 40.4457 6.69196 40.4074 6.7019Z" fill="#C57207"/>
<path d="M39.0254 6.20683C38.9079 6.14799 38.7753 6.11567 38.6427 6.12893C38.4935 6.14385 38.3634 6.19523 38.2458 6.28971C38.044 6.45215 37.9665 6.73144 38.0207 6.97758C38.0449 7.08864 38.1808 7.16322 38.2883 7.12842C38.4059 7.09029 38.4668 6.9809 38.4401 6.86238C38.4376 6.84912 38.4351 6.83669 38.4334 6.82343C38.4359 6.84249 38.4384 6.86155 38.4409 6.88062C38.4359 6.83752 38.4359 6.79443 38.4418 6.75133C38.4393 6.77039 38.4368 6.78945 38.4343 6.80852C38.4409 6.76542 38.4526 6.72398 38.4693 6.6842C38.4618 6.7016 38.4543 6.71901 38.4476 6.73558C38.4634 6.69912 38.4835 6.66431 38.5076 6.63199C38.496 6.64691 38.4851 6.661 38.4735 6.67591C38.4985 6.64442 38.526 6.61624 38.5577 6.59138C38.5427 6.60298 38.5285 6.61376 38.5135 6.62536C38.5443 6.60215 38.5768 6.58309 38.6119 6.56817C38.5944 6.57563 38.5768 6.58309 38.5602 6.58972C38.6019 6.57232 38.6452 6.56072 38.6902 6.55409C38.6711 6.55657 38.6519 6.55906 38.6327 6.56154C38.6777 6.55574 38.7228 6.55657 38.7678 6.56237C38.7486 6.55989 38.7294 6.5574 38.7094 6.55491C38.7511 6.56072 38.7903 6.57232 38.8295 6.58807C38.812 6.58061 38.7945 6.57315 38.7778 6.56652C38.787 6.57066 38.797 6.5748 38.8061 6.57978C38.9079 6.63033 39.0471 6.60961 39.1046 6.50187C39.1555 6.40491 39.1338 6.26153 39.0254 6.20683Z" fill="#C57207"/>
<path d="M55.7731 72.919C52.3412 70.635 48.333 69.2509 44.2207 68.8971C43.0508 68.7968 41.8743 68.7835 40.702 68.8531C40.4235 68.8697 40.421 69.3031 40.702 69.2866C44.7777 69.0437 48.8992 69.846 52.5805 71.603C53.611 72.0952 54.6033 72.6605 55.5538 73.2928C55.7865 73.4486 56.0049 73.0732 55.7731 72.919Z" fill="#C57207"/>
<path d="M38.4768 72.1854C36.2146 74.9593 34.4495 78.1044 33.2671 81.4767C33.1746 81.7402 33.5956 81.8538 33.6874 81.5919C34.8439 78.2942 36.5732 75.2038 38.7853 72.4912C38.9604 72.2766 38.6535 71.9683 38.4768 72.1854Z" fill="#C57207"/>
<path d="M53.3333 33.1053C50.3575 33.8098 47.1573 33.5123 44.3582 32.284C43.5627 31.9351 42.804 31.5125 42.086 31.0243C41.8993 30.8975 41.6858 31.142 41.7884 31.3202C43.3943 34.1347 46.1867 36.2165 49.331 37.0337C50.2199 37.2649 51.1362 37.3909 52.0543 37.4108C52.3344 37.4166 52.3344 36.984 52.0543 36.9773C48.9233 36.9085 45.8866 35.5104 43.7495 33.2446C43.1366 32.5948 42.6072 31.8755 42.1653 31.1014C42.066 31.2 41.9668 31.2986 41.8676 31.3981C44.4724 33.1708 47.6651 34.0518 50.8169 33.8976C51.7041 33.8546 52.5862 33.7278 53.45 33.523C53.7219 33.4584 53.606 33.0407 53.3333 33.1053Z" fill="#C57207"/>
<path d="M63.2668 26.2375C61.6817 26.2565 60.1383 25.7402 58.8801 24.783C58.6575 24.6139 58.4399 24.9894 58.66 25.1568C59.9749 26.1563 61.6125 26.69 63.2668 26.6701C63.547 26.6668 63.5478 26.2342 63.2668 26.2375Z" fill="#C57207"/>
<path d="M62.7174 27.4474C61.1924 27.6148 59.659 27.2518 58.3766 26.4131C58.1415 26.2598 57.923 26.6344 58.1565 26.7869C59.4948 27.662 61.124 28.0557 62.7166 27.8808C62.9926 27.851 62.9959 27.4176 62.7174 27.4474Z" fill="#C57207"/>
<path d="M11.5417 52.6142C9.43881 53.414 7.02242 53.1314 5.16553 51.8634C4.93373 51.7051 4.71528 52.0805 4.94541 52.2371C6.88735 53.5631 9.45715 53.8681 11.6567 53.0319C11.9169 52.9333 11.8043 52.5148 11.5417 52.6142Z" fill="#C57207"/>
<path d="M11.7908 60.316C9.87058 61.3976 7.57759 61.7283 5.42802 61.2293C5.15537 61.1664 5.03864 61.5832 5.31213 61.647C7.57593 62.1725 9.9873 61.8302 12.011 60.6907C12.2544 60.5522 12.0351 60.1785 11.7908 60.316Z" fill="#C57207"/>
<path d="M17.1239 65.9872C16.5261 67.6074 15.0586 68.8348 13.3618 69.1746C13.0875 69.2293 13.2034 69.647 13.4777 69.5923C15.3288 69.221 16.8963 67.8602 17.5442 66.1024C17.6409 65.8405 17.2198 65.7269 17.1239 65.9872Z" fill="#C57207"/>
<path d="M61.5334 27.292C61.8636 27.292 62.1312 27.0259 62.1312 26.6977C62.1312 26.3696 61.8636 26.1035 61.5334 26.1035C61.2032 26.1035 60.9355 26.3696 60.9355 26.6977C60.9355 27.0259 61.2032 27.292 61.5334 27.292Z" fill="#C57207"/>
<path d="M22.1001 12.6526C22.1001 13.0902 21.7432 13.4449 21.303 13.4449C20.8627 13.4449 20.5059 13.0902 20.5059 12.6526C20.5059 12.2151 20.8627 11.8604 21.303 11.8604C21.7432 11.8604 22.1001 12.2151 22.1001 12.6526Z" fill="url(#paint1_linear_4488_20952)"/>
<path d="M20.505 30.415C21.2261 30.415 21.8107 29.834 21.8107 29.1172C21.8107 28.4004 21.2261 27.8193 20.505 27.8193C19.7838 27.8193 19.1992 28.4004 19.1992 29.1172C19.1992 29.834 19.7838 30.415 20.505 30.415Z" fill="url(#paint2_linear_4488_20952)"/>
<path d="M9.00674 22.7798C8.2955 22.7798 7.99533 21.443 7.9403 20.9283C7.92863 20.8181 7.83525 20.7344 7.72352 20.7344C7.61179 20.7344 7.51923 20.8181 7.50672 20.9283C7.45169 21.443 7.15152 22.7798 6.44028 22.7798C6.32021 22.7798 6.22266 22.8767 6.22266 22.9961C6.22266 23.1154 6.32021 23.2124 6.44028 23.2124C7.15152 23.2124 7.45169 24.5492 7.50672 25.0638C7.51839 25.1741 7.61179 25.2578 7.72352 25.2578C7.83525 25.2578 7.9278 25.1741 7.9403 25.0638C7.99533 24.5483 8.2955 23.2124 9.00674 23.2124C9.12764 23.2124 9.22437 23.1154 9.22437 22.9961C9.22437 22.8767 9.12764 22.7798 9.00674 22.7798Z" fill="url(#paint3_linear_4488_20952)"/>
<path d="M33.2661 16.6807C32.8033 16.6807 32.6082 15.8114 32.5724 15.4766C32.5649 15.4053 32.504 15.3506 32.4315 15.3506C32.3589 15.3506 32.2981 15.4053 32.2906 15.4766C32.2547 15.8114 32.0596 16.6807 31.5968 16.6807C31.5184 16.6807 31.4551 16.7437 31.4551 16.8216C31.4551 16.8995 31.5184 16.9625 31.5968 16.9625C32.0596 16.9625 32.2547 17.8319 32.2906 18.1667C32.2981 18.238 32.3589 18.2927 32.4315 18.2927C32.504 18.2927 32.5649 18.238 32.5724 18.1667C32.6082 17.8319 32.8033 16.9625 33.2661 16.9625C33.3445 16.9625 33.4079 16.8995 33.4079 16.8216C33.4079 16.7437 33.3445 16.6807 33.2661 16.6807Z" fill="url(#paint4_linear_4488_20952)"/>
<path d="M79.8052 48.5128C79.3424 48.5128 79.1473 47.6434 79.1114 47.3086C79.1039 47.2373 79.0431 47.1826 78.9705 47.1826C78.898 47.1826 78.8371 47.2373 78.8296 47.3086C78.7938 47.6434 78.5987 48.5128 78.1359 48.5128C78.0575 48.5128 77.9941 48.5758 77.9941 48.6537C77.9941 48.7316 78.0575 48.7946 78.1359 48.7946C78.5987 48.7946 78.7938 49.6639 78.8296 49.9987C78.8371 50.07 78.898 50.1247 78.9705 50.1247C79.0431 50.1247 79.1039 50.07 79.1114 49.9987C79.1473 49.6639 79.3424 48.7946 79.8052 48.7946C79.8835 48.7946 79.9469 48.7316 79.9469 48.6537C79.9469 48.5758 79.8835 48.5128 79.8052 48.5128Z" fill="url(#paint5_linear_4488_20952)"/>
<path d="M72.86 39.8039C72.5331 39.8039 72.3947 39.189 72.3697 38.9528C72.3639 38.9022 72.3213 38.8633 72.2696 38.8633C72.2188 38.8633 72.1754 38.9022 72.1704 38.9528C72.1446 39.1898 72.007 39.8039 71.6801 39.8039C71.6251 39.8039 71.5801 39.8487 71.5801 39.9034C71.5801 39.9581 71.6251 40.0028 71.6801 40.0028C72.007 40.0028 72.1454 40.6178 72.1704 40.8548C72.1763 40.9054 72.2188 40.9443 72.2696 40.9443C72.3213 40.9443 72.3639 40.9054 72.3697 40.8548C72.3955 40.6178 72.5331 40.0028 72.86 40.0028C72.915 40.0028 72.96 39.9581 72.96 39.9034C72.96 39.8487 72.915 39.8039 72.86 39.8039Z" fill="url(#paint6_linear_4488_20952)"/>
<path d="M71.5333 60.8988C70.5895 60.8988 70.1917 59.1252 70.1184 58.4415C70.1025 58.2956 69.9791 58.1846 69.8307 58.1846C69.6823 58.1846 69.5589 58.2956 69.543 58.4415C69.4697 59.1244 69.0711 60.8988 68.1272 60.8988C67.9671 60.8988 67.8379 61.0272 67.8379 61.1863C67.8379 61.3455 67.9671 61.4739 68.1272 61.4739C69.0711 61.4739 69.4688 63.2483 69.543 63.932C69.5589 64.0779 69.6823 64.189 69.8307 64.189C69.9791 64.189 70.1025 64.0779 70.1184 63.932C70.1917 63.2483 70.5903 61.4739 71.5333 61.4739C71.6934 61.4739 71.8227 61.3455 71.8227 61.1863C71.8227 61.0272 71.6934 60.8988 71.5333 60.8988Z" fill="url(#paint7_linear_4488_20952)"/>
<path d="M18.7031 58.7606C18.7031 58.0735 19.2635 57.5166 19.9547 57.5166C20.6459 57.5166 21.2062 58.0735 21.2062 58.7606C21.2062 59.4476 20.6459 60.0045 19.9547 60.0045C19.2635 60.0045 18.7031 59.4476 18.7031 58.7606Z" fill="url(#paint8_linear_4488_20952)"/>
<path d="M33.7871 60.5712C34.1021 60.5712 34.3574 60.3174 34.3574 60.0044C34.3574 59.6913 34.1021 59.4375 33.7871 59.4375C33.4721 59.4375 33.2168 59.6913 33.2168 60.0044C33.2168 60.3174 33.4721 60.5712 33.7871 60.5712Z" fill="url(#paint9_linear_4488_20952)"/>
</g>
<defs>
<linearGradient id="paint0_linear_4488_20952" x1="36.0492" y1="3.30005" x2="36.3043" y2="77.7316" gradientUnits="userSpaceOnUse">
<stop stop-color="#EBCB76"/>
<stop offset="1" stop-color="#E19256"/>
</linearGradient>
<linearGradient id="paint1_linear_4488_20952" x1="21.2926" y1="11.5127" x2="21.8665" y2="74.4564" gradientUnits="userSpaceOnUse">
<stop stop-color="#EBCB76"/>
<stop offset="1" stop-color="#E19256"/>
</linearGradient>
<linearGradient id="paint2_linear_4488_20952" x1="20.3429" y1="11.5217" x2="20.9169" y2="74.4674" gradientUnits="userSpaceOnUse">
<stop stop-color="#EBCB76"/>
<stop offset="1" stop-color="#E19256"/>
</linearGradient>
<linearGradient id="paint3_linear_4488_20952" x1="7.61928" y1="11.6377" x2="8.19319" y2="74.5845" gradientUnits="userSpaceOnUse">
<stop stop-color="#EBCB76"/>
<stop offset="1" stop-color="#E19256"/>
</linearGradient>
<linearGradient id="paint4_linear_4488_20952" x1="32.3816" y1="11.4119" x2="32.9555" y2="74.3579" gradientUnits="userSpaceOnUse">
<stop stop-color="#EBCB76"/>
<stop offset="1" stop-color="#E19256"/>
</linearGradient>
<linearGradient id="paint5_linear_4488_20952" x1="78.623" y1="10.9893" x2="79.197" y2="73.9354" gradientUnits="userSpaceOnUse">
<stop stop-color="#EBCB76"/>
<stop offset="1" stop-color="#E19256"/>
</linearGradient>
<linearGradient id="paint6_linear_4488_20952" x1="72.0032" y1="11.0501" x2="72.5772" y2="73.9967" gradientUnits="userSpaceOnUse">
<stop stop-color="#EBCB76"/>
<stop offset="1" stop-color="#E19256"/>
</linearGradient>
<linearGradient id="paint7_linear_4488_20952" x1="69.3684" y1="11.0745" x2="69.9423" y2="74.02" gradientUnits="userSpaceOnUse">
<stop stop-color="#EBCB76"/>
<stop offset="1" stop-color="#E19256"/>
</linearGradient>
<linearGradient id="paint8_linear_4488_20952" x1="19.5191" y1="11.5282" x2="20.0931" y2="74.4747" gradientUnits="userSpaceOnUse">
<stop stop-color="#EBCB76"/>
<stop offset="1" stop-color="#E19256"/>
</linearGradient>
<linearGradient id="paint9_linear_4488_20952" x1="33.3388" y1="11.4" x2="33.9128" y2="74.349" gradientUnits="userSpaceOnUse">
<stop stop-color="#EBCB76"/>
<stop offset="1" stop-color="#E19256"/>
</linearGradient>
<clipPath id="clip0_4488_20952">
<rect width="79.9473" height="84" fill="white"/>
</clipPath>
</defs>
</svg>
