<svg width="80" height="84" viewBox="0 0 80 84" fill="none" xmlns="http://www.w3.org/2000/svg">
<path d="M6.57995 50.2824C5.35669 47.7999 5.95365 44.3217 7.45694 41.481C5.11828 41.107 2.94139 40.0269 1.46553 37.8884C-0.618646 34.8687 -0.563773 30.6863 2.17224 28.1292C5.2706 25.2328 9.48057 25.4079 13.3225 25.9917C17.3301 26.6004 25.3546 27.7582 25.9875 21.5875C25.1379 20.2328 24.575 18.5927 24.5201 17.064C24.4444 14.9315 25.2959 12.983 26.6459 11.3896C27.9695 12.2987 29.1473 13.4873 29.8834 14.9584C30.6194 16.4294 30.8796 18.1988 30.4046 19.7833C30.0215 21.0604 29.1189 22.1724 27.9733 22.7284C27.3555 25.1881 25.5911 27.1296 23.2685 28.0824C19.3925 29.6738 15.3329 28.4514 11.3755 28.0168C7.9612 27.6428 2.28955 28.3002 2.14007 33.0824C2.0133 37.1564 5.50238 39.0511 8.89212 39.3147C9.53828 38.525 10.2526 37.8506 11.0113 37.3643C14.7539 34.9682 19.6526 37.0768 24.0017 36.5168C25.6573 36.304 27.4132 36.4253 28.9723 35.8226C28.9969 35.3153 29.101 34.816 29.3715 34.3893C30.0603 33.3022 31.871 32.4429 32.8076 33.3012C31.8956 31.6273 32.2608 29.3038 33.6364 28.0267C35.012 26.7506 37.3837 26.4035 38.8501 27.5622C38.3203 25.8127 39.0857 23.728 40.5956 22.8049C42.1055 21.8819 44.5085 21.7347 45.693 23.0844C44.6126 20.5541 45.6552 17.2778 47.9087 15.8366C50.1622 14.3964 53.3476 14.6938 55.2085 16.6592C55.2312 15.7789 55.7336 14.9583 56.4195 14.4531C57.1054 13.9478 57.9549 13.731 58.7922 13.7012C60.7307 13.6315 62.6796 14.5685 63.899 16.1539C64.6691 17.1555 65.1346 18.4008 65.2557 19.6808C66.268 20.1652 67.2604 20.7093 68.2386 21.2504C71.6851 23.1551 75.1316 25.0598 78.5781 26.9635C78.2527 29.078 78.2272 31.3219 77.9027 33.4365C77.8421 33.8323 77.773 34.2481 77.5365 34.5624C77.3 34.8777 76.8364 35.0428 76.5271 34.8091C76.1458 34.5216 76.2442 33.9189 76.248 33.4255C76.2584 32.049 75.0626 30.8186 73.7532 30.7709C72.4448 30.7231 71.2045 31.7864 70.8971 33.1252C70.5905 34.4639 71.1828 35.9509 72.2528 36.7436C73.3237 37.5363 74.7948 37.6398 75.9992 37.0987C75.704 38.2982 75.5659 39.63 75.2698 40.8295C73.0418 41.9236 70.0276 41.9475 67.8829 40.6535C67.8384 40.8086 67.7855 40.9618 67.7117 41.112C68.4146 42.5443 68.4978 44.2968 67.934 45.7947C67.3701 47.2926 66.1034 48.1828 64.6587 48.7199C65.2169 50.4615 64.8839 52.4885 63.8044 53.9327C62.724 55.3779 60.8281 56.0732 59.0864 55.914C59.4894 57.2249 58.6929 58.8869 57.5689 59.5961C56.4128 59.5931 55.3362 59.1207 54.3921 58.4075C54.0922 63.4562 55.7449 68.6114 58.9001 72.4437C60.3068 72.0687 61.514 72.379 62.7448 73.1867C63.9757 73.9943 64.8735 75.344 65.1724 76.8369C61.8253 76.7941 58.2265 76.8101 54.8793 76.7673C52.2 74.5791 49.9484 71.9762 48.0989 69.0938C46.1746 71.2899 44.4991 73.8093 43.2361 76.3237C41.1103 77.3621 38.4925 78.3517 36.1822 77.935C33.9268 77.5282 31.9306 74.8805 31.9723 72.4755C34.4737 71.8698 37.1151 70.9478 39.4206 69.7602C39.5351 68.0564 40.3459 66.7832 41.3695 65.4574C39.5994 62.7799 38.0753 59.9253 36.7925 56.9564C33.5361 57.0896 30.276 57.1284 27.0225 57.0359C25.0471 60.1193 22.4975 62.7968 19.5079 64.7831C20.7822 66.5714 21.5826 68.7287 21.9336 70.9328C24.7056 71.3207 27.3801 73.864 27.908 76.7504C24.8853 76.6251 21.8787 76.7494 18.8788 77.1642C16.7993 73.869 14.6603 70.5768 12.5818 67.2816C12.5714 65.349 12.5979 63.3906 12.8732 61.4849C10.8779 62.6009 8.77954 63.511 6.61022 64.1624C6.49102 66.6221 6.34532 69.608 6.22612 72.0677C7.43992 71.7912 8.57898 72.6844 9.49098 73.5706C10.403 74.4568 10.8703 75.8234 10.7029 77.1174C7.7209 76.8916 3.55539 77.371 0.573396 77.1452C0.640567 71.5962 0.458922 65.3619 0.383237 59.8477C4.07288 58.5388 5.53266 54.2281 6.57995 50.2824Z" fill="url(#paint0_linear_4488_21949)"/>
<path d="M27.705 22.6511C27.705 22.6511 27.6406 22.6421 27.6756 22.6471C27.7106 22.6531 27.6529 22.6431 27.6463 22.6412C27.6122 22.6342 27.5772 22.6272 27.5432 22.6183C27.4751 22.6014 27.4079 22.5795 27.3426 22.5536C27.3265 22.5476 27.3104 22.5407 27.2934 22.5337C27.2575 22.5198 27.3455 22.5596 27.2849 22.5298C27.2527 22.5138 27.2215 22.4989 27.1903 22.482C27.1279 22.4482 27.0683 22.4104 27.0096 22.3696C26.9803 22.3487 26.9519 22.3278 26.9245 22.306C26.9424 22.3219 26.9434 22.3209 26.9245 22.306C26.9084 22.292 26.8932 22.2781 26.8772 22.2632C26.827 22.2174 26.7788 22.1687 26.7343 22.117C26.7106 22.0901 26.6879 22.0623 26.6652 22.0344C26.652 22.0175 26.6378 21.9976 26.6586 22.0265C26.6482 22.0115 26.6378 21.9966 26.6274 21.9817C26.5848 21.919 26.547 21.8524 26.512 21.7848C26.4505 21.6654 26.283 21.6177 26.1733 21.6913C26.0579 21.7698 26.0191 21.919 26.0843 22.0463C26.4098 22.6799 27.0285 23.0927 27.704 23.1693C27.8327 23.1842 27.9566 23.039 27.9509 22.9097C27.9462 22.7575 27.8431 22.667 27.705 22.6511Z" fill="#C57207"/>
<path d="M9.35225 38.5932C8.16399 39.6903 7.25767 41.0867 6.70233 42.6413C6.59069 42.9546 7.06845 43.0899 7.17914 42.7795C7.70515 41.3085 8.57932 39.9966 9.70229 38.9612C9.94165 38.7394 9.59066 38.3734 9.35225 38.5932Z" fill="#C57207"/>
<path d="M21.5905 45.4987C22.371 51.0516 20.0219 56.723 15.6218 59.8968C14.4638 60.7323 13.197 61.3848 11.8574 61.8294C11.5556 61.9298 11.6842 62.4321 11.9889 62.3307C17.1506 60.6169 21.0843 55.9432 22.0096 50.3266C22.2811 48.6815 22.2981 47.0115 22.0663 45.3604C22.0209 45.0302 21.5441 45.1704 21.5905 45.4987Z" fill="#C57207"/>
<path d="M41.5125 56.4917C38.8087 56.9025 36.0585 57.0178 33.3291 57.0337C30.3518 57.0506 27.3642 56.9273 24.4039 56.5752C22.9886 56.4071 21.5762 56.1833 20.1892 55.8382C19.8799 55.7606 19.7474 56.2619 20.0577 56.3395C22.7218 57.0039 25.4815 57.2665 28.209 57.4236C31.2459 57.5987 34.2969 57.6077 37.3338 57.4266C38.7746 57.3411 40.2145 57.2098 41.6431 56.993C41.9572 56.9452 41.8238 56.4439 41.5125 56.4917Z" fill="#C57207"/>
<path d="M4.12205 60.5295C4.01609 60.2957 3.76633 60.1714 3.52887 60.1634C3.28857 60.1555 3.04165 60.2798 2.92244 60.5036C2.85906 60.622 2.89122 60.7931 3.01137 60.8597C3.12774 60.9243 3.28195 60.8935 3.35006 60.7662C3.35952 60.7473 3.37088 60.7304 3.38317 60.7135C3.36993 60.7314 3.35763 60.7483 3.34439 60.7662C3.36425 60.7413 3.38601 60.7185 3.40966 60.6986C3.39264 60.7125 3.37655 60.7254 3.35953 60.7393C3.38601 60.7185 3.41534 60.7015 3.44656 60.6866C3.42669 60.6956 3.40683 60.7035 3.38791 60.7125C3.42764 60.6956 3.46832 60.6836 3.50995 60.6777C3.48819 60.6807 3.46643 60.6836 3.44467 60.6866C3.49008 60.6807 3.53644 60.6807 3.58185 60.6866C3.56009 60.6836 3.53833 60.6807 3.51657 60.6777C3.55914 60.6836 3.59982 60.6946 3.63956 60.7115C3.61969 60.7026 3.59982 60.6936 3.5809 60.6856C3.61685 60.7016 3.65091 60.7214 3.68213 60.7473C3.6651 60.7334 3.64902 60.7205 3.63199 60.7065C3.65564 60.7264 3.6774 60.7493 3.69632 60.7752C3.68308 60.7573 3.67078 60.7403 3.65753 60.7224C3.67267 60.7443 3.68592 60.7672 3.69727 60.7911C3.72281 60.8468 3.78998 60.8945 3.84485 60.9104C3.90445 60.9273 3.98298 60.9194 4.03501 60.8846C4.15327 60.804 4.18165 60.6618 4.12205 60.5295Z" fill="#C57207"/>
<path d="M2.48119 60.3923C2.38375 60.3405 2.27873 60.3097 2.16899 60.3127C2.05925 60.3157 1.95423 60.3455 1.85774 60.4002C1.66095 60.5126 1.55121 60.7314 1.53797 60.9612C1.53134 61.0855 1.56351 61.2158 1.62217 61.3242C1.65244 61.3809 1.7111 61.4267 1.76975 61.4436C1.82936 61.4605 1.90788 61.4535 1.95991 61.4177C2.07344 61.3401 2.11696 61.189 2.04884 61.0616C2.04127 61.0467 2.0337 61.0318 2.02803 61.0169C2.03654 61.0378 2.04506 61.0587 2.05263 61.0785C2.03938 61.0447 2.03087 61.0109 2.02614 60.9751C2.02897 60.998 2.03181 61.0209 2.03465 61.0437C2.02992 61.0049 2.02992 60.9661 2.03465 60.9274C2.03181 60.9502 2.02897 60.9731 2.02614 60.996C2.03181 60.9572 2.04127 60.9204 2.05546 60.8846C2.04695 60.9055 2.03843 60.9264 2.03086 60.9463C2.04316 60.9154 2.05925 60.8876 2.07817 60.8607C2.06492 60.8786 2.05263 60.8955 2.03938 60.9134C2.05925 60.8876 2.08101 60.8637 2.1056 60.8438C2.08858 60.8577 2.07249 60.8707 2.05546 60.8846C2.0829 60.8627 2.11128 60.8458 2.1425 60.8309C2.12263 60.8398 2.10277 60.8488 2.08385 60.8568C2.1179 60.8418 2.15291 60.8319 2.18886 60.8269C2.1671 60.8299 2.14534 60.8329 2.12358 60.8359C2.15953 60.8309 2.19548 60.8309 2.23238 60.8349C2.21062 60.8319 2.18886 60.8289 2.1671 60.8259C2.20021 60.8309 2.23332 60.8398 2.26454 60.8528C2.24468 60.8438 2.22481 60.8349 2.20494 60.8269C2.2144 60.8309 2.22386 60.8358 2.23332 60.8408C2.29292 60.8726 2.3582 60.8866 2.42348 60.8667C2.48119 60.8498 2.54269 60.803 2.57107 60.7473C2.60134 60.6867 2.61648 60.6141 2.59566 60.5474C2.57485 60.4848 2.53795 60.4221 2.48119 60.3923Z" fill="#C57207"/>
<path d="M3.19861 62.0276C3.12104 61.9033 3.01035 61.8168 2.87601 61.773C2.81924 61.7541 2.7568 61.7452 2.6972 61.7462C2.6376 61.7462 2.57516 61.7541 2.51934 61.775C2.38878 61.8218 2.27431 61.9103 2.20619 62.0386C2.17876 62.0913 2.15416 62.151 2.1447 62.2116C2.13429 62.2753 2.12672 62.338 2.13335 62.4026C2.14375 62.4961 2.16173 62.5707 2.20336 62.6563C2.22322 62.695 2.24971 62.7309 2.27715 62.7647C2.29229 62.7836 2.30932 62.8015 2.32729 62.8164C2.35 62.8412 2.37649 62.8592 2.40676 62.8701C2.43609 62.886 2.46825 62.894 2.50231 62.892C2.56286 62.892 2.63571 62.8641 2.67733 62.8164C2.72085 62.7666 2.75302 62.702 2.74923 62.6324C2.7464 62.5687 2.72747 62.4901 2.67733 62.4484C2.65652 62.4315 2.63854 62.4126 2.62246 62.3917C2.6357 62.4096 2.648 62.4265 2.66125 62.4444C2.64422 62.4215 2.63098 62.3957 2.61962 62.3688C2.62814 62.3897 2.63571 62.4106 2.64422 62.4305C2.63192 62.3986 2.62341 62.3668 2.61868 62.333C2.62152 62.3559 2.62435 62.3787 2.62719 62.4016C2.62246 62.3658 2.62246 62.329 2.62719 62.2932C2.62435 62.3161 2.62152 62.339 2.61868 62.3628C2.62341 62.332 2.63097 62.3012 2.64233 62.2723C2.63381 62.2932 2.6253 62.3141 2.61773 62.335C2.62908 62.3081 2.64233 62.2833 2.65936 62.2594C2.64611 62.2773 2.63381 62.2942 2.62057 62.3121C2.6357 62.2922 2.65179 62.2753 2.67071 62.2604C2.65368 62.2743 2.6376 62.2873 2.62057 62.3012C2.64044 62.2853 2.66219 62.2713 2.68585 62.2614C2.66598 62.2703 2.64611 62.2793 2.62719 62.2873C2.65463 62.2753 2.68301 62.2674 2.71234 62.2624C2.69058 62.2654 2.66882 62.2684 2.64706 62.2713C2.68112 62.2664 2.71518 62.2664 2.74923 62.2713C2.72747 62.2684 2.70571 62.2654 2.68396 62.2624C2.71612 62.2674 2.7464 62.2753 2.77572 62.2883C2.75586 62.2793 2.73599 62.2703 2.71707 62.2624C2.7445 62.2743 2.77005 62.2902 2.7937 62.3091C2.77667 62.2952 2.76059 62.2823 2.74356 62.2683C2.76342 62.2852 2.7814 62.3032 2.79748 62.324C2.78424 62.3061 2.77194 62.2892 2.75869 62.2713C2.76437 62.2783 2.7691 62.2852 2.77383 62.2932C2.80883 62.3499 2.85803 62.3947 2.92142 62.4126C2.98102 62.4295 3.05954 62.4225 3.11158 62.3867C3.16455 62.3509 3.21091 62.2972 3.2251 62.2316C3.2374 62.1619 3.23456 62.0863 3.19861 62.0276Z" fill="#C57207"/>
<path d="M5.92367 71.9416C4.97004 72.3852 4.25008 73.3569 4.07317 74.4371C4.05046 74.5754 4.10817 74.7166 4.2463 74.7564C4.3655 74.7912 4.52728 74.7136 4.54998 74.5754C4.70798 73.6096 5.32008 72.787 6.17248 72.3902C6.29452 72.3335 6.32291 72.1455 6.26141 72.0341C6.18762 71.9028 6.04571 71.8849 5.92367 71.9416Z" fill="#C57207"/>
<path d="M21.7829 70.7622C21.0137 71.525 20.5615 72.5973 20.5256 73.7063C20.5151 74.0405 21.009 74.0405 21.0203 73.7063C21.0516 72.7305 21.4584 71.7986 22.1329 71.1292C22.3647 70.9004 22.0147 70.5324 21.7829 70.7622Z" fill="#C57207"/>
<path d="M19.5115 64.768C18.5635 64.951 17.572 64.7481 16.7499 64.2239C16.4774 64.0499 16.2286 64.4994 16.5001 64.6725C17.4405 65.2723 18.5635 65.4772 19.643 65.2683C19.7745 65.2424 19.8482 65.0753 19.8151 64.949C19.7773 64.8048 19.643 64.7431 19.5115 64.768Z" fill="#C57207"/>
<path d="M14.1107 66.8677C14.1173 66.8647 14.123 66.8618 14.1296 66.8588C14.1098 66.8677 14.0899 66.8767 14.071 66.8846C14.1117 66.8667 14.1542 66.8548 14.1977 66.8488C14.176 66.8518 14.1542 66.8548 14.1325 66.8578C14.1798 66.8518 14.2271 66.8518 14.2744 66.8588C14.2526 66.8558 14.2309 66.8528 14.2091 66.8498C14.2564 66.8568 14.3018 66.8707 14.3453 66.8896C14.3255 66.8806 14.3056 66.8727 14.2867 66.8637C14.3274 66.8826 14.3643 66.9055 14.3993 66.9334C14.3822 66.9194 14.3661 66.9065 14.3491 66.8926C14.3784 66.9175 14.404 66.9443 14.4276 66.9751C14.4144 66.9572 14.4021 66.9403 14.3889 66.9224C14.4182 66.9622 14.4409 67.005 14.4598 67.0507C14.4513 67.0298 14.4428 67.0089 14.4352 66.9891C14.4532 67.0358 14.4645 67.0836 14.4712 67.1333C14.4683 67.1104 14.4655 67.0875 14.4626 67.0647C14.4674 67.1104 14.4683 67.1561 14.4626 67.2029C14.4655 67.18 14.4683 67.1562 14.4712 67.1333C14.4655 67.1761 14.456 67.2178 14.4409 67.2576C14.4191 67.3173 14.4362 67.4048 14.4655 67.4575C14.4958 67.5112 14.5544 67.563 14.6131 67.5769C14.6765 67.5918 14.7474 67.5888 14.8032 67.551C14.86 67.5122 14.8922 67.4625 14.9168 67.3959C14.9962 67.178 14.9631 66.9115 14.8496 66.7135C14.7862 66.6041 14.6982 66.5106 14.5932 66.446C14.4863 66.3803 14.3699 66.3485 14.2479 66.3366C14.1135 66.3236 13.983 66.3604 13.8619 66.4191C13.8089 66.445 13.7635 66.5176 13.7484 66.5743C13.7323 66.637 13.7398 66.7195 13.773 66.7742C13.807 66.8299 13.8581 66.8786 13.9205 66.8936C13.9887 66.9105 14.0473 66.8986 14.1107 66.8677Z" fill="#C57207"/>
<path d="M14.6383 68.4008C14.6421 68.4008 14.6449 68.4018 14.6487 68.4018C14.6269 68.3989 14.6052 68.3959 14.5834 68.3929C14.6146 68.3979 14.6449 68.4068 14.6742 68.4197C14.6544 68.4108 14.6345 68.4018 14.6156 68.3939C14.6449 68.4078 14.6714 68.4247 14.6969 68.4436C14.6799 68.4297 14.6638 68.4168 14.6468 68.4028C14.678 68.4277 14.7045 68.4565 14.7291 68.4893C14.7159 68.4714 14.7036 68.4546 14.6903 68.4367C14.7111 68.4665 14.7291 68.4983 14.7433 68.5331C14.7348 68.5122 14.7272 68.4914 14.7187 68.4715C14.7319 68.5063 14.7414 68.5411 14.7461 68.5779C14.7433 68.555 14.7405 68.5321 14.7376 68.5093C14.7405 68.5391 14.7405 68.5679 14.7376 68.5978C14.7405 68.5749 14.7433 68.552 14.7461 68.5291C14.7414 68.562 14.7338 68.5938 14.7225 68.6236C14.731 68.6027 14.7395 68.5818 14.7471 68.562C14.7329 68.5958 14.7159 68.6266 14.6941 68.6555C14.7073 68.6376 14.7196 68.6207 14.7329 68.6027C14.7111 68.6316 14.6865 68.6565 14.6591 68.6793C14.6761 68.6654 14.6922 68.6525 14.7092 68.6386C14.6809 68.6604 14.6515 68.6793 14.6194 68.6943C14.6392 68.6853 14.6591 68.6764 14.678 68.6684C14.643 68.6843 14.6061 68.6942 14.5683 68.7002C14.59 68.6972 14.6118 68.6942 14.6336 68.6913C14.6023 68.6952 14.5721 68.6942 14.5408 68.6903C14.5626 68.6932 14.5844 68.6962 14.6061 68.6992C14.5995 68.6982 14.5919 68.6972 14.5853 68.6952C14.5191 68.6823 14.4547 68.6843 14.3951 68.7211C14.3441 68.7529 14.2949 68.8146 14.2816 68.8763C14.2542 69.0046 14.3185 69.1687 14.4538 69.1965C14.6014 69.2264 14.7367 69.2065 14.872 69.1408C14.9845 69.0871 15.082 68.9877 15.1463 68.8773C15.2939 68.6236 15.2371 68.3073 15.0536 68.0925C15.0082 68.0398 14.9514 67.993 14.8918 67.9592C14.8076 67.9125 14.73 67.8926 14.6373 67.8816C14.5787 67.8747 14.502 67.9155 14.4623 67.9582C14.4197 68.003 14.3876 68.0776 14.3904 68.1422C14.3933 68.2099 14.4141 68.2795 14.4623 68.3262C14.5143 68.374 14.5692 68.3919 14.6383 68.4008Z" fill="#C57207"/>
<path d="M13.5299 67.6516C13.5497 67.6437 13.5696 67.6377 13.5904 67.6337C13.5687 67.6367 13.5469 67.6397 13.5251 67.6427C13.5507 67.6387 13.5762 67.6397 13.6018 67.6427C13.58 67.6397 13.5583 67.6367 13.5365 67.6337C13.5649 67.6377 13.5914 67.6457 13.6179 67.6566C13.598 67.6477 13.5781 67.6397 13.5583 67.6307C13.5866 67.6437 13.6131 67.6596 13.6377 67.6795C13.6207 67.6655 13.6046 67.6526 13.5876 67.6387C13.6094 67.6576 13.6292 67.6785 13.6472 67.7013C13.6339 67.6834 13.6216 67.6665 13.6084 67.6486C13.6235 67.6705 13.6368 67.6934 13.6472 67.7183C13.6387 67.6974 13.6302 67.6765 13.6226 67.6566C13.6311 67.6795 13.6377 67.7023 13.6406 67.7272C13.6377 67.7043 13.6349 67.6815 13.6321 67.6586C13.6339 67.6815 13.6339 67.7033 13.6321 67.7262C13.6349 67.7033 13.6377 67.6805 13.6406 67.6576C13.6368 67.6824 13.6311 67.7053 13.6216 67.7292C13.6302 67.7083 13.6387 67.6874 13.6462 67.6675C13.6358 67.6924 13.6226 67.7163 13.6075 67.7382C13.6207 67.7203 13.633 67.7033 13.6462 67.6854C13.6283 67.7093 13.6084 67.7302 13.5857 67.7491C13.6027 67.7352 13.6188 67.7222 13.6358 67.7083C13.6112 67.7282 13.5848 67.7441 13.5554 67.757C13.5753 67.7481 13.5952 67.7401 13.6141 67.7312C13.5895 67.7411 13.5649 67.7481 13.5393 67.7531C13.5611 67.7501 13.5829 67.7471 13.6046 67.7441C13.5791 67.7481 13.5535 67.7481 13.527 67.7441C13.5488 67.7471 13.5706 67.7501 13.5923 67.7531C13.5734 67.7501 13.5554 67.7451 13.5374 67.7382C13.4807 67.7163 13.3974 67.7332 13.3473 67.764C13.2962 67.7958 13.247 67.8575 13.2338 67.9192C13.2196 67.9858 13.2224 68.0604 13.2584 68.1191C13.2953 68.1788 13.3426 68.2136 13.4059 68.2385C13.4353 68.2494 13.4637 68.2544 13.4939 68.2583C13.5251 68.2623 13.5554 68.2673 13.5866 68.2643C13.6718 68.2573 13.7371 68.2385 13.8137 68.2007C13.8676 68.1748 13.9187 68.134 13.9613 68.0912C14.0029 68.0495 14.0417 67.9978 14.0663 67.9431C14.1022 67.8645 14.1221 67.7928 14.1259 67.7043C14.1287 67.6297 14.1127 67.5571 14.0852 67.4885C14.036 67.3652 13.9461 67.2577 13.8326 67.1951C13.7541 67.1523 13.6822 67.1314 13.5942 67.1225C13.5706 67.1205 13.5479 67.1205 13.5251 67.1235C13.4816 67.1294 13.4391 67.1334 13.3984 67.1503C13.3359 67.1762 13.2858 67.207 13.2508 67.2697C13.2196 67.3254 13.2063 67.4079 13.2262 67.4696C13.2461 67.5323 13.283 67.5929 13.3397 67.6248C13.3946 67.6556 13.4693 67.6775 13.5299 67.6516Z" fill="#C57207"/>
<path d="M39.578 69.9472C40.8258 70.7896 41.4247 72.4994 41.0132 73.9933C40.9242 74.3156 41.4011 74.4528 41.49 74.1316C41.964 72.4099 41.2591 70.4654 39.8278 69.4986C39.5581 69.3166 39.3103 69.7662 39.578 69.9472Z" fill="#C57207"/>
<path d="M58.5878 72.3139C57.7789 72.5218 57.11 73.225 56.9132 74.0754C56.883 74.2077 56.953 74.3628 57.0864 74.3956C57.2141 74.4265 57.3579 74.3559 57.3901 74.2136C57.4118 74.1211 57.4383 74.0306 57.4714 73.9421C57.4752 73.9311 57.479 73.9212 57.4837 73.9103C57.4724 73.9371 57.4733 73.9371 57.4847 73.9093C57.4941 73.8884 57.5026 73.8675 57.5121 73.8476C57.531 73.8068 57.5518 73.767 57.5736 73.7272C57.6171 73.6487 57.6654 73.5721 57.7174 73.4995C57.6871 73.5423 57.7259 73.4895 57.7325 73.4806C57.7467 73.4627 57.76 73.4458 57.7742 73.4279C57.8054 73.3911 57.8375 73.3543 57.8706 73.3195C57.9009 73.2876 57.9331 73.2558 57.9653 73.226C57.9813 73.211 57.9984 73.1961 58.0144 73.1812C58.022 73.1742 58.0826 73.1245 58.0409 73.1583C58.11 73.1036 58.1819 73.0529 58.2576 73.0071C58.2954 72.9843 58.3333 72.9634 58.3721 72.9425C58.3919 72.9325 58.4109 72.9236 58.4307 72.9136C58.4828 72.8868 58.4014 72.9246 58.4515 72.9037C58.5395 72.8679 58.6284 72.8371 58.7202 72.8142C58.846 72.7823 58.9331 72.6252 58.8924 72.4949C58.8498 72.3577 58.7231 72.2791 58.5878 72.3139Z" fill="#C57207"/>
<path d="M49.3383 69.0937C44.6506 64.4966 41.5825 58.1986 40.6591 51.5376C40.3971 49.6478 40.3195 47.7312 40.4169 45.8245C40.434 45.4903 39.9392 45.4913 39.9221 45.8245C39.573 52.6695 41.5607 59.5931 45.3733 65.1451C46.4433 66.7036 47.6524 68.1518 48.9883 69.4627C49.221 69.6895 49.571 69.3225 49.3383 69.0937Z" fill="#C57207"/>
<path d="M69.0376 25.9157C69.3555 25.9157 69.3564 25.3955 69.0376 25.3955C68.7197 25.3955 68.7188 25.9157 69.0376 25.9157Z" fill="#C57207"/>
<path d="M30.0882 34.7545C26.4525 36.3568 22.3939 36.8322 18.5094 36.128C18.1981 36.0713 18.0647 36.5726 18.3779 36.6293C22.3485 37.3494 26.4998 36.8959 30.2197 35.2557C30.5083 35.1284 30.3815 34.6252 30.0882 34.7545Z" fill="#C57207"/>
<path d="M65.1563 21.246C65.8554 18.5964 64.5092 15.525 62.1232 14.3772C59.7278 13.2254 56.7212 14.2479 55.2557 16.5047C54.5585 17.5779 53.9549 19.5751 55.2718 20.4304C55.7458 20.7378 56.4175 20.8014 56.8697 20.4145C57.4184 19.9451 57.3607 19.1265 57.1138 18.5039C56.5783 17.1522 55.3456 16.1665 54.0523 15.7109C52.6616 15.2206 51.164 15.3579 49.8376 15.9944C46.8878 17.4088 45.4706 20.8313 45.6163 24.1076C45.6494 24.8545 45.6958 25.7338 46.1716 26.3345C46.5917 26.8647 47.3552 27.0914 47.8925 26.616C49.13 25.5189 47.7487 23.7475 46.7752 23.092C45.7071 22.3729 44.3741 22.172 43.1376 22.3948C41.7989 22.6355 40.6372 23.4242 39.8226 24.5581C38.9891 25.7198 38.5558 27.17 38.4972 28.6152C38.4679 29.3323 38.5095 30.1141 38.7176 30.8024C38.8945 31.3892 39.2521 32.0556 39.8633 32.2187C40.4934 32.3868 41.079 31.9253 41.2833 31.3136C41.5369 30.5587 41.2162 29.6993 40.8292 29.0568C40.1358 27.904 38.9532 27.1014 37.6855 26.8398C36.4262 26.5802 35.1264 26.8557 34.1093 27.6932C33.0829 28.5376 32.4272 29.8316 32.2815 31.1873C32.2115 31.8398 32.2749 32.5032 32.467 33.1288C32.5644 33.4461 33.0422 33.3098 32.9438 32.9905C32.2655 30.7924 33.4793 28.1179 35.6174 27.4346C36.6732 27.0964 37.8416 27.2665 38.8103 27.8056C39.7781 28.3437 40.7772 29.4 40.8709 30.6104C40.9172 31.2102 40.4338 32.0586 39.7867 31.621C39.3098 31.2987 39.1471 30.6005 39.0639 30.0514C38.8803 28.8251 39.0071 27.544 39.4253 26.3833C39.834 25.2464 40.5681 24.1991 41.5615 23.5575C42.4848 22.9618 43.6059 22.727 44.6787 22.8593C45.7469 22.9916 46.7998 23.5227 47.4545 24.4398C47.7989 24.9222 48.1697 25.9387 47.4554 26.3017C46.7279 26.6717 46.2927 25.6303 46.1991 25.0674C45.7355 22.2944 46.6021 19.1563 48.7033 17.3461C50.6276 15.6881 53.4582 15.3867 55.4544 17.0905C55.9114 17.4804 56.303 17.9608 56.5736 18.5118C56.8167 19.0061 57.0145 19.9441 56.3153 20.138C55.7553 20.2942 55.2132 19.8585 55.0561 19.3135C54.866 18.656 55.0817 17.915 55.3674 17.3242C56.3551 15.2793 58.7268 14.0668 60.8697 14.4975C63.0768 14.9421 64.7012 17.1343 64.8412 19.4507C64.8753 20.0127 64.8204 20.5667 64.6776 21.1088C64.5943 21.431 65.0711 21.5683 65.1563 21.246Z" fill="#C57207"/>
<path d="M63.5645 25.0985C64.7736 25.6187 65.6912 26.7785 66.0034 28.1063C66.3232 29.4669 65.9183 30.936 65.029 31.9674C64.6194 32.4418 64.0801 32.8974 63.4822 33.0665C63.0375 33.1918 62.0839 33.1003 62.4046 32.3563C62.7736 31.4999 63.8143 31.9585 64.3393 32.3483C64.9022 32.7671 65.3592 33.335 65.6837 33.9726C66.3497 35.2835 66.3611 36.8819 65.7319 38.2117C65.4178 38.8751 64.9533 39.5106 64.3374 39.8896C63.7707 40.2387 63.0224 40.3073 62.5323 39.7742C61.9865 39.1814 62.4302 38.337 63.0659 38.0714C63.7906 37.77 64.6241 38.1341 65.2409 38.5389C66.327 39.252 67.1302 40.4078 67.5039 41.6899C68.3762 44.6857 66.5635 47.9053 63.6875 48.6572C63.3791 48.7378 63.5096 49.2391 63.819 49.1585C65.3317 48.7626 66.642 47.6994 67.4377 46.295C68.2485 44.8637 68.4433 43.145 67.9798 41.5516C67.52 39.9702 66.4509 38.5329 65.0167 37.8168C64.2419 37.4299 63.2674 37.2439 62.5182 37.7959C61.9079 38.2455 61.5645 39.0869 61.9496 39.816C62.3034 40.4854 63.0867 40.7818 63.7821 40.6564C64.6071 40.5082 65.2769 39.8617 65.7527 39.1735C66.7584 37.7193 66.9646 35.7649 66.2929 34.1148C65.9656 33.3101 65.4462 32.595 64.7906 32.0559C64.1634 31.5407 63.2239 31.0494 62.4576 31.5467C61.871 31.9276 61.6071 32.8228 62.1795 33.3499C62.6695 33.8015 63.45 33.6762 63.9931 33.4156C65.4396 32.7223 66.4282 31.13 66.5862 29.4878C66.7452 27.8338 65.9694 26.1827 64.7206 25.195C64.4037 24.9444 64.0602 24.7504 63.6932 24.5933C63.4018 24.4709 63.2741 24.9732 63.5645 25.0985Z" fill="#C57207"/>
<path d="M58.2904 54.6391C59.14 55.5263 59.1362 57.0481 58.385 58.0019C57.5525 59.0582 56.1078 59.3437 54.9035 58.9279C53.5951 58.4764 52.6244 57.3315 52.071 56.0405C51.773 55.3433 51.5857 54.5914 51.475 53.8374C51.3766 53.1651 51.3274 52.1277 52.0776 51.8323C52.7171 51.5806 53.1883 52.4042 53.0965 52.984C52.9906 53.6514 52.4409 54.1468 51.9054 54.4561C50.8174 55.0837 49.4315 55.1046 48.3104 54.5575C47.1912 54.0115 46.4353 52.9184 46.1874 51.6582C46.0663 51.0405 46.0748 50.3891 46.2243 49.7774C46.3407 49.301 46.7692 48.1004 47.3937 48.729C48.0256 49.3656 47.2536 50.2379 46.7333 50.5959C46.0985 51.0316 45.3388 51.2365 44.5829 51.1907C43.126 51.1032 41.8819 49.9793 41.4874 48.5202C41.4003 48.1989 40.9235 48.3352 41.0106 48.6584C41.4382 50.2389 42.7362 51.4732 44.2972 51.6821C45.1174 51.7915 45.9632 51.6294 46.6936 51.2236C47.3482 50.8605 48.0171 50.2468 48.106 49.4293C48.1846 48.7131 47.5952 47.8985 46.8582 48.0597C46.1278 48.2188 45.8251 49.1955 45.6983 49.8649C45.4031 51.4195 45.8743 53.1362 46.9783 54.2333C48.0909 55.3383 49.7598 55.7203 51.2262 55.2995C52.4863 54.9385 54.2876 53.5142 53.3718 51.9556C52.9915 51.3071 52.211 51.0495 51.6017 51.519C50.8912 52.067 50.8666 53.0248 50.9811 53.8613C51.2318 55.6884 51.9593 57.5126 53.387 58.6574C54.667 59.6828 56.4153 59.9872 57.8533 59.1298C59.1589 58.352 59.7984 56.6651 59.2175 55.1782C59.0841 54.836 58.8883 54.5327 58.6395 54.2721C58.4134 54.0364 58.0643 54.4034 58.2904 54.6391Z" fill="#C57207"/>
<path d="M76.864 25.7727C74.0637 24.2599 71.2624 22.748 68.462 21.2352C68.1792 21.083 67.9294 21.5306 68.2123 21.6838C71.0126 23.1966 73.8139 24.7084 76.6143 26.2213C76.8971 26.3734 77.1479 25.9259 76.864 25.7727Z" fill="#C57207"/>
<path d="M76.9751 26.2571C76.4368 27.5581 76.8332 29.1266 77.9165 29.973C78.0243 30.0576 78.1918 29.9909 78.2542 29.8795C78.3289 29.7483 78.2722 29.607 78.1653 29.5235C77.3176 28.861 76.9799 27.5382 77.4009 26.5187C77.4548 26.3894 77.4359 26.2412 77.3119 26.1626C77.2088 26.098 77.0281 26.1288 76.9751 26.2571Z" fill="#C57207"/>
<path d="M41.7309 65.6585C42.3317 65.0846 43.2862 65.2596 43.6874 65.9916C43.8463 66.2811 44.273 66.0205 44.1141 65.7291C43.8596 65.2646 43.4073 64.9105 42.9003 64.82C42.3496 64.7215 41.7943 64.8955 41.3809 65.2904C41.1453 65.5162 41.4953 65.8822 41.7309 65.6585Z" fill="#C57207"/>
<path d="M46.3452 55.578C46.0708 55.4288 45.7302 55.4367 45.4653 55.6108C45.1995 55.7848 45.0405 56.1131 45.0699 56.4433C45.0888 56.6502 45.1579 56.8322 45.2865 56.9903C45.3707 57.0937 45.5505 57.0878 45.6366 56.9903C45.7331 56.8799 45.7264 56.7337 45.6366 56.6223C45.6091 56.5875 45.6706 56.676 45.6337 56.6183C45.6233 56.6024 45.6139 56.5865 45.6053 56.5696C45.5987 56.5567 45.593 56.5437 45.5874 56.5308C45.5685 56.49 45.6082 56.5935 45.5874 56.5268C45.577 56.495 45.5703 56.4622 45.5637 56.4293C45.5543 56.3836 45.5694 56.499 45.5637 56.4274C45.5628 56.4134 45.5618 56.3985 45.5618 56.3846C45.5618 56.3657 45.5618 56.3458 45.5637 56.3269C45.5685 56.2553 45.5543 56.3707 45.5628 56.3249C45.5685 56.2921 45.576 56.2593 45.5855 56.2284C45.5883 56.2195 45.5912 56.2105 45.5949 56.2016C45.6044 56.1757 45.6016 56.1837 45.5855 56.2245C45.593 56.2145 45.5978 56.1976 45.6035 56.1867C45.612 56.1698 45.6224 56.1538 45.6318 56.1379C45.6564 56.0961 45.593 56.1857 45.6299 56.1399C45.6508 56.1141 45.681 56.0932 45.7 56.0673C45.6697 56.1081 45.6668 56.0932 45.6924 56.0743C45.7066 56.0643 45.7217 56.0544 45.7368 56.0454C45.752 56.0365 45.7681 56.0285 45.7832 56.0196C45.8229 55.9987 45.7274 56.0405 45.7728 56.0245C45.804 56.0136 45.8352 56.0026 45.8684 55.9957C45.892 55.9907 45.9365 55.9947 45.8617 55.9947C45.8788 55.9947 45.8967 55.9907 45.9147 55.9907C45.9459 55.9897 45.9762 55.9957 46.0065 55.9937C45.963 55.9867 45.9535 55.9857 45.98 55.9897C45.9885 55.9917 45.997 55.9927 46.0055 55.9947C46.0188 55.9977 46.0311 56.0007 46.0434 56.0046C46.0595 56.0096 46.0765 56.0186 46.0935 56.0225C46.0547 56.0046 46.0472 56.0017 46.0708 56.0126C46.0784 56.0166 46.0869 56.0206 46.0945 56.0255C46.2089 56.0882 46.3679 56.0603 46.4332 55.932C46.4937 55.8137 46.4682 55.6446 46.3452 55.578Z" fill="#C57207"/>
<path d="M44.7534 57.4354C44.5282 57.2713 44.1924 57.2793 43.9662 57.4364C43.8319 57.5299 43.7382 57.6572 43.6853 57.8173C43.6399 57.9536 43.6417 58.1098 43.6739 58.249C43.6909 58.3236 43.7212 58.3992 43.76 58.4639C43.8139 58.5524 43.8764 58.6161 43.9549 58.6787C44.0022 58.7165 44.0911 58.7205 44.1451 58.7046C44.2028 58.6877 44.2643 58.6409 44.2926 58.5852C44.3229 58.5245 44.3381 58.4519 44.3172 58.3853C44.2964 58.3167 44.2576 58.2729 44.2037 58.2301C44.2009 58.2281 44.198 58.2262 44.1961 58.2242C44.2132 58.2381 44.2293 58.251 44.2463 58.2649C44.2179 58.2411 44.1924 58.2142 44.1697 58.1834C44.1829 58.2013 44.1952 58.2182 44.2084 58.2361C44.1848 58.2023 44.1649 58.1665 44.1488 58.1287C44.1574 58.1496 44.1659 58.1704 44.1734 58.1903C44.1555 58.1446 44.1441 58.0978 44.1375 58.0491C44.1403 58.072 44.1432 58.0949 44.146 58.1177C44.1413 58.072 44.1413 58.0272 44.146 57.9825C44.1432 58.0053 44.1403 58.0282 44.1375 58.0511C44.1432 58.0093 44.1526 57.9695 44.1678 57.9307C44.1592 57.9516 44.1507 57.9725 44.1432 57.9934C44.1574 57.9576 44.1753 57.9248 44.1971 57.894C44.1838 57.9119 44.1715 57.9288 44.1583 57.9467C44.181 57.9168 44.2065 57.89 44.2349 57.8661C44.2179 57.88 44.2018 57.893 44.1848 57.9069C44.217 57.882 44.2501 57.8611 44.287 57.8442C44.2671 57.8532 44.2472 57.8621 44.2283 57.8701C44.2718 57.8512 44.3163 57.8382 44.3617 57.8313C44.3399 57.8343 44.3182 57.8373 44.2955 57.8402C44.3418 57.8343 44.3882 57.8343 44.4345 57.8412C44.4128 57.8383 44.391 57.8353 44.3693 57.8323C44.409 57.8392 44.4469 57.8492 44.4828 57.8661C44.4629 57.8571 44.4431 57.8482 44.4232 57.8402C44.4506 57.8532 44.4762 57.8681 44.5008 57.886C44.5509 57.9228 44.6342 57.9287 44.6909 57.9118C44.7486 57.8949 44.8101 57.8482 44.8385 57.7925C44.9085 57.6592 44.8669 57.519 44.7534 57.4354Z" fill="#C57207"/>
<path d="M44.2009 54.6019C43.7752 54.5223 43.323 54.7451 43.1508 55.1738C43.0694 55.3777 43.0562 55.6044 43.112 55.8183C43.1716 56.0451 43.3012 56.229 43.4791 56.3683C43.5832 56.4499 43.7601 56.3892 43.8168 56.2748C43.885 56.1385 43.8395 56.0063 43.7279 55.9197C43.779 55.9595 43.7364 55.9257 43.7251 55.9148C43.7128 55.9028 43.7005 55.8899 43.6891 55.877C43.6797 55.866 43.6607 55.8511 43.656 55.8362C43.6768 55.865 43.6797 55.868 43.6645 55.8452C43.6617 55.8402 43.6579 55.8352 43.6551 55.8302C43.6447 55.8133 43.6021 55.7556 43.6059 55.7357C43.6191 55.7705 43.621 55.7745 43.6106 55.7477C43.6087 55.7417 43.6068 55.7367 43.6049 55.7307C43.5992 55.7138 43.5945 55.6969 43.5898 55.679C43.5851 55.6621 43.5813 55.6442 43.5784 55.6263C43.5765 55.6144 43.5746 55.6025 43.5728 55.5905C43.5737 55.6015 43.5756 55.6124 43.5775 55.6243C43.5671 55.6184 43.5737 55.5288 43.5737 55.5169C43.5737 55.509 43.5709 55.4692 43.5775 55.4632C43.5718 55.503 43.5718 55.508 43.5765 55.4791C43.5775 55.4731 43.5784 55.4672 43.5803 55.4612C43.5841 55.4433 43.5879 55.4264 43.5936 55.4095C43.5964 55.3995 43.6248 55.3389 43.6049 55.3727C43.5851 55.4075 43.6144 55.3548 43.6191 55.3468C43.6276 55.3309 43.6361 55.316 43.6456 55.3011C43.6503 55.2931 43.6551 55.2862 43.6598 55.2792C43.6399 55.3051 43.6361 55.311 43.6475 55.2961C43.6588 55.2832 43.6693 55.2693 43.6816 55.2563C43.6939 55.2434 43.7061 55.2305 43.7184 55.2185C43.7251 55.2126 43.7714 55.1787 43.7393 55.1986C43.7062 55.2195 43.7572 55.1867 43.7629 55.1827C43.7771 55.1728 43.7922 55.1638 43.8074 55.1549C43.8225 55.1459 43.8377 55.1389 43.8537 55.131C43.8708 55.123 43.8641 55.126 43.8339 55.1399C43.8414 55.137 43.85 55.134 43.8585 55.131C43.8906 55.1191 43.9237 55.1101 43.9578 55.1032C43.9663 55.1012 43.9748 55.1002 43.9834 55.0982C43.9483 55.1032 43.9408 55.1041 43.9597 55.1022C43.9767 55.1012 43.9938 55.0992 44.0108 55.0992C44.0278 55.0992 44.0448 55.0992 44.0619 55.1002C44.1272 55.1051 44.0212 55.0912 44.0723 55.1012C44.199 55.125 44.3447 55.0654 44.376 54.9192C44.4006 54.7948 44.3372 54.6277 44.2009 54.6019Z" fill="#C57207"/>
<path d="M28.4142 21.1204C29.3744 19.4067 29.3848 17.2086 28.4425 15.4849C28.2836 15.1945 27.8569 15.4561 28.0159 15.7475C28.872 17.314 28.8597 19.3033 27.9875 20.8589C27.8248 21.1473 28.2524 21.4089 28.4142 21.1204Z" fill="#C57207"/>
<path d="M26.6979 13.7488C26.1965 14.9353 26.0252 16.2214 26.1936 17.5074C26.2116 17.6477 26.3809 17.7213 26.4973 17.6895C26.6402 17.6497 26.6884 17.5084 26.6704 17.3692C26.5219 16.2363 26.6837 15.0557 27.1246 14.0113C27.1794 13.882 27.1596 13.7338 27.0356 13.6562C26.9306 13.5896 26.7518 13.6204 26.6979 13.7488Z" fill="#C57207"/>
<path d="M24.6417 54.4402C24.6568 54.4223 24.6739 54.4054 24.6918 54.3905C24.6748 54.4044 24.6587 54.4173 24.6417 54.4313C24.6701 54.4084 24.7013 54.3885 24.7344 54.3736C24.7146 54.3825 24.6947 54.3915 24.6758 54.3995C24.7127 54.3835 24.7505 54.3726 24.7893 54.3656C24.7675 54.3686 24.7458 54.3716 24.724 54.3746C24.7637 54.3686 24.8025 54.3686 24.8423 54.3736C24.8205 54.3706 24.7988 54.3676 24.777 54.3646C24.8129 54.3696 24.847 54.3795 24.8811 54.3935C24.8612 54.3845 24.8413 54.3756 24.8224 54.3676C24.8527 54.3815 24.8811 54.3984 24.9075 54.4193C24.8905 54.4054 24.8744 54.3925 24.8574 54.3786C24.8858 54.4024 24.9113 54.4283 24.9331 54.4591C24.9198 54.4412 24.9075 54.4243 24.8943 54.4064C24.9161 54.4372 24.934 54.4701 24.9492 54.5049C24.9407 54.484 24.9321 54.4631 24.9246 54.4422C24.9397 54.481 24.9511 54.5208 24.9567 54.5616C24.9539 54.5387 24.9511 54.5158 24.9482 54.4929C24.9539 54.5347 24.9539 54.5755 24.9482 54.6163C24.9511 54.5934 24.9539 54.5705 24.9567 54.5467C24.953 54.5705 24.9482 54.5944 24.9407 54.6173C24.9009 54.7466 24.987 54.9067 25.1128 54.9375C25.2481 54.9704 25.3749 54.8948 25.4165 54.7565C25.5073 54.4562 25.374 54.0991 25.1147 53.9419C24.8546 53.7848 24.4941 53.8385 24.2926 54.0742C24.2491 54.1259 24.2207 54.1876 24.2207 54.2582C24.2207 54.3219 24.2472 54.3985 24.2926 54.4422C24.3863 54.5317 24.549 54.5486 24.6417 54.4402Z" fill="#C57207"/>
<path d="M23.184 53.2148C23.1897 53.2048 23.1963 53.1959 23.202 53.1869C23.1887 53.2048 23.1764 53.2217 23.1632 53.2396C23.1812 53.2148 23.202 53.1939 23.2256 53.175C23.2086 53.1889 23.1925 53.2018 23.1755 53.2158C23.201 53.1959 23.2294 53.179 23.2587 53.1661C23.2389 53.175 23.219 53.184 23.2001 53.1919C23.2322 53.178 23.2663 53.169 23.3013 53.164C23.2795 53.167 23.2578 53.17 23.2351 53.173C23.2673 53.169 23.2994 53.169 23.3306 53.173C23.3089 53.17 23.2871 53.167 23.2654 53.164C23.2947 53.168 23.3231 53.176 23.3505 53.1879C23.3306 53.179 23.3108 53.17 23.2918 53.162C23.3193 53.174 23.3439 53.1899 23.3675 53.2088C23.3505 53.1949 23.3344 53.1819 23.3174 53.168C23.3382 53.1859 23.3571 53.2058 23.3732 53.2277C23.36 53.2098 23.3477 53.1929 23.3344 53.175C23.3543 53.2018 23.3704 53.2307 23.3827 53.2615C23.3742 53.2406 23.3656 53.2198 23.3581 53.1999C23.3713 53.2337 23.3808 53.2685 23.3865 53.3053C23.3836 53.2824 23.3808 53.2595 23.3779 53.2357C23.3827 53.2725 23.3827 53.3083 23.3779 53.3451C23.3808 53.3222 23.3836 53.2993 23.3865 53.2764C23.3817 53.3073 23.3742 53.3361 23.3628 53.365C23.3713 53.3441 23.3798 53.3232 23.3874 53.3033C23.3817 53.3162 23.376 53.3292 23.3694 53.3411C23.3373 53.4008 23.3269 53.4754 23.3448 53.541C23.3609 53.6017 23.4044 53.6663 23.4584 53.6962C23.5757 53.7608 23.7289 53.729 23.7961 53.6027C23.9181 53.3759 23.8916 53.0904 23.7412 52.8856C23.6655 52.7821 23.5605 52.7055 23.4394 52.6717C23.3278 52.6409 23.2001 52.6429 23.0903 52.6817C22.9513 52.7314 22.8358 52.8209 22.7564 52.9522C22.6864 53.0676 22.7299 53.2436 22.8453 53.3083C22.9683 53.3759 23.1093 53.3371 23.184 53.2148Z" fill="#C57207"/>
<path d="M22.7735 54.749C22.7782 54.744 22.7839 54.74 22.7886 54.735C22.7716 54.7489 22.7555 54.7619 22.7385 54.7758C22.7593 54.7589 22.782 54.745 22.8066 54.7341C22.7868 54.743 22.7669 54.752 22.748 54.7599C22.7745 54.749 22.8019 54.741 22.8293 54.737C22.8076 54.74 22.7858 54.743 22.7641 54.746C22.7991 54.741 22.8341 54.742 22.8691 54.746C22.8473 54.743 22.8255 54.74 22.8038 54.737C22.8388 54.743 22.8738 54.7529 22.9069 54.7669C22.887 54.7579 22.8672 54.749 22.8473 54.741C22.8804 54.7559 22.9107 54.7748 22.9391 54.7967C22.922 54.7828 22.906 54.7699 22.8889 54.7559C22.9116 54.7748 22.9315 54.7957 22.9485 54.8186C22.9353 54.8007 22.923 54.7838 22.9097 54.7659C22.9258 54.7877 22.9391 54.8116 22.9495 54.8365C22.941 54.8156 22.9324 54.7947 22.9249 54.7748C22.9315 54.7917 22.9372 54.8096 22.941 54.8275C22.9712 54.9598 23.1207 55.0513 23.2446 55.0086C23.3761 54.9638 23.449 54.8305 23.4168 54.6893C23.3686 54.4744 23.1973 54.3173 23.0025 54.2516C22.9012 54.2178 22.7972 54.2178 22.694 54.2347C22.5909 54.2526 22.5001 54.3083 22.4235 54.3789C22.3781 54.4207 22.3516 54.5003 22.3516 54.563C22.3516 54.6266 22.3781 54.7032 22.4235 54.747C22.4708 54.7927 22.5323 54.8265 22.5985 54.8236C22.6666 54.8216 22.7224 54.7967 22.7735 54.749Z" fill="#C57207"/>
<path d="M75.7303 36.9371C74.7473 37.3509 73.6111 37.3041 72.6849 36.7442C71.7814 36.1971 71.2175 35.1766 71.175 34.0845C71.1324 33.0113 71.6196 32.0197 72.5042 31.4717C73.3273 30.9614 74.385 30.8848 75.2042 31.4428C76.1077 32.0595 76.5789 33.2988 76.2591 34.3879C76.1654 34.7082 76.6423 34.8454 76.7359 34.5261C77.0708 33.3883 76.6792 32.1092 75.8495 31.3155C74.9942 30.4969 73.7738 30.3338 72.7152 30.7873C71.6366 31.2489 70.8637 32.2455 70.7114 33.4659C70.5553 34.7112 71.0198 36.041 71.9536 36.8387C73.0359 37.7637 74.5751 37.9795 75.8646 37.4374C76.1541 37.3161 76.0264 36.8128 75.7303 36.9371Z" fill="#C57207"/>
<path d="M58.1733 43.5769C58.7797 44.0702 59.1534 44.8301 59.1316 45.6437C59.1108 46.4274 58.6974 47.2003 58.0692 47.623C57.4193 48.0606 56.4987 48.1442 55.9093 47.5484C55.3899 47.0232 55.3209 46.142 55.9406 45.6636C56.2338 45.4368 56.6151 45.402 56.9178 45.6288C57.2111 45.8486 57.371 46.2305 57.2556 46.5965C57.1553 46.9148 57.6321 47.0511 57.7324 46.7348C58.0191 45.8247 57.2064 44.849 56.318 44.9634C55.3739 45.0837 54.7797 46.1738 55.0702 47.1028C55.3947 48.1382 56.423 48.6375 57.406 48.4525C58.4268 48.2596 59.2461 47.3863 59.5233 46.3519C59.8298 45.2071 59.4154 43.9349 58.5233 43.2098C58.2745 43.0069 57.9216 43.372 58.1733 43.5769Z" fill="#C57207"/>
<path d="M47.9896 38.93C48.8703 39.9335 48.771 41.515 47.7795 42.3923C47.3103 42.807 46.5534 43.0806 46.0104 42.6578C45.8042 42.4977 45.6528 42.2391 45.684 41.9626C45.7133 41.701 45.8884 41.4404 46.1514 41.4126C46.473 41.3787 46.7597 41.6612 46.8817 41.9487C47.0397 42.3206 47.0189 42.7503 46.9915 43.1472C46.9688 43.4814 47.4626 43.4794 47.4863 43.1472C47.5459 42.2918 47.4049 41.1957 46.474 40.9292C45.6585 40.6964 44.9764 41.6035 45.245 42.4082C45.5402 43.2924 46.5269 43.555 47.3046 43.2645C48.1069 42.9642 48.7294 42.244 48.981 41.3936C49.2724 40.406 49 39.3139 48.3396 38.562C48.123 38.3153 47.7739 38.6843 47.9896 38.93Z" fill="#C57207"/>
<path d="M49.226 31.3905C49.6111 32.2449 49.8457 33.2455 49.5903 34.1784C49.3859 34.9274 48.8486 35.6356 48.0974 35.8076C47.4597 35.9538 46.6575 35.6525 46.3926 34.9881C46.1627 34.4102 46.4664 33.6056 47.0378 33.3927C47.4531 33.2385 47.8996 33.4623 48.1948 33.7697C48.56 34.1506 48.7407 34.6767 48.8921 35.182C48.9876 35.5003 49.4644 35.3641 49.3689 35.0438C49.0671 34.0362 48.4512 32.7661 47.2639 32.8238C46.4049 32.8655 45.7852 33.7677 45.824 34.634C45.8675 35.6077 46.7019 36.2592 47.5723 36.3497C48.5505 36.4512 49.4247 35.7828 49.8523 34.8906C50.4313 33.6821 50.1834 32.3006 49.6546 31.1259C49.5165 30.8266 49.0898 31.0902 49.226 31.3905Z" fill="#C57207"/>
<path d="M58.892 29.023C59.84 30.6552 60.2241 32.9428 59.4256 34.7301C59.0623 35.5447 58.3036 36.2957 57.3888 36.2251C56.6149 36.1654 55.8921 35.4323 56.1674 34.5829C56.3027 34.1662 56.6698 33.8171 57.1106 33.9066C57.5269 33.9921 57.84 34.387 57.788 34.8326C57.7492 35.1638 58.244 35.1608 58.2828 34.8326C58.402 33.8111 57.2468 33.0631 56.4067 33.5177C55.5193 33.9971 55.3869 35.2981 56.0122 36.054C56.7398 36.9322 57.9933 36.9143 58.8514 36.2688C59.8419 35.5249 60.2251 34.2448 60.313 33.0184C60.419 31.5314 60.0567 30.0285 59.3197 28.7594C59.1532 28.4749 58.7255 28.7365 58.892 29.023Z" fill="#C57207"/>
<path d="M66.297 59.2828C67.368 59.2828 67.8192 57.1533 67.9034 56.3337C67.9214 56.1587 68.0614 56.0254 68.2298 56.0254C68.3973 56.0254 68.5383 56.1587 68.5562 56.3337C68.6395 57.1533 69.0917 59.2828 70.1626 59.2828C70.3443 59.2828 70.4909 59.4369 70.4909 59.6279C70.4909 59.8189 70.3443 59.973 70.1626 59.973C69.0917 59.973 68.6404 62.1025 68.5562 62.9231C68.5383 63.0982 68.3982 63.2314 68.2298 63.2314C68.0614 63.2314 67.9214 63.0982 67.9034 62.9231C67.8202 62.1025 67.368 59.973 66.297 59.973C66.1154 59.973 65.9688 59.8189 65.9688 59.6279C65.9688 59.4369 66.1154 59.2828 66.297 59.2828Z" fill="url(#paint1_linear_4488_21949)"/>
<path d="M53.7839 5.42827C54.2578 5.42827 54.6419 5.02439 54.6419 4.52616C54.6419 4.02793 54.2578 3.62402 53.7839 3.62402C53.31 3.62402 52.9258 4.02793 52.9258 4.52616C52.9258 5.02439 53.31 5.42827 53.7839 5.42827Z" fill="url(#paint2_linear_4488_21949)"/>
<path d="M32.4711 64.0957C32.7209 64.5503 32.5724 65.1321 32.14 65.3947C31.7077 65.6573 31.1542 65.5011 30.9045 65.0466C30.6547 64.592 30.8032 64.0102 31.2356 63.7476C31.6679 63.485 32.2214 63.6412 32.4711 64.0957Z" fill="url(#paint3_linear_4488_21949)"/>
<path d="M41.6272 13.8556C42.0331 14.162 42.1258 14.7557 41.8344 15.1824C41.543 15.6091 40.9782 15.7066 40.5724 15.4003C40.1665 15.0939 40.0738 14.5001 40.3652 14.0734C40.6566 13.6477 41.2214 13.5503 41.6272 13.8556Z" fill="url(#paint4_linear_4488_21949)"/>
<path d="M19.5116 18.5114C19.6223 18.0599 19.3641 17.6003 18.9345 17.484C18.505 17.3676 18.0679 17.6391 17.9573 18.0907C17.8466 18.5423 18.1048 19.0018 18.5344 19.1181C18.9639 19.2345 19.4009 18.963 19.5116 18.5114Z" fill="url(#paint5_linear_4488_21949)"/>
<path d="M22.3875 2.45472C23.1945 2.45472 23.5351 0.850382 23.5976 0.23272C23.6108 0.100435 23.7168 0 23.8435 0C23.9703 0 24.0753 0.100435 24.0895 0.23272C24.152 0.850382 24.4925 2.45472 25.2995 2.45472C25.4367 2.45472 25.5464 2.57111 25.5464 2.71433C25.5464 2.85855 25.4358 2.97392 25.2995 2.97392C24.4925 2.97392 24.152 4.57825 24.0895 5.19592C24.0763 5.3282 23.9703 5.42864 23.8435 5.42864C23.7168 5.42864 23.6118 5.3282 23.5976 5.19592C23.5351 4.57726 23.1945 2.97392 22.3875 2.97392C22.2513 2.97392 22.1406 2.85756 22.1406 2.71433C22.1406 2.57111 22.2513 2.45472 22.3875 2.45472Z" fill="url(#paint6_linear_4488_21949)"/>
<path d="M79.84 47.8678C79.3149 47.8678 79.0936 46.8245 79.0529 46.4226C79.0444 46.3371 78.9753 46.2715 78.893 46.2715C78.8107 46.2715 78.7416 46.3371 78.7331 46.4226C78.6924 46.8245 78.4711 47.8678 77.946 47.8678C77.8571 47.8678 77.7852 47.9434 77.7852 48.0369C77.7852 48.1304 77.8571 48.206 77.946 48.206C78.4711 48.206 78.6924 49.2494 78.7331 49.6512C78.7416 49.7367 78.8107 49.8024 78.893 49.8024C78.9753 49.8024 79.0444 49.7367 79.0529 49.6512C79.0936 49.2494 79.3149 48.206 79.84 48.206C79.9289 48.206 80.0008 48.1304 80.0008 48.0369C80.0008 47.9434 79.9289 47.8678 79.84 47.8678Z" fill="url(#paint7_linear_4488_21949)"/>
<path d="M8.8821 32.6862C8.8821 32.3102 8.59261 32.0059 8.235 32.0059C7.87739 32.0059 7.58789 32.3102 7.58789 32.6862C7.58789 33.0621 7.87739 33.3665 8.235 33.3665C8.59166 33.3665 8.8821 33.0621 8.8821 32.6862Z" fill="url(#paint8_linear_4488_21949)"/>
<path d="M48.9817 79.3961C48.9817 79.0202 48.6922 78.7158 48.3346 78.7158C47.977 78.7158 47.6875 79.0202 47.6875 79.3961C47.6875 79.7721 47.977 80.0765 48.3346 80.0765C48.6922 80.0765 48.9817 79.7721 48.9817 79.3961Z" fill="url(#paint9_linear_4488_21949)"/>
<defs>
<linearGradient id="paint0_linear_4488_21949" x1="39.6417" y1="12.6989" x2="38.5083" y2="63.3667" gradientUnits="userSpaceOnUse">
<stop stop-color="#EBCB76"/>
<stop offset="1" stop-color="#E19256"/>
</linearGradient>
<linearGradient id="paint1_linear_4488_21949" x1="68.7702" y1="0.6373" x2="67.9202" y2="84.4971" gradientUnits="userSpaceOnUse">
<stop stop-color="#EBCB76"/>
<stop offset="0.0634" stop-color="#EBC774"/>
<stop offset="1" stop-color="#E19256"/>
</linearGradient>
<linearGradient id="paint2_linear_4488_21949" x1="53.8211" y1="0.485496" x2="52.9711" y2="84.3434" gradientUnits="userSpaceOnUse">
<stop stop-color="#EBCB76"/>
<stop offset="1" stop-color="#E19256"/>
</linearGradient>
<linearGradient id="paint3_linear_4488_21949" x1="32.2776" y1="0.267543" x2="31.4275" y2="84.1271" gradientUnits="userSpaceOnUse">
<stop stop-color="#EBCB76"/>
<stop offset="1" stop-color="#E19256"/>
</linearGradient>
<linearGradient id="paint4_linear_4488_21949" x1="41.2307" y1="0.357899" x2="40.3807" y2="84.216" gradientUnits="userSpaceOnUse">
<stop stop-color="#EBCB76"/>
<stop offset="1" stop-color="#E19256"/>
</linearGradient>
<linearGradient id="paint5_linear_4488_21949" x1="18.9013" y1="0.131107" x2="18.0513" y2="83.9913" gradientUnits="userSpaceOnUse">
<stop stop-color="#EBCB76"/>
<stop offset="1" stop-color="#E19256"/>
</linearGradient>
<linearGradient id="paint6_linear_4488_21949" x1="23.8665" y1="0.182214" x2="23.0165" y2="84.0402" gradientUnits="userSpaceOnUse">
<stop stop-color="#EBCB76"/>
<stop offset="1" stop-color="#E19256"/>
</linearGradient>
<linearGradient id="paint7_linear_4488_21949" x1="79.3271" y1="0.743774" x2="78.4771" y2="84.603" gradientUnits="userSpaceOnUse">
<stop stop-color="#EBCB76"/>
<stop offset="1" stop-color="#E19256"/>
</linearGradient>
<linearGradient id="paint8_linear_4488_21949" x1="8.53433" y1="0.0270536" x2="7.68429" y2="83.8852" gradientUnits="userSpaceOnUse">
<stop stop-color="#EBCB76"/>
<stop offset="1" stop-color="#E19256"/>
</linearGradient>
<linearGradient id="paint9_linear_4488_21949" x1="49.0589" y1="0.43917" x2="48.2089" y2="84.2971" gradientUnits="userSpaceOnUse">
<stop stop-color="#EBCB76"/>
<stop offset="1" stop-color="#E19256"/>
</linearGradient>
</defs>
</svg>
