<svg width="80" height="84" viewBox="0 0 80 84" fill="none" xmlns="http://www.w3.org/2000/svg">
<path d="M62.8638 25.1879C59.4205 32.5057 55.9771 39.8235 52.5328 47.1413C51.557 49.2161 50.5803 51.2908 49.6036 53.3655C49.4676 53.6554 49.9143 53.909 50.0513 53.6172C53.4946 46.2994 56.938 38.9816 60.3823 31.6638C61.358 29.589 62.3347 27.5143 63.3115 25.4396C63.4484 25.1497 63.0018 24.8961 62.8638 25.1879Z" fill="#C57207"/>
<path d="M62.8638 25.1879C61.1962 28.731 59.5296 32.2731 57.8621 35.8162C56.1329 39.4908 54.4038 43.1664 52.6737 46.841C51.6504 49.0159 50.627 51.1907 49.6036 53.3646C49.4676 53.6545 49.9143 53.9081 50.0513 53.6163C51.8399 49.8139 53.6296 46.0125 55.4183 42.2101C57.1136 38.6069 58.809 35.0038 60.5044 31.4007C61.4394 29.4136 62.3745 27.4266 63.3095 25.4387C63.4485 25.1498 63.0018 24.8961 62.8638 25.1879Z" fill="#C57207"/>
<path d="M61.3404 25.1879C59.6728 28.731 58.0062 32.2731 56.3386 35.8162C54.6095 39.4908 52.8804 43.1664 51.1503 46.841C50.1269 49.0159 49.1035 51.1907 48.0801 53.3646C47.9442 53.6545 48.3908 53.9081 48.5278 53.6163C50.3165 49.8139 52.1062 46.0125 53.8948 42.2101C55.5902 38.6069 57.2856 35.0038 58.981 31.4007C59.916 29.4136 60.851 27.4266 61.7861 25.4387C61.925 25.1498 61.4783 24.8961 61.3404 25.1879Z" fill="#C57207"/>
<path d="M62.8638 25.1879C61.1962 28.731 59.5296 32.2731 57.8621 35.8162C56.1329 39.4908 54.4038 43.1664 52.6737 46.841C51.6504 49.0159 50.627 51.1907 49.6036 53.3646C49.4676 53.6545 49.9143 53.9081 50.0513 53.6163C51.8399 49.8139 53.6296 46.0125 55.4183 42.2101C57.1136 38.6069 58.809 35.0038 60.5044 31.4007C61.4394 29.4136 62.3745 27.4266 63.3095 25.4387C63.4485 25.1498 63.0018 24.8961 62.8638 25.1879Z" fill="url(#paint0_linear_4488_22272)"/>
<path d="M62.9754 24.7708C65.575 32.3337 68.1746 39.8975 70.7743 47.4604C71.5058 49.5875 72.2364 51.7147 72.9679 53.8419C73.0721 54.1451 73.5734 54.0154 73.4682 53.7094C70.8686 46.1465 68.2689 38.5827 65.6693 31.0198C64.9377 28.8927 64.2072 26.7655 63.4756 24.6383C63.3714 24.3351 62.8701 24.4648 62.9754 24.7708Z" fill="#C57207"/>
<path d="M62.9754 24.7708C64.3114 28.6572 65.6465 32.5435 66.9825 36.4298C68.2669 40.1664 69.5514 43.904 70.8358 47.6406C71.5465 49.7077 72.2572 51.7748 72.9669 53.8419C73.0711 54.1451 73.5724 54.0154 73.4672 53.7094C72.2016 50.0281 70.9371 46.3477 69.6715 42.6664C68.3672 38.8726 67.0629 35.0778 65.7596 31.2839C64.9983 29.0681 64.237 26.8532 63.4756 24.6383C63.3714 24.3351 62.8701 24.4648 62.9754 24.7708Z" fill="#C57207"/>
<path d="M61.4519 24.7708C62.788 28.6572 64.123 32.5435 65.4591 36.4298C66.7435 40.1664 68.028 43.904 69.3124 47.6406C70.0231 49.7077 70.7338 51.7748 71.4435 53.8419C71.5477 54.1451 72.049 54.0154 71.9438 53.7094C70.6782 50.0281 69.4136 46.3477 68.1481 42.6664C66.8438 38.8726 65.5395 35.0778 64.2362 31.2839C63.4749 29.0681 62.7135 26.8532 61.9522 24.6383C61.848 24.3351 61.3467 24.4648 61.4519 24.7708Z" fill="#C57207"/>
<path d="M62.9754 24.7708C64.3114 28.6572 65.6465 32.5435 66.9825 36.4298C68.2669 40.1664 69.5514 43.904 70.8358 47.6406C71.5465 49.7077 72.2572 51.7748 72.9669 53.8419C73.0711 54.1451 73.5724 54.0154 73.4672 53.7094C72.2016 50.0281 70.9371 46.3477 69.6715 42.6664C68.3672 38.8726 67.0629 35.0778 65.7596 31.2839C64.9983 29.0681 64.237 26.8532 63.4756 24.6383C63.3714 24.3351 62.8701 24.4648 62.9754 24.7708Z" fill="url(#paint1_linear_4488_22272)"/>
<path d="M17.2712 24.5462C15.6464 28.5002 14.0214 32.4533 12.3965 36.4063C10.7717 40.3603 9.14678 44.3134 7.52188 48.2664C6.60273 50.5033 5.68256 52.741 4.76341 54.9779C4.64032 55.2763 5.14258 55.406 5.26368 55.1104C6.88857 51.1573 8.51348 47.2033 10.1384 43.2503C11.7633 39.2972 13.3882 35.3432 15.0131 31.3902C15.9322 29.1533 16.8524 26.9156 17.7715 24.6787C17.8946 24.3813 17.3923 24.2516 17.2712 24.5462Z" fill="#C57207"/>
<path d="M17.2722 26.0103C15.692 29.8556 14.1108 33.7009 12.5305 37.5462C10.8947 41.5269 9.2579 45.5067 7.62209 49.4874C6.66918 51.8062 5.71631 54.1241 4.76341 56.4429C4.64032 56.7413 5.14258 56.871 5.26368 56.5754C6.94118 52.4936 8.61866 48.4128 10.2962 44.332C11.9052 40.4181 13.5142 36.5031 15.1232 32.5892C16.0066 30.441 16.8891 28.2919 17.7725 26.1438C17.8956 25.8444 17.3933 25.7157 17.2722 26.0103Z" fill="url(#paint2_linear_4488_22272)"/>
<path d="M17.2722 24.5471C15.692 28.3925 14.1108 32.2378 12.5305 36.0831C10.8947 40.0638 9.2579 44.0435 7.62209 48.0242C6.66918 50.3421 5.71631 52.6609 4.76341 54.9797C4.64032 55.2782 5.14258 55.4078 5.26368 55.1123C6.94118 51.0315 8.61866 46.9497 10.2962 42.8689C11.9052 38.9549 13.5142 35.04 15.1232 31.126C16.0066 28.9779 16.8891 26.8288 17.7725 24.6806C17.8956 24.3822 17.3933 24.2525 17.2722 24.5471Z" fill="#C57207"/>
<path d="M19.529 24.9964C21.0785 28.7616 22.5684 32.5497 23.9967 36.3588C25.432 40.187 26.8048 44.0371 28.1151 47.9072C28.8516 50.083 29.5682 52.2645 30.265 54.4517C30.3623 54.7578 30.8636 54.6271 30.7653 54.3192C29.5315 50.4472 28.2372 46.5942 26.8793 42.7613C25.5154 38.9093 24.0881 35.0774 22.5991 31.2673C21.7624 29.1258 20.9058 26.991 20.0293 24.8639C19.9082 24.5692 19.4059 24.698 19.529 24.9964Z" fill="#C57207"/>
<path d="M18.0053 24.9964C19.6014 28.8741 21.137 32.7748 22.6051 36.6983C24.0185 40.4768 25.3695 44.2773 26.6579 48.0969C27.3706 50.2097 28.0644 52.3283 28.7413 54.4517C28.8386 54.7578 29.3399 54.6271 29.2416 54.3192C28.0406 50.5482 26.7839 46.7945 25.4658 43.0597C24.1029 39.1973 22.6746 35.3567 21.1837 31.5381C20.3121 29.306 19.4188 27.0816 18.5066 24.8639C18.3845 24.5692 17.8832 24.698 18.0053 24.9964Z" fill="#C57207"/>
<path d="M19.529 24.9964C21.1251 28.8741 22.6607 32.7748 24.1288 36.6983C25.5422 40.4768 26.8932 44.2773 28.1816 48.0969C28.8942 50.2097 29.5881 52.3283 30.265 54.4517C30.3623 54.7578 30.8636 54.6271 30.7653 54.3192C29.5643 50.5482 28.3076 46.7945 26.9894 43.0597C25.6266 39.1973 24.1982 35.3567 22.7074 31.5381C21.8358 29.306 20.9425 27.0816 20.0303 24.8639C19.9082 24.5692 19.4059 24.698 19.529 24.9964Z" fill="#C57207"/>
<path d="M19.529 24.9964C21.1251 28.8741 22.6607 32.7748 24.1288 36.6983C25.5422 40.4768 26.8932 44.2773 28.1816 48.0969C28.8942 50.2097 29.5881 52.3283 30.265 54.4517C30.3623 54.7578 30.8636 54.6271 30.7653 54.3192C29.5643 50.5482 28.3076 46.7945 26.9894 43.0597C25.6266 39.1973 24.1982 35.3567 22.7074 31.5381C21.8358 29.306 20.9425 27.0816 20.0303 24.8639C19.9082 24.5692 19.4059 24.698 19.529 24.9964Z" fill="url(#paint3_linear_4488_22272)"/>
<path d="M74.4084 23.4962L74.2367 23.3913C73.4118 22.948 72.2445 23.2473 71.7601 24.0273C71.6986 24.1264 71.6837 24.2418 71.646 24.3505C61.8479 24.3524 52.0499 24.3543 42.2509 24.3562C42.1815 23.4514 42.0683 22.5504 41.8658 21.6646C41.7814 21.2975 41.6832 20.9247 41.4638 20.6139C41.2444 20.3031 40.8802 20.0618 40.4891 20.079C40.0632 20.0971 39.7029 20.4184 39.5252 20.7903C39.3476 21.1631 39.3178 21.5826 39.291 21.9907C39.2384 22.7801 39.1868 23.5687 39.1341 24.3572C29.9525 24.3591 20.77 24.361 11.5884 24.3629C11.4692 24.0225 11.2806 23.7059 10.9749 23.4971L10.8032 23.3923C9.97833 22.9489 8.81103 23.2483 8.32664 24.0282C7.84225 24.8082 8.12215 25.937 8.92021 26.4233C9.71826 26.9096 10.9005 26.6722 11.4295 25.9189C11.6628 25.5871 11.7283 25.18 11.6886 24.7824C21.3794 26.9458 30.156 28.1558 39.56 28.2997C39.5193 28.6277 39.4776 28.9529 39.4746 29.3314C39.3833 39.9139 39.292 50.4963 39.2007 61.0779C39.1679 64.9193 38.7858 69.4082 35.4317 71.502C34.4282 72.1285 33.249 72.4612 32.2514 73.0962C31.2539 73.7322 30.4191 74.8449 30.6851 75.9652C31.0831 77.6395 33.3711 77.9875 35.1588 77.9799C39.9173 77.9589 44.6759 77.9389 49.4344 77.9179C50.6682 77.9122 51.9606 77.8941 53.0445 77.3267C54.1285 76.7604 54.9017 75.4551 54.4114 74.3672C53.6689 72.7196 51.1556 73.0162 49.4781 72.2248C47.343 71.2179 46.8229 68.573 46.5618 66.3019C45.1086 53.6361 43.6555 40.9703 42.2023 28.3054C46.7474 28.2816 51.4574 28.0471 56.5554 27.5389C60.1556 27.1794 67.5733 26.2288 71.5547 25.0198C71.5954 25.5757 71.8594 26.1211 72.3507 26.4214C73.1488 26.9077 74.331 26.6703 74.86 25.917C75.3921 25.1666 75.1777 24.0244 74.4084 23.4962Z" fill="url(#paint4_linear_4488_22272)"/>
<path d="M11.8369 24.5125C12.0007 23.5628 11.3287 22.6341 10.3768 22.3672C9.4269 22.1012 8.44022 22.6542 8.02035 23.477C7.57467 24.3504 7.81489 25.3649 8.56927 26.0056C9.27799 26.6091 10.5307 26.9257 11.3158 26.263C11.7198 25.9217 11.8528 25.2447 11.4449 24.8557C11.0905 24.5192 10.4493 24.562 10.1862 24.9758C10.0115 25.2504 10.4602 25.5012 10.6339 25.2276C10.7669 25.0188 11.1004 25.1494 11.16 25.3477C11.2602 25.6862 10.9505 25.9703 10.6448 26.0638C9.97977 26.2688 9.23433 25.976 8.77674 25.5031C8.30327 25.013 8.16132 24.3084 8.48094 23.7039C8.77475 23.1471 9.40206 22.699 10.079 22.8096C10.8106 22.9297 11.4637 23.6467 11.3376 24.379C11.2831 24.6936 11.7823 24.829 11.8369 24.5125Z" fill="#C57207"/>
<path d="M72.4644 22.9473C71.6158 23.3143 71.0351 24.2001 71.0698 25.0964C71.1046 25.9859 71.724 26.8011 72.5806 27.1301C73.3995 27.4447 74.4378 27.2455 74.9906 26.5618C75.5118 25.9173 75.4661 24.8714 74.7822 24.345C74.0605 23.7901 72.8794 24.0819 72.5627 24.9228C72.4496 25.2251 72.9508 25.3548 73.063 25.0554C73.2466 24.5653 73.9861 24.4165 74.4099 24.6978C74.9122 25.0306 74.942 25.7886 74.6005 26.2358C74.1946 26.7668 73.3846 26.8994 72.7702 26.6696C72.1478 26.436 71.6684 25.8439 71.5959 25.2051C71.5086 24.4318 72.0009 23.691 72.7255 23.3773C73.0302 23.2466 72.7662 22.8166 72.4644 22.9473Z" fill="#C57207"/>
<path d="M15.8345 24.9091C22.1723 24.8471 28.5101 24.7851 34.8479 24.7241C41.1857 24.6621 47.5234 24.6001 53.8612 24.5391C57.4396 24.5048 61.0179 24.4695 64.5963 24.4342C64.9298 24.4314 64.9308 23.9327 64.5963 23.9356C58.2585 23.9975 51.9207 24.0595 45.5829 24.1205C39.2451 24.1825 32.9073 24.2445 26.5695 24.3055C22.9912 24.3408 19.4128 24.3751 15.8345 24.4104C15.501 24.4142 15.5 24.9129 15.8345 24.9091Z" fill="#C57207"/>
<path d="M26.1433 27.4633C30.2596 28.2862 34.4445 28.7877 38.6452 28.9545C42.8429 29.1214 47.0555 28.9584 51.2255 28.4645C53.57 28.186 55.9007 27.8056 58.2085 27.3232C58.534 27.2545 58.3971 26.774 58.0705 26.8426C54.0068 27.6931 49.8745 28.2232 45.7215 28.4254C41.5664 28.6275 37.3945 28.5055 33.2603 28.0592C30.9178 27.8066 28.5891 27.4443 26.2813 26.9838C25.9557 26.918 25.8167 27.3975 26.1433 27.4633Z" fill="#C57207"/>
<path d="M39.1964 32.7565C39.0574 40.101 38.9174 47.4446 38.7784 54.7891C38.7437 56.615 38.709 58.4399 38.6742 60.2658C38.6405 62.0211 38.6762 63.7974 38.438 65.5413C38.2295 67.0649 37.764 68.5866 36.819 69.8461C36.3595 70.4592 35.7848 70.9808 35.1187 71.3822C34.413 71.8074 33.6437 72.1211 32.9072 72.492C31.5721 73.1652 30.0614 74.2998 30.0783 75.9044C30.0922 77.2221 31.5324 78.4931 32.8903 77.9096C33.1941 77.779 32.931 77.349 32.6283 77.4796C31.999 77.7504 31.321 77.3699 30.9498 76.876C30.5438 76.3354 30.514 75.6852 30.7721 75.0759C31.3567 73.7001 32.8923 73.0498 34.1857 72.4358C34.9023 72.0954 35.6051 71.7283 36.2126 71.222C36.7367 70.7853 37.1813 70.259 37.5466 69.6936C38.3338 68.4722 38.7417 67.0716 38.9393 65.6585C39.1775 63.9576 39.1547 62.229 39.1864 60.5156C39.2192 58.7727 39.2529 57.0297 39.2857 55.2878C39.3522 51.7609 39.4197 48.234 39.4862 44.7072C39.5616 40.7236 39.6371 36.741 39.7125 32.7575C39.7204 32.4352 39.2023 32.4352 39.1964 32.7565Z" fill="#C57207"/>
<path d="M41.0998 40.8334C41.2477 45.4405 41.3966 50.0467 41.5445 54.6538C41.6934 59.281 41.8422 63.9091 41.9911 68.5362C42.0745 71.1306 42.1579 73.724 42.2413 76.3174C42.2512 76.6378 42.7703 76.6388 42.7604 76.3174C42.6125 71.7103 42.4636 67.1041 42.3157 62.497C42.1668 57.8698 42.0179 53.2417 41.869 48.6146C41.7857 46.0212 41.7023 43.4268 41.6189 40.8334C41.608 40.513 41.0889 40.5121 41.0998 40.8334Z" fill="#C57207"/>
<path d="M36.5161 74.7291C40.2692 74.6481 44.0232 74.5671 47.7763 74.4851C48.1098 74.4774 48.1108 73.9797 47.7763 73.9864C44.0232 74.0674 40.2692 74.1485 36.5161 74.2305C36.1826 74.2371 36.1816 74.7358 36.5161 74.7291Z" fill="#C57207"/>
<path d="M39.6302 22.144C39.1765 21.5719 39.1279 20.6614 39.7731 20.1951C40.0332 20.0063 40.3826 19.9072 40.7022 19.951C41.0337 19.9968 41.2908 20.1913 41.4427 20.4697C41.6065 20.7691 41.6144 21.1266 41.4258 21.4127C41.2471 21.6844 41.6958 21.9352 41.8735 21.6644C42.3857 20.8883 41.9122 19.788 41.0218 19.5134C40.0659 19.2187 39.0088 19.8652 38.8103 20.7901C38.6912 21.344 38.8232 21.9447 39.1815 22.3966C39.2659 22.5034 39.4048 22.5597 39.5359 22.4863C39.6461 22.4233 39.7155 22.2517 39.6302 22.144Z" fill="#C57207"/>
<path d="M32.4554 55.4741C32.6639 55.2396 32.8723 55.0041 33.0798 54.7695C22.6534 54.9926 12.2271 55.2157 1.80078 55.4389C6.01439 58.9533 11.2315 61.131 16.81 60.9918C22.3894 60.8517 28.8384 59.5559 32.4554 55.4741Z" fill="url(#paint5_linear_4488_22272)"/>
<path d="M76.9691 54.1958C77.1775 53.9613 77.385 53.7258 77.5934 53.4912C67.1671 53.7143 56.7408 53.9374 46.3145 54.1605C50.5281 57.675 55.7452 59.8527 61.3237 59.7135C66.9031 59.5733 73.352 58.2776 76.9691 54.1958Z" fill="url(#paint6_linear_4488_22272)"/>
<path d="M1.55715 55.7047C9.83648 55.5893 18.1158 55.473 26.3951 55.3577C28.7238 55.3252 31.0524 55.2928 33.3811 55.2604C33.7146 55.2556 33.7156 54.7579 33.3811 54.7617C25.1018 54.8771 16.8224 54.9934 8.54311 55.1088C6.21445 55.1412 3.8858 55.1736 1.55715 55.2061C1.22363 55.2108 1.22264 55.7095 1.55715 55.7047Z" fill="#C57207"/>
<path d="M46.1958 54.4214C54.4007 54.2307 62.6056 54.04 70.8095 53.8503C73.1411 53.7959 75.4727 53.7426 77.8054 53.6882C78.1389 53.6806 78.1399 53.1819 77.8054 53.1895C69.6005 53.3802 61.3956 53.5709 53.1917 53.7607C50.8601 53.815 48.5275 53.8694 46.1958 53.9228C45.8623 53.9304 45.8613 54.429 46.1958 54.4214Z" fill="#C57207"/>
<path d="M45.2168 58.1566C45.2903 62.8801 45.4719 68.0688 48.9282 71.7902C49.7401 72.6645 50.7159 73.3977 51.8147 73.9116C52.1135 74.0518 52.3765 73.6218 52.0767 73.4816C47.7857 71.4736 46.26 66.7101 45.9027 62.4663C45.7826 61.0332 45.7588 59.5945 45.7359 58.1566C45.73 57.8363 45.2119 57.8353 45.2168 58.1566Z" fill="#C57207"/>
<path d="M9.78131 59.8509C13.9552 61.8093 18.9431 61.9876 23.246 60.2952C23.5507 60.1751 23.4177 59.6926 23.108 59.8147C18.9351 61.4556 14.0982 61.3231 10.0434 59.42C9.7436 59.2807 9.48055 59.7108 9.78131 59.8509Z" fill="#C57207"/>
<path d="M18.3043 58.3007C18.34 58.2664 18.3758 58.232 18.4115 58.1977C18.4363 58.1748 18.4542 58.1481 18.4651 58.1176C18.481 58.088 18.4889 58.0556 18.4869 58.0213C18.4879 57.987 18.481 57.9555 18.4651 57.925C18.4552 57.8945 18.4363 57.8678 18.4115 57.8449C18.3936 57.8316 18.3768 57.8192 18.3589 57.8058C18.3182 57.7829 18.2745 57.7715 18.2279 57.7715C18.205 57.7743 18.1822 57.7772 18.1594 57.7801C18.1157 57.7915 18.077 57.8135 18.0452 57.844C18.0095 57.8783 17.9737 57.9126 17.939 57.9469C17.9132 57.9698 17.8953 57.9965 17.8854 58.027C17.8695 58.0566 17.8616 58.089 17.8636 58.1233C17.8626 58.1577 17.8695 58.1891 17.8854 58.2196C17.8963 58.2501 17.9142 58.2778 17.939 58.2997C17.9569 58.3131 17.9738 58.3254 17.9916 58.3388C18.0323 58.3617 18.076 58.3722 18.1226 58.3731C18.1455 58.3703 18.1683 58.3674 18.1911 58.3645C18.2338 58.3531 18.2725 58.3321 18.3043 58.3007Z" fill="#C57207"/>
<path d="M54.2728 58.8254C58.1976 60.1841 62.5362 60.3509 66.5702 59.3374C67.7156 59.0495 68.8303 58.6614 69.9073 58.1895C70.2101 58.0569 69.947 57.6269 69.6453 57.7594C65.9429 59.3832 61.7213 59.8828 57.7161 59.1963C56.5915 59.0037 55.4867 58.7177 54.4117 58.3449C54.0961 58.2362 53.9601 58.7177 54.2728 58.8254Z" fill="#C57207"/>
<path d="M62.7587 57.0397C63.0922 57.0397 63.0932 56.541 62.7587 56.541C62.4242 56.541 62.4242 57.0397 62.7587 57.0397Z" fill="#C57207"/>
<path d="M41.1004 26.4795C41.0736 26.4795 41.0468 26.4795 41.02 26.4795C40.6865 26.4795 40.6855 26.9782 41.02 26.9782C41.0468 26.9782 41.0736 26.9782 41.1004 26.9782C41.434 26.9772 41.434 26.4795 41.1004 26.4795C41.0736 26.4795 41.0468 26.4795 41.02 26.4795C40.6865 26.4795 40.6855 26.9782 41.02 26.9782C41.0468 26.9782 41.0736 26.9782 41.1004 26.9782C41.434 26.9772 41.434 26.4795 41.1004 26.4795Z" fill="#C57207"/>
<path d="M68.219 25.0665C67.957 25.5022 68.1128 26.06 68.5664 26.3117C69.0201 26.5634 69.6007 26.4137 69.8628 25.978C70.1248 25.5423 69.969 24.9845 69.5154 24.7328C69.0617 24.4811 68.4811 24.6298 68.219 25.0665Z" fill="url(#paint7_linear_4488_22272)"/>
<path d="M61.8117 69.0973C62.1867 69.0973 62.4907 68.8053 62.4907 68.4451C62.4907 68.0849 62.1867 67.793 61.8117 67.793C61.4368 67.793 61.1328 68.0849 61.1328 68.4451C61.1328 68.8053 61.4368 69.0973 61.8117 69.0973Z" fill="url(#paint8_linear_4488_22272)"/>
<path d="M79.8811 58.7463C79.492 58.7463 79.3272 58.0388 79.2974 57.7671C79.2905 57.7089 79.2399 57.665 79.1793 57.665C79.1178 57.665 79.0671 57.7098 79.0602 57.7671C79.0304 58.0397 78.8657 58.7463 78.4766 58.7463C78.411 58.7463 78.3574 58.7977 78.3574 58.8607C78.3574 58.9236 78.411 58.9751 78.4766 58.9751C78.8657 58.9751 79.0304 59.6826 79.0602 59.9553C79.0671 60.0134 79.1178 60.0582 79.1793 60.0582C79.2399 60.0582 79.2915 60.0134 79.2974 59.9553C79.3282 59.6826 79.492 58.9751 79.8811 58.9751C79.9466 58.9751 80.0002 58.9236 80.0002 58.8607C80.0002 58.7977 79.9466 58.7463 79.8811 58.7463Z" fill="url(#paint9_linear_4488_22272)"/>
<path d="M5.70529 39.715C5.31619 39.715 5.15144 39.0075 5.12166 38.7358C5.11471 38.6776 5.06407 38.6338 5.00352 38.6338C4.94297 38.6338 4.89136 38.6776 4.88441 38.7358C4.85364 39.0085 4.68985 39.715 4.30075 39.715C4.23524 39.715 4.18164 39.7665 4.18164 39.8294C4.18164 39.8924 4.23524 39.9438 4.30075 39.9438C4.68985 39.9438 4.85464 40.6513 4.88441 40.924C4.89136 40.9822 4.94198 41.027 5.00352 41.027C5.06506 41.027 5.1157 40.9831 5.12166 40.924C5.15243 40.6513 5.31619 39.9438 5.70529 39.9438C5.77081 39.9438 5.8244 39.8924 5.8244 39.8294C5.8244 39.7665 5.7718 39.715 5.70529 39.715Z" fill="url(#paint10_linear_4488_22272)"/>
<path d="M61.5371 15.4996C60.7341 15.4996 60.3956 14.0409 60.3331 13.4793C60.3192 13.3591 60.214 13.2676 60.0889 13.2676C59.9629 13.2676 59.8576 13.3591 59.8447 13.4793C59.7822 14.0409 59.4437 15.4996 58.6407 15.4996C58.5047 15.4996 58.3945 15.6055 58.3945 15.7361C58.3945 15.8667 58.5047 15.9726 58.6407 15.9726C59.4437 15.9726 59.7822 17.4314 59.8447 17.993C59.8576 18.1131 59.9638 18.2046 60.0889 18.2046C60.215 18.2046 60.3202 18.1131 60.3331 17.993C60.3956 17.4304 60.7341 15.9726 61.5371 15.9726C61.6731 15.9726 61.7833 15.8667 61.7833 15.7361C61.7833 15.6055 61.6731 15.4996 61.5371 15.4996Z" fill="url(#paint11_linear_4488_22272)"/>
<path d="M0.900276 60.3057C1.39749 60.3057 1.80058 59.9186 1.80058 59.4409C1.80058 58.9633 1.39749 58.5762 0.900276 58.5762C0.403058 58.5762 0 58.9633 0 59.4409C0 59.9186 0.403058 60.3057 0.900276 60.3057Z" fill="url(#paint12_linear_4488_22272)"/>
<path d="M19.2003 18.6998C18.7745 18.9935 18.6772 19.5627 18.9829 19.9717C19.2887 20.3808 19.8812 20.4742 20.307 20.1805C20.7329 19.8869 20.8301 19.3177 20.5244 18.9086C20.2187 18.5006 19.6261 18.4071 19.2003 18.6998Z" fill="url(#paint13_linear_4488_22272)"/>
<path d="M21.703 2.35313C20.8563 2.35313 20.499 0.815189 20.4334 0.223089C20.4195 0.0962789 20.3084 0 20.1754 0C20.0423 0 19.9322 0.0962789 19.9173 0.223089C19.8518 0.815189 19.4944 2.35313 18.6477 2.35313C18.5048 2.35313 18.3887 2.46467 18.3887 2.60197C18.3887 2.74022 18.5048 2.85084 18.6477 2.85084C19.4944 2.85084 19.8518 4.38878 19.9173 4.98088C19.9312 5.10769 20.0423 5.20397 20.1754 5.20397C20.3084 5.20397 20.4185 5.10769 20.4334 4.98088C20.499 4.38783 20.8563 2.85084 21.703 2.85084C21.8459 2.85084 21.9621 2.73927 21.9621 2.60197C21.9621 2.46372 21.8459 2.35313 21.703 2.35313Z" fill="url(#paint14_linear_4488_22272)"/>
<path d="M11.7195 68.2832C12.2704 68.2832 12.5027 67.2831 12.5454 66.8979C12.5543 66.8159 12.6268 66.7529 12.7131 66.7529C12.7995 66.7529 12.8719 66.8159 12.8809 66.8979C12.9236 67.2831 13.1558 68.2832 13.7067 68.2832C13.8 68.2832 13.8755 68.3557 13.8755 68.4453C13.8755 68.5349 13.8 68.6074 13.7067 68.6074C13.1558 68.6074 12.9236 69.6076 12.8809 69.9928C12.8719 70.0748 12.7995 70.1377 12.7131 70.1377C12.6268 70.1377 12.5543 70.0748 12.5454 69.9928C12.5027 69.6076 12.2704 68.6074 11.7195 68.6074C11.6262 68.6074 11.5508 68.5349 11.5508 68.4453C11.5508 68.3557 11.6262 68.2832 11.7195 68.2832Z" fill="url(#paint15_linear_4488_22272)"/>
<path d="M21.7082 78.2194C22.0832 78.2194 22.3872 77.9274 22.3872 77.5672C22.3872 77.207 22.0832 76.915 21.7082 76.915C21.3333 76.915 21.0293 77.207 21.0293 77.5672C21.0293 77.9274 21.3333 78.2194 21.7082 78.2194Z" fill="url(#paint16_linear_4488_22272)"/>
<path d="M31.7227 38.7498C31.7227 38.3894 32.0264 38.0977 32.4016 38.0977C32.7768 38.0977 33.0806 38.3894 33.0806 38.7498C33.0806 39.1102 32.7768 39.402 32.4016 39.402C32.0264 39.402 31.7227 39.1102 31.7227 38.7498Z" fill="url(#paint17_linear_4488_22272)"/>
<path d="M74.6504 36.2264C74.6504 35.866 74.9541 35.5742 75.3293 35.5742C75.7045 35.5742 76.0083 35.866 76.0083 36.2264C76.0083 36.5868 75.7045 36.8786 75.3293 36.8786C74.9541 36.8786 74.6504 36.5859 74.6504 36.2264Z" fill="url(#paint18_linear_4488_22272)"/>
<path d="M39.5352 12.118C39.5352 11.7576 39.8389 11.4658 40.2141 11.4658C40.5893 11.4658 40.8931 11.7576 40.8931 12.118C40.8931 12.4784 40.5893 12.7701 40.2141 12.7701C39.8389 12.7701 39.5352 12.4784 39.5352 12.118Z" fill="url(#paint19_linear_4488_22272)"/>
<defs>
<linearGradient id="paint0_linear_4488_22272" x1="57.1458" y1="28.4333" x2="55.869" y2="50.5115" gradientUnits="userSpaceOnUse">
<stop stop-color="#EBCB76"/>
<stop offset="1" stop-color="#E19256"/>
</linearGradient>
<linearGradient id="paint1_linear_4488_22272" x1="68.8562" y1="29.11" x2="67.5794" y2="51.1883" gradientUnits="userSpaceOnUse">
<stop stop-color="#EBCB76"/>
<stop offset="1" stop-color="#E19256"/>
</linearGradient>
<linearGradient id="paint2_linear_4488_22272" x1="15.8512" y1="24.5776" x2="9.00966" y2="51.6205" gradientUnits="userSpaceOnUse">
<stop stop-color="#EBCB76"/>
<stop offset="1" stop-color="#E19256"/>
</linearGradient>
<linearGradient id="paint3_linear_4488_22272" x1="28.4067" y1="27.7535" x2="21.5651" y2="54.7963" gradientUnits="userSpaceOnUse">
<stop stop-color="#EBCB76"/>
<stop offset="1" stop-color="#E19256"/>
</linearGradient>
<linearGradient id="paint4_linear_4488_22272" x1="41.1365" y1="18.3297" x2="45.109" y2="76.8172" gradientUnits="userSpaceOnUse">
<stop stop-color="#EBCB76"/>
<stop offset="1" stop-color="#E19256"/>
</linearGradient>
<linearGradient id="paint5_linear_4488_22272" x1="14.8651" y1="20.1133" x2="18.8375" y2="78.6015" gradientUnits="userSpaceOnUse">
<stop stop-color="#EBCB76"/>
<stop offset="1" stop-color="#E19256"/>
</linearGradient>
<linearGradient id="paint6_linear_4488_22272" x1="59.2511" y1="17.0988" x2="63.2235" y2="75.5872" gradientUnits="userSpaceOnUse">
<stop stop-color="#EBCB76"/>
<stop offset="1" stop-color="#E19256"/>
</linearGradient>
<linearGradient id="paint7_linear_4488_22272" x1="67.8375" y1="1.17896" x2="71.4544" y2="80.4748" gradientUnits="userSpaceOnUse">
<stop stop-color="#EBCB76"/>
<stop offset="1" stop-color="#E19256"/>
</linearGradient>
<linearGradient id="paint8_linear_4488_22272" x1="58.2911" y1="-2.77873" x2="61.9082" y2="76.5217" gradientUnits="userSpaceOnUse">
<stop stop-color="#EBCB76"/>
<stop offset="1" stop-color="#E19256"/>
</linearGradient>
<linearGradient id="paint9_linear_4488_22272" x1="80.1945" y1="-2.62739" x2="78.9182" y2="81.0868" gradientUnits="userSpaceOnUse">
<stop stop-color="#EBCB76"/>
<stop offset="1" stop-color="#E19256"/>
</linearGradient>
<linearGradient id="paint10_linear_4488_22272" x1="5.72336" y1="-3.75991" x2="4.44698" y2="79.9509" gradientUnits="userSpaceOnUse">
<stop stop-color="#EBCB76"/>
<stop offset="1" stop-color="#E19256"/>
</linearGradient>
<linearGradient id="paint11_linear_4488_22272" x1="60.3974" y1="-2.92786" x2="59.1209" y2="80.785" gradientUnits="userSpaceOnUse">
<stop stop-color="#EBCB76"/>
<stop offset="1" stop-color="#E19256"/>
</linearGradient>
<linearGradient id="paint12_linear_4488_22272" x1="1.9461" y1="-3.81795" x2="0.669733" y2="79.8938" gradientUnits="userSpaceOnUse">
<stop stop-color="#EBCB76"/>
<stop offset="1" stop-color="#E19256"/>
</linearGradient>
<linearGradient id="paint13_linear_4488_22272" x1="20.1335" y1="-3.54179" x2="18.8571" y2="80.1696" gradientUnits="userSpaceOnUse">
<stop stop-color="#EBCB76"/>
<stop offset="1" stop-color="#E19256"/>
</linearGradient>
<linearGradient id="paint14_linear_4488_22272" x1="20.2767" y1="-3.53971" x2="19.0004" y2="80.1722" gradientUnits="userSpaceOnUse">
<stop stop-color="#EBCB76"/>
<stop offset="1" stop-color="#E19256"/>
</linearGradient>
<linearGradient id="paint15_linear_4488_22272" x1="13.9042" y1="-3.63672" x2="12.6277" y2="80.0763" gradientUnits="userSpaceOnUse">
<stop stop-color="#EBCB76"/>
<stop offset="1" stop-color="#E19256"/>
</linearGradient>
<linearGradient id="paint16_linear_4488_22272" x1="23.0483" y1="-3.50206" x2="21.7718" y2="80.2161" gradientUnits="userSpaceOnUse">
<stop stop-color="#EBCB76"/>
<stop offset="1" stop-color="#E19256"/>
</linearGradient>
<linearGradient id="paint17_linear_4488_22272" x1="33.0969" y1="-3.34246" x2="31.8206" y2="80.3674" gradientUnits="userSpaceOnUse">
<stop stop-color="#EBCB76"/>
<stop offset="1" stop-color="#E19256"/>
</linearGradient>
<linearGradient id="paint18_linear_4488_22272" x1="75.9721" y1="-2.69028" x2="74.6957" y2="81.0215" gradientUnits="userSpaceOnUse">
<stop stop-color="#EBCB76"/>
<stop offset="1" stop-color="#E19256"/>
</linearGradient>
<linearGradient id="paint19_linear_4488_22272" x1="40.4675" y1="-3.23179" x2="39.1912" y2="80.4781" gradientUnits="userSpaceOnUse">
<stop stop-color="#EBCB76"/>
<stop offset="1" stop-color="#E19256"/>
</linearGradient>
</defs>
</svg>
