<svg width="80" height="84" viewBox="0 0 80 84" fill="none" xmlns="http://www.w3.org/2000/svg">
<g clip-path="url(#clip0_4488_22505)">
<path d="M5.71094 33.4847C5.75384 33.4908 5.79421 33.4938 5.8371 33.4999C5.82449 33.4635 5.80262 33.4251 5.79085 33.3887C5.76477 33.421 5.73785 33.4534 5.71094 33.4847Z" fill="url(#paint0_linear_4488_22505)"/>
<path d="M54.0568 15.4372C54.4975 14.9115 54.9366 14.3879 55.3891 13.8501C53.8439 13.101 52.2516 12.5086 50.6417 11.9951C47.0912 9.16461 42.8182 7.63108 38.5241 6.98816C36.6702 6.71016 34.3108 6.86887 31.7352 7.39959C30.1824 5.69422 28.5346 4.12733 26.7758 2.70703C23.6046 5.54966 20.8087 8.98972 18.4997 12.8503C17.37 13.5771 16.2833 14.3545 15.2772 15.1915C11.2296 18.5608 7.57655 22.8814 5.72266 28.3635C8.88454 30.4085 13.0768 31.7863 16.645 32.2695C15.2958 32.6264 13.9466 32.9832 12.5974 33.3401C10.2901 33.9506 8.17375 33.8314 5.83704 33.5008C6.22986 34.6593 7.10549 35.9259 8.03327 36.4475C12.0725 38.716 16.6946 37.9063 21.0593 36.8135C24.1051 36.0503 27.0029 34.6795 29.8678 33.1955C31.4063 34.1195 32.9439 35.0434 34.4824 35.9674C34.447 34.3125 34.1804 32.686 33.6715 31.198C33.8481 31.106 34.0239 31.012 34.2006 30.921C38.5047 28.6981 43.0343 26.7278 47.7179 26.7875C50.6989 26.8249 53.7682 27.8378 56.2151 29.8212C55.416 32.5738 55.215 35.5792 55.6735 38.4441C57.3936 37.6455 59.1608 36.2909 60.3729 34.6199C63.6492 37.7081 67.4436 39.8724 71.4341 41.3029C69.6466 34.8584 65.4139 28.7102 59.2004 27.3334C58.4425 22.9623 56.777 18.948 54.1215 15.513C54.0997 15.4847 54.077 15.4635 54.0568 15.4372Z" fill="url(#paint1_linear_4488_22505)"/>
<path d="M18.4726 13.595C21.8784 10.6715 25.8335 8.72355 29.9652 7.92393C31.1302 7.6985 32.307 7.57113 33.4863 7.53272C33.7689 7.52362 33.7698 6.99492 33.4863 7.00402C29.2469 7.14251 25.053 8.47588 21.3065 10.8636C20.2466 11.5389 19.2263 12.3011 18.2506 13.1381C18.0226 13.3342 18.2413 13.7932 18.4726 13.595Z" fill="#C57207"/>
<path d="M22.768 8.97849C23.9145 7.14776 25.3546 5.59705 26.9889 4.41836C27.2312 4.24347 27.0108 3.78655 26.7669 3.96244C25.0644 5.19068 23.5814 6.80608 22.3887 8.71161C22.2179 8.98354 22.5998 9.24738 22.768 8.97849Z" fill="#C57207"/>
<path d="M26.2245 7.21214C26.5694 6.35794 27.186 5.6766 27.9312 5.36221C28.0431 5.3147 28.1179 5.18126 28.0843 5.03772C28.0548 4.90731 27.9262 4.80622 27.8143 4.85373C26.9631 5.21361 26.2405 5.96774 25.8452 6.94729C25.793 7.07567 25.8157 7.23236 25.9242 7.30919C26.0201 7.37489 26.1724 7.34052 26.2245 7.21214Z" fill="#C57207"/>
<path d="M48.7555 11.0256C51.6928 12.8249 54.2079 15.5372 56.0037 18.861C56.1576 19.145 56.5378 18.8802 56.3831 18.5941C54.5468 15.1975 51.9805 12.4095 48.9768 10.5696C48.7261 10.415 48.5032 10.8709 48.7555 11.0256Z" fill="#C57207"/>
<path d="M55.6881 38.4994C55.3618 36.6505 55.3912 34.7136 55.6099 32.8485C55.8286 30.9814 56.2366 29.1264 56.8683 27.3978C56.981 27.0894 56.6025 26.8205 56.4889 27.1309C55.8286 28.9394 55.3971 30.8621 55.1742 32.8172C54.9538 34.7459 54.9277 36.7273 55.265 38.6399C55.3231 38.9725 55.747 38.832 55.6881 38.4994Z" fill="#C57207"/>
<path d="M56.6791 27.5299C59.4978 27.4359 62.2265 28.6824 64.5522 30.5303C64.7886 30.7183 65.009 30.2614 64.7743 30.0744C62.388 28.1779 59.5701 26.9052 56.6791 27.0023C56.3965 27.0114 56.3956 27.539 56.6791 27.5299Z" fill="#C57207"/>
<path d="M57.5963 29.4161C58.3626 32.4852 60.055 35.1539 62.3126 36.8573C62.5532 37.0382 62.7736 36.5813 62.5347 36.4014C60.3746 34.7708 58.7537 32.2122 58.0202 29.2756C57.9387 28.9511 57.5147 29.0896 57.5963 29.4161Z" fill="#C57207"/>
<path d="M29.8513 33.4283C32.1468 31.824 34.5996 30.5756 37.1559 29.7092C37.4276 29.6172 37.3123 29.1067 37.0389 29.1997C34.4482 30.0772 31.9567 31.3459 29.6301 32.9714C29.3853 33.1422 29.6057 33.5991 29.8513 33.4283Z" fill="#C57207"/>
<path d="M21.2097 25.3167C23.6339 26.4115 25.9033 27.9834 27.9069 29.9557C28.0356 30.0821 28.2207 30.0406 28.2745 29.8394C28.9929 27.1404 29.712 24.4413 30.4304 21.7432C30.517 21.4187 30.0922 21.2792 30.0064 21.6027C29.2881 24.3018 28.5689 27.0009 27.8506 29.6989C27.9734 29.6605 28.0953 29.6211 28.2182 29.5827C26.1523 27.5488 23.8274 25.9374 21.3266 24.8082C21.0608 24.6879 20.9464 25.1984 21.2097 25.3167Z" fill="#C57207"/>
<path d="M23.8565 23.9561C25.951 23.0523 28.0757 22.3386 30.277 21.9272C30.5554 21.8746 30.4377 21.3662 30.1601 21.4177C27.9596 21.8302 25.8349 22.5428 23.7396 23.4476C23.4755 23.5608 23.5899 24.0713 23.8565 23.9561Z" fill="#C57207"/>
<path d="M25.9782 26.5747C26.0345 26.5474 26.0917 26.5241 26.1514 26.5079C26.1792 26.5009 26.2078 26.4938 26.2355 26.4887C26.2036 26.4948 26.2221 26.4908 26.2431 26.4887C26.2557 26.4877 26.2684 26.4867 26.281 26.4857C26.3424 26.4817 26.4021 26.4857 26.4627 26.4908C26.5056 26.4938 26.4441 26.4857 26.4711 26.4918C26.4837 26.4948 26.4963 26.4968 26.5089 26.4999C26.54 26.5069 26.5712 26.515 26.6023 26.5251C26.63 26.5342 26.6578 26.5443 26.6847 26.5555C26.6965 26.5605 26.7091 26.5656 26.7209 26.5716C26.7781 26.5959 26.699 26.5585 26.7301 26.5757C26.7857 26.606 26.8387 26.6394 26.89 26.6788C26.9009 26.6869 26.911 26.696 26.9219 26.7041C26.9219 26.7041 26.9682 26.7435 26.9463 26.7243C26.9236 26.7051 26.9648 26.7425 26.969 26.7465C26.9791 26.7566 26.9884 26.7667 26.9976 26.7768C27.0212 26.8021 27.0439 26.8294 27.0658 26.8577C27.0742 26.8688 27.0826 26.88 27.091 26.8921C27.0944 26.8961 27.1331 26.9558 27.1045 26.9103C27.1734 27.0205 27.2971 27.0882 27.4056 27.0053C27.4956 26.9355 27.5587 26.7617 27.4847 26.6434C27.1171 26.0601 26.4374 25.7852 25.8604 26.0682C25.7544 26.1198 25.6669 26.2461 25.7073 26.3927C25.741 26.513 25.8638 26.6303 25.9782 26.5747Z" fill="#C57207"/>
<path d="M25.154 25.1681C25.4325 24.8153 25.8421 24.6222 26.2467 24.688C26.6311 24.7516 26.9734 25.0397 27.1686 25.438C27.3116 25.7312 27.6918 25.4653 27.5479 25.1712C27.2796 24.6212 26.8086 24.2442 26.282 24.1643C25.7529 24.0845 25.2087 24.3301 24.8428 24.7931C24.6485 25.0408 24.9589 25.4148 25.154 25.1681Z" fill="#C57207"/>
<path d="M16.0954 24.1625C16.378 24.1625 16.3789 23.6338 16.0954 23.6338C15.8119 23.6338 15.8119 24.1625 16.0954 24.1625Z" fill="#C57207"/>
<path d="M5.71387 28.3016C8.95481 31.0715 12.8174 32.7344 16.7792 33.1124C17.9105 33.2206 19.0469 33.2186 20.1783 33.1114C20.4584 33.0851 20.4609 32.5565 20.1783 32.5827C16.261 32.9517 12.2799 32.0136 8.76722 29.8958C7.78055 29.3004 6.83425 28.614 5.93506 27.8447C5.70459 27.6486 5.48508 28.1065 5.71387 28.3016Z" fill="#C57207"/>
<path d="M14.6646 17.732C15.0558 18.4346 15.5352 19.0846 16.2048 19.4C16.8289 19.6942 17.5826 19.6173 18.0688 19.0249C18.5112 18.4861 18.6315 17.638 18.2126 17.0315C17.8593 16.521 17.1721 16.3178 16.7448 16.8192C16.3393 17.2953 16.3436 18.191 16.8398 18.569C17.0796 18.751 17.3008 18.2941 17.0619 18.1131C16.8146 17.9251 16.8575 17.4611 17.0299 17.2245C17.2848 16.8738 17.7365 17.1164 17.9199 17.4389C18.1714 17.8786 17.983 18.4417 17.6667 18.753C17.2823 19.1301 16.7313 19.1018 16.2956 18.8794C15.7564 18.6044 15.3619 18.0383 15.044 17.4662C14.8875 17.1841 14.5065 17.448 14.6646 17.732Z" fill="#C57207"/>
<path d="M22.7651 16.3315C26.6697 13.6941 31.1522 12.3547 35.6297 12.4659C39.8926 12.572 44.0925 14.0409 47.7633 16.6429C49.7988 18.0864 51.6578 19.8676 53.2786 21.9349C53.473 22.1826 53.7834 21.8085 53.589 21.5619C50.6635 17.8307 46.9541 15.0194 42.9014 13.4252C38.6528 11.7532 34.0702 11.4995 29.7012 12.6236C27.1963 13.2685 24.7755 14.3674 22.5431 15.8756C22.2966 16.0414 22.5178 16.4983 22.7651 16.3315Z" fill="#C57207"/>
<path d="M50.705 24.3512C50.5974 24.4412 50.4889 24.5321 50.3812 24.6221C50.2912 24.6969 50.2281 24.8607 50.3021 24.984C50.4973 25.3045 50.6924 25.6239 50.8867 25.9443C50.9548 26.0555 51.0802 26.1223 51.1878 26.0394C51.2795 25.9686 51.3393 25.7968 51.2669 25.6785C51.0718 25.358 50.8766 25.0386 50.6823 24.7181C50.6562 24.8384 50.6293 24.9587 50.6033 25.079C50.7109 24.9891 50.8194 24.8981 50.9271 24.8081C51.0213 24.7293 51.0734 24.5736 51.0061 24.4472C50.9456 24.334 50.806 24.2673 50.705 24.3512Z" fill="#C57207"/>
<path d="M52.1893 24.3581C52.0076 24.5795 51.9596 24.905 52.0328 25.1981C52.0993 25.464 52.2574 25.7248 52.4711 25.8421C52.6166 25.9219 52.7688 25.9462 52.9253 25.8997C53.0372 25.8663 53.1145 25.7087 53.0784 25.5752C53.0414 25.4367 52.9278 25.3548 52.8084 25.3902C52.7949 25.3943 52.7814 25.3963 52.7688 25.4003C52.8378 25.3781 52.8016 25.3953 52.7781 25.3973C52.7655 25.3983 52.752 25.3983 52.7394 25.3973C52.7158 25.3953 52.6805 25.3781 52.7503 25.4003C52.7259 25.3922 52.7007 25.3872 52.6763 25.3771C52.6258 25.3559 52.7175 25.4013 52.6847 25.3821C52.6729 25.3751 52.662 25.368 52.6502 25.3609C52.6393 25.3528 52.6284 25.3447 52.6174 25.3366C52.6014 25.3235 52.5695 25.2851 52.6225 25.3437C52.6031 25.3225 52.5821 25.3023 52.5644 25.28C52.5552 25.2689 52.5459 25.2568 52.5375 25.2446C52.5022 25.1951 52.5619 25.2871 52.5409 25.2507C52.5257 25.2244 52.5106 25.1971 52.4971 25.1698C52.4904 25.1557 52.4845 25.1415 52.4778 25.1274C52.4694 25.1072 52.4542 25.0506 52.4795 25.1355C52.4702 25.1052 52.461 25.0758 52.4534 25.0445C52.4467 25.0152 52.4366 24.908 52.4433 25.0101C52.4408 24.9788 52.4383 24.9485 52.4391 24.9171C52.4391 24.902 52.4399 24.8868 52.4408 24.8706C52.4433 24.8261 52.429 24.9485 52.4399 24.8838C52.445 24.8534 52.4526 24.8251 52.461 24.7958C52.4727 24.7544 52.4332 24.8635 52.4585 24.8069C52.4643 24.7928 52.4711 24.7796 52.4778 24.7665C52.5072 24.7119 52.4484 24.8049 52.4727 24.7726C52.482 24.7604 52.4904 24.7483 52.5005 24.7362C52.5812 24.6381 52.588 24.4592 52.5005 24.3632C52.413 24.2621 52.2751 24.253 52.1893 24.3581Z" fill="#C57207"/>
<path d="M51.1233 21.8056C50.8172 21.9168 50.5808 22.2959 50.6169 22.6871C50.6565 23.1067 50.9366 23.4261 51.2865 23.4564C51.4018 23.4665 51.5111 23.328 51.506 23.1926C51.5002 23.041 51.4093 22.9389 51.2865 22.9288C51.2394 22.9247 51.3395 22.9419 51.2924 22.9308C51.2798 22.9277 51.2672 22.9247 51.2537 22.9207C51.2411 22.9166 51.2285 22.9106 51.2158 22.9065C51.1788 22.8924 51.2495 22.9267 51.2259 22.9116C51.2049 22.8974 51.1831 22.8843 51.1629 22.8681C51.1427 22.8519 51.1359 22.8287 51.1654 22.8711C51.1578 22.86 51.1452 22.8499 51.1359 22.8388C51.1284 22.8297 51.12 22.8206 51.1132 22.8105C51.1074 22.8034 51.0737 22.764 51.1015 22.7943C51.1259 22.8216 51.1014 22.7923 51.0956 22.7822C51.0888 22.769 51.0821 22.7549 51.0754 22.7417C51.072 22.7347 51.0695 22.7276 51.067 22.7205C51.0594 22.7023 51.0628 22.7114 51.0762 22.7478C51.0762 22.7347 51.0661 22.7154 51.0636 22.7033C51.0602 22.6902 51.0577 22.678 51.0552 22.6649C51.0443 22.6053 51.056 22.6993 51.0544 22.673C51.0535 22.6437 51.0527 22.6154 51.0535 22.5861C51.0552 22.5305 51.0417 22.6477 51.0527 22.5941C51.0552 22.581 51.0569 22.5679 51.0594 22.5557C51.0628 22.5406 51.067 22.5254 51.0712 22.5102C51.0838 22.4647 51.0762 22.5123 51.0661 22.5214C51.0804 22.5082 51.093 22.4577 51.104 22.4385C51.1065 22.4344 51.109 22.4294 51.1115 22.4253C51.125 22.4031 51.1216 22.4081 51.1006 22.4405C51.1082 22.4364 51.1166 22.4182 51.1225 22.4102C51.1343 22.395 51.1687 22.3687 51.1755 22.3505C51.1502 22.3738 51.1435 22.3798 51.157 22.3677C51.162 22.3627 51.1679 22.3586 51.173 22.3546C51.1839 22.3465 51.1957 22.3384 51.2066 22.3303C51.2108 22.3283 51.2142 22.3252 51.2184 22.3232C51.2394 22.3111 51.2344 22.3141 51.2015 22.3303C51.2108 22.3313 51.2302 22.3182 51.2386 22.3151C51.3488 22.2747 51.4295 22.1281 51.3917 21.9906C51.3572 21.8562 51.2411 21.7622 51.1233 21.8056Z" fill="#C57207"/>
<path d="M36.0427 16.4155C39.1894 16.4953 42.2764 17.6427 44.9151 19.7029C45.1532 19.8889 45.3736 19.431 45.1372 19.247C42.4346 17.1372 39.2634 15.9697 36.0427 15.8878C35.7592 15.8797 35.7592 16.4084 36.0427 16.4155Z" fill="#C57207"/>
<path d="M63.9085 35.4297C64.9625 36.5204 66.1905 37.3372 67.5212 37.8255C67.7921 37.9246 67.9081 37.4151 67.6381 37.316C66.3823 36.855 65.2148 36.0857 64.2197 35.0556C64.0052 34.8353 63.6932 35.2073 63.9085 35.4297Z" fill="#C57207"/>
<path d="M62.6994 31.9038C63.7761 32.5032 64.7746 33.2877 65.6569 34.2409C65.8672 34.4674 66.1784 34.0954 65.9681 33.8669C65.058 32.8843 64.0318 32.0655 62.9215 31.4468C62.6666 31.3053 62.4429 31.7612 62.6994 31.9038Z" fill="#C57207"/>
<path d="M56.9433 31.5577C56.3906 32.793 56.4217 34.3397 57.0358 35.5356C57.1838 35.8247 57.5649 35.5588 57.4151 35.2687C56.8844 34.2346 56.8431 32.8972 57.3226 31.8246C57.4563 31.5254 57.077 31.2585 56.9433 31.5577Z" fill="#C57207"/>
<path d="M8.15762 25.6365C9.82814 27.7543 12.0698 29.2029 14.462 29.7104C15.765 29.9873 17.0393 29.8873 18.3523 29.8145C19.5863 29.7457 20.9666 29.8114 21.971 30.7961C22.4386 31.254 22.7532 31.8868 22.8062 32.6157C22.8567 33.302 22.6817 34.0329 22.204 34.4535C21.9785 34.6526 22.1973 35.1115 22.426 34.9094C23.2781 34.1583 23.4438 32.7572 23.046 31.629C22.5817 30.3098 21.3956 29.6123 20.2786 29.3808C18.836 29.0826 17.3766 29.4576 15.9256 29.3788C14.6118 29.307 13.3029 28.936 12.0959 28.3072C10.729 27.5946 9.49338 26.5614 8.46802 25.2624C8.27372 25.0158 7.96248 25.3898 8.15762 25.6365Z" fill="#C57207"/>
<path d="M32.9427 34.2444C32.9645 34.2262 32.9872 34.2121 33.0116 34.1989C32.994 34.208 32.9763 34.2171 32.9595 34.2252C32.9965 34.207 33.0335 34.1949 33.073 34.1888C33.0537 34.1919 33.0344 34.1949 33.0142 34.1979C33.0562 34.1919 33.0983 34.1919 33.1404 34.1989C33.121 34.1959 33.1017 34.1929 33.0823 34.1898C33.1244 34.1969 33.1648 34.2111 33.2034 34.2303C33.1858 34.2212 33.1681 34.2121 33.1513 34.204C33.1849 34.2222 33.2169 34.2444 33.2463 34.2707C33.2312 34.2565 33.2169 34.2434 33.2018 34.2293C33.2245 34.2505 33.2455 34.2747 33.264 34.302C33.2985 34.3516 33.3675 34.3789 33.4196 34.3789C33.4734 34.3789 33.5382 34.3506 33.5752 34.302C33.6139 34.2515 33.6425 34.1858 33.64 34.115C33.6375 34.0422 33.6148 33.9846 33.5752 33.928C33.3742 33.6419 32.9797 33.5803 32.7214 33.7875C32.6735 33.8259 32.6356 33.8775 32.6205 33.9452C32.6062 34.0089 32.6129 34.0928 32.6424 34.1484C32.7038 34.2636 32.8409 34.3263 32.9427 34.2444Z" fill="#C57207"/>
<path d="M32.5267 33.0699C32.5443 33.0568 32.562 33.0436 32.5805 33.0325C32.5897 33.0265 32.5999 33.0224 32.6083 33.0164C32.631 33.0002 32.5603 33.0376 32.5956 33.0234C32.6352 33.0073 32.6747 32.9951 32.7159 32.985C32.7538 32.9759 32.673 32.988 32.7008 32.987C32.7109 32.987 32.7218 32.984 32.7319 32.984C32.7529 32.982 32.7731 32.982 32.7941 32.982C32.8152 32.982 32.8354 32.985 32.8564 32.987C32.8951 32.9901 32.8152 32.9769 32.8413 32.984C32.8514 32.987 32.8623 32.988 32.8724 32.9911C32.9136 33.0012 32.9531 33.0163 32.9927 33.0335C33.0213 33.0457 32.9809 33.0295 32.975 33.0244C32.9834 33.0325 32.9994 33.0376 33.0086 33.0436C33.0255 33.0538 33.0415 33.0649 33.0574 33.076C33.0751 33.0891 33.0911 33.1043 33.1088 33.1174C33.1306 33.1336 33.0709 33.078 33.0987 33.1083C33.1062 33.1164 33.1146 33.1245 33.1222 33.1336C33.1373 33.1508 33.1516 33.168 33.1659 33.1872C33.1727 33.1963 33.1786 33.2084 33.1861 33.2155C33.1794 33.2054 33.1735 33.1953 33.1668 33.1862C33.1718 33.1943 33.1769 33.2024 33.1811 33.2104C33.2459 33.3247 33.3771 33.3863 33.4814 33.3055C33.5756 33.2327 33.6294 33.0659 33.5604 32.9446C33.4267 32.7101 33.2232 32.5392 32.9893 32.4826C32.7563 32.426 32.5073 32.4604 32.3046 32.616C32.2079 32.6908 32.1599 32.8546 32.2255 32.9779C32.2886 33.0922 32.4232 33.1498 32.5267 33.0699Z" fill="#C57207"/>
<path d="M71.3781 50.7759C71.3352 50.7698 71.2949 50.7668 71.252 50.7607C71.2646 50.7971 71.2864 50.8355 71.2982 50.8719C71.3243 50.8396 71.3512 50.8083 71.3781 50.7759Z" fill="url(#paint2_linear_4488_22505)"/>
<path d="M23.0316 68.8237C22.5908 69.3493 22.1518 69.873 21.6992 70.4108C23.2444 71.1598 24.8367 71.7522 26.4467 72.2658C29.9971 75.0963 34.271 76.6298 38.5651 77.2737C40.419 77.5517 42.7784 77.392 45.3532 76.8623C46.9059 78.5677 48.5537 80.1345 50.3126 81.5549C53.4837 78.7122 56.2797 75.2722 58.5886 71.4116C59.7183 70.6847 60.8051 69.9074 61.8111 69.0703C65.8595 65.701 69.5118 61.3805 71.3657 55.8984C68.2038 53.8534 64.0115 52.4755 60.4434 51.9913C61.7926 51.6345 63.1418 51.2776 64.491 50.9208C66.7983 50.3102 68.9146 50.4295 71.2513 50.7601C70.8585 49.6016 69.9828 48.3349 69.0551 47.8143C65.0159 45.5459 60.3937 46.3556 56.029 47.4484C52.9832 48.2116 50.0855 49.5824 47.2205 51.0664C45.682 50.1424 44.1444 49.2185 42.606 48.2935C42.6413 49.9483 42.908 51.5748 43.4169 53.0629C43.2402 53.1549 43.0644 53.2489 42.8877 53.3399C38.5836 55.5628 34.054 57.533 29.3705 57.4734C26.3895 57.436 23.3201 56.4231 20.8732 54.4397C21.6723 51.6871 21.8733 48.6817 21.4149 45.8168C19.6948 46.6154 17.9275 47.97 16.7154 49.641C13.4391 46.5527 9.64471 44.3884 5.6543 42.958C7.44174 49.4024 11.6744 55.5507 17.888 56.9275C18.6458 61.2986 20.3113 65.3129 22.9668 68.7489C22.9887 68.7762 23.0114 68.7974 23.0316 68.8237Z" fill="url(#paint3_linear_4488_22505)"/>
<path d="M58.6166 70.6658C55.2108 73.5893 51.2557 75.5373 47.124 76.3369C45.959 76.5623 44.7822 76.6897 43.6029 76.7281C43.3203 76.7372 43.3194 77.2659 43.6029 77.2568C47.8423 77.1183 52.0354 75.7849 55.7828 73.3972C56.8426 72.7219 57.8629 71.9597 58.8386 71.1227C59.0666 70.9266 58.847 70.4677 58.6166 70.6658Z" fill="#C57207"/>
<path d="M54.322 75.2818C53.1755 77.1126 51.7355 78.6623 50.1011 79.842C49.8589 80.0169 50.0792 80.4738 50.3232 80.2979C52.0257 79.0697 53.5086 77.4542 54.7013 75.5487C54.8721 75.2768 54.4902 75.0139 54.322 75.2818Z" fill="#C57207"/>
<path d="M50.8659 77.0485C50.5211 77.9027 49.9045 78.583 49.1593 78.8984C49.0474 78.9459 48.9725 79.0784 49.0062 79.2229C49.0356 79.3533 49.1643 79.4554 49.2762 79.4079C50.1274 79.048 50.85 78.2939 51.2453 77.3144C51.2975 77.186 51.2747 77.0293 51.1662 76.9535C51.0703 76.8868 50.9181 76.9201 50.8659 77.0485Z" fill="#C57207"/>
<path d="M28.3338 73.2355C25.3965 71.4351 22.8815 68.7228 21.0856 65.4C20.9317 65.116 20.5515 65.3808 20.7063 65.6669C22.5425 69.0635 25.1088 71.8515 28.1126 73.6914C28.3632 73.846 28.5861 73.3901 28.3338 73.2355Z" fill="#C57207"/>
<path d="M21.4001 45.761C21.7265 47.6099 21.697 49.5467 21.4783 51.4118C21.2596 53.279 20.8516 55.1339 20.2199 56.8626C20.1072 57.1709 20.4858 57.4398 20.5993 57.1294C21.2596 55.321 21.6911 53.3982 21.914 51.4432C22.1344 49.5144 22.1605 47.5331 21.8232 45.6215C21.7651 45.2879 21.3412 45.4284 21.4001 45.761Z" fill="#C57207"/>
<path d="M20.4103 56.7314C17.5916 56.8254 14.8629 55.5789 12.5371 53.731C12.3008 53.543 12.0804 53.9999 12.315 54.1869C14.7014 56.0834 17.5192 57.3561 20.4103 57.259C20.6929 57.2499 20.6937 56.7223 20.4103 56.7314Z" fill="#C57207"/>
<path d="M19.4924 54.8451C18.7261 51.776 17.0338 49.1073 14.7761 47.4039C14.5355 47.223 14.3152 47.6799 14.554 47.8598C16.7141 49.4904 18.335 52.049 19.0685 54.9856C19.1501 55.3101 19.574 55.1726 19.4924 54.8451Z" fill="#C57207"/>
<path d="M47.2388 50.8325C44.9433 52.4368 42.4905 53.6853 39.9342 54.5516C39.6626 54.6436 39.7778 55.1531 40.0512 55.0611C42.6419 54.1836 45.1334 52.915 47.46 51.2894C47.7048 51.1186 47.4844 50.6617 47.2388 50.8325Z" fill="#C57207"/>
<path d="M55.8807 58.9442C53.4565 57.8494 51.1871 56.2774 49.1835 54.3052C49.0548 54.1788 48.8697 54.2203 48.8159 54.4215C48.0976 57.1205 47.3784 59.8196 46.66 62.5187C46.5734 62.8432 46.9982 62.9817 47.084 62.6592C47.8023 59.9601 48.5215 57.261 49.2398 54.563C49.1179 54.6014 48.9951 54.6408 48.8723 54.6792C50.9381 56.7131 53.263 58.3245 55.7638 59.4537C56.0287 59.573 56.1431 59.0625 55.8807 58.9442Z" fill="#C57207"/>
<path d="M53.2338 60.3049C51.1394 61.2086 49.0146 61.9223 46.8134 62.3338C46.5349 62.3863 46.6527 62.8948 46.9303 62.8433C49.1307 62.4308 51.2563 61.7181 53.3508 60.8144C53.6149 60.7002 53.5013 60.1897 53.2338 60.3049Z" fill="#C57207"/>
<path d="M51.1102 57.6862C51.0539 57.7135 50.9967 57.7368 50.937 57.753C50.9092 57.761 50.8806 57.7671 50.8528 57.7722C50.8848 57.7661 50.8663 57.7701 50.8445 57.7722C50.8318 57.7732 50.8192 57.7742 50.8066 57.7752C50.746 57.7792 50.6855 57.7752 50.6249 57.7701C50.582 57.7671 50.6434 57.7752 50.6165 57.7691C50.6039 57.7661 50.5913 57.7641 50.5786 57.761C50.5475 57.754 50.5156 57.7459 50.4853 57.7358C50.4575 57.7267 50.4298 57.7166 50.4029 57.7054C50.3911 57.7004 50.3785 57.6953 50.3667 57.6903C50.3095 57.666 50.3885 57.7034 50.3574 57.6862C50.3019 57.6559 50.2489 57.6226 50.1976 57.5831C50.1867 57.575 50.1757 57.5659 50.1656 57.5579C50.1656 57.5579 50.1194 57.5184 50.1413 57.5376C50.164 57.5569 50.1227 57.5194 50.1185 57.5154C50.1084 57.5053 50.0992 57.4952 50.0899 57.4851C50.0664 57.4598 50.0437 57.4325 50.0218 57.4042C50.0134 57.3931 50.005 57.382 49.9966 57.3698C49.9932 57.3658 49.9545 57.3061 49.9831 57.3516C49.9141 57.2414 49.7905 57.1737 49.682 57.2566C49.592 57.3264 49.5289 57.5002 49.6029 57.6175C49.9705 58.2008 50.6501 58.4757 51.2272 58.1937C51.3332 58.1422 51.4206 58.0158 51.3811 57.8692C51.3475 57.7479 51.2246 57.6306 51.1102 57.6862Z" fill="#C57207"/>
<path d="M51.9356 59.0925C51.6572 59.4443 51.2476 59.6384 50.843 59.5727C50.4586 59.509 50.1162 59.2209 49.9211 58.8226C49.7781 58.5294 49.3979 58.7953 49.5417 59.0895C49.81 59.6394 50.2811 60.0165 50.8076 60.0963C51.3367 60.1762 51.881 59.9305 52.2469 59.4676C52.4412 59.2199 52.1308 58.8459 51.9356 59.0925Z" fill="#C57207"/>
<path d="M60.9935 60.6273C61.2762 60.6273 61.277 60.0986 60.9935 60.0986C60.7109 60.0986 60.7101 60.6273 60.9935 60.6273Z" fill="#C57207"/>
<path d="M71.3766 55.9596C68.1356 53.1897 64.2731 51.5268 60.3113 51.1487C59.1799 51.0406 58.0435 51.0426 56.9122 51.1487C56.6321 51.175 56.6296 51.7037 56.9122 51.6774C60.8294 51.3085 64.8106 52.2466 68.3232 54.3644C69.3099 54.9598 70.2562 55.6462 71.1554 56.4155C71.3858 56.6126 71.6054 56.1547 71.3766 55.9596Z" fill="#C57207"/>
<path d="M62.4257 66.5287C62.0346 65.8261 61.5551 65.1761 60.8856 64.8607C60.2614 64.5676 59.5078 64.6434 59.0216 65.2358C58.5791 65.7746 58.4588 66.6227 58.8777 67.2292C59.231 67.7397 59.9182 67.9429 60.3455 67.4415C60.7501 66.9654 60.7468 66.0698 60.2496 65.6917C60.0099 65.5097 59.7895 65.9666 60.0276 66.1476C60.2749 66.3356 60.2311 66.7996 60.0595 67.0362C59.8047 67.3869 59.3538 67.1443 59.1696 66.8219C58.9181 66.3821 59.1065 65.8191 59.4228 65.5077C59.8072 65.1306 60.3582 65.1589 60.7939 65.3813C61.333 65.6563 61.7275 66.2224 62.0455 66.7936C62.2028 67.0766 62.5838 66.8128 62.4257 66.5287Z" fill="#C57207"/>
<path d="M54.3242 67.9298C50.4196 70.5672 45.9371 71.9067 41.4597 71.7955C37.1967 71.6893 32.9969 70.2205 29.3261 67.6185C27.2905 66.1749 25.4316 64.3937 23.8099 62.3265C23.6156 62.0788 23.3052 62.4528 23.4986 62.6995C26.4242 66.4307 30.1336 69.242 34.1871 70.8361C38.4358 72.5082 43.0184 72.7619 47.3873 71.6378C49.8922 70.9928 52.3122 69.894 54.5455 68.3857C54.7927 68.2189 54.5715 67.762 54.3242 67.9298Z" fill="#C57207"/>
<path d="M26.3862 59.9098C26.4939 59.8198 26.6024 59.7289 26.71 59.6389C26.8 59.5641 26.8631 59.4003 26.7891 59.278C26.594 58.9576 26.3996 58.6381 26.2045 58.3177C26.1364 58.2065 26.011 58.1397 25.9042 58.2226C25.8125 58.2934 25.7528 58.4653 25.8252 58.5845C26.0203 58.905 26.2155 59.2244 26.4098 59.5449C26.4358 59.4246 26.4627 59.3043 26.4888 59.184C26.3812 59.274 26.2726 59.3649 26.165 59.4549C26.0708 59.5338 26.0186 59.6894 26.0859 59.8158C26.1456 59.927 26.2853 59.9947 26.3862 59.9098Z" fill="#C57207"/>
<path d="M24.9005 59.903C25.0822 59.6816 25.1301 59.3561 25.057 59.0629C24.9905 58.797 24.8324 58.5372 24.6187 58.42C24.4732 58.3401 24.321 58.3159 24.1645 58.3624C24.0526 58.3957 23.9753 58.5534 24.0106 58.6868C24.0484 58.8253 24.1611 58.9072 24.2814 58.8708C24.2949 58.8668 24.3083 58.8648 24.321 58.8607C24.2528 58.883 24.2882 58.8648 24.3117 58.8638C24.3243 58.8627 24.3378 58.8627 24.3504 58.8638C24.374 58.8658 24.4093 58.883 24.3395 58.8607C24.3639 58.8688 24.3891 58.8739 24.4135 58.884C24.464 58.9052 24.3723 58.8597 24.4051 58.8789C24.4169 58.886 24.4278 58.8921 24.4396 58.9002C24.4505 58.9082 24.4614 58.9163 24.4724 58.9244C24.4883 58.9376 24.5203 58.976 24.4673 58.9173C24.4867 58.9386 24.5077 58.9588 24.5262 58.981C24.5355 58.9921 24.5447 59.0043 24.5531 59.0164C24.5884 59.0659 24.5287 58.9739 24.5498 59.0103C24.5649 59.0366 24.58 59.0639 24.5935 59.0922C24.6002 59.1064 24.607 59.1205 24.6129 59.1347C24.6213 59.1549 24.6364 59.2115 24.6112 59.1266C24.6204 59.1569 24.6297 59.1862 24.6372 59.2176C24.644 59.2469 24.6541 59.354 24.6473 59.2519C24.6499 59.2833 24.6524 59.3136 24.6515 59.3449C24.6515 59.3601 24.6499 59.3763 24.649 59.3914C24.6465 59.4359 24.6608 59.3136 24.6498 59.3783C24.6448 59.4086 24.6372 59.4369 24.6288 59.4663C24.617 59.5077 24.6566 59.3985 24.6314 59.4561C24.6255 59.4703 24.6187 59.4834 24.612 59.4966C24.5826 59.5512 24.6415 59.4582 24.6171 59.4905C24.6078 59.5026 24.5994 59.5148 24.5893 59.5269C24.5085 59.625 24.501 59.8039 24.5893 59.9009C24.6768 59.999 24.8139 60.0081 24.9005 59.903Z" fill="#C57207"/>
<path d="M25.9649 62.455C26.2711 62.3438 26.5075 61.9647 26.4713 61.5735C26.4318 61.154 26.1517 60.8346 25.8018 60.8042C25.6865 60.7941 25.5772 60.9326 25.5822 61.0681C25.5881 61.2197 25.6789 61.3218 25.8018 61.3319C25.8497 61.336 25.7488 61.3178 25.7959 61.3299C25.8085 61.3329 25.8211 61.336 25.8346 61.34C25.848 61.344 25.8598 61.3491 25.8724 61.3542C25.9094 61.3683 25.8388 61.3339 25.8623 61.3491C25.8833 61.3633 25.9052 61.3754 25.9254 61.3926C25.9456 61.4087 25.9523 61.432 25.9229 61.3895C25.9304 61.4007 25.9431 61.4108 25.9523 61.4219C25.9599 61.431 25.9675 61.4411 25.975 61.4502C25.9809 61.4573 26.0146 61.4967 25.9868 61.4664C25.9616 61.4391 25.9868 61.4684 25.9927 61.4785C25.9994 61.4916 26.0062 61.5058 26.0129 61.5189C26.0163 61.526 26.0188 61.5331 26.0213 61.5402C26.0289 61.5584 26.0255 61.5493 26.012 61.5129C26.012 61.526 26.0221 61.5452 26.0246 61.5573C26.028 61.5695 26.0305 61.5826 26.0331 61.5958C26.044 61.6554 26.0322 61.5614 26.0331 61.5877C26.0339 61.617 26.0348 61.6453 26.0339 61.6746C26.0322 61.7302 26.0457 61.6129 26.0348 61.6665C26.0322 61.6797 26.0306 61.6918 26.0272 61.7049C26.0238 61.7201 26.0205 61.7353 26.0154 61.7504C26.0019 61.7959 26.0104 61.7484 26.0205 61.7383C26.0062 61.7514 25.9935 61.802 25.9826 61.8212C25.9801 61.8252 25.9775 61.8303 25.975 61.8343C25.9616 61.8566 25.9649 61.8515 25.986 61.8192C25.9784 61.8232 25.97 61.8414 25.9641 61.8495C25.9523 61.8647 25.9178 61.8909 25.9111 61.9091C25.9363 61.8859 25.9431 61.8798 25.9296 61.892C25.9246 61.897 25.9187 61.9011 25.9136 61.9051C25.9027 61.9132 25.8909 61.9213 25.88 61.9294C25.8758 61.9314 25.8724 61.9344 25.8682 61.9364C25.8472 61.9486 25.8522 61.9455 25.885 61.9294C25.8758 61.9283 25.8564 61.9415 25.8472 61.9445C25.737 61.9839 25.6562 62.1315 25.6941 62.27C25.7311 62.4045 25.8472 62.4985 25.9649 62.455Z" fill="#C57207"/>
<path d="M41.0473 67.8447C37.9006 67.7648 34.8136 66.6175 32.1749 64.5573C31.9368 64.3713 31.7165 64.8292 31.9528 65.0132C34.6554 67.1229 37.8266 68.2915 41.0473 68.3724C41.3308 68.3805 41.3308 67.8518 41.0473 67.8447Z" fill="#C57207"/>
<path d="M13.18 48.8314C12.1261 47.7406 10.898 46.9238 9.56728 46.4356C9.29643 46.3365 9.18037 46.846 9.45038 46.945C10.7062 47.405 11.8737 48.1753 12.8688 49.2054C13.0833 49.4258 13.3954 49.0538 13.18 48.8314Z" fill="#C57207"/>
<path d="M14.3894 52.3569C13.3128 51.7574 12.3143 50.9729 11.4319 50.0197C11.2216 49.7932 10.9104 50.1652 11.1207 50.3937C12.0308 51.3763 13.057 52.1951 14.1674 52.8138C14.4222 52.9553 14.646 52.5004 14.3894 52.3569Z" fill="#C57207"/>
<path d="M20.1467 52.7032C20.6994 51.4678 20.6682 49.9212 20.0542 48.7253C19.9062 48.4362 19.5251 48.7021 19.6749 48.9922C20.2056 50.0263 20.2468 51.3637 19.7674 52.4363C19.6336 52.7355 20.013 53.0024 20.1467 52.7032Z" fill="#C57207"/>
<path d="M68.9314 58.625C67.2609 56.5072 65.0192 55.0586 62.627 54.5511C61.324 54.2741 60.0497 54.3742 58.7367 54.447C57.5027 54.5157 56.1224 54.45 55.118 53.4654C54.6504 53.0075 54.3358 52.3747 54.2828 51.6458C54.2323 50.9594 54.4073 50.2285 54.885 49.808C55.1105 49.6089 54.8918 49.1499 54.663 49.3521C53.8109 50.1032 53.646 51.5043 54.0431 52.6324C54.5074 53.9517 55.6934 54.6492 56.8104 54.8807C58.253 55.1789 59.7124 54.8038 61.1634 54.8827C62.4773 54.9545 63.7861 55.3255 64.9931 55.9542C66.36 56.6669 67.5956 57.7 68.621 58.999C68.8162 59.2457 69.1265 58.8717 68.9314 58.625Z" fill="#C57207"/>
<path d="M44.1475 50.0163C44.1256 50.0345 44.1029 50.0486 44.0785 50.0618C44.0962 50.0527 44.1139 50.0436 44.1307 50.0355C44.0945 50.0537 44.0567 50.0658 44.0171 50.0719C44.0365 50.0689 44.0558 50.0658 44.0752 50.0628C44.0331 50.0689 43.9911 50.0689 43.949 50.0618C43.9684 50.0648 43.9877 50.0678 44.0071 50.0709C43.965 50.0638 43.9246 50.0496 43.8859 50.0304C43.9036 50.0395 43.9213 50.0486 43.9381 50.0567C43.9044 50.0385 43.8725 50.0163 43.843 49.99C43.8582 50.0042 43.8725 50.0173 43.8876 50.0315C43.8649 50.0102 43.8439 49.986 43.8254 49.9587C43.7909 49.9091 43.7219 49.8818 43.6697 49.8818C43.6159 49.8818 43.5511 49.9112 43.5141 49.9587C43.4754 50.0092 43.4469 50.0749 43.4494 50.1457C43.4519 50.2195 43.4746 50.2761 43.5141 50.3327C43.7152 50.6178 44.1097 50.6804 44.3679 50.4722C44.4158 50.4338 44.4537 50.3822 44.4689 50.3145C44.4831 50.2508 44.4764 50.1669 44.447 50.1113C44.3873 49.9971 44.2493 49.9344 44.1475 50.0163Z" fill="#C57207"/>
<path d="M44.563 51.1903C44.5454 51.2034 44.5277 51.2166 44.5092 51.2277C44.4999 51.2337 44.4899 51.2378 44.4814 51.2439C44.4587 51.26 44.5302 51.2226 44.494 51.2368C44.4545 51.2519 44.415 51.2651 44.3746 51.2752C44.3368 51.2843 44.4175 51.2722 44.3897 51.2732C44.3797 51.2732 44.3687 51.2752 44.3586 51.2762C44.3376 51.2782 44.3174 51.2782 44.2964 51.2782C44.2754 51.2782 44.2552 51.2752 44.2341 51.2732C44.1954 51.2701 44.2762 51.2833 44.2493 51.2762C44.2392 51.2732 44.2282 51.2722 44.2181 51.2691C44.1769 51.259 44.1374 51.2439 44.0979 51.2267C44.0693 51.2145 44.1097 51.2307 44.1155 51.2358C44.1071 51.2277 44.0911 51.2226 44.0819 51.2166C44.0651 51.2064 44.0491 51.1953 44.0331 51.1842C44.0155 51.1711 43.9995 51.1559 43.9818 51.1428C43.9591 51.1256 44.0196 51.1822 43.9919 51.1519C43.9843 51.1438 43.9759 51.1357 43.9683 51.1276C43.9532 51.1104 43.9389 51.0932 43.9246 51.074C43.9179 51.0649 43.912 51.0528 43.9044 51.0457C43.9111 51.0558 43.917 51.0659 43.9238 51.075C43.9187 51.0669 43.9137 51.0589 43.9095 51.0508C43.8447 50.9365 43.7135 50.8749 43.6083 50.9558C43.5141 51.0285 43.4603 51.1953 43.5292 51.3177C43.663 51.5522 43.8666 51.722 44.1004 51.7796C44.3334 51.8362 44.5824 51.8019 44.7851 51.6462C44.8818 51.5714 44.9298 51.4076 44.8642 51.2853C44.8011 51.168 44.6665 51.1104 44.563 51.1903Z" fill="#C57207"/>
<path d="M50.9955 1.93282C51.4397 1.93282 51.7997 1.50015 51.7997 0.966413C51.7997 0.432679 51.4397 0 50.9955 0C50.5514 0 50.1914 0.432679 50.1914 0.966413C50.1914 1.50015 50.5514 1.93282 50.9955 1.93282Z" fill="url(#paint4_linear_4488_22505)"/>
<path d="M4.52037 67.2843C5.24786 67.2843 5.83759 66.5755 5.83759 65.7012C5.83759 64.8269 5.24786 64.1182 4.52037 64.1182C3.79288 64.1182 3.20312 64.8269 3.20312 65.7012C3.20312 66.5755 3.79288 67.2843 4.52037 67.2843Z" fill="url(#paint5_linear_4488_22505)"/>
<path d="M78.6825 71.0841C79.41 71.0841 79.9997 70.3753 79.9997 69.501C79.9997 68.6267 79.41 67.918 78.6825 67.918C77.955 67.918 77.3652 68.6267 77.3652 69.501C77.3652 70.3753 77.955 71.0841 78.6825 71.0841Z" fill="url(#paint6_linear_4488_22505)"/>
<path d="M2.80861 50.3298C2.09111 50.3298 1.78828 48.6993 1.73276 48.0715C1.72099 47.9371 1.6268 47.835 1.51408 47.835C1.40137 47.835 1.30715 47.9371 1.29538 48.0715C1.23986 48.6993 0.937054 50.3298 0.219554 50.3298C0.0975875 50.3298 0 50.4481 0 50.5937C0 50.7403 0.0984286 50.8575 0.219554 50.8575C0.937054 50.8575 1.23986 52.4881 1.29538 53.1159C1.30715 53.2503 1.40137 53.3524 1.51408 53.3524C1.6268 53.3524 1.72015 53.2503 1.73276 53.1159C1.78828 52.4871 2.09111 50.8575 2.80861 50.8575C2.92974 50.8575 3.02814 50.7393 3.02814 50.5937C3.02814 50.4481 2.92974 50.3298 2.80861 50.3298Z" fill="url(#paint7_linear_4488_22505)"/>
<path d="M63.0633 5.87932C62.5965 5.87932 62.3997 4.81889 62.3635 4.41049C62.3559 4.32356 62.2945 4.25684 62.2213 4.25684C62.1482 4.25684 62.0867 4.32356 62.0792 4.41049C62.043 4.81889 61.8462 5.87932 61.3793 5.87932C61.3003 5.87932 61.2363 5.95615 61.2363 6.05117C61.2363 6.14619 61.3003 6.22302 61.3793 6.22302C61.8462 6.22302 62.043 7.28345 62.0792 7.69185C62.0867 7.77878 62.1482 7.8455 62.2213 7.8455C62.2945 7.8455 62.3559 7.77878 62.3635 7.69185C62.3997 7.28345 62.5965 6.22302 63.0633 6.22302C63.1424 6.22302 63.2063 6.14619 63.2063 6.05117C63.2063 5.95615 63.1424 5.87932 63.0633 5.87932Z" fill="url(#paint8_linear_4488_22505)"/>
<path d="M28.4207 46.2504C27.9539 46.2504 27.7571 45.19 27.7209 44.7816C27.7133 44.6946 27.6519 44.6279 27.5788 44.6279C27.5056 44.6279 27.4442 44.6946 27.4366 44.7816C27.4004 45.19 27.2036 46.2504 26.7368 46.2504C26.6577 46.2504 26.5938 46.3272 26.5938 46.4223C26.5938 46.5173 26.6577 46.5941 26.7368 46.5941C27.2036 46.5941 27.4004 47.6545 27.4366 48.0629C27.4442 48.1499 27.5056 48.2166 27.5788 48.2166C27.6519 48.2166 27.7133 48.1499 27.7209 48.0629C27.7571 47.6545 27.9539 46.5941 28.4207 46.5941C28.4998 46.5941 28.5637 46.5173 28.5637 46.4223C28.5637 46.3272 28.4998 46.2504 28.4207 46.2504Z" fill="url(#paint9_linear_4488_22505)"/>
<path d="M75.7513 54.8983C75.4215 54.8983 75.2819 54.1482 75.2566 53.8601C75.2508 53.7985 75.2079 53.752 75.1566 53.752C75.1044 53.752 75.0615 53.7995 75.0565 53.8601C75.0304 54.1492 74.8916 54.8983 74.5619 54.8983C74.5064 54.8983 74.4609 54.9529 74.4609 55.0196C74.4609 55.0873 74.5064 55.1409 74.5619 55.1409C74.8916 55.1409 75.0312 55.891 75.0565 56.1801C75.0624 56.2418 75.1053 56.2883 75.1566 56.2883C75.2079 56.2883 75.2516 56.2408 75.2566 56.1801C75.2827 55.891 75.4215 55.1409 75.7513 55.1409C75.8068 55.1409 75.8522 55.0863 75.8522 55.0196C75.8522 54.9529 75.8068 54.8983 75.7513 54.8983Z" fill="url(#paint10_linear_4488_22505)"/>
<path d="M67.1019 79.9864C66.1497 79.9864 65.7485 77.8221 65.6736 76.9892C65.6576 76.8112 65.5331 76.6758 65.3834 76.6758C65.2345 76.6758 65.1092 76.8112 65.0932 76.9892C65.0192 77.8221 64.6171 79.9864 63.6649 79.9864C63.5034 79.9864 63.373 80.1431 63.373 80.3372C63.373 80.5313 63.5034 80.688 63.6649 80.688C64.6171 80.688 65.0183 82.8523 65.0932 83.6863C65.1092 83.8642 65.2337 83.9997 65.3834 83.9997C65.5331 83.9997 65.6576 83.8642 65.6736 83.6863C65.7476 82.8523 66.1497 80.688 67.1019 80.688C67.2634 80.688 67.3937 80.5313 67.3937 80.3372C67.3937 80.1431 67.2634 79.9864 67.1019 79.9864Z" fill="url(#paint11_linear_4488_22505)"/>
<path d="M42.4102 34.0222C42.4102 33.1842 42.9754 32.5049 43.6727 32.5049C44.37 32.5049 44.9353 33.1842 44.9353 34.0222C44.9353 34.8603 44.37 35.5396 43.6727 35.5396C42.9754 35.5396 42.4102 34.8603 42.4102 34.0222Z" fill="url(#paint12_linear_4488_22505)"/>
<path d="M57.4473 44.4512C57.4473 44.0691 57.7047 43.7598 58.0226 43.7598C58.3406 43.7598 58.598 44.0691 58.598 44.4512C58.598 44.8333 58.3406 45.1427 58.0226 45.1427C57.7047 45.1427 57.4473 44.8323 57.4473 44.4512Z" fill="url(#paint13_linear_4488_22505)"/>
</g>
<defs>
<linearGradient id="paint0_linear_4488_22505" x1="5.66173" y1="-5.72363" x2="6.03773" y2="85.0062" gradientUnits="userSpaceOnUse">
<stop stop-color="#EBCB76"/>
<stop offset="1" stop-color="#E19256"/>
</linearGradient>
<linearGradient id="paint1_linear_4488_22505" x1="64.655" y1="0.364391" x2="27.3021" y2="33.3878" gradientUnits="userSpaceOnUse">
<stop stop-color="#EBCB76"/>
<stop offset="1" stop-color="#E19256"/>
</linearGradient>
<linearGradient id="paint2_linear_4488_22505" x1="71.1519" y1="-6.03729" x2="71.5284" y2="84.778" gradientUnits="userSpaceOnUse">
<stop stop-color="#EBCB76"/>
<stop offset="1" stop-color="#E19256"/>
</linearGradient>
<linearGradient id="paint3_linear_4488_22505" x1="38.3524" y1="-5.88432" x2="38.7286" y2="84.9038" gradientUnits="userSpaceOnUse">
<stop stop-color="#EBCB76"/>
<stop offset="1" stop-color="#E19256"/>
</linearGradient>
<linearGradient id="paint4_linear_4488_22505" x1="51.0416" y1="-2.78612" x2="49.5368" y2="82.5123" gradientUnits="userSpaceOnUse">
<stop stop-color="#EBCB76"/>
<stop offset="1" stop-color="#E19256"/>
</linearGradient>
<linearGradient id="paint5_linear_4488_22505" x1="5.36706" y1="-3.59161" x2="3.86219" y2="81.7098" gradientUnits="userSpaceOnUse">
<stop stop-color="#EBCB76"/>
<stop offset="1" stop-color="#E19256"/>
</linearGradient>
<linearGradient id="paint6_linear_4488_22505" x1="79.559" y1="-2.28258" x2="78.0542" y2="83.0187" gradientUnits="userSpaceOnUse">
<stop stop-color="#EBCB76"/>
<stop offset="1" stop-color="#E19256"/>
</linearGradient>
<linearGradient id="paint7_linear_4488_22505" x1="2.17673" y1="-3.64821" x2="0.671873" y2="81.6526" gradientUnits="userSpaceOnUse">
<stop stop-color="#EBCB76"/>
<stop offset="1" stop-color="#E19256"/>
</linearGradient>
<linearGradient id="paint8_linear_4488_22505" x1="62.327" y1="-2.5872" x2="60.8221" y2="82.7146" gradientUnits="userSpaceOnUse">
<stop stop-color="#EBCB76"/>
<stop offset="1" stop-color="#E19256"/>
</linearGradient>
<linearGradient id="paint9_linear_4488_22505" x1="28.1852" y1="-3.18956" x2="26.6804" y2="82.1124" gradientUnits="userSpaceOnUse">
<stop stop-color="#EBCB76"/>
<stop offset="1" stop-color="#E19256"/>
</linearGradient>
<linearGradient id="paint10_linear_4488_22505" x1="75.8564" y1="-2.34939" x2="74.3514" y2="82.9534" gradientUnits="userSpaceOnUse">
<stop stop-color="#EBCB76"/>
<stop offset="1" stop-color="#E19256"/>
</linearGradient>
<linearGradient id="paint11_linear_4488_22505" x1="66.396" y1="-2.51462" x2="64.8911" y2="82.786" gradientUnits="userSpaceOnUse">
<stop stop-color="#EBCB76"/>
<stop offset="1" stop-color="#E19256"/>
</linearGradient>
<linearGradient id="paint12_linear_4488_22505" x1="44.124" y1="-2.90885" x2="42.6192" y2="82.3934" gradientUnits="userSpaceOnUse">
<stop stop-color="#EBCB76"/>
<stop offset="1" stop-color="#E19256"/>
</linearGradient>
<linearGradient id="paint13_linear_4488_22505" x1="58.5977" y1="-2.65163" x2="57.093" y2="82.6483" gradientUnits="userSpaceOnUse">
<stop stop-color="#EBCB76"/>
<stop offset="1" stop-color="#E19256"/>
</linearGradient>
<clipPath id="clip0_4488_22505">
<rect width="80" height="84" fill="white"/>
</clipPath>
</defs>
</svg>
