<svg width="80" height="84" viewBox="0 0 80 84" fill="none" xmlns="http://www.w3.org/2000/svg">
<g clip-path="url(#clip0_4488_22791)">
<path d="M72.826 6.43862C72.5909 2.30151 68.7498 -1.83366 64.8212 0.857913C63.6924 1.63175 64.7429 3.55334 65.8799 2.77372C68.3954 1.04969 70.5592 3.91858 70.7287 6.43862C70.8881 8.81218 69.9269 11.0923 69.1616 13.2654C68.3398 15.5965 67.744 18.0848 68.0546 20.4256C67.9043 20.6597 67.784 20.9151 67.7321 21.1994C61.0002 21.2688 54.0988 21.4625 47.3668 21.5309C47.3978 20.5557 47.5245 19.7462 47.5554 18.7709C48.5585 18.8393 49.1425 17.5885 49.3657 16.5516C49.589 15.5146 49.3421 14.4363 49.0961 13.4051C49.486 13.4543 49.9497 13.5728 50.3324 13.4803C50.715 13.3878 51.0849 13.1247 51.207 12.7305C51.3291 12.3374 51.1797 11.896 50.9264 11.5818C50.6722 11.2677 50.3269 11.0556 49.988 10.8494C50.3014 9.94934 50.1657 8.97601 49.7611 8.12507C50.5647 7.75502 51.2453 7.07562 51.5879 6.21987C52.1227 4.88612 51.8056 3.21991 50.8253 2.209C50.4745 1.84665 50.0363 1.56044 49.5516 1.47949C49.0669 1.39854 48.6433 1.64043 48.3125 2.02301C47.4534 1.23086 46.3173 0.783707 45.1775 0.788526C44.0378 0.793344 42.9235 1.29061 42.0708 2.08951C40.9173 1.89388 39.6901 2.24273 38.7854 3.02332C37.8798 3.80487 37.7568 5.21667 37.1601 6.27865C36.823 6.8771 36.4859 7.48422 36.2882 8.14917C36.0905 8.81411 36.0413 9.55037 36.2818 10.1999C36.4276 10.5931 36.8366 10.8889 37.1546 11.1453C37.0999 12.6033 37.5218 14.0363 38.226 15.291C37.9554 15.7189 37.9263 16.2827 38.0602 16.778C38.195 17.2734 38.4766 17.7099 38.7918 18.1031C39.5398 19.0379 40.5083 19.7616 41.5779 20.2319C41.5733 20.5017 41.5815 20.7889 41.5642 21.0375C38.0092 20.8853 34.3922 20.2039 30.8372 20.0517C29.7539 20.0054 28.6333 19.9649 27.6247 20.387C26.6162 20.8091 25.8864 21.8258 25.8081 22.9697C25.7306 24.1069 26.044 24.8932 26.5114 25.5341C27.1501 26.4091 27.7213 26.7907 28.606 27.2234C30.8791 28.3365 33.9585 27.8913 36.4494 28.1659C36.5132 33.2233 36.7337 42.8139 36.7337 42.8139C29.518 43.3989 22.4553 46.7275 17.7605 52.553C16.0869 51.2183 13.7254 51.3782 11.7338 52.0702C9.74214 52.7631 7.90086 53.9166 5.86187 54.4322C3.82288 54.9468 1.3894 54.6567 0.0801839 52.9249C-0.367154 55.8729 1.09057 58.8969 3.62063 60.221C6.15068 61.5451 9.46426 60.9226 11.4076 58.7581C12.2285 57.8436 12.8079 56.7084 13.647 55.8131C14.4861 54.9179 15.7425 54.2712 16.8631 54.701C15.5147 58.6868 16.6363 63.2113 19.3585 66.3144C16.9806 67.4005 14.9189 69.9996 14.0005 72.562C15.1111 76.013 15.3516 80.0132 14.9808 83.6377C16.6636 83.683 18.606 83.9547 20.2888 84C19.9744 82.7964 19.3768 81.9926 18.36 81.3585C18.2735 78.6034 18.0083 75.9657 17.9218 73.2106C20.286 72.8299 22.4808 71.7072 24.1827 69.9302C25.8846 68.1531 27.0371 65.7969 27.427 63.301C27.9883 63.1834 28.5659 63.0466 29.1526 62.8943C29.2237 63.5708 29.3412 64.2415 29.5526 64.8853C27.438 66.1072 25.5129 68.4326 24.4451 70.7175C25.3562 74.8055 25.3735 79.3589 24.8341 83.5201C26.1506 83.4314 27.2858 83.4382 28.6023 83.3495C29.3713 83.2975 30.1402 83.2464 30.9073 83.1683C30.5548 81.7951 29.7594 80.6734 28.6697 79.8388C28.5568 77.1019 28.3928 74.42 28.2798 71.6822C31.7628 71.0721 34.8833 68.7738 36.7683 65.6167C37.8853 63.7462 38.5166 61.5721 38.6542 59.3662C42.9691 57.277 46.9733 54.6085 49.5033 51.6991C51.6161 51.4852 53.7289 51.2703 55.8162 51.1132C55.9237 54.0708 55.9064 56.9002 56.0148 59.8568C55.326 60.3405 54.6172 60.7453 53.9293 61.229C54.4559 62.5657 55.4818 63.4821 56.5159 64.4323C57.9244 63.9852 58.9412 62.6225 59.4131 61.1491C59.6399 60.4398 59.7557 59.7035 59.8167 58.9576C60.264 59.532 60.7624 60.0591 61.3318 60.4803C62.8178 59.5503 63.9502 57.9679 64.6463 56.2969C64.6463 56.2969 64.6673 49.5116 64.373 45.7908C64.4277 46.0442 64.5607 46.2852 64.8212 46.4634C68.7425 49.1502 72.6 45.0256 72.826 40.8827C73.0628 36.5461 69.0586 31.0994 70.11 26.7445C70.2786 26.7233 70.4471 26.704 70.6111 26.6462C71.4976 26.3349 72.3212 26.4737 72.5663 25.5196C72.8068 24.5839 72.3057 23.439 71.4211 23.2164C71.4156 23.1981 71.3992 23.1817 71.3928 23.1634C72.2028 22.0292 72.0962 20.0748 70.8753 19.486C70.5774 19.3424 70.2549 19.2894 69.9333 19.3058C69.7793 15.1966 73.0492 10.3685 72.826 6.43862ZM60.3524 54.6451C60.1939 54.7887 60.0117 54.9641 59.8213 55.1501C59.7803 53.3711 59.732 51.5922 59.6254 49.8161C59.5707 48.9112 59.4641 47.907 58.8163 47.3124C58.1877 46.7342 57.2657 46.7429 56.4339 46.7814C54.9862 46.8499 53.5376 46.9173 52.0899 46.9858C52.1883 46.5251 52.1855 46.8913 52.1855 46.4287C54.9907 46.4008 57.6392 46.7072 60.4444 46.6793C60.418 49.6041 60.3788 51.7203 60.3524 54.6451ZM70.7287 40.8837C70.5537 43.3951 68.4081 46.2803 65.8799 44.5486C65.08 44.0003 64.3384 44.7905 64.3539 45.5759C64.3402 45.4198 64.3274 45.2607 64.3129 45.1181C64.2154 44.1602 63.5111 43.3652 62.6902 42.9469C61.8694 42.5287 60.941 42.4256 60.0317 42.3562C57.2311 42.1432 54.1835 42.1625 51.3911 42.4757L51.3264 42.4959C51.3984 37.4096 51.1833 32.1267 51.2553 27.0394C57.1245 26.6346 62.334 26.6009 67.836 26.6471C67.9198 26.6481 68.0045 26.6597 68.0883 26.6645C67.703 29.0718 68.3134 31.6477 69.1607 34.0569C69.9251 36.2271 70.8945 38.513 70.7287 40.8837Z" fill="url(#paint0_linear_4488_22791)"/>
<path d="M74.8535 21.4092L75.1715 25.5251C75.1715 25.5251 79.5164 23.4358 79.613 23.3876C79.7095 23.3394 74.8535 21.4092 74.8535 21.4092Z" fill="url(#paint1_linear_4488_22791)"/>
<path d="M37.0248 43.1177C41.5775 42.2243 46.2404 42.0354 50.8449 42.5443C51.1492 42.578 51.1474 42.074 50.8449 42.0403C46.1966 41.5266 41.4937 41.7309 36.8982 42.632C36.5975 42.6907 36.7251 43.1765 37.0248 43.1177Z" fill="#C57207"/>
<path d="M27.4843 63.2404C31.7372 62.0339 36.0129 60.8119 40.018 58.8402C43.5001 57.1268 46.7709 54.8149 49.2964 51.7263C50.6621 50.0562 51.7791 48.1799 52.558 46.1292C52.6719 45.8285 52.2118 45.6975 52.0989 45.9953C50.7259 49.612 48.2259 52.636 45.3013 54.9575C42.0269 57.5576 38.2305 59.2893 34.3575 60.626C32.0488 61.4229 29.7028 62.0888 27.3577 62.7538C27.0625 62.8386 27.1882 63.3243 27.4843 63.2404Z" fill="#C57207"/>
<path d="M55.9575 51.228C56.6827 50.6999 57.2084 49.8923 57.3906 48.9778C57.417 48.8448 57.3533 48.7051 57.2239 48.6684C57.1054 48.6338 56.9578 48.7109 56.9314 48.8448C56.7747 49.6283 56.3429 50.3385 55.717 50.7943C55.6113 50.8714 55.563 51.015 55.6313 51.1393C55.6933 51.2492 55.8509 51.3061 55.9575 51.228Z" fill="#C57207"/>
<path d="M60.4376 47.0835C60.7884 46.8792 61.0991 46.5814 61.3642 46.2672C61.6357 45.9463 61.8917 45.5801 62.0138 45.1638C62.052 45.0337 61.9682 44.8892 61.848 44.8545C61.7204 44.8178 61.5938 44.8998 61.5555 45.0308C61.5437 45.0703 61.5309 45.1089 61.5163 45.1474C61.5355 45.0944 61.51 45.1609 61.5081 45.1677C61.499 45.1879 61.4899 45.2081 61.4808 45.2284C61.4407 45.3141 61.3943 45.397 61.3451 45.477C61.2348 45.6572 61.1492 45.7709 61.0116 45.9309C60.8813 46.0832 60.741 46.2277 60.5925 46.3597C60.5743 46.3761 60.5561 46.3915 60.5378 46.407C60.5315 46.4127 60.4795 46.4552 60.5132 46.4282C60.4777 46.4571 60.4422 46.485 60.4057 46.511C60.3392 46.5602 60.27 46.6064 60.1989 46.6479C60.0859 46.7134 60.0495 46.8772 60.1133 46.9919C60.178 47.1133 60.3247 47.149 60.4376 47.0835Z" fill="#C57207"/>
<path d="M60.6204 54.8435C61.6235 54.5399 62.7086 54.7374 63.5641 55.3667C63.8165 55.5518 64.0543 55.1162 63.8047 54.9321C62.8508 54.2305 61.6108 54.0205 60.4947 54.3577C60.1995 54.4464 60.3243 54.9331 60.6204 54.8435Z" fill="#C57207"/>
<path d="M56.4585 60.1658C56.5378 60.1561 56.6179 60.1513 56.6972 60.1542C56.7373 60.1561 56.7765 60.159 56.8165 60.1629C56.8922 60.1706 56.7737 60.1532 56.8484 60.1677C56.8639 60.1706 56.8803 60.1735 56.8958 60.1773C56.9742 60.1937 57.0516 60.2168 57.1263 60.2448C57.1937 60.2698 57.2366 60.2901 57.3213 60.3383C57.5973 60.4982 57.7905 60.7054 57.9308 61.0119C57.9873 61.1343 58.1522 61.167 58.256 61.1025C58.3745 61.0292 58.3982 60.8808 58.3417 60.7575C58.0101 60.0328 57.2156 59.5664 56.4585 59.6618C56.3309 59.6781 56.2207 59.7658 56.2207 59.9133C56.2207 60.0376 56.33 60.1821 56.4585 60.1658Z" fill="#C57207"/>
<path d="M59.0939 55.5493C58.796 55.7834 58.4799 56.0321 58.3195 56.3992C58.1656 56.752 58.1592 57.1586 58.3851 57.4795C58.5837 57.7619 58.8871 57.9055 59.1358 58.1271C59.3982 58.3623 59.6005 58.6639 59.718 59.006C59.8219 59.3077 60.282 59.1776 60.1772 58.8721C60.067 58.5502 59.9084 58.2582 59.6934 58.0019C59.4903 57.758 59.2379 57.5913 58.991 57.4034C58.7741 57.2376 58.6256 57.0324 58.704 56.7375C58.7924 56.4041 59.083 56.1814 59.3336 55.9849C59.4365 55.9039 59.4893 55.7671 59.4192 55.6408C59.3609 55.5319 59.1978 55.4683 59.0939 55.5493Z" fill="#C57207"/>
<path d="M26.6368 57.2587C27.966 61.0161 27.2827 65.4481 24.8538 68.5396C24.6588 68.7873 24.9941 69.1458 25.19 68.8952C27.1534 66.3954 28.0708 63.0515 27.71 59.825C27.6062 58.9009 27.4048 57.9959 27.096 57.1238C26.9894 56.8241 26.5293 56.9542 26.6368 57.2587Z" fill="#C57207"/>
<path d="M16.4242 57.4241C17.4383 53.5742 19.879 50.2186 23.1379 48.1949C23.4022 48.031 23.1625 47.5954 22.8974 47.7602C19.5346 49.8485 17.011 53.3169 15.965 57.2901C15.8821 57.6033 16.3413 57.7363 16.4242 57.4241Z" fill="#C57207"/>
<path d="M17.9567 81.1596C17.3955 81.1182 16.8133 81.3764 16.4507 81.8313C16.3705 81.9315 16.3504 82.0905 16.4507 82.1879C16.539 82.2736 16.7012 82.2958 16.7869 82.1879C16.8242 82.1406 16.8643 82.0954 16.9071 82.052C16.9299 82.0298 16.9527 82.0077 16.9764 81.9865C16.9873 81.9768 16.9973 81.9681 17.0082 81.9585C16.9727 81.9903 17.0101 81.9575 17.0174 81.9518C17.1148 81.8766 17.2205 81.813 17.3308 81.7629C17.3098 81.7725 17.3107 81.7716 17.3317 81.7639C17.3444 81.759 17.3572 81.7532 17.3699 81.7484C17.3991 81.7378 17.4283 81.7272 17.4583 81.7176C17.5148 81.7002 17.5713 81.6858 17.6287 81.6752C17.6351 81.6742 17.6916 81.6636 17.6578 81.6694C17.6287 81.6742 17.6724 81.6675 17.677 81.6675C17.708 81.6636 17.7389 81.6617 17.7699 81.6598C17.8319 81.6569 17.8938 81.6578 17.9558 81.6627C18.0806 81.6723 18.199 81.5403 18.1936 81.4111C18.189 81.2675 18.0906 81.1692 17.9567 81.1596Z" fill="#C57207"/>
<path d="M28.4411 79.9095C27.6348 79.9596 26.8959 80.3971 26.4267 81.091C26.352 81.2018 26.4085 81.3714 26.5124 81.435C26.6317 81.5092 26.7629 81.4553 26.8376 81.3444C27.2021 80.8057 27.8252 80.4511 28.4411 80.4126C28.5696 80.4048 28.6789 80.3027 28.6789 80.161C28.6789 80.0309 28.5705 79.9018 28.4411 79.9095Z" fill="#C57207"/>
<path d="M31.2608 63.137C31.1852 63.0946 31.1014 63.0686 31.0149 63.0715C30.9247 63.0744 30.8463 63.0995 30.7661 63.1409C30.6295 63.2122 30.5274 63.3471 30.4782 63.4975C30.4636 63.5428 30.4573 63.5929 30.4555 63.6411C30.4545 63.6555 30.4555 63.669 30.4564 63.6835C30.46 63.7191 30.4637 63.7557 30.4719 63.7904C30.4873 63.8511 30.5302 63.909 30.5812 63.9408C30.6322 63.9726 30.7069 63.986 30.7643 63.9658C30.8217 63.9456 30.8773 63.908 30.9064 63.8502C30.9365 63.7895 30.9474 63.723 30.9301 63.6565C30.9274 63.6449 30.9256 63.6343 30.9237 63.6227C30.9265 63.6449 30.9292 63.6671 30.9319 63.6902C30.9292 63.668 30.9292 63.6459 30.9319 63.6227C30.9292 63.6449 30.9265 63.6671 30.9237 63.6902C30.9274 63.6642 30.9338 63.6391 30.9429 63.615C30.9347 63.6353 30.9265 63.6555 30.9192 63.6757C30.931 63.6478 30.9456 63.6218 30.9629 63.5977C30.9502 63.615 30.9383 63.6314 30.9256 63.6488C30.9447 63.6227 30.9666 63.6006 30.9912 63.5794C30.9748 63.5929 30.9593 63.6054 30.9429 63.6189C30.9675 63.5986 30.9939 63.5823 31.023 63.5697C31.0039 63.5784 30.9848 63.5871 30.9666 63.5948C30.993 63.5832 31.0203 63.5746 31.0486 63.5707C31.0276 63.5736 31.0067 63.5765 30.9857 63.5794C31.0085 63.5765 31.0313 63.5765 31.054 63.5784C31.0331 63.5755 31.0121 63.5726 30.9912 63.5697C31.0139 63.5726 31.0367 63.5794 31.0577 63.589C31.0385 63.5803 31.0194 63.5726 31.0012 63.564C31.0076 63.5668 31.0139 63.5707 31.0212 63.5746C31.0768 63.6064 31.1424 63.6179 31.2044 63.5996C31.2599 63.5832 31.3192 63.5389 31.3465 63.484C31.3756 63.4252 31.3902 63.3548 31.3702 63.2903C31.352 63.2257 31.3164 63.1679 31.2608 63.137Z" fill="#C57207"/>
<path d="M31.0086 64.2454C30.8965 64.3408 30.8155 64.4902 30.7808 64.6376C30.7635 64.7118 30.7544 64.7918 30.759 64.8679C30.7626 64.9161 30.7681 64.9662 30.779 65.0135C30.79 65.0626 30.81 65.1069 30.8282 65.1532C30.8501 65.2072 30.9202 65.2544 30.9703 65.2688C31.0277 65.2852 31.1034 65.2775 31.1535 65.2438C31.2045 65.2091 31.2491 65.1571 31.2628 65.0935C31.2655 65.0713 31.2683 65.0491 31.271 65.027C31.271 64.9817 31.2601 64.9393 31.2382 64.8997C31.2373 64.8969 31.2364 64.8949 31.2355 64.892C31.2437 64.9123 31.2519 64.9325 31.2592 64.9518C31.2437 64.9123 31.2336 64.8718 31.2282 64.8304C31.2309 64.8525 31.2336 64.8747 31.2364 64.8978C31.2309 64.8525 31.2318 64.8082 31.2364 64.7629C31.2336 64.7851 31.2309 64.8082 31.2282 64.8304C31.2346 64.7831 31.2464 64.7359 31.2628 64.6906C31.2546 64.7109 31.2464 64.7311 31.2391 64.7504C31.2555 64.7089 31.2765 64.6704 31.3029 64.6338C31.2901 64.6511 31.2783 64.6675 31.2655 64.6848C31.2883 64.654 31.3147 64.6261 31.3439 64.601C31.3885 64.5634 31.414 64.4805 31.414 64.4227C31.414 64.361 31.3876 64.2868 31.3439 64.2444C31.2983 64.2001 31.2391 64.1674 31.1753 64.1712C31.1544 64.1741 31.1334 64.177 31.1116 64.1799C31.0733 64.1924 31.0378 64.2136 31.0086 64.2454Z" fill="#C57207"/>
<path d="M31.8697 63.7326C31.7777 63.828 31.7084 63.9561 31.6793 64.0891C31.6492 64.224 31.6492 64.3724 31.6929 64.5035C31.7139 64.5661 31.7467 64.6201 31.8023 64.6539C31.8533 64.6857 31.928 64.6991 31.9854 64.6789C32.0428 64.6587 32.0984 64.6211 32.1275 64.5633C32.1567 64.5054 32.1731 64.4332 32.1512 64.3696C32.1403 64.3378 32.133 64.305 32.1284 64.2713C32.1312 64.2934 32.1339 64.3156 32.1366 64.3378C32.1312 64.2934 32.1321 64.2491 32.1366 64.2057C32.1339 64.2279 32.1312 64.2501 32.1284 64.2732C32.1348 64.226 32.1467 64.1816 32.1631 64.1373C32.1549 64.1575 32.1467 64.1778 32.1394 64.1971C32.1549 64.1585 32.1749 64.1229 32.1986 64.0891C32.1858 64.1065 32.174 64.1229 32.1612 64.1402C32.1749 64.1219 32.1895 64.1045 32.2059 64.0872C32.2496 64.0419 32.2751 63.9735 32.2751 63.9089C32.2751 63.8472 32.2487 63.773 32.2059 63.7306C32.1603 63.6863 32.1011 63.6535 32.0373 63.6564C31.9745 63.6622 31.9162 63.6853 31.8697 63.7326Z" fill="#C57207"/>
<path d="M52.693 49.6141C52.7358 49.4657 52.6866 49.3096 52.5891 49.1988C52.5454 49.1487 52.4916 49.115 52.4324 49.0889C52.3732 49.0629 52.3094 49.0465 52.2456 49.0533C52.17 49.062 52.1063 49.0783 52.0397 49.1188C51.9924 49.1468 51.9468 49.1853 51.9113 49.2296C51.8366 49.3231 51.781 49.432 51.7628 49.5534C51.7509 49.6315 51.7446 49.7067 51.75 49.7857C51.7555 49.8657 51.7673 49.9457 51.7783 50.0247C51.7865 50.0825 51.842 50.1471 51.8876 50.175C51.9386 50.2068 52.0142 50.2203 52.0707 50.2001C52.1281 50.1798 52.1837 50.1422 52.2129 50.0844C52.2211 50.0642 52.2293 50.044 52.2365 50.0247C52.2475 49.9803 52.2475 49.9351 52.2365 49.8907C52.2329 49.8666 52.2293 49.8416 52.2265 49.8175C52.2293 49.8396 52.232 49.8618 52.2347 49.8849C52.2238 49.7992 52.2174 49.7134 52.2274 49.6276C52.2247 49.6498 52.222 49.672 52.2192 49.6941C52.2247 49.6546 52.2338 49.617 52.2475 49.5804C52.2393 49.6006 52.2311 49.6209 52.2238 49.6402C52.2365 49.6074 52.2529 49.5775 52.273 49.5496C52.2602 49.5669 52.2484 49.5833 52.2356 49.6007C52.252 49.5785 52.2703 49.5583 52.2912 49.5409C52.2748 49.5544 52.2593 49.5669 52.2429 49.5804C52.2611 49.565 52.2812 49.5525 52.3021 49.5428C52.283 49.5515 52.2639 49.5602 52.2456 49.5679C52.2648 49.5592 52.2839 49.5534 52.304 49.5496C52.283 49.5525 52.2621 49.5554 52.2411 49.5583C52.2584 49.5563 52.2748 49.5554 52.2921 49.5573C52.2712 49.5544 52.2502 49.5515 52.2293 49.5486C52.2466 49.5515 52.2621 49.5563 52.2785 49.5621C52.2593 49.5534 52.2402 49.5448 52.222 49.537C52.2402 49.5457 52.2575 49.5554 52.2739 49.5679C52.2575 49.5544 52.242 49.5419 52.2256 49.5284C52.2411 49.5419 52.2548 49.5554 52.2675 49.5717C52.2548 49.5544 52.2429 49.538 52.2302 49.5207C52.2402 49.5351 52.2484 49.5496 52.2548 49.566C52.2466 49.5457 52.2384 49.5255 52.2311 49.5062C52.2356 49.5197 52.2393 49.5332 52.2411 49.5467C52.2384 49.5245 52.2356 49.5024 52.2329 49.4802C52.2347 49.4946 52.2347 49.5081 52.2329 49.5226C52.2356 49.5004 52.2384 49.4783 52.2411 49.4561C52.2393 49.4648 52.2375 49.4734 52.2347 49.4812C52.1983 49.6074 52.2785 49.7616 52.4014 49.7905C52.529 49.8204 52.6538 49.7491 52.693 49.6141Z" fill="#C57207"/>
<path d="M51.4932 50.1156C51.2263 50.1069 50.9466 50.2717 50.8263 50.5271C50.7653 50.6572 50.7325 50.8046 50.748 50.9511C50.7562 51.0253 50.7671 51.0956 50.7944 51.165C50.829 51.2537 50.8673 51.3202 50.9238 51.3953C50.9593 51.4426 51.0377 51.4686 51.0923 51.4686C51.1506 51.4686 51.2208 51.4416 51.2609 51.3953C51.3028 51.3472 51.3338 51.2845 51.3301 51.2171C51.3274 51.1467 51.3019 51.0937 51.2609 51.0388C51.2691 51.0494 51.2946 51.0879 51.2727 51.0542C51.2673 51.0455 51.2618 51.0369 51.2563 51.0272C51.2463 51.0089 51.2372 50.9896 51.229 50.9704C51.2372 50.9906 51.2454 51.0108 51.2527 51.0311C51.2345 50.9838 51.2217 50.9347 51.2153 50.8846C51.2181 50.9068 51.2208 50.9289 51.2235 50.9511C51.2181 50.9048 51.219 50.8586 51.2244 50.8113C51.2217 50.8335 51.219 50.8557 51.2162 50.8788C51.2226 50.8326 51.2345 50.7882 51.2509 50.7449C51.2427 50.7651 51.2345 50.7853 51.2272 50.8056C51.2399 50.7747 51.2563 50.7468 51.2736 50.7188C51.2973 50.6803 51.2354 50.7641 51.2654 50.7304C51.2764 50.7188 51.2864 50.7063 51.2982 50.6947C51.3146 50.6784 51.3575 50.6533 51.2946 50.6938C51.3046 50.687 51.3137 50.6793 51.3238 50.6726C51.3502 50.6543 51.3775 50.6388 51.4067 50.6263C51.3875 50.635 51.3684 50.6427 51.3493 50.6514C51.3894 50.634 51.4303 50.6225 51.4741 50.6157C51.4531 50.6186 51.4322 50.6215 51.4112 50.6244C51.4386 50.6205 51.4659 50.6196 51.4932 50.6205C51.618 50.6244 51.7365 50.502 51.731 50.369C51.7255 50.2273 51.6262 50.1204 51.4932 50.1156Z" fill="#C57207"/>
<path d="M52.6419 50.0029C52.4752 50.107 52.3485 50.2959 52.3175 50.4992C52.3002 50.6129 52.2975 50.7238 52.3276 50.8356C52.333 50.8548 52.3394 50.8731 52.3467 50.8915C52.3549 50.9127 52.3658 50.9435 52.3777 50.9676C52.4059 51.0264 52.4624 51.064 52.5198 51.0832C52.5572 51.0958 52.6091 51.0958 52.6501 51.1015C52.6765 51.1054 52.702 51.1083 52.7284 51.1121C52.784 51.1198 52.8587 51.0784 52.897 51.0379C52.938 50.9946 52.969 50.9223 52.9662 50.8597C52.9635 50.7941 52.9435 50.7267 52.897 50.6814C52.8806 50.6679 52.8651 50.6554 52.8487 50.6419C52.8113 50.6187 52.7713 50.6072 52.7284 50.6072C52.6802 50.6004 52.6319 50.5937 52.5836 50.5869C52.6519 50.6284 52.7202 50.6698 52.7895 50.7112C52.7867 50.7064 52.7849 50.7006 52.7831 50.6958C52.7913 50.7161 52.7995 50.7363 52.8068 50.7565C52.7922 50.7199 52.7822 50.6814 52.7767 50.6419C52.7795 50.664 52.7822 50.6862 52.7849 50.7084C52.7795 50.6631 52.7795 50.6178 52.7849 50.5725C52.7822 50.5946 52.7795 50.6168 52.7767 50.6399C52.7831 50.5946 52.7949 50.5503 52.8113 50.5079C52.8031 50.5281 52.7949 50.5484 52.7877 50.5677C52.8041 50.5281 52.8241 50.4915 52.8487 50.4578C52.8359 50.4751 52.8241 50.4906 52.8113 50.5079C52.8332 50.479 52.8578 50.4539 52.8851 50.4308C52.8687 50.4443 52.8533 50.4568 52.8369 50.4703C52.8523 50.4578 52.8678 50.4472 52.8833 50.4366C52.9353 50.4038 52.9772 50.3479 52.9927 50.2863C53.0081 50.2255 53.0009 50.1456 52.969 50.0926C52.8979 49.9788 52.7567 49.9307 52.6419 50.0029Z" fill="#C57207"/>
<path d="M15.6087 52.393C13.874 51.6732 11.9844 52.4152 10.4902 53.403C8.87673 54.4707 7.4017 55.9288 5.48116 56.3364C4.49537 56.5455 3.45948 56.4453 2.61491 55.8334C2.36163 55.6503 2.12293 56.0859 2.37439 56.268C3.84122 57.33 5.77726 56.9937 7.27871 56.1967C9.04346 55.26 10.4748 53.6921 12.3479 52.9732C13.3638 52.5838 14.4571 52.4528 15.4811 52.8778C15.7681 52.9973 15.8911 52.5106 15.6087 52.393Z" fill="#C57207"/>
<path d="M11.0479 55.0279C9.80064 55.4519 8.89868 56.4542 7.92201 57.3234C6.94624 58.1917 5.55594 59.06 4.2777 58.3546C4.0062 58.2052 3.76568 58.6398 4.03718 58.7892C5.27624 59.4725 6.67565 58.9492 7.72612 58.1262C8.85768 57.2396 9.79336 55.9829 11.1745 55.5127C11.4652 55.4153 11.3404 54.9287 11.0479 55.0279Z" fill="#C57207"/>
<path d="M30.3093 26.7533C34.4137 26.9238 38.5218 26.9874 42.628 27.1108C43.7085 27.1436 44.79 27.1792 45.8705 27.2235C46.1766 27.2361 46.1766 26.733 45.8705 26.7195C41.7661 26.549 37.6581 26.4854 33.5518 26.362C32.4713 26.3292 31.3899 26.2936 30.3093 26.2493C30.0032 26.2367 30.0041 26.7398 30.3093 26.7533Z" fill="#C57207"/>
<path d="M36.2052 26.7487C36.2672 29.0057 36.3282 31.2636 36.3902 33.5205C36.3993 33.8443 36.8748 33.8453 36.8666 33.5205C36.8056 31.2636 36.7436 29.0057 36.6817 26.7487C36.6726 26.4259 36.1961 26.4239 36.2052 26.7487Z" fill="#C57207"/>
<path d="M42.7597 21.7582C42.7223 23.4321 42.6859 25.1051 42.6485 26.779C42.6412 27.1028 43.1177 27.1028 43.125 26.779C43.1624 25.1061 43.1988 23.4321 43.2362 21.7582C43.2425 21.4335 42.767 21.4335 42.7597 21.7582Z" fill="#C57207"/>
<path d="M45.4472 21.846C45.3679 23.4457 45.2887 25.0464 45.2094 26.6461C45.193 26.9699 45.6695 26.969 45.6859 26.6461C45.7652 25.0464 45.8444 23.4457 45.9237 21.846C45.9392 21.5222 45.4627 21.5232 45.4472 21.846Z" fill="#C57207"/>
<path d="M38.6955 21.0652C41.8888 21.6579 45.1241 21.9682 48.3657 21.9884C48.6718 21.9904 48.6727 21.4864 48.3657 21.4844C45.166 21.4642 41.9736 21.1635 38.8213 20.5795C38.5224 20.5246 38.394 21.0093 38.6955 21.0652Z" fill="#C57207"/>
<path d="M27.5309 21.7822C27.3049 22.1195 27.2457 22.5868 27.3787 22.9752C27.4206 23.0986 27.5427 23.1949 27.6712 23.1516C27.786 23.1121 27.8825 22.9742 27.837 22.8422C27.8233 22.8027 27.8115 22.7622 27.8024 22.7208C27.7978 22.7006 27.7942 22.6794 27.7905 22.6582C27.786 22.6302 27.7869 22.637 27.7923 22.6784C27.7914 22.6678 27.7896 22.6572 27.7887 22.6466C27.7851 22.6042 27.7832 22.5618 27.7841 22.5194C27.7841 22.4982 27.7851 22.477 27.7869 22.4558C27.7878 22.4481 27.7942 22.3797 27.7887 22.4259C27.7832 22.4722 27.7923 22.4047 27.7942 22.397C27.7978 22.3758 27.8024 22.3556 27.8069 22.3353C27.8169 22.2939 27.8297 22.2544 27.8434 22.2139C27.8525 22.1888 27.8507 22.1937 27.8361 22.2303C27.8397 22.2206 27.8443 22.211 27.8488 22.2014C27.857 22.1821 27.8661 22.1638 27.8762 22.1445C27.8953 22.1069 27.9172 22.0713 27.9399 22.0375C28.0119 21.9296 27.9618 21.7523 27.8543 21.6935C27.734 21.6241 27.6083 21.6675 27.5309 21.7822Z" fill="#C57207"/>
<path d="M28.7701 21.8955C28.5314 22.3012 28.5223 22.8236 28.7291 23.2457C28.7865 23.3632 28.9505 23.4076 29.0544 23.3362C29.1674 23.2592 29.2011 23.1165 29.14 22.9912C29.1327 22.9758 29.1118 22.9469 29.1109 22.9286C29.1236 22.9623 29.1255 22.9662 29.1163 22.9402C29.1127 22.9296 29.1081 22.919 29.1054 22.9074C29.0908 22.864 29.079 22.8187 29.0708 22.7735C29.0681 22.758 29.0544 22.7195 29.0589 22.705C29.0608 22.7156 29.0617 22.7262 29.0635 22.7378C29.0626 22.7262 29.0617 22.7147 29.0598 22.7031C29.0562 22.6568 29.0553 22.6106 29.0571 22.5643C29.058 22.5412 29.0598 22.5181 29.0617 22.4949C29.0644 22.467 29.0635 22.4718 29.0589 22.5104C29.0608 22.4988 29.0626 22.4872 29.0644 22.4757C29.0708 22.4362 29.0799 22.3967 29.0908 22.3571C29.0972 22.335 29.1036 22.3128 29.1109 22.2906C29.1145 22.28 29.1182 22.2694 29.1227 22.2579C29.109 22.2916 29.1072 22.2955 29.1182 22.2704C29.1373 22.229 29.1573 22.1875 29.181 22.148C29.2466 22.0362 29.2074 21.8657 29.0954 21.804C28.9788 21.7394 28.8403 21.776 28.7701 21.8955Z" fill="#C57207"/>
<path d="M51.3774 26.8071C50.9419 26.4101 50.3807 26.2453 49.814 26.3339C49.6901 26.3532 49.6117 26.5247 49.6473 26.6433C49.691 26.7859 49.8076 26.8399 49.9397 26.8187C49.8841 26.8273 49.9725 26.8148 49.9825 26.8138C50.0108 26.8109 50.039 26.81 50.0673 26.809C50.1247 26.8071 50.1812 26.8081 50.2376 26.8129C50.2659 26.8148 50.2941 26.8177 50.3224 26.8215C50.2659 26.8138 50.3552 26.8283 50.3643 26.8302C50.4171 26.8408 50.4691 26.8543 50.5201 26.8697C50.5711 26.8852 50.6212 26.9044 50.6713 26.9247C50.6968 26.9353 50.6977 26.9362 50.6731 26.9256C50.6859 26.9314 50.6996 26.9381 50.7123 26.9449C50.7378 26.9574 50.7633 26.9709 50.7888 26.9854C50.839 27.0143 50.8882 27.0451 50.9346 27.0788C50.9583 27.0962 50.9811 27.1135 51.0039 27.1319C50.9647 27.1 51.0321 27.1579 51.0385 27.1637C51.1332 27.2494 51.2836 27.2687 51.3747 27.1637C51.4594 27.0692 51.4785 26.8996 51.3774 26.8071Z" fill="#C57207"/>
<path d="M44.5196 28.9235C44.6062 32.388 44.6927 35.8524 44.7793 39.3159C44.7875 39.6397 45.264 39.6407 45.2558 39.3159C45.1692 35.8515 45.0827 32.388 44.9961 28.9235C44.9879 28.6007 44.5114 28.5988 44.5196 28.9235Z" fill="#C57207"/>
<path d="M40.1175 36.2731C42.9911 35.5725 45.984 35.5166 48.8784 36.1141C49.1782 36.1757 49.3057 35.691 49.0051 35.6284C46.024 35.0126 42.951 35.0656 39.9909 35.7874C39.6921 35.8606 39.8187 36.3454 40.1175 36.2731Z" fill="#C57207"/>
<path d="M18.1627 57.5198C18.1144 57.4947 18.0652 57.4725 18.0124 57.4639C17.934 57.4504 17.8739 57.4513 17.7955 57.4639C17.689 57.4802 17.5942 57.5381 17.5122 57.6103C17.4329 57.6797 17.3719 57.7896 17.35 57.8956C17.3263 58.0055 17.3273 58.1278 17.3637 58.2348C17.4111 58.3717 17.4894 58.4854 17.6079 58.5625C17.7145 58.6309 17.8739 58.5904 17.9331 58.4719C17.9942 58.3495 17.9614 58.2011 17.8475 58.1269C17.8365 58.1201 17.8265 58.1124 17.8165 58.1047C17.8329 58.1182 17.8484 58.1307 17.8648 58.1442C17.8447 58.1278 17.8274 58.1086 17.8119 58.0874C17.8247 58.1047 17.8365 58.1211 17.8493 58.1384C17.8311 58.1124 17.8156 58.0854 17.8037 58.0556C17.8119 58.0758 17.8201 58.096 17.8274 58.1153C17.8156 58.0854 17.8083 58.0546 17.8037 58.0228C17.8065 58.045 17.8092 58.0671 17.8119 58.0893C17.8083 58.0575 17.8074 58.0257 17.811 57.9939C17.8083 58.0161 17.8056 58.0382 17.8028 58.0614C17.8065 58.0324 17.8138 58.0045 17.8238 57.9765C17.8156 57.9968 17.8074 58.017 17.8001 58.0363C17.8101 58.0112 17.8229 57.9891 17.8384 57.9669C17.8256 57.9843 17.8138 58.0006 17.801 58.018C17.8183 57.9949 17.8375 57.9746 17.8602 57.9563C17.8438 57.9698 17.8283 57.9823 17.8119 57.9958C17.8347 57.9785 17.8584 57.964 17.8839 57.9515C17.8648 57.9602 17.8457 57.9688 17.8274 57.9765C17.8584 57.9631 17.8894 57.9534 17.9222 57.9486C17.9012 57.9515 17.8803 57.9544 17.8593 57.9573C17.8894 57.9534 17.9195 57.9534 17.9495 57.9573C17.9286 57.9544 17.9076 57.9515 17.8867 57.9486C17.9122 57.9525 17.9359 57.9592 17.9595 57.9688C17.9404 57.9602 17.9213 57.9515 17.9031 57.9438C17.9103 57.9467 17.9167 57.9505 17.924 57.9534C17.9823 57.9833 18.0434 57.9977 18.1071 57.9785C18.1627 57.9621 18.2219 57.9168 18.2493 57.8628C18.2784 57.804 18.293 57.7337 18.273 57.6691C18.2538 57.6113 18.2174 57.5487 18.1627 57.5198Z" fill="#C57207"/>
<path d="M18.1487 59.455C18.0831 59.639 18.115 59.8453 18.1924 60.0187C18.2708 60.1941 18.4211 60.3233 18.5924 60.3849C18.6489 60.4052 18.7254 60.3907 18.7755 60.3599C18.8247 60.329 18.8721 60.2693 18.8848 60.2095C18.9149 60.0698 18.8448 59.9455 18.7181 59.9002C18.7081 59.8964 18.699 59.8935 18.689 59.8886C18.7081 59.8973 18.7272 59.906 18.7454 59.9137C18.7126 59.8983 18.6817 59.88 18.6534 59.8568C18.6698 59.8703 18.6853 59.8829 18.7017 59.8963C18.6716 59.8713 18.6443 59.8424 18.6206 59.8106C18.6334 59.8279 18.6452 59.8443 18.658 59.8617C18.6316 59.825 18.6097 59.7855 18.5924 59.7422C18.6006 59.7624 18.6088 59.7826 18.6161 59.8019C18.6006 59.7614 18.5896 59.72 18.5833 59.6766C18.586 59.6988 18.5887 59.721 18.5915 59.7431C18.586 59.7007 18.586 59.6574 18.5915 59.615C18.5887 59.6371 18.586 59.6593 18.5833 59.6824C18.5878 59.6496 18.5951 59.6188 18.606 59.5889C18.627 59.5311 18.6106 59.4463 18.5824 59.3952C18.5532 59.3432 18.4967 59.2931 18.4402 59.2796C18.3792 59.2651 18.3109 59.268 18.2571 59.3046C18.2034 59.3422 18.1715 59.3904 18.1487 59.455Z" fill="#C57207"/>
<path d="M19.453 58.0534C19.4621 57.9888 19.4685 57.9406 19.4512 57.8761C19.442 57.8414 19.4275 57.8067 19.4083 57.7768C19.3564 57.6997 19.2853 57.6361 19.196 57.613C19.0913 57.586 18.9701 57.6053 18.8908 57.6881C18.8371 57.745 18.8043 57.8317 18.7779 57.905C18.7396 58.0081 18.725 58.1285 18.736 58.2384C18.7487 58.3724 18.7806 58.5005 18.8498 58.6152C18.8826 58.6701 18.9318 58.7135 18.992 58.7308C19.0494 58.7472 19.125 58.7405 19.1751 58.7058C19.2261 58.6711 19.2708 58.6191 19.2844 58.5555C19.2981 58.4909 19.2954 58.4186 19.2607 58.3618C19.2443 58.3348 19.2307 58.3068 19.2188 58.2779C19.227 58.2981 19.2352 58.3184 19.2425 58.3377C19.2243 58.2904 19.2115 58.2413 19.2052 58.1912C19.2079 58.2133 19.2106 58.2355 19.2134 58.2577C19.2079 58.2066 19.207 58.1565 19.2134 58.1054C19.2106 58.1276 19.2079 58.1497 19.2052 58.1719C19.2115 58.1218 19.2243 58.0726 19.2425 58.0254C19.2343 58.0457 19.2261 58.0659 19.2188 58.0852C19.2316 58.0534 19.2471 58.0225 19.2653 57.9936C19.237 58.0235 19.2079 58.0543 19.1797 58.0842C19.1833 58.0813 19.1879 58.0794 19.1924 58.0775C19.1733 58.0861 19.1541 58.0948 19.1359 58.1025C19.1423 58.0996 19.1487 58.0977 19.156 58.0967C19.135 58.0996 19.1141 58.1025 19.0922 58.1054C19.1013 58.1044 19.1104 58.1044 19.1195 58.1044C19.0986 58.1016 19.0776 58.0987 19.0567 58.0958C19.0685 58.0977 19.0794 58.1006 19.0904 58.1054C19.0712 58.0967 19.0521 58.0881 19.0339 58.0804C19.0448 58.0861 19.0548 58.0919 19.0639 58.0996C19.0475 58.0861 19.0321 58.0736 19.0157 58.0601C19.0229 58.0669 19.0293 58.0736 19.0357 58.0813C19.0229 58.064 19.0111 58.0476 18.9983 58.0302C19.0038 58.038 19.0084 58.0466 19.0129 58.0553C19.0047 58.0351 18.9965 58.0148 18.9892 57.9956C18.9929 58.0042 18.9947 58.0139 18.9965 58.0235C18.9938 58.0013 18.9911 57.9792 18.9883 57.957C18.9892 57.9647 18.9892 57.9715 18.9883 57.9792C18.9911 57.957 18.9938 57.9348 18.9965 57.9127C18.9965 57.9156 18.9956 57.9175 18.9956 57.9204C18.9856 57.9898 18.9847 58.0514 19.0193 58.1141C19.0485 58.1661 19.1049 58.2162 19.1614 58.2297C19.2225 58.2442 19.2908 58.2413 19.3446 58.2047C19.3919 58.17 19.4439 58.116 19.453 58.0534Z" fill="#C57207"/>
<path d="M64.461 21.5641C64.4947 23.1533 64.5284 24.7424 64.5621 26.3325C64.5685 26.6563 65.045 26.6572 65.0386 26.3325C65.0049 24.7433 64.9712 23.1542 64.9375 21.5641C64.9302 21.2413 64.4546 21.2394 64.461 21.5641Z" fill="#C57207"/>
<path d="M66.834 21.5118C66.834 23.0835 66.834 24.6563 66.834 26.2281C66.834 26.5519 67.3105 26.5528 67.3105 26.2281C67.3105 24.6563 67.3105 23.0835 67.3105 21.5118C67.3105 21.188 66.834 21.187 66.834 21.5118Z" fill="#C57207"/>
<path d="M39.5186 31.069C40.3678 31.4785 41.1139 32.0818 41.7098 32.8422C41.7918 32.9472 41.9612 32.9318 42.0469 32.8422C42.1444 32.7381 42.1289 32.5906 42.0469 32.4856C41.4282 31.6973 40.6402 31.0584 39.7592 30.6334C39.6425 30.5765 39.5031 30.5977 39.433 30.724C39.3729 30.8329 39.4011 31.0131 39.5186 31.069Z" fill="#C57207"/>
<path d="M47.6157 32.8997C48.1887 32.042 49.0215 31.3838 49.9599 31.0427C50.2478 30.9377 50.1239 30.451 49.8332 30.557C48.77 30.9434 47.8526 31.6749 47.2039 32.6453C47.1301 32.7561 47.1847 32.9257 47.2895 32.9893C47.4098 33.0645 47.5419 33.0115 47.6157 32.8997Z" fill="#C57207"/>
<path d="M30.8978 59.6429C33.7422 55.5096 37.8693 52.4075 42.4694 50.856C43.7749 50.4156 45.1188 50.0985 46.479 49.9193C46.7788 49.8798 46.7833 49.3758 46.479 49.4153C41.5537 50.0658 36.8836 52.4191 33.2766 56.0252C32.2489 57.0525 31.3178 58.181 30.486 59.3894C30.3056 59.6506 30.7192 59.9021 30.8978 59.6429Z" fill="#C57207"/>
<path d="M27.1016 71.8269C30.7031 71.5349 34.0932 69.543 36.298 66.5276C36.9285 65.6651 37.4551 64.7275 37.8632 63.7271C37.9835 63.4323 37.5735 63.1759 37.4523 63.4727C36.0721 66.862 33.2824 69.5237 29.9806 70.7004C29.0486 71.0319 28.0819 71.2449 27.1016 71.3239C26.7982 71.348 26.7955 71.852 27.1016 71.8269Z" fill="#C57207"/>
<path d="M42.1577 18.2551C44.0017 19.6785 46.5645 19.8442 48.5707 18.7051C48.8404 18.5519 48.6008 18.1173 48.3302 18.2705C46.4634 19.3306 44.1055 19.1378 42.3982 17.8214C42.1504 17.6287 41.9126 18.0662 42.1577 18.2551Z" fill="#C57207"/>
<path d="M49.1101 12.8661C47.8592 11.8793 46.1673 11.6239 44.6887 12.1279C44.398 12.2272 44.5228 12.7138 44.8153 12.6136C46.1865 12.1462 47.7116 12.3871 48.8696 13.3007C49.1156 13.4954 49.3534 13.0578 49.1101 12.8661Z" fill="#C57207"/>
<path d="M44.99 12.3718C45.1622 10.7518 45.3717 9.11067 45.3098 7.47722C45.298 7.15439 44.8215 7.15246 44.8333 7.47722C44.8953 9.11067 44.6857 10.7518 44.5135 12.3718C44.4789 12.6937 44.9554 12.6908 44.99 12.3718Z" fill="#C57207"/>
<path d="M44.9532 7.69501C46.1503 8.67026 47.762 9.11163 49.2416 8.70592C50.6082 8.33105 51.7544 7.17173 52.148 5.73295C52.5397 4.30283 52.0414 2.78117 50.9362 1.86856C49.9504 1.05425 48.1939 0.739122 47.3402 1.94855C46.974 2.46701 46.9931 3.18207 47.3885 3.68029C47.7702 4.15924 48.4326 4.21225 48.8581 3.76317C49.2726 3.32566 49.3437 2.62505 49.0904 2.08153C48.7733 1.40021 48.0873 1.01281 47.4432 0.756465C45.9335 0.155125 44.1806 0.256315 42.7384 1.01955C42.1343 1.3395 41.4902 1.87049 41.4091 2.63277C41.3462 3.22158 41.6651 3.90772 42.2418 4.05324C42.8632 4.21032 43.3971 3.63693 43.47 3.01824C43.5547 2.29451 43.0081 1.71245 42.394 1.50814C41.6059 1.24698 40.7723 1.60548 40.0799 1.99095C39.3665 2.38799 38.7069 2.9026 38.1356 3.50394C37.6099 4.05709 37.0797 4.71047 36.8583 5.47371C36.6624 6.14926 36.7644 6.97418 37.2847 7.46277C37.7284 7.87908 38.439 7.91377 38.9009 7.50613C39.3674 7.0956 39.3428 6.40078 38.9392 5.95363C38.5283 5.49781 37.8559 5.34169 37.3138 5.6067C36.6752 5.91894 36.3062 6.60604 36.0848 7.28159C35.6056 8.74061 35.55 10.7258 36.9631 11.6269C37.4915 11.9641 38.2149 12.0759 38.7597 11.7117C39.2143 11.4071 39.494 10.827 39.4877 10.2603C39.4822 9.70141 39.1706 9.19836 38.6549 9.03165C38.0746 8.84469 37.4396 9.16656 37.0578 9.62817C35.8898 11.0409 37.1152 13.1283 37.7047 14.5218C37.9898 15.1964 38.3115 15.9403 38.9292 16.347C39.4157 16.6679 40.0835 16.6255 40.4406 16.1176C40.7504 15.6763 40.7613 15.0373 40.5208 14.5584C40.2356 13.9898 39.5997 13.7932 39.0312 13.9204C38.3853 14.065 37.865 14.596 37.671 15.2561C37.4459 16.0242 37.6382 16.8809 38.0163 17.5574C38.4308 18.2965 39.0567 18.8632 39.6699 19.4106C39.9022 19.6187 40.2411 19.2641 40.0061 19.055C39.1014 18.2464 38.0254 17.277 38.0518 15.9047C38.0627 15.3168 38.3342 14.7762 38.8453 14.5179C39.248 14.3136 39.8166 14.3146 40.078 14.7559C40.2648 15.0711 40.2721 15.5741 40.027 15.8603C39.668 16.2786 39.1369 15.9509 38.8508 15.6204C38.4645 15.1742 38.2522 14.5931 38.0217 14.0486C37.7484 13.402 37.4423 12.7601 37.2355 12.0865C37.0478 11.4765 36.9275 10.7374 37.2701 10.1621C37.5024 9.77176 37.9634 9.41327 38.4217 9.49325C39.3647 9.65708 39.044 11.1016 38.3388 11.3715C37.8441 11.5604 37.2874 11.3252 36.9166 10.9687C36.472 10.5417 36.2743 9.92788 36.2497 9.30437C36.2242 8.66737 36.3444 8.01689 36.5421 7.41651C36.7134 6.89515 36.9922 6.34007 37.4769 6.08084C37.8823 5.86401 38.4426 6.01531 38.6895 6.42873C38.9738 6.90383 38.5046 7.3211 38.0609 7.29123C37.5024 7.25364 37.2309 6.6311 37.2355 6.10396C37.2418 5.45637 37.6236 4.87141 38.0035 4.39535C38.7643 3.44033 39.7491 2.63276 40.847 2.16056C41.4146 1.91578 42.1043 1.77701 42.6345 2.1914C43.0363 2.50556 43.1848 3.26591 42.6336 3.529C42.1498 3.76028 41.8218 3.09341 41.882 2.66649C41.963 2.08057 42.5179 1.69799 42.9771 1.45418C44.0676 0.876929 45.3677 0.726591 46.5558 1.00413C47.3757 1.19591 49.115 1.84062 48.7114 3.06835C48.5547 3.54634 48.0399 3.77184 47.7174 3.31602C47.4022 2.86983 47.557 2.31379 47.9561 1.9977C48.8125 1.32022 50.0552 1.70088 50.7859 2.39184C51.5549 3.11943 51.9557 4.21128 51.7544 5.2935C51.5494 6.39403 50.8424 7.3529 49.9167 7.88679C48.9319 8.4544 47.7374 8.46982 46.6861 8.1094C46.1421 7.92244 45.642 7.62948 45.1892 7.26039C44.9505 7.06283 44.7136 7.50035 44.9532 7.69501Z" fill="#C57207"/>
<path d="M47.7149 9.99716C47.7021 9.99716 47.6903 9.99716 47.6775 9.99716C47.6447 9.9962 47.6137 10.0029 47.5855 10.0184C47.5563 10.029 47.5308 10.0463 47.509 10.0704C47.4853 10.0935 47.4689 10.1205 47.4598 10.1513C47.4452 10.1812 47.4379 10.214 47.4397 10.2487C47.4425 10.2708 47.4452 10.293 47.4479 10.3152C47.4589 10.3576 47.4798 10.3952 47.509 10.426C47.5254 10.4395 47.5409 10.452 47.5573 10.4655C47.5946 10.4886 47.6347 10.5002 47.6775 10.5002C47.6903 10.5002 47.7021 10.5002 47.7149 10.5002C47.7477 10.5012 47.7777 10.4944 47.8069 10.479C47.836 10.4684 47.8616 10.452 47.8834 10.427C47.9062 10.4038 47.9226 10.3769 47.9326 10.346C47.9472 10.3161 47.9545 10.2834 47.9527 10.2487C47.9499 10.2265 47.9472 10.2044 47.9445 10.1822C47.9335 10.1398 47.9126 10.1022 47.8834 10.0714C47.867 10.0579 47.8515 10.0453 47.8351 10.0319C47.7978 10.0087 47.7577 9.99716 47.7149 9.99716Z" fill="#C57207"/>
<path d="M46.7639 15.7294C46.7074 15.7766 46.7694 15.7265 46.7849 15.7159C46.8049 15.7024 46.8259 15.6909 46.8468 15.6793C46.8532 15.6764 46.8596 15.6726 46.866 15.6697C46.8824 15.662 46.8742 15.6658 46.8414 15.6803C46.8487 15.6803 46.8605 15.6726 46.8678 15.6697C46.8896 15.662 46.9124 15.6542 46.9352 15.6485C46.9571 15.6427 46.9844 15.6427 47.0044 15.634C46.9598 15.6542 46.9671 15.6388 46.9981 15.6359C47.0072 15.635 47.0172 15.634 47.0263 15.634C47.05 15.633 47.0737 15.633 47.0974 15.634C47.112 15.635 47.1256 15.635 47.1402 15.6369C47.1493 15.6379 47.193 15.6436 47.1511 15.6379C47.1083 15.6321 47.1557 15.6388 47.1621 15.6408C47.1739 15.6427 47.1857 15.6456 47.1967 15.6485C47.2195 15.6542 47.2432 15.661 47.265 15.6687C47.276 15.6726 47.2869 15.6774 47.2987 15.6812C47.3388 15.6947 47.2623 15.661 47.2878 15.6754C47.3088 15.687 47.3306 15.6966 47.3507 15.7092C47.3716 15.7217 47.3907 15.7352 47.4108 15.7487C47.4427 15.7709 47.4135 15.7554 47.4026 15.74C47.409 15.7496 47.4217 15.7564 47.4299 15.7641C47.4481 15.7805 47.4645 15.7978 47.4809 15.8161C47.4891 15.8248 47.4964 15.8354 47.5046 15.8441C47.5347 15.8788 47.4737 15.7998 47.5019 15.8412C47.5739 15.9482 47.7124 16.0098 47.8271 15.9318C47.9274 15.8634 47.9902 15.7015 47.9128 15.5878C47.7452 15.341 47.4992 15.1859 47.214 15.1454C46.9261 15.104 46.6528 15.184 46.4268 15.3757C46.3293 15.4586 46.3394 15.6465 46.4268 15.7313C46.5307 15.8296 46.6601 15.8171 46.7639 15.7294Z" fill="#C57207"/>
<path d="M47.1394 9.5558C47.3517 9.51918 47.564 9.4816 47.7762 9.44498C47.8318 9.43534 47.891 9.37848 47.9184 9.32933C47.9484 9.27537 47.9612 9.19538 47.942 9.13563C47.9238 9.07492 47.8874 9.01614 47.8327 8.9853C47.7726 8.95157 47.7161 8.94868 47.6496 8.96024C47.4373 8.99686 47.225 9.03445 47.0128 9.07107C46.9572 9.0807 46.898 9.13756 46.8706 9.18671C46.8406 9.24067 46.8278 9.32066 46.8469 9.38041C46.8661 9.44112 46.9016 9.49991 46.9563 9.53075C47.0155 9.56351 47.0729 9.56736 47.1394 9.5558Z" fill="#C57207"/>
<path d="M51.1115 34.1878C51.1817 36.1875 51.2519 38.1881 51.322 40.1877C51.3339 40.5106 51.8094 40.5125 51.7985 40.1877C51.7283 38.1881 51.6582 36.1875 51.588 34.1878C51.5762 33.865 51.0997 33.864 51.1115 34.1878Z" fill="#C57207"/>
<path d="M57.8247 23.5885C57.8739 23.7272 57.9231 23.866 57.9723 24.0048C57.9796 24.0375 57.9942 24.0664 58.0152 24.0905C58.0316 24.1175 58.0543 24.1397 58.0817 24.1551C58.1327 24.1869 58.2083 24.2004 58.2648 24.1802C58.3222 24.1599 58.3778 24.1223 58.4069 24.0645C58.4352 24.0077 58.4534 23.9335 58.4306 23.8708C58.3814 23.732 58.3322 23.5933 58.283 23.4545C58.2757 23.4217 58.2611 23.3928 58.2402 23.3687C58.2238 23.3417 58.201 23.3196 58.1737 23.3042C58.1227 23.2724 58.047 23.2589 57.9906 23.2791C57.9332 23.2993 57.8776 23.3369 57.8484 23.3947C57.8202 23.4516 57.802 23.5258 57.8247 23.5885Z" fill="#C57207"/>
<path d="M58.758 23.3804C58.7908 23.5712 58.8236 23.7621 58.8564 23.9529C58.8664 24.0117 58.9183 24.0743 58.9657 24.1032C59.0167 24.135 59.0923 24.1485 59.1488 24.1283C59.2062 24.109 59.2618 24.0704 59.2909 24.0126C59.3228 23.95 59.3274 23.8883 59.3146 23.8189C59.2818 23.6281 59.249 23.4373 59.2162 23.2465C59.2062 23.1877 59.1543 23.1251 59.1069 23.0962C59.0559 23.0644 58.9803 23.0509 58.9238 23.0711C58.8664 23.0904 58.8108 23.1289 58.7816 23.1867C58.7507 23.2494 58.7461 23.3111 58.758 23.3804Z" fill="#C57207"/>
<path d="M50.5387 22.5283C52.7544 19.6825 54.818 16.7153 56.8516 13.7221C58.6473 11.0797 60.4466 8.43723 62.4419 5.9567C63.6746 4.42444 64.9765 2.95578 66.3413 1.55362C66.5618 1.32715 66.2247 0.971546 66.0051 1.19705C63.6755 3.59181 61.5563 6.18798 59.5893 8.92004C57.6916 11.5567 55.914 14.2868 54.05 16.9495C52.8082 18.7227 51.53 20.4669 50.2034 22.1707C50.0085 22.4203 50.3437 22.7788 50.5387 22.5283Z" fill="#C57207"/>
<path d="M50.4994 26.0529C54.6612 30.9301 58.9105 35.7476 62.6532 40.9997C63.6909 42.4549 64.6903 43.9409 65.657 45.45C65.8283 45.717 66.241 45.4654 66.0679 45.1956C62.6887 39.9233 58.8239 35.0769 54.8034 30.3452C53.4841 28.7927 52.1576 27.2469 50.8356 25.6973C50.6306 25.4564 50.2944 25.813 50.4994 26.0529Z" fill="#C57207"/>
<path d="M50.6033 25.6324C49.1511 25.8493 47.6688 25.7722 46.2174 25.5939C46.2575 25.75 46.2976 25.9071 46.3377 26.0632C46.949 25.6825 47.2469 24.9232 47.8528 24.5464C48.0204 24.4423 47.9904 24.2216 47.8528 24.1117C47.5804 23.893 47.4228 23.468 47.257 23.1635C47.0884 22.8551 46.918 22.54 46.6456 22.3222C46.6055 22.4783 46.5654 22.6354 46.5254 22.7915C47.8036 22.7077 49.0891 22.6065 50.3701 22.6036C50.3136 22.5785 50.258 22.5544 50.2016 22.5303C50.8302 23.2194 51.4597 23.9074 52.0884 24.5965C52.0884 24.4779 52.0884 24.3594 52.0884 24.2409C51.5581 24.7275 51.0279 25.2132 50.4976 25.6989C50.2653 25.9119 50.6033 26.2665 50.8338 26.0545C51.3641 25.5688 51.8943 25.0822 52.4246 24.5965C52.523 24.5059 52.5093 24.3324 52.4246 24.2409C51.8542 23.6164 51.2839 22.9919 50.7127 22.3675C50.6471 22.2952 50.5742 22.1844 50.4885 22.1352C50.3018 22.0292 49.941 22.1073 49.736 22.115C49.0891 22.1371 48.4432 22.1728 47.7972 22.2104C47.3727 22.2354 46.9481 22.2605 46.5235 22.2884C46.2739 22.3048 46.2174 22.6084 46.4033 22.7578C46.6757 22.9765 46.8333 23.4015 46.9991 23.706C47.1677 24.0144 47.339 24.3295 47.6105 24.5473C47.6105 24.4028 47.6105 24.2573 47.6105 24.1127C46.9991 24.4934 46.7012 25.2527 46.0953 25.6295C45.8758 25.7664 45.9942 26.0719 46.2156 26.0989C47.7152 26.2829 49.2294 26.3427 50.7282 26.1191C51.0325 26.0728 50.904 25.5871 50.6033 25.6324Z" fill="#C57207"/>
<path d="M47.7337 24.5802C51.1411 24.6891 54.5559 24.5975 57.9624 24.4954C61.9046 24.3778 65.845 24.2072 69.7836 23.9836C71.5256 23.8844 73.2684 23.7764 75.0086 23.6396C75.312 23.6155 75.3147 23.1115 75.0086 23.1356C71.6066 23.4045 68.1983 23.5789 64.7909 23.7331C60.8514 23.9114 56.9101 24.0511 52.9669 24.1012C51.2231 24.1234 49.4775 24.1321 47.7346 24.0762C47.4267 24.0665 47.4276 24.5705 47.7337 24.5802Z" fill="#C57207"/>
<path d="M74.7803 21.5237C76.2125 22.1164 77.6456 22.7081 79.0778 23.3007C79.2846 23.3865 79.4914 23.4723 79.6983 23.5571C79.6791 23.4038 79.66 23.2506 79.6418 23.0964C78.3025 23.77 76.9632 24.4437 75.623 25.1173C75.4344 25.2117 75.2467 25.3071 75.0581 25.4016C75.1775 25.4738 75.2969 25.5471 75.4162 25.6194C75.3041 24.1738 75.193 22.7273 75.0809 21.2818C75.0563 20.9609 74.5798 20.958 74.6044 21.2818C74.7165 22.7273 74.8276 24.1738 74.9397 25.6194C74.9552 25.8179 75.1283 25.922 75.2978 25.8372C76.637 25.1635 77.9763 24.4899 79.3165 23.8163C79.5051 23.7219 79.6928 23.6264 79.8814 23.532C80.0864 23.4289 79.9953 23.1427 79.8249 23.0714C78.3918 22.4787 76.9596 21.887 75.5273 21.2943C75.3205 21.2086 75.1137 21.1228 74.9069 21.038C74.6208 20.9195 74.4969 21.4061 74.7803 21.5237Z" fill="#C57207"/>
<path d="M69.9523 2.94622C71.3654 4.16432 71.5075 6.23336 71.1239 7.99112C70.6812 10.0206 69.6799 11.8632 69.3191 13.9188C69.2635 14.2358 69.7227 14.3717 69.7783 14.0527C70.1655 11.8449 71.2989 9.87609 71.6724 7.66636C71.9758 5.86908 71.7025 3.80776 70.2894 2.59062C70.0534 2.38632 69.7145 2.74096 69.9523 2.94622Z" fill="#C57207"/>
<path d="M69.9096 34.5374C71.8237 37.5711 71.8429 41.7255 69.9542 44.7785C69.7857 45.0503 70.1984 45.3028 70.3651 45.0329C72.3403 41.8402 72.323 37.4574 70.3205 34.284C70.1519 34.0151 69.7392 34.2666 69.9096 34.5374Z" fill="#C57207"/>
<path d="M67.881 19.5485C67.9019 20.3069 68.117 21.0557 68.3721 21.7592C68.6308 22.4743 68.9433 23.172 69.3205 23.8254C69.4799 24.101 69.8917 23.8485 69.7314 23.5709C69.3752 22.9551 69.0745 22.2989 68.8303 21.6253C68.5916 20.9651 68.3757 20.2607 68.3566 19.5485C68.3484 19.2257 67.8719 19.2238 67.881 19.5485Z" fill="#C57207"/>
<path d="M69.25 23.5781C68.5302 24.4184 67.9681 25.4033 67.6884 26.5038C67.4087 27.6034 67.4306 28.7511 67.6848 29.8526C67.7567 30.1677 68.2168 30.0338 68.144 29.7187C67.6593 27.6121 68.2196 25.5314 69.5871 23.9337C69.7921 23.6947 69.4559 23.3371 69.25 23.5781Z" fill="#C57207"/>
<path d="M69.8011 19.3608C69.6416 20.9143 70.0243 22.5082 70.8625 23.7947C71.0347 24.0597 71.4483 23.8082 71.2734 23.5403C70.4771 22.3164 70.1263 20.8372 70.2776 19.3608C70.3104 19.0389 69.8339 19.0409 69.8011 19.3608Z" fill="#C57207"/>
<path d="M71.2104 23.5198C69.3782 25.1321 68.8133 27.8323 69.7572 30.1326C69.8793 30.4294 70.2893 30.1731 70.1681 29.8782C69.3053 27.7745 69.892 25.3325 71.5465 23.8764C71.7825 23.6692 71.4445 23.3145 71.2104 23.5198Z" fill="#C57207"/>
<path d="M52.0851 46.9289C54.8292 46.9915 57.5734 47.0551 60.3175 47.1178C60.6246 47.1245 60.6237 46.6215 60.3175 46.6138C57.5734 46.5511 54.8292 46.4875 52.0851 46.4249C51.7789 46.4181 51.7789 46.9212 52.0851 46.9289Z" fill="#C57207"/>
<path d="M20.4744 20.5766C20.4744 21.0854 20.0845 21.4978 19.6034 21.4978C19.1224 21.4978 18.7324 21.0854 18.7324 20.5766C18.7324 20.0677 19.1224 19.6553 19.6034 19.6553C20.0845 19.6553 20.4744 20.0677 20.4744 20.5766Z" fill="url(#paint2_linear_4488_22791)"/>
<path d="M44.1631 70.947C44.951 70.947 45.5898 70.2713 45.5898 69.4378C45.5898 68.6044 44.951 67.9287 44.1631 67.9287C43.3751 67.9287 42.7363 68.6044 42.7363 69.4378C42.7363 70.2713 43.3751 70.947 44.1631 70.947Z" fill="url(#paint3_linear_4488_22791)"/>
<path d="M52.0526 64.939C52.0526 65.3206 51.7601 65.63 51.3993 65.63C51.0386 65.63 50.7461 65.3206 50.7461 64.939C50.7461 64.5574 51.0386 64.248 51.3993 64.248C51.7592 64.248 52.0526 64.5574 52.0526 64.939Z" fill="url(#paint4_linear_4488_22791)"/>
<path d="M64.0799 33.7642C64.0799 34.1458 63.7875 34.4552 63.4267 34.4552C63.0659 34.4552 62.7734 34.1458 62.7734 33.7642C62.7734 33.3826 63.0659 33.0732 63.4267 33.0732C63.7875 33.0732 64.0799 33.3826 64.0799 33.7642Z" fill="url(#paint5_linear_4488_22791)"/>
<path d="M5.29794 28.4292C4.52079 28.4292 4.1928 26.8747 4.13267 26.2763C4.11992 26.1481 4.01788 26.0508 3.8958 26.0508C3.77371 26.0508 3.67258 26.1481 3.65892 26.2763C3.59879 26.8747 3.2708 28.4292 2.49365 28.4292C2.36245 28.4292 2.25586 28.5419 2.25586 28.6807C2.25586 28.8204 2.36245 28.9322 2.49365 28.9322C3.2708 28.9322 3.59879 30.4866 3.65892 31.0851C3.67167 31.2133 3.77371 31.3106 3.8958 31.3106C4.01788 31.3106 4.11901 31.2133 4.13267 31.0851C4.1928 30.4857 4.52079 28.9322 5.29794 28.9322C5.42914 28.9322 5.53573 28.8195 5.53573 28.6807C5.53573 28.5409 5.43005 28.4292 5.29794 28.4292Z" fill="url(#paint6_linear_4488_22791)"/>
<path d="M14.0335 38.7362C13.5279 38.7362 13.3147 37.7253 13.2755 37.3359C13.2673 37.2531 13.2008 37.1895 13.1216 37.1895C13.0423 37.1895 12.9758 37.2531 12.9676 37.3359C12.9284 37.7253 12.7152 38.7362 12.2096 38.7362C12.1239 38.7362 12.0547 38.8094 12.0547 38.9C12.0547 38.9906 12.1239 39.0638 12.2096 39.0638C12.7152 39.0638 12.9284 40.0747 12.9676 40.4641C12.9758 40.5469 13.0423 40.6105 13.1216 40.6105C13.2008 40.6105 13.2673 40.5469 13.2755 40.4641C13.3147 40.0747 13.5279 39.0638 14.0335 39.0638C14.1192 39.0638 14.1884 38.9906 14.1884 38.9C14.1884 38.8084 14.1192 38.7362 14.0335 38.7362Z" fill="url(#paint7_linear_4488_22791)"/>
<path d="M79.8421 59.0145C79.3365 59.0145 79.1233 58.0036 79.0841 57.6143C79.0759 57.5314 79.0094 57.4678 78.9301 57.4678C78.8509 57.4678 78.7844 57.5314 78.7762 57.6143C78.737 58.0036 78.5238 59.0145 78.0182 59.0145C77.9325 59.0145 77.8633 59.0877 77.8633 59.1783C77.8633 59.2689 77.9325 59.3421 78.0182 59.3421C78.5238 59.3421 78.737 60.353 78.7762 60.7424C78.7844 60.8253 78.8509 60.8889 78.9301 60.8889C79.0094 60.8889 79.0759 60.8253 79.0841 60.7424C79.1233 60.353 79.3365 59.3421 79.8421 59.3421C79.9278 59.3421 79.997 59.2689 79.997 59.1783C79.9961 59.0877 79.9269 59.0145 79.8421 59.0145Z" fill="url(#paint8_linear_4488_22791)"/>
<path d="M71.4972 53.586C71.1401 53.586 70.9888 52.8709 70.9615 52.5963C70.9551 52.5375 70.9086 52.4932 70.8531 52.4932C70.7975 52.4932 70.7501 52.5375 70.7446 52.5963C70.7164 52.8719 70.5661 53.586 70.2089 53.586C70.1488 53.586 70.0996 53.638 70.0996 53.7016C70.0996 53.7652 70.1488 53.8173 70.2089 53.8173C70.5661 53.8173 70.7173 54.5323 70.7446 54.8079C70.751 54.8667 70.7975 54.9111 70.8531 54.9111C70.9086 54.9111 70.956 54.8658 70.9615 54.8079C70.9897 54.5323 71.1401 53.8173 71.4972 53.8173C71.5573 53.8173 71.6065 53.7652 71.6065 53.7016C71.6065 53.638 71.5582 53.586 71.4972 53.586Z" fill="url(#paint9_linear_4488_22791)"/>
<path d="M76.029 68.9608C74.9977 68.9608 74.5631 66.8975 74.482 66.1034C74.4647 65.9338 74.3299 65.8047 74.1677 65.8047C74.0064 65.8047 73.8707 65.9338 73.8534 66.1034C73.7732 66.8975 73.3377 68.9608 72.3064 68.9608C72.1315 68.9608 71.9902 69.1101 71.9902 69.2952C71.9902 69.4802 72.1315 69.6296 72.3064 69.6296C73.3377 69.6296 73.7732 71.6928 73.8534 72.4879C73.8707 72.6575 74.0055 72.7866 74.1677 72.7866C74.329 72.7866 74.4647 72.6575 74.482 72.4879C74.5622 71.6928 74.9977 69.6296 76.029 69.6296C76.204 69.6296 76.3452 69.4802 76.3452 69.2952C76.3452 69.1101 76.204 68.9608 76.029 68.9608Z" fill="url(#paint10_linear_4488_22791)"/>
</g>
<defs>
<linearGradient id="paint0_linear_4488_22791" x1="36.3125" y1="-2.20786" x2="36.6282" y2="84.3409" gradientUnits="userSpaceOnUse">
<stop stop-color="#EBCB76"/>
<stop offset="1" stop-color="#E19256"/>
</linearGradient>
<linearGradient id="paint1_linear_4488_22791" x1="77.1533" y1="-2.35677" x2="77.469" y2="84.191" gradientUnits="userSpaceOnUse">
<stop stop-color="#EBCB76"/>
<stop offset="1" stop-color="#E19256"/>
</linearGradient>
<linearGradient id="paint2_linear_4488_22791" x1="19.604" y1="15.4759" x2="19.604" y2="77.8773" gradientUnits="userSpaceOnUse">
<stop stop-color="#EBCB76"/>
<stop offset="1" stop-color="#E19256"/>
</linearGradient>
<linearGradient id="paint3_linear_4488_22791" x1="44.163" y1="15.4764" x2="44.163" y2="77.8772" gradientUnits="userSpaceOnUse">
<stop stop-color="#EBCB76"/>
<stop offset="1" stop-color="#E19256"/>
</linearGradient>
<linearGradient id="paint4_linear_4488_22791" x1="51.3987" y1="15.4765" x2="51.3987" y2="77.8767" gradientUnits="userSpaceOnUse">
<stop stop-color="#EBCB76"/>
<stop offset="1" stop-color="#E19256"/>
</linearGradient>
<linearGradient id="paint5_linear_4488_22791" x1="63.4261" y1="15.4743" x2="63.4261" y2="77.8788" gradientUnits="userSpaceOnUse">
<stop stop-color="#EBCB76"/>
<stop offset="1" stop-color="#E19256"/>
</linearGradient>
<linearGradient id="paint6_linear_4488_22791" x1="3.89625" y1="15.4756" x2="3.89625" y2="77.8759" gradientUnits="userSpaceOnUse">
<stop stop-color="#EBCB76"/>
<stop offset="1" stop-color="#E19256"/>
</linearGradient>
<linearGradient id="paint7_linear_4488_22791" x1="13.1219" y1="15.4758" x2="13.1219" y2="77.8766" gradientUnits="userSpaceOnUse">
<stop stop-color="#EBCB76"/>
<stop offset="1" stop-color="#E19256"/>
</linearGradient>
<linearGradient id="paint8_linear_4488_22791" x1="78.9298" y1="15.476" x2="78.9298" y2="77.8768" gradientUnits="userSpaceOnUse">
<stop stop-color="#EBCB76"/>
<stop offset="1" stop-color="#E19256"/>
</linearGradient>
<linearGradient id="paint9_linear_4488_22791" x1="70.8527" y1="15.4757" x2="70.8527" y2="77.8774" gradientUnits="userSpaceOnUse">
<stop stop-color="#EBCB76"/>
<stop offset="1" stop-color="#E19256"/>
</linearGradient>
<linearGradient id="paint10_linear_4488_22791" x1="74.1687" y1="15.4769" x2="74.1687" y2="77.877" gradientUnits="userSpaceOnUse">
<stop stop-color="#EBCB76"/>
<stop offset="1" stop-color="#E19256"/>
</linearGradient>
<clipPath id="clip0_4488_22791">
<rect width="80" height="84" fill="white"/>
</clipPath>
</defs>
</svg>
