<svg width="80" height="84" viewBox="0 0 80 84" fill="none" xmlns="http://www.w3.org/2000/svg">
<path d="M58.5301 81.9677C60.8058 82.6065 63.353 82.0983 65.2405 80.6268C67.129 79.1552 68.5004 76.7556 68.5581 74.2977C70.4139 72.9025 71.635 70.6254 71.8036 68.2448C71.9721 65.8643 71.3124 63.5259 69.6724 61.8615C70.7702 59.6537 70.4447 56.8422 69.1263 54.769C67.8089 52.6958 65.6151 51.3318 63.2952 50.7542C60.9752 50.1767 58.6929 51.7466 56.4143 51.0094C55.0025 50.5523 53.6543 49.9798 52.8444 48.69C52.7298 50.8034 54.2899 53.1931 56.2477 53.7505C56.9941 55.4019 58.4396 56.9226 60.1384 57.3656C60.0931 60.3568 61.9893 63.5781 64.7349 64.4409C63.5379 65.4725 62.6981 66.9461 62.4025 68.5361C62.1068 70.1262 62.4679 72.0889 63.2095 73.5122C60.2722 73.4881 57.3456 75.1806 55.9222 77.8605C53.0842 76.2463 49.4642 76.2192 46.6502 77.8776C46.0088 74.6553 43.7553 71.6268 40.846 70.3522C41.8004 68.8214 42.2453 66.9531 42.0893 65.134C41.9333 63.3159 41.4103 61.7349 40.2104 60.406C42.3782 58.6874 43.8998 56.1873 44.8118 53.5115C45.1604 52.4889 45.4031 51.4363 45.6024 50.3725C46.0377 50.2681 46.4653 50.1345 46.863 49.9366C47.568 50.6799 48.5319 51.4473 49.2369 52.1906C49.4728 54.3462 49.8725 56.558 50.1084 58.7125C51.7533 60.4934 53.3972 62.2743 55.042 64.0562C55.4609 63.9729 55.6892 63.4526 55.6247 63.0126C55.5611 62.5727 55.2895 62.2 55.0276 61.8484C54.0771 60.5738 53.323 59.3283 52.3725 58.0536C52.3947 56.2094 52.5776 54.2738 52.6007 52.4297C51.2727 50.0762 49.4256 48.1577 47.1625 46.7846C46.7927 46.8358 46.4239 46.8871 46.0541 46.9393C46.0993 46.3406 46.1388 45.741 46.161 45.1423C46.1706 44.8741 46.161 44.6049 46.1667 44.3367C46.2881 44.3257 46.422 44.3187 46.5385 44.3056C47.8097 45.8816 49.4006 47.1743 50.9655 48.4309C53.1834 47.8815 55.1797 46.6731 56.6618 44.8661C57.752 45.9017 58.9442 46.9584 60.0344 47.993C60.5987 47.9819 61.1823 47.6826 61.4722 47.1774C59.9766 45.0077 57.9937 43.3885 55.823 41.9692C54.1975 43.1846 52.5054 44.2001 50.8798 45.4155C49.6751 43.9289 48.3615 42.7708 46.8023 41.7C46.5905 41.688 46.3796 41.704 46.1677 41.7151C46.1407 40.7207 46.0878 39.7273 46.005 38.7359C46.1417 38.7148 46.2871 38.6957 46.42 38.6736C47.6787 40.5299 49.469 42.0566 51.3729 43.1635C53.4848 42.3268 55.3165 40.6444 56.5174 38.6475C58.9856 38.5511 61.4173 38.3431 63.8855 38.2477C62.96 37.0273 61.3056 36.7069 59.8158 36.7842C58.326 36.8616 56.7533 37.408 55.2703 37.2373C53.9933 38.1593 52.6807 39.2522 51.4037 40.1743C50.3578 38.5722 49.2523 36.6988 47.4389 36.277C46.8755 36.1454 46.2977 36.1072 45.7209 36.1132C45.6072 35.2595 45.4628 34.4107 45.3087 33.5639C45.9289 33.5207 46.5414 33.4334 47.1173 33.2415C48.3788 34.6809 49.8426 36.0821 51.1042 37.5215C51.8602 37.7616 52.6296 37.2443 53.2498 36.733C54.7377 35.5066 56.1399 34.0983 57.4188 32.6378C57.4063 30.1548 57.2907 27.728 57.2791 25.245C56.5241 25.2119 55.8722 25.8808 55.6401 26.6312C55.408 27.3815 55.5004 28.1941 55.6054 28.9756C55.7104 29.7561 55.7499 30.5234 55.5572 31.2858C53.8498 32.0793 52.3985 33.2777 51.2361 34.8045C50.3251 32.6228 48.3133 30.9815 46.0647 30.5827C45.5822 30.4973 45.0949 30.4783 44.6076 30.4833C44.3389 29.5974 43.9845 28.7536 43.5146 27.9771C43.8324 27.7913 44.1338 27.5774 44.3938 27.3112C45.2422 26.4423 45.7093 25.1838 45.6448 23.9453C47.6758 24.338 49.6693 24.4023 51.7225 24.1682C53.7756 23.9342 55.851 22.9759 56.9912 21.18C58.1401 19.372 58.1719 17.0326 57.8627 14.8871C57.0066 8.95877 53.7419 3.45031 49.0395 0C50.0834 1.84921 51.0435 3.63412 52.4139 5.23422C52.3802 5.84694 51.7071 6.26279 51.1649 6.02273C49.86 4.15042 48.4549 2.24598 47.15 0.373667C46.498 1.76283 46.7118 3.10077 47.3936 4.47386C48.0755 5.84796 49.1444 6.96289 50.1961 8.05273C47.7211 11.5482 47.5005 16.5213 49.5325 20.3151C47.4726 19.7014 45.0833 20.3121 43.477 21.7907C42.4938 22.6957 41.7224 24.2004 41.3429 25.7372C41.1734 25.6378 41.0001 25.5453 40.8219 25.466C40.7892 23.9975 40.1574 22.5501 39.0875 21.5948C39.1578 22.7801 39.2618 23.9131 39.3456 25.0783C38.8968 25.0421 38.4442 25.0773 38.0022 25.2089C37.7335 24.9467 37.4118 24.7709 37.0642 24.6685C37.1422 23.648 37.2298 22.6405 37.2915 21.5958C36.4247 22.3693 35.8421 23.4651 35.6302 24.6333C35.2922 24.6996 34.9648 24.8161 34.6566 24.9758C34.2348 23.7173 33.5626 22.5471 32.744 21.7927C31.1377 20.3142 28.7484 19.7024 26.6885 20.3172C28.7205 16.5243 28.5 11.5503 26.025 8.05475C27.0766 6.96391 28.1456 5.84998 28.8274 4.47588C29.5092 3.10179 29.723 1.76485 29.0711 0.37569C27.7661 2.248 26.3611 4.15244 25.0562 6.02475C24.515 6.26481 23.8408 5.84897 23.8071 5.23625C25.1775 3.63715 26.1377 1.85123 27.1816 0.00202314C22.4801 3.45133 19.2154 8.95975 18.3583 14.8891C18.0482 17.0336 18.081 19.374 19.2299 21.182C20.3701 22.978 22.4464 23.9362 24.4986 24.1703C26.5518 24.4043 28.5452 24.339 30.5763 23.9473C30.5108 25.1858 30.9788 26.4444 31.8272 27.3132C32.0035 27.494 32.2047 27.6467 32.4089 27.7913C32.1932 28.3126 32.0025 28.848 31.8436 29.3864C31.7358 29.75 31.6462 30.1227 31.5499 30.4913C31.0039 30.4762 30.4588 30.4893 29.9185 30.5847C27.6689 30.9835 25.6581 32.6248 24.747 34.8065C23.5847 33.2797 22.1334 32.0814 20.4259 31.2878C20.2333 30.5255 20.2728 29.758 20.3778 28.9776C20.4828 28.1971 20.5752 27.3835 20.3431 26.6332C20.111 25.8829 19.4591 25.2139 18.704 25.247C18.6915 27.7301 18.576 30.1568 18.5644 32.6398C19.8433 34.1003 21.2455 35.5086 22.7334 36.735C23.3535 37.2463 24.123 37.7626 24.879 37.5235C26.1405 36.0841 27.6044 34.6829 28.8659 33.2435C29.5034 33.4555 30.1862 33.5469 30.8748 33.578C30.7294 34.4167 30.6167 35.2655 30.5252 36.1193C29.8607 36.0891 29.1934 36.1263 28.5443 36.278C26.7309 36.7009 25.6253 38.5742 24.5795 40.1753C23.3025 39.2532 21.9899 38.1603 20.7129 37.2382C19.2299 37.409 17.6572 36.8626 16.1674 36.7852C14.6776 36.7079 13.0222 37.0283 12.0977 38.2487C14.5659 38.3452 16.9976 38.5531 19.4658 38.6485C20.6667 40.6454 22.4974 42.3278 24.6103 43.1646C26.5142 42.0576 28.3054 40.5309 29.5632 38.6746C29.8068 38.7148 30.0697 38.7509 30.3239 38.7881C30.2816 39.7735 30.2652 40.7619 30.2893 41.7533C29.9214 41.7051 29.5506 41.68 29.1799 41.7011C27.6207 42.7718 26.3081 43.9299 25.1024 45.4165C23.4768 44.2011 21.7848 43.1856 20.1592 41.9702C17.9885 43.3905 16.0056 45.0087 14.51 47.1784C14.8009 47.6836 15.3835 47.9819 15.9478 47.994C17.038 46.9584 18.2302 45.9017 19.3204 44.8671C20.8025 46.6741 22.7988 47.8815 25.0167 48.4319C26.5816 47.1753 28.1725 45.8826 29.4437 44.3066C29.7558 44.3438 30.0996 44.3669 30.4395 44.391C30.5146 45.2819 30.6158 46.1689 30.7429 47.0538C30.1015 46.9644 29.4601 46.875 28.8187 46.7856C26.5556 48.1587 24.7085 50.0772 23.3805 52.4306C23.4027 54.2748 23.5856 56.2104 23.6087 58.0546C22.6582 59.3293 21.9042 60.5748 20.9537 61.8495C20.6917 62.201 20.4211 62.5737 20.3566 63.0136C20.293 63.4536 20.5203 63.9739 20.9392 64.0572C22.5841 62.2763 24.228 60.4954 25.8728 58.7135C26.1088 56.558 26.5084 54.3462 26.7444 52.1916C27.4493 51.4483 28.4133 50.6809 29.1182 49.9376C29.8203 50.2861 30.5994 50.4669 31.3862 50.5403C32.2548 54.3803 33.6156 58.0636 35.453 61.3492C34.8088 61.7249 34.4669 62.4853 34.2521 63.2225C33.1861 66.8758 34.6499 71.1497 37.4793 73.5714C37.0719 74.5418 37.1441 75.6838 37.5341 76.6622C37.9251 77.6395 38.6108 78.4642 39.3909 79.1412C41.2091 80.7182 43.7024 81.6222 46.0637 81.4976C47.8251 83.0264 50.0834 83.9194 52.3725 83.9947C54.6616 84.068 56.6811 83.378 58.5301 81.9677Z" fill="url(#paint0_linear_4488_21316)"/>
<path d="M58.5056 51.7553C58.2071 52.5468 57.5224 53.1936 56.7366 53.4407C56.4274 53.5382 56.5594 54.0444 56.8704 53.947C57.8402 53.6416 58.6212 52.8742 58.991 51.8949C59.0411 51.7633 58.9361 51.6066 58.8157 51.5725C58.6722 51.5313 58.5557 51.6227 58.5056 51.7553Z" fill="#C57207"/>
<path d="M59.0676 54.0647C62.469 55.6648 65.0885 58.861 66.1295 62.5935C67.1975 66.4205 66.4117 70.591 64.2362 73.8404C61.8093 77.4655 57.7839 79.383 53.6265 79.7155C49.6742 80.0309 45.4898 78.921 42.4948 76.1215C39.7165 73.525 38.1044 69.4027 38.7564 65.5195C38.8372 65.0384 38.9538 64.5653 39.0992 64.1012C39.2003 63.7798 38.7149 63.6412 38.6138 63.9616C37.3802 67.887 38.5464 72.2896 41.085 75.3692C43.7891 78.6498 47.9985 80.2328 52.0741 80.291C56.3547 80.3523 60.8068 78.8035 63.694 75.4014C66.3115 72.3167 67.5952 68.0457 66.9461 63.9636C66.3144 59.993 63.9097 56.3639 60.5998 54.3038C60.1866 54.0466 59.76 53.8176 59.3218 53.6117C59.0281 53.4741 58.7719 53.9261 59.0676 54.0647Z" fill="#C57207"/>
<path d="M69.4917 62.0357C69.5187 61.9664 69.4792 62.0638 69.4705 62.0809C69.4561 62.111 69.4416 62.1401 69.4252 62.1692C69.3935 62.2265 69.3492 62.2777 69.3193 62.335C69.3318 62.3099 69.3424 62.3039 69.3212 62.332C69.3116 62.344 69.3029 62.3551 69.2933 62.3661C69.2721 62.3912 69.2509 62.4154 69.2278 62.4395C69.1826 62.4867 69.1344 62.5299 69.0853 62.573C69.0612 62.5941 69.1257 62.5429 69.0882 62.571C69.0737 62.5821 69.0602 62.5921 69.0458 62.6032C69.0217 62.6203 68.9977 62.6373 68.9726 62.6524C68.9177 62.6876 68.8609 62.7177 68.8031 62.7458C68.7607 62.7669 68.8368 62.7327 68.807 62.7448C68.7935 62.7498 68.78 62.7559 68.7665 62.7609C68.7338 62.774 68.701 62.785 68.6673 62.796C68.6057 62.8151 68.5441 62.8292 68.4805 62.8402C68.3505 62.8623 68.2658 63.0381 68.3043 63.1637C68.3495 63.3103 68.4747 63.3706 68.6144 63.3465C68.9206 63.2932 69.1999 63.1446 69.4416 62.9447C69.6853 62.7428 69.8615 62.4736 69.978 62.1753C70.0281 62.0477 69.9241 61.881 69.8018 61.8528C69.6554 61.8177 69.5456 61.9001 69.4917 62.0357Z" fill="#C57207"/>
<path d="M68.0792 74.0609C67.4657 74.2869 66.7964 74.1905 66.261 73.7947C66.1502 73.7123 65.9807 73.7736 65.9172 73.8891C65.843 74.0207 65.896 74.1664 66.0077 74.2487C66.6366 74.7138 67.4869 74.8354 68.2131 74.5672C68.3411 74.5199 68.4268 74.3883 68.3893 74.2447C68.3546 74.1141 68.2073 74.0127 68.0792 74.0609Z" fill="#C57207"/>
<path d="M58.5257 81.5565C58.4853 81.5354 58.4458 81.5113 58.4082 81.4842C58.3986 81.4772 58.3899 81.4701 58.3803 81.4641C58.3553 81.446 58.4256 81.5033 58.3938 81.4742C58.3765 81.4591 58.3591 81.444 58.3427 81.4269C58.309 81.3948 58.2782 81.3597 58.2493 81.3235C58.2426 81.3155 58.2166 81.2813 58.2436 81.3165C58.2715 81.3526 58.2426 81.3144 58.2387 81.3084C58.2253 81.2893 58.2127 81.2692 58.2012 81.2492C58.1771 81.209 58.1569 81.1668 58.1367 81.1236C58.1213 81.0905 58.1424 81.1427 58.1453 81.1467C58.1386 81.1397 58.1338 81.1166 58.1309 81.1065C58.1241 81.0864 58.1174 81.0663 58.1116 81.0452C58.0981 81 58.0895 80.9538 58.0818 80.9066C58.076 80.8745 58.0885 80.9729 58.0847 80.9267C58.0837 80.9147 58.0827 80.9036 58.0818 80.8916C58.0798 80.8655 58.0789 80.8393 58.0789 80.8132C58.0789 80.6756 57.9633 80.544 57.8275 80.5511C57.6917 80.5571 57.5752 80.6666 57.5762 80.8132C57.5771 81.3024 57.8516 81.7855 58.2734 82.0075C58.3909 82.0688 58.5517 82.0437 58.6172 81.9131C58.6769 81.7966 58.6509 81.6228 58.5257 81.5565Z" fill="#C57207"/>
<path d="M46.1038 79.7336C45.7003 79.9596 45.4874 80.51 45.6386 80.963C45.682 81.0926 45.8129 81.192 45.9478 81.1458C46.071 81.1046 46.1693 80.962 46.124 80.8234C46.1076 80.7752 46.097 80.727 46.0903 80.6758C46.0932 80.6989 46.0961 80.722 46.099 80.7451C46.0913 80.6778 46.0922 80.6105 46.1009 80.5442C46.098 80.5673 46.0951 80.5904 46.0922 80.6145C46.1009 80.5562 46.1144 80.4979 46.1346 80.4427C46.1375 80.4347 46.1404 80.4266 46.1433 80.4186C46.1384 80.4317 46.1327 80.4447 46.1278 80.4578C46.1298 80.4437 46.1423 80.4246 46.149 80.4116C46.1615 80.3875 46.175 80.3634 46.1895 80.3403C46.1972 80.3282 46.2068 80.3161 46.2136 80.3041C46.177 80.3664 46.1895 80.3352 46.2039 80.3171C46.2222 80.295 46.2415 80.2729 46.2627 80.2529C46.2713 80.2438 46.281 80.2358 46.2896 80.2278C46.3214 80.1976 46.2338 80.2689 46.2867 80.2308C46.3099 80.2137 46.3339 80.1986 46.359 80.1846C46.4755 80.1193 46.5208 79.9415 46.4495 79.825C46.3725 79.7044 46.228 79.6632 46.1038 79.7336Z" fill="#C57207"/>
<path d="M38.9942 72.9046C38.453 72.8614 37.9223 73.1517 37.6209 73.6158C37.5468 73.7293 37.5968 73.9121 37.7114 73.9744C37.8386 74.0447 37.9763 74.0015 38.0552 73.8799C38.0629 73.8669 38.0716 73.8548 38.0803 73.8428C38.0841 73.8368 38.1082 73.8026 38.087 73.8327C38.0649 73.8659 38.0947 73.8237 38.1005 73.8167C38.1082 73.8076 38.1159 73.7986 38.1236 73.7895C38.1583 73.7494 38.1968 73.7112 38.2363 73.675C38.2469 73.665 38.2584 73.6559 38.27 73.6459C38.296 73.6228 38.2324 73.674 38.2604 73.6539C38.2816 73.6389 38.3027 73.6218 38.3249 73.6077C38.3711 73.5766 38.4202 73.5485 38.4693 73.5234C38.4799 73.5184 38.4905 73.5133 38.5011 73.5083C38.531 73.4922 38.4433 73.5314 38.4973 73.5103C38.5223 73.5003 38.5464 73.4912 38.5714 73.4822C38.6215 73.4651 38.6716 73.4511 38.7236 73.441C38.7351 73.439 38.7467 73.437 38.7583 73.434C38.7968 73.4269 38.7766 73.436 38.7515 73.434C38.7766 73.436 38.8045 73.4279 38.8295 73.4269C38.8844 73.4239 38.9403 73.4249 38.9952 73.4289C39.1271 73.439 39.2523 73.3004 39.2465 73.1668C39.2398 73.0161 39.1348 72.9167 38.9942 72.9046Z" fill="#C57207"/>
<path d="M39.9734 60.1642C38.6204 61.2199 36.8455 61.5503 35.2295 61.03C34.9194 60.9306 34.7865 61.4368 35.0957 61.5363C36.8262 62.0927 38.7764 61.7502 40.2277 60.6172C40.4838 60.4173 40.2325 59.9613 39.9734 60.1642Z" fill="#C57207"/>
<path d="M40.3915 29.2853C40.3732 29.2853 40.3559 29.2853 40.3376 29.2853C40.3029 29.2842 40.2711 29.2913 40.2403 29.3074C40.2095 29.3174 40.1825 29.3365 40.1594 29.3616C40.1353 29.3857 40.118 29.4138 40.1074 29.446C40.092 29.4771 40.0843 29.5113 40.0862 29.5474C40.0891 29.5705 40.092 29.5936 40.0949 29.6167C40.1074 29.6609 40.1286 29.7001 40.1594 29.7322C40.1768 29.7463 40.1931 29.7594 40.2105 29.7734C40.2499 29.7975 40.2923 29.8096 40.3376 29.8096C40.3559 29.8096 40.3732 29.8096 40.3915 29.8096C40.4262 29.8106 40.458 29.8035 40.4888 29.7875C40.5196 29.7764 40.5466 29.7584 40.5697 29.7333C40.5937 29.7091 40.6111 29.681 40.6217 29.6489C40.6371 29.6177 40.6448 29.5836 40.6429 29.5474C40.64 29.5243 40.6371 29.5012 40.6342 29.4781C40.6226 29.4339 40.6005 29.3948 40.5697 29.3626C40.5523 29.3486 40.536 29.3355 40.5186 29.3214C40.4792 29.2973 40.4368 29.2853 40.3915 29.2853Z" fill="#C57207"/>
<path d="M35.1559 29.8662C35.1742 29.8662 35.1916 29.8662 35.2099 29.8662C35.2445 29.8672 35.2773 29.8602 35.3071 29.8441C35.338 29.8341 35.3659 29.815 35.388 29.7899C35.4131 29.7658 35.4304 29.7376 35.44 29.7055C35.4554 29.6744 35.4631 29.6402 35.4612 29.6041C35.4583 29.581 35.4554 29.5579 35.4526 29.5348C35.441 29.4906 35.4188 29.4514 35.388 29.4192C35.3707 29.4052 35.3543 29.3921 35.337 29.3781C35.2975 29.354 35.2551 29.3429 35.2099 29.3419C35.1916 29.3419 35.1742 29.3419 35.1559 29.3419C35.1213 29.3409 35.0895 29.3479 35.0587 29.364C35.0279 29.375 35.0009 29.3931 34.9778 29.4182C34.9537 29.4424 34.9354 29.4705 34.9258 29.5026C34.9104 29.5337 34.9027 29.5679 34.9046 29.6041C34.9075 29.6272 34.9104 29.6503 34.9133 29.6734C34.9248 29.7176 34.947 29.7567 34.9778 29.7889C34.9951 29.8029 35.0115 29.816 35.0288 29.83C35.0683 29.8542 35.1107 29.8662 35.1559 29.8662Z" fill="#C57207"/>
<path d="M37.7887 30.4492C37.781 37.4221 37.7733 44.3961 37.7665 51.369C37.7646 53.3307 37.7627 55.2914 37.7598 57.2532C37.7598 57.5907 38.2625 57.5917 38.2634 57.2532C38.2711 50.2802 38.2788 43.3062 38.2856 36.3333C38.2875 34.3716 38.2894 32.4109 38.2923 30.4492C38.2923 30.1107 37.7887 30.1107 37.7887 30.4492Z" fill="#C57207"/>
<path d="M41.7389 47.9389C39.4719 48.0594 37.205 48.181 34.938 48.3015C34.6154 48.3186 34.6135 48.8439 34.938 48.8268C37.205 48.7063 39.4719 48.5848 41.7389 48.4642C42.0615 48.4461 42.0635 47.9218 41.7389 47.9389Z" fill="#C57207"/>
<path d="M44.103 29.7487C45.744 35.6449 46.2159 41.8695 45.4965 47.9626C45.2933 49.6792 44.9899 51.3827 44.5989 53.0632C44.5229 53.3916 45.0073 53.5313 45.0843 53.2028C46.4903 47.168 46.7012 40.856 45.7132 34.7329C45.4339 33.0042 45.0573 31.2936 44.5883 29.6091C44.4988 29.2857 44.0125 29.4233 44.103 29.7487Z" fill="#C57207"/>
<path d="M31.7484 29.3723C29.832 35.6783 29.4535 42.4614 30.6197 48.9622C30.9491 50.7994 31.4046 52.6104 31.9795 54.3813C32.0826 54.6997 32.5689 54.5631 32.4649 54.2417C30.4493 48.0291 29.9408 41.3063 30.9943 34.8396C31.2881 33.0356 31.7041 31.2557 32.2347 29.5119C32.332 29.1885 31.8466 29.0509 31.7484 29.3723Z" fill="#C57207"/>
<path d="M34.6297 25.5404C35.6496 24.8945 36.9785 24.9638 37.9416 25.6911C38.2045 25.8899 38.4558 25.4339 38.1958 25.2381C37.0941 24.4054 35.5359 24.3521 34.3755 25.0874C34.0991 25.2622 34.3514 25.7162 34.6297 25.5404Z" fill="#C57207"/>
<path d="M38.0917 25.6621C39.1982 25.401 40.3674 25.6782 41.2745 26.3834C41.3843 26.4687 41.5548 26.4014 41.6183 26.2889C41.6944 26.1563 41.6366 26.0137 41.5278 25.9293C40.5137 25.1418 39.1867 24.8656 37.9569 25.1549C37.642 25.2302 37.7759 25.7365 38.0917 25.6621Z" fill="#C57207"/>
<path d="M55.6491 31.7115C55.6857 31.7105 55.7223 31.7115 55.7598 31.7165C55.7377 31.7135 55.7155 31.7105 55.6924 31.7075C55.7473 31.7165 55.7993 31.7316 55.8504 31.7537C55.8301 31.7447 55.8099 31.7356 55.7906 31.7276C55.8446 31.7527 55.8956 31.7828 55.9428 31.82C55.9255 31.8059 55.9091 31.7929 55.8918 31.7788C55.9447 31.822 55.9919 31.8702 56.0333 31.9254C56.0198 31.9074 56.0073 31.8903 55.9938 31.8722C56.0343 31.9275 56.068 31.9867 56.094 32.051C56.0853 32.0299 56.0767 32.0088 56.069 31.9887C56.0911 32.046 56.1065 32.1043 56.1142 32.1655C56.1113 32.1424 56.1084 32.1193 56.1056 32.0962C56.1113 32.1495 56.1123 32.2027 56.1056 32.2559C56.1084 32.2328 56.1113 32.2097 56.1142 32.1856C56.1123 32.1977 56.1113 32.2087 56.1094 32.2197C56.0969 32.2901 56.0988 32.3584 56.1344 32.4217C56.1653 32.4759 56.225 32.5281 56.2847 32.5422C56.4079 32.5713 56.5697 32.503 56.5948 32.3594C56.6208 32.2097 56.6198 32.06 56.5765 31.9134C56.5331 31.7667 56.4599 31.6382 56.3646 31.5227C56.1913 31.3117 55.9187 31.1751 55.65 31.1862C55.5191 31.1912 55.392 31.3027 55.3987 31.4484C55.4035 31.586 55.5085 31.7165 55.6491 31.7115Z" fill="#C57207"/>
<path d="M51.1303 35.0356C51.1467 35.0557 51.165 35.0959 51.1245 35.0246C51.1303 35.0336 51.1371 35.0426 51.1419 35.0517C51.1553 35.0727 51.165 35.0959 51.1756 35.119C51.139 35.0446 51.1582 35.0758 51.165 35.0969C51.1698 35.1109 51.1736 35.124 51.1775 35.1381C51.1842 35.1622 51.1881 35.1873 51.1919 35.2124C51.189 35.1893 51.1862 35.1662 51.1833 35.1431C51.19 35.1983 51.19 35.2526 51.1833 35.3068C51.1862 35.2837 51.189 35.2606 51.1919 35.2375C51.1862 35.2827 51.1765 35.3279 51.1621 35.3711C51.1553 35.3932 51.1332 35.4324 51.1698 35.354C51.165 35.3641 51.1611 35.3741 51.1563 35.3842C51.1467 35.4032 51.137 35.4223 51.1255 35.4414C51.1197 35.4504 51.1139 35.4595 51.1082 35.4685C51.0841 35.5057 51.1505 35.4173 51.1216 35.4494C51.1072 35.4655 51.0937 35.4816 51.0783 35.4966C51.0706 35.5037 51.0619 35.5107 51.0552 35.5177C51.1101 35.4625 51.0908 35.4896 51.0725 35.5027C51.0523 35.5167 51.0311 35.5298 51.009 35.5408C50.8905 35.6011 50.8491 35.7869 50.9184 35.8994C50.9964 36.026 51.1361 36.0581 51.2632 35.9939C51.4741 35.8864 51.6282 35.6533 51.6715 35.4153C51.7197 35.1441 51.6657 34.8739 51.4866 34.665C51.399 34.5625 51.2189 34.5645 51.1313 34.665C51.034 34.7734 51.0359 34.9261 51.1303 35.0356Z" fill="#C57207"/>
<path d="M47.2163 32.8907C47.4398 32.4959 47.2212 31.9354 46.7965 31.8169C46.6693 31.7817 46.5172 31.8611 46.4873 31.9997C46.4575 32.1373 46.5268 32.285 46.6626 32.3222C46.6809 32.3272 46.6982 32.3332 46.7156 32.3412C46.6953 32.3322 46.6751 32.3242 46.6558 32.3151C46.6876 32.3292 46.7165 32.3473 46.7445 32.3694C46.7271 32.3553 46.7107 32.3422 46.6934 32.3282C46.7223 32.3523 46.7483 32.3794 46.7724 32.4105C46.7589 32.3925 46.7464 32.3754 46.7329 32.3573C46.7589 32.3935 46.781 32.4316 46.7984 32.4728C46.7897 32.4517 46.7801 32.4306 46.7724 32.4105C46.7897 32.4547 46.8032 32.5 46.8099 32.5482C46.807 32.5251 46.8042 32.502 46.8013 32.4789C46.8061 32.52 46.8061 32.5612 46.8013 32.6034C46.8042 32.5803 46.807 32.5572 46.8099 32.5341C46.8051 32.5693 46.7965 32.6044 46.783 32.6376C46.7916 32.6165 46.8003 32.5954 46.808 32.5753C46.8003 32.5934 46.7926 32.6104 46.783 32.6275C46.7156 32.746 46.7531 32.9208 46.8735 32.9871C46.9929 33.0514 47.1441 33.0172 47.2163 32.8907Z" fill="#C57207"/>
<path d="M51.51 42.5532C51.7864 42.1454 51.7893 41.5477 51.5216 41.1349C51.4484 41.0214 51.2962 40.9601 51.1778 41.0405C51.0689 41.1128 51.0083 41.2775 51.0872 41.3991C51.1132 41.4392 51.1373 41.4814 51.1575 41.5256C51.1604 41.5327 51.1758 41.5698 51.1614 41.5337C51.1469 41.4975 51.1614 41.5347 51.1643 41.5427C51.172 41.5648 51.1787 41.5859 51.1855 41.608C51.199 41.6552 51.2038 41.7034 51.2153 41.7516C51.2124 41.7386 51.2095 41.6974 51.2124 41.7336C51.2134 41.7456 51.2144 41.7567 51.2153 41.7677C51.2173 41.7938 51.2172 41.8199 51.2172 41.845C51.2172 41.8681 51.2163 41.8913 51.2144 41.9144C51.2134 41.9254 51.2124 41.9375 51.2115 41.9485C51.2095 41.9837 51.2201 41.8953 51.2144 41.9304C51.2047 41.9787 51.1961 42.0259 51.1826 42.0731C51.1758 42.0952 51.1681 42.1163 51.1614 42.1384C51.1498 42.1715 51.1604 42.1333 51.1681 42.1233C51.1614 42.1313 51.1585 42.1454 51.1537 42.1544C51.1315 42.2006 51.1055 42.2448 51.0767 42.287C51.0006 42.3995 51.0535 42.5843 51.1672 42.6466C51.2953 42.7189 51.4291 42.6737 51.51 42.5532Z" fill="#C57207"/>
<path d="M56.2456 38.1359C56.0444 37.6979 55.4223 37.5292 55.0457 37.8184C54.9908 37.8606 54.9484 37.9048 54.9302 37.9752C54.9138 38.0384 54.9215 38.1218 54.9552 38.177C55.0226 38.2865 55.1863 38.3579 55.299 38.2715C55.3163 38.2584 55.3337 38.2464 55.352 38.2353C55.3606 38.2303 55.3702 38.2252 55.3799 38.2202C55.4174 38.1991 55.3183 38.2443 55.3577 38.2293C55.3972 38.2152 55.4367 38.2032 55.4791 38.1971C55.4569 38.2002 55.4348 38.2032 55.4126 38.2062C55.4685 38.1982 55.5243 38.1992 55.5802 38.2062C55.558 38.2032 55.5359 38.2002 55.5137 38.1971C55.559 38.2042 55.6043 38.2152 55.6466 38.2323C55.6669 38.2403 55.6948 38.2604 55.6255 38.2222C55.6351 38.2273 55.6447 38.2313 55.6543 38.2363C55.6746 38.2474 55.6948 38.2594 55.7131 38.2725C55.7218 38.2785 55.7304 38.2855 55.7391 38.2916C55.7555 38.3026 55.6832 38.2433 55.7246 38.2815C55.7401 38.2956 55.7555 38.3117 55.7689 38.3277C55.7757 38.3358 55.7824 38.3448 55.7892 38.3528C55.7362 38.2916 55.7632 38.3167 55.7747 38.3347C55.7882 38.3558 55.8007 38.379 55.8104 38.4021C55.8672 38.5266 56.0473 38.5688 56.1551 38.4965C56.2784 38.4121 56.3073 38.2685 56.2456 38.1359Z" fill="#C57207"/>
<path d="M56.7839 44.3669C56.7695 44.2263 56.7358 44.0967 56.6674 43.9721C56.6116 43.8697 56.5355 43.7742 56.4478 43.6999C56.2572 43.5382 56.0125 43.4317 55.7622 43.4609C55.6938 43.4689 55.635 43.485 55.584 43.5382C55.5407 43.5834 55.5079 43.6587 55.5098 43.724C55.5127 43.7923 55.5339 43.8626 55.584 43.9098C55.6302 43.954 55.6967 43.9942 55.7622 43.9872C55.8151 43.9812 55.8691 43.9822 55.922 43.9892C55.8999 43.9862 55.8777 43.9832 55.8546 43.9802C55.9143 43.9892 55.9721 44.0063 56.0289 44.0314C56.0087 44.0223 55.9885 44.0143 55.9692 44.0053C56.0289 44.0324 56.0838 44.0666 56.1349 44.1077C56.1175 44.0937 56.1011 44.0806 56.0838 44.0665C56.1349 44.1087 56.1801 44.1559 56.2196 44.2092C56.2061 44.1911 56.1936 44.174 56.1801 44.156C56.2167 44.2062 56.2466 44.2604 56.2706 44.3187C56.262 44.2976 56.2533 44.2765 56.2456 44.2554C56.2658 44.3076 56.2803 44.3609 56.288 44.4161C56.2851 44.393 56.2822 44.3699 56.2793 44.3468C56.2803 44.3538 56.2812 44.3618 56.2822 44.3689C56.2899 44.4402 56.3053 44.5015 56.3563 44.5547C56.3997 44.5999 56.4719 44.6341 56.5345 44.6321C56.6 44.6291 56.6674 44.607 56.7127 44.5547C56.7531 44.5045 56.7916 44.4352 56.7839 44.3669Z" fill="#C57207"/>
<path d="M50.6286 46.3504C50.6671 46.4066 50.6989 46.4659 50.7249 46.5282C50.7162 46.5071 50.7076 46.486 50.6999 46.4649C50.7317 46.5452 50.7528 46.6286 50.7644 46.715C50.7615 46.6919 50.7586 46.6688 50.7557 46.6457C50.7654 46.727 50.7654 46.8094 50.7548 46.8908C50.7577 46.8677 50.7605 46.8446 50.7634 46.8205C50.7548 46.8838 50.7403 46.945 50.7201 47.0063C50.6758 47.1359 50.7692 47.2996 50.8954 47.3287C51.036 47.3619 51.1583 47.2845 51.2045 47.1459C51.321 46.8014 51.2671 46.3835 51.0629 46.0852C51.0244 46.028 50.9792 45.9838 50.9127 45.9647C50.852 45.9476 50.7721 45.9556 50.7191 45.9908C50.6122 46.0631 50.5467 46.2309 50.6286 46.3504Z" fill="#C57207"/>
<path d="M51.9342 52.4555C51.5018 52.1009 50.922 51.9693 50.3933 52.1531C50.2691 52.1963 50.1738 52.3359 50.2181 52.4755C50.2585 52.6051 50.3943 52.7056 50.5272 52.6584C50.5782 52.6403 50.6302 52.6252 50.6822 52.6142C50.7082 52.6081 50.7352 52.6011 50.7612 52.5991C50.6928 52.6041 50.7814 52.5981 50.7949 52.5971C50.8488 52.5931 50.9028 52.592 50.9557 52.5951C50.9827 52.5961 51.0097 52.5991 51.0366 52.6011C51.0655 52.6041 51.0636 52.6041 51.0299 52.5991C51.0434 52.6011 51.0569 52.6031 51.0694 52.6061C51.1223 52.6162 51.1743 52.6282 51.2264 52.6443C51.2524 52.6523 51.2774 52.6614 51.3034 52.6704C51.315 52.6744 51.3949 52.7106 51.3371 52.6825C51.3862 52.7056 51.4344 52.7307 51.4806 52.7588C51.5037 52.7729 51.5268 52.7879 51.549 52.804C51.5586 52.811 51.6279 52.8653 51.5788 52.8251C51.6819 52.9095 51.835 52.9386 51.9351 52.8251C52.017 52.7317 52.0449 52.5459 51.9342 52.4555Z" fill="#C57207"/>
<path d="M46.9167 48.2757C46.9282 48.2948 46.9378 48.3148 46.9484 48.3349C46.9581 48.354 46.96 48.3832 46.9398 48.3118C46.9426 48.3219 46.9465 48.3309 46.9504 48.34C46.9571 48.3611 46.9629 48.3831 46.9677 48.4042C46.9696 48.4143 46.9715 48.4244 46.9735 48.4344C46.9831 48.4826 46.9735 48.4093 46.9706 48.4073C46.9773 48.4143 46.9744 48.4585 46.9744 48.4686C46.9754 48.4906 46.9744 48.5137 46.9735 48.5358C46.9735 48.5409 46.9744 48.563 46.9706 48.566C46.9735 48.563 46.9821 48.4906 46.9735 48.5388C46.9696 48.5609 46.9658 48.583 46.96 48.6051C46.9552 48.6252 46.9494 48.6443 46.9427 48.6644C46.9398 48.6744 46.9359 48.6835 46.9321 48.6935C46.9224 48.7227 46.959 48.6323 46.9407 48.6704C46.9215 48.7086 46.9012 48.7458 46.8781 48.7819C46.8541 48.8201 46.8916 48.7699 46.8926 48.7629C46.8916 48.7689 46.8733 48.7859 46.8695 48.791C46.856 48.806 46.8425 48.8201 46.8281 48.8342C46.8223 48.8392 46.8088 48.8553 46.8011 48.8583C46.803 48.8573 46.8531 48.8201 46.8242 48.8392C46.804 48.8522 46.7847 48.8663 46.7635 48.8773C46.648 48.9426 46.6008 49.1194 46.673 49.2369C46.7491 49.3595 46.8935 49.4017 47.0168 49.3314C47.4492 49.0853 47.6091 48.4495 47.3491 48.0135C47.2797 47.897 47.1208 47.8408 47.0052 47.9191C46.8945 47.9914 46.8425 48.1511 46.9167 48.2757Z" fill="#C57207"/>
<path d="M28.6463 31.5406C28.3873 31.6209 28.1899 31.8238 28.0964 32.086C28.0098 32.3311 28.055 32.6425 28.2053 32.8504C28.2467 32.9067 28.2871 32.9508 28.3555 32.9709C28.4162 32.988 28.4961 32.98 28.5491 32.9448C28.603 32.9087 28.6502 32.8554 28.6646 32.7881C28.6791 32.7238 28.6791 32.6415 28.6396 32.5862C28.6261 32.5671 28.6126 32.547 28.6011 32.5269C28.5943 32.5149 28.5876 32.5018 28.5818 32.4888C28.5616 32.4496 28.5982 32.536 28.5876 32.5059C28.5712 32.4576 28.5587 32.4104 28.552 32.3602C28.5548 32.3833 28.5577 32.4064 28.5606 32.4295C28.5548 32.3773 28.5548 32.3251 28.5616 32.2728C28.5587 32.2959 28.5558 32.319 28.5529 32.3431C28.5568 32.315 28.5625 32.2869 28.5703 32.2598C28.5731 32.2487 28.577 32.2377 28.5808 32.2266C28.5905 32.1965 28.5539 32.2839 28.5731 32.2457C28.5857 32.2216 28.5972 32.1975 28.6117 32.1744C28.6174 32.1654 28.6415 32.1312 28.6145 32.1674C28.5866 32.2056 28.6174 32.1644 28.6242 32.1573C28.6406 32.1382 28.6569 32.1212 28.6752 32.1041C28.6781 32.1011 28.682 32.0981 28.6849 32.095C28.7051 32.078 28.6983 32.083 28.6646 32.1111C28.6743 32.1061 28.6829 32.0981 28.6916 32.092C28.7118 32.078 28.733 32.0669 28.7542 32.0559C28.7975 32.0328 28.6954 32.076 28.7426 32.0609C28.7552 32.0569 28.7677 32.0519 28.7802 32.0478C28.9064 32.0087 28.9988 31.862 28.9564 31.7254C28.9141 31.5908 28.7812 31.4984 28.6463 31.5406Z" fill="#C57207"/>
<path d="M24.4186 35.8419C24.4311 35.8549 24.4426 35.869 24.4532 35.883C24.4397 35.8649 24.4272 35.8479 24.4137 35.8298C24.4349 35.8589 24.4513 35.8901 24.4648 35.9242C24.4561 35.9031 24.4474 35.882 24.4397 35.8609C24.4552 35.9001 24.4648 35.9413 24.4706 35.9835C24.4677 35.9604 24.4648 35.9373 24.4619 35.9142C24.4667 35.9604 24.4667 36.0056 24.4619 36.0508C24.4648 36.0277 24.4677 36.0046 24.4706 35.9815C24.4638 36.0307 24.4523 36.0769 24.434 36.1231C24.4426 36.102 24.4513 36.0809 24.459 36.0608C24.4426 36.1 24.4224 36.1372 24.3983 36.1713C24.4118 36.1532 24.4243 36.1362 24.4378 36.1181C24.4147 36.1492 24.3887 36.1773 24.3588 36.2015C24.3762 36.1874 24.3926 36.1743 24.4099 36.1603C24.3868 36.1783 24.3617 36.1944 24.3348 36.2075C24.2808 36.2336 24.2346 36.3059 24.2192 36.3642C24.2028 36.4274 24.2105 36.5108 24.2443 36.5661C24.2789 36.6223 24.33 36.6715 24.3945 36.6866C24.4638 36.7027 24.5245 36.6916 24.588 36.6605C24.7758 36.5681 24.9164 36.3561 24.9511 36.1452C24.9916 35.9021 24.9434 35.653 24.773 35.4722C24.6805 35.3738 24.5081 35.3687 24.4176 35.4722C24.3251 35.5767 24.3194 35.7374 24.4186 35.8419Z" fill="#C57207"/>
<path d="M19.6804 31.685C19.6717 31.7252 19.6592 31.7643 19.6438 31.8025C19.6525 31.7814 19.6611 31.7603 19.6688 31.7402C19.6457 31.7955 19.6159 31.8477 19.5812 31.8959C19.5947 31.8778 19.6072 31.8608 19.6207 31.8427C19.5812 31.8959 19.5359 31.9431 19.4849 31.9843C19.5022 31.9703 19.5186 31.9572 19.5359 31.9431C19.4849 31.9833 19.43 32.0175 19.3703 32.0436C19.3905 32.0345 19.4107 32.0255 19.43 32.0175C19.3761 32.0406 19.3212 32.0566 19.2634 32.0647C19.2856 32.0616 19.3077 32.0587 19.3299 32.0556C19.3116 32.0577 19.2933 32.0596 19.275 32.0606C19.2085 32.0647 19.145 32.0868 19.0968 32.137C19.0535 32.1822 19.0207 32.2575 19.0236 32.3228C19.0265 32.3911 19.0477 32.4614 19.0968 32.5086C19.144 32.5548 19.2085 32.589 19.275 32.586C19.4965 32.5729 19.692 32.4855 19.8614 32.3389C20.0088 32.2103 20.1205 32.0225 20.1638 31.8266C20.1792 31.7583 20.1725 31.686 20.1388 31.6247C20.108 31.5705 20.0483 31.5183 19.9886 31.5042C19.8614 31.471 19.7122 31.5413 19.6804 31.685Z" fill="#C57207"/>
<path d="M20.3188 37.8168C20.208 37.9202 20.0963 38.0227 19.9856 38.1252C19.9615 38.1493 19.9442 38.1774 19.9336 38.2095C19.9182 38.2406 19.9105 38.2748 19.9124 38.311C19.9114 38.3471 19.9182 38.3803 19.9336 38.4124C19.9442 38.4446 19.9615 38.4727 19.9856 38.4968C20.0337 38.543 20.0963 38.5772 20.1637 38.5741C20.1859 38.5711 20.208 38.5681 20.2302 38.5651C20.2726 38.553 20.3101 38.5299 20.3409 38.4978C20.4517 38.3943 20.5624 38.2919 20.6742 38.1894C20.6992 38.1653 20.7165 38.1372 20.7262 38.105C20.7416 38.0739 20.7493 38.0398 20.7483 38.0036C20.7493 37.9675 20.7425 37.9333 20.7262 37.9021C20.7165 37.87 20.6992 37.8419 20.6742 37.8178C20.626 37.7716 20.5634 37.7374 20.496 37.7404C20.4738 37.7434 20.4517 37.7464 20.4295 37.7495C20.3872 37.7615 20.3506 37.7846 20.3188 37.8168Z" fill="#C57207"/>
<path d="M24.9473 40.5074C24.6835 40.5536 24.4572 40.7806 24.384 41.0458C24.3089 41.317 24.3965 41.6415 24.6045 41.8243C24.6565 41.8705 24.7124 41.9016 24.7827 41.9016C24.8443 41.9016 24.9184 41.8735 24.9608 41.8243C25.0465 41.7268 25.0687 41.548 24.9608 41.4526C24.9464 41.4406 24.9329 41.4275 24.9204 41.4134C24.9146 41.4074 24.9098 41.4004 24.904 41.3943C24.8857 41.3743 24.9416 41.4516 24.9175 41.4124C24.8973 41.3803 24.879 41.3481 24.8645 41.312C24.8732 41.3331 24.8819 41.3542 24.8896 41.3743C24.8732 41.3301 24.8616 41.2859 24.8549 41.2387C24.8578 41.2618 24.8607 41.2849 24.8636 41.309C24.8587 41.2668 24.8587 41.2246 24.8636 41.1824C24.8607 41.2055 24.8578 41.2286 24.8549 41.2517C24.8607 41.2095 24.8713 41.1704 24.8867 41.1312C24.878 41.1523 24.8703 41.1734 24.8616 41.1935C24.8742 41.1623 24.8905 41.1352 24.9079 41.1061C24.9319 41.0659 24.8665 41.1543 24.8973 41.1191C24.9079 41.1071 24.9185 41.094 24.93 41.083C24.9387 41.0739 24.9541 41.0538 24.9656 41.0498C24.955 41.0589 24.9445 41.0669 24.9339 41.0759C24.9406 41.0709 24.9464 41.0659 24.9531 41.0619C24.9801 41.0438 25.008 41.0287 25.0369 41.0157C25.0167 41.0247 24.9965 41.0338 24.9772 41.0418C25.0109 41.0277 25.0446 41.0177 25.0802 41.0117C25.139 41.0016 25.2016 40.9424 25.2305 40.8911C25.2622 40.8349 25.2757 40.7525 25.2555 40.6892C25.2362 40.6259 25.1977 40.5647 25.14 40.5325C25.0774 40.4984 25.0176 40.4954 24.9473 40.5074Z" fill="#C57207"/>
<path d="M24.9224 45.9986C24.6691 46.3823 24.7269 46.9177 25.0139 47.2612C25.1006 47.3647 25.2826 47.3607 25.3702 47.2612C25.4675 47.1507 25.4627 47.0011 25.3702 46.8906C25.3644 46.8836 25.3587 46.8765 25.3529 46.8695C25.3365 46.8484 25.3423 46.8554 25.3683 46.8906C25.3606 46.8755 25.3481 46.8605 25.3394 46.8454C25.3307 46.8303 25.3221 46.8142 25.3134 46.7982C25.3086 46.7891 25.2855 46.7339 25.3038 46.7801C25.3221 46.8273 25.3009 46.7701 25.297 46.761C25.2913 46.744 25.2864 46.7269 25.2816 46.7098C25.273 46.6746 25.2662 46.6395 25.2614 46.6033C25.2643 46.6264 25.2672 46.6495 25.2701 46.6726C25.2614 46.6003 25.2614 46.528 25.2701 46.4557C25.2672 46.4788 25.2643 46.5019 25.2614 46.525C25.2691 46.4687 25.2816 46.4145 25.3009 46.3612C25.3201 46.308 25.2835 46.3984 25.2951 46.3743C25.3009 46.3622 25.3057 46.3502 25.3124 46.3381C25.3259 46.312 25.3404 46.2869 25.3567 46.2628C25.4319 46.1493 25.3808 45.9665 25.2662 45.9032C25.1391 45.8339 25.0023 45.8771 24.9224 45.9986Z" fill="#C57207"/>
<path d="M19.6114 43.3261C19.6258 43.3673 19.6354 43.4105 19.6412 43.4536C19.6383 43.4305 19.6354 43.4074 19.6326 43.3843C19.6393 43.4436 19.6393 43.5029 19.6316 43.5621C19.6345 43.539 19.6374 43.5159 19.6403 43.4918C19.6354 43.527 19.6277 43.5621 19.6181 43.5973C19.6133 43.6144 19.6075 43.6314 19.6017 43.6485C19.5873 43.6917 19.6123 43.6314 19.6114 43.6244C19.6114 43.6294 19.6037 43.6415 19.6017 43.6465C19.5873 43.6796 19.57 43.7108 19.5507 43.7409C19.5372 43.762 19.4929 43.8082 19.5488 43.7459C19.5372 43.759 19.5266 43.7741 19.5151 43.7871C19.4919 43.8132 19.465 43.8363 19.4399 43.8605C19.4188 43.8805 19.4871 43.8253 19.464 43.8414C19.4563 43.8464 19.4486 43.8524 19.4409 43.8584C19.4265 43.8685 19.412 43.8775 19.3976 43.8866C19.3899 43.8916 19.3591 43.9137 19.3513 43.9107C19.3513 43.9107 19.413 43.8856 19.3802 43.8976C19.3716 43.9006 19.3619 43.9046 19.3533 43.9077C19.3186 43.9197 19.283 43.9277 19.2473 43.9328C19.1896 43.9408 19.125 44.0041 19.0971 44.0533C19.0653 44.1095 19.0518 44.1929 19.0721 44.2552C19.0913 44.3185 19.1298 44.3797 19.1876 44.4119C19.2522 44.447 19.3109 44.448 19.3812 44.438C19.908 44.3617 20.2739 43.7028 20.0977 43.1855C20.0534 43.0569 19.9243 42.9564 19.7886 43.0026C19.6653 43.0438 19.5642 43.1875 19.6114 43.3261Z" fill="#C57207"/>
<path d="M28.3098 47.9049C28.1711 48.1168 28.148 48.4091 28.226 48.6492C28.3126 48.9174 28.4966 49.1283 28.7537 49.2217C28.8779 49.2669 29.0349 49.1705 29.0638 49.0389C29.0956 48.8923 29.0214 48.7647 28.8876 48.7165C28.8298 48.6954 28.9348 48.7416 28.8972 48.7215C28.8876 48.7165 28.8779 48.7115 28.8683 48.7065C28.8462 48.6944 28.8269 48.6783 28.8057 48.6642C28.8751 48.7114 28.8327 48.6864 28.8153 48.6703C28.8076 48.6622 28.7999 48.6552 28.7922 48.6472C28.7826 48.6361 28.773 48.6251 28.7634 48.614C28.7345 48.5809 28.8019 48.6733 28.773 48.6271C28.7585 48.605 28.745 48.5839 28.7325 48.5608C28.7268 48.5487 28.721 48.5377 28.7152 48.5256C28.6911 48.4724 28.7277 48.5618 28.721 48.5417C28.7046 48.4895 28.6892 48.4393 28.6815 48.384C28.6844 48.4071 28.6873 48.4302 28.6902 48.4533C28.6825 48.3941 28.6825 48.3348 28.6892 48.2745C28.6863 48.2976 28.6834 48.3207 28.6805 48.3438C28.6863 48.3026 28.6969 48.2645 28.7085 48.2253C28.721 48.1871 28.6844 48.2796 28.6969 48.2514C28.7008 48.2434 28.7046 48.2344 28.7085 48.2263C28.7181 48.2062 28.7296 48.1871 28.7422 48.1681C28.8163 48.0545 28.7662 47.8717 28.6516 47.8095C28.5264 47.7402 28.3897 47.7834 28.3098 47.9049Z" fill="#C57207"/>
<path d="M26.1381 52.0144C25.6922 51.7332 25.1211 51.7251 24.6637 51.9803C24.5472 52.0446 24.5019 52.2234 24.5732 52.3389C24.6493 52.4624 24.7927 52.5026 24.917 52.4333C24.9401 52.4202 24.9632 52.4092 24.9863 52.3971C25.0123 52.3851 25.0094 52.3861 24.9796 52.4001C24.9911 52.3951 25.0036 52.3901 25.0152 52.3861C25.0634 52.368 25.1134 52.3529 25.1635 52.3409C25.1885 52.3349 25.2136 52.3309 25.2396 52.3258C25.2926 52.3158 25.1905 52.3288 25.2492 52.3248C25.3012 52.3218 25.3523 52.3178 25.4043 52.3198C25.4303 52.3208 25.4553 52.3218 25.4813 52.3248C25.4938 52.3258 25.5073 52.3278 25.5198 52.3288C25.4852 52.3238 25.4813 52.3238 25.5102 52.3278C25.5545 52.3359 25.5988 52.3459 25.6421 52.358C25.6672 52.365 25.6913 52.373 25.7163 52.3821C25.7288 52.3871 25.8097 52.4112 25.7461 52.3931C25.7933 52.4062 25.8415 52.4424 25.8829 52.4685C25.9956 52.5398 26.1641 52.4986 26.2267 52.374C26.2931 52.2465 26.2585 52.0908 26.1381 52.0144Z" fill="#C57207"/>
<path d="M25.3704 58.1145C24.9881 57.6796 24.2745 57.5942 23.8171 57.9508C23.7121 58.0331 23.6476 58.1818 23.7265 58.3104C23.794 58.4188 23.9577 58.4922 24.0704 58.4048C24.1137 58.3716 24.1589 58.3415 24.2071 58.3164C24.2196 58.3104 24.2341 58.3053 24.2456 58.2983C24.2341 58.3053 24.2013 58.3164 24.2321 58.3053C24.2591 58.2963 24.2851 58.2862 24.3121 58.2792C24.3361 58.2722 24.3612 58.2662 24.3862 58.2621C24.4421 58.2521 24.3776 58.2621 24.3776 58.2621C24.3776 58.2621 24.417 58.2581 24.4199 58.2581C24.4739 58.2541 24.5278 58.2541 24.5808 58.2591C24.5923 58.2601 24.6039 58.2632 24.6145 58.2632C24.5538 58.2642 24.5865 58.2591 24.6058 58.2632C24.6308 58.2682 24.6559 58.2732 24.6799 58.2802C24.7069 58.2873 24.7339 58.2963 24.7608 58.3063C24.7705 58.3104 24.782 58.3174 24.7926 58.3184C24.7474 58.3134 24.7628 58.3043 24.7868 58.3164C24.835 58.3405 24.8803 58.3686 24.9255 58.3998C24.964 58.4269 24.8986 58.3747 24.9217 58.3958C24.9323 58.4058 24.9429 58.4148 24.9534 58.4249C24.9746 58.445 24.9939 58.466 25.0132 58.4871C25.1027 58.5886 25.2799 58.5886 25.3695 58.4871C25.4658 58.3767 25.4658 58.223 25.3704 58.1145Z" fill="#C57207"/>
<path d="M40.6401 36.9211C41.8785 38.5694 42.6653 40.5462 42.9417 42.6174C42.986 42.9509 43.4714 42.8082 43.4271 42.4778C43.1372 40.3111 42.2878 38.2701 40.9954 36.5504C40.7961 36.2843 40.4427 36.6579 40.6401 36.9211Z" fill="#C57207"/>
<path d="M40.7258 41.0201C41.0128 41.6649 41.2998 42.3098 41.5868 42.9547C41.6436 43.0832 41.8217 43.1154 41.9306 43.0491C42.0567 42.9717 42.0779 42.8191 42.0211 42.6905C41.7341 42.0456 41.4471 41.4008 41.1601 40.7559C41.1024 40.6273 40.9252 40.5952 40.8163 40.6615C40.6892 40.7378 40.668 40.8905 40.7258 41.0201Z" fill="#C57207"/>
<path d="M34.9207 37.2757C33.4241 38.2168 32.2242 39.6392 31.5346 41.3146C31.4807 41.4462 31.4981 41.5948 31.6252 41.6742C31.7301 41.7405 31.916 41.7103 31.969 41.5798C32.6267 39.9827 33.7467 38.6277 35.1749 37.7287C35.4523 37.5549 35.199 37.1009 34.9207 37.2757Z" fill="#C57207"/>
<path d="M35.2289 40.1722C34.6164 40.7086 34.0039 41.246 33.3914 41.7834C33.2874 41.8748 33.3009 42.0606 33.3914 42.155C33.4944 42.2625 33.6427 42.2464 33.7468 42.155C34.3592 41.6186 34.9717 41.0813 35.5842 40.5449C35.6882 40.4535 35.6747 40.2676 35.5842 40.1732C35.4821 40.0647 35.3338 40.0808 35.2289 40.1722Z" fill="#C57207"/>
<path d="M45.6129 23.5453C45.6996 23.1285 45.5388 22.7016 45.2046 22.4565C44.8868 22.2235 44.4082 22.2335 44.0961 22.4705C43.9902 22.5509 43.9276 22.7026 44.0056 22.8291C44.073 22.9386 44.2358 23.0099 44.3494 22.9236C44.3773 22.9025 44.4053 22.8834 44.4361 22.8663C44.4448 22.8613 44.4717 22.8412 44.4823 22.8432C44.4486 22.8582 44.4438 22.8603 44.4698 22.8502C44.4756 22.8482 44.4804 22.8462 44.4862 22.8442C44.5189 22.8331 44.5516 22.8261 44.5854 22.8171C44.6383 22.803 44.5353 22.8201 44.5863 22.8161C44.6037 22.815 44.62 22.813 44.6374 22.812C44.672 22.811 44.7057 22.813 44.7394 22.8161C44.7943 22.8201 44.6903 22.804 44.7404 22.8171C44.7568 22.8211 44.7741 22.8241 44.7905 22.8291C44.8069 22.8341 44.8232 22.8392 44.8396 22.8442C44.8502 22.8482 44.8608 22.8522 44.8714 22.8562C44.8617 22.8522 44.8521 22.8482 44.8425 22.8432C44.8589 22.8372 44.9263 22.8904 44.9388 22.8994C44.9455 22.9045 44.9523 22.9085 44.959 22.9135C44.932 22.8914 44.9263 22.8864 44.9407 22.8984C44.9532 22.9095 44.9658 22.9205 44.9773 22.9326C44.9889 22.9447 45.0004 22.9567 45.012 22.9687C45.0178 22.9748 45.0226 22.9818 45.0284 22.9878C45.0418 23.0049 45.0418 23.0049 45.0284 22.9878C45.0158 22.9698 45.0168 22.9708 45.0293 22.9888C45.0341 22.9959 45.0389 23.0029 45.0428 23.0099C45.0515 23.024 45.0601 23.0391 45.0688 23.0531C45.0765 23.0682 45.0852 23.0832 45.0919 23.0983C45.0958 23.1063 45.0986 23.1134 45.1025 23.1214C45.089 23.0873 45.0852 23.0802 45.0919 23.0983C45.1025 23.1305 45.115 23.1626 45.1227 23.1958C45.1266 23.2128 45.1304 23.2289 45.1333 23.246C45.1439 23.3072 45.1324 23.2189 45.1333 23.244C45.1343 23.2781 45.1372 23.3123 45.1362 23.3464C45.1352 23.3605 45.1218 23.4097 45.1352 23.3705C45.1507 23.3273 45.1304 23.3926 45.1285 23.4037C45.1006 23.5373 45.167 23.694 45.3047 23.7261C45.4299 23.7582 45.5831 23.6879 45.6129 23.5453Z" fill="#C57207"/>
<path d="M31.9432 21.9167C31.7053 21.759 31.4087 21.758 31.1555 21.8735C30.9282 21.977 30.7539 22.2211 30.7153 22.4762C30.6922 22.6289 30.6932 22.7876 30.75 22.9322C30.776 22.9985 30.804 23.0518 30.8656 23.0889C30.9195 23.1221 30.9994 23.1362 31.0592 23.1151C31.1198 23.094 31.1786 23.0548 31.2094 22.9945C31.2383 22.9362 31.2595 22.8559 31.2344 22.7926C31.2161 22.7474 31.2046 22.7002 31.1978 22.652C31.2007 22.6751 31.2036 22.6982 31.2065 22.7213C31.1998 22.668 31.1998 22.6158 31.2065 22.5636C31.2036 22.5867 31.2007 22.6098 31.1978 22.6329C31.2055 22.5757 31.22 22.5214 31.2412 22.4682C31.2325 22.4893 31.2238 22.5104 31.2161 22.5305C31.2286 22.5003 31.2431 22.4712 31.2595 22.4441C31.2633 22.437 31.2681 22.431 31.272 22.424C31.2903 22.3948 31.2566 22.4451 31.2537 22.4481C31.2662 22.4381 31.2768 22.419 31.2884 22.4069C31.2989 22.3948 31.3105 22.3838 31.3221 22.3738C31.3606 22.3386 31.2768 22.4069 31.3192 22.3768C31.3481 22.3567 31.3779 22.3406 31.4097 22.3255C31.3895 22.3346 31.3692 22.3436 31.35 22.3517C31.3991 22.3306 31.4492 22.3165 31.5012 22.3085C31.479 22.3115 31.4569 22.3145 31.4338 22.3175C31.4858 22.3105 31.5387 22.3105 31.5907 22.3175C31.5686 22.3145 31.5464 22.3115 31.5233 22.3085C31.5715 22.3155 31.6177 22.3286 31.663 22.3476C31.6427 22.3386 31.6225 22.3296 31.6033 22.3215C31.6331 22.3346 31.661 22.3507 31.689 22.3687C31.8007 22.4421 31.9711 22.3969 32.0328 22.2743C32.0992 22.1468 32.0617 21.9951 31.9432 21.9167Z" fill="#C57207"/>
<path d="M47.8139 13.3108C47.3729 15.3579 47.7494 17.5787 48.9079 19.3064C49.9884 20.9175 51.6651 22.0485 53.516 22.4152C53.8329 22.4774 53.9686 21.9722 53.6499 21.9089C51.9309 21.5684 50.3477 20.5449 49.3422 19.0422C48.2617 17.428 47.8861 15.3689 48.2993 13.4514C48.3696 13.1219 47.8842 12.9813 47.8139 13.3108Z" fill="#C57207"/>
<path d="M27.3608 17.1684C27.1123 18.4109 26.8494 19.7689 26.0164 20.7482C25.166 21.7487 23.8804 22.1264 22.6891 22.4759C22.3781 22.5673 22.51 23.0736 22.823 22.9822C24.0971 22.6085 25.4617 22.1866 26.3727 21.1199C27.2712 20.0672 27.5775 18.65 27.8461 17.309C27.9126 16.9785 27.4272 16.8369 27.3608 17.1684Z" fill="#C57207"/>
<path d="M52.3528 5.24085C50.9178 6.03337 49.8209 7.40945 49.3202 9.01759C49.22 9.34002 49.7054 9.47764 49.8055 9.15721C50.2678 7.67464 51.2876 6.42308 52.607 5.69385C52.893 5.53615 52.6388 5.08315 52.3528 5.24085Z" fill="#C57207"/>
<path d="M23.8042 5.79347C25.2141 6.7698 26.1809 8.33777 26.4775 10.0725C26.5344 10.4049 27.0197 10.2633 26.9629 9.93284C26.6432 8.06455 25.5713 6.38812 24.0584 5.34047C23.7878 5.15264 23.5355 5.60764 23.8042 5.79347Z" fill="#C57207"/>
<path d="M21.2428 17.2516C20.926 16.7705 20.3029 16.6007 19.8022 16.8639C19.6847 16.9261 19.6413 17.1089 19.7116 17.2225C19.7896 17.348 19.9302 17.3832 20.0564 17.3169C20.067 17.3109 20.0785 17.3058 20.0901 17.2998C20.1171 17.2858 20.0294 17.3229 20.0776 17.3058C20.0988 17.2978 20.119 17.2908 20.1411 17.2837C20.1652 17.2767 20.1893 17.2707 20.2134 17.2667C20.2317 17.2626 20.2692 17.2636 20.198 17.2677C20.2076 17.2667 20.2172 17.2657 20.2278 17.2647C20.2769 17.2606 20.327 17.2606 20.3761 17.2647C20.3857 17.2657 20.3963 17.2677 20.406 17.2677C20.3366 17.2657 20.3713 17.2626 20.3906 17.2656C20.4146 17.2697 20.4397 17.2757 20.4638 17.2817C20.4849 17.2878 20.5071 17.2938 20.5283 17.3018C20.5398 17.3058 20.5514 17.3109 20.5629 17.3149C20.5812 17.3219 20.6063 17.342 20.5514 17.3089C20.5918 17.334 20.6352 17.352 20.6747 17.3792C20.6853 17.3862 20.6949 17.3932 20.7055 17.4013C20.7334 17.4213 20.6968 17.3962 20.6901 17.3882C20.7064 17.4063 20.7276 17.4213 20.7459 17.4394C20.7642 17.4575 20.7806 17.4756 20.797 17.4957C20.8037 17.5037 20.8095 17.5118 20.8162 17.5198C20.77 17.4676 20.8018 17.5007 20.8124 17.5168C20.8865 17.6293 21.0368 17.6916 21.1571 17.6112C21.2602 17.5379 21.3218 17.3721 21.2428 17.2516Z" fill="#C57207"/>
<path d="M20.6602 18.2397C20.3289 17.9173 19.8224 17.85 19.4237 18.077C19.3081 18.1433 19.2609 18.3191 19.3332 18.4366C19.4083 18.5592 19.5537 18.6013 19.677 18.531C19.6953 18.521 19.7136 18.512 19.7319 18.5019C19.7588 18.4879 19.6799 18.522 19.7087 18.512C19.7174 18.509 19.7261 18.5049 19.7338 18.5019C19.7704 18.4889 19.807 18.4788 19.8445 18.4708C19.8551 18.4688 19.8965 18.4628 19.8513 18.4688C19.8079 18.4748 19.8416 18.4688 19.8513 18.4688C19.8696 18.4668 19.8869 18.4668 19.9052 18.4668C19.9456 18.4658 19.9861 18.4688 20.0265 18.4728C20.0583 18.4758 19.9688 18.4627 19.9996 18.4698C20.0082 18.4718 20.0179 18.4728 20.0265 18.4748C20.0468 18.4788 20.066 18.4838 20.0863 18.4899C20.1036 18.4949 20.1209 18.5009 20.1383 18.5069C20.1469 18.51 20.1556 18.514 20.1633 18.517C20.2095 18.534 20.1209 18.4959 20.1469 18.5099C20.1816 18.528 20.2153 18.5451 20.248 18.5672C20.2634 18.5773 20.2769 18.5893 20.2923 18.5993C20.2269 18.5531 20.2875 18.5973 20.3039 18.6134C20.4002 18.7068 20.5658 18.7209 20.6593 18.6134C20.7498 18.5089 20.7633 18.3402 20.6602 18.2397Z" fill="#C57207"/>
<path d="M21.87 19.0661C21.9008 18.9697 21.8979 18.8692 21.8796 18.7708C21.871 18.7226 21.8507 18.6774 21.8315 18.6332C21.8199 18.6071 21.8064 18.582 21.791 18.5589C21.7332 18.4755 21.6726 18.4102 21.5897 18.3529C21.5503 18.3258 21.506 18.3067 21.4617 18.2887C21.4366 18.2786 21.4106 18.2696 21.3837 18.2655C21.3336 18.2565 21.2816 18.2485 21.2305 18.2535C21.1959 18.2575 21.1602 18.2615 21.1265 18.2706C21.0909 18.2806 21.0582 18.2977 21.0244 18.3118C20.9705 18.3359 20.9233 18.4132 20.9089 18.4685C20.8925 18.5318 20.8993 18.6151 20.9339 18.6704C20.9686 18.7266 21.0206 18.7758 21.0842 18.7909C21.1063 18.7939 21.1285 18.7969 21.1506 18.7999C21.1959 18.7999 21.2382 18.7879 21.2777 18.7638C21.2797 18.7628 21.2816 18.7618 21.2835 18.7608C21.2633 18.7698 21.2431 18.7788 21.2238 18.7869C21.2459 18.7778 21.2681 18.7718 21.2922 18.7678C21.27 18.7708 21.2479 18.7738 21.2257 18.7768C21.2527 18.7728 21.2797 18.7738 21.3057 18.7768C21.2835 18.7738 21.2614 18.7708 21.2392 18.7678C21.27 18.7718 21.2999 18.7809 21.3288 18.7929C21.3085 18.7839 21.2883 18.7748 21.2691 18.7668C21.3018 18.7819 21.3326 18.7999 21.3605 18.823C21.3432 18.809 21.3268 18.7959 21.3095 18.7818C21.3394 18.806 21.3663 18.8341 21.3894 18.8652C21.376 18.8471 21.3634 18.8301 21.35 18.812C21.3702 18.8401 21.3875 18.8702 21.4 18.9024C21.3914 18.8813 21.3827 18.8602 21.375 18.8401C21.3865 18.8682 21.3943 18.8974 21.3981 18.9275C21.3952 18.9044 21.3923 18.8813 21.3894 18.8582C21.3933 18.8863 21.3933 18.9144 21.3894 18.9426C21.3923 18.9195 21.3952 18.8964 21.3981 18.8733C21.3952 18.8913 21.3914 18.9094 21.3856 18.9275C21.3654 18.9898 21.3798 19.0742 21.4106 19.1294C21.4414 19.1836 21.5011 19.2359 21.5609 19.2499C21.6254 19.265 21.6976 19.262 21.7544 19.2238C21.8112 19.1846 21.8488 19.1334 21.87 19.0661Z" fill="#C57207"/>
<path d="M20.8722 19.5138C20.7239 19.3973 20.5246 19.3411 20.3406 19.3471C20.2491 19.3501 20.1538 19.3642 20.0671 19.3963C19.9554 19.4375 19.8659 19.4938 19.7744 19.5711C19.7272 19.6113 19.7012 19.6967 19.7012 19.7569C19.7012 19.8212 19.7281 19.8986 19.7744 19.9427C19.8225 19.989 19.8851 20.0231 19.9525 20.0201C20.0228 20.0171 20.0758 19.99 20.1307 19.9427C20.1365 19.9377 20.1422 19.9327 20.149 19.9277C20.1316 19.9418 20.1153 19.9548 20.0979 19.9689C20.1374 19.9377 20.1798 19.9126 20.2251 19.8915C20.2048 19.9006 20.1846 19.9086 20.1654 19.9176C20.2212 19.8935 20.28 19.8764 20.3406 19.8684C20.3185 19.8714 20.2963 19.8744 20.2742 19.8775C20.3348 19.8694 20.3955 19.8704 20.4562 19.8785C20.434 19.8755 20.4119 19.8724 20.3897 19.8694C20.4466 19.8785 20.5005 19.8935 20.5535 19.9166C20.5332 19.9076 20.513 19.8985 20.4937 19.8905C20.539 19.9116 20.5814 19.9367 20.6209 19.9679C20.669 20.006 20.7586 20.01 20.8144 19.994C20.8732 19.9769 20.9358 19.9307 20.9647 19.8734C20.9955 19.8122 21.0109 19.7389 20.9897 19.6716C20.9666 19.6012 20.9271 19.557 20.8722 19.5138Z" fill="#C57207"/>
<path d="M55.5858 16.4384C55.5964 16.4685 55.606 16.4996 55.6128 16.5308C55.6157 16.5438 55.6166 16.5579 55.6205 16.5709C55.6147 16.5237 55.6137 16.5137 55.6166 16.5418C55.6176 16.5509 55.6186 16.5599 55.6186 16.5689C55.6205 16.5981 55.6205 16.6282 55.6186 16.6573C55.6176 16.6804 55.6041 16.7307 55.6215 16.6483C55.6186 16.6613 55.6176 16.6754 55.6147 16.6885C55.6089 16.7196 55.6012 16.7508 55.5916 16.7809C55.5877 16.794 55.5829 16.807 55.5781 16.82C55.5627 16.8662 55.606 16.7598 55.58 16.815C55.5531 16.8713 55.5232 16.9245 55.4886 16.9767C55.4606 17.0179 55.5242 16.9325 55.4953 16.9677C55.4837 16.9818 55.4722 16.9958 55.4597 17.0089C55.4414 17.029 55.4221 17.0481 55.4028 17.0671C55.3865 17.0822 55.3364 17.1134 55.4028 17.0702C55.3922 17.0772 55.3817 17.0862 55.3711 17.0943C55.346 17.1123 55.3191 17.1284 55.2921 17.1435C55.2805 17.1495 55.269 17.1556 55.2565 17.1616C55.2131 17.1837 55.3104 17.1415 55.268 17.1555C55.2391 17.1656 55.2102 17.1756 55.1804 17.1827C55.1659 17.1867 55.1505 17.1877 55.1351 17.1917C55.1149 17.1947 55.1265 17.1937 55.1698 17.1867C55.1611 17.1877 55.1525 17.1887 55.1438 17.1887C55.113 17.1907 55.0822 17.1897 55.0504 17.1877C54.9184 17.1777 54.7932 17.3152 54.799 17.4498C54.8058 17.6005 54.9098 17.702 55.0504 17.712C55.7226 17.7632 56.3071 16.9577 56.0702 16.2967C56.024 16.1681 55.8978 16.0667 55.7611 16.1129C55.6417 16.1561 55.5367 16.3018 55.5858 16.4384Z" fill="#C57207"/>
<path d="M54.9646 18.0926C54.9569 18.1458 54.9424 18.1981 54.9232 18.2483C54.9318 18.2272 54.9405 18.2061 54.9482 18.186C54.9251 18.2433 54.8952 18.2955 54.8586 18.3447C54.8721 18.3266 54.8846 18.3096 54.8981 18.2915C54.8586 18.3437 54.8143 18.3899 54.7643 18.4301C54.7816 18.416 54.798 18.403 54.8153 18.3889C54.7623 18.4311 54.7045 18.4662 54.6429 18.4944C54.6631 18.4853 54.6834 18.4763 54.7026 18.4683C54.6439 18.4934 54.5842 18.5104 54.5216 18.5195C54.5437 18.5165 54.5659 18.5134 54.588 18.5104C54.5331 18.5175 54.4782 18.5175 54.4224 18.5094C54.4445 18.5124 54.4667 18.5155 54.4888 18.5185C54.4782 18.5165 54.4667 18.5145 54.4561 18.5125C54.3887 18.4994 54.3232 18.5014 54.2625 18.5386C54.2105 18.5707 54.1604 18.633 54.147 18.6952C54.119 18.8248 54.1845 18.9906 54.3232 19.0187C54.5717 19.0669 54.8336 19.0177 55.0426 18.864C55.2448 18.7153 55.4105 18.4944 55.449 18.2332C55.4596 18.1609 55.4605 18.0966 55.4239 18.0313C55.3931 17.9771 55.3334 17.9249 55.2737 17.9108C55.2092 17.8957 55.137 17.8987 55.0801 17.9369C55.0291 17.9701 54.9742 18.0263 54.9646 18.0926Z" fill="#C57207"/>
<path d="M56.4389 18.2974C56.4456 18.3054 56.4524 18.3135 56.4591 18.3215C56.4456 18.3034 56.4331 18.2863 56.4196 18.2683C56.4379 18.2934 56.4524 18.3205 56.4649 18.3496C56.4562 18.3285 56.4476 18.3074 56.4399 18.2874C56.4524 18.3195 56.4601 18.3516 56.4649 18.3858C56.462 18.3627 56.4591 18.3396 56.4562 18.3165C56.461 18.3587 56.461 18.4009 56.4562 18.443C56.4591 18.4199 56.462 18.3968 56.4649 18.3727C56.4591 18.4149 56.4476 18.4561 56.4322 18.4963C56.4408 18.4752 56.4495 18.4541 56.4572 18.434C56.4418 18.4702 56.4225 18.5043 56.3994 18.5364C56.4129 18.5184 56.4254 18.5013 56.4389 18.4832C56.4187 18.5103 56.3956 18.5334 56.3696 18.5545C56.3869 18.5405 56.4033 18.5274 56.4206 18.5133C56.3984 18.5304 56.3744 18.5455 56.3493 18.5575C56.3696 18.5485 56.3898 18.5395 56.409 18.5314C56.3994 18.5354 56.3898 18.5395 56.3801 18.5425C56.3176 18.5646 56.2636 18.6027 56.2299 18.663C56.1981 18.7193 56.1847 18.8026 56.2049 18.8649C56.2453 18.9935 56.3811 19.0949 56.514 19.0477C56.7249 18.9734 56.8829 18.7926 56.9387 18.5666C56.9955 18.3396 56.9474 18.0995 56.7952 17.9247C56.7066 17.8223 56.5285 17.8243 56.4389 17.9247C56.3426 18.0352 56.3445 18.1889 56.4389 18.2974Z" fill="#C57207"/>
<path d="M55.1736 20.0125C55.1745 20.0145 55.1755 20.0175 55.1764 20.0195C55.1678 19.9984 55.1601 19.9774 55.1514 19.9573C55.162 19.9844 55.1697 20.0125 55.1736 20.0406C55.1707 20.0175 55.1678 19.9944 55.1649 19.9703C55.1687 20.0025 55.1687 20.0336 55.1649 20.0658C55.1678 20.0427 55.1707 20.0195 55.1736 19.9964C55.1687 20.0306 55.1601 20.0637 55.1476 20.0959C55.1562 20.0748 55.1649 20.0537 55.1726 20.0336C55.1601 20.0627 55.1456 20.0898 55.1264 20.116C55.1399 20.0979 55.1524 20.0808 55.1659 20.0627C55.1485 20.0858 55.1293 20.1059 55.1071 20.124C55.1244 20.1099 55.1408 20.0969 55.1582 20.0828C55.137 20.0989 55.1158 20.1119 55.0917 20.123C55.1119 20.1139 55.1321 20.1049 55.1514 20.0969C55.1254 20.1079 55.0984 20.116 55.0696 20.12C55.0917 20.117 55.1139 20.114 55.136 20.1109C55.1023 20.116 55.0696 20.115 55.0358 20.1109C55.058 20.114 55.0801 20.117 55.1033 20.12C55.0724 20.115 55.0426 20.1069 55.0137 20.0949C55.0339 20.1039 55.0541 20.113 55.0734 20.121C55.0474 20.1089 55.0233 20.0949 55.0002 20.0768C55.0175 20.0909 55.0339 20.1039 55.0513 20.118C55.0349 20.1049 55.0195 20.0899 55.006 20.0738C54.9646 20.0256 54.8895 19.9964 54.8278 19.9964C54.7662 19.9964 54.692 20.0246 54.6497 20.0738C54.6054 20.124 54.5726 20.1893 54.5765 20.2596C54.5794 20.3309 54.6034 20.3912 54.6497 20.4454C54.7941 20.6132 55.0349 20.6744 55.241 20.6182C55.3402 20.5911 55.4413 20.5308 55.5097 20.4494C55.578 20.3671 55.6339 20.2686 55.6541 20.1602C55.6647 20.1029 55.6734 20.0427 55.6676 19.9834C55.6637 19.9432 55.6599 19.902 55.6503 19.8629C55.6406 19.8227 55.6233 19.7855 55.6069 19.7473C55.5829 19.6911 55.5106 19.6419 55.4567 19.6268C55.396 19.6097 55.3161 19.6178 55.2631 19.6529C55.2092 19.6891 55.162 19.7433 55.1476 19.8096C55.1447 19.8327 55.1418 19.8558 55.1389 19.8789C55.1399 19.9281 55.1514 19.9723 55.1736 20.0125Z" fill="#C57207"/>
<path d="M56.8422 26.344C56.8114 26.3802 56.7777 26.4133 56.7411 26.4435C56.7585 26.4294 56.7748 26.4163 56.7922 26.4023C56.7411 26.4425 56.6853 26.4766 56.6256 26.5027C56.6458 26.4937 56.666 26.4847 56.6853 26.4766C56.6217 26.5037 56.5562 26.5218 56.4888 26.5319C56.511 26.5288 56.5331 26.5258 56.5562 26.5228C56.4917 26.5308 56.4281 26.5309 56.3636 26.5218C56.3858 26.5248 56.4079 26.5279 56.4301 26.5309C56.4089 26.5279 56.3877 26.5238 56.3665 26.5188C56.2384 26.4887 56.0882 26.56 56.0574 26.7026C56.0285 26.8362 56.0959 26.9929 56.2336 27.025C56.5784 27.1074 56.9617 26.9949 57.1986 26.7157C57.2429 26.6635 57.2727 26.6022 57.2727 26.5299C57.2727 26.4656 57.2448 26.3882 57.1986 26.344C57.1032 26.2526 56.9357 26.2346 56.8422 26.344Z" fill="#C57207"/>
<path d="M62.3741 37.2341C62.1545 37.217 61.9224 37.3335 61.7838 37.5093C61.7058 37.6078 61.6441 37.7142 61.6123 37.8388C61.5806 37.9623 61.5796 38.0929 61.6104 38.2164C61.6432 38.349 61.7924 38.4424 61.9195 38.3992C62.0515 38.3551 62.1305 38.2185 62.0958 38.0758C62.0919 38.0587 62.0881 38.0417 62.0862 38.0246C62.089 38.0477 62.0919 38.0708 62.0948 38.0939C62.089 38.0507 62.089 38.0085 62.0948 37.9653C62.0919 37.9884 62.089 38.0115 62.0862 38.0356C62.0929 37.9904 62.1045 37.9463 62.1218 37.9041C62.1131 37.9252 62.1045 37.9462 62.0968 37.9663C62.116 37.9211 62.1401 37.8789 62.169 37.8398C62.1555 37.8578 62.143 37.8749 62.1295 37.893C62.1584 37.8538 62.1921 37.8187 62.2296 37.7885C62.2123 37.8026 62.1959 37.8157 62.1786 37.8297C62.2142 37.8016 62.2518 37.7785 62.2922 37.7594C62.272 37.7685 62.2518 37.7775 62.2325 37.7855C62.2711 37.7685 62.3096 37.7574 62.351 37.7514C62.3288 37.7544 62.3067 37.7574 62.2836 37.7604C62.3144 37.7564 62.3442 37.7554 62.3751 37.7584C62.4367 37.7634 62.5109 37.7253 62.5532 37.6811C62.5966 37.6359 62.6293 37.5605 62.6264 37.4952C62.6235 37.4269 62.6023 37.3566 62.5532 37.3094C62.5012 37.2622 62.4434 37.2391 62.3741 37.2341Z" fill="#C57207"/>
<path d="M60.6608 46.4582C60.6175 46.396 60.577 46.3477 60.5192 46.3015C60.4624 46.2563 60.4085 46.2272 60.3411 46.1991C60.2265 46.1499 60.1003 46.1479 59.979 46.169C59.7411 46.2091 59.5495 46.4201 59.4888 46.6571C59.4551 46.7877 59.4541 46.9414 59.5042 47.0669C59.5312 47.1332 59.5581 47.1865 59.6198 47.2236C59.6737 47.2568 59.7536 47.2708 59.8133 47.2498C59.874 47.2297 59.9327 47.1895 59.9636 47.1292C59.9925 47.071 60.0146 46.9906 59.9886 46.9273C59.9751 46.8942 59.9665 46.86 59.9616 46.8249C59.9645 46.848 59.9674 46.8711 59.9703 46.8942C59.9655 46.855 59.9665 46.8168 59.9713 46.7787C59.9684 46.8018 59.9655 46.8249 59.9626 46.848C59.9684 46.8088 59.978 46.7716 59.9925 46.7355C59.9838 46.7566 59.9751 46.7776 59.9674 46.7977C59.9819 46.7616 60.0011 46.7285 60.0233 46.6973C60.0098 46.7154 59.9973 46.7324 59.9838 46.7505C60.0031 46.7254 60.0252 46.7023 60.0493 46.6822C60.0319 46.6963 60.0156 46.7094 59.9982 46.7234C60.0233 46.7033 60.0493 46.6873 60.0782 46.6742C60.0579 46.6832 60.0377 46.6923 60.0185 46.7003C60.0502 46.6863 60.082 46.6772 60.1167 46.6722C60.0945 46.6752 60.0724 46.6782 60.0502 46.6812C60.0878 46.6762 60.1244 46.6762 60.161 46.6812C60.1388 46.6782 60.1167 46.6752 60.0945 46.6722C60.135 46.6782 60.1735 46.6893 60.2111 46.7053C60.1908 46.6963 60.1706 46.6873 60.1514 46.6792C60.1831 46.6943 60.212 46.7114 60.239 46.7335C60.2217 46.7194 60.2053 46.7063 60.188 46.6923C60.212 46.7124 60.2342 46.7345 60.2534 46.7606C60.24 46.7425 60.2274 46.7254 60.214 46.7073C60.2178 46.7124 60.2217 46.7174 60.2245 46.7234C60.264 46.7807 60.3083 46.8249 60.3748 46.844C60.4355 46.861 60.5154 46.853 60.5683 46.8178C60.6223 46.7817 60.6695 46.7274 60.6839 46.6611C60.7003 46.5948 60.6993 46.5145 60.6608 46.4582Z" fill="#C57207"/>
<path d="M54.9945 61.7596C54.7614 61.5828 54.4109 61.5758 54.1672 61.7355C53.9322 61.8902 53.7733 62.1935 53.8099 62.4868C53.8196 62.5592 53.8321 62.6184 53.8841 62.6727C53.9274 62.7179 53.9996 62.752 54.0622 62.75C54.1277 62.747 54.1951 62.7249 54.2404 62.6727C54.2818 62.6254 54.3223 62.5541 54.3136 62.4868C54.3078 62.4376 54.3078 62.3894 54.3136 62.3412C54.3107 62.3643 54.3078 62.3874 54.3049 62.4105C54.3117 62.3663 54.3232 62.3231 54.3386 62.2819C54.33 62.303 54.3213 62.3241 54.3136 62.3442C54.3319 62.299 54.355 62.2568 54.3829 62.2176C54.3694 62.2357 54.3569 62.2528 54.3434 62.2709C54.3704 62.2357 54.3993 62.2036 54.433 62.1755C54.4157 62.1895 54.3993 62.2026 54.382 62.2166C54.4137 62.1915 54.4475 62.1704 54.4841 62.1534C54.4638 62.1624 54.4436 62.1704 54.4243 62.1795C54.4658 62.1614 54.5081 62.1493 54.5524 62.1423C54.5303 62.1453 54.5081 62.1483 54.486 62.1513C54.5341 62.1443 54.5832 62.1443 54.6314 62.1503C54.6092 62.1473 54.5871 62.1443 54.5649 62.1413C54.6092 62.1483 54.6516 62.1594 54.694 62.1764C54.6738 62.1674 54.6535 62.1584 54.6333 62.1503C54.6709 62.1674 54.7055 62.1875 54.7393 62.2126C54.7893 62.2508 54.876 62.2558 54.9328 62.2387C54.9916 62.2217 55.0542 62.1744 55.0831 62.1182C55.1139 62.0569 55.1293 61.9836 55.1081 61.9163C55.0888 61.848 55.0503 61.8018 54.9945 61.7596Z" fill="#C57207"/>
<path d="M22.0775 62.6393C22.0987 62.5881 22.1189 62.5409 22.1266 62.4856C22.1343 62.4304 22.142 62.3772 22.1353 62.3219C22.1227 62.2134 22.0977 62.106 22.0351 62.0156C22.0043 61.9714 21.9735 61.9292 21.933 61.895C21.8724 61.8438 21.8213 61.8136 21.7491 61.7835C21.647 61.7413 21.5372 61.7434 21.4313 61.7604C21.3196 61.7785 21.2146 61.8408 21.1327 61.9201C21.0865 61.9653 21.0586 62.0407 21.0586 62.106C21.0586 62.1702 21.0856 62.2476 21.1327 62.2918C21.2358 62.3902 21.386 62.3922 21.4881 62.2918C21.4958 62.2847 21.5035 62.2777 21.5112 62.2707C21.4939 62.2848 21.4775 62.2978 21.4602 62.3119C21.4823 62.2938 21.5064 62.2787 21.5324 62.2677C21.5122 62.2767 21.492 62.2857 21.4727 62.2938C21.5035 62.2797 21.5353 62.2707 21.568 62.2667C21.5459 62.2697 21.5237 62.2727 21.5016 62.2757C21.5353 62.2717 21.568 62.2717 21.6008 62.2757C21.5786 62.2727 21.5565 62.2697 21.5343 62.2667C21.5623 62.2717 21.5892 62.2787 21.6152 62.2898C21.595 62.2807 21.5748 62.2727 21.5555 62.2636C21.5815 62.2757 21.6056 62.2898 21.6277 62.3068C21.6104 62.2928 21.594 62.2797 21.5767 62.2657C21.5989 62.2837 21.6172 62.3038 21.6345 62.3269C21.621 62.3089 21.6085 62.2918 21.595 62.2737C21.6133 62.2988 21.6277 62.3259 21.6403 62.355C21.6316 62.334 21.6229 62.3129 21.6152 62.2918C21.6277 62.3239 21.6364 62.3561 21.6412 62.3902C21.6383 62.3671 21.6354 62.344 21.6326 62.3209C21.6364 62.352 21.6364 62.3832 21.6326 62.4153C21.6354 62.3922 21.6383 62.3691 21.6412 62.346C21.6374 62.3751 21.6306 62.4023 21.62 62.4294C21.6287 62.4083 21.6364 62.3872 21.6451 62.3671C21.6441 62.3691 21.6432 62.3721 21.6422 62.3741C21.6239 62.4043 21.6143 62.4364 21.6123 62.4716C21.6046 62.5067 21.6066 62.5419 21.6172 62.576C21.6335 62.6373 21.6788 62.7026 21.7327 62.7327C21.7915 62.7649 21.8618 62.7809 21.9263 62.7588C21.985 62.7408 22.0524 62.7006 22.0775 62.6393Z" fill="#C57207"/>
<path d="M16.8894 46.8168C17.0608 46.5516 16.9068 46.195 16.6631 46.0474C16.5167 45.958 16.3482 45.9519 16.1854 45.9791C16.0419 46.0032 15.9062 46.0684 15.7742 46.1307C15.7203 46.1558 15.6741 46.2302 15.6587 46.2874C15.6423 46.3507 15.65 46.4341 15.6837 46.4893C15.7184 46.5456 15.7704 46.5948 15.8339 46.6099C15.9042 46.6269 15.963 46.6139 16.0275 46.5837C16.0574 46.5697 16.0872 46.5556 16.1171 46.5425C16.0968 46.5516 16.0766 46.5606 16.0574 46.5687C16.144 46.5305 16.2317 46.4983 16.3251 46.4833C16.3029 46.4863 16.2808 46.4893 16.2586 46.4923C16.3087 46.4853 16.3578 46.4843 16.4079 46.4913C16.3858 46.4883 16.3636 46.4853 16.3415 46.4823C16.3713 46.4873 16.4002 46.4943 16.4291 46.5064C16.4089 46.4974 16.3886 46.4883 16.3694 46.4803C16.3973 46.4923 16.4223 46.5084 16.4464 46.5275C16.4291 46.5134 16.4127 46.5003 16.3954 46.4863C16.4223 46.5084 16.4455 46.5325 16.4657 46.5606C16.4522 46.5425 16.4397 46.5255 16.4262 46.5074C16.4435 46.5325 16.458 46.5586 16.4705 46.5867C16.4618 46.5656 16.4532 46.5446 16.4455 46.5235C16.4551 46.5486 16.4609 46.5727 16.4647 46.5988C16.4618 46.5757 16.4589 46.5526 16.4561 46.5295C16.458 46.5486 16.458 46.5677 16.457 46.5867C16.4599 46.5636 16.4628 46.5405 16.4657 46.5174C16.4628 46.5365 16.4589 46.5546 16.4522 46.5727C16.4609 46.5516 16.4695 46.5305 16.4772 46.5094C16.4705 46.5245 16.4638 46.5385 16.4541 46.5526C16.38 46.6661 16.4291 46.8479 16.5447 46.9112C16.6718 46.9805 16.8104 46.9383 16.8894 46.8168Z" fill="#C57207"/>
<path d="M14.6891 37.363C14.7132 37.3831 14.7334 37.4052 14.7526 37.4303C14.7392 37.4122 14.7266 37.3952 14.7132 37.3771C14.7334 37.4052 14.7497 37.4344 14.7623 37.4665C14.7536 37.4454 14.7449 37.4243 14.7372 37.4042C14.7507 37.4394 14.7603 37.4755 14.7661 37.5137C14.7632 37.4906 14.7603 37.4675 14.7575 37.4444C14.7623 37.4826 14.7623 37.5197 14.7584 37.5579C14.7613 37.5348 14.7642 37.5117 14.7671 37.4886C14.7623 37.5268 14.7526 37.5619 14.7392 37.5971C14.7478 37.576 14.7565 37.5549 14.7642 37.5348C14.7517 37.5639 14.7363 37.59 14.718 37.6151C14.7314 37.5971 14.744 37.58 14.7575 37.5619C14.7392 37.586 14.718 37.6081 14.6949 37.6272C14.7122 37.6132 14.7286 37.6001 14.7459 37.586C14.717 37.6091 14.6871 37.6272 14.6534 37.6423C14.6737 37.6332 14.6939 37.6242 14.7132 37.6161C14.6766 37.6322 14.64 37.6423 14.6014 37.6483C14.6236 37.6453 14.6457 37.6423 14.6679 37.6393C14.6323 37.6433 14.5966 37.6443 14.561 37.6393C14.5831 37.6423 14.6053 37.6453 14.6284 37.6483C14.5957 37.6433 14.5648 37.6342 14.534 37.6212C14.4782 37.5971 14.3896 37.6172 14.3405 37.6473C14.2885 37.6794 14.2384 37.7417 14.2249 37.804C14.2104 37.8713 14.2133 37.9466 14.2499 38.0059C14.2634 38.024 14.2759 38.041 14.2894 38.0591C14.3212 38.0913 14.3578 38.1144 14.4002 38.1264C14.5109 38.1746 14.6323 38.1716 14.7478 38.1515C14.8624 38.1325 14.9645 38.0702 15.0531 37.9948C15.238 37.8371 15.2987 37.5629 15.2419 37.3279C15.212 37.2023 15.1417 37.0737 15.0444 36.9914C14.9905 36.9462 14.9385 36.915 14.8663 36.915C14.8046 36.915 14.7305 36.9442 14.6881 36.9914C14.6438 37.0416 14.6111 37.1069 14.6149 37.1772C14.6178 37.2435 14.638 37.3209 14.6891 37.363Z" fill="#C57207"/>
<path d="M19.6817 27.1375C19.6673 27.1677 19.6509 27.1958 19.6326 27.2239C19.597 27.2792 19.6634 27.1868 19.6364 27.2209C19.6287 27.23 19.621 27.24 19.6133 27.2491C19.5921 27.2742 19.569 27.2973 19.545 27.3194C19.5286 27.3344 19.4814 27.3626 19.5498 27.3174C19.5382 27.3254 19.5267 27.3344 19.5151 27.3425C19.4901 27.3595 19.4641 27.3756 19.4381 27.3907C19.4236 27.3987 19.4092 27.4058 19.3947 27.4128C19.3533 27.4329 19.4573 27.3867 19.4053 27.4078C19.3475 27.4299 19.2869 27.4459 19.2252 27.454C19.2474 27.4509 19.2695 27.4479 19.2917 27.4449C19.2281 27.4529 19.1646 27.4529 19.101 27.4449C19.1231 27.4479 19.1453 27.4509 19.1674 27.454C19.1472 27.4509 19.128 27.4469 19.1087 27.4429C18.9806 27.4148 18.8304 27.4821 18.7996 27.6257C18.7707 27.7573 18.8381 27.918 18.9748 27.9482C19.4169 28.0456 19.9051 27.8286 20.1151 27.4027C20.1748 27.2812 20.1497 27.1125 20.0245 27.0441C19.9109 26.9799 19.7462 27.007 19.6817 27.1375Z" fill="#C57207"/>
<path d="M47.0056 61.4974C46.6281 61.4974 46.4682 60.73 46.4393 60.4347C46.4326 60.3714 46.3835 60.3232 46.3247 60.3232C46.265 60.3232 46.2159 60.3714 46.2092 60.4347C46.1803 60.73 46.0204 61.4974 45.6429 61.4974C45.5794 61.4974 45.5273 61.5527 45.5273 61.622C45.5273 61.6913 45.5794 61.7465 45.6429 61.7465C46.0204 61.7465 46.1803 62.5139 46.2092 62.8092C46.2159 62.8725 46.265 62.9208 46.3247 62.9208C46.3835 62.9208 46.4336 62.8725 46.4393 62.8092C46.4692 62.5139 46.6281 61.7465 47.0056 61.7465C47.0692 61.7465 47.1212 61.6913 47.1212 61.622C47.1212 61.5527 47.0692 61.4974 47.0056 61.4974Z" fill="url(#paint1_linear_4488_21316)"/>
<path d="M63.5118 13.1288C62.7328 13.1288 62.4044 11.5919 62.3437 11.0003C62.3312 10.8738 62.2291 10.7773 62.1068 10.7773C61.9845 10.7773 61.8824 10.8738 61.8699 11.0003C61.8092 11.5919 61.4808 13.1288 60.7017 13.1288C60.5698 13.1288 60.4629 13.2403 60.4629 13.3779C60.4629 13.5155 60.5698 13.627 60.7017 13.627C61.4808 13.627 61.8092 15.1628 61.8699 15.7554C61.8824 15.882 61.9845 15.9784 62.1068 15.9784C62.2291 15.9784 62.3312 15.882 62.3437 15.7554C62.4044 15.1628 62.7328 13.627 63.5118 13.627C63.6438 13.627 63.7507 13.5155 63.7507 13.3779C63.7507 13.2403 63.6438 13.1288 63.5118 13.1288Z" fill="url(#paint2_linear_4488_21316)"/>
<path d="M67.9848 34.1785C68.4672 34.1785 68.8583 33.7706 68.8583 33.2675C68.8583 32.7643 68.4672 32.3564 67.9848 32.3564C67.5024 32.3564 67.1113 32.7643 67.1113 33.2675C67.1113 33.7706 67.5024 34.1785 67.9848 34.1785Z" fill="url(#paint3_linear_4488_21316)"/>
<path d="M51.2094 70.8186C50.9551 71.2917 51.1063 71.8964 51.5464 72.1696C51.9865 72.4428 52.5499 72.2811 52.8032 71.808C53.0574 71.3349 52.9062 70.7303 52.4661 70.4571C52.026 70.1838 51.4636 70.3455 51.2094 70.8186Z" fill="url(#paint4_linear_4488_21316)"/>
<path d="M14.126 19.8932C13.7129 20.2026 13.6185 20.8022 13.9151 21.2331C14.2117 21.664 14.7867 21.7625 15.1998 21.4541C15.6129 21.1447 15.7073 20.5451 15.4107 20.1142C15.1141 19.6823 14.5392 19.5838 14.126 19.8932Z" fill="url(#paint5_linear_4488_21316)"/>
<path d="M39.5573 10.9906C39.4447 10.5346 39.7076 10.0705 40.1448 9.95298C40.581 9.83546 41.0269 10.1097 41.1396 10.5657C41.2523 11.0217 40.9893 11.4858 40.5521 11.6033C40.1149 11.7208 39.67 11.4466 39.5573 10.9906Z" fill="url(#paint6_linear_4488_21316)"/>
<path d="M14.3484 5.87745C13.5269 5.87745 13.1802 4.25726 13.1167 3.63349C13.1032 3.4999 12.9953 3.39844 12.8663 3.39844C12.7372 3.39844 12.6294 3.4999 12.6159 3.63349C12.5523 4.25726 12.2056 5.87745 11.3842 5.87745C11.2455 5.87745 11.1328 5.99496 11.1328 6.1396C11.1328 6.28525 11.2455 6.40178 11.3842 6.40178C12.2056 6.40178 12.5523 8.02195 12.6159 8.64572C12.6294 8.77931 12.7372 8.88077 12.8663 8.88077C12.9953 8.88077 13.1022 8.77931 13.1167 8.64572C13.1802 8.02095 13.5269 6.40178 14.3484 6.40178C14.487 6.40178 14.5997 6.28425 14.5997 6.1396C14.6007 5.99496 14.488 5.87745 14.3484 5.87745Z" fill="url(#paint7_linear_4488_21316)"/>
<path d="M9.39809 55.4871C9.93257 55.4871 10.1579 54.4335 10.1993 54.0277C10.208 53.9413 10.2783 53.875 10.3621 53.875C10.4459 53.875 10.5162 53.9413 10.5248 54.0277C10.5662 54.4335 10.7916 55.4871 11.3261 55.4871C11.4166 55.4871 11.4898 55.5635 11.4898 55.6579C11.4898 55.7523 11.4166 55.8287 11.3261 55.8287C10.7916 55.8287 10.5662 56.8823 10.5248 57.2881C10.5162 57.3745 10.4459 57.4408 10.3621 57.4408C10.2783 57.4408 10.208 57.3745 10.1993 57.2881C10.1579 56.8823 9.93257 55.8287 9.39809 55.8287C9.30757 55.8287 9.23438 55.7523 9.23438 55.6579C9.23438 55.5635 9.30757 55.4871 9.39809 55.4871Z" fill="url(#paint8_linear_4488_21316)"/>
<path d="M0 33.2866C0 32.907 0.294689 32.5996 0.658714 32.5996C1.02274 32.5996 1.31742 32.907 1.31742 33.2866C1.31742 33.6663 1.02274 33.9737 0.658714 33.9737C0.294689 33.9737 0 33.6663 0 33.2866Z" fill="url(#paint9_linear_4488_21316)"/>
<path d="M76.9434 47.939C76.9434 47.5593 77.238 47.252 77.6021 47.252C77.9661 47.252 78.2608 47.5593 78.2608 47.939C78.2608 48.3187 77.9661 48.626 77.6021 48.626C77.239 48.626 76.9434 48.3177 76.9434 47.939Z" fill="url(#paint10_linear_4488_21316)"/>
<path d="M29.9824 71.312C29.9824 70.9324 30.2771 70.625 30.6411 70.625C31.0052 70.625 31.2998 70.9324 31.2998 71.312C31.2998 71.6917 31.0052 71.9991 30.6411 71.9991C30.2771 71.9991 29.9824 71.6907 29.9824 71.312Z" fill="url(#paint11_linear_4488_21316)"/>
<defs>
<linearGradient id="paint0_linear_4488_21316" x1="41.0206" y1="13.2622" x2="42.1561" y2="57.121" gradientUnits="userSpaceOnUse">
<stop stop-color="#EBCB76"/>
<stop offset="1" stop-color="#E19256"/>
</linearGradient>
<linearGradient id="paint1_linear_4488_21316" x1="45.3779" y1="1.04749" x2="46.5946" y2="72.6706" gradientUnits="userSpaceOnUse">
<stop stop-color="#EBCB76"/>
<stop offset="1" stop-color="#E19256"/>
</linearGradient>
<linearGradient id="paint2_linear_4488_21316" x1="61.9097" y1="0.766206" x2="63.1265" y2="72.3885" gradientUnits="userSpaceOnUse">
<stop stop-color="#EBCB76"/>
<stop offset="1" stop-color="#E19256"/>
</linearGradient>
<linearGradient id="paint3_linear_4488_21316" x1="67.4755" y1="0.672667" x2="68.6922" y2="72.2939" gradientUnits="userSpaceOnUse">
<stop stop-color="#EBCB76"/>
<stop offset="1" stop-color="#E19256"/>
</linearGradient>
<linearGradient id="paint4_linear_4488_21316" x1="50.9079" y1="0.955944" x2="52.1247" y2="72.5765" gradientUnits="userSpaceOnUse">
<stop stop-color="#EBCB76"/>
<stop offset="1" stop-color="#E19256"/>
</linearGradient>
<linearGradient id="paint5_linear_4488_21316" x1="14.3641" y1="1.57386" x2="15.5808" y2="73.1978" gradientUnits="userSpaceOnUse">
<stop stop-color="#EBCB76"/>
<stop offset="1" stop-color="#E19256"/>
</linearGradient>
<linearGradient id="paint6_linear_4488_21316" x1="40.1978" y1="1.13513" x2="41.4146" y2="72.7586" gradientUnits="userSpaceOnUse">
<stop stop-color="#EBCB76"/>
<stop offset="1" stop-color="#E19256"/>
</linearGradient>
<linearGradient id="paint7_linear_4488_21316" x1="12.796" y1="1.60036" x2="14.0127" y2="73.2225" gradientUnits="userSpaceOnUse">
<stop stop-color="#EBCB76"/>
<stop offset="1" stop-color="#E19256"/>
</linearGradient>
<linearGradient id="paint8_linear_4488_21316" x1="9.51828" y1="1.65822" x2="10.735" y2="73.2788" gradientUnits="userSpaceOnUse">
<stop stop-color="#EBCB76"/>
<stop offset="1" stop-color="#E19256"/>
</linearGradient>
<linearGradient id="paint9_linear_4488_21316" x1="0.166798" y1="1.81677" x2="1.38339" y2="73.4363" gradientUnits="userSpaceOnUse">
<stop stop-color="#EBCB76"/>
<stop offset="1" stop-color="#E19256"/>
</linearGradient>
<linearGradient id="paint10_linear_4488_21316" x1="76.8618" y1="0.514759" x2="78.0784" y2="72.1344" gradientUnits="userSpaceOnUse">
<stop stop-color="#EBCB76"/>
<stop offset="1" stop-color="#E19256"/>
</linearGradient>
<linearGradient id="paint11_linear_4488_21316" x1="29.5482" y1="1.31677" x2="30.765" y2="72.9384" gradientUnits="userSpaceOnUse">
<stop stop-color="#EBCB76"/>
<stop offset="1" stop-color="#E19256"/>
</linearGradient>
</defs>
</svg>
