<svg width="80" height="84" viewBox="0 0 80 84" fill="none" xmlns="http://www.w3.org/2000/svg">
<path d="M0.989299 17.7363C1.63827 16.7714 2.59445 16.0629 3.65242 15.6709C6.19977 12.7623 10.046 11.3739 13.7456 12.7004C17.5872 14.0771 20.749 18.2001 19.9898 22.6357C19.1391 27.6106 14.1696 28.3073 10.6847 30.4632C8.46232 31.8378 7.19705 34.5213 8.43898 37.1262C9.30833 38.951 11.1469 39.7459 12.9305 39.5376C12.9445 39.3646 12.9538 39.1927 12.9753 39.0188C13.219 37.0241 14.0687 35.0215 15.6393 33.8748C18.3912 31.8634 22.3308 33.0287 25.3152 31.4261C26.4263 30.8297 27.3302 29.8854 28.3761 29.171C29.4219 28.4567 30.746 27.9742 31.9104 28.4439C33.4848 29.0796 34.2131 31.2129 35.8342 31.7022C37.4113 32.1788 38.9838 30.8257 39.7878 29.3213C40.5927 27.817 40.9886 26.061 42.0345 24.7316C44.1084 22.0952 48.1376 22.0824 50.9698 23.7666C53.801 25.4508 55.7171 28.3928 57.5314 31.2335C61.3814 37.2619 65.2314 43.2892 69.0804 49.3176C70.4082 49.4532 71.765 49.2999 73.035 48.8636C75.7074 47.9458 77.8943 45.9373 80 43.979C78.8991 46.015 77.7982 48.051 76.6972 50.0869C76.0613 51.2631 75.3647 52.5022 74.2227 53.1232C73.3076 53.6214 72.2347 53.6489 71.2038 53.6647C69.7453 53.6882 69.2625 53.6961 67.8049 53.7197C66.1698 57.5755 65.589 60.3818 65.109 66.0829C64.0184 66.2529 62.9156 66.4239 61.8175 66.3207C60.7194 66.2175 59.6091 65.8117 58.8397 64.9814C57.9862 64.0597 57.6538 62.7509 57.354 61.503C57.0365 60.1863 56.6855 58.9904 56.3689 57.6737C55.8245 57.6737 55.2614 57.6875 54.6918 57.7042C56.3175 61.6091 57.9433 65.513 59.569 69.4179C58.2374 68.6574 56.65 69.2725 55.112 69.4533C55.225 69.5899 55.3277 69.7353 55.4454 69.8689C55.3623 70.3622 54.7292 70.4438 54.2539 70.4045C52.066 70.2236 49.8829 69.6527 47.6959 69.4719C45.8994 65.0688 43.5668 61.1246 40.503 57.5804C37.8857 57.2138 35.2412 56.9918 32.5893 56.9014C30.6386 60.7552 28.8009 64.7918 26.9119 68.6318C27.2677 69.1939 27.4488 69.9633 27.8046 70.5253C25.6392 70.4929 23.1357 71.4166 21.2345 70.3259C20.41 69.8532 20.0552 68.7596 20.1411 67.775C20.227 66.7914 20.6696 65.8864 21.1029 65.0109C22.4205 62.348 23.7389 59.6841 25.0565 57.0212C22.7949 57.1667 20.5417 57.4006 18.3099 57.7474C15.6954 60.6962 13.599 64.2336 11.9098 67.8546C12.0508 68.9138 12.1311 69.7746 12.8866 70.4899C10.2776 70.4369 7.52107 70.3258 4.91209 70.2728C4.13986 66.9997 5.72168 63.6234 7.64153 60.9222C9.56138 58.222 11.908 55.7576 13.0416 52.6024C14.3545 48.9471 13.1667 45.4235 12.9258 41.7839C10.5596 41.9696 8.14857 40.9565 6.8198 38.7063C4.76735 35.2318 6.03917 30.9653 9.15145 28.8006C12.7241 26.3155 20.1327 25.2808 17.4051 18.8732C15.2499 13.8108 8.84984 13.2055 5.4042 16.9316C5.49384 18.1854 5.24172 19.4579 4.57127 20.5093C3.61041 22.0156 1.93055 22.5285 0.208662 22.6209C-0.244221 20.9829 0.0508516 19.1306 0.989299 17.7363Z" fill="url(#paint0_linear_4488_23165)"/>
<path d="M62.9814 55.4144C63.0056 55.4144 63.029 55.4144 63.0533 55.4144C63.0869 55.4154 63.1177 55.4085 63.1475 55.3928C63.1774 55.382 63.2036 55.3643 63.226 55.3397C63.2493 55.3161 63.2661 55.2886 63.2764 55.2572C63.2913 55.2267 63.2988 55.1933 63.2979 55.1579C63.2951 55.1353 63.2923 55.1127 63.2895 55.0901C63.2783 55.0469 63.2568 55.0086 63.2269 54.9771C63.2101 54.9634 63.1942 54.9506 63.1774 54.9368C63.1392 54.9133 63.0981 54.9024 63.0542 54.9015C63.0299 54.9015 63.0065 54.9015 62.9823 54.9015C62.9487 54.9005 62.9169 54.9074 62.888 54.9241C62.8581 54.9349 62.8319 54.9526 62.8095 54.9771C62.7852 55.0007 62.7684 55.0282 62.7591 55.0597C62.7442 55.0901 62.7367 55.1236 62.7386 55.1589C62.7414 55.1815 62.7442 55.2041 62.747 55.2267C62.7582 55.27 62.7796 55.3083 62.8095 55.3397C62.8263 55.3535 62.8422 55.3663 62.859 55.38C62.8964 55.4026 62.9375 55.4144 62.9814 55.4144Z" fill="#C57207"/>
<path d="M63.2694 64.7464C63.2937 64.7464 63.317 64.7464 63.3413 64.7464C63.3749 64.7474 63.4066 64.7405 63.4356 64.7248C63.4655 64.714 63.4916 64.6963 63.514 64.6718C63.5374 64.6482 63.5542 64.6207 63.5645 64.5892C63.5794 64.5588 63.5869 64.5254 63.585 64.49C63.5822 64.4674 63.5794 64.4448 63.5766 64.4212C63.5654 64.378 63.5439 64.3396 63.514 64.3082C63.4972 64.2944 63.4814 64.2817 63.4645 64.2679C63.4263 64.2443 63.3852 64.2325 63.3413 64.2325C63.3179 64.2325 63.2937 64.2325 63.2694 64.2325C63.2358 64.2315 63.205 64.2384 63.1751 64.2551C63.1452 64.265 63.1181 64.2836 63.0966 64.3082C63.0724 64.3318 63.0556 64.3593 63.0462 64.3907C63.0313 64.4212 63.0238 64.4546 63.0257 64.49C63.0285 64.5126 63.0313 64.5352 63.0341 64.5578C63.0453 64.601 63.0667 64.6393 63.0966 64.6708C63.1134 64.6845 63.1293 64.6973 63.1461 64.7111C63.1844 64.7337 63.2255 64.7455 63.2694 64.7464Z" fill="#C57207"/>
<path d="M68.7555 49.169C67.9525 52.9069 66.6377 56.4718 65.3547 60.0485C65.2436 60.3581 65.7152 60.4917 65.8253 60.1851C67.1074 56.6084 68.4231 53.0435 69.2262 49.3056C69.2953 48.9843 68.8246 48.8467 68.7555 49.169Z" fill="#C57207"/>
<path d="M50.5474 26.1905C50.5932 26.1473 50.5092 26.2161 50.5428 26.1925C50.5521 26.1856 50.5614 26.1787 50.5717 26.1728C50.5811 26.1669 50.5913 26.1601 50.6016 26.1551C50.61 26.1502 50.6586 26.1276 50.6138 26.1473C50.5689 26.1669 50.6184 26.1463 50.6268 26.1424C50.638 26.1384 50.6483 26.1345 50.6595 26.1315C50.6856 26.1237 50.7118 26.1188 50.7379 26.1148C50.7165 26.1178 50.695 26.1207 50.6735 26.1237C50.7267 26.1168 50.7809 26.1168 50.8341 26.1227C50.8126 26.1197 50.7912 26.1168 50.7697 26.1138C50.8005 26.1178 50.8304 26.1247 50.8593 26.1335C50.8724 26.1374 50.8845 26.1424 50.8976 26.1463C50.948 26.1659 50.8481 26.1198 50.8873 26.1414C50.9144 26.1561 50.9406 26.1718 50.9667 26.1895C51.0013 26.2131 50.9219 26.1482 50.9536 26.1787C50.9648 26.1895 50.9761 26.2003 50.9873 26.2111C50.9975 26.2219 51.0068 26.2357 51.0171 26.2465C50.9714 26.1993 50.9928 26.2111 51.0059 26.2327C51.0227 26.2593 51.0367 26.2868 51.0507 26.3153C51.0704 26.3566 51.0302 26.2573 51.0433 26.2976C51.0479 26.3123 51.0535 26.3271 51.0573 26.3428C51.0657 26.3733 51.0713 26.4047 51.076 26.4361C51.0732 26.4135 51.0704 26.3909 51.0676 26.3683C51.0741 26.4244 51.0741 26.4794 51.0685 26.5354C51.0713 26.5128 51.0741 26.4902 51.0769 26.4676C51.0704 26.5177 51.0582 26.5639 51.0423 26.6121C51.0339 26.6376 51.0713 26.5462 51.0489 26.5944C51.0442 26.6052 51.0386 26.615 51.033 26.6258C51.0209 26.6484 51.0069 26.67 50.9919 26.6906C50.9564 26.7398 50.9527 26.8322 50.9677 26.8882C50.9835 26.9481 51.0274 27.012 51.0797 27.0414C51.1367 27.0729 51.2048 27.0886 51.2674 27.067C51.3318 27.0454 51.372 27.0051 51.4131 26.9491C51.5998 26.6916 51.598 26.3212 51.4635 26.0412C51.3262 25.7533 51.0087 25.5823 50.7071 25.6068C50.5166 25.6225 50.3448 25.6933 50.2019 25.8279C50.1058 25.9173 50.1086 26.1011 50.2019 26.1915C50.3047 26.2888 50.4457 26.2858 50.5474 26.1905Z" fill="#C57207"/>
<path d="M50.3678 27.4878C50.3865 27.4986 50.4052 27.5094 50.4229 27.5212C50.4323 27.5281 50.4435 27.5389 50.4537 27.5438C50.4481 27.5409 50.4098 27.5055 50.4341 27.5281C50.4677 27.5596 50.4967 27.592 50.5275 27.6273C50.5471 27.6499 50.4939 27.5772 50.5163 27.6126C50.5219 27.6215 50.5284 27.6303 50.534 27.6401C50.5462 27.6588 50.5564 27.6775 50.5667 27.6971C50.5779 27.7187 50.5863 27.7423 50.5975 27.7629C50.5938 27.757 50.577 27.706 50.5873 27.7384C50.591 27.7512 50.5957 27.7639 50.6003 27.7767C50.6115 27.814 50.633 27.8681 50.6293 27.9064C50.6302 27.8936 50.6227 27.8396 50.6265 27.8848C50.6274 27.8956 50.6284 27.9064 50.6293 27.9182C50.6302 27.9408 50.6311 27.9624 50.6302 27.985C50.6293 28.0076 50.6256 28.0292 50.6256 28.0518C50.6274 27.9654 50.6255 28.042 50.6199 28.0685C50.6153 28.0902 50.6087 28.1118 50.6022 28.1324C50.5985 28.1422 50.5938 28.153 50.591 28.1638C50.5957 28.1511 50.6003 28.1393 50.6059 28.1275C50.6022 28.1354 50.5985 28.1442 50.5947 28.1521C50.5387 28.2729 50.5602 28.4351 50.6825 28.5038C50.7917 28.5648 50.9561 28.5402 51.0159 28.4115C51.127 28.1727 51.1503 27.8976 51.0719 27.6421C50.9953 27.3935 50.8375 27.1694 50.6153 27.0456C50.5023 26.9827 50.3445 27.0122 50.2819 27.138C50.2203 27.2559 50.2474 27.421 50.3678 27.4878Z" fill="#C57207"/>
<path d="M49.2739 26.6596C49.2832 26.6507 49.2926 26.6419 49.3028 26.6331C49.286 26.6468 49.2701 26.6596 49.2533 26.6733C49.2739 26.6576 49.2954 26.6448 49.3187 26.634C49.2991 26.6429 49.2795 26.6517 49.2608 26.6596C49.286 26.6488 49.3131 26.6409 49.3402 26.637C49.3187 26.6399 49.2972 26.6429 49.2758 26.6458C49.3056 26.6419 49.3346 26.6419 49.3645 26.6448C49.343 26.6419 49.3215 26.6389 49.3 26.636C49.3299 26.6399 49.3579 26.6478 49.385 26.6596C49.3654 26.6507 49.3458 26.6419 49.3271 26.634C49.3504 26.6448 49.3719 26.6586 49.3925 26.6743C49.3757 26.6606 49.3598 26.6478 49.343 26.634C49.3607 26.6498 49.3766 26.6664 49.3915 26.6861C49.3785 26.6684 49.3663 26.6517 49.3533 26.634C49.3682 26.6557 49.3803 26.6773 49.3906 26.7018C49.3822 26.6812 49.3738 26.6606 49.3663 26.6409C49.3775 26.6694 49.3859 26.6989 49.3897 26.7293C49.3869 26.7067 49.3841 26.6841 49.3813 26.6615C49.385 26.6949 49.3859 26.7274 49.3813 26.7598C49.3841 26.7372 49.3869 26.7146 49.3897 26.692C49.3859 26.7205 49.3785 26.748 49.3682 26.7736C49.3766 26.7529 49.385 26.7323 49.3925 26.7126C49.3831 26.7352 49.3719 26.7559 49.3579 26.7755C49.3224 26.8256 49.3178 26.9161 49.3336 26.973C49.3495 27.033 49.3934 27.0968 49.4457 27.1263C49.5027 27.1578 49.5708 27.1735 49.6334 27.1519C49.653 27.143 49.6726 27.1342 49.6913 27.1263C49.7277 27.1037 49.7576 27.0723 49.7791 27.0339C49.8398 26.9465 49.8659 26.8335 49.8706 26.7264C49.8752 26.6193 49.8463 26.5092 49.7987 26.4159C49.7912 26.4011 49.7828 26.3874 49.7734 26.3746C49.7529 26.3451 49.7314 26.3137 49.7062 26.2881C49.6698 26.2518 49.6269 26.2164 49.5811 26.1938C49.4877 26.1476 49.3859 26.1181 49.2813 26.1309C49.2449 26.1348 49.2057 26.1398 49.1693 26.1496C49.1338 26.1594 49.0993 26.1761 49.0666 26.1919C49.0152 26.2164 48.9685 26.2538 48.9284 26.295C48.8845 26.3412 48.8574 26.411 48.8574 26.4768C48.8574 26.5397 48.8836 26.6154 48.9284 26.6586C48.9751 26.7038 49.0358 26.7372 49.1011 26.7343C49.1665 26.7323 49.2262 26.7087 49.2739 26.6596Z" fill="#C57207"/>
<path d="M32.0015 30.595C32.0034 30.5931 32.0043 30.5911 32.0062 30.5882C31.9931 30.6058 31.9809 30.6226 31.9679 30.6402C31.9856 30.6167 32.0061 30.596 32.0276 30.5774C32.0108 30.5911 31.995 30.6039 31.9781 30.6176C32.0071 30.5941 32.0379 30.5754 32.0715 30.5607C32.0519 30.5695 32.0323 30.5783 32.0127 30.5862C32.0491 30.5705 32.0864 30.5606 32.1247 30.5548C32.1033 30.5577 32.0818 30.5606 32.0594 30.5636C32.0986 30.5587 32.1369 30.5587 32.1761 30.5636C32.1546 30.5606 32.1331 30.5577 32.1117 30.5548C32.1481 30.5597 32.1826 30.5695 32.2162 30.5842C32.1966 30.5754 32.177 30.5665 32.1584 30.5587C32.1873 30.5715 32.2135 30.5882 32.2387 30.6068C32.2219 30.5931 32.206 30.5803 32.1892 30.5665C32.2144 30.5872 32.2368 30.6108 32.2555 30.6373C32.2424 30.6196 32.2302 30.6029 32.2172 30.5852C32.2359 30.6117 32.2517 30.6412 32.2648 30.6717C32.2564 30.651 32.248 30.6304 32.2405 30.6108C32.2555 30.6501 32.2657 30.6894 32.2713 30.7316C32.2685 30.709 32.2657 30.6864 32.2629 30.6628C32.2676 30.7051 32.2676 30.7464 32.262 30.7886C32.2648 30.766 32.2676 30.7434 32.2704 30.7208C32.2648 30.7591 32.2555 30.7965 32.2405 30.8328C32.2489 30.8122 32.2573 30.7916 32.2648 30.7719C32.2517 30.8024 32.2359 30.8309 32.2172 30.8574C32.2302 30.8397 32.2424 30.823 32.2555 30.8053C32.2452 30.8181 32.2349 30.8309 32.2237 30.8427C32.1332 30.938 32.1266 31.1119 32.2237 31.2062C32.3208 31.3005 32.4721 31.3074 32.5692 31.2062C32.7737 30.99 32.8036 30.652 32.6747 30.3867C32.6458 30.3278 32.6047 30.2708 32.558 30.2256C32.4936 30.1627 32.4263 30.1234 32.346 30.09C32.2256 30.0389 32.0902 30.0389 31.9651 30.0654C31.8969 30.0802 31.8287 30.1096 31.7699 30.147C31.6905 30.1981 31.6354 30.26 31.5794 30.3366C31.5439 30.3857 31.5402 30.4781 31.5551 30.5341C31.571 30.5941 31.6149 30.6579 31.6672 30.6874C31.7242 30.7189 31.7923 30.7346 31.8549 30.713C31.8745 30.7041 31.8941 30.6953 31.9128 30.6874C31.9511 30.6648 31.98 30.6333 32.0015 30.595Z" fill="#C57207"/>
<path d="M30.668 31.227C30.7026 31.2339 30.7353 31.2447 30.7679 31.2584C30.7483 31.2496 30.7287 31.2408 30.7101 31.2329C30.7502 31.2516 30.7866 31.2742 30.8212 31.3017C30.8044 31.2879 30.7885 31.2751 30.7717 31.2614C30.8081 31.2918 30.8408 31.3262 30.8697 31.3646C30.8567 31.3469 30.8445 31.3302 30.8315 31.3125C30.8632 31.3567 30.8903 31.4039 30.9108 31.4549C30.9024 31.4343 30.894 31.4137 30.8866 31.394C30.9043 31.4392 30.9164 31.4864 30.923 31.5346C30.9202 31.512 30.9174 31.4894 30.9146 31.4658C30.9202 31.511 30.9211 31.5562 30.9155 31.6024C30.9183 31.5798 30.9211 31.5572 30.9239 31.5336C30.9211 31.5581 30.9164 31.5817 30.9099 31.6053C30.8763 31.735 30.9519 31.8903 31.0808 31.9217C31.2096 31.9522 31.3441 31.8804 31.3805 31.7429C31.4365 31.5297 31.3992 31.2938 31.2881 31.1071C31.1798 30.9244 31.0023 30.773 30.7978 30.7327C30.7325 30.72 30.669 30.7219 30.6102 30.7583C30.5597 30.7897 30.5112 30.8507 30.4981 30.9116C30.4841 30.9774 30.4869 31.0511 30.5224 31.1091C30.555 31.1621 30.6064 31.2152 30.668 31.227Z" fill="#C57207"/>
<path d="M30.1174 29.341C30.1202 29.3273 30.1239 29.3145 30.1295 29.3017C30.1211 29.3224 30.1127 29.343 30.1053 29.3626C30.1118 29.3469 30.1202 29.3322 30.1305 29.3184C30.1174 29.3361 30.1053 29.3528 30.0922 29.3705C30.1034 29.3558 30.1165 29.342 30.1314 29.3312C30.1146 29.345 30.0987 29.3577 30.0819 29.3715C30.0969 29.3597 30.1127 29.3509 30.1295 29.343C30.1099 29.3518 30.0903 29.3607 30.0716 29.3685C30.0884 29.3617 30.1062 29.3558 30.1239 29.3528C30.1024 29.3558 30.081 29.3587 30.0595 29.3617C30.0772 29.3587 30.095 29.3587 30.1137 29.3617C30.0922 29.3587 30.0707 29.3558 30.0483 29.3528C30.0632 29.3558 30.0772 29.3597 30.0912 29.3656C30.0716 29.3568 30.052 29.3479 30.0334 29.3401C30.0483 29.3469 30.0614 29.3558 30.0744 29.3656C30.0576 29.3519 30.0418 29.3391 30.025 29.3253C30.039 29.3371 30.0511 29.3499 30.0614 29.3646C30.0483 29.3469 30.0361 29.3302 30.0231 29.3125C30.0333 29.3273 30.0427 29.343 30.0502 29.3607C30.0418 29.3401 30.0334 29.3194 30.0259 29.2998C30.0343 29.3204 30.0399 29.341 30.0427 29.3636C30.0399 29.341 30.0371 29.3184 30.0343 29.2948C30.0361 29.3135 30.0361 29.3312 30.0343 29.3499C30.0371 29.3273 30.0399 29.3047 30.0427 29.2821C30.0399 29.2988 30.0362 29.3145 30.0296 29.3302C30.038 29.3096 30.0455 29.2889 30.0539 29.2693C30.053 29.2713 30.053 29.2722 30.052 29.2742C30.0343 29.3037 30.0249 29.3351 30.0231 29.3695C30.0156 29.4039 30.0175 29.4373 30.0277 29.4717C30.0436 29.5317 30.0875 29.5955 30.1398 29.625C30.1968 29.6564 30.2649 29.6722 30.3275 29.6505C30.3845 29.6309 30.4479 29.5926 30.4732 29.5326C30.4853 29.5041 30.4993 29.4737 30.5077 29.4432C30.5171 29.4098 30.5198 29.3744 30.5227 29.3401C30.5264 29.2949 30.5189 29.2477 30.5096 29.2045C30.5002 29.1612 30.4825 29.118 30.461 29.0797C30.4461 29.0521 30.4255 29.0276 30.4069 29.002C30.3985 28.9912 30.391 28.9814 30.3807 28.9726C30.2995 28.8959 30.2033 28.8517 30.0941 28.8478C30.0502 28.8468 30.0035 28.8527 29.9615 28.8674C29.9213 28.8812 29.8793 28.8989 29.8438 28.9244C29.7514 28.9912 29.6729 29.0875 29.6496 29.2064C29.6365 29.2742 29.6402 29.343 29.6738 29.4039C29.7037 29.457 29.7616 29.5081 29.8195 29.5218C29.8821 29.5366 29.9521 29.5336 30.0072 29.4963C30.0567 29.459 30.1053 29.4059 30.1174 29.341Z" fill="#C57207"/>
<path d="M11.8247 67.7402C11.1001 67.3914 10.2242 67.53 9.64154 68.1087C9.41277 68.3367 9.75828 68.6983 9.98612 68.4723C10.2 68.26 10.4614 68.1343 10.7611 68.0773C10.791 68.0714 10.7901 68.0714 10.834 68.0675C10.8713 68.0635 10.9077 68.0616 10.9451 68.0596C11.0235 68.0567 11.1029 68.0606 11.1814 68.0685C11.2318 68.0744 11.1253 68.0576 11.2131 68.0724C11.2318 68.0753 11.2495 68.0792 11.2682 68.0822C11.3046 68.0901 11.3401 68.0989 11.3765 68.1087C11.4167 68.1205 11.4568 68.1333 11.496 68.148C11.5353 68.1628 11.5549 68.1716 11.5791 68.1834C11.6987 68.2414 11.8415 68.2188 11.9125 68.091C11.9741 67.981 11.9452 67.7982 11.8247 67.7402Z" fill="#C57207"/>
<path d="M15.9603 60.9058C17.0995 58.294 19.6805 56.9547 21.7768 55.3275C22.8628 54.4844 23.8993 53.5303 24.6127 52.3079C25.3588 51.0285 25.7388 49.5241 25.7528 48.0266C25.7697 46.3031 25.2962 44.5767 24.3447 43.1666C24.1645 42.8993 23.7415 43.1558 23.9236 43.426C25.5895 45.8963 25.7136 49.364 24.2383 51.9679C22.8693 54.3841 20.3089 55.6468 18.2612 57.3114C17.1462 58.2183 16.134 59.2825 15.5383 60.6463C15.4085 60.9441 15.8287 61.2055 15.9603 60.9058Z" fill="#C57207"/>
<path d="M43.0931 59.8705C41.4216 58.1225 39.6531 56.2909 38.8043 53.9228C38.0246 51.7492 38.0759 49.1365 39.7819 47.4621C40.5897 46.6691 41.699 46.1798 42.813 46.3468C43.1202 46.393 43.2528 45.8978 42.9428 45.8516C40.7652 45.5244 38.737 47.1977 38.0881 49.332C37.3056 51.9045 38.2935 54.6597 39.7455 56.7419C40.6307 58.0114 41.6887 59.1257 42.7476 60.2331C42.9717 60.467 43.3163 60.1044 43.0931 59.8705Z" fill="#C57207"/>
<path d="M38.8452 57.0303C34.2669 56.594 29.6559 56.5596 25.072 56.9379C23.7573 57.046 22.4443 57.1894 21.1361 57.3643C20.8289 57.4056 20.8252 57.9195 21.1361 57.8783C25.6967 57.269 30.3039 57.0607 34.8972 57.2661C36.2148 57.325 37.5314 57.4184 38.8452 57.5442C39.1581 57.5737 39.1562 57.0597 38.8452 57.0303Z" fill="#C57207"/>
<path d="M55.3715 69.4633C53.1127 65.0985 51.2853 60.493 49.9313 55.7313C49.5457 54.3762 49.2002 53.0084 48.8902 51.6318C48.8183 51.3105 48.3477 51.4461 48.4196 51.7684C49.5158 56.648 51.0948 61.4029 53.1249 65.9387C53.6973 67.219 54.307 68.4797 54.9504 69.7217C55.0998 70.0126 55.5219 69.7531 55.3715 69.4633Z" fill="#C57207"/>
<path d="M47.6175 68.1236C49.0873 67.6244 50.6579 67.5675 52.1557 67.9674C52.4601 68.0489 52.5898 67.5537 52.2854 67.4721C50.7064 67.0506 49.0387 67.1017 47.4877 67.6284C47.1898 67.7296 47.3177 68.2258 47.6175 68.1236Z" fill="#C57207"/>
<path d="M54.9841 67.937C55.5882 67.5882 56.3483 67.5577 56.9712 67.8731C57.0898 67.9331 57.2345 67.9075 57.3055 67.7808C57.368 67.6688 57.3372 67.4899 57.2177 67.429C56.4324 67.032 55.5033 67.0507 54.7376 67.4929C54.4621 67.6521 54.7086 68.0962 54.9841 67.937Z" fill="#C57207"/>
<path d="M27.069 68.2852C25.8364 67.7752 24.4834 67.6662 23.1892 67.9511C22.882 68.0189 23.0118 68.5141 23.319 68.4463C24.531 68.1801 25.7888 68.3039 26.9402 68.7804C27.2315 68.9013 27.3585 68.4051 27.069 68.2852Z" fill="#C57207"/>
<path d="M3.89719 17.3788C4.26976 18.2965 3.86917 19.4629 3.05958 19.9561C2.78785 20.1222 3.03344 20.5654 3.30611 20.3993C4.36688 19.7518 4.79548 18.2936 4.31925 17.1193C4.26789 16.9916 4.08863 16.9631 3.98498 17.027C3.85892 17.1046 3.84489 17.251 3.89719 17.3788Z" fill="#C57207"/>
<path d="M2.71434 18.0081C2.23438 18.071 1.83285 18.3383 1.54618 18.7451C1.27165 19.1352 1.16241 19.6314 1.24645 20.108C1.27073 20.2446 1.4276 20.3222 1.54712 20.2868C1.68345 20.2475 1.74135 20.108 1.71707 19.9704C1.71427 19.9567 1.70586 19.8967 1.71146 19.9439C1.70866 19.9203 1.7068 19.8957 1.70493 19.8722C1.70213 19.824 1.70119 19.7768 1.70399 19.7287C1.70493 19.7051 1.7068 19.6815 1.70867 19.657C1.71334 19.5803 1.69932 19.7061 1.71146 19.6304C1.71893 19.5833 1.72827 19.5361 1.73947 19.4899C1.75068 19.4437 1.76469 19.3976 1.78056 19.3533C1.7843 19.3435 1.80859 19.2796 1.78991 19.3258C1.79738 19.3071 1.80579 19.2895 1.81419 19.2708C1.85434 19.1843 1.90103 19.1008 1.95425 19.0222C1.96265 19.0094 1.98599 18.9789 1.96451 19.0065C1.97852 18.9878 1.99345 18.9691 2.00839 18.9514C2.03828 18.9151 2.07004 18.8807 2.10272 18.8473C2.1354 18.8139 2.16997 18.7824 2.20545 18.752C2.16903 18.7824 2.22692 18.7363 2.22879 18.7343C2.24746 18.7205 2.26614 18.7068 2.28575 18.694C2.32404 18.6684 2.36324 18.6449 2.40433 18.6233C2.42487 18.6124 2.44542 18.6026 2.46597 18.5928C2.42768 18.6105 2.48089 18.5869 2.4921 18.583C2.53132 18.5682 2.57055 18.5545 2.61164 18.5437C2.63405 18.5378 2.65551 18.5319 2.67792 18.5279C2.68819 18.526 2.76663 18.5132 2.71434 18.5201C2.84507 18.5034 2.95807 18.414 2.95807 18.2636C2.95901 18.1398 2.846 17.9914 2.71434 18.0081Z" fill="#C57207"/>
<path d="M13.6308 36.7923C11.681 40.8741 13.6383 45.4099 13.571 49.6764C13.5505 50.9508 13.3422 52.2204 12.8053 53.372C12.6671 53.6678 13.0883 53.9281 13.2265 53.6314C15.1454 49.5162 13.1564 44.9795 13.261 40.6884C13.2918 39.4316 13.5122 38.1828 14.0519 37.0528C14.1929 36.757 13.7718 36.4966 13.6308 36.7923Z" fill="#C57207"/>
<path d="M62.3614 38.3624C60.9486 35.8086 59.4219 33.3246 57.7831 30.925C56.3049 28.7603 54.7828 26.521 52.8238 24.8033C51.0524 23.2498 48.8664 22.1925 46.5198 22.3154C45.4366 22.3723 44.3544 22.6858 43.443 23.3157C42.442 24.0064 41.7184 25.0284 41.1095 26.0945C40.3803 27.3699 39.792 28.7603 38.8442 29.8825C37.9328 30.9614 36.5732 31.8045 35.1586 31.489C34.8523 31.4203 34.7215 31.9155 35.0288 31.9843C36.1689 32.2388 37.3268 31.8595 38.2531 31.1461C39.2308 30.3924 39.919 29.3224 40.5175 28.2317C41.1329 27.1105 41.6763 25.9245 42.4719 24.9272C43.2245 23.9838 44.1854 23.3147 45.3237 23.014C47.5741 22.4205 49.9253 23.2095 51.7686 24.5891C53.8108 26.119 55.3506 28.2936 56.8194 30.3983C58.6646 33.0416 60.3724 35.788 61.9403 38.6218C62.0981 38.9068 62.5201 38.6484 62.3614 38.3624Z" fill="#C57207"/>
<path d="M22.9686 65.9671C22.9751 65.9553 22.9816 65.9435 22.9882 65.9327C23.0097 65.8992 22.9985 65.9258 22.9816 65.9395C23.0013 65.9238 23.0162 65.8983 23.0339 65.8806C23.0451 65.8698 23.0582 65.86 23.0685 65.8491C23.0535 65.8658 23.0321 65.8776 23.0629 65.856C23.0844 65.8413 23.1068 65.8275 23.1292 65.8157C23.1749 65.7922 23.1245 65.8236 23.1198 65.8187C23.1226 65.8206 23.1525 65.8069 23.1562 65.8059C23.1805 65.798 23.2058 65.7931 23.231 65.7872C23.2608 65.7803 23.1749 65.7912 23.2198 65.7892C23.2347 65.7882 23.2506 65.7872 23.2655 65.7872C23.2758 65.7872 23.2861 65.7882 23.2963 65.7882C23.3496 65.7892 23.2412 65.7745 23.2926 65.7863C23.3169 65.7922 23.3411 65.798 23.3654 65.8059C23.3738 65.8088 23.4158 65.8256 23.3785 65.8098C23.3411 65.7941 23.3822 65.8128 23.3897 65.8167C23.4121 65.8295 23.4326 65.8432 23.4541 65.858C23.4971 65.8855 23.4252 65.8305 23.4467 65.8511C23.456 65.8599 23.4653 65.8678 23.4747 65.8776C23.4924 65.8953 23.5073 65.9199 23.526 65.9356C23.5055 65.9061 23.4999 65.8992 23.5111 65.915C23.5158 65.9209 23.5195 65.9278 23.5242 65.9346C23.5307 65.9454 23.5372 65.9562 23.5438 65.968C23.5503 65.9798 23.5559 65.9916 23.5615 66.0024C23.5821 66.0427 23.5485 65.9621 23.5578 65.9916C23.5662 66.0191 23.5746 66.0466 23.5811 66.0751C23.6091 66.2058 23.7595 66.2962 23.8809 66.254C24.0116 66.2097 24.0816 66.0791 24.0518 65.9386C23.9827 65.6202 23.7165 65.3421 23.4074 65.289C23.0685 65.2311 22.7221 65.3912 22.5474 65.7076C22.483 65.8236 22.5185 65.9936 22.6352 66.0594C22.751 66.1243 22.8995 66.0909 22.9686 65.9671Z" fill="#C57207"/>
<path d="M8.04406 65.4488C8.04966 65.3938 8.03285 65.5019 8.04406 65.4518C8.04779 65.4331 8.05153 65.4144 8.0562 65.3958C8.06367 65.3643 8.07581 65.3349 8.08515 65.3034C8.09169 65.2857 8.08888 65.2936 8.0758 65.328C8.08047 65.3181 8.08422 65.3083 8.08888 65.2985C8.09542 65.2837 8.10287 65.27 8.11034 65.2562C8.12528 65.2277 8.14303 65.2012 8.15984 65.1747C8.18599 65.1334 8.12529 65.215 8.15984 65.1757C8.17011 65.1639 8.17944 65.1511 8.19065 65.1393C8.21212 65.1147 8.23361 65.0921 8.25696 65.0705C8.26816 65.0597 8.2803 65.0489 8.29244 65.0381C8.33072 65.0027 8.25322 65.0656 8.29244 65.0381C8.32045 65.0184 8.34847 64.9978 8.37741 64.9801C8.40449 64.9634 8.43436 64.9516 8.46051 64.9349C8.40915 64.9546 8.47918 64.9231 8.46051 64.9349C8.47732 64.928 8.49321 64.9221 8.51095 64.9153C8.54083 64.9054 8.57072 64.8966 8.6006 64.8897C8.61554 64.8858 8.6314 64.8838 8.64634 64.8809C8.69956 64.8701 8.58844 64.8848 8.6426 64.8819C8.67342 64.8799 8.70423 64.8769 8.73505 64.8779C8.76399 64.8779 8.79854 64.8877 8.82655 64.8848C8.76772 64.8917 8.7976 64.8809 8.82282 64.8858C8.83776 64.8887 8.8527 64.8927 8.86764 64.8966C8.90312 64.9064 8.93676 64.9192 8.97037 64.9349C9.08803 64.987 9.24395 64.8789 9.2701 64.7561C9.30278 64.6057 9.22621 64.4967 9.10015 64.4407C8.78453 64.3011 8.40541 64.366 8.11781 64.5468C7.80313 64.7443 7.59677 65.0676 7.55568 65.4508C7.54168 65.5844 7.67802 65.7131 7.79942 65.7072C7.94415 65.6994 8.02818 65.5923 8.04406 65.4488Z" fill="#C57207"/>
<path d="M27.3385 59.0588C27.3413 59.047 27.3451 59.0362 27.3497 59.0253C27.3413 59.046 27.3329 59.0666 27.3255 59.0862C27.3357 59.0597 27.3497 59.0362 27.3656 59.0136C27.3525 59.0312 27.3404 59.0479 27.3273 59.0656C27.3451 59.0411 27.3656 59.0204 27.389 59.0017C27.3721 59.0155 27.3563 59.0283 27.3395 59.042C27.3647 59.0214 27.3918 59.0057 27.4207 58.9919C27.4011 59.0008 27.3815 59.0096 27.3628 59.0175C27.3964 59.0027 27.431 58.9919 27.4674 58.987C27.4459 58.99 27.4244 58.9929 27.4029 58.9959C27.4366 58.9919 27.4702 58.991 27.5038 58.9959C27.4823 58.9929 27.4609 58.99 27.4385 58.987C27.4646 58.991 27.4907 58.9988 27.515 59.0086C27.4954 58.9998 27.4758 58.9919 27.4571 58.9831C27.4795 58.9929 27.501 59.0057 27.5216 59.0214C27.5047 59.0077 27.4889 58.9949 27.4721 58.9811C27.4917 58.9968 27.5085 59.0145 27.5243 59.0352C27.5113 59.0175 27.4991 59.0008 27.4861 58.9831C27.5038 59.0067 27.5178 59.0332 27.529 59.0607C27.5206 59.0401 27.5122 59.0194 27.5047 58.9988C27.5169 59.0293 27.5243 59.0607 27.529 59.0931C27.5262 59.0705 27.5234 59.0479 27.5206 59.0253C27.5253 59.0627 27.5253 59.1 27.5206 59.1383C27.5234 59.1157 27.5262 59.0931 27.529 59.0705C27.5243 59.1059 27.516 59.1393 27.5029 59.1727C27.5113 59.1521 27.5197 59.1315 27.5272 59.1108C27.515 59.1413 27.4991 59.1688 27.4805 59.1953C27.4935 59.1777 27.5057 59.1609 27.5188 59.1433C27.5038 59.1629 27.487 59.1816 27.4674 59.1973C27.4842 59.1835 27.5001 59.1708 27.5169 59.157C27.5047 59.1668 27.4917 59.1757 27.4777 59.1845C27.4244 59.216 27.3815 59.2769 27.3656 59.3378C27.3497 59.3997 27.3572 59.4813 27.3899 59.5353C27.4627 59.6532 27.6047 59.6984 27.7242 59.6277C27.8549 59.5501 27.9483 59.4135 27.9884 59.2622C28.0062 59.1953 28.0155 59.1226 28.0108 59.0538C28.0043 58.9575 27.9856 58.8819 27.9483 58.7954C27.8867 58.6529 27.7597 58.5507 27.6205 58.5046C27.472 58.4554 27.3152 58.4829 27.1761 58.5488C27.0285 58.6185 26.9146 58.761 26.8698 58.9231C26.852 58.986 26.8632 59.0646 26.8941 59.1206C26.9239 59.1737 26.9818 59.2248 27.0397 59.2386C27.1686 59.27 27.3002 59.1973 27.3385 59.0588Z" fill="#C57207"/>
<path d="M26.3803 60.3532C26.3878 60.3542 26.3943 60.3542 26.4009 60.3552C26.3794 60.3522 26.3579 60.3493 26.3364 60.3463C26.3682 60.3513 26.399 60.3601 26.4289 60.3729C26.4093 60.364 26.3897 60.3552 26.371 60.3473C26.4009 60.3611 26.428 60.3778 26.4532 60.3984C26.4364 60.3847 26.4205 60.3719 26.4037 60.3581C26.4326 60.3817 26.4588 60.4092 26.4821 60.4397C26.469 60.422 26.4569 60.4053 26.4438 60.3876C26.4681 60.421 26.4877 60.4564 26.5036 60.4947C26.4952 60.4741 26.4868 60.4534 26.4793 60.4338C26.4933 60.4692 26.5036 60.5065 26.5092 60.5448C26.5064 60.5222 26.5036 60.4996 26.5008 60.477C26.5055 60.5124 26.5055 60.5488 26.5008 60.5841C26.5036 60.5615 26.5064 60.5389 26.5092 60.5163C26.5055 60.5448 26.498 60.5733 26.4877 60.6008C26.4663 60.6588 26.484 60.7472 26.512 60.7983C26.5419 60.8514 26.5998 60.9025 26.6577 60.9162C26.7202 60.931 26.7903 60.928 26.8454 60.8907C26.8622 60.8769 26.878 60.8642 26.8948 60.8504C26.9247 60.818 26.9462 60.7807 26.9574 60.7374C27.0256 60.5547 26.9863 60.3267 26.8874 60.1655C26.8313 60.0732 26.7613 59.9995 26.6745 59.9385C26.5858 59.8766 26.4831 59.8491 26.3775 59.8413C26.3178 59.8364 26.2459 59.8727 26.2048 59.9169C26.1628 59.9611 26.131 60.0348 26.1329 60.0987C26.1357 60.1655 26.1562 60.2343 26.2048 60.2805C26.258 60.3267 26.3131 60.3483 26.3803 60.3532Z" fill="#C57207"/>
<path d="M25.3686 59.307C25.3836 59.3001 25.3994 59.2962 25.4163 59.2933C25.3948 59.2962 25.3733 59.2992 25.3509 59.3021C25.3668 59.3001 25.3817 59.3001 25.3967 59.3021C25.3752 59.2992 25.3537 59.2962 25.3322 59.2933C25.35 59.2962 25.3677 59.3011 25.3845 59.309C25.3649 59.3001 25.3453 59.2913 25.3266 59.2834C25.3453 59.2923 25.3621 59.3031 25.378 59.3158C25.3611 59.3021 25.3453 59.2893 25.3285 59.2756C25.35 59.2932 25.3677 59.3129 25.3845 59.3355C25.3714 59.3178 25.3593 59.3011 25.3462 59.2834C25.363 59.308 25.378 59.3335 25.3892 59.3611C25.3808 59.3404 25.3733 59.3198 25.3649 59.3001C25.3752 59.3266 25.3817 59.3532 25.3855 59.3807C25.3827 59.3581 25.3798 59.3355 25.377 59.3129C25.3798 59.3355 25.3798 59.3581 25.377 59.3797C25.3798 59.3571 25.3827 59.3345 25.3855 59.3119C25.3827 59.3296 25.3789 59.3463 25.3724 59.363C25.3808 59.3424 25.3892 59.3218 25.3967 59.3021C25.3901 59.3168 25.3826 59.3316 25.3733 59.3444C25.3864 59.3267 25.3985 59.3099 25.4116 59.2923C25.4013 59.306 25.3901 59.3178 25.377 59.3286C25.3537 59.3522 25.3369 59.3797 25.3266 59.4112C25.3117 59.4416 25.3042 59.475 25.3051 59.5104C25.3051 59.5733 25.3322 59.6489 25.377 59.6922C25.4237 59.7374 25.4844 59.7708 25.5498 59.7669C25.5713 59.7639 25.5927 59.761 25.6142 59.758C25.6553 59.7462 25.6917 59.7236 25.7216 59.6922C25.7552 59.6647 25.7823 59.6264 25.8047 59.589C25.8159 59.5703 25.8225 59.5507 25.8309 59.531C25.8393 59.5094 25.8486 59.4898 25.8533 59.4672C25.8719 59.3787 25.871 59.2864 25.8467 59.1989C25.8206 59.1075 25.7786 59.0358 25.7216 58.9631C25.6665 58.8923 25.5909 58.8471 25.5115 58.8147C25.4994 58.8098 25.4881 58.8059 25.4751 58.8029C25.4433 58.796 25.4097 58.7901 25.377 58.7901C25.3313 58.7891 25.2818 58.796 25.2398 58.8147C25.208 58.8226 25.18 58.8383 25.1567 58.8609C25.1305 58.8786 25.109 58.9031 25.0941 58.9326C25.0633 58.9877 25.0502 59.0692 25.0698 59.1301C25.0885 59.192 25.1258 59.252 25.1819 59.2834C25.2351 59.3119 25.3089 59.3325 25.3686 59.307Z" fill="#C57207"/>
<path d="M42.1693 50.2163C42.1683 50.2114 42.1674 50.2065 42.1674 50.2016C42.1702 50.2242 42.173 50.2468 42.1758 50.2694C42.173 50.2458 42.173 50.2222 42.1768 50.1986C42.174 50.2212 42.1712 50.2438 42.1684 50.2664C42.1721 50.2428 42.1777 50.2202 42.1861 50.1986C42.1777 50.2193 42.1693 50.2399 42.1618 50.2595C42.173 50.233 42.1861 50.2085 42.2029 50.1859C42.1898 50.2035 42.1777 50.2203 42.1646 50.2379C42.1833 50.2134 42.2038 50.1908 42.2272 50.1721C42.2104 50.1858 42.1945 50.1986 42.1777 50.2124C42.1992 50.1947 42.2225 50.18 42.2477 50.1691C42.2281 50.178 42.2085 50.1859 42.1898 50.1947C42.2132 50.1849 42.2365 50.177 42.2608 50.1731C42.2393 50.176 42.2179 50.179 42.1964 50.1819C42.2188 50.179 42.2412 50.178 42.2636 50.1809C42.2421 50.178 42.2206 50.175 42.1992 50.1721C42.2206 50.175 42.2403 50.1809 42.2608 50.1888C42.2412 50.1799 42.2216 50.1711 42.202 50.1632C42.2234 50.1731 42.243 50.1849 42.2617 50.1996C42.2449 50.1859 42.2291 50.1731 42.2122 50.1593C42.23 50.175 42.2468 50.1917 42.2608 50.2104C42.2477 50.1927 42.2356 50.176 42.2225 50.1583C42.2393 50.1809 42.2524 50.2055 42.2636 50.232C42.2552 50.2114 42.2477 50.1908 42.2393 50.1701C42.2515 50.2006 42.2599 50.232 42.2645 50.2654C42.2617 50.2428 42.2589 50.2202 42.2561 50.1976C42.2599 50.2261 42.2599 50.2546 42.2561 50.2831C42.2589 50.2605 42.2617 50.2379 42.2645 50.2153C42.2608 50.2419 42.2552 50.2664 42.2449 50.291C42.2533 50.2704 42.2617 50.2497 42.2692 50.2301C42.2608 50.2507 42.2496 50.2694 42.2365 50.288C42.2496 50.2704 42.2617 50.2536 42.2748 50.236C42.272 50.2389 42.2701 50.2428 42.2673 50.2458C42.2244 50.2989 42.1964 50.3558 42.1964 50.4276C42.1964 50.4905 42.2225 50.5661 42.2673 50.6094C42.314 50.6546 42.3747 50.688 42.4401 50.685C42.5017 50.6821 42.5708 50.6614 42.6128 50.6094C42.6651 50.5445 42.7015 50.4826 42.7258 50.4C42.7417 50.344 42.7492 50.2821 42.7464 50.2232C42.7426 50.1623 42.7342 50.0984 42.7127 50.0414C42.6819 49.9608 42.6521 49.9048 42.5988 49.839C42.5111 49.7299 42.371 49.668 42.2374 49.6661C42.0927 49.6641 41.948 49.7338 41.8481 49.8429C41.7855 49.9107 41.7435 49.9874 41.7127 50.0758C41.6819 50.1662 41.6856 50.2596 41.7015 50.3519C41.7117 50.4119 41.7659 50.4757 41.8135 50.5052C41.8658 50.5376 41.9433 50.5514 42.0012 50.5307C42.06 50.5111 42.117 50.4718 42.1469 50.4128C42.1553 50.3922 42.1637 50.3716 42.1712 50.3519C42.1805 50.3067 42.1805 50.2615 42.1693 50.2163Z" fill="#C57207"/>
<path d="M41.5962 52.0926C41.6009 52.0936 41.6055 52.0936 41.6102 52.0946C41.5887 52.0916 41.5673 52.0887 41.5449 52.0857C41.5757 52.0906 41.6046 52.0985 41.6336 52.1113C41.614 52.1024 41.5943 52.0936 41.5747 52.0857C41.6074 52.1004 41.6373 52.1191 41.6653 52.1417C41.6485 52.128 41.6326 52.1152 41.6158 52.1015C41.6438 52.125 41.669 52.1516 41.6914 52.181C41.6784 52.1633 41.6663 52.1466 41.6532 52.1289C41.6784 52.1633 41.6989 52.1997 41.7148 52.239C41.7064 52.2184 41.698 52.1978 41.6905 52.1781C41.7054 52.2154 41.7157 52.2537 41.7213 52.293C41.7185 52.2704 41.7157 52.2478 41.7129 52.2252C41.7176 52.2626 41.7185 52.2989 41.7139 52.3363C41.7167 52.3137 41.7195 52.2911 41.7223 52.2685C41.7176 52.3009 41.7101 52.3323 41.698 52.3618C41.6756 52.4188 41.6943 52.5092 41.7223 52.5594C41.7522 52.6124 41.81 52.6635 41.8679 52.6773C41.9305 52.692 42.0005 52.6891 42.0556 52.6517C42.0724 52.638 42.0883 52.6252 42.1051 52.6114C42.135 52.579 42.1565 52.5417 42.1677 52.4984C42.1882 52.4463 42.1948 52.3923 42.2004 52.3363C42.2041 52.3019 42.2041 52.2675 42.2004 52.2331C42.1882 52.1201 42.1612 52.016 42.1042 51.9177C42.0491 51.8224 41.9781 51.7477 41.8913 51.6838C41.8026 51.619 41.6998 51.5915 41.5943 51.5807C41.5355 51.5748 41.4617 51.6141 41.4216 51.6563C41.3796 51.7005 41.3478 51.7742 41.3497 51.8381C41.3525 51.9049 41.373 51.9737 41.4216 52.0199C41.4739 52.0661 41.528 52.0857 41.5962 52.0926Z" fill="#C57207"/>
<path d="M40.3432 50.744C40.4141 50.6565 40.486 50.5701 40.557 50.4826C40.4291 50.4649 40.3012 50.4482 40.1742 50.4305C40.2657 50.6025 40.3581 50.7745 40.4506 50.9454C40.4805 51.0014 40.5384 51.0466 40.5963 51.0633C40.6551 51.0801 40.7326 51.0722 40.7839 51.0378C40.8362 51.0024 40.882 50.9494 40.896 50.8845C40.9109 50.8167 40.9044 50.7479 40.8717 50.687C40.7793 50.5151 40.6878 50.3441 40.5953 50.1721C40.558 50.1023 40.4907 50.0601 40.4169 50.0493C40.345 50.0395 40.2619 50.0591 40.2115 50.12C40.1396 50.2075 40.0686 50.294 39.9977 50.3814C39.9547 50.4335 39.9258 50.4924 39.9258 50.5632C39.9258 50.6261 39.9519 50.7017 39.9977 50.745C40.0444 50.7902 40.1051 50.8236 40.1704 50.8196C40.2321 50.8157 40.3012 50.7951 40.3432 50.744Z" fill="#C57207"/>
<path d="M69.8818 51.9267C71.1163 52.533 72.5412 52.3158 73.7057 51.627C74.9233 50.9058 75.8225 49.7394 76.6517 48.5848C76.8413 48.3215 76.4174 48.065 76.2306 48.3254C75.4911 49.3552 74.6899 50.3919 73.6328 51.0767C72.6019 51.7439 71.2638 52.0416 70.1293 51.4845C69.8454 51.344 69.597 51.7872 69.8818 51.9267Z" fill="#C57207"/>
<path d="M59.4207 48.5878C57.611 48.7951 55.6809 49.0182 53.9394 48.3146C52.4248 47.7034 51.3108 46.3985 50.4452 44.9993C49.9447 44.1896 49.5114 43.3377 49.0856 42.4838C48.9465 42.2037 48.6038 42.416 48.6393 42.6813C48.9764 45.1575 49.7318 47.5727 50.8822 49.763C51.3911 50.7328 52.0093 51.6614 52.8796 52.3079C53.748 52.9525 54.8078 53.2591 55.8565 53.3495C57.2777 53.4723 58.697 53.1815 60.0855 52.8995C60.3937 52.8366 60.2629 52.3423 59.9557 52.4042C57.8071 52.8395 55.3597 53.3141 53.3754 52.0358C52.493 51.4678 51.8786 50.5727 51.3771 49.6402C50.8215 48.6055 50.3602 47.5138 49.9914 46.3916C49.5805 45.1417 49.2892 43.8525 49.1108 42.5437C48.9624 42.6095 48.8139 42.6754 48.6645 42.7412C49.4367 44.2928 50.2463 45.8728 51.4238 47.1315C52.6909 48.4866 54.2989 49.1754 56.0936 49.2815C57.2058 49.3473 58.3179 49.2265 59.4216 49.0997C59.7298 49.0663 59.7326 48.5524 59.4207 48.5878Z" fill="#C57207"/>
<path d="M59.6605 65.1282C59.0274 64.9768 58.7015 64.3411 58.4877 63.7476C58.1935 62.93 57.9816 62.0732 57.736 61.237C57.2047 59.429 56.6743 57.62 56.143 55.811C56.0505 55.4966 55.579 55.6302 55.6723 55.9476C56.2513 57.9187 56.8302 59.8898 57.4091 61.8609C57.6491 62.6795 57.8433 63.5373 58.1898 64.3145C58.4606 64.9208 58.8845 65.4671 59.5307 65.6224C59.836 65.6961 59.9668 65.2018 59.6605 65.1282Z" fill="#C57207"/>
<path d="M10.2991 29.8541C12.3609 27.595 15.7038 27.5145 17.8319 25.3399C19.9824 23.1428 20.2989 19.4226 18.4809 16.9071C17.4976 15.5462 16.0232 14.5911 14.4068 14.3592C14.0996 14.315 13.967 14.8093 14.277 14.8545C17.1241 15.2642 19.3446 17.9458 19.1859 20.9909C19.1084 22.4766 18.5024 23.9378 17.4864 24.9774C16.4714 26.015 15.1137 26.5712 13.8251 27.1195C12.4328 27.711 11.0134 28.33 9.9536 29.4905C9.73696 29.7293 10.0816 30.0928 10.2991 29.8541Z" fill="#C57207"/>
<path d="M62.6458 42.8917C59.7324 42.8789 56.9217 44.5474 55.423 47.1759C55.2614 47.4599 55.6826 47.7183 55.8441 47.4353C57.2551 44.9601 59.9023 43.3938 62.6448 43.4056C62.9595 43.4066 62.9604 42.8927 62.6458 42.8917Z" fill="#C57207"/>
<path d="M22.4191 48.6487C22.4219 48.6408 22.4247 48.633 22.4275 48.6251C22.4191 48.6458 22.4107 48.6664 22.4032 48.686C22.4163 48.6556 22.4322 48.6271 22.4508 48.5996C22.4378 48.6173 22.4256 48.634 22.4125 48.6516C22.434 48.6231 22.4583 48.5986 22.4854 48.576C22.4686 48.5897 22.4527 48.6025 22.4359 48.6163C22.4657 48.5927 22.4975 48.5731 22.5321 48.5573C22.5125 48.5662 22.4928 48.575 22.4742 48.5828C22.5134 48.5652 22.5545 48.5534 22.5974 48.5465C22.5759 48.5495 22.5545 48.5524 22.5321 48.5553C22.5722 48.5504 22.6114 48.5495 22.6516 48.5553C22.6301 48.5524 22.6086 48.5495 22.5862 48.5465C22.6198 48.5514 22.6535 48.5612 22.6852 48.575C22.6656 48.5661 22.646 48.5583 22.6273 48.5494C22.6544 48.5622 22.6796 48.577 22.7029 48.5956C22.6861 48.5819 22.6702 48.5691 22.6534 48.5553C22.6768 48.575 22.6973 48.5966 22.716 48.6202C22.7029 48.6025 22.6908 48.5858 22.6777 48.5681C22.6992 48.5976 22.716 48.6281 22.73 48.6625C22.7216 48.6418 22.7132 48.6212 22.7057 48.6005C22.7197 48.6379 22.73 48.6752 22.7347 48.7145C22.7319 48.6919 22.7291 48.6693 22.7263 48.6467C22.7319 48.6919 22.7319 48.7371 22.7263 48.7833C22.7291 48.7607 22.7319 48.7381 22.7347 48.7145C22.7291 48.7568 22.7188 48.798 22.7029 48.8373C22.7113 48.8167 22.7197 48.7961 22.7272 48.7764C22.7132 48.8099 22.6964 48.8413 22.6749 48.8708C22.688 48.8531 22.7002 48.8364 22.7132 48.8187C22.6945 48.8433 22.6749 48.8649 22.6516 48.8845C22.6684 48.8708 22.6843 48.858 22.7011 48.8442C22.6899 48.8531 22.6796 48.8609 22.6675 48.8688C22.6142 48.9042 22.5722 48.9582 22.5554 49.0221C22.5395 49.084 22.547 49.1655 22.5797 49.2196C22.6488 49.3336 22.7982 49.3886 22.913 49.312C23.0531 49.2186 23.1558 49.0712 23.195 48.9012C23.2361 48.7253 23.2156 48.5504 23.1437 48.3873C23.0746 48.2301 22.9317 48.1152 22.7767 48.066C22.6385 48.0218 22.476 48.0306 22.3425 48.0886C22.2501 48.1289 22.1679 48.177 22.0969 48.2527C22.026 48.3274 21.9793 48.4148 21.9466 48.5131C21.927 48.573 21.941 48.6575 21.9709 48.7106C22.0007 48.7637 22.0586 48.8147 22.1165 48.8285C22.2547 48.8609 22.3733 48.7853 22.4191 48.6487Z" fill="#C57207"/>
<path d="M21.4652 50.6121C21.4764 50.6199 21.4876 50.6278 21.4997 50.6347C21.5249 50.6504 21.4623 50.6003 21.495 50.6307C21.5156 50.6494 21.5352 50.6691 21.5529 50.6897C21.5585 50.6966 21.5884 50.7349 21.5651 50.7035C21.5417 50.671 21.5697 50.7113 21.5744 50.7192C21.5893 50.7427 21.6015 50.7683 21.6145 50.7938C21.636 50.8351 21.6034 50.7575 21.6127 50.787C21.6164 50.8007 21.622 50.8135 21.6258 50.8273C21.6342 50.8548 21.6398 50.8823 21.6454 50.9098C21.6547 50.957 21.6435 50.8685 21.6435 50.9009C21.6435 50.9147 21.6454 50.9294 21.6454 50.9432C21.6454 50.957 21.6454 50.9717 21.6444 50.9855C21.6435 51.01 21.6295 51.0287 21.6472 50.9766C21.6388 51.0022 21.637 51.0316 21.6295 51.0582C21.6267 51.069 21.623 51.0788 21.6192 51.0896C21.6444 51.0395 21.6024 51.1437 21.6192 51.0896C21.6071 51.1142 21.5949 51.1387 21.58 51.1623C21.5744 51.1712 21.5651 51.18 21.5623 51.1898C21.5781 51.1476 21.5828 51.1633 21.566 51.1839C21.5482 51.2046 21.5296 51.2252 21.51 51.2429C21.4829 51.2684 21.496 51.2508 21.5165 51.2399C21.5053 51.2458 21.495 51.2567 21.4838 51.2635C21.4614 51.2793 21.4381 51.2911 21.4147 51.3048C21.3886 51.3205 21.4642 51.2881 21.4222 51.3019C21.4073 51.3068 21.3923 51.3127 21.3774 51.3176C21.255 51.3549 21.1664 51.5003 21.2074 51.633C21.2476 51.7637 21.3764 51.8521 21.5072 51.8118C21.8153 51.7175 22.0721 51.4355 22.1216 51.0975C22.1748 50.731 22.0161 50.3625 21.7126 50.1689C21.6033 50.0991 21.4399 50.1394 21.3792 50.2613C21.3148 50.3861 21.3484 50.5374 21.4652 50.6121Z" fill="#C57207"/>
<path d="M20.3112 48.9863C20.3663 48.9912 20.272 48.9765 20.3038 48.9843C20.3168 48.9873 20.3308 48.9892 20.3439 48.9932C20.371 49.0001 20.3962 49.0089 20.4224 49.0187C20.4747 49.0374 20.3757 48.9922 20.4242 49.0197C20.4364 49.0266 20.4485 49.0325 20.4606 49.0394C20.4849 49.0541 20.5073 49.0698 20.5297 49.0865C20.554 49.1032 20.4933 49.0521 20.526 49.0836C20.5363 49.0934 20.5465 49.1032 20.5568 49.113C20.5764 49.1337 20.5942 49.1553 20.6128 49.1769C20.6325 49.2005 20.5848 49.1337 20.6091 49.173C20.6175 49.1877 20.6269 49.2015 20.6353 49.2172C20.6409 49.227 20.6465 49.2378 20.6511 49.2476C20.6549 49.2555 20.6586 49.2634 20.6623 49.2712C20.6698 49.2889 20.667 49.2811 20.6539 49.2496C20.667 49.2575 20.6754 49.3184 20.6792 49.3341C20.6829 49.3489 20.6848 49.3626 20.6876 49.3774C20.695 49.4088 20.6848 49.3223 20.6866 49.3705C20.6876 49.4 20.6894 49.4295 20.6885 49.4589C20.6885 49.4737 20.6866 49.4884 20.6857 49.5031C20.6847 49.5356 20.696 49.4481 20.6866 49.4963C20.681 49.5258 20.6754 49.5542 20.667 49.5827C20.6642 49.5916 20.6493 49.625 20.6502 49.6328C20.6474 49.6151 20.6698 49.5877 20.6511 49.6279C20.639 49.6545 20.625 49.68 20.6101 49.7046C20.6035 49.7154 20.596 49.7321 20.5858 49.7409C20.5914 49.7331 20.597 49.7252 20.6026 49.7164C20.5951 49.7252 20.5876 49.734 20.5802 49.7429C20.4943 49.8421 20.4802 50.0092 20.5802 50.1065C20.6735 50.1969 20.8332 50.2126 20.9257 50.1065C21.1563 49.8382 21.2478 49.4383 21.118 49.0953C20.9817 48.7367 20.6726 48.5058 20.3103 48.4714C20.1824 48.4596 20.061 48.5982 20.0666 48.7279C20.0741 48.8792 20.1749 48.9735 20.3112 48.9863Z" fill="#C57207"/>
<path d="M72.6082 60.1914C72.2421 60.1914 72.0871 59.4623 72.0591 59.1823C72.0526 59.1224 72.005 59.0762 71.948 59.0762C71.891 59.0762 71.8425 59.1214 71.8369 59.1823C71.808 59.4633 71.6539 60.1914 71.2878 60.1914C71.2262 60.1914 71.1758 60.2445 71.1758 60.3094C71.1758 60.3742 71.2262 60.4273 71.2878 60.4273C71.6539 60.4273 71.8089 61.1564 71.8369 61.4374C71.8434 61.4973 71.891 61.5435 71.948 61.5435C72.0059 61.5435 72.0535 61.4983 72.0591 61.4374C72.0881 61.1564 72.2421 60.4273 72.6082 60.4273C72.6698 60.4273 72.7202 60.3742 72.7202 60.3094C72.7202 60.2445 72.6698 60.1914 72.6082 60.1914Z" fill="url(#paint1_linear_4488_23165)"/>
<path d="M3.60233 38.627C3.23629 38.627 3.08127 37.8979 3.05326 37.6178C3.04672 37.5579 2.99911 37.5127 2.94215 37.5127C2.88426 37.5127 2.83662 37.5589 2.83102 37.6178C2.80207 37.8989 2.64801 38.627 2.28197 38.627C2.22034 38.627 2.16992 38.68 2.16992 38.7449C2.16992 38.8097 2.22034 38.8628 2.28197 38.8628C2.64801 38.8628 2.803 39.5919 2.83102 39.8729C2.83755 39.9329 2.88519 39.9791 2.94215 39.9791C2.99911 39.9791 3.04766 39.9329 3.05326 39.8729C3.08221 39.5919 3.23629 38.8628 3.60233 38.8628C3.66396 38.8628 3.71438 38.8097 3.71438 38.7449C3.71438 38.68 3.66396 38.627 3.60233 38.627Z" fill="url(#paint2_linear_4488_23165)"/>
<path d="M60.3313 12.2456C59.5759 12.2456 59.2575 10.7422 59.1987 10.1634C59.1856 10.0396 59.0866 9.94531 58.969 9.94531C58.8513 9.94531 58.7514 10.0396 58.7392 10.1634C58.6804 10.7422 58.362 12.2456 57.6066 12.2456C57.4786 12.2456 57.375 12.3547 57.375 12.4893C57.375 12.6239 57.4786 12.733 57.6066 12.733C58.362 12.733 58.6804 14.2364 58.7392 14.8151C58.7514 14.939 58.8504 15.0333 58.969 15.0333C59.0875 15.0333 59.1865 14.939 59.1987 14.8151C59.2575 14.2354 59.5759 12.733 60.3313 12.733C60.4593 12.733 60.5629 12.6239 60.5629 12.4893C60.5629 12.3547 60.4593 12.2456 60.3313 12.2456Z" fill="url(#paint3_linear_4488_23165)"/>
<path d="M2.47317 59.9674C2.47317 60.4597 2.09407 60.8586 1.62625 60.8586C1.15842 60.8586 0.779297 60.4597 0.779297 59.9674C0.779297 59.4751 1.15842 59.0762 1.62625 59.0762C2.09407 59.0762 2.47317 59.4751 2.47317 59.9674Z" fill="url(#paint4_linear_4488_23165)"/>
<path d="M63.1841 25.8317C62.9376 26.2808 63.0842 26.8556 63.511 27.115C63.9377 27.3744 64.484 27.2202 64.7305 26.7711C64.977 26.322 64.8304 25.7472 64.4036 25.4878C63.976 25.2294 63.4307 25.3827 63.1841 25.8317Z" fill="url(#paint5_linear_4488_23165)"/>
<path d="M11.5401 18.5944C11.1395 18.8971 11.048 19.4837 11.3356 19.9052C11.6232 20.3267 12.1807 20.4231 12.5813 20.1204C12.9819 19.8178 13.0734 19.2311 12.7868 18.8096C12.4982 18.3881 11.9407 18.2918 11.5401 18.5944Z" fill="url(#paint6_linear_4488_23165)"/>
<path d="M34.6315 19.8593C34.4232 20.2641 33.9423 20.4145 33.5576 20.1944C33.1729 19.9752 33.03 19.4692 33.2383 19.0644C33.4465 18.6595 33.9274 18.5092 34.3121 18.7293C34.6968 18.9494 34.8397 19.4545 34.6315 19.8593Z" fill="url(#paint7_linear_4488_23165)"/>
<path d="M19.4245 2.42508C18.628 2.42508 18.2919 0.840144 18.2302 0.22994C18.2171 0.0992527 18.1126 0 17.9875 0C17.8623 0 17.7587 0.0992527 17.7447 0.22994C17.683 0.840144 17.3469 2.42508 16.5504 2.42508C16.4159 2.42508 16.3066 2.54006 16.3066 2.68156C16.3066 2.82404 16.4159 2.93801 16.5504 2.93801C17.3469 2.93801 17.683 4.52297 17.7447 5.13318C17.7577 5.26386 17.8623 5.36312 17.9875 5.36312C18.1126 5.36312 18.2171 5.26386 18.2302 5.13318C18.2919 4.52199 18.628 2.93801 19.4245 2.93801C19.559 2.93801 19.6682 2.82305 19.6682 2.68156C19.6682 2.54006 19.559 2.42508 19.4245 2.42508Z" fill="url(#paint8_linear_4488_23165)"/>
<path d="M38.8423 75.7802C39.3606 75.7802 39.5791 74.7495 39.6192 74.3525C39.6276 74.268 39.6958 74.2031 39.777 74.2031C39.8583 74.2031 39.9264 74.268 39.9349 74.3525C39.975 74.7495 40.1935 75.7802 40.7118 75.7802C40.7995 75.7802 40.8705 75.8549 40.8705 75.9473C40.8705 76.0397 40.7995 76.1143 40.7118 76.1143C40.1935 76.1143 39.975 77.1451 39.9349 77.5421C39.9264 77.6266 39.8583 77.6914 39.777 77.6914C39.6958 77.6914 39.6276 77.6266 39.6192 77.5421C39.5791 77.1451 39.3606 76.1143 38.8423 76.1143C38.7545 76.1143 38.6836 76.0397 38.6836 75.9473C38.6836 75.8549 38.7545 75.7802 38.8423 75.7802Z" fill="url(#paint9_linear_4488_23165)"/>
<path d="M18.7891 79.9387C18.7891 79.5673 19.0748 79.2666 19.4278 79.2666C19.7808 79.2666 20.0665 79.5673 20.0665 79.9387C20.0665 80.3101 19.7808 80.6108 19.4278 80.6108C19.0748 80.6098 18.7891 80.3091 18.7891 79.9387Z" fill="url(#paint10_linear_4488_23165)"/>
<path d="M33.0449 63.5608C33.0449 63.1893 33.3307 62.8887 33.6836 62.8887C34.0366 62.8887 34.3223 63.1893 34.3223 63.5608C34.3223 63.9322 34.0366 64.2329 33.6836 64.2329C33.3316 64.2329 33.0449 63.9322 33.0449 63.5608Z" fill="url(#paint11_linear_4488_23165)"/>
<path d="M60.2617 74.8742C60.2617 74.5028 60.5475 74.2021 60.9004 74.2021C61.2534 74.2021 61.5391 74.5028 61.5391 74.8742C61.5391 75.2457 61.2534 75.5463 60.9004 75.5463C60.5475 75.5463 60.2617 75.2457 60.2617 74.8742Z" fill="url(#paint12_linear_4488_23165)"/>
<path d="M69.2324 37.3352C69.2324 36.9638 69.5181 36.6631 69.8711 36.6631C70.2241 36.6631 70.5098 36.9638 70.5098 37.3352C70.5098 37.7066 70.2241 38.0073 69.8711 38.0073C69.5181 38.0063 69.2324 37.7056 69.2324 37.3352Z" fill="url(#paint13_linear_4488_23165)"/>
<path d="M40.502 11.9485C40.502 11.577 40.7877 11.2764 41.1406 11.2764C41.4936 11.2764 41.7794 11.577 41.7794 11.9485C41.7794 12.3199 41.4936 12.6206 41.1406 12.6206C40.7877 12.6206 40.502 12.3199 40.502 11.9485Z" fill="url(#paint14_linear_4488_23165)"/>
<defs>
<linearGradient id="paint0_linear_4488_23165" x1="39.8624" y1="18.3397" x2="40.3427" y2="62.8441" gradientUnits="userSpaceOnUse">
<stop stop-color="#EBCB76"/>
<stop offset="1" stop-color="#E19256"/>
</linearGradient>
<linearGradient id="paint1_linear_4488_23165" x1="69.2659" y1="0.895902" x2="73.3476" y2="82.5797" gradientUnits="userSpaceOnUse">
<stop stop-color="#EBCB76"/>
<stop offset="1" stop-color="#E19256"/>
</linearGradient>
<linearGradient id="paint2_linear_4488_23165" x1="1.3862" y1="4.285" x2="5.46803" y2="85.9728" gradientUnits="userSpaceOnUse">
<stop stop-color="#EBCB76"/>
<stop offset="1" stop-color="#E19256"/>
</linearGradient>
<linearGradient id="paint3_linear_4488_23165" x1="58.4698" y1="1.43301" x2="62.5517" y2="83.1198" gradientUnits="userSpaceOnUse">
<stop stop-color="#EBCB76"/>
<stop offset="1" stop-color="#E19256"/>
</linearGradient>
<linearGradient id="paint4_linear_4488_23165" x1="-0.88133" y1="4.39978" x2="3.20045" y2="86.0851" gradientUnits="userSpaceOnUse">
<stop stop-color="#EBCB76"/>
<stop offset="1" stop-color="#E19256"/>
</linearGradient>
<linearGradient id="paint5_linear_4488_23165" x1="62.8247" y1="1.21464" x2="66.9066" y2="82.9017" gradientUnits="userSpaceOnUse">
<stop stop-color="#EBCB76"/>
<stop offset="1" stop-color="#E19256"/>
</linearGradient>
<linearGradient id="paint6_linear_4488_23165" x1="11.3578" y1="3.78709" x2="15.4396" y2="85.4744" gradientUnits="userSpaceOnUse">
<stop stop-color="#EBCB76"/>
<stop offset="1" stop-color="#E19256"/>
</linearGradient>
<linearGradient id="paint7_linear_4488_23165" x1="33.1789" y1="2.69612" x2="37.2606" y2="84.3827" gradientUnits="userSpaceOnUse">
<stop stop-color="#EBCB76"/>
<stop offset="1" stop-color="#E19256"/>
</linearGradient>
<linearGradient id="paint8_linear_4488_23165" x1="18.0226" y1="3.45389" x2="22.1044" y2="85.14" gradientUnits="userSpaceOnUse">
<stop stop-color="#EBCB76"/>
<stop offset="1" stop-color="#E19256"/>
</linearGradient>
<linearGradient id="paint9_linear_4488_23165" x1="36.4641" y1="2.53199" x2="40.5461" y2="84.2193" gradientUnits="userSpaceOnUse">
<stop stop-color="#EBCB76"/>
<stop offset="1" stop-color="#E19256"/>
</linearGradient>
<linearGradient id="paint10_linear_4488_23165" x1="15.9807" y1="3.55358" x2="20.0626" y2="85.2427" gradientUnits="userSpaceOnUse">
<stop stop-color="#EBCB76"/>
<stop offset="1" stop-color="#E19256"/>
</linearGradient>
<linearGradient id="paint11_linear_4488_23165" x1="30.9423" y1="2.81079" x2="35.024" y2="84.4945" gradientUnits="userSpaceOnUse">
<stop stop-color="#EBCB76"/>
<stop offset="1" stop-color="#E19256"/>
</linearGradient>
<linearGradient id="paint12_linear_4488_23165" x1="57.5875" y1="1.47414" x2="61.6695" y2="83.1637" gradientUnits="userSpaceOnUse">
<stop stop-color="#EBCB76"/>
<stop offset="1" stop-color="#E19256"/>
</linearGradient>
<linearGradient id="paint13_linear_4488_23165" x1="68.2291" y1="0.94635" x2="72.311" y2="82.6315" gradientUnits="userSpaceOnUse">
<stop stop-color="#EBCB76"/>
<stop offset="1" stop-color="#E19256"/>
</linearGradient>
<linearGradient id="paint14_linear_4488_23165" x1="40.7064" y1="2.32164" x2="44.788" y2="84.005" gradientUnits="userSpaceOnUse">
<stop stop-color="#EBCB76"/>
<stop offset="1" stop-color="#E19256"/>
</linearGradient>
</defs>
</svg>
