<svg width="80" height="84" viewBox="0 0 80 84" fill="none" xmlns="http://www.w3.org/2000/svg">
<g clip-path="url(#clip0_4488_23492)">
<path d="M39.5549 12.0753C33.8224 7.58128 29.6241 10.9582 26.6199 13.8639C23.6157 16.7706 22.0362 21.1849 22.4835 25.4203C19.7129 29.1233 19.1473 34.3153 21.6982 38.1849C20.9869 40.046 20.7583 41.9603 21.3061 43.8798C18.6852 47.2638 18.026 51.7496 20.3651 55.3483C18.9837 58.5443 20.0508 63.2703 23.0058 64.9639C22.791 69.88 25.808 75.1426 30.0349 77.3758C32.4745 78.6646 35.5024 79.2656 37.003 81.6419C36.9419 80.6586 37.1587 79.237 37.0976 78.2548C39.0889 80.3694 42.5247 80.4389 44.6027 78.4162C44.4933 80.12 43.8322 81.6511 43.7238 83.3559C44.7938 80.6157 47.4354 79.4025 49.7903 77.7376C52.1452 76.0727 54.6577 74.4884 56.3081 72.0784C57.8284 69.8595 58.4827 66.9058 57.6166 64.3353C59.7054 61.1925 60.8907 57.2013 59.1793 53.8224C61.6228 52.4048 63.2614 49.6166 63.152 46.715C63.0436 43.8123 61.2612 41.0446 58.7192 39.8283C58.9004 38.516 59.8109 37.5481 59.9922 36.2358C60.0956 35.4856 60.1932 34.6863 59.8867 33.9985C59.5803 33.3106 58.7024 32.8436 58.0935 33.2636C59.602 28.6347 59.3921 23.1105 57.123 18.8291C54.8538 14.5476 50.9224 10.4063 46.3457 9.24928C44.0361 8.66466 41.4645 10.6056 39.5549 12.0753Z" fill="url(#paint0_linear_4488_23492)"/>
<path d="M23.4183 37.8431C28.4542 34.876 32.8654 30.8143 36.3209 25.9943C37.2973 24.6329 38.193 23.2112 39.0069 21.7395C39.1724 21.441 38.727 21.1712 38.5625 21.4696C35.71 26.629 31.8121 31.1588 27.1881 34.6777C25.8973 35.6599 24.5504 36.5624 23.1592 37.3821C22.8705 37.5518 23.1296 38.0137 23.4183 37.8431Z" fill="#C57207"/>
<path d="M38.0707 23.6177C39.797 25.9469 42.0179 27.85 44.5462 29.1756C45.8221 29.8441 47.17 30.3694 48.5573 30.7261C49.985 31.093 51.4197 31.2238 52.8838 31.3076C54.4731 31.3986 56.5551 31.7165 57.2123 33.4928C57.3295 33.8107 57.8281 33.6727 57.7089 33.3508C57.2064 31.9914 55.9176 31.2402 54.5963 30.9683C53.7795 30.8007 52.9439 30.7792 52.1143 30.7333C51.3625 30.6913 50.6156 30.6096 49.8737 30.4726C47.038 29.9463 44.3392 28.7178 42.0297 26.9343C40.7094 25.9142 39.5191 24.7021 38.5161 23.3489C38.3161 23.079 37.8687 23.3448 38.0707 23.6177Z" fill="#C57207"/>
<path d="M58.3183 39.5576C58.2385 40.8587 57.2877 41.8623 56.3448 42.6146C55.3545 43.4046 54.2727 44.0833 53.5159 45.138C52.0518 47.1801 52.0518 49.9121 52.6203 52.2833C52.9553 53.6804 53.5396 54.9876 54.1209 56.2897C54.2598 56.6015 54.7042 56.3306 54.5653 56.0199C53.5366 53.7141 52.5809 51.3021 52.8075 48.704C52.9139 47.4877 53.2992 46.2582 54.0431 45.2975C54.8382 44.2713 55.9674 43.6244 56.9389 42.8047C57.9104 41.985 58.7519 40.9006 58.8336 39.5576C58.8543 39.2142 58.34 39.2162 58.3183 39.5576Z" fill="#C57207"/>
<path d="M20.6373 44.4477C22.5951 46.3774 24.5983 48.3448 25.9452 50.8039C26.5955 51.9916 27.0842 53.2794 27.301 54.6305C27.5099 55.9326 27.4074 57.248 27.099 58.5225C26.5019 60.9949 25.2801 63.2455 24.6367 65.7015C24.0416 67.9735 24.1194 70.2793 25.0653 72.4369C26.0703 74.7304 27.9276 76.5936 30.2076 77.4766C30.518 77.5973 30.653 77.0811 30.3446 76.9615C28.2892 76.1653 26.6221 74.4973 25.6506 72.4716C25.1688 71.4679 24.8584 70.3631 24.7717 69.245C24.6771 68.0226 24.8643 66.8094 25.1895 65.6371C25.8555 63.2261 27.0507 61.0041 27.6212 58.5614C27.9059 57.341 28.0084 56.0911 27.8498 54.8441C27.6823 53.5339 27.2606 52.2736 26.6832 51.0983C25.3304 48.3428 23.1361 46.175 21.0019 44.0706C20.7615 43.8335 20.3969 44.2096 20.6373 44.4477Z" fill="#C57207"/>
<path d="M28.1622 34.4114C28.2982 40.0941 28.4854 46.0844 31.3595 51.1119C32.603 53.2868 34.3342 55.1991 36.5136 56.3724C38.6094 57.5008 41.0717 57.9822 43.399 57.4671C45.3696 57.0317 47.0209 55.8491 48.2723 54.2353C49.9128 52.1207 50.8784 49.5093 51.5218 46.903C52.6145 42.4724 52.8599 37.8282 52.8195 33.2728C52.8126 32.5226 52.7968 31.7714 52.7732 31.0212C52.7623 30.6788 52.248 30.6768 52.2578 31.0212C52.4066 35.7779 52.2913 40.6143 51.3533 45.2882C50.8025 48.0293 49.9611 50.8002 48.425 53.1315C47.5244 54.498 46.347 55.7009 44.8858 56.401C42.8876 57.3597 40.5514 57.325 38.4803 56.6443C36.1639 55.8829 34.1982 54.3058 32.7448 52.3036C29.4825 47.8096 28.91 42.0298 28.7347 36.5874C28.711 35.8617 28.6943 35.1371 28.6765 34.4114C28.6686 34.068 28.1543 34.067 28.1622 34.4114Z" fill="#C57207"/>
<path d="M32.1578 34.1256C33.6131 33.6064 35.1827 33.5809 36.6518 34.0551C36.9691 34.1573 37.105 33.6422 36.7888 33.54C35.2389 33.0402 33.556 33.0627 32.0209 33.6105C31.7095 33.7219 31.8425 34.237 32.1578 34.1256Z" fill="#C57207"/>
<path d="M43.9899 34.1486C45.3447 33.1398 47.1931 32.965 48.6878 33.7469C48.9834 33.9012 49.2445 33.4403 48.948 33.286C47.2976 32.4233 45.2363 32.5654 43.7298 33.6876C43.4628 33.8859 43.7199 34.3489 43.9899 34.1486Z" fill="#C57207"/>
<path d="M46.9656 35.8888C46.9233 35.8888 46.8809 35.8888 46.8375 35.8888C46.8021 35.8877 46.7696 35.8949 46.738 35.9123C46.7065 35.9225 46.6789 35.9409 46.6553 35.9675C46.6306 35.992 46.6119 36.0206 46.6021 36.0533C46.5863 36.085 46.5784 36.1197 46.5804 36.1565C46.5833 36.18 46.5863 36.2036 46.5892 36.2281C46.6011 36.2731 46.6237 36.3129 46.6553 36.3456C46.673 36.3599 46.6897 36.3732 46.7075 36.3875C46.7479 36.4121 46.7912 36.4233 46.8375 36.4243C46.8799 36.4243 46.9223 36.4243 46.9656 36.4243C47.0011 36.4254 47.0346 36.4182 47.0651 36.4008C47.0967 36.3906 47.1243 36.3712 47.1479 36.3456C47.1725 36.3211 47.1913 36.2925 47.2011 36.2598C47.2169 36.2281 47.2248 36.1933 47.2238 36.1565C47.2208 36.133 47.2179 36.1095 47.2149 36.086C47.2031 36.041 47.1804 36.0012 47.1489 35.9685C47.1312 35.9542 47.1144 35.9409 47.0967 35.9266C47.0553 35.901 47.0129 35.8888 46.9656 35.8888Z" fill="#C57207"/>
<path d="M33.7685 36.4956C33.7261 36.5396 33.6838 36.5836 33.6404 36.6285C33.6158 36.6531 33.5971 36.6817 33.5872 36.7144C33.5715 36.7461 33.5636 36.7808 33.5645 36.8176C33.5636 36.8544 33.5705 36.8891 33.5872 36.9208C33.5971 36.9535 33.6158 36.9821 33.6404 37.0067C33.6582 37.021 33.6749 37.0343 33.6926 37.0486C33.733 37.0731 33.7764 37.0854 33.8227 37.0854C33.8454 37.0823 33.868 37.0793 33.8907 37.0762C33.934 37.0639 33.9725 37.0404 34.004 37.0077C34.0464 36.9638 34.0887 36.9198 34.1321 36.8748C34.1567 36.8503 34.1745 36.8217 34.1853 36.789C34.2011 36.7573 34.2089 36.7226 34.207 36.6858C34.208 36.649 34.2011 36.6142 34.1853 36.5825C34.1745 36.5498 34.1567 36.5212 34.1321 36.4967C34.1143 36.4824 34.0976 36.4691 34.0799 36.4548C34.0395 36.4302 33.9961 36.418 33.9498 36.418C33.9271 36.421 33.9045 36.4241 33.8808 36.4272C33.8385 36.4394 33.8 36.4629 33.7685 36.4956Z" fill="#C57207"/>
<path d="M39.1202 39.2048C39.0424 40.9372 38.932 42.6717 38.8877 44.4061C38.8719 45.0347 39.0483 45.6142 39.6385 45.885C40.2858 46.1835 40.9657 45.9392 41.5805 45.6765C41.883 45.5477 41.75 45.0306 41.4436 45.1614C40.9322 45.3801 40.2809 45.6786 39.7528 45.3474C39.2108 45.0081 39.4168 44.0841 39.4414 43.5414C39.5064 42.0962 39.5715 40.65 39.6365 39.2048C39.6513 38.8614 39.136 38.8614 39.1202 39.2048Z" fill="#C57207"/>
<path d="M37.6828 49.6886C39.6632 50.7465 42.1206 50.4899 43.8685 49.0662C44.1286 48.8536 43.7621 48.4785 43.5039 48.6891C41.9472 49.9564 39.6967 50.1649 37.9419 49.2277C37.6483 49.0703 37.3872 49.5312 37.6828 49.6886Z" fill="#C57207"/>
<path d="M36.2188 56.5402C36.2493 58.7468 36.2809 60.9524 36.3114 63.159C36.3163 63.5024 36.8307 63.5035 36.8267 63.159C36.7962 60.9524 36.7646 58.7468 36.7341 56.5402C36.7292 56.1968 36.2139 56.1957 36.2188 56.5402Z" fill="#C57207"/>
<path d="M45.4201 56.5402C45.494 58.7029 45.5679 60.8645 45.6418 63.0272C45.6536 63.3696 46.169 63.3716 46.1571 63.0272C46.0832 60.8645 46.0093 58.7029 45.9354 56.5402C45.9236 56.1968 45.4083 56.1957 45.4201 56.5402Z" fill="#C57207"/>
<path d="M33.2221 64.5911C32.36 66.9695 32.3038 69.634 33.0211 72.0603C33.7069 74.3814 35.1237 76.6024 37.1909 77.8207C41.7332 80.4995 46.508 76.0862 48.2057 71.8774C49.189 69.4398 49.4383 66.7007 48.8362 64.1281C48.7584 63.7939 48.2618 63.936 48.3397 64.2702C49.3427 68.5588 47.8362 73.3308 44.5787 76.1721C42.7727 77.7471 40.3409 78.6853 38.059 77.6755C35.9928 76.7608 34.506 74.7126 33.7335 72.5785C32.8221 70.0632 32.8053 67.2495 33.7177 64.7332C33.8359 64.4112 33.3384 64.2712 33.2221 64.5911Z" fill="#C57207"/>
<path d="M22.6707 30.9575C27.1834 28.199 31.0497 24.3428 33.8973 19.7844C34.7141 18.4761 35.4432 17.1117 36.0836 15.7012C36.2236 15.3916 35.7802 15.1207 35.6393 15.4314C33.4361 20.2883 30.1403 24.5799 26.0759 27.9026C24.9132 28.8531 23.6855 29.7168 22.4106 30.4966C22.1258 30.6703 22.3849 31.1323 22.6707 30.9575Z" fill="#C57207"/>
<path d="M42.3767 20.2572C45.1356 23.5697 48.9979 25.8356 53.1579 26.5756C53.4821 26.6328 53.621 26.1187 53.2949 26.0605C49.2118 25.3338 45.4489 23.1312 42.7413 19.879C42.5235 19.6194 42.1609 19.9986 42.3767 20.2572Z" fill="#C57207"/>
<path d="M45.101 13.9785C45.9297 17.7611 49.3566 20.4032 53.0899 20.1313C53.419 20.1078 53.421 19.5733 53.0899 19.5968C51.3361 19.7245 49.5576 19.1982 48.1663 18.0719C46.8647 17.0181 45.9622 15.5024 45.5976 13.8364C45.5247 13.5022 45.0281 13.6433 45.101 13.9785Z" fill="#C57207"/>
<path d="M19.9013 53.2182C21.4935 53.4461 21.9753 55.2726 22.1468 56.6707C22.3251 58.1272 22.4266 59.7155 23.4966 60.808C23.7331 61.0492 24.0977 60.6721 23.8612 60.4299C22.6739 59.2177 22.8256 57.3269 22.5271 55.7601C22.2689 54.4089 21.4896 52.9106 20.0392 52.7031C19.714 52.6571 19.5741 53.1712 19.9013 53.2182Z" fill="#C57207"/>
<path d="M50.3885 61.6001C50.3028 60.3859 50.763 59.2361 51.4842 58.2968C51.8143 57.8665 52.2025 57.4271 52.6459 57.1204C53.0597 56.8343 53.5307 56.6605 54.0056 56.5205C54.9722 56.2353 55.9821 56.1045 56.9261 55.7406C57.8562 55.3819 58.7232 54.7533 59.5194 54.1483C60.4761 53.4206 61.4378 52.5763 62.0161 51.4807C62.1758 51.1792 61.7314 50.9094 61.5718 51.2109C61.0377 52.2227 60.145 53.0138 59.2602 53.6873C58.4336 54.3149 57.5271 54.9823 56.5457 55.3144C55.5565 55.6487 54.514 55.7754 53.5258 56.1147C52.5 56.4663 51.7197 57.1225 51.0576 58.0025C50.2861 59.0286 49.7816 60.2806 49.8742 61.6001C49.8979 61.9405 50.4132 61.9435 50.3885 61.6001Z" fill="#C57207"/>
<path d="M49.0717 74.238C50.9102 73.682 51.9517 71.9251 52.8562 70.3082C53.7952 68.63 55.0682 66.5286 57.2044 66.6144C57.5354 66.6277 57.5354 66.0932 57.2044 66.0799C55.1924 65.9992 53.7657 67.7029 52.8119 69.3321C51.8305 71.0093 50.9102 73.125 48.9347 73.7219C48.6174 73.819 48.7524 74.3351 49.0717 74.238Z" fill="#C57207"/>
<path d="M22.904 42.8952C25.5338 44.786 27.5221 47.5721 28.602 50.6884C29.1351 52.2256 29.4573 53.8414 29.5282 55.4737C29.5627 56.2678 29.54 57.065 29.4572 57.8551C29.3528 58.8495 29.1222 59.8236 29.005 60.816C28.801 62.5545 29.1104 64.6906 30.7835 65.5634C31.0791 65.7178 31.3402 65.2568 31.0436 65.1025C29.4031 64.246 29.3272 62.0925 29.5706 60.4511C29.7085 59.519 29.9056 58.5981 29.9923 57.6578C30.0681 56.834 30.08 56.0031 30.0278 55.1773C29.8277 51.9537 28.7153 48.7955 26.8728 46.1923C25.8422 44.7359 24.5958 43.4644 23.1631 42.4342C22.8912 42.238 22.633 42.701 22.904 42.8952Z" fill="#C57207"/>
<path d="M26.483 15.8253C27.0407 13.7863 28.3915 12.0324 30.1621 10.9807C32.0086 9.88403 34.2216 9.68576 36.2464 10.3389C37.4189 10.717 38.4939 11.3742 39.3727 12.2644C39.6102 12.5046 39.9748 12.1275 39.7363 11.8863C38.0918 10.2213 35.7823 9.32191 33.4865 9.43536C31.2725 9.54472 29.1857 10.6373 27.7323 12.3646C26.9234 13.3263 26.3214 14.4547 25.9854 15.6832C25.8957 16.0144 26.3923 16.1554 26.483 15.8253Z" fill="#C57207"/>
<path d="M39.6969 11.9742C41.3059 10.1723 43.6913 9.38323 46.0216 9.48952C48.4828 9.60093 50.7786 10.7743 52.629 12.4157C53.7099 13.3744 54.6568 14.4864 55.4795 15.6873C55.6697 15.9653 56.117 15.6985 55.9239 15.4175C54.3976 13.1904 52.4408 11.1994 50.0377 10.021C47.7793 8.91309 45.1811 8.60341 42.7769 9.38324C41.4675 9.8074 40.2674 10.5514 39.3323 11.598C39.1077 11.8484 39.4712 12.2266 39.6969 11.9742Z" fill="#C57207"/>
<path d="M22.6246 24.831C20.718 25.247 20.0598 27.3606 19.8598 29.1226C19.6332 31.1177 19.8372 33.17 20.4274 35.0823C20.7604 36.1606 21.2185 37.1949 21.7861 38.1607C21.9585 38.4541 22.4039 38.1853 22.2305 37.8909C21.0432 35.8703 20.3672 33.5482 20.2914 31.1821C20.2273 29.1973 20.4076 25.8592 22.7606 25.3451C23.0857 25.2746 22.9487 24.7595 22.6246 24.831Z" fill="#C57207"/>
<path d="M43.3788 83.8682C46.6313 77.7123 55.3927 76.8865 57.4776 69.8036C57.9722 68.1223 57.9456 66.2908 57.1455 64.7158C56.9908 64.4112 56.5465 64.681 56.7011 64.9856C58.2234 67.9853 56.6568 71.5206 54.5157 73.6915C52.1599 76.0811 49.0857 77.4782 46.4884 79.5377C45.0765 80.6579 43.7956 81.9682 42.9345 83.5973C42.7748 83.8999 43.2192 84.1697 43.3788 83.8682Z" fill="#C57207"/>
<path d="M20.1251 54.8899C18.8935 56.6223 18.5762 59.0078 19.3635 61.007C20.0877 62.8467 21.6563 64.2622 23.5077 64.7641C23.8289 64.8509 23.9658 64.3358 23.6446 64.249C21.942 63.787 20.4759 62.4808 19.8256 60.775C19.1171 58.9158 19.4344 56.7583 20.5705 55.1598C20.7665 54.8818 20.3192 54.615 20.1251 54.8899Z" fill="#C57207"/>
<path d="M22.7476 64.4289C22.5614 67.3612 23.3467 70.3364 24.9173 72.7802C25.7252 74.0373 26.7312 75.1207 27.886 76.0365C29.1718 77.0555 30.5907 77.8711 31.9947 78.6969C33.7141 79.7077 35.4344 80.7185 37.1538 81.7293C37.4425 81.899 37.7026 81.4381 37.4139 81.2684C35.932 80.3976 34.4501 79.5268 32.9682 78.656C31.5917 77.8465 30.1906 77.0647 28.8861 76.1325C26.5214 74.4431 24.7301 72.1046 23.8423 69.2551C23.3576 67.6975 23.1585 66.0632 23.262 64.4299C23.2846 64.0855 22.7693 64.0865 22.7476 64.4289Z" fill="#C57207"/>
<path d="M58.7096 39.9485C60.3827 40.6323 61.7582 41.9916 62.5484 43.6617C63.3938 45.4472 63.4017 47.4423 62.6913 49.2779C62.2804 50.3398 61.6488 51.3046 60.8714 52.112C60.6369 52.3553 61.0015 52.7335 61.236 52.4902C62.6883 50.9816 63.6707 48.915 63.7347 46.7646C63.7948 44.7358 62.9218 42.7469 61.571 41.3058C60.8014 40.4851 59.8733 39.8514 58.8476 39.4324C58.5382 39.3077 58.4042 39.8238 58.7096 39.9485Z" fill="#C57207"/>
<path d="M40.9152 61.4302C40.6394 65.7188 40.3625 70.0063 40.0866 74.2949C40.0649 74.6383 40.5793 74.6363 40.6019 74.2949C40.8778 70.0063 41.1547 65.7188 41.4306 61.4302C41.4522 61.0878 40.9369 61.0889 40.9152 61.4302Z" fill="#C57207"/>
<path d="M15.7123 26.6111C15.1655 26.6111 14.9349 25.539 14.8926 25.1261C14.8837 25.0382 14.8118 24.9707 14.7261 24.9707C14.6403 24.9707 14.5684 25.0382 14.5595 25.1261C14.5172 25.539 14.2866 26.6111 13.7398 26.6111C13.6471 26.6111 13.5723 26.6888 13.5723 26.7849C13.5723 26.8809 13.6471 26.9586 13.7398 26.9586C14.2866 26.9586 14.5172 28.0307 14.5595 28.4437C14.5684 28.5316 14.6403 28.599 14.7261 28.599C14.8118 28.599 14.8837 28.5316 14.8926 28.4437C14.9349 28.0307 15.1655 26.9586 15.7123 26.9586C15.805 26.9586 15.8798 26.8809 15.8798 26.7849C15.8798 26.6898 15.805 26.6111 15.7123 26.6111Z" fill="url(#paint1_linear_4488_23492)"/>
<path d="M68.488 2.94906C68.1018 2.94906 67.9382 2.19068 67.9087 1.89939C67.9018 1.83705 67.8515 1.79004 67.7904 1.79004C67.7294 1.79004 67.6791 1.83705 67.6722 1.89939C67.6427 2.1917 67.4791 2.94906 67.0928 2.94906C67.0278 2.94906 66.9746 3.00425 66.9746 3.0717C66.9746 3.13916 67.0278 3.19436 67.0928 3.19436C67.4791 3.19436 67.6427 3.95273 67.6722 4.24504C67.6791 4.30738 67.7294 4.35439 67.7904 4.35439C67.8515 4.35439 67.9018 4.30738 67.9087 4.24504C67.9382 3.95273 68.1018 3.19436 68.488 3.19436C68.553 3.19436 68.6063 3.13916 68.6063 3.0717C68.6063 3.00425 68.553 2.94906 68.488 2.94906Z" fill="url(#paint2_linear_4488_23492)"/>
<path d="M61.7097 13.2916C60.5943 13.2916 60.1233 11.1034 60.0366 10.2612C60.0179 10.0813 59.8721 9.94434 59.6967 9.94434C59.5223 9.94434 59.3755 10.0813 59.3568 10.2612C59.2701 11.1034 58.7991 13.2916 57.6837 13.2916C57.4945 13.2916 57.3418 13.45 57.3418 13.6463C57.3418 13.8425 57.4945 14.0009 57.6837 14.0009C58.7991 14.0009 59.2691 16.1891 59.3568 17.0323C59.3755 17.2122 59.5213 17.3492 59.6967 17.3492C59.8711 17.3492 60.0179 17.2122 60.0366 17.0323C60.1233 16.1891 60.5943 14.0009 61.7097 14.0009C61.8988 14.0009 62.0516 13.8425 62.0516 13.6463C62.0516 13.45 61.8988 13.2916 61.7097 13.2916Z" fill="url(#paint3_linear_4488_23492)"/>
<path d="M16.2676 74.5536C17.1198 74.5536 17.8106 73.837 17.8106 72.9531C17.8106 72.0691 17.1198 71.3525 16.2676 71.3525C15.4154 71.3525 14.7246 72.0691 14.7246 72.9531C14.7246 73.837 15.4154 74.5536 16.2676 74.5536Z" fill="url(#paint4_linear_4488_23492)"/>
<path d="M64.051 67.4739C64.051 67.9859 63.651 68.4009 63.1574 68.4009C62.6637 68.4009 62.2637 67.9859 62.2637 67.4739C62.2637 66.9618 62.6637 66.5469 63.1574 66.5469C63.651 66.5469 64.051 66.9618 64.051 67.4739Z" fill="url(#paint5_linear_4488_23492)"/>
<path d="M72.6985 37.5798C72.4384 38.0469 72.5931 38.6448 73.0434 38.9136C73.4937 39.1824 74.0701 39.023 74.3302 38.5559C74.5903 38.0888 74.4357 37.4909 73.9854 37.2211C73.5351 36.9523 72.9587 37.1128 72.6985 37.5798Z" fill="url(#paint6_linear_4488_23492)"/>
<path d="M0.0266788 35.646C-0.088602 35.183 0.180387 34.7098 0.627716 34.5902C1.07504 34.4706 1.53025 34.7496 1.64553 35.2136C1.76081 35.6776 1.49182 36.1498 1.04449 36.2694C0.59716 36.389 0.14196 36.11 0.0266788 35.646Z" fill="url(#paint7_linear_4488_23492)"/>
<path d="M16.9364 4.96384C16.0959 4.96384 15.7412 3.31526 15.6762 2.68056C15.6624 2.54463 15.5521 2.44141 15.42 2.44141C15.288 2.44141 15.1786 2.54463 15.1638 2.68056C15.0988 3.31526 14.7441 4.96384 13.9037 4.96384C13.7618 4.96384 13.6465 5.08342 13.6465 5.2306C13.6465 5.3788 13.7618 5.49736 13.9037 5.49736C14.7441 5.49736 15.0988 7.14595 15.1638 7.78065C15.1776 7.91659 15.288 8.01981 15.42 8.01981C15.5521 8.01981 15.6614 7.91659 15.6762 7.78065C15.7412 7.14493 16.0959 5.49736 16.9364 5.49736C17.0793 5.49736 17.1936 5.37778 17.1936 5.2306C17.1936 5.08342 17.0783 4.96384 16.9364 4.96384Z" fill="url(#paint8_linear_4488_23492)"/>
<path d="M77.8609 55.6853C78.4077 55.6853 78.6383 54.6132 78.6806 54.2003C78.6895 54.1124 78.7614 54.0449 78.8471 54.0449C78.9329 54.0449 79.0048 54.1124 79.0137 54.2003C79.056 54.6132 79.2866 55.6853 79.8334 55.6853C79.9261 55.6853 80.001 55.763 80.001 55.8591C80.001 55.9552 79.9261 56.0328 79.8334 56.0328C79.2866 56.0328 79.056 57.105 79.0137 57.5179C79.0048 57.6058 78.9329 57.6732 78.8471 57.6732C78.7614 57.6732 78.6895 57.6058 78.6806 57.5179C78.6383 57.105 78.4077 56.0328 77.8609 56.0328C77.7683 56.0328 77.6934 55.9552 77.6934 55.8591C77.6934 55.763 77.7683 55.6853 77.8609 55.6853Z" fill="url(#paint9_linear_4488_23492)"/>
<path d="M10.8945 46.9501C10.8945 46.5637 11.196 46.251 11.5685 46.251C11.9409 46.251 12.2424 46.5637 12.2424 46.9501C12.2424 47.3364 11.9409 47.6492 11.5685 47.6492C11.196 47.6481 10.8945 47.3354 10.8945 46.9501Z" fill="url(#paint10_linear_4488_23492)"/>
</g>
<defs>
<linearGradient id="paint0_linear_4488_23492" x1="41.5015" y1="8.03517" x2="40.8449" y2="62.1601" gradientUnits="userSpaceOnUse">
<stop stop-color="#EBCB76"/>
<stop offset="1" stop-color="#E19256"/>
</linearGradient>
<linearGradient id="paint1_linear_4488_23492" x1="13.8772" y1="-33.401" x2="15.3547" y2="63.9288" gradientUnits="userSpaceOnUse">
<stop stop-color="#EBCB76"/>
<stop offset="1" stop-color="#E19256"/>
</linearGradient>
<linearGradient id="paint2_linear_4488_23492" x1="67.8489" y1="-1.79617" x2="66.8639" y2="74.3244" gradientUnits="userSpaceOnUse">
<stop stop-color="#EBCB76"/>
<stop offset="1" stop-color="#E19256"/>
</linearGradient>
<linearGradient id="paint3_linear_4488_23492" x1="59.8843" y1="-1.89922" x2="58.8993" y2="74.2239" gradientUnits="userSpaceOnUse">
<stop stop-color="#EBCB76"/>
<stop offset="1" stop-color="#E19256"/>
</linearGradient>
<linearGradient id="paint4_linear_4488_23492" x1="17.1742" y1="-2.4517" x2="16.1892" y2="73.6709" gradientUnits="userSpaceOnUse">
<stop stop-color="#EBCB76"/>
<stop offset="1" stop-color="#E19256"/>
</linearGradient>
<linearGradient id="paint5_linear_4488_23492" x1="63.9907" y1="-1.84878" x2="63.0057" y2="74.277" gradientUnits="userSpaceOnUse">
<stop stop-color="#EBCB76"/>
<stop offset="1" stop-color="#E19256"/>
</linearGradient>
<linearGradient id="paint6_linear_4488_23492" x1="73.9929" y1="-1.71671" x2="73.0078" y2="74.4065" gradientUnits="userSpaceOnUse">
<stop stop-color="#EBCB76"/>
<stop offset="1" stop-color="#E19256"/>
</linearGradient>
<linearGradient id="paint7_linear_4488_23492" x1="1.29397" y1="-2.65712" x2="0.308949" y2="73.4653" gradientUnits="userSpaceOnUse">
<stop stop-color="#EBCB76"/>
<stop offset="1" stop-color="#E19256"/>
</linearGradient>
<linearGradient id="paint8_linear_4488_23492" x1="15.5128" y1="-2.47317" x2="14.5278" y2="73.6492" gradientUnits="userSpaceOnUse">
<stop stop-color="#EBCB76"/>
<stop offset="1" stop-color="#E19256"/>
</linearGradient>
<linearGradient id="paint9_linear_4488_23492" x1="79.5386" y1="-1.64517" x2="78.5536" y2="74.4781" gradientUnits="userSpaceOnUse">
<stop stop-color="#EBCB76"/>
<stop offset="1" stop-color="#E19256"/>
</linearGradient>
<linearGradient id="paint10_linear_4488_23492" x1="12.163" y1="-2.51539" x2="11.178" y2="73.6056" gradientUnits="userSpaceOnUse">
<stop stop-color="#EBCB76"/>
<stop offset="1" stop-color="#E19256"/>
</linearGradient>
<clipPath id="clip0_4488_23492">
<rect width="80" height="84" fill="white"/>
</clipPath>
</defs>
</svg>
