<svg width="48" height="48" viewBox="0 0 48 48" fill="none" xmlns="http://www.w3.org/2000/svg">
<path opacity="0.15" d="M6.41016 44.3502C6.41016 44.5669 6.86514 44.7814 7.74912 44.9816C8.6331 45.1818 9.92877 45.3637 11.5621 45.5169C13.1955 45.6701 15.1346 45.7917 17.2688 45.8746C19.4029 45.9575 21.6902 46.0002 24.0002 46.0002C26.3101 46.0002 28.5974 45.9575 30.7316 45.8746C32.8657 45.7917 34.8048 45.6701 36.4382 45.5169C38.0715 45.3637 39.3672 45.1818 40.2512 44.9816C41.1352 44.7814 41.5902 44.5669 41.5902 44.3502C41.5902 43.9126 39.7369 43.4929 36.4382 43.1835C33.1394 42.874 28.6653 42.7002 24.0002 42.7002C19.335 42.7002 14.8609 42.874 11.5621 43.1835C8.26338 43.4929 6.41016 43.9126 6.41016 44.3502Z" fill="#CB8020"/>
<path d="M8.60938 35.7998H39.3894V40.1998C39.3894 41.075 39.0417 41.9144 38.4228 42.5333C37.804 43.1521 36.9646 43.4998 36.0894 43.4998H11.9094C11.0342 43.4998 10.1948 43.1521 9.57592 42.5333C8.95705 41.9144 8.60938 41.075 8.60938 40.1998V35.7998Z" fill="#FAE4C8" stroke="#45413C" stroke-width="0.5" stroke-linecap="round" stroke-linejoin="round"/>
<path d="M8.60938 33.6001H39.3894V38.0001C39.3894 38.8753 39.0417 39.7147 38.4228 40.3336C37.804 40.9524 36.9646 41.3001 36.0894 41.3001H11.9094C11.0342 41.3001 10.1948 40.9524 9.57592 40.3336C8.95705 39.7147 8.60938 38.8753 8.60938 38.0001V33.6001Z" fill="#FAE4C8" stroke="#45413C" stroke-width="0.5" stroke-linecap="round" stroke-linejoin="round"/>
<path d="M8.60938 16H39.3894V35.8C39.3894 36.6752 39.0417 37.5146 38.4228 38.1335C37.804 38.7523 36.9646 39.1 36.0894 39.1H11.9094C11.0342 39.1 10.1948 38.7523 9.57592 38.1335C8.95705 37.5146 8.60938 36.6752 8.60938 35.8V16Z" fill="white" stroke="#45413C" stroke-width="0.5" stroke-linecap="round" stroke-linejoin="round"/>
<path d="M17.3677 20C17.3677 19.4477 17.8154 19 18.3677 19H20.1572C20.7095 19 21.1572 19.4477 21.1572 20V21.7895C21.1572 22.3418 20.7095 22.7895 20.1572 22.7895H18.3677C17.8154 22.7895 17.3677 22.3418 17.3677 21.7895V20ZM22.1045 20C22.1045 19.4477 22.5523 19 23.1045 19H24.894C25.4463 19 25.894 19.4477 25.894 20V21.7895C25.894 22.3418 25.4463 22.7895 24.894 22.7895H23.1045C22.5523 22.7895 22.1045 22.3418 22.1045 21.7895V20ZM26.8414 20C26.8414 19.4477 27.2891 19 27.8414 19H29.6309C30.1831 19 30.6309 19.4477 30.6309 20V21.7895C30.6309 22.3418 30.1831 22.7895 29.6309 22.7895H27.8414C27.2891 22.7895 26.8414 22.3418 26.8414 21.7895V20ZM31.5782 20C31.5782 19.4477 32.0259 19 32.5782 19H34.3677C34.92 19 35.3677 19.4477 35.3677 20V21.7895C35.3677 22.3418 34.92 22.7895 34.3677 22.7895H32.5782C32.0259 22.7895 31.5782 22.3418 31.5782 21.7895V20ZM12.6309 24.7368C12.6309 24.1846 13.0786 23.7368 13.6309 23.7368H15.4203C15.9726 23.7368 16.4203 24.1846 16.4203 24.7368V26.5263C16.4203 27.0786 15.9726 27.5263 15.4203 27.5263H13.6309C13.0786 27.5263 12.6309 27.0786 12.6309 26.5263V24.7368ZM17.3677 24.7368C17.3677 24.1846 17.8154 23.7368 18.3677 23.7368H20.1572C20.7095 23.7368 21.1572 24.1846 21.1572 24.7368V26.5263C21.1572 27.0786 20.7095 27.5263 20.1572 27.5263H18.3677C17.8154 27.5263 17.3677 27.0786 17.3677 26.5263V24.7368ZM22.1045 24.7368C22.1045 24.1846 22.5523 23.7368 23.1045 23.7368H24.894C25.4463 23.7368 25.894 24.1846 25.894 24.7368V26.5263C25.894 27.0786 25.4463 27.5263 24.894 27.5263H23.1045C22.5523 27.5263 22.1045 27.0786 22.1045 26.5263V24.7368ZM26.8414 24.7368C26.8414 24.1846 27.2891 23.7368 27.8414 23.7368H29.6309C30.1831 23.7368 30.6309 24.1846 30.6309 24.7368V26.5263C30.6309 27.0786 30.1831 27.5263 29.6309 27.5263H27.8414C27.2891 27.5263 26.8414 27.0786 26.8414 26.5263V24.7368ZM31.5782 24.7368C31.5782 24.1846 32.0259 23.7368 32.5782 23.7368H34.3677C34.92 23.7368 35.3677 24.1846 35.3677 24.7368V26.5263C35.3677 27.0786 34.92 27.5263 34.3677 27.5263H32.5782C32.0259 27.5263 31.5782 27.0786 31.5782 26.5263V24.7368ZM12.6309 29.4737C12.6309 28.9214 13.0786 28.4737 13.6309 28.4737H15.4203C15.9726 28.4737 16.4203 28.9214 16.4203 29.4737V31.2632C16.4203 31.8154 15.9726 32.2632 15.4203 32.2632H13.6309C13.0786 32.2632 12.6309 31.8154 12.6309 31.2632V29.4737ZM17.3677 29.4737C17.3677 28.9214 17.8154 28.4737 18.3677 28.4737H20.1572C20.7095 28.4737 21.1572 28.9214 21.1572 29.4737V31.2632C21.1572 31.8154 20.7095 32.2632 20.1572 32.2632H18.3677C17.8154 32.2632 17.3677 31.8154 17.3677 31.2632V29.4737ZM22.1045 29.4737C22.1045 28.9214 22.5523 28.4737 23.1045 28.4737H24.894C25.4463 28.4737 25.894 28.9214 25.894 29.4737V31.2632C25.894 31.8154 25.4463 32.2632 24.894 32.2632H23.1045C22.5523 32.2632 22.1045 31.8154 22.1045 31.2632V29.4737ZM26.8414 29.4737C26.8414 28.9214 27.2891 28.4737 27.8414 28.4737H29.6309C30.1831 28.4737 30.6309 28.9214 30.6309 29.4737V31.2632C30.6309 31.8154 30.1831 32.2632 29.6309 32.2632H27.8414C27.2891 32.2632 26.8414 31.8154 26.8414 31.2632V29.4737ZM31.5782 29.4737C31.5782 28.9214 32.0259 28.4737 32.5782 28.4737H34.3677C34.92 28.4737 35.3677 28.9214 35.3677 29.4737V31.2632C35.3677 31.8154 34.92 32.2632 34.3677 32.2632H32.5782C32.0259 32.2632 31.5782 31.8154 31.5782 31.2632V29.4737ZM12.6309 34.2105C12.6309 33.6582 13.0786 33.2105 13.6309 33.2105H15.4203C15.9726 33.2105 16.4203 33.6582 16.4203 34.2105V36C16.4203 36.5523 15.9726 37 15.4203 37H13.6309C13.0786 37 12.6309 36.5523 12.6309 36V34.2105ZM17.3677 34.2105C17.3677 33.6582 17.8154 33.2105 18.3677 33.2105H20.1572C20.7095 33.2105 21.1572 33.6582 21.1572 34.2105V36C21.1572 36.5523 20.7095 37 20.1572 37H18.3677C17.8154 37 17.3677 36.5523 17.3677 36V34.2105ZM22.1045 34.2105C22.1045 33.6582 22.5523 33.2105 23.1045 33.2105H24.894C25.4463 33.2105 25.894 33.6582 25.894 34.2105V36C25.894 36.5523 25.4463 37 24.894 37H23.1045C22.5523 37 22.1045 36.5523 22.1045 36V34.2105Z" fill="#FAE4C8"/>
<path d="M11.9095 6.66992H36.0895C36.9647 6.66992 37.8041 7.0176 38.423 7.63647C39.0418 8.25534 39.3895 9.09471 39.3895 9.96992V15.9699H8.60951V9.99992C8.60555 9.56404 8.68798 9.1317 8.85205 8.72785C9.01611 8.32401 9.25856 7.95667 9.56539 7.64705C9.87222 7.33743 10.2373 7.09167 10.6397 6.92396C11.042 6.75624 11.4736 6.6699 11.9095 6.66992Z" fill="#CB8020"/>
<path d="M36.0896 6.66994H11.9096C11.4733 6.66858 11.0412 6.75401 10.6382 6.92125C10.2353 7.08849 9.86959 7.3342 9.56249 7.64409C9.2554 7.95398 9.013 8.32185 8.84941 8.7263C8.68582 9.13075 8.60431 9.56369 8.60962 9.99994V12.7499C8.6083 12.3162 8.69275 11.8865 8.85813 11.4855C9.0235 11.0846 9.26653 10.7202 9.57322 10.4135C9.87992 10.1068 10.2442 9.86382 10.6452 9.69845C11.0462 9.53307 11.4759 9.44862 11.9096 9.44994H36.0896C36.5234 9.44862 36.9531 9.53307 37.354 9.69845C37.755 9.86382 38.1193 10.1068 38.426 10.4135C38.7327 10.7202 38.9757 11.0846 39.1411 11.4855C39.3065 11.8865 39.3909 12.3162 39.3896 12.7499V9.99994C39.3949 9.56369 39.3134 9.13075 39.1498 8.7263C38.9862 8.32185 38.7438 7.95398 38.4367 7.64409C38.1296 7.3342 37.764 7.08849 37.361 6.92125C36.9581 6.75401 36.5259 6.66858 36.0896 6.66994Z" fill="#FAE4C8"/>
<path d="M11.9095 6.66992H36.0895C36.9647 6.66992 37.8041 7.0176 38.423 7.63647C39.0418 8.25534 39.3895 9.09471 39.3895 9.96992V15.9699H8.60951V9.99992C8.60555 9.56404 8.68798 9.1317 8.85205 8.72785C9.01611 8.32401 9.25856 7.95667 9.56539 7.64705C9.87222 7.33743 10.2373 7.09167 10.6397 6.92396C11.042 6.75624 11.4736 6.6699 11.9095 6.66992Z" stroke="#45413C" stroke-width="0.5" stroke-linecap="round" stroke-linejoin="round"/>
<path d="M15.1996 9.4199C14.9087 9.41729 14.6304 9.30056 14.4247 9.09484C14.2189 8.88911 14.1022 8.61083 14.0996 8.3199V4.9999C14.0996 4.70816 14.2155 4.42838 14.4218 4.22208C14.6281 4.01579 14.9079 3.8999 15.1996 3.8999C15.4913 3.8999 15.7711 4.01579 15.9774 4.22208C16.1837 4.42838 16.2996 4.70816 16.2996 4.9999V8.2999C16.3023 8.44603 16.2758 8.59122 16.2217 8.727C16.1676 8.86277 16.087 8.98641 15.9846 9.09068C15.8822 9.19495 15.76 9.27777 15.6252 9.3343C15.4905 9.39083 15.3458 9.41993 15.1996 9.4199ZM23.9996 9.4199C23.7079 9.4199 23.4281 9.30401 23.2218 9.09772C23.0155 8.89143 22.8996 8.61164 22.8996 8.3199V4.9999C22.9049 4.71164 23.0231 4.43697 23.2288 4.23498C23.4345 4.033 23.7113 3.91985 23.9996 3.9199C24.2879 3.91985 24.5647 4.033 24.7704 4.23498C24.9762 4.43697 25.0944 4.71164 25.0996 4.9999V8.2999C25.1023 8.44603 25.0758 8.59122 25.0217 8.727C24.9676 8.86277 24.887 8.98641 24.7846 9.09068C24.6822 9.19495 24.56 9.27777 24.4252 9.3343C24.2905 9.39083 24.1458 9.41993 23.9996 9.4199ZM32.7996 9.4199C32.5079 9.4199 32.2281 9.30401 32.0218 9.09772C31.8155 8.89143 31.6996 8.61164 31.6996 8.3199V4.9999C31.6996 4.70816 31.8155 4.42838 32.0218 4.22208C32.2281 4.01579 32.5079 3.8999 32.7996 3.8999C33.0913 3.8999 33.3711 4.01579 33.5774 4.22208C33.7837 4.42838 33.8996 4.70816 33.8996 4.9999V8.2999C33.9009 8.44567 33.8735 8.59027 33.819 8.72545C33.7644 8.86063 33.6837 8.98373 33.5816 9.08773C33.4794 9.19174 33.3578 9.2746 33.2236 9.33159C33.0895 9.38859 32.9454 9.41859 32.7996 9.4199Z" fill="#FFF9F1"/>
<path d="M15.1996 3.91992C14.9113 3.91987 14.6345 4.03302 14.4288 4.235C14.2231 4.43699 14.1049 4.71166 14.0996 4.99992V6.66992C14.0996 6.37818 14.2155 6.09839 14.4218 5.8921C14.6281 5.68581 14.9079 5.56992 15.1996 5.56992C15.4913 5.56992 15.7711 5.68581 15.9774 5.8921C16.1837 6.09839 16.2996 6.37818 16.2996 6.66992V4.99992C16.2944 4.71166 16.1762 4.43699 15.9704 4.235C15.7647 4.03302 15.4879 3.91987 15.1996 3.91992ZM23.9996 3.91992C23.7113 3.91987 23.4345 4.03302 23.2288 4.235C23.0231 4.43699 22.9049 4.71166 22.8996 4.99992V6.66992C22.8996 6.37818 23.0155 6.09839 23.2218 5.8921C23.4281 5.68581 23.7079 5.56992 23.9996 5.56992C24.2913 5.56992 24.5711 5.68581 24.7774 5.8921C24.9837 6.09839 25.0996 6.37818 25.0996 6.66992V4.99992C25.0944 4.71166 24.9762 4.43699 24.7704 4.235C24.5647 4.03302 24.2879 3.91987 23.9996 3.91992ZM32.7996 3.91992C32.5113 3.91987 32.2345 4.03302 32.0288 4.235C31.8231 4.43699 31.7049 4.71166 31.6996 4.99992V6.66992C31.6996 6.37818 31.8155 6.09839 32.0218 5.8921C32.2281 5.68581 32.5079 5.56992 32.7996 5.56992C33.0913 5.56992 33.3711 5.68581 33.5774 5.8921C33.7837 6.09839 33.8996 6.37818 33.8996 6.66992V4.99992C33.8944 4.71166 33.7762 4.43699 33.5704 4.235C33.3647 4.03302 33.0879 3.91987 32.7996 3.91992Z" fill="white"/>
<path d="M15.1996 9.4199C14.9087 9.41729 14.6304 9.30056 14.4247 9.09484C14.2189 8.88911 14.1022 8.61083 14.0996 8.3199V4.9999C14.0996 4.70816 14.2155 4.42838 14.4218 4.22208C14.6281 4.01579 14.9079 3.8999 15.1996 3.8999C15.4913 3.8999 15.7711 4.01579 15.9774 4.22208C16.1837 4.42838 16.2996 4.70816 16.2996 4.9999V8.2999C16.3023 8.44603 16.2758 8.59122 16.2217 8.727C16.1676 8.86277 16.087 8.98641 15.9846 9.09068C15.8822 9.19495 15.76 9.27777 15.6252 9.3343C15.4905 9.39083 15.3458 9.41993 15.1996 9.4199ZM23.9996 9.4199C23.7079 9.4199 23.4281 9.30401 23.2218 9.09772C23.0155 8.89143 22.8996 8.61164 22.8996 8.3199V4.9999C22.9049 4.71164 23.0231 4.43697 23.2288 4.23498C23.4345 4.033 23.7113 3.91985 23.9996 3.9199C24.2879 3.91985 24.5647 4.033 24.7704 4.23498C24.9762 4.43697 25.0944 4.71164 25.0996 4.9999V8.2999C25.1023 8.44603 25.0758 8.59122 25.0217 8.727C24.9676 8.86277 24.887 8.98641 24.7846 9.09068C24.6822 9.19495 24.56 9.27777 24.4252 9.3343C24.2905 9.39083 24.1458 9.41993 23.9996 9.4199ZM32.7996 9.4199C32.5079 9.4199 32.2281 9.30401 32.0218 9.09772C31.8155 8.89143 31.6996 8.61164 31.6996 8.3199V4.9999C31.6996 4.70816 31.8155 4.42838 32.0218 4.22208C32.2281 4.01579 32.5079 3.8999 32.7996 3.8999C33.0913 3.8999 33.3711 4.01579 33.5774 4.22208C33.7837 4.42838 33.8996 4.70816 33.8996 4.9999V8.2999C33.9009 8.44567 33.8735 8.59027 33.819 8.72545C33.7644 8.86063 33.6837 8.98373 33.5816 9.08773C33.4794 9.19174 33.3578 9.2746 33.2236 9.33159C33.0895 9.38859 32.9454 9.4186 32.7996 9.4199Z" stroke="#45413C" stroke-width="0.5" stroke-linecap="round" stroke-linejoin="round"/>
</svg>
