<svg width="15" height="15" viewBox="0 0 15 15" fill="none" xmlns="http://www.w3.org/2000/svg">
<path fill-rule="evenodd" clip-rule="evenodd" d="M5.35757 0.922931C5.65139 0.918348 5.91116 1.11298 5.98929 1.39626L9.49491 14.1056C9.58961 14.449 9.38805 14.8041 9.04472 14.8988C8.70138 14.9935 8.34629 14.7919 8.25159 14.4486L7.09175 10.2437H3.92695L2.91182 14.4291C2.82787 14.7752 2.47923 14.9878 2.13311 14.9038C1.78699 14.8199 1.57446 14.4712 1.6584 14.1251L2.59981 10.2437H1.5062C1.15005 10.2437 0.861328 9.95494 0.861328 9.59878C0.861328 9.24263 1.15005 8.95391 1.5062 8.95391H2.91262L4.74092 1.41573C4.81019 1.13015 5.06375 0.927514 5.35757 0.922931ZM4.23977 8.95391H6.736L5.40773 4.13835L4.23977 8.95391Z" fill="#CB8020"/>
<path fill-rule="evenodd" clip-rule="evenodd" d="M9.44496 3.77315C8.79372 4.80504 8.36983 6.27031 8.36983 7.92242C8.36983 9.57452 8.79372 11.0398 9.44496 12.0717C10.1014 13.1119 10.9275 13.6322 11.7355 13.6322C12.4314 13.6322 13.1353 13.2499 13.741 12.4772C13.9608 12.1969 14.3661 12.1478 14.6464 12.3675C14.9267 12.5873 14.9758 12.9926 14.7561 13.2729C13.9866 14.2544 12.9424 14.922 11.7355 14.922C10.3285 14.922 9.1493 14.0198 8.35425 12.76C7.55397 11.492 7.08008 9.77991 7.08008 7.92242C7.08008 6.06492 7.55397 4.35285 8.35425 3.0848C9.1493 1.82504 10.3285 0.922852 11.7355 0.922852C12.8099 0.922852 13.7587 1.45361 14.4951 2.26273C14.7348 2.52613 14.7156 2.93399 14.4522 3.17371C14.1888 3.41343 13.7809 3.39423 13.5412 3.13083C12.9818 2.51617 12.3573 2.2126 11.7355 2.2126C10.9275 2.2126 10.1014 2.73296 9.44496 3.77315Z" fill="#CB8020"/>
</svg>
