<svg width="14" height="14" viewBox="0 0 14 14" fill="none" xmlns="http://www.w3.org/2000/svg">
<g clip-path="url(#clip0_4240_15855)">
<path d="M7.51249 3.29143L7.15888 3.64498L7.51246 3.99856L9.9471 6.4332C9.97074 6.45869 9.98378 6.49227 9.98347 6.5271C9.98316 6.56285 9.96882 6.59704 9.94355 6.62232C9.91827 6.64759 9.88408 6.66193 9.84833 6.66224C9.8135 6.66254 9.77992 6.6495 9.75443 6.62586L7.95613 4.82756L7.10257 3.974V5.18111V9.22138V9.66352L7.5414 9.71762C9.09916 9.90966 9.99109 10.7961 9.99109 11.65C9.99109 12.1394 9.71989 12.6183 9.18294 12.9945C8.64498 13.3713 7.86767 13.6194 6.96625 13.6194C6.06482 13.6194 5.28752 13.3713 4.74955 12.9945C4.2126 12.6183 3.94141 12.1394 3.94141 11.65C3.94141 10.7946 4.83308 9.90969 6.39109 9.71762L6.82992 9.66352V9.22138V0.7565C6.82992 0.720345 6.84428 0.685668 6.86985 0.660101C6.89541 0.634534 6.93009 0.620171 6.96625 0.620171C7.0024 0.620171 7.03708 0.634534 7.06264 0.660101L7.4162 0.306548L7.06264 0.660101C7.08821 0.685668 7.10257 0.720344 7.10257 0.7565V2.10891V3.31602L7.95613 2.46247L9.75855 0.66004C9.78414 0.634469 9.81883 0.620109 9.855 0.620117C9.89117 0.620126 9.92586 0.634503 9.95143 0.660085L10.3051 0.306616L9.95143 0.660086C9.977 0.685669 9.99136 0.720361 9.99135 0.756532C9.99134 0.792704 9.97697 0.82739 9.95138 0.852961L9.95133 0.853013L7.51249 3.29143ZM6.96625 13.3468C7.68831 13.3468 8.33811 13.1706 8.82295 12.8949C9.27169 12.6397 9.71843 12.2102 9.71843 11.65C9.71843 11.09 9.27162 10.6605 8.823 10.4053C8.33818 10.1296 7.68837 9.95331 6.96625 9.95331C6.24418 9.95331 5.59438 10.1294 5.10954 10.4051C4.6608 10.6603 4.21406 11.0898 4.21406 11.65C4.21406 12.2102 4.6608 12.6397 5.10954 12.8949C5.59438 13.1706 6.24418 13.3468 6.96625 13.3468Z" fill="white" stroke="#CB8020"/>
</g>
<defs>
<clipPath id="clip0_4240_15855">
<rect width="14" height="14" fill="white"/>
</clipPath>
</defs>
</svg>
