<svg width="14" height="14" viewBox="0 0 14 14" fill="none" xmlns="http://www.w3.org/2000/svg">
<g clip-path="url(#clip0_4240_15840)">
<path d="M11.4592 9.97593L11.9592 9.97593V9.47593V0.568412C11.9592 0.489531 12.02 0.430664 12.0952 0.430664C12.1729 0.430664 12.2317 0.488451 12.2317 0.568412V13.2922C12.2317 13.3708 12.1713 13.43 12.0952 13.43C12.0181 13.43 11.9592 13.3728 11.9592 13.2922V10.7484V10.2484H11.4592H1.91392C1.83714 10.2484 1.77736 10.1886 1.77736 10.1119C1.77736 10.0394 1.8401 9.97591 1.91392 9.97591H5.09548C6.77716 9.97591 8.14109 8.612 8.14109 6.9303C8.14109 5.2486 6.77718 3.88468 5.09548 3.88468C3.41378 3.88468 2.04986 5.2486 2.04986 6.9303C2.04986 7.00615 1.98854 7.06685 1.9139 7.06685C1.83865 7.06685 1.77734 7.00554 1.77734 6.9303C1.77734 5.09746 3.26263 3.61218 5.09546 3.61218C6.9283 3.61218 8.41358 5.09746 8.41358 6.9303C8.41358 7.78033 8.09466 8.55462 7.56857 9.14247L6.8227 9.97591L7.94115 9.97591L11.4592 9.97593Z" fill="white" stroke="#CB8020"/>
</g>
<defs>
<clipPath id="clip0_4240_15840">
<rect width="14" height="14" fill="white"/>
</clipPath>
</defs>
</svg>
