<svg width="14" height="14" viewBox="0 0 14 14" fill="none" xmlns="http://www.w3.org/2000/svg">
<g clip-path="url(#clip0_4240_15837)">
<path d="M13.3429 0.530041L13.3428 0.53005L13.3447 0.534319C13.3546 0.557716 13.3601 0.582797 13.3606 0.608215V4.10409C13.3606 4.15712 13.3396 4.20798 13.3021 4.24548C13.2646 4.28298 13.2137 4.30405 13.1607 4.30405C13.1076 4.30405 13.0568 4.28298 13.0193 4.24548C12.9818 4.20798 12.9607 4.15712 12.9607 4.10409V2.29118V1.08407L12.1071 1.93762L9.52427 4.52049L9.21076 4.834L9.48452 5.18277C10.1831 6.07277 10.5622 7.17182 10.5608 8.30325V8.30387C10.5608 9.3125 10.2617 10.2985 9.70131 11.1371C9.14094 11.9758 8.34448 12.6294 7.41263 13.0154C6.48077 13.4014 5.45539 13.5024 4.46614 13.3056C3.47689 13.1088 2.56821 12.6231 1.855 11.9099L1.50145 12.2635L1.855 11.9099C1.1418 11.1967 0.656094 10.288 0.45932 9.29878C0.262547 8.30953 0.363538 7.28415 0.749524 6.3523C1.13551 5.42044 1.78915 4.62398 2.6278 4.06361C3.46644 3.50325 4.45242 3.20416 5.46105 3.20416L5.46167 3.20416C6.5931 3.20275 7.69215 3.58181 8.58215 4.2804L8.93092 4.55416L9.24443 4.24065L11.8273 1.65778L12.6809 0.804226H11.4737H9.66084C9.6078 0.804226 9.55694 0.783159 9.51944 0.745659C9.48194 0.708157 9.46087 0.657295 9.46087 0.604262C9.46087 0.551229 9.48194 0.500366 9.51944 0.462865C9.55694 0.425364 9.6078 0.404297 9.66084 0.404297H13.1567C13.1821 0.404872 13.2072 0.410286 13.2306 0.420257L13.2306 0.420277L13.2349 0.422058C13.2837 0.44235 13.3226 0.481179 13.3429 0.530041ZM2.84999 12.2116C3.62286 12.728 4.53152 13.0037 5.46105 13.0037C6.70751 13.0037 7.90292 12.5085 8.7843 11.6271C9.66568 10.7457 10.1608 9.55034 10.1608 8.30387C10.1608 7.37434 9.8852 6.46569 9.36878 5.69281C8.85236 4.91993 8.11835 4.31755 7.25958 3.96184C6.40081 3.60612 5.45584 3.51305 4.54417 3.69439C3.6325 3.87573 2.79507 4.32334 2.1378 4.98062C1.48052 5.6379 1.03291 6.47532 0.851565 7.38699C0.670223 8.29866 0.763294 9.24363 1.11901 10.1024C1.47473 10.9612 2.07711 11.6952 2.84999 12.2116Z" fill="white" stroke="#CB8020"/>
</g>
<defs>
<clipPath id="clip0_4240_15837">
<rect width="14" height="14" fill="white"/>
</clipPath>
</defs>
</svg>
