<svg width="12" height="12" viewBox="0 0 50 41" fill="none" xmlns="http://www.w3.org/2000/svg">
<path d="M39.2449 0.263672C35.4248 0.263672 31.9557 2.66849 29.5773 6.43631C28.0985 8.77765 27.0567 11.5597 26.4779 14.5508L23.3187 2.82115C23.0947 1.99215 22.3478 1.41331 21.4889 1.40585C20.6188 1.39838 19.8534 1.98092 19.6256 2.82115L16.2722 15.2783L12.9189 2.82115C12.6949 1.99215 11.9481 1.41331 11.0891 1.40585C10.219 1.39838 9.45357 1.98092 9.22576 2.82115L-0.16578 37.7099C-0.303945 38.2028 -0.244199 38.7293 0.00972431 39.1737C0.263646 39.6218 0.681879 39.9466 1.17485 40.0773C1.6715 40.2118 2.19801 40.1408 2.63862 39.8832C3.07926 39.6255 3.4004 39.1998 3.52736 38.7031L11.0742 10.6705L14.2931 22.6315L10.234 37.7099C10.0921 38.2028 10.1556 38.7293 10.4095 39.1736C10.6634 39.618 11.0817 39.9466 11.5746 40.0773C12.0713 40.2118 12.5978 40.1408 13.0384 39.8832C13.479 39.6255 13.8002 39.1998 13.9271 38.7031L16.2759 29.9837L18.6247 38.7031H18.621C18.748 39.1998 19.0654 39.6255 19.506 39.8832C19.9504 40.1408 20.4769 40.2118 20.9698 40.0773C21.4664 39.9466 21.8846 39.6218 22.1386 39.1736C22.3888 38.7293 22.4523 38.2028 22.3141 37.7099L18.255 22.6315L21.4739 10.6705L29.0208 38.7031C29.144 39.1998 29.4651 39.6255 29.9058 39.8832C30.3501 40.1408 30.8766 40.2118 31.3695 40.0773C31.8625 39.9466 32.2844 39.6218 32.5384 39.1737C32.7886 38.7293 32.8521 38.2028 32.7139 37.7099L32.6803 37.5867C34.6108 39.2073 36.8589 40.1446 39.2451 40.1446C43.0652 40.1446 46.5342 37.7398 48.9127 33.972C49.1927 33.5463 49.2861 33.0235 49.1778 32.5231C49.0695 32.0227 48.7633 31.5858 48.3301 31.3133C47.897 31.0407 47.3742 30.951 46.8738 31.0668C46.3772 31.1826 45.9477 31.4962 45.6789 31.9331C43.7893 34.928 41.4629 36.3208 39.2448 36.3208C37.0267 36.3208 34.7002 34.9243 32.8107 31.9331C30.9211 28.9383 29.771 24.6663 29.771 20.2073C29.771 15.7449 30.9211 11.4767 32.8107 8.48152C34.7002 5.48669 37.0267 4.09385 39.2448 4.09385C41.4629 4.09385 43.7893 5.49042 45.6789 8.48152V8.47779C45.9477 8.91469 46.3772 9.22463 46.8738 9.34039C47.3742 9.45615 47.897 9.37026 48.3301 9.09766C48.7633 8.82133 49.0695 8.38816 49.1778 7.8878C49.2861 7.38741 49.1927 6.86463 48.9127 6.43521C46.534 2.66739 43.0647 0.263672 39.2449 0.263672Z" fill="#CB8020"/>
</svg>
