<svg width="14" height="14" viewBox="0 0 14 14" fill="none" xmlns="http://www.w3.org/2000/svg">
<g clip-path="url(#clip0_4240_15861)">
<path d="M8.72322 3.57456L8.72315 3.57467C8.34272 4.17701 8.06793 4.90417 7.91404 5.69941L6.94035 5.73445L6.04629 2.41488C6.04628 2.41485 6.04627 2.41483 6.04627 2.4148C6.04115 2.39602 6.02481 2.38399 6.00676 2.38381L8.72322 3.57456ZM8.72322 3.57456C9.33715 2.602 10.18 2.06055 11.0368 2.06055C11.4918 2.06055 11.9429 2.2132 12.3579 2.50204V2.60047C11.9507 2.30412 11.5025 2.14465 11.0367 2.14465C10.1813 2.14465 9.38466 2.68159 8.79274 3.61975L8.79272 3.61977C8.1986 4.56155 7.85525 5.86622 7.85525 7.20546C7.85525 8.54366 8.19857 9.84945 8.79274 10.7912L8.79289 10.7914C9.38454 11.728 10.181 12.2663 11.0367 12.2663C11.8922 12.2663 12.6888 11.7293 13.2807 10.7912L13.2807 10.7912L13.2837 10.7864C13.2914 10.7738 13.3019 10.7679 13.3096 10.7661L13.1961 10.2792M8.72322 3.57456L0.363319 12.2944M4.53451 7.73388L4.0517 5.94029L3.1027 2.41488C3.10269 2.41484 3.10268 2.4148 3.10267 2.41476C3.09754 2.396 3.08121 2.38399 3.06318 2.38381L4.53451 7.73388ZM4.53451 7.73388L5.01733 5.94029M4.53451 7.73388L5.01733 5.94029M5.01733 5.94029L5.96622 2.41526C5.96624 2.41521 5.96625 2.41515 5.96627 2.4151M5.01733 5.94029L5.96627 2.4151M0.363319 12.2944L0.363293 12.2944C0.35927 12.3087 0.362056 12.3194 0.365637 12.3257L0.366541 12.3272C0.373075 12.3388 0.381745 12.3442 0.389439 12.3462L0.391949 12.3469C0.403142 12.3499 0.414169 12.3482 0.423209 12.3429L0.423226 12.3429C0.432417 12.3376 0.439862 12.328 0.442742 12.3167L0.444317 12.3106L0.444356 12.3106L2.58043 4.37616L3.06333 2.58244L3.54606 4.3762L4.45715 7.76167L4.49213 7.89162L4.45714 8.02158L3.30824 12.2894L3.30599 12.2978L3.30592 12.2978C3.30313 12.3074 3.30433 12.3171 3.30922 12.3257C3.31685 12.339 3.327 12.3446 3.33302 12.3462L3.33553 12.3469C3.34672 12.3499 3.35775 12.3482 3.36679 12.3429L3.36681 12.3429C3.376 12.3376 3.38345 12.328 3.38632 12.3167L3.38792 12.3105L3.38796 12.3105L4.05277 9.84254L4.53556 8.05028L5.01835 9.84254L5.68316 12.3105L5.6876 12.327C5.69135 12.3343 5.69648 12.3394 5.70152 12.3425C5.71309 12.3489 5.72422 12.3494 5.73254 12.3471L5.73686 12.346L5.73686 12.346C5.74167 12.3447 5.7457 12.3427 5.74923 12.3399C5.75279 12.3372 5.75659 12.3331 5.75996 12.3272L6.19495 12.5737M0.363319 12.2944L0.364662 12.2894M0.363319 12.2944L0.364662 12.2894M6.19495 12.5737L5.75926 12.3284C5.76487 12.3185 5.76651 12.3063 5.76318 12.2944L5.76179 12.2894L5.76181 12.2894L4.61291 8.02158L4.57793 7.89162L4.6129 7.76167L5.52399 4.3762L6.00672 2.58244L6.48962 4.37615L8.6257 12.3106L8.62827 12.3201L8.62817 12.3201C8.63021 12.3283 8.63604 12.337 8.64506 12.3425C8.65664 12.3489 8.66779 12.3494 8.67612 12.3471L8.67954 12.3462L8.67955 12.3462C8.68862 12.3438 8.69742 12.3376 8.70318 12.3278C8.70852 12.318 8.71002 12.306 8.70676 12.2944L8.70581 12.291L8.70582 12.291L8.69631 12.2561L8.27567 10.7137L9.50017 11.7416C9.97258 12.1382 10.4984 12.3486 11.0368 12.3486C11.8936 12.3486 12.7364 11.8071 13.3503 10.8345L13.3554 10.8266L13.3554 10.8266C13.3591 10.821 13.3625 10.8107 13.3595 10.7971C13.3573 10.7869 13.3508 10.7777 13.342 10.7721C13.3315 10.7655 13.3198 10.7637 13.3088 10.7663L13.1961 10.2792M6.19495 12.5737C6.12306 12.7006 6.00469 12.7925 5.86411 12.8295L6.24462 12.1594C6.28373 12.2989 6.26576 12.448 6.19495 12.5737ZM13.1961 10.2792C13.3377 10.2464 13.4857 10.2718 13.6083 10.3489C13.7309 10.4261 13.8175 10.5497 13.8482 10.6914C13.8788 10.833 13.8524 10.981 13.7732 11.1014L11.0367 11.7663C11.6645 11.7663 12.323 11.372 12.8579 10.5244C12.934 10.4007 13.0555 10.3119 13.1961 10.2792ZM0.364662 12.2894L3.02264 2.41526C3.02265 2.4152 3.02267 2.41513 3.02269 2.41507M0.364662 12.2894L3.02269 2.41507M5.96627 2.4151C5.97155 2.3959 5.9888 2.38368 6.00672 2.38381L5.96627 2.4151ZM3.02269 2.41507C3.02798 2.39589 3.04522 2.38368 3.06313 2.38381L3.02269 2.41507ZM13.2837 3.62344L12.8648 2.94272C13.0381 3.12666 13.201 3.33771 13.3504 3.57428L13.3503 3.57431L13.3544 3.5805C13.3595 3.58842 13.3623 3.59964 13.3595 3.61274C13.3578 3.62073 13.3525 3.63052 13.3408 3.63849C13.3328 3.64313 13.3221 3.64547 13.3092 3.64261C13.2995 3.64026 13.2902 3.63406 13.2837 3.62344Z" fill="white" stroke="#CB8020"/>
</g>
<defs>
<clipPath id="clip0_4240_15861">
<rect width="14" height="14" fill="white"/>
</clipPath>
</defs>
</svg>
