<svg width="14" height="14" viewBox="0 0 14 14" fill="none" xmlns="http://www.w3.org/2000/svg">
<g clip-path="url(#clip0_4240_15831)">
<path d="M10.5804 1.58957L10.3051 1.89236L10.5475 2.22206C11.0979 2.97075 11.3965 3.87478 11.4002 4.80398C11.3987 5.85811 11.0179 6.8765 10.3273 7.67297C9.63651 8.46971 8.68193 8.99109 7.63822 9.14174L7.20965 9.2036V9.63661V10.3909V10.8909H7.70965H8.40808C8.46071 10.8909 8.51118 10.9118 8.54839 10.949L8.90195 10.5955L8.54839 10.949C8.58561 10.9863 8.60651 11.0367 8.60651 11.0894C8.60651 11.142 8.58561 11.1925 8.54839 11.2297C8.51118 11.2669 8.46071 11.2878 8.40808 11.2878H7.70965H7.20965V11.7878V13.1847C7.20965 13.2373 7.18874 13.2878 7.15153 13.325C7.11431 13.3622 7.06384 13.3831 7.01121 13.3831C6.95858 13.3831 6.90811 13.3622 6.8709 13.325L6.51735 13.6785L6.8709 13.325C6.83369 13.2878 6.81278 13.2373 6.81278 13.1847V11.7878V11.2878H6.31278H5.61435C5.56172 11.2878 5.51125 11.2669 5.47403 11.2297C5.43682 11.1925 5.41591 11.142 5.41591 11.0894C5.41591 11.0367 5.43682 10.9863 5.47403 10.949C5.51125 10.9118 5.56172 10.8909 5.61435 10.8909H6.31278H6.81278V10.3909V9.60868V9.17816L6.38704 9.11422C5.64386 9.0026 4.94178 8.70201 4.34807 8.24126C3.75436 7.78051 3.2889 7.17503 2.99629 6.48281C2.70367 5.7906 2.59369 5.03485 2.6769 4.28794C2.7601 3.54104 3.0337 2.82802 3.47147 2.21717L3.70582 1.89017L3.43656 1.59126L2.6776 0.748736C2.642 0.707614 2.62394 0.654141 2.62736 0.599811C2.63082 0.544854 2.65597 0.493521 2.69728 0.457106C2.73859 0.420691 2.79267 0.402177 2.84762 0.405636C2.90258 0.409095 2.95391 0.434244 2.99033 0.47555L2.99032 0.475556L2.99242 0.47791L3.69086 1.26016L4.00153 1.60811L4.37018 1.3223C5.12989 0.733301 6.06389 0.413647 7.02518 0.413647C7.98647 0.413647 8.92047 0.733301 9.68018 1.3223L10.0488 1.60811L10.3595 1.26016L11.0579 0.47791L11.0666 0.468164L11.0748 0.457977C11.0918 0.436884 11.1128 0.41948 11.1367 0.406832L10.9036 -0.033706L11.1367 0.40683C11.1606 0.394181 11.1869 0.386551 11.2138 0.384411C11.2408 0.382271 11.2679 0.385666 11.2935 0.394386C11.3191 0.403108 11.3427 0.416971 11.3627 0.435123C11.3828 0.453279 11.3989 0.475341 11.4101 0.499951C11.4213 0.524563 11.4274 0.551209 11.4279 0.578253C11.4285 0.605293 11.4235 0.63216 11.4133 0.657205C11.403 0.682247 11.3878 0.704935 11.3685 0.723875L11.3583 0.733888L11.3487 0.744467L10.5804 1.58957ZM3.69185 2.58552C3.25318 3.24203 3.01905 4.01388 3.01905 4.80345C3.01905 5.86224 3.43965 6.87767 4.18832 7.62634C4.937 8.37502 5.95242 8.79562 7.01121 8.79562C7.80079 8.79562 8.57263 8.56148 9.22914 8.12282C9.88565 7.68415 10.3973 7.06066 10.6995 6.33119C11.0017 5.60172 11.0807 4.79902 10.9267 4.02462C10.7726 3.25022 10.3924 2.53888 9.8341 1.98057C9.27579 1.42225 8.56445 1.04203 7.79005 0.887995C7.01564 0.733956 6.21295 0.813014 5.48348 1.11517C4.754 1.41733 4.13051 1.92902 3.69185 2.58552Z" fill="white" stroke="#CB8020"/>
</g>
<defs>
<clipPath id="clip0_4240_15831">
<rect width="14" height="14" fill="white"/>
</clipPath>
</defs>
</svg>
