<svg width="14" height="14" viewBox="0 0 14 14" fill="none" xmlns="http://www.w3.org/2000/svg">
<g clip-path="url(#clip0_4240_15828)">
<path d="M11.6772 3.81831C11.1031 2.93018 10.2839 2.22742 9.3188 1.79501C8.35349 1.36252 7.28354 1.21903 6.2384 1.3819L6.1704 2.35446C7.16958 2.65719 8.01849 3.32439 8.54877 4.22373C9.07905 5.12308 9.25196 6.18887 9.0332 7.20973C8.81445 8.23059 8.22001 9.13196 7.36779 9.73505C6.51556 10.3381 5.4678 10.5989 4.4323 10.4657L4.09526 11.3803C5.14605 12.0659 6.40052 12.3697 7.64855 12.2407C8.89659 12.1117 10.0624 11.5578 10.9507 10.6717C11.8391 9.78568 12.396 8.6213 12.5282 7.3736L12.031 7.32091L12.5282 7.3736C12.6604 6.12598 12.36 4.87082 11.6772 3.81831ZM11.6772 3.81831C11.6773 3.81848 11.6774 3.81866 11.6775 3.81884L11.2576 4.09023L11.6771 3.81809C11.6771 3.81816 11.6771 3.81824 11.6772 3.81831ZM3.30152 2.51299L3.30155 2.51302L3.30672 2.50841C3.51786 2.32 3.74251 2.1473 3.97888 1.99171C4.92769 1.37821 6.03704 1.05966 7.16682 1.07632C8.29723 1.09298 9.3973 1.44448 10.3279 2.08635C11.2586 2.72823 11.978 3.63166 12.3952 4.68239C12.8124 5.73312 12.9086 6.88398 12.6717 7.98941C12.4348 9.09484 11.8755 10.1052 11.0644 10.8927C10.2533 11.6803 9.22688 12.2096 8.11494 12.4138C7.00301 12.618 5.85549 12.4878 4.81752 12.0399C3.77954 11.5919 2.89771 10.8462 2.28355 9.897L2.28358 9.89698L2.28011 9.89177C2.1233 9.65594 1.98397 9.40893 1.86326 9.15274L1.84896 9.12239L1.83074 9.09423C1.81322 9.06715 1.80717 9.03422 1.81393 9.00269C1.82068 8.97115 1.83969 8.94359 1.86677 8.92607C1.89385 8.90855 1.92678 8.9025 1.95831 8.90926C1.98985 8.91602 2.01741 8.93502 2.03493 8.9621L2.05957 9.00019L2.09066 9.03321C2.58062 9.55364 3.20359 9.93015 3.89214 10.122C4.58069 10.3138 5.3086 10.3137 5.99708 10.1216C6.68556 9.92953 7.3084 9.5528 7.79817 9.03221C8.28795 8.51161 8.62602 7.86697 8.77578 7.16806C8.92555 6.46915 8.88131 5.74259 8.64785 5.06701C8.41439 4.39143 8.00061 3.79257 7.45129 3.33525C6.90197 2.87792 6.23803 2.57954 5.53132 2.4724C4.82462 2.36527 4.10208 2.45346 3.44189 2.72743L3.44188 2.7274L3.43718 2.72941C3.41053 2.74079 3.3807 2.74228 3.35305 2.73361C3.3254 2.72495 3.30176 2.7067 3.28638 2.68215L3.2865 2.68207L3.27978 2.6719C3.2635 2.64728 3.25674 2.61759 3.26074 2.58835C3.26474 2.55911 3.27923 2.53233 3.30152 2.51299Z" fill="white" stroke="#CB8020"/>
</g>
<defs>
<clipPath id="clip0_4240_15828">
<rect width="14" height="14" fill="white"/>
</clipPath>
</defs>
</svg>
