<svg width="14" height="14" viewBox="0 0 14 14" fill="none" xmlns="http://www.w3.org/2000/svg">
<g clip-path="url(#clip0_4240_15849)">
<path d="M13.1278 2.75868L12.7065 2.33673L11.8526 1.48156V2.69V3.67168C11.8526 6.03301 9.94683 8.02725 7.44329 8.29968L6.99738 8.3482V8.79675V10.0608V10.5608H7.49738H8.46911C8.54427 10.5608 8.60544 10.6219 8.60544 10.6971C8.60544 10.7723 8.54427 10.8334 8.46911 10.8334H7.49738H6.99738V11.3334V11.9174C6.99738 11.9926 6.93621 12.0537 6.86105 12.0537C6.78589 12.0537 6.72472 11.9926 6.72472 11.9174V11.3334V10.8334H6.22472H5.25299C5.17783 10.8334 5.11667 10.7723 5.11667 10.6971C5.11667 10.6219 5.17783 10.5608 5.25299 10.5608H5.25333L6.22507 10.5601L6.72472 10.5598V10.0601V8.79608V8.34765L6.27894 8.29903C3.77519 8.02596 1.86946 6.03226 1.86946 3.67102V2.69002V1.48157L1.01563 2.33674L0.594346 2.75869C0.594311 2.75872 0.594277 2.75876 0.594243 2.75879C0.540915 2.812 0.454378 2.81203 0.401073 2.75913C0.347994 2.70579 0.348091 2.61954 0.4013 2.56633L1.90791 1.05972C1.91813 1.04974 1.9303 1.04083 1.94393 1.03363L1.9587 1.02778C1.9747 1.02144 1.99047 1.01855 2.00579 1.01855C2.02071 1.01855 2.03713 1.02154 2.05287 1.02778L2.07205 1.03538C2.08277 1.04137 2.09391 1.04951 2.10444 1.05983L3.61114 2.56256C3.65957 2.61469 3.65969 2.6983 3.60672 2.75165C3.55521 2.80289 3.47145 2.80463 3.4174 2.75422L2.99685 2.33563L2.14412 1.4869V2.69001V3.67035C2.14412 5.8999 3.92208 7.69274 6.15718 8.0067L6.72673 8.08671V7.51156V2.69007V1.48695L5.87401 2.33568L5.45316 2.75457C5.40046 2.80397 5.31672 2.80364 5.26389 2.75145C5.21179 2.69871 5.21137 2.61518 5.26052 2.56246L6.7632 1.05977C6.77342 1.04979 6.78559 1.04088 6.79922 1.03369L6.81399 1.02783C6.82914 1.02183 6.84408 1.01892 6.85862 1.01863L6.93097 1.03792C6.94173 1.04427 6.95138 1.0517 6.95977 1.05992C6.95993 1.06008 6.96009 1.06023 6.96025 1.06039L8.47068 2.56685L8.47064 2.56689L8.47606 2.57213C8.50197 2.5972 8.51731 2.6317 8.518 2.66976C8.51802 2.70624 8.50356 2.74104 8.47865 2.76622C8.45186 2.79263 8.41659 2.80683 8.37956 2.80654C8.3442 2.80627 8.30894 2.79152 8.28294 2.76464L8.28301 2.76458L8.27633 2.75794L7.85212 2.33571L6.99939 1.48697V2.69009V7.51226V8.08742L7.56896 8.0074C9.80399 7.69339 11.582 5.89988 11.582 3.67105V2.69005V1.48694L10.7293 2.33567L10.3087 2.75426C10.255 2.80434 10.1717 2.80333 10.1192 2.75145C10.0671 2.69871 10.0666 2.61518 10.1158 2.56246L11.6178 1.06039C11.6181 1.06016 11.6183 1.05993 11.6185 1.0597C11.63 1.04847 11.6421 1.03998 11.6536 1.03402L11.6693 1.02782C11.6819 1.02282 11.6949 1.01991 11.7073 1.01895L11.7876 1.03903C11.7975 1.04512 11.8064 1.05212 11.8142 1.05975C11.8144 1.05996 11.8146 1.06016 11.8149 1.06037L13.3208 2.56635C13.3208 2.56635 13.3208 2.56636 13.3208 2.56637C13.3462 2.59175 13.3606 2.62622 13.3606 2.66284C13.3606 2.69905 13.346 2.73414 13.3208 2.75935L13.6744 3.1129L13.3213 2.75886C13.2679 2.81207 13.1811 2.81205 13.1278 2.75868Z" fill="white" stroke="#CB8020"/>
</g>
<defs>
<clipPath id="clip0_4240_15849">
<rect width="14" height="14" fill="white"/>
</clipPath>
</defs>
</svg>
