<svg xmlns="http://www.w3.org/2000/svg" viewBox="0 0 30 30"><defs><style>.cls-1{fill:none;stroke:#cb8020;stroke-miterlimit:10;stroke-width:1.5px;}</style></defs><title>all2</title><g id="Layer_1" data-name="Layer 1"><path class="cls-1" d="M9.21,20C7.2,18.31,6,16.83,6,14a9,9,0,0,1,9-9,9.13,9.13,0,0,1,9,9c.11,2.58-1.73,4.89-3.5,6.18"/><path class="cls-1" d="M19.6,22.22a2.72,2.72,0,1,1,2.72,2.71A2.72,2.72,0,0,1,19.6,22.22Z"/><path class="cls-1" d="M5,22.29A2.73,2.73,0,1,1,7.77,25,2.72,2.72,0,0,1,5,22.29Z"/></g></svg>