<svg width="21" height="21" viewBox="0 0 21 21" fill="none" xmlns="http://www.w3.org/2000/svg">
<path d="M0.039932 17.2634C0.039932 18.1907 0.408304 19.08 1.06401 19.7357C1.71972 20.3914 2.60905 20.7598 3.53636 20.7598C4.46367 20.7598 5.35301 20.3914 6.00871 19.7357C6.66442 19.08 7.03279 18.1907 7.03279 17.2634C7.03005 16.9737 6.99317 16.6853 6.92291 16.4042C6.88021 16.2378 6.82682 16.0743 6.76307 15.9147C6.76307 15.9147 6.71312 15.8148 6.68315 15.7549L6.5333 15.4652L6.41343 15.2954L6.2436 15.0556L6.10374 14.8958L5.89396 14.686L5.73412 14.5561C5.66202 14.4907 5.58522 14.4306 5.50435 14.3763L5.32454 14.2664C5.24147 14.2106 5.15469 14.1605 5.0648 14.1166L4.88499 14.0366L4.56531 13.9268L4.40548 13.8768H4.35553C3.48355 12.683 3.02099 11.2393 3.03687 9.76101C3.03687 7.90639 3.77362 6.12773 5.08504 4.81631C6.39645 3.5049 8.17511 2.76815 10.0297 2.76815C11.8844 2.76815 13.663 3.5049 14.9744 4.81631C16.2859 6.12773 17.0226 7.90639 17.0226 9.76101C17.0342 11.2325 16.5718 12.6685 15.7039 13.8568V13.8568L15.5441 13.9068L15.2244 14.0167L15.0246 14.1166L14.7549 14.2664L14.5851 14.3763C14.4939 14.4293 14.407 14.4894 14.3254 14.5561L14.1655 14.686L13.9557 14.8958L13.8159 15.0556L13.6361 15.2954C13.603 15.3542 13.5663 15.4109 13.5262 15.4652C13.4688 15.5577 13.4187 15.6546 13.3763 15.7549C13.3458 15.8027 13.3191 15.8528 13.2964 15.9047C13.2327 16.0643 13.1793 16.2278 13.1366 16.3942C13.0655 16.6785 13.0286 16.9703 13.0267 17.2634C13.0253 17.8941 13.1945 18.5134 13.5164 19.0558C13.8383 19.5981 14.3009 20.0433 14.8553 20.3442C15.4096 20.645 16.035 20.7903 16.6651 20.7647C17.2953 20.7391 17.9068 20.5435 18.4349 20.1986C18.963 19.8537 19.3879 19.3725 19.6648 18.8058C19.9416 18.2391 20.06 17.608 20.0073 16.9795C19.9547 16.351 19.7331 15.7484 19.3659 15.2356C18.9988 14.7228 18.4997 14.3189 17.9217 14.0666C18.578 12.864 18.9508 11.5273 19.0117 10.1587C19.0725 8.78998 18.8198 7.42549 18.2727 6.16941C17.7257 4.91333 16.8988 3.79888 15.8553 2.91118C14.8117 2.02347 13.5791 1.38599 12.2515 1.04743C10.924 0.708868 9.53664 0.678174 8.19542 0.957691C6.8542 1.23721 5.59459 1.81954 4.51281 2.66022C3.43102 3.5009 2.55567 4.57769 1.9536 5.80835C1.35153 7.039 1.03867 8.39098 1.03891 9.76101C1.03786 11.2625 1.41582 12.7401 2.13779 14.0566C1.51315 14.3278 0.981609 14.7761 0.608798 15.3459C0.235986 15.9158 0.0382255 16.5824 0.039932 17.2634V17.2634ZM16.5231 18.7518C16.1274 18.7518 15.7478 18.5953 15.467 18.3165C15.1863 18.0376 15.0273 17.659 15.0246 17.2634C15.0113 17.1372 15.0113 17.0099 15.0246 16.8837C15.0926 16.5923 15.2474 16.3284 15.4686 16.1268C15.6898 15.9253 15.9669 15.7956 16.2634 15.7549H16.5231C16.9205 15.7549 17.3017 15.9128 17.5827 16.1938C17.8637 16.4748 18.0216 16.8559 18.0216 17.2534C18.0216 17.6508 17.8637 18.0319 17.5827 18.3129C17.3017 18.594 16.9205 18.7518 16.5231 18.7518V18.7518ZM3.53636 18.7518C3.13894 18.7518 2.7578 18.594 2.47679 18.3129C2.19577 18.0319 2.03789 17.6508 2.03789 17.2534C2.03789 16.8559 2.19577 16.4748 2.47679 16.1938C2.7578 15.9128 3.13894 15.7549 3.53636 15.7549H3.70619C3.82103 15.7689 3.93258 15.8027 4.03585 15.8548H4.17571C4.27256 15.8996 4.36322 15.9566 4.44544 16.0246C4.48556 16.0419 4.52266 16.0655 4.55532 16.0945C4.63903 16.1717 4.71285 16.259 4.7751 16.3543L4.83504 16.4242C4.91512 16.5546 4.9757 16.6959 5.01485 16.8438V16.8438C5.03779 16.9824 5.0445 17.1232 5.03483 17.2634C5.0322 17.659 4.87316 18.0376 4.59243 18.3165C4.31169 18.5953 3.93206 18.7518 3.53636 18.7518Z" fill="#CB8020"/>
</svg>
