<svg width="14" height="14" viewBox="0 0 14 14" fill="none" xmlns="http://www.w3.org/2000/svg">
<g clip-path="url(#clip0_4240_15864)">
<path d="M3.97673 2.96416L3.96968 2.99439C3.8991 3.29693 3.73838 3.57093 3.50876 3.78019C3.27913 3.98944 2.99142 4.12409 2.68364 4.16634L2.6498 4.17099H2.61564H2.43382C2.02302 4.17099 1.62905 4.0078 1.33857 3.71732C1.04809 3.42684 0.884895 3.03286 0.884895 2.62206C0.884895 2.21126 1.04809 1.81728 1.33857 1.5268C1.62904 1.23632 2.02302 1.07313 2.43381 1.07313L3.97673 2.96416ZM3.97673 2.96416L3.97999 2.93328M3.97673 2.96416L3.97999 2.93328M3.97999 2.93328C3.99215 2.81811 3.99294 2.70204 3.98238 2.58675C3.97326 2.18681 3.80971 1.80552 3.52544 1.52314C3.23525 1.23489 2.84284 1.07312 2.43382 1.07313L3.97999 2.93328ZM13.472 2.61507L13.472 2.61632C13.473 2.99534 13.3629 3.36635 13.1554 3.68353C12.9479 4.00071 12.6521 4.25018 12.3044 4.40114L11.8015 4.61949L12.0651 5.10018C12.53 5.94799 12.7734 6.89944 12.7728 7.86635V7.86679C12.7729 8.74963 12.5713 9.62082 12.1834 10.4138C11.7954 11.2069 11.2313 11.9007 10.5342 12.4425C9.83714 12.9842 9.02546 13.3594 8.1612 13.5395C7.29693 13.7197 6.40293 13.6999 5.54748 13.4817C4.69202 13.2636 3.89774 12.8528 3.22529 12.2807C2.55285 11.7087 2.02002 10.9906 1.66751 10.1812C1.31499 9.37178 1.15212 8.49252 1.19132 7.61055C1.23053 6.72859 1.47077 5.86725 1.89371 5.09232L2.15533 4.61296L1.65483 4.39452C1.33285 4.254 1.05489 4.02901 0.850375 3.74338C0.645861 3.45775 0.522415 3.12212 0.493115 2.77204C0.463815 2.42197 0.529751 2.07049 0.68394 1.75483C0.838128 1.43918 1.07483 1.17111 1.36896 0.979026C1.66309 0.786939 2.0037 0.677989 2.35471 0.663718C2.70572 0.649446 3.05405 0.730384 3.36281 0.897957C3.67157 1.06553 3.92924 1.3135 4.10855 1.61559L4.53852 1.36039L4.10855 1.61559C4.28766 1.91735 4.3819 2.26189 4.38133 2.61279C4.38015 2.7773 4.35946 2.94109 4.3197 3.10073C4.29602 3.19276 4.26665 3.28323 4.23177 3.37162C4.22689 3.3821 4.22132 3.39225 4.21509 3.40201L4.19238 3.4376L4.17595 3.4765C4.15853 3.51776 4.13827 3.55777 4.11531 3.59621C4.0874 3.63517 4.06122 3.67533 4.03683 3.71657L3.9402 3.84541L3.86567 3.93059L3.74883 4.04743L3.65696 4.12207L3.65604 4.12282C3.6193 4.15282 3.58024 4.17986 3.53923 4.20369L3.52887 4.20971L3.51882 4.21622L3.41405 4.28401L3.24943 4.37546L3.14897 4.42569L2.96325 4.48953L2.8581 4.52239L2.70072 4.57157L2.60347 4.70473C1.93301 5.62271 1.57566 6.732 1.58418 7.86867C1.5847 9.29881 2.15305 10.6703 3.16434 11.6815C4.1761 12.6933 5.54834 13.2617 6.97919 13.2617C8.41003 13.2617 9.78227 12.6933 10.794 11.6815C11.8051 10.6704 12.3735 9.29928 12.3742 7.86942C12.3859 6.72771 12.0284 5.61276 11.3549 4.69073L11.2051 4.48565H10.9925L10.9602 4.47555L10.7637 4.408L10.6669 4.36501C10.6271 4.34513 10.5886 4.32271 10.5516 4.29789L10.5427 4.29189L10.5335 4.28628L10.4177 4.21551C10.3842 4.19251 10.3523 4.16725 10.3222 4.13993L10.3121 4.13072L10.3014 4.12207L10.2095 4.04744L10.0927 3.93059L10.0227 3.85054L9.91909 3.70432L9.91861 3.70365L9.855 3.61353L9.76748 3.44433L9.73317 3.3757L9.72287 3.35511C9.68961 3.26971 9.66148 3.18239 9.63865 3.09363C9.59944 2.93626 9.57876 2.77484 9.57705 2.61267C9.57768 2.09702 9.78279 1.60264 10.1475 1.23797C10.5127 0.872746 11.008 0.667564 11.5245 0.667564C12.0411 0.667564 12.5364 0.872746 12.9016 1.23797C13.2669 1.6032 13.472 2.09856 13.472 2.61507ZM11.3453 4.16733L11.3754 4.17099H11.4057H11.5245C11.9353 4.17099 12.3293 4.0078 12.6198 3.71732C12.9103 3.42684 13.0735 3.03286 13.0735 2.62206C13.0735 2.21126 12.9103 1.81728 12.6198 1.5268C12.3293 1.23632 11.9353 1.07313 11.5245 1.07313C11.1155 1.07312 10.7231 1.23489 10.4329 1.52314C10.1465 1.80769 9.9826 2.19268 9.97581 2.59597C9.96787 2.72778 9.97475 2.86009 9.99631 2.9904L10.0002 3.01381L10.0063 3.03675C10.0462 3.18741 10.1079 3.33142 10.1895 3.46421L10.2101 3.49787L10.2358 3.52786L10.2588 3.55467C10.3206 3.64438 10.3922 3.72695 10.4724 3.80084L10.4723 3.8009L10.4792 3.80701C10.5217 3.8448 10.5682 3.87782 10.6177 3.90552C10.6953 3.96402 10.7789 4.01412 10.8672 4.05493L10.9671 4.10106H11.0725C11.1604 4.1337 11.252 4.15598 11.3453 4.16733Z" fill="white" stroke="#CB8020"/>
</g>
<defs>
<clipPath id="clip0_4240_15864">
<rect width="14" height="14" fill="white"/>
</clipPath>
</defs>
</svg>
