<svg width="14" height="14" viewBox="0 0 14 14" fill="none" xmlns="http://www.w3.org/2000/svg">
<g clip-path="url(#clip0_4240_15852)">
<path d="M6.81066 9.857V9.40978L6.36621 9.36009C4.94892 9.20164 3.6397 8.52655 2.68871 7.46382C1.73776 6.40115 1.21167 5.02539 1.21094 3.59937C1.21094 3.54634 1.232 3.49548 1.2695 3.45798C1.307 3.42048 1.35787 3.39941 1.4109 3.39941C1.46394 3.39941 1.5148 3.42048 1.5523 3.45798C1.5898 3.49548 1.61087 3.54634 1.61087 3.59937C1.61087 5.03147 2.17977 6.4049 3.19242 7.41754C4.20507 8.43018 5.57852 8.99908 7.01062 8.99908C8.44272 8.99908 9.81617 8.43018 10.8288 7.41754C11.8415 6.4049 12.4104 5.03147 12.4104 3.59937C12.4104 3.54634 12.4314 3.49548 12.4689 3.45798C12.5064 3.42048 12.5573 3.39941 12.6103 3.39941C12.6634 3.39941 12.7142 3.42048 12.7517 3.45798C12.7892 3.49548 12.8103 3.54634 12.8103 3.59937C12.8096 5.02539 12.2835 6.40115 11.3325 7.46382C10.3815 8.52655 9.07232 9.20164 7.65503 9.36009L7.21059 9.40978V9.857V10.599V11.099H7.71059H8.41055C8.46359 11.099 8.51445 11.12 8.55195 11.1575C8.58945 11.195 8.61052 11.2459 8.61052 11.2989C8.61052 11.3519 8.58945 11.4028 8.55195 11.4403C8.51445 11.4778 8.46359 11.4989 8.41055 11.4989H7.71059H7.21059V11.9989V13.3988C7.21059 13.4518 7.18952 13.5027 7.15202 13.5402L7.50557 13.8937L7.15202 13.5402C7.11452 13.5777 7.06366 13.5987 7.01062 13.5987C6.95758 13.5987 6.90672 13.5777 6.86922 13.5402C6.83172 13.5027 6.81066 13.4518 6.81066 13.3988V11.9989V11.4989H6.31066H5.61069C5.55765 11.4989 5.50679 11.4778 5.46929 11.4403L5.11574 11.7939L5.46929 11.4403C5.43179 11.4028 5.41073 11.3519 5.41073 11.2989C5.41073 11.2459 5.43179 11.195 5.46929 11.1575L5.11574 10.804L5.46929 11.1575C5.50679 11.12 5.55765 11.099 5.61069 11.099H6.31066H6.81066V10.599V9.857Z" fill="white" stroke="#CB8020"/>
<path d="M7.01154 7.09919C7.70374 7.09919 8.3804 6.89393 8.95594 6.50937C9.53148 6.12481 9.98007 5.57822 10.245 4.93871C10.5099 4.29921 10.5792 3.59552 10.4441 2.91663C10.3091 2.23773 9.97575 1.61413 9.48629 1.12468C8.99683 0.635221 8.37322 0.301899 7.69432 0.166858C7.01543 0.0318182 6.31173 0.101126 5.67222 0.366017C5.03271 0.630908 4.48611 1.07948 4.10155 1.65502C3.71698 2.23056 3.51172 2.90721 3.51172 3.5994C3.51172 4.5276 3.88045 5.41779 4.53679 6.07413C5.19314 6.73047 6.08333 7.09919 7.01154 7.09919ZM7.01154 1.49953C7.42686 1.49953 7.83286 1.62268 8.17818 1.85342C8.52351 2.08416 8.79266 2.41211 8.95159 2.79581C9.11053 3.17952 9.15211 3.60173 9.07109 4.00907C8.99006 4.4164 8.79007 4.79057 8.49639 5.08424C8.20272 5.37791 7.82855 5.5779 7.42121 5.65893C7.01387 5.73995 6.59165 5.69837 6.20795 5.53943C5.82424 5.3805 5.49628 5.11135 5.26554 4.76603C5.03481 4.42071 4.91165 4.01472 4.91165 3.5994C4.91165 3.04248 5.13289 2.50837 5.52669 2.11457C5.9205 1.72076 6.45462 1.49953 7.01154 1.49953Z" fill="#CB8020"/>
</g>
<defs>
<clipPath id="clip0_4240_15852">
<rect width="14" height="14" fill="white"/>
</clipPath>
</defs>
</svg>
