<svg xmlns="http://www.w3.org/2000/svg" viewBox="0 0 30 30"><defs><style>.cls-1{fill:none;stroke:#cb8020;stroke-linecap:round;stroke-linejoin:round;stroke-width:1.5px;}</style></defs><title>all2</title><g id="Layer_1" data-name="Layer 1"><line class="cls-1" x1="7.93" y1="5" x2="7.93" y2="22.07"/><line class="cls-1" x1="5" y1="7.93" x2="10.71" y2="7.93"/><path class="cls-1" d="M8,15.88C8.22,15.63,10.09,10.73,12,9h0a4.67,4.67,0,0,1,2.5-1,3.77,3.77,0,0,1,.76-.07,5.46,5.46,0,0,1,.58,0,4.35,4.35,0,0,1,2.92,6.87l-2.07,3c-1.87,2.7-.34,6.77,2.92,7.15a5.49,5.49,0,0,0,.58,0A5,5,0,0,0,25,19.83"/></g></svg>