<svg width="14" height="14" viewBox="0 0 14 14" fill="none" xmlns="http://www.w3.org/2000/svg">
<g clip-path="url(#clip0_4240_15843)">
<path d="M7.22903 11.0255L7.22111 11.0694V11.1141C7.22111 11.6635 7.32437 12.1797 7.68922 12.5445C8.05407 12.9094 8.57028 13.0126 9.11965 13.0126C10.0911 13.0126 10.5566 12.2319 10.7667 11.5827C10.9835 10.9124 11.0182 10.1499 11.0182 9.71556C11.0182 9.66271 11.0392 9.61203 11.0766 9.57466C11.1139 9.53729 11.1646 9.51629 11.2175 9.51629C11.2703 9.51629 11.321 9.53729 11.3584 9.57466C11.3957 9.61203 11.4167 9.66271 11.4167 9.71556C11.4167 10.9737 11.1642 11.913 10.7579 12.5218C10.3662 13.1085 9.82016 13.4112 9.11965 13.4112H9.09349L9.06747 13.4139C8.7645 13.4457 8.45826 13.4094 8.1711 13.3077C7.88395 13.206 7.62315 13.0414 7.40774 12.826C7.19233 12.6106 7.02776 12.3498 6.92605 12.0626C6.82488 11.777 6.78844 11.4725 6.81934 11.1711C6.94059 10.2103 7.24114 9.28078 7.70539 8.43084L7.71474 8.41373L7.72272 8.39595L7.73309 8.37286C7.96006 7.86736 8.25545 7.20949 8.45499 6.6118C8.55604 6.30909 8.63999 6.00038 8.6744 5.72117C8.70589 5.46559 8.71134 5.12488 8.53502 4.8467L8.53514 4.84663L8.52873 4.83701C8.36384 4.58968 8.08826 4.47391 7.86492 4.41387C7.6228 4.34877 7.33431 4.32067 7.02184 4.32067C6.39133 4.32067 5.91495 4.66376 5.57801 5.10158C5.24714 5.5315 5.01664 6.09136 4.85319 6.65059C4.52508 7.77314 4.42403 9.0466 4.42403 9.71556C4.42403 9.76841 4.40304 9.8191 4.36567 9.85647L4.71922 10.21L4.36567 9.85647C4.3283 9.89384 4.27761 9.91483 4.22476 9.91483C4.17191 9.91483 4.12123 9.89384 4.08386 9.85647L3.7303 10.21L4.08386 9.85647C4.04649 9.8191 4.02549 9.76841 4.02549 9.71556V3.42213V2.92213H3.52549H2.82622C2.77337 2.92213 2.72269 2.90114 2.68532 2.86377C2.64795 2.8264 2.62695 2.77571 2.62695 2.72286C2.62695 2.67001 2.64795 2.61933 2.68532 2.58196C2.72269 2.54459 2.77337 2.52359 2.82622 2.52359H3.52549H4.02549V2.02359V0.625051C4.02549 0.572202 4.04649 0.521517 4.08386 0.484146C4.12123 0.446776 4.17191 0.425781 4.22476 0.425781C4.27761 0.425781 4.3283 0.446776 4.36567 0.484146C4.40304 0.521517 4.42403 0.572202 4.42403 0.625051V2.02359V2.52359H4.92403H5.6233C5.67615 2.52359 5.72684 2.54459 5.76421 2.58196C5.80158 2.61933 5.82257 2.67001 5.82257 2.72286C5.82257 2.77571 5.80158 2.8264 5.76421 2.86377C5.72684 2.90114 5.67615 2.92213 5.6233 2.92213H4.92403H4.42403V3.42213V4.48502V6.03029L5.32926 4.77793C5.52221 4.51098 5.77619 4.29403 6.07001 4.14516C6.36383 3.99629 6.68898 3.91982 7.01835 3.92212L7.04964 3.92234L7.08071 3.91865C7.42206 3.87818 7.76809 3.92591 8.08574 4.05729C8.39562 4.18545 8.6684 4.38904 8.87935 4.64937C9.12003 5.04069 9.14021 5.56513 8.9666 6.2628C8.80152 6.92619 8.48786 7.64636 8.15594 8.40847C8.13611 8.45399 8.11621 8.49967 8.09628 8.5455C7.678 9.32109 7.38527 10.1581 7.22903 11.0255Z" fill="white" stroke="#CB8020"/>
</g>
<defs>
<clipPath id="clip0_4240_15843">
<rect width="14" height="14" fill="white"/>
</clipPath>
</defs>
</svg>
