<svg xmlns="http://www.w3.org/2000/svg" viewBox="0 0 30 30"><defs><style>.cls-1{fill:none;stroke:#cb8020;stroke-miterlimit:10;stroke-width:1.5px;}</style></defs><title>all2</title><g id="Layer_1" data-name="Layer 1"><path class="cls-1" d="M20.83,10c2,1.68,3.18,3.17,3.18,6a9,9,0,0,1-9,9,9.13,9.13,0,0,1-9-9c-.1-2.58,1.73-4.89,3.51-6.18"/><path class="cls-1" d="M10.45,7.78A2.73,2.73,0,1,1,7.72,5.07,2.72,2.72,0,0,1,10.45,7.78Z"/><path class="cls-1" d="M25,7.71A2.73,2.73,0,1,1,22.28,5,2.72,2.72,0,0,1,25,7.71Z"/></g></svg>