<svg width="14" height="14" viewBox="0 0 20 20" fill="none" xmlns="http://www.w3.org/2000/svg">
<path d="M19.9601 3.73664C19.9601 2.80933 19.5917 1.92 18.936 1.26429C18.2803 0.608587 17.3909 0.240214 16.4636 0.240214C15.5363 0.240214 14.647 0.608587 13.9913 1.26429C13.3356 1.92 12.9672 2.80933 12.9672 3.73664C12.9699 4.02634 13.0068 4.31471 13.0771 4.59577C13.1198 4.7622 13.1732 4.92571 13.2369 5.08527C13.2369 5.08527 13.2869 5.18517 13.3168 5.2451L13.4667 5.53481L13.5866 5.70464L13.7564 5.94439L13.8963 6.10423L14.106 6.31401L14.2659 6.44388C14.338 6.50934 14.4148 6.56944 14.4956 6.6237L14.6755 6.73359C14.7585 6.78939 14.8453 6.83946 14.9352 6.88343L15.115 6.96335L15.4347 7.07324L15.5945 7.12319H15.6445C16.5165 8.31698 16.979 9.76073 16.9631 11.239C16.9631 13.0936 16.2264 14.8723 14.915 16.1837C13.6035 17.4951 11.8249 18.2318 9.97026 18.2318C8.11564 18.2318 6.33698 17.4951 5.02556 16.1837C3.71415 14.8723 2.9774 13.0936 2.9774 11.239C2.96583 9.76755 3.42818 8.33146 4.29606 7.14317V7.14317L4.45589 7.09322L4.77557 6.98333L4.97536 6.88343L5.24509 6.73359L5.41491 6.6237C5.5061 6.57071 5.59295 6.51058 5.67465 6.44388L5.83449 6.31401L6.04427 6.10423L6.18413 5.94439L6.36395 5.70464C6.39702 5.6458 6.43372 5.58909 6.47383 5.53481C6.53123 5.44228 6.58133 5.34542 6.62368 5.2451C6.65418 5.19731 6.6809 5.14721 6.7036 5.09526C6.76735 4.9357 6.82074 4.77219 6.86344 4.60576C6.93448 4.32145 6.97137 4.02969 6.97332 3.73664C6.97473 3.10594 6.80551 2.48661 6.4836 1.94425C6.16168 1.40189 5.69906 0.9567 5.14474 0.655849C4.59041 0.354998 3.96504 0.209686 3.33486 0.235309C2.70467 0.260932 2.09316 0.456534 1.56509 0.801395C1.03702 1.14626 0.61207 1.62753 0.335249 2.19424C0.0584279 2.76094 -0.0599512 3.39197 -0.0073473 4.02047C0.0452566 4.64898 0.266884 5.25155 0.634057 5.76436C1.00123 6.27716 1.50027 6.6811 2.07832 6.93338C1.42198 8.13597 1.04915 9.47265 0.988311 10.8413C0.927472 12.21 1.18023 13.5745 1.72728 14.8306C2.27433 16.0867 3.1012 17.2011 4.14475 18.0888C5.18829 18.9765 6.42091 19.614 7.74845 19.9526C9.076 20.2911 10.4634 20.3218 11.8046 20.0423C13.1458 19.7628 14.4054 19.1805 15.4872 18.3398C16.569 17.4991 17.4443 16.4223 18.0464 15.1917C18.6485 13.961 18.9613 12.609 18.9611 11.239C18.9621 9.73745 18.5842 8.25995 17.8622 6.94337C18.4869 6.67215 19.0184 6.22394 19.3912 5.65407C19.764 5.0842 19.9618 4.41763 19.9601 3.73664V3.73664ZM3.47689 2.24816C3.87259 2.24816 4.25222 2.40466 4.53296 2.68352C4.81369 2.96238 4.97273 3.34096 4.97536 3.73664C4.98868 3.86283 4.98868 3.99007 4.97536 4.11626C4.90738 4.40767 4.75257 4.6716 4.53139 4.87315C4.31022 5.07471 4.03309 5.20441 3.73663 5.2451H3.47689C3.07947 5.2451 2.69833 5.08723 2.41731 4.80621C2.1363 4.5252 1.97842 4.14405 1.97842 3.74663C1.97842 3.34922 2.1363 2.96807 2.41731 2.68706C2.69833 2.40604 3.07947 2.24816 3.47689 2.24816V2.24816ZM16.4636 2.24816C16.8611 2.24816 17.2422 2.40604 17.5232 2.68706C17.8042 2.96807 17.9621 3.34922 17.9621 3.74663C17.9621 4.14405 17.8042 4.5252 17.5232 4.80621C17.2422 5.08723 16.8611 5.2451 16.4636 5.2451H16.2938C16.179 5.23115 16.0674 5.19734 15.9641 5.14521H15.8243C15.7274 5.10045 15.6368 5.04337 15.5546 4.97538C15.5144 4.95808 15.4773 4.93447 15.4447 4.90545C15.361 4.82828 15.2872 4.74104 15.2249 4.64572L15.165 4.57579C15.0849 4.44545 15.0243 4.30409 14.9851 4.15622V4.15622C14.9622 4.01761 14.9555 3.8768 14.9652 3.73664C14.9678 3.34096 15.1268 2.96238 15.4076 2.68352C15.6883 2.40466 16.0679 2.24816 16.4636 2.24816Z" fill="#CB8020"/>
</svg>
