<svg width="14" height="14" viewBox="0 0 14 14" fill="none" xmlns="http://www.w3.org/2000/svg">
<path d="M3.3888 1.59545C4.45772 0.881218 5.71442 0.5 7 0.5C7.85359 0.5 8.69883 0.668127 9.48744 0.994783C10.2761 1.32144 10.9926 1.80022 11.5962 2.40381C12.1998 3.00739 12.6786 3.72394 13.0052 4.51256C13.3319 5.30117 13.5 6.14641 13.5 7C13.5 8.28558 13.1188 9.54228 12.4046 10.6112C11.6903 11.6801 10.6752 12.5132 9.48744 13.0052C8.29972 13.4972 6.99279 13.6259 5.73192 13.3751C4.47104 13.1243 3.31285 12.5052 2.40381 11.5962C1.49477 10.6872 0.875703 9.52896 0.624899 8.26808C0.374095 7.00721 0.502817 5.70028 0.994786 4.51256C1.48676 3.32484 2.31988 2.30968 3.3888 1.59545ZM3.61102 12.072C4.61416 12.7422 5.79354 13.1 7 13.1C8.61782 13.1 10.1694 12.4573 11.3134 11.3133C12.4573 10.1694 13.1 8.61782 13.1 7C13.1 5.79353 12.7422 4.61416 12.072 3.61102C11.4017 2.60788 10.449 1.82603 9.33437 1.36433C8.21974 0.90264 6.99324 0.78184 5.80995 1.01721C4.62667 1.25258 3.53975 1.83355 2.68665 2.68665C1.83355 3.53975 1.25258 4.62666 1.01721 5.80995C0.781843 6.99323 0.902643 8.21974 1.36434 9.33437C1.82603 10.449 2.60788 11.4017 3.61102 12.072Z" fill="white" stroke="#CB8020"/>
<path d="M6.99961 8.39961C7.77281 8.39961 8.39961 7.77281 8.39961 6.99961C8.39961 6.22641 7.77281 5.59961 6.99961 5.59961C6.22641 5.59961 5.59961 6.22641 5.59961 6.99961C5.59961 7.77281 6.22641 8.39961 6.99961 8.39961Z" fill="#CB8020"/>
</svg>
