<svg width="14" height="14" viewBox="0 0 14 14" fill="none" xmlns="http://www.w3.org/2000/svg">
<g clip-path="url(#clip0_4240_15846)">
<path d="M11.5362 8.3414V8.8414H12.0362H13.4352C13.4882 8.8414 13.5389 8.86242 13.5763 8.89983C13.6137 8.93725 13.6347 8.98799 13.6347 9.04091C13.6347 9.09382 13.6137 9.14457 13.5763 9.18198C13.5389 9.2194 13.4882 9.24042 13.4352 9.24042H11.3367C11.2838 9.24042 11.233 9.2194 11.1956 9.18198C11.1582 9.14457 11.1372 9.09382 11.1372 9.04091V5.54335V5.04335H10.6372H7.83915H7.33915V5.54335V8.43933V8.82663L7.71415 8.92345C8.25572 9.06328 8.7277 9.39583 9.04162 9.85876C9.35554 10.3217 9.48984 10.8832 9.41937 11.4381C9.34889 11.993 9.07846 12.5031 8.65878 12.8728C8.2391 13.2426 7.69897 13.4466 7.13964 13.4466C6.58031 13.4466 6.04018 13.2426 5.6205 12.8728C5.20082 12.5031 4.93039 11.993 4.85991 11.4381C4.78943 10.8832 4.92374 10.3217 5.23766 9.85876C5.55158 9.39583 6.02356 9.06328 6.56513 8.92345L6.94013 8.82663V8.43933V5.54335V5.04335H6.44013H3.64209H3.14209V5.54335V9.04091C3.14209 9.09382 3.12107 9.14457 3.08365 9.18198C3.04623 9.2194 2.99549 9.24042 2.94257 9.24042H0.844042C0.791129 9.24042 0.740382 9.2194 0.702967 9.18198C0.665551 9.14457 0.644531 9.09382 0.644531 9.04091C0.644531 8.98799 0.665551 8.93725 0.702967 8.89983C0.740382 8.86242 0.791129 8.8414 0.844042 8.8414H2.24306H2.74306V8.3414V1.34629V0.846287H2.24306H0.844042C0.791128 0.846287 0.740382 0.825267 0.702967 0.787852C0.665551 0.750436 0.644531 0.69969 0.644531 0.646776C0.644531 0.593863 0.665551 0.543116 0.702967 0.505701C0.740382 0.468286 0.791128 0.447266 0.844042 0.447266H2.94257C2.99549 0.447266 3.04623 0.468285 3.08365 0.505701C3.12107 0.543117 3.14209 0.593863 3.14209 0.646776V4.14433V4.64433H3.64209H6.44013H6.94013V4.14433V0.646776C6.94013 0.593863 6.96115 0.543117 6.99856 0.505701C7.03598 0.468285 7.08673 0.447266 7.13964 0.447266C7.19255 0.447266 7.2433 0.468285 7.28071 0.505701C7.31813 0.543117 7.33915 0.593863 7.33915 0.646776V4.14433V4.64433H7.83915H10.6372H11.1372V4.14433V0.646776C11.1372 0.593862 11.1582 0.543116 11.1956 0.505701C11.233 0.468286 11.2838 0.447266 11.3367 0.447266H13.4352C13.4882 0.447266 13.5389 0.468286 13.5763 0.505701C13.6137 0.543116 13.6347 0.593862 13.6347 0.646776C13.6347 0.699691 13.6137 0.750437 13.5763 0.787852C13.5389 0.825267 13.4882 0.846287 13.4352 0.846287H12.0362H11.5362V1.34629V8.3414ZM8.71862 12.1945C8.92729 11.8822 9.03866 11.515 9.03866 11.1394C9.03866 10.6358 8.83859 10.1528 8.48245 9.79663C8.12631 9.44049 7.64329 9.24042 7.13964 9.24042C6.76405 9.24042 6.39689 9.35179 6.0846 9.56046C5.77231 9.76913 5.5289 10.0657 5.38517 10.4127C5.24144 10.7597 5.20383 11.1415 5.27711 11.5099C5.35038 11.8783 5.53125 12.2167 5.79683 12.4822C6.06241 12.7478 6.40078 12.9287 6.76916 13.002C7.13753 13.0752 7.51936 13.0376 7.86636 12.8939C8.21336 12.7502 8.50995 12.5068 8.71862 12.1945Z" fill="white" stroke="#CB8020"/>
</g>
<defs>
<clipPath id="clip0_4240_15846">
<rect width="14" height="14" fill="white"/>
</clipPath>
</defs>
</svg>
