<svg width="14" height="14" viewBox="0 0 14 14" fill="none" xmlns="http://www.w3.org/2000/svg">
<g clip-path="url(#clip0_4240_15834)">
<path d="M6.82502 9.78041V9.3474L6.39645 9.28554C5.56191 9.16509 4.7796 8.80726 4.14271 8.25469C3.50582 7.70213 3.0412 6.97811 2.80422 6.16892C2.56724 5.35972 2.56788 4.49946 2.80606 3.69062C3.04425 2.88177 3.50994 2.15845 4.14765 1.60683C4.78536 1.05521 5.5682 0.698551 6.40292 0.579337C7.23763 0.460122 8.08902 0.583383 8.85565 0.934433C9.62228 1.28548 10.2718 1.84952 10.7269 2.55935C11.182 3.26918 11.4234 4.09487 11.4224 4.93806C11.4212 5.99468 11.0396 7.01553 10.3474 7.81385C9.6552 8.61217 8.69873 9.1346 7.65294 9.28554L7.22437 9.3474V9.78041V10.5361V11.0361H7.72437H8.42405C8.47701 11.0361 8.5278 11.0571 8.56524 11.0945C8.60269 11.132 8.62373 11.1828 8.62373 11.2357C8.62373 11.2887 8.60269 11.3395 8.56524 11.3769C8.5278 11.4144 8.47701 11.4354 8.42405 11.4354H7.72437H7.22437V11.9354V13.3348C7.22437 13.3877 7.20333 13.4385 7.16589 13.476C7.12844 13.5134 7.07765 13.5345 7.02469 13.5345C6.97174 13.5345 6.92095 13.5134 6.8835 13.476C6.84605 13.4385 6.82502 13.3877 6.82502 13.3348V11.9354V11.4354H6.32502H5.62534C5.57238 11.4354 5.52159 11.4144 5.48415 11.3769C5.4467 11.3395 5.42566 11.2887 5.42566 11.2357C5.42566 11.1828 5.4467 11.132 5.48414 11.0945C5.52159 11.0571 5.57238 11.0361 5.62534 11.0361H6.32502H6.82502V10.5361V9.78041ZM3.70016 2.71726C3.26081 3.37479 3.02631 4.14784 3.02631 4.93864C3.02631 5.99908 3.44756 7.01609 4.19741 7.76593C4.94725 8.51577 5.96426 8.93703 7.02469 8.93703C7.8155 8.93703 8.58855 8.70253 9.24608 8.26318C9.90361 7.82383 10.4161 7.19937 10.7187 6.46876C11.0214 5.73815 11.1005 4.93421 10.9463 4.1586C10.792 3.38298 10.4112 2.67054 9.85198 2.11135C9.2928 1.55217 8.58035 1.17136 7.80474 1.01708C7.02913 0.862803 6.22519 0.941984 5.49458 1.24461C4.76397 1.54724 4.1395 2.05973 3.70016 2.71726Z" fill="white" stroke="#CB8020"/>
</g>
<defs>
<clipPath id="clip0_4240_15834">
<rect width="14" height="14" fill="white"/>
</clipPath>
</defs>
</svg>
