<svg width="33" height="33" viewBox="0 0 33 33" fill="none" xmlns="http://www.w3.org/2000/svg">
<rect x="0.5" y="0.900391" width="32" height="32" rx="16" fill="#E5AD65"/>
<path d="M16.5035 13.3067C14.516 13.3067 12.9129 14.9099 12.9129 16.8974C12.9129 18.8849 14.516 20.488 16.5035 20.488C18.491 20.488 20.0941 18.8849 20.0941 16.8974C20.0941 14.9099 18.491 13.3067 16.5035 13.3067ZM16.5035 19.2317C15.2191 19.2317 14.1691 18.1849 14.1691 16.8974C14.1691 15.6099 15.216 14.563 16.5035 14.563C17.791 14.563 18.8379 15.6099 18.8379 16.8974C18.8379 18.1849 17.7879 19.2317 16.5035 19.2317ZM21.0785 13.1599C21.0785 13.6255 20.7035 13.9974 20.241 13.9974C19.7754 13.9974 19.4035 13.6224 19.4035 13.1599C19.4035 12.6974 19.7785 12.3224 20.241 12.3224C20.7035 12.3224 21.0785 12.6974 21.0785 13.1599ZM23.4566 14.0099C23.4035 12.888 23.1473 11.8942 22.3254 11.0755C21.5066 10.2567 20.5129 10.0005 19.391 9.94424C18.2348 9.87861 14.7691 9.87861 13.6129 9.94424C12.4941 9.99736 11.5004 10.2536 10.6785 11.0724C9.85664 11.8911 9.60352 12.8849 9.54727 14.0067C9.48164 15.163 9.48164 18.6286 9.54727 19.7849C9.60039 20.9067 9.85664 21.9005 10.6785 22.7192C11.5004 23.538 12.491 23.7942 13.6129 23.8505C14.7691 23.9161 18.2348 23.9161 19.391 23.8505C20.5129 23.7974 21.5066 23.5411 22.3254 22.7192C23.1441 21.9005 23.4004 20.9067 23.4566 19.7849C23.5223 18.6286 23.5223 15.1661 23.4566 14.0099ZM21.9629 21.0255C21.7191 21.638 21.2473 22.1099 20.6316 22.3567C19.7098 22.7224 17.5223 22.638 16.5035 22.638C15.4848 22.638 13.2941 22.7192 12.3754 22.3567C11.7629 22.113 11.291 21.6411 11.0441 21.0255C10.6785 20.1036 10.7629 17.9161 10.7629 16.8974C10.7629 15.8786 10.6816 13.688 11.0441 12.7692C11.2879 12.1567 11.7598 11.6849 12.3754 11.438C13.2973 11.0724 15.4848 11.1567 16.5035 11.1567C17.5223 11.1567 19.7129 11.0755 20.6316 11.438C21.2441 11.6817 21.716 12.1536 21.9629 12.7692C22.3285 13.6911 22.2441 15.8786 22.2441 16.8974C22.2441 17.9161 22.3285 20.1067 21.9629 21.0255Z" fill="#FFF9F1"/>
</svg>
