<svg width="33" height="33" viewBox="0 0 33 33" fill="none" xmlns="http://www.w3.org/2000/svg">
<rect x="0.5" y="0.900391" width="32" height="32" rx="16" fill="#E5AD65"/>
<g clip-path="url(#clip0_4371_44214)">
<path d="M11.9783 24.4004H8.5V14.1731H11.9783V24.4004ZM10.2398 12.8095C9.27774 12.8095 8.5 12.0452 8.5 11.1043C8.5 10.1633 9.27913 9.40039 10.2398 9.40039C11.1984 9.40039 11.9783 10.1647 11.9783 11.1043C11.9783 12.0452 11.1984 12.8095 10.2398 12.8095ZM24.5 24.4004H21.156V19.4231C21.156 18.2361 21.133 16.7095 19.4176 16.7095C17.6763 16.7095 17.4085 18.0022 17.4085 19.3372V24.4004H14.0652V14.1656H17.275V15.564H17.3202C17.7668 14.7595 18.8583 13.9113 20.4861 13.9113C23.8739 13.9113 24.5 16.0311 24.5 18.787V24.4004Z" fill="#FFF9F1"/>
</g>
<defs>
<clipPath id="clip0_4371_44214">
<rect width="16" height="16" fill="white" transform="translate(8.5 8.90039)"/>
</clipPath>
</defs>
</svg>
