<svg width="33" height="33" viewBox="0 0 33 33" fill="none" xmlns="http://www.w3.org/2000/svg">
<rect x="0.5" y="0.900391" width="32" height="32" rx="16" fill="#E5AD65"/>
<path d="M8.68104 18.0608C8.64778 18.0608 8.62125 18.0865 8.61704 18.1236L8.5 19.0131L8.61704 19.8871C8.61746 19.9237 8.64778 19.9495 8.68104 19.9495C8.71346 19.9495 8.73956 19.9242 8.74503 19.8871L8.88355 19.0127L8.74503 18.1231C8.73998 18.0865 8.71346 18.0608 8.68104 18.0608ZM9.33909 17.5749C9.33362 17.5366 9.30625 17.5104 9.27257 17.5104C9.23889 17.5104 9.21068 17.5378 9.20605 17.5749C9.20605 17.5749 9.04859 19.0131 9.04859 19.0131L9.20605 20.4193C9.21068 20.4572 9.23847 20.4842 9.27257 20.4842C9.30625 20.4842 9.33362 20.4577 9.33909 20.4197L9.51803 19.0131L9.33909 17.5749ZM11.8172 16.2484C11.7528 16.2484 11.6993 16.301 11.6964 16.3685L11.5709 19.0144L11.6964 20.7244C11.6997 20.7914 11.7528 20.8441 11.8172 20.8441C11.8812 20.8441 11.9347 20.7914 11.9385 20.7244V20.7244L12.0799 19.0144L11.9385 16.3685C11.9347 16.3015 11.8816 16.2484 11.8172 16.2484V16.2484ZM10.5344 17.1679C10.4847 17.1679 10.4443 17.2075 10.4405 17.2602L10.2994 19.0132L10.4405 20.7072C10.4443 20.7598 10.4847 20.7994 10.5344 20.7994C10.5832 20.7994 10.624 20.7598 10.6283 20.7072L10.7887 19.0132L10.6283 17.2597C10.6278 17.2071 10.5836 17.1675 10.5344 17.1675V17.1679ZM13.1207 20.8429C13.2007 20.8429 13.2659 20.7784 13.2689 20.6958L13.3918 19.0148L13.2693 15.4924C13.2659 15.4098 13.2011 15.3453 13.1211 15.3453C13.0403 15.3453 12.975 15.4102 12.9725 15.4928L12.8634 19.0148L12.9725 20.6966C12.975 20.7788 13.0403 20.8433 13.1207 20.8433V20.8429ZM15.7891 20.8509C15.8994 20.8509 15.9899 20.7603 15.992 20.6486V20.6499V20.6486L16.0779 19.0157L15.992 14.9476C15.9899 14.8363 15.899 14.7453 15.7891 14.7453C15.6788 14.7453 15.5879 14.8359 15.5862 14.948L15.5096 19.0148C15.5096 19.0174 15.5862 20.6503 15.5862 20.6503C15.5879 20.7607 15.6792 20.8517 15.7891 20.8517V20.8509ZM14.4448 20.8454C14.5408 20.8454 14.6178 20.7683 14.6204 20.6701V20.6713L14.7248 19.0157L14.6204 15.4676C14.6178 15.3694 14.5404 15.2927 14.4448 15.2927C14.3484 15.2927 14.2709 15.3694 14.2688 15.4676L14.1762 19.0157L14.2692 20.6709C14.2713 20.7678 14.3484 20.845 14.4452 20.845L14.4448 20.8454ZM11.1739 20.8294C11.2307 20.8294 11.277 20.7839 11.2813 20.7236L11.4324 19.0136L11.2813 17.3866C11.2808 17.3263 11.2312 17.2812 11.1739 17.2812C11.1162 17.2812 11.0699 17.3267 11.0665 17.3874L10.9335 19.0136L11.0665 20.7236C11.0703 20.7839 11.1162 20.8294 11.1739 20.8294ZM9.90242 20.7358C9.9441 20.7358 9.97778 20.7029 9.98241 20.6574L10.1521 19.0132L9.98241 17.3069C9.97736 17.2614 9.94368 17.2286 9.90199 17.2286C9.85989 17.2286 9.82621 17.2614 9.822 17.3069L9.67254 19.0132L9.822 20.657C9.82242 20.7025 9.85989 20.7358 9.90199 20.7358H9.90242ZM15.1155 15.4081C15.0115 15.4081 14.9281 15.4912 14.926 15.5969L14.8414 19.0153L14.926 20.6604C14.9281 20.7649 15.0115 20.8479 15.1155 20.8479C15.2195 20.8479 15.3024 20.7653 15.3049 20.6591V20.6604L15.4001 19.0153L15.3049 15.5961C15.3024 15.4903 15.2195 15.4077 15.1155 15.4077V15.4081ZM12.4677 20.8462C12.5397 20.8462 12.599 20.7876 12.6024 20.7126L12.7346 19.0144L12.6024 15.7634C12.5986 15.6884 12.5397 15.6298 12.4677 15.6298C12.3953 15.6298 12.3359 15.6884 12.333 15.7634L12.2159 19.0144L12.333 20.7126C12.3359 20.7868 12.3953 20.8454 12.4677 20.8454V20.8462ZM13.9434 20.6852V20.6844L14.057 19.014L13.9434 15.3727C13.9408 15.2821 13.8693 15.2113 13.7813 15.2113C13.6929 15.2113 13.6217 15.2821 13.6192 15.3727L13.5186 19.0136L13.6196 20.6848C13.6221 20.7746 13.6933 20.845 13.7817 20.845C13.8697 20.845 13.9408 20.7742 13.9438 20.684L13.9434 20.6852ZM22.5322 16.915C22.2627 16.915 22.0055 16.9698 21.771 17.068C21.6143 15.2927 20.1273 13.9004 18.3131 13.9004C17.8694 13.9004 17.4366 13.988 17.0543 14.1359C16.9057 14.1933 16.8661 14.2527 16.8648 14.3677V20.6191C16.8665 20.7396 16.96 20.8399 17.0774 20.8521C17.0825 20.8522 22.4972 20.8555 22.5322 20.8555C23.6188 20.8555 24.5 19.9735 24.5 18.8859C24.5 17.7979 23.6192 16.9159 22.5322 16.9159V16.915ZM16.4623 14.3622C16.344 14.3622 16.2472 14.4592 16.2455 14.5788L16.1567 19.0157L16.2455 20.6258C16.2472 20.7434 16.344 20.8403 16.4623 20.8403C16.5802 20.8403 16.677 20.7434 16.6791 20.6241V20.6263L16.7756 19.0157L16.6791 14.5784C16.6775 14.4596 16.5802 14.3622 16.4623 14.3622Z" fill="#FFF9F1"/>
</svg>
