<svg width="33" height="33" viewBox="0 0 33 33" fill="none" xmlns="http://www.w3.org/2000/svg">
<rect x="0.5" y="0.900391" width="32" height="32" rx="16" fill="#E5AD65"/>
<path fill-rule="evenodd" clip-rule="evenodd" d="M11.0549 23.4458H22.2568C22.533 23.4458 22.7568 23.2219 22.7568 22.9458V21.4318L24.6681 14.3361C24.7371 14.0799 24.5939 13.8144 24.342 13.7312L21.7397 12.8724V10.855C21.7397 10.5788 21.5159 10.355 21.2397 10.355H12.0685C11.7924 10.355 11.5685 10.5788 11.5685 10.855V12.8724L8.93257 14.1773C8.69824 14.2933 8.59285 14.5703 8.6908 14.8127L10.5514 19.4178V22.9423C10.5514 23.2204 10.7768 23.4458 11.0549 23.4458ZM13.3515 17.7411V17.0474H15.1798C15.1987 17.1596 15.2104 17.2761 15.2104 17.397C15.2104 18.4517 14.4727 19.2013 13.3513 19.2013C12.2787 19.2013 11.4095 18.3748 11.4095 17.3551C11.4095 16.3354 12.279 15.5089 13.3513 15.5089C13.8751 15.5089 14.314 15.6918 14.6505 15.99L14.0964 16.5164C13.894 16.3331 13.6378 16.2395 13.3515 16.2395C12.7159 16.2395 12.2005 16.7506 12.2005 17.3549C12.2005 17.9592 12.7159 18.4703 13.3515 18.4703C13.9212 18.4703 14.312 18.1638 14.3986 17.7411H13.3515ZM16.1023 16.2781H19.1768C19.2661 16.2781 19.3385 16.2091 19.3385 16.1242V15.6627C19.3385 15.5777 19.2661 15.5089 19.1768 15.5089H16.1023V16.2781ZM16.1023 19.2011H19.1768C19.2661 19.2011 19.3385 19.1322 19.3385 19.0471V18.5856C19.3385 18.5007 19.2661 18.4318 19.1768 18.4318H16.1023V19.2011ZM16.1023 17.7395H19.6622C19.7515 17.7395 19.8239 17.6707 19.8239 17.5855V17.124C19.8239 17.0391 19.7515 16.9703 19.6622 16.9703H16.1023V17.7395Z" fill="#FFF9F1"/>
</svg>
