<svg width="33" height="33" viewBox="0 0 33 33" fill="none" xmlns="http://www.w3.org/2000/svg">
<rect x="0.5" y="0.900391" width="32" height="32" rx="16" fill="#E5AD65"/>
<path d="M15.7931 8.9539C13.1982 9.25071 10.6124 11.4018 10.5056 14.4746C10.4386 16.3507 10.9585 17.7582 12.7011 18.1534C13.4574 16.7866 12.4572 16.4851 12.3017 15.4962C11.6628 11.444 16.8634 8.68052 19.5849 11.5096C21.4679 13.4685 20.2283 19.4953 17.1912 18.8689C14.2822 18.2706 18.6153 13.4732 16.2932 12.5312C14.4057 11.7658 13.4025 14.8729 14.2974 16.4163C13.773 19.0704 12.6432 21.5714 13.1006 24.9004C14.5841 23.7975 15.0842 21.6855 15.4943 19.4828C16.2399 19.9468 16.6378 20.4295 17.5892 20.5045C21.0974 20.7825 23.0566 16.9162 22.5778 13.3498C22.1524 10.188 19.0727 8.57898 15.7931 8.9539Z" fill="#FFF9F1"/>
</svg>
