<svg width="33" height="33" viewBox="0 0 33 33" fill="none" xmlns="http://www.w3.org/2000/svg">
<rect x="0.5" y="0.900391" width="32" height="32" rx="16" fill="#E5AD65"/>
<g clip-path="url(#clip0_4371_44212)">
<path d="M23.7675 13.2361C23.593 12.5792 23.0789 12.0618 22.4262 11.8862C21.2432 11.5671 16.4993 11.5671 16.4993 11.5671C16.4993 11.5671 11.7554 11.5671 10.5723 11.8862C9.91959 12.0618 9.40553 12.5792 9.23106 13.2361C8.91406 14.4269 8.91406 16.9112 8.91406 16.9112C8.91406 16.9112 8.91406 19.3956 9.23106 20.5864C9.40553 21.2433 9.91959 21.7392 10.5723 21.9148C11.7554 22.2338 16.4993 22.2338 16.4993 22.2338C16.4993 22.2338 21.2431 22.2338 22.4262 21.9148C23.0789 21.7392 23.593 21.2433 23.7675 20.5864C24.0845 19.3956 24.0845 16.9112 24.0845 16.9112C24.0845 16.9112 24.0845 14.4269 23.7675 13.2361ZM14.9477 19.1669V14.6556L18.9127 16.9113L14.9477 19.1669Z" fill="#FFF9F1"/>
</g>
<defs>
<clipPath id="clip0_4371_44212">
<rect width="16" height="16" fill="white" transform="translate(8.5 8.90039)"/>
</clipPath>
</defs>
</svg>
