<svg width="49" height="48" viewBox="0 0 49 48" fill="none" xmlns="http://www.w3.org/2000/svg">
<path opacity="0.15" d="M6.91016 44.3502C6.91016 44.5669 7.36514 44.7814 8.24912 44.9816C9.1331 45.1818 10.4288 45.3637 12.0621 45.5169C13.6955 45.6701 15.6346 45.7917 17.7688 45.8746C19.9029 45.9575 22.1902 46.0002 24.5002 46.0002C26.8101 46.0002 29.0974 45.9575 31.2316 45.8746C33.3657 45.7917 35.3048 45.6701 36.9382 45.5169C38.5715 45.3637 39.8672 45.1818 40.7512 44.9816C41.6352 44.7814 42.0902 44.5669 42.0902 44.3502C42.0902 43.9126 40.2369 43.4929 36.9382 43.1835C33.6394 42.874 29.1653 42.7002 24.5002 42.7002C19.835 42.7002 15.3609 42.874 12.0621 43.1835C8.76338 43.4929 6.91016 43.9126 6.91016 44.3502Z" fill="#CB8020"/>
<path d="M9.10938 35.7998H39.8894V40.1998C39.8894 41.075 39.5417 41.9144 38.9228 42.5333C38.304 43.1521 37.4646 43.4998 36.5894 43.4998H12.4094C11.5342 43.4998 10.6948 43.1521 10.0759 42.5333C9.45705 41.9144 9.10938 41.075 9.10938 40.1998V35.7998Z" fill="#FAE4C8" stroke="#45413C" stroke-width="0.5" stroke-linecap="round" stroke-linejoin="round"/>
<path d="M9.10938 33.6001H39.8894V38.0001C39.8894 38.8753 39.5417 39.7147 38.9228 40.3336C38.304 40.9524 37.4646 41.3001 36.5894 41.3001H12.4094C11.5342 41.3001 10.6948 40.9524 10.0759 40.3336C9.45705 39.7147 9.10938 38.8753 9.10938 38.0001V33.6001Z" fill="#FAE4C8" stroke="#45413C" stroke-width="0.5" stroke-linecap="round" stroke-linejoin="round"/>
<path d="M9.10938 16H39.8894V35.8C39.8894 36.6752 39.5417 37.5146 38.9228 38.1335C38.304 38.7523 37.4646 39.1 36.5894 39.1H12.4094C11.5342 39.1 10.6948 38.7523 10.0759 38.1335C9.45705 37.5146 9.10938 36.6752 9.10938 35.8V16Z" fill="white" stroke="#45413C" stroke-width="0.5" stroke-linecap="round" stroke-linejoin="round"/>
<path d="M12.4095 6.66992H36.5895C37.4647 6.66992 38.3041 7.0176 38.923 7.63647C39.5418 8.25534 39.8895 9.09471 39.8895 9.96992V15.9699H9.10951V9.99992C9.10555 9.56404 9.18798 9.1317 9.35205 8.72785C9.51611 8.32401 9.75856 7.95667 10.0654 7.64705C10.3722 7.33743 10.7373 7.09167 11.1397 6.92396C11.542 6.75624 11.9736 6.6699 12.4095 6.66992Z" fill="#CB8020"/>
<path d="M36.5896 6.66994H12.4096C11.9733 6.66858 11.5412 6.75401 11.1382 6.92125C10.7353 7.08849 10.3696 7.3342 10.0625 7.64409C9.7554 7.95398 9.513 8.32185 9.34941 8.7263C9.18582 9.13075 9.10431 9.56369 9.10962 9.99994V12.7499C9.1083 12.3162 9.19275 11.8865 9.35813 11.4855C9.5235 11.0846 9.76653 10.7202 10.0732 10.4135C10.3799 10.1068 10.7442 9.86382 11.1452 9.69845C11.5462 9.53307 11.9759 9.44862 12.4096 9.44994H36.5896C37.0234 9.44862 37.4531 9.53307 37.854 9.69845C38.255 9.86382 38.6193 10.1068 38.926 10.4135C39.2327 10.7202 39.4757 11.0846 39.6411 11.4855C39.8065 11.8865 39.8909 12.3162 39.8896 12.7499V9.99994C39.8949 9.56369 39.8134 9.13075 39.6498 8.7263C39.4862 8.32185 39.2438 7.95398 38.9367 7.64409C38.6296 7.3342 38.264 7.08849 37.861 6.92125C37.4581 6.75401 37.0259 6.66858 36.5896 6.66994Z" fill="#FAE4C8"/>
<path d="M12.4095 6.66992H36.5895C37.4647 6.66992 38.3041 7.0176 38.923 7.63647C39.5418 8.25534 39.8895 9.09471 39.8895 9.96992V15.9699H9.10951V9.99992C9.10555 9.56404 9.18798 9.1317 9.35205 8.72785C9.51611 8.32401 9.75856 7.95667 10.0654 7.64705C10.3722 7.33743 10.7373 7.09167 11.1397 6.92396C11.542 6.75624 11.9736 6.6699 12.4095 6.66992Z" stroke="#45413C" stroke-width="0.5" stroke-linecap="round" stroke-linejoin="round"/>
<path d="M15.6996 9.4199C15.4087 9.41729 15.1304 9.30056 14.9247 9.09484C14.7189 8.88911 14.6022 8.61083 14.5996 8.3199V4.9999C14.5996 4.70816 14.7155 4.42838 14.9218 4.22208C15.1281 4.01579 15.4079 3.8999 15.6996 3.8999C15.9913 3.8999 16.2711 4.01579 16.4774 4.22208C16.6837 4.42838 16.7996 4.70816 16.7996 4.9999V8.2999C16.8023 8.44603 16.7758 8.59122 16.7217 8.727C16.6676 8.86277 16.587 8.98641 16.4846 9.09068C16.3822 9.19495 16.26 9.27777 16.1252 9.3343C15.9905 9.39083 15.8458 9.41993 15.6996 9.4199ZM24.4996 9.4199C24.2079 9.4199 23.9281 9.30401 23.7218 9.09772C23.5155 8.89143 23.3996 8.61164 23.3996 8.3199V4.9999C23.4049 4.71164 23.5231 4.43697 23.7288 4.23498C23.9345 4.033 24.2113 3.91985 24.4996 3.9199C24.7879 3.91985 25.0647 4.033 25.2704 4.23498C25.4762 4.43697 25.5944 4.71164 25.5996 4.9999V8.2999C25.6023 8.44603 25.5758 8.59122 25.5217 8.727C25.4676 8.86277 25.387 8.98641 25.2846 9.09068C25.1822 9.19495 25.06 9.27777 24.9252 9.3343C24.7905 9.39083 24.6458 9.41993 24.4996 9.4199ZM33.2996 9.4199C33.0079 9.4199 32.7281 9.30401 32.5218 9.09772C32.3155 8.89143 32.1996 8.61164 32.1996 8.3199V4.9999C32.1996 4.70816 32.3155 4.42838 32.5218 4.22208C32.7281 4.01579 33.0079 3.8999 33.2996 3.8999C33.5913 3.8999 33.8711 4.01579 34.0774 4.22208C34.2837 4.42838 34.3996 4.70816 34.3996 4.9999V8.2999C34.4009 8.44567 34.3735 8.59027 34.319 8.72545C34.2644 8.86063 34.1837 8.98373 34.0816 9.08773C33.9794 9.19174 33.8578 9.2746 33.7236 9.33159C33.5895 9.38859 33.4454 9.41859 33.2996 9.4199Z" fill="#FFF9F1"/>
<path d="M15.6996 3.91992C15.4113 3.91987 15.1345 4.03302 14.9288 4.235C14.7231 4.43699 14.6049 4.71166 14.5996 4.99992V6.66992C14.5996 6.37818 14.7155 6.09839 14.9218 5.8921C15.1281 5.68581 15.4079 5.56992 15.6996 5.56992C15.9913 5.56992 16.2711 5.68581 16.4774 5.8921C16.6837 6.09839 16.7996 6.37818 16.7996 6.66992V4.99992C16.7944 4.71166 16.6762 4.43699 16.4704 4.235C16.2647 4.03302 15.9879 3.91987 15.6996 3.91992ZM24.4996 3.91992C24.2113 3.91987 23.9345 4.03302 23.7288 4.235C23.5231 4.43699 23.4049 4.71166 23.3996 4.99992V6.66992C23.3996 6.37818 23.5155 6.09839 23.7218 5.8921C23.9281 5.68581 24.2079 5.56992 24.4996 5.56992C24.7913 5.56992 25.0711 5.68581 25.2774 5.8921C25.4837 6.09839 25.5996 6.37818 25.5996 6.66992V4.99992C25.5944 4.71166 25.4762 4.43699 25.2704 4.235C25.0647 4.03302 24.7879 3.91987 24.4996 3.91992ZM33.2996 3.91992C33.0113 3.91987 32.7345 4.03302 32.5288 4.235C32.3231 4.43699 32.2049 4.71166 32.1996 4.99992V6.66992C32.1996 6.37818 32.3155 6.09839 32.5218 5.8921C32.7281 5.68581 33.0079 5.56992 33.2996 5.56992C33.5913 5.56992 33.8711 5.68581 34.0774 5.8921C34.2837 6.09839 34.3996 6.37818 34.3996 6.66992V4.99992C34.3944 4.71166 34.2762 4.43699 34.0704 4.235C33.8647 4.03302 33.5879 3.91987 33.2996 3.91992Z" fill="white"/>
<path d="M15.6996 9.4199C15.4087 9.41729 15.1304 9.30056 14.9247 9.09484C14.7189 8.88911 14.6022 8.61083 14.5996 8.3199V4.9999C14.5996 4.70816 14.7155 4.42838 14.9218 4.22208C15.1281 4.01579 15.4079 3.8999 15.6996 3.8999C15.9913 3.8999 16.2711 4.01579 16.4774 4.22208C16.6837 4.42838 16.7996 4.70816 16.7996 4.9999V8.2999C16.8023 8.44603 16.7758 8.59122 16.7217 8.727C16.6676 8.86277 16.587 8.98641 16.4846 9.09068C16.3822 9.19495 16.26 9.27777 16.1252 9.3343C15.9905 9.39083 15.8458 9.41993 15.6996 9.4199ZM24.4996 9.4199C24.2079 9.4199 23.9281 9.30401 23.7218 9.09772C23.5155 8.89143 23.3996 8.61164 23.3996 8.3199V4.9999C23.4049 4.71164 23.5231 4.43697 23.7288 4.23498C23.9345 4.033 24.2113 3.91985 24.4996 3.9199C24.7879 3.91985 25.0647 4.033 25.2704 4.23498C25.4762 4.43697 25.5944 4.71164 25.5996 4.9999V8.2999C25.6023 8.44603 25.5758 8.59122 25.5217 8.727C25.4676 8.86277 25.387 8.98641 25.2846 9.09068C25.1822 9.19495 25.06 9.27777 24.9252 9.3343C24.7905 9.39083 24.6458 9.41993 24.4996 9.4199ZM33.2996 9.4199C33.0079 9.4199 32.7281 9.30401 32.5218 9.09772C32.3155 8.89143 32.1996 8.61164 32.1996 8.3199V4.9999C32.1996 4.70816 32.3155 4.42838 32.5218 4.22208C32.7281 4.01579 33.0079 3.8999 33.2996 3.8999C33.5913 3.8999 33.8711 4.01579 34.0774 4.22208C34.2837 4.42838 34.3996 4.70816 34.3996 4.9999V8.2999C34.4009 8.44567 34.3735 8.59027 34.319 8.72545C34.2644 8.86063 34.1837 8.98373 34.0816 9.08773C33.9794 9.19174 33.8578 9.2746 33.7236 9.33159C33.5895 9.38859 33.4454 9.4186 33.2996 9.4199Z" stroke="#45413C" stroke-width="0.5" stroke-linecap="round" stroke-linejoin="round"/>
<path d="M16.0078 24.0625C17.9141 24.0625 18.9766 25.2344 18.9766 27.0312C18.9766 28.7812 17.8672 30 16.0078 30H13.7422V24.0625H16.0078ZM15.9766 28.9844C17.1172 28.9844 17.7422 28.2344 17.7422 27.0312C17.7422 25.8281 17.1172 25.0781 15.9766 25.0781H14.9453V28.9844H15.9766ZM24.0234 29.0312H24.2109V30C24.1328 30.0156 24.0078 30.0312 23.8047 30.0312C23.2266 30.0312 22.9297 29.8125 22.8516 29.3125C22.5078 29.7812 21.8984 30.0781 21.2109 30.0781C20.3047 30.0781 19.6797 29.5312 19.6797 28.7031C19.6797 27.5156 20.8047 27.2812 21.6953 27.1719C22.3047 27.0938 22.6953 27.0156 22.6953 26.7031C22.6953 26.375 22.3516 26.1562 21.7891 26.1562C21.2891 26.1562 20.8359 26.3594 20.4609 26.7344L19.7891 26.0312C20.3359 25.5156 21.0234 25.2344 21.8516 25.2344C23.0391 25.2344 23.7422 25.8281 23.7422 26.7969V28.75C23.7422 28.9375 23.8359 29.0312 24.0234 29.0312ZM21.4453 29.1875C22.1172 29.1875 22.6641 28.7344 22.6641 28.1875V27.7031C22.4766 27.8125 22.2109 27.8594 21.8203 27.9219C21.2891 28.0156 20.7734 28.0938 20.7734 28.6094C20.7734 28.9688 21.0234 29.1875 21.4453 29.1875ZM28.3516 25.3125H29.5234L27.8516 30.0625C27.5078 31.0469 26.9297 31.6406 26.1016 31.6406C25.0234 31.6406 24.6484 30.9219 24.6172 30.2031L25.6484 30.0156C25.6641 30.3906 25.7734 30.6562 26.1328 30.6562C26.3359 30.6562 26.4922 30.5312 26.6484 30.2656L24.4609 25.3125H25.6953L27.1953 29.0156L28.3516 25.3125ZM33.9766 29.0312H36.7422V30H32.3828V29.2656L34.4766 27.4375C35.2422 26.7812 35.4922 26.3125 35.4922 25.8125C35.4922 25.2812 35.1172 24.9219 34.5547 24.9219C33.9141 24.9219 33.4922 25.3125 33.4609 26.1562L32.3984 25.9688C32.4922 24.7344 33.3516 23.9688 34.6328 23.9844C35.8203 24 36.6328 24.7031 36.6328 25.7188C36.6328 26.625 36.1016 27.2344 34.8984 28.25L33.9766 29.0312Z" fill="#45413C"/>
</svg>
