<svg width="48" height="48" viewBox="0 0 48 48" fill="none" xmlns="http://www.w3.org/2000/svg">
<path opacity="0.15" d="M6.41016 44.3502C6.41016 44.5669 6.86514 44.7814 7.74912 44.9816C8.6331 45.1818 9.92877 45.3637 11.5621 45.5169C13.1955 45.6701 15.1346 45.7917 17.2688 45.8746C19.4029 45.9575 21.6902 46.0002 24.0002 46.0002C26.3101 46.0002 28.5974 45.9575 30.7316 45.8746C32.8657 45.7917 34.8048 45.6701 36.4382 45.5169C38.0715 45.3637 39.3672 45.1818 40.2512 44.9816C41.1352 44.7814 41.5902 44.5669 41.5902 44.3502C41.5902 43.9126 39.7369 43.4929 36.4382 43.1835C33.1394 42.874 28.6653 42.7002 24.0002 42.7002C19.335 42.7002 14.8609 42.874 11.5621 43.1835C8.26338 43.4929 6.41016 43.9126 6.41016 44.3502Z" fill="#CB8020"/>
<path d="M8.60938 35.7998H39.3894V40.1998C39.3894 41.075 39.0417 41.9144 38.4228 42.5333C37.804 43.1521 36.9646 43.4998 36.0894 43.4998H11.9094C11.0342 43.4998 10.1948 43.1521 9.57592 42.5333C8.95705 41.9144 8.60938 41.075 8.60938 40.1998V35.7998Z" fill="#FAE4C8" stroke="#45413C" stroke-width="0.5" stroke-linecap="round" stroke-linejoin="round"/>
<path d="M8.60938 33.6001H39.3894V38.0001C39.3894 38.8753 39.0417 39.7147 38.4228 40.3336C37.804 40.9524 36.9646 41.3001 36.0894 41.3001H11.9094C11.0342 41.3001 10.1948 40.9524 9.57592 40.3336C8.95705 39.7147 8.60938 38.8753 8.60938 38.0001V33.6001Z" fill="#FAE4C8" stroke="#45413C" stroke-width="0.5" stroke-linecap="round" stroke-linejoin="round"/>
<path d="M8.60938 16H39.3894V35.8C39.3894 36.6752 39.0417 37.5146 38.4228 38.1335C37.804 38.7523 36.9646 39.1 36.0894 39.1H11.9094C11.0342 39.1 10.1948 38.7523 9.57592 38.1335C8.95705 37.5146 8.60938 36.6752 8.60938 35.8V16Z" fill="white" stroke="#45413C" stroke-width="0.5" stroke-linecap="round" stroke-linejoin="round"/>
<path d="M11.9095 6.66992H36.0895C36.9647 6.66992 37.8041 7.0176 38.423 7.63647C39.0418 8.25534 39.3895 9.09471 39.3895 9.96992V15.9699H8.60951V9.99992C8.60555 9.56404 8.68798 9.1317 8.85205 8.72785C9.01611 8.32401 9.25856 7.95667 9.56539 7.64705C9.87222 7.33743 10.2373 7.09167 10.6397 6.92396C11.042 6.75624 11.4736 6.6699 11.9095 6.66992Z" fill="#CB8020"/>
<path d="M36.0896 6.66994H11.9096C11.4733 6.66858 11.0412 6.75401 10.6382 6.92125C10.2353 7.08849 9.86959 7.3342 9.56249 7.64409C9.2554 7.95398 9.013 8.32185 8.84941 8.7263C8.68582 9.13075 8.60431 9.56369 8.60962 9.99994V12.7499C8.6083 12.3162 8.69275 11.8865 8.85813 11.4855C9.0235 11.0846 9.26653 10.7202 9.57322 10.4135C9.87992 10.1068 10.2442 9.86382 10.6452 9.69845C11.0462 9.53307 11.4759 9.44862 11.9096 9.44994H36.0896C36.5234 9.44862 36.9531 9.53307 37.354 9.69845C37.755 9.86382 38.1193 10.1068 38.426 10.4135C38.7327 10.7202 38.9757 11.0846 39.1411 11.4855C39.3065 11.8865 39.3909 12.3162 39.3896 12.7499V9.99994C39.3949 9.56369 39.3134 9.13075 39.1498 8.7263C38.9862 8.32185 38.7438 7.95398 38.4367 7.64409C38.1296 7.3342 37.764 7.08849 37.361 6.92125C36.9581 6.75401 36.5259 6.66858 36.0896 6.66994Z" fill="#FAE4C8"/>
<path d="M11.9095 6.66992H36.0895C36.9647 6.66992 37.8041 7.0176 38.423 7.63647C39.0418 8.25534 39.3895 9.09471 39.3895 9.96992V15.9699H8.60951V9.99992C8.60555 9.56404 8.68798 9.1317 8.85205 8.72785C9.01611 8.32401 9.25856 7.95667 9.56539 7.64705C9.87222 7.33743 10.2373 7.09167 10.6397 6.92396C11.042 6.75624 11.4736 6.6699 11.9095 6.66992Z" stroke="#45413C" stroke-width="0.5" stroke-linecap="round" stroke-linejoin="round"/>
<path d="M15.1996 9.4199C14.9087 9.41729 14.6304 9.30056 14.4247 9.09484C14.2189 8.88911 14.1022 8.61083 14.0996 8.3199V4.9999C14.0996 4.70816 14.2155 4.42838 14.4218 4.22208C14.6281 4.01579 14.9079 3.8999 15.1996 3.8999C15.4913 3.8999 15.7711 4.01579 15.9774 4.22208C16.1837 4.42838 16.2996 4.70816 16.2996 4.9999V8.2999C16.3023 8.44603 16.2758 8.59122 16.2217 8.727C16.1676 8.86277 16.087 8.98641 15.9846 9.09068C15.8822 9.19495 15.76 9.27777 15.6252 9.3343C15.4905 9.39083 15.3458 9.41993 15.1996 9.4199ZM23.9996 9.4199C23.7079 9.4199 23.4281 9.30401 23.2218 9.09772C23.0155 8.89143 22.8996 8.61164 22.8996 8.3199V4.9999C22.9049 4.71164 23.0231 4.43697 23.2288 4.23498C23.4345 4.033 23.7113 3.91985 23.9996 3.9199C24.2879 3.91985 24.5647 4.033 24.7704 4.23498C24.9762 4.43697 25.0944 4.71164 25.0996 4.9999V8.2999C25.1023 8.44603 25.0758 8.59122 25.0217 8.727C24.9676 8.86277 24.887 8.98641 24.7846 9.09068C24.6822 9.19495 24.56 9.27777 24.4252 9.3343C24.2905 9.39083 24.1458 9.41993 23.9996 9.4199ZM32.7996 9.4199C32.5079 9.4199 32.2281 9.30401 32.0218 9.09772C31.8155 8.89143 31.6996 8.61164 31.6996 8.3199V4.9999C31.6996 4.70816 31.8155 4.42838 32.0218 4.22208C32.2281 4.01579 32.5079 3.8999 32.7996 3.8999C33.0913 3.8999 33.3711 4.01579 33.5774 4.22208C33.7837 4.42838 33.8996 4.70816 33.8996 4.9999V8.2999C33.9009 8.44567 33.8735 8.59027 33.819 8.72545C33.7644 8.86063 33.6837 8.98373 33.5816 9.08773C33.4794 9.19174 33.3578 9.2746 33.2236 9.33159C33.0895 9.38859 32.9454 9.41859 32.7996 9.4199Z" fill="#FFF9F1"/>
<path d="M15.1996 3.91992C14.9113 3.91987 14.6345 4.03302 14.4288 4.235C14.2231 4.43699 14.1049 4.71166 14.0996 4.99992V6.66992C14.0996 6.37818 14.2155 6.09839 14.4218 5.8921C14.6281 5.68581 14.9079 5.56992 15.1996 5.56992C15.4913 5.56992 15.7711 5.68581 15.9774 5.8921C16.1837 6.09839 16.2996 6.37818 16.2996 6.66992V4.99992C16.2944 4.71166 16.1762 4.43699 15.9704 4.235C15.7647 4.03302 15.4879 3.91987 15.1996 3.91992ZM23.9996 3.91992C23.7113 3.91987 23.4345 4.03302 23.2288 4.235C23.0231 4.43699 22.9049 4.71166 22.8996 4.99992V6.66992C22.8996 6.37818 23.0155 6.09839 23.2218 5.8921C23.4281 5.68581 23.7079 5.56992 23.9996 5.56992C24.2913 5.56992 24.5711 5.68581 24.7774 5.8921C24.9837 6.09839 25.0996 6.37818 25.0996 6.66992V4.99992C25.0944 4.71166 24.9762 4.43699 24.7704 4.235C24.5647 4.03302 24.2879 3.91987 23.9996 3.91992ZM32.7996 3.91992C32.5113 3.91987 32.2345 4.03302 32.0288 4.235C31.8231 4.43699 31.7049 4.71166 31.6996 4.99992V6.66992C31.6996 6.37818 31.8155 6.09839 32.0218 5.8921C32.2281 5.68581 32.5079 5.56992 32.7996 5.56992C33.0913 5.56992 33.3711 5.68581 33.5774 5.8921C33.7837 6.09839 33.8996 6.37818 33.8996 6.66992V4.99992C33.8944 4.71166 33.7762 4.43699 33.5704 4.235C33.3647 4.03302 33.0879 3.91987 32.7996 3.91992Z" fill="white"/>
<path d="M15.1996 9.4199C14.9087 9.41729 14.6304 9.30056 14.4247 9.09484C14.2189 8.88911 14.1022 8.61083 14.0996 8.3199V4.9999C14.0996 4.70816 14.2155 4.42838 14.4218 4.22208C14.6281 4.01579 14.9079 3.8999 15.1996 3.8999C15.4913 3.8999 15.7711 4.01579 15.9774 4.22208C16.1837 4.42838 16.2996 4.70816 16.2996 4.9999V8.2999C16.3023 8.44603 16.2758 8.59122 16.2217 8.727C16.1676 8.86277 16.087 8.98641 15.9846 9.09068C15.8822 9.19495 15.76 9.27777 15.6252 9.3343C15.4905 9.39083 15.3458 9.41993 15.1996 9.4199ZM23.9996 9.4199C23.7079 9.4199 23.4281 9.30401 23.2218 9.09772C23.0155 8.89143 22.8996 8.61164 22.8996 8.3199V4.9999C22.9049 4.71164 23.0231 4.43697 23.2288 4.23498C23.4345 4.033 23.7113 3.91985 23.9996 3.9199C24.2879 3.91985 24.5647 4.033 24.7704 4.23498C24.9762 4.43697 25.0944 4.71164 25.0996 4.9999V8.2999C25.1023 8.44603 25.0758 8.59122 25.0217 8.727C24.9676 8.86277 24.887 8.98641 24.7846 9.09068C24.6822 9.19495 24.56 9.27777 24.4252 9.3343C24.2905 9.39083 24.1458 9.41993 23.9996 9.4199ZM32.7996 9.4199C32.5079 9.4199 32.2281 9.30401 32.0218 9.09772C31.8155 8.89143 31.6996 8.61164 31.6996 8.3199V4.9999C31.6996 4.70816 31.8155 4.42838 32.0218 4.22208C32.2281 4.01579 32.5079 3.8999 32.7996 3.8999C33.0913 3.8999 33.3711 4.01579 33.5774 4.22208C33.7837 4.42838 33.8996 4.70816 33.8996 4.9999V8.2999C33.9009 8.44567 33.8735 8.59027 33.819 8.72545C33.7644 8.86063 33.6837 8.98373 33.5816 9.08773C33.4794 9.19174 33.3578 9.2746 33.2236 9.33159C33.0895 9.38859 32.9454 9.4186 32.7996 9.4199Z" stroke="#45413C" stroke-width="0.5" stroke-linecap="round" stroke-linejoin="round"/>
<path d="M15.1719 24.0625C17.0781 24.0625 18.1406 25.2344 18.1406 27.0312C18.1406 28.7812 17.0312 30 15.1719 30H12.9062V24.0625H15.1719ZM15.1406 28.9844C16.2812 28.9844 16.9062 28.2344 16.9062 27.0312C16.9062 25.8281 16.2812 25.0781 15.1406 25.0781H14.1094V28.9844H15.1406ZM23.1875 29.0312H23.375V30C23.2969 30.0156 23.1719 30.0312 22.9688 30.0312C22.3906 30.0312 22.0938 29.8125 22.0156 29.3125C21.6719 29.7812 21.0625 30.0781 20.375 30.0781C19.4688 30.0781 18.8438 29.5312 18.8438 28.7031C18.8438 27.5156 19.9688 27.2812 20.8594 27.1719C21.4688 27.0938 21.8594 27.0156 21.8594 26.7031C21.8594 26.375 21.5156 26.1562 20.9531 26.1562C20.4531 26.1562 20 26.3594 19.625 26.7344L18.9531 26.0312C19.5 25.5156 20.1875 25.2344 21.0156 25.2344C22.2031 25.2344 22.9062 25.8281 22.9062 26.7969V28.75C22.9062 28.9375 23 29.0312 23.1875 29.0312ZM20.6094 29.1875C21.2812 29.1875 21.8281 28.7344 21.8281 28.1875V27.7031C21.6406 27.8125 21.375 27.8594 20.9844 27.9219C20.4531 28.0156 19.9375 28.0938 19.9375 28.6094C19.9375 28.9688 20.1875 29.1875 20.6094 29.1875ZM27.5156 25.3125H28.6875L27.0156 30.0625C26.6719 31.0469 26.0938 31.6406 25.2656 31.6406C24.1875 31.6406 23.8125 30.9219 23.7812 30.2031L24.8125 30.0156C24.8281 30.3906 24.9375 30.6562 25.2969 30.6562C25.5 30.6562 25.6562 30.5312 25.8125 30.2656L23.625 25.3125H24.8594L26.3594 29.0156L27.5156 25.3125ZM31.4688 24.0625H35.7969V24.9219C34.5625 26.0781 33.7969 27.9688 33.7969 30H32.6719C32.6719 28.1094 33.4688 26.2188 34.5781 25.0781H31.4688V24.0625Z" fill="#45413C"/>
</svg>
