<svg xmlns="http://www.w3.org/2000/svg" viewBox="0 0 30 30"><defs><style>.cls-1{fill:none;stroke:#cb8020;stroke-linecap:round;stroke-linejoin:round;stroke-width:1.5px;}</style></defs><title>all2</title><g id="Layer_1" data-name="Layer 1"><path class="cls-1" d="M15.52,15.24l.51,1a.61.61,0,0,0,.17.19.48.48,0,0,0,.24.11l.93.16c.6.1.74.54.31,1l-.72.73a.69.69,0,0,0-.14.25.71.71,0,0,0,0,.29l.21.9c.16.71-.21,1-.84.62L15.3,20a.64.64,0,0,0-.58,0l-.87.52c-.62.37-1,.09-.84-.62l.21-.9a.71.71,0,0,0,0-.29.67.67,0,0,0-.13-.25l-.73-.73c-.42-.42-.29-.86.31-1l.93-.16a.53.53,0,0,0,.24-.11.61.61,0,0,0,.17-.19l.51-1C14.78,14.68,15.24,14.68,15.52,15.24Z"/><line class="cls-1" x1="7.93" y1="5" x2="7.93" y2="7.94"/><line class="cls-1" x1="22.07" y1="5" x2="22.07" y2="7.92"/><line class="cls-1" x1="5.1" y1="10.09" x2="24.93" y2="10.09"/><path class="cls-1" d="M17,5.73H13c-2.8,0-4.2,0-5.27.53a4.87,4.87,0,0,0-2.18,2.1C5,9.39,5,10.74,5,13.43v3.86c0,2.69,0,4,.55,5.07a4.87,4.87,0,0,0,2.18,2.1C8.81,25,10.21,25,13,25h4c2.8,0,4.2,0,5.27-.53a4.89,4.89,0,0,0,2.19-2.1c.54-1,.54-2.38.54-5.07V13.43c0-2.69,0-4-.54-5.07a4.89,4.89,0,0,0-2.19-2.1C21.21,5.73,19.81,5.73,17,5.73Z"/></g></svg>