<svg width="17" height="18" viewBox="0 0 17 18" fill="none" xmlns="http://www.w3.org/2000/svg">
<path d="M13.5007 0.666992V2.33366M3.50065 0.666992V2.33366M1.00065 5.66699H16.0007M0.583984 9.20283C0.583984 5.57199 0.583984 3.75616 1.62732 2.62783C2.67065 1.50033 4.35065 1.50033 7.70898 1.50033H9.29232C12.6507 1.50033 14.3307 1.50033 15.374 2.62866C16.4173 3.75616 16.4173 5.57199 16.4173 9.20366V9.63116C16.4173 13.262 16.4173 15.0778 15.374 16.2062C14.3307 17.3337 12.6507 17.3337 9.29232 17.3337H7.70898C4.35065 17.3337 2.67065 17.3337 1.62732 16.2053C0.583984 15.0778 0.583984 13.262 0.583984 9.63032V9.20283Z" stroke="#CB8020" stroke-linecap="round" stroke-linejoin="round"/>
<path d="M9.00442 9.00488L9.51775 10.0399C9.56117 10.1174 9.62041 10.1849 9.69162 10.238C9.76283 10.2911 9.84442 10.3287 9.93109 10.3482L10.8619 10.504C11.4569 10.604 11.5969 11.039 11.1678 11.4682L10.4453 12.1974C10.3817 12.2693 10.3351 12.3545 10.3088 12.4468C10.2826 12.5391 10.2774 12.6361 10.2936 12.7307L10.5003 13.6324C10.6636 14.3474 10.2878 14.624 9.66025 14.2499L8.78859 13.7299C8.69942 13.6834 8.60037 13.6592 8.49984 13.6592C8.3993 13.6592 8.30025 13.6834 8.21109 13.7299L7.33859 14.2499C6.71442 14.6232 6.33609 14.344 6.49859 13.6332L6.70609 12.7299C6.72216 12.6354 6.71689 12.5386 6.69064 12.4464C6.6644 12.3543 6.61785 12.2692 6.55442 12.1974L5.83109 11.4682C5.40609 11.039 5.54275 10.604 6.13775 10.504L7.06775 10.3482C7.15397 10.3284 7.23507 10.2907 7.30583 10.2376C7.37659 10.1845 7.43544 10.1171 7.47859 10.0399L7.99192 9.00488C8.27192 8.44238 8.72692 8.44238 9.00442 9.00488Z" stroke="#CB8020" stroke-linecap="round" stroke-linejoin="round"/>
</svg>
