<svg width="21" height="20" viewBox="0 0 21 20" fill="none" xmlns="http://www.w3.org/2000/svg">
<path fill-rule="evenodd" clip-rule="evenodd" d="M8.25 17.5599H18.25C18.5917 17.5599 18.875 17.2766 18.875 16.9349C18.875 16.5932 18.5917 16.3099 18.25 16.3099H8.24917C6.06583 16.3099 4.975 16.3099 4.425 15.7599C3.875 15.2099 3.875 14.1182 3.875 11.9349V3.60156C3.875 3.2599 3.59167 2.97656 3.25 2.97656C2.90833 2.97656 2.625 3.2599 2.625 3.60156V11.9349C2.625 14.4599 2.625 15.7266 3.54167 16.6432C4.45833 17.5599 5.725 17.5599 8.24917 17.5599H8.25ZM5.30833 12.3766C5.43333 12.5016 5.59167 12.5599 5.75 12.5599C5.90833 12.5599 6.06667 12.5016 6.19167 12.3766L8.9 9.66823C9.3 9.26823 9.59167 8.97656 9.75 8.9349C9.85833 8.90156 9.96667 8.90156 10.0917 8.9349C10.2417 8.97656 10.5333 9.26823 10.9333 9.66823C11.5333 10.2682 11.8583 10.5932 12.3167 10.7182C12.6583 10.8182 13.0167 10.8182 13.3417 10.7182C13.8083 10.5932 14.1333 10.2682 14.7333 9.66823L17.8583 6.54323C18.1 6.30156 18.1 5.90156 17.8583 5.6599C17.7407 5.54366 17.582 5.47848 17.4167 5.47848C17.2513 5.47848 17.0926 5.54366 16.975 5.6599L13.85 8.7849L13.8483 8.78573C13.4483 9.18573 13.1575 9.4774 12.9992 9.51906C12.8908 9.5524 12.7825 9.5524 12.6575 9.51906C12.5075 9.4774 12.2167 9.18573 11.8175 8.78573H11.8158C11.2158 8.18573 10.8908 7.86073 10.4325 7.73573C10.0908 7.63573 9.7325 7.63573 9.4075 7.73573C8.94083 7.86073 8.61583 8.18573 8.01583 8.78573L5.3075 11.4941C5.06583 11.7357 5.06583 12.1357 5.3075 12.3774" fill="#CB8020"/>
</svg>
