<svg xmlns="http://www.w3.org/2000/svg" viewBox="0 0 30 30"><defs><style>.cls-1{fill:none;stroke:#cb8020;stroke-linecap:round;stroke-linejoin:round;stroke-width:1.5px;}</style></defs><title>all2</title><g id="Layer_1" data-name="Layer 1"><path class="cls-1" d="M25,13.93a15.62,15.62,0,0,1-4.94,3"/><path class="cls-1" d="M20.06,17a18.17,18.17,0,0,1-1.72.61,3.27,3.27,0,0,0-2.25,3.2L16,24a1.29,1.29,0,0,0,1.21,1,3.66,3.66,0,0,0,3.1-1.14C21.33,22.55,21.28,19.53,20.06,17Z"/><path class="cls-1" d="M5,13.9A15.22,15.22,0,0,0,9.89,17"/><path class="cls-1" d="M9.89,17a18.17,18.17,0,0,0,1.72.61A3.29,3.29,0,0,1,14,20.66c0,1.51.12,2.37-.12,2.78a1.8,1.8,0,0,1-1.48.61,3.68,3.68,0,0,1-2.68-1.18C8.71,21.59,8.68,19.53,9.89,17Z"/><path class="cls-1" d="M10.47,11.81A1.5,1.5,0,0,1,9,13.32a1.46,1.46,0,0,1-1.06-.44,1.53,1.53,0,0,1-.45-1.07,1.51,1.51,0,1,1,3,0Z"/><path class="cls-1" d="M22.92,12.49A1.51,1.51,0,0,1,21.41,14a1.46,1.46,0,0,1-1.06-.44,1.52,1.52,0,0,1-.44-1.07,1.51,1.51,0,1,1,3,0Z"/><path class="cls-1" d="M12.21,5.37a2.07,2.07,0,0,1,2.4,0c.22.16.32.24.39.24s.17-.08.38-.24a2.08,2.08,0,0,1,2.41,0c1.31.79,1.61,3.4-1.42,5.61a2.21,2.21,0,0,1-1.37.63A2.21,2.21,0,0,1,13.63,11C10.59,8.77,10.89,6.16,12.21,5.37Z"/></g></svg>