<svg width="21" height="20" viewBox="0 0 21 20" fill="none" xmlns="http://www.w3.org/2000/svg">
<g clip-path="url(#clip0_4885_22680)">
<path d="M19.084 8.88084C18.3525 9.6241 16.7566 10.7345 14.6227 11.5952M14.6227 11.5952C14.1344 11.7924 13.6145 11.975 13.0674 12.136C12.3875 12.3738 10.9733 13.1957 11.0258 15.0086L10.9661 17.8568C10.9661 18.1688 11.3413 18.6679 12.0611 18.7701C12.949 18.8967 14.2628 18.5187 14.8659 17.7483C15.7665 16.6 15.7186 13.8901 14.6227 11.5952ZM1 8.85191C1.7315 9.59516 3.28401 10.7335 5.41792 11.5952M5.41792 11.5952C5.90619 11.7924 6.4261 11.975 6.97314 12.136C8.19019 12.4922 9.07992 13.5465 9.12875 14.9028C9.17758 16.2591 9.23725 17.0322 9.01573 17.3957C8.79329 17.7601 8.26976 17.9111 7.68565 17.9418C7.10154 17.9726 5.85917 17.6561 5.25516 16.8866C4.35548 15.7365 4.32293 13.8901 5.41792 11.5952ZM8.21189 8.39438C8.21189 9.14397 7.60246 9.75068 6.85017 9.75068C6.48989 9.75116 6.14417 9.60857 5.88899 9.35424C5.63381 9.09991 5.49007 8.75466 5.48935 8.39438C5.48935 7.64571 6.09878 7.03809 6.85017 7.03809C7.60246 7.03809 8.21189 7.64571 8.21189 8.39438ZM14.5621 8.39438C14.5621 9.14397 13.9527 9.75068 13.2013 9.75068C12.841 9.75116 12.4953 9.60857 12.2401 9.35424C11.9849 9.09991 11.8412 8.75466 11.8404 8.39438C11.8404 7.64571 12.4499 7.03809 13.2013 7.03809C13.9536 7.03809 14.5621 7.64571 14.5621 8.39438Z" stroke="#CB8020" stroke-linecap="round" stroke-linejoin="round"/>
<path d="M8.75759 2.22099C9.2936 1.85541 9.76198 2.0026 10.0431 2.23739C10.1583 2.33339 10.2162 2.38138 10.25 2.38138C10.2838 2.38138 10.3416 2.33339 10.4569 2.23739C10.738 2.0026 11.206 1.85541 11.7424 2.22099C12.4464 2.70097 12.6057 4.28329 10.9824 5.61842C10.6729 5.87281 10.5184 6 10.25 6C9.98162 6 9.82707 5.87281 9.51797 5.61842C7.89431 4.28329 8.05358 2.70057 8.75759 2.22099Z" stroke="#CB8020" stroke-width="0.9" stroke-linecap="round" stroke-linejoin="round"/>
</g>
<defs>
<clipPath id="clip0_4885_22680">
<rect width="20" height="20" fill="white" transform="translate(0.25)"/>
</clipPath>
</defs>
</svg>
