<svg xmlns="http://www.w3.org/2000/svg" viewBox="0 0 30 30"><defs><style>.cls-1{fill:none;stroke:#cb8020;stroke-linecap:round;stroke-linejoin:round;stroke-width:1.5px;}</style></defs><title>all2</title><g id="Layer_1" data-name="Layer 1"><path class="cls-1" d="M15,25A10,10,0,1,0,5,15,10,10,0,0,0,15,25Z"/><path class="cls-1" d="M17.53,18.21c4-3.07,3.36-6.47,1.51-7.56a3.07,3.07,0,0,0-3.48,0c-.31.23-.47.34-.56.34s-.25-.11-.56-.34a3.07,3.07,0,0,0-3.48,0c-1.85,1.09-2.31,4.59,1.65,7.66A22.53,22.53,0,0,0,15,19.9a15.26,15.26,0,0,0,7.07,2.17m-14.14,0a12.66,12.66,0,0,0,4.58-.94"/></g></svg>