<svg width="18" height="18" viewBox="0 0 18 18" fill="none" xmlns="http://www.w3.org/2000/svg">
<path d="M8.99935 17.3337C13.6017 17.3337 17.3327 13.6027 17.3327 9.00033C17.3327 4.39795 13.6017 0.666992 8.99935 0.666992C4.39698 0.666992 0.666016 4.39795 0.666016 9.00033C0.666016 13.6027 4.39698 17.3337 8.99935 17.3337Z" stroke="#CB8020" stroke-linecap="round" stroke-linejoin="round"/>
<path d="M11.1052 11.5682C14.4393 9.01156 13.9118 6.17739 12.3677 5.26572C11.1577 4.54989 10.101 4.83822 9.46602 5.29739C9.20602 5.48572 9.07602 5.57989 8.99935 5.57989C8.92268 5.57989 8.79268 5.48572 8.53268 5.29739C7.89768 4.83906 6.84102 4.54989 5.63102 5.26572C4.09268 6.17406 3.70685 9.09489 7.01018 11.6507C7.64227 12.1372 8.30687 12.5799 8.99935 12.9757C10.4818 13.8307 12.6802 14.8332 14.8327 14.8332M3.16602 14.8332C4.45685 14.8332 5.76352 14.4724 6.92268 13.9999" stroke="#CB8020" stroke-linecap="round" stroke-linejoin="round"/>
</svg>
