<svg width="15" height="15" viewBox="0 0 15 15" fill="none" xmlns="http://www.w3.org/2000/svg">
<path d="M10.6611 1.4043H14.1543L14.1934 1.4082L14.2305 1.41992L14.2354 1.42188C14.2718 1.43707 14.3025 1.46284 14.3242 1.49512L14.3428 1.53027L14.3447 1.53418C14.3498 1.54613 14.3538 1.55864 14.3564 1.57129L14.3604 1.61035V5.10449C14.3602 5.15736 14.3391 5.20772 14.3018 5.24512C14.2644 5.28251 14.214 5.30359 14.1611 5.30371C14.1081 5.30371 14.057 5.28262 14.0195 5.24512C13.9822 5.20772 13.961 5.15736 13.9609 5.10449V2.08398L10.2109 5.83398L10.4844 6.18262C11.183 7.07262 11.562 8.17228 11.5605 9.30371L11.5469 9.68066C11.482 10.5565 11.1914 11.4029 10.7012 12.1367C10.1409 12.9753 9.3448 13.6296 8.41309 14.0156C7.48123 14.4016 6.45507 14.5024 5.46582 14.3057C4.47685 14.1089 3.56855 13.6231 2.85547 12.9102C2.14226 12.1969 1.65576 11.2881 1.45898 10.2988C1.26222 9.3096 1.36403 8.28437 1.75 7.35254C2.13599 6.42069 2.78929 5.62384 3.62793 5.06348C4.36168 4.57324 5.20819 4.28269 6.08398 4.21777L6.46094 4.2041H6.46191C7.5932 4.20275 8.69212 4.5818 9.58203 5.28027L9.93066 5.55371L10.2441 5.24023L12.8271 2.6582L13.6807 1.80469H10.6611C10.6082 1.80469 10.557 1.78343 10.5195 1.74609C10.4821 1.70865 10.461 1.65744 10.4609 1.60449C10.4609 1.55146 10.482 1.50039 10.5195 1.46289C10.557 1.42541 10.6081 1.4043 10.6611 1.4043ZM8.25977 4.96191C7.40099 4.6062 6.45562 4.51299 5.54395 4.69434C4.63237 4.8757 3.79492 5.32325 3.1377 5.98047C2.48048 6.63768 2.03294 7.47515 1.85156 8.38672C1.67022 9.29839 1.76342 10.2438 2.11914 11.1025C2.47485 11.9612 3.07684 12.6955 3.84961 13.2119C4.52577 13.6637 5.30621 13.9313 6.11328 13.9912L6.46094 14.0039C7.7074 14.0039 8.9028 13.5083 9.78418 12.627C10.6655 11.7456 11.1611 10.5502 11.1611 9.30371C11.1611 8.37424 10.8855 7.46521 10.3691 6.69238C9.85276 5.91962 9.11841 5.31762 8.25977 4.96191Z" stroke="#CB8020"/>
</svg>
