<svg width="10" height="15" viewBox="0 0 10 15" fill="none" xmlns="http://www.w3.org/2000/svg">
<path d="M5.79004 1.8877C5.01565 1.73367 4.21285 1.81308 3.4834 2.11523C2.75396 2.4174 2.13005 2.92946 1.69141 3.58594C1.25295 4.24234 1.01953 5.01433 1.01953 5.80371L1.02441 6.00098C1.07327 6.98779 1.48656 7.92401 2.18848 8.62598C2.89042 9.32792 3.82667 9.74212 4.81348 9.79102L5.01074 9.7959C5.80032 9.7959 6.57298 9.56171 7.22949 9.12305C7.88593 8.68439 8.39708 8.06048 8.69922 7.33105C9.00137 6.60159 9.0808 5.79881 8.92676 5.02441C8.7727 4.25008 8.39226 3.53874 7.83398 2.98047C7.27569 2.42221 6.56439 2.04172 5.79004 1.8877ZM4.8125 10.1777L4.38672 10.1143C3.64365 10.0026 2.94128 9.7019 2.34766 9.24121C1.75408 8.78049 1.28866 8.17453 0.996094 7.48242C0.703624 6.79037 0.593603 6.03479 0.676758 5.28809C0.759962 4.54118 1.0339 3.82765 1.47168 3.2168L1.70605 2.89062L1.43652 2.59082L0.678711 1.75C0.642383 1.70871 0.623498 1.6545 0.626953 1.59961C0.630454 1.54472 0.656003 1.49341 0.697266 1.45703C0.738568 1.42063 0.792712 1.40182 0.847656 1.40527C0.888668 1.40786 0.927681 1.42282 0.959961 1.44727L0.990234 1.47559L0.992188 1.47754L1.69043 2.25977L2.00195 2.6084L2.37012 2.32227C3.12983 1.73327 4.0641 1.41406 5.02539 1.41406C5.98661 1.41411 6.92101 1.73331 7.68066 2.32227L8.04883 2.6084L8.35938 2.25977L9.05762 1.47754L9.0752 1.45801C9.09207 1.43704 9.11295 1.41984 9.13672 1.40723C9.16062 1.39458 9.18691 1.38691 9.21387 1.38477C9.24083 1.38263 9.26834 1.38581 9.29395 1.39453C9.31938 1.40326 9.34237 1.4175 9.3623 1.43555C9.38236 1.4537 9.39894 1.47539 9.41016 1.5C9.42134 1.52456 9.42718 1.55115 9.42773 1.57812C9.42828 1.60517 9.42331 1.63218 9.41309 1.65723C9.40804 1.66956 9.40189 1.68136 9.39453 1.69238L9.36816 1.72363L9.3584 1.73438L9.34863 1.74414L8.58008 2.58984L8.30469 2.89258L8.54785 3.22168C9.02965 3.87705 9.31773 4.65188 9.38477 5.45801L9.40039 5.80566C9.39849 6.85919 9.01735 7.87681 8.32715 8.67285C7.63644 9.46946 6.68219 9.99087 5.63867 10.1416L5.20996 10.2031V11.8906H6.4082C6.46079 11.8907 6.51164 11.912 6.54883 11.9492C6.58574 11.9863 6.60632 12.0366 6.60645 12.0889C6.60645 12.1414 6.58585 12.1923 6.54883 12.2295C6.51164 12.2667 6.46079 12.2881 6.4082 12.2881H5.20996V14.1846C5.20996 14.2372 5.18858 14.288 5.15137 14.3252C5.11417 14.3623 5.06328 14.3828 5.01074 14.3828C4.95838 14.3827 4.90818 14.3622 4.87109 14.3252C4.83388 14.288 4.8125 14.2372 4.8125 14.1846V12.2881H3.61426C3.56166 12.2881 3.51082 12.2667 3.47363 12.2295C3.4366 12.1923 3.41602 12.1414 3.41602 12.0889C3.41614 12.0366 3.43671 11.9863 3.47363 11.9492C3.51082 11.912 3.56166 11.8906 3.61426 11.8906H4.8125V10.1777Z" stroke="#CB8020"/>
</svg>
