<svg width="28" height="28" viewBox="0 0 14 14" fill="none" xmlns="http://www.w3.org/2000/svg">
<path d="M2.27954 9.89172C2.1228 9.65598 1.9837 9.40884 1.86303 9.15276L1.8491 9.12223L1.83106 9.09435C1.81361 9.06739 1.80727 9.03451 1.81389 9.0031C1.82063 8.97167 1.83947 8.94361 1.86641 8.92608C1.89348 8.90856 1.92666 8.90298 1.95819 8.90973C1.98973 8.91649 2.01769 8.93517 2.03521 8.96225L2.05962 8.99997L2.09058 9.03344C2.58048 9.55377 3.20345 9.93025 3.89189 10.1221C4.58042 10.3139 5.30866 10.314 5.99713 10.122C6.68561 9.92987 7.3087 9.55258 7.79848 9.03198C8.28812 8.51143 8.62586 7.86671 8.77559 7.16793C8.92532 6.46911 8.88146 5.74266 8.64807 5.06717C8.41462 4.39159 8.00083 3.79211 7.45151 3.33479C6.9022 2.8775 6.23783 2.57915 5.53117 2.47202C4.91282 2.37831 4.28237 2.43476 3.69215 2.63374L3.44194 2.72701L3.43731 2.72885C3.41067 2.74022 3.38066 2.74204 3.35301 2.73338C3.33916 2.72902 3.32611 2.72265 3.31481 2.71389L3.28626 2.68235L3.27936 2.67169C3.26329 2.64721 3.25654 2.61758 3.26046 2.58855C3.26444 2.55943 3.27916 2.53259 3.30131 2.51326L2.97412 2.13524L3.30651 2.50873C3.46524 2.36709 3.63172 2.23389 3.80496 2.1106L3.98104 1.99084C4.92943 1.37816 6.03813 1.05948 7.16715 1.07613C8.29744 1.09285 9.39714 1.4449 10.3277 2.08671C11.2583 2.72859 11.9777 3.63219 12.3949 4.68292C12.812 5.73355 12.9091 6.8842 12.6723 7.9895C12.4354 9.09485 11.8759 10.1054 11.0649 10.8929C10.2538 11.6805 9.2268 12.2091 8.11487 12.4133C7.00304 12.6175 5.85565 12.488 4.81774 12.0401C3.84449 11.6201 3.0087 10.9377 2.40195 10.0719L2.28408 9.89693L2.27954 9.89172ZM4.09541 11.3804C5.14612 12.0659 6.40043 12.3695 7.64835 12.2406C8.89639 12.1116 10.0623 11.5575 10.9507 10.6714C11.839 9.78538 12.396 8.62082 12.5282 7.37318C12.6603 6.12589 12.3593 4.87159 11.6768 3.81928C11.1026 2.93095 10.2841 2.22746 9.31888 1.79497C8.35358 1.36248 7.28306 1.21908 6.23792 1.38195L6.17069 2.35482C7.16971 2.65761 8.01889 3.3247 8.54911 4.22393C9.07924 5.12321 9.25162 6.1889 9.0329 7.20964C8.81417 8.23038 8.22024 9.13187 7.36818 9.73496C6.51596 10.3381 5.4674 10.5992 4.43191 10.4659L4.09541 11.3804Z" stroke="#CB8020"/>
</svg>
