<svg width="14" height="14" viewBox="0 0 14 14" fill="none" xmlns="http://www.w3.org/2000/svg">
<path d="M7 0.5C7.85359 0.5 8.69869 0.668462 9.4873 0.995117C10.2759 1.32177 10.9931 1.79974 11.5967 2.40332C12.2003 3.0069 12.6782 3.72408 13.0049 4.5127C13.3315 5.30131 13.5 6.14641 13.5 7L13.4951 7.24023C13.4507 8.44165 13.074 9.6091 12.4043 10.6113C11.6901 11.6801 10.6749 12.5129 9.4873 13.0049C8.29959 13.4969 6.99232 13.6258 5.73145 13.375C4.47075 13.1241 3.31322 12.5046 2.4043 11.5957C1.49537 10.6868 0.875864 9.52925 0.625 8.26855C0.374196 7.00768 0.503148 5.70041 0.995117 4.5127C1.48706 3.32505 2.31985 2.30992 3.38867 1.5957C4.3909 0.926036 5.55835 0.549309 6.75977 0.504883L7 0.5ZM9.33398 1.36426C8.21945 0.902685 6.99273 0.782233 5.80957 1.01758C4.62646 1.253 3.53952 1.83353 2.68652 2.68652C1.83353 3.53952 1.253 4.62646 1.01758 5.80957C0.782233 6.99273 0.902684 8.21945 1.36426 9.33398C1.82595 10.4486 2.60819 11.402 3.61133 12.0723C4.55177 12.7006 5.64712 13.054 6.77441 13.0957L7 13.0996C8.61782 13.0996 10.1695 12.4574 11.3135 11.3135C12.4574 10.1695 13.0996 8.61782 13.0996 7L13.0957 6.77441C13.054 5.64712 12.7006 4.55177 12.0723 3.61133C11.402 2.60819 10.4486 1.82595 9.33398 1.36426Z" fill="#161616" stroke="#CB8020"/>
<path d="M6.99961 8.39961C7.77281 8.39961 8.39961 7.77281 8.39961 6.99961C8.39961 6.22641 7.77281 5.59961 6.99961 5.59961C6.22641 5.59961 5.59961 6.22641 5.59961 6.99961C5.59961 7.77281 6.22641 8.39961 6.99961 8.39961Z" fill="#CB8020"/>
</svg>
