<svg width="10" height="14" viewBox="0 0 10 14" fill="none" xmlns="http://www.w3.org/2000/svg">
<path d="M5.80469 1.0166C5.02912 0.862361 4.22471 0.941531 3.49414 1.24414C2.76374 1.54673 2.13949 2.05949 1.7002 2.7168C1.26088 3.37428 1.0264 4.14773 1.02637 4.93848L1.03125 5.13672C1.08023 6.12494 1.49438 7.06263 2.19727 7.76562C2.90018 8.46854 3.83802 8.88255 4.82617 8.93164L5.02441 8.9375C5.81522 8.9375 6.58856 8.70204 7.24609 8.2627C7.90351 7.82335 8.41616 7.19927 8.71875 6.46875C9.02137 5.73814 9.10057 4.93381 8.94629 4.1582C8.79196 3.38274 8.41066 2.67042 7.85156 2.11133C7.29241 1.55227 6.5802 1.17086 5.80469 1.0166ZM4.8252 9.34766L4.39648 9.28516C3.56196 9.1647 2.77946 8.80744 2.14258 8.25488C1.50573 7.70235 1.04168 6.97808 0.804688 6.16895C0.567705 5.35975 0.567479 4.49927 0.805664 3.69043C1.04385 2.88161 1.50977 2.15805 2.14746 1.60645C2.78516 1.05487 3.56864 0.698311 4.40332 0.579102C5.23786 0.459995 6.08899 0.583614 6.85547 0.93457C7.6221 1.28562 8.27148 1.84974 8.72656 2.55957C9.12479 3.18071 9.35938 3.89038 9.41113 4.62305L9.42285 4.93848C9.42151 5.99479 9.03956 7.01531 8.34766 7.81348C7.65556 8.61169 6.69894 9.13413 5.65332 9.28516L5.22461 9.34766V11.0361H6.42383C6.47679 11.0361 6.52798 11.0573 6.56543 11.0947C6.60267 11.1321 6.62392 11.1826 6.62402 11.2354C6.62402 11.2883 6.60282 11.3395 6.56543 11.377C6.52798 11.4144 6.47679 11.4355 6.42383 11.4355H5.22461V13.335C5.22456 13.3877 5.20326 13.4382 5.16602 13.4756C5.12857 13.513 5.07737 13.5342 5.02441 13.5342C4.97156 13.5341 4.92117 13.513 4.88379 13.4756C4.84642 13.4382 4.82524 13.3878 4.8252 13.335V11.4355H3.625C3.57222 11.4355 3.52173 11.4142 3.48438 11.377C3.44693 11.3395 3.42578 11.2883 3.42578 11.2354C3.42588 11.1825 3.44702 11.1321 3.48438 11.0947C3.52174 11.0574 3.57218 11.0362 3.625 11.0361H4.8252V9.34766Z" fill="#161616" stroke="#CB8020"/>
</svg>
