<svg width="51" height="66" viewBox="0 0 51 66" fill="none" xmlns="http://www.w3.org/2000/svg">
<g clip-path="url(#clip0_4253_21017)">
<path d="M5.05222 1.82105C4.49656 1.73682 3.92879 1.80195 3.40706 2.00935C3.5577 1.87771 3.71711 1.75646 3.88422 1.64643C4.39678 1.31509 4.97088 1.09681 5.56839 1.00255L5.50398 1.9238C5.35664 1.87874 5.20568 1.84432 5.05222 1.82105ZM9.8995 2.93695L9.92452 2.92078C9.9244 2.9206 9.92429 2.92042 9.92417 2.92025C9.92413 2.92018 9.92408 2.92011 9.92403 2.92004L9.89904 2.93625C9.89919 2.93648 9.89935 2.93672 9.8995 2.93695ZM3.8663 8.94283C3.35959 8.61172 2.92516 8.17695 2.59336 7.66417L2.59339 7.66415L2.58992 7.65894C2.48316 7.49838 2.38704 7.33101 2.30218 7.15793C2.69333 7.56161 3.18506 7.85416 3.72706 8.00517C3.87561 8.04656 4.02642 8.07689 4.17829 8.09618L3.8663 8.94283Z" stroke="#CB8020"/>
</g>
<g clip-path="url(#clip1_4253_21017)">
<path d="M27.1551 62.6326V62.1996L26.7265 62.1377C26.0961 62.0467 25.5051 61.7764 25.024 61.359C24.5428 60.9416 24.1918 60.3946 24.0128 59.7833C23.8338 59.172 23.8343 58.5221 24.0142 57.9111C24.1941 57.3001 24.5459 56.7536 25.0277 56.3369C25.5095 55.9202 26.1008 55.6508 26.7314 55.5607C27.362 55.4707 28.0052 55.5638 28.5843 55.829C29.1635 56.0942 29.6542 56.5203 29.9979 57.0565C30.3417 57.5927 30.5241 58.2165 30.5234 58.8535C30.5224 59.6517 30.2341 60.4229 29.7112 61.026C29.1883 61.629 28.4658 62.0237 27.6757 62.1377L27.2472 62.1996V62.6326V63.2223V63.7223H27.7472H28.2932C28.3054 63.7223 28.3171 63.7272 28.3258 63.7358C28.3344 63.7444 28.3392 63.7561 28.3392 63.7684C28.3392 63.7806 28.3344 63.7923 28.3258 63.8009C28.3171 63.8095 28.3054 63.8144 28.2932 63.8144H27.7472H27.2472V64.3144V65.4065C27.2472 65.4187 27.2423 65.4304 27.2337 65.439C27.2251 65.4476 27.2133 65.4525 27.2011 65.4525C27.1889 65.4525 27.1772 65.4476 27.1686 65.439C27.16 65.4304 27.1551 65.4187 27.1551 65.4065V64.3144V63.8144H26.6551H26.1091C26.0969 63.8144 26.0851 63.8095 26.0765 63.8009C26.0679 63.7923 26.063 63.7806 26.063 63.7684C26.063 63.7561 26.0679 63.7444 26.0765 63.7358C26.0851 63.7272 26.0969 63.7223 26.1091 63.7223H26.6551H27.1551V63.2223V62.6326ZM24.5154 57.0595C24.1604 57.5907 23.971 58.2152 23.971 58.8541C23.971 59.7107 24.3113 60.5324 24.9171 61.1381C25.5228 61.7439 26.3444 62.0842 27.2011 62.0842C27.84 62.0842 28.4645 61.8948 28.9957 61.5398C29.5269 61.1849 29.9409 60.6804 30.1854 60.0902C30.4299 59.5 30.4939 58.8505 30.3692 58.2239C30.2446 57.5973 29.937 57.0217 29.4852 56.57C29.0335 56.1182 28.4579 55.8106 27.8313 55.686C27.2047 55.5613 26.5552 55.6253 25.965 55.8698C25.3748 56.1143 24.8703 56.5283 24.5154 57.0595Z" fill="white" stroke="#CB8020"/>
</g>
<circle cx="26.2812" cy="29.4629" r="23.5" stroke="#CB8020"/>
<path d="M12.9453 16.1289L23.612 48.1289" stroke="#66BF1C" stroke-width="0.6" stroke-linecap="round"/>
<path d="M45.232 29.4627C45.232 39.9285 36.7478 48.4127 26.282 48.4127C15.8162 48.4127 7.33203 39.9285 7.33203 29.4627C7.33203 18.9969 15.8162 10.5127 26.282 10.5127C36.7478 10.5127 45.232 18.9969 45.232 29.4627Z" stroke="#CB8020" stroke-width="0.5"/>
<defs>
<clipPath id="clip0_4253_21017">
<rect width="10.9257" height="10.9257" fill="white" transform="translate(0.71875)"/>
</clipPath>
<clipPath id="clip1_4253_21017">
<rect width="10.9257" height="10.9257" fill="white" transform="translate(21.7188 55)"/>
</clipPath>
</defs>
</svg>
