<svg width="51" height="48" viewBox="0 0 51 48" fill="none" xmlns="http://www.w3.org/2000/svg">
<g clip-path="url(#clip0_4253_21047)">
<path d="M15.701 46.4724L15.6879 46.4748L15.6034 46.5164L15.5796 46.5212L15.563 46.5164L15.4785 46.4748C15.4658 46.4708 15.4563 46.4728 15.45 46.4807L15.4452 46.4926L15.425 47.0018L15.4309 47.0256L15.4428 47.0411L15.5666 47.1291L15.5844 47.1338L15.5987 47.1291L15.7224 47.0411L15.7367 47.022L15.7414 47.0018L15.7212 46.4938C15.718 46.4811 15.7113 46.474 15.701 46.4724ZM16.0162 46.338L16.0008 46.3404L15.7807 46.451L15.7688 46.4629L15.7652 46.476L15.7866 46.9875L15.7926 47.0018L15.8021 47.0101L16.0412 47.1208C16.0563 47.1247 16.0678 47.1216 16.0757 47.1112L16.0805 47.0946L16.04 46.3642C16.0361 46.3499 16.0281 46.3412 16.0162 46.338ZM15.1656 46.3404C15.1604 46.3372 15.1541 46.3362 15.1482 46.3375C15.1422 46.3388 15.1369 46.3424 15.1335 46.3475L15.1264 46.3642L15.0859 47.0946C15.0867 47.1089 15.0935 47.1184 15.1062 47.1231L15.124 47.1208L15.3631 47.0101L15.375 47.0006L15.3798 46.9875L15.4 46.476L15.3964 46.4617L15.3845 46.4498L15.1656 46.3404Z" fill="#CB8020"/>
<path d="M14.417 21.3523L12.9181 20.4541L12.6326 22.1779C12.1781 24.8998 10.3187 27.4289 8.26779 29.2063C4.25276 32.6871 3.37362 36.4702 4.61679 39.593C5.80643 42.5814 8.82573 44.6275 11.8902 44.969L12.5993 45.0475C10.8457 43.9756 9.72033 41.4714 10.1129 39.6001C10.5007 37.761 11.8236 36.0384 14.3647 34.449L15.6459 33.6496L16.1242 35.0831C16.4061 35.9301 16.8938 36.6106 17.3899 37.3017C17.6279 37.6348 17.8694 37.9715 18.0906 38.3296C18.8556 39.5728 19.0578 40.9551 18.5641 42.3268C18.1144 43.5735 17.3733 44.5538 16.3514 45.0974L17.5053 44.969C20.3819 44.649 22.4935 43.6651 23.8651 42.0199C25.2249 40.3889 25.7019 38.2891 25.7019 36.0538C25.7019 33.972 24.8466 31.8258 23.8378 30.0402C22.6553 27.9488 21.1123 26.2119 19.4278 24.5286C19.1363 25.1115 19.1589 25.3471 18.5593 26.2833C17.7807 24.2157 16.3193 22.476 14.417 21.3523Z" fill="#CB8020"/>
</g>
<path d="M36.7334 3.79463C36.6715 3.72244 36.5948 3.66449 36.5085 3.62476C36.4222 3.58503 36.3283 3.56445 36.2332 3.56445C36.1382 3.56445 36.0443 3.58503 35.958 3.62476C35.8716 3.66449 35.7949 3.72244 35.7331 3.79463C33.996 5.82637 28.332 12.8505 28.332 18.0536C28.332 22.9023 31.3849 25.9545 36.233 25.9545C41.0811 25.9545 44.1339 22.9023 44.1339 18.0536C44.1339 12.8505 38.4699 5.82637 36.7334 3.79463ZM37.1108 23.1014C37.0054 23.1017 36.9014 23.0766 36.8077 23.0282C36.714 22.9799 36.6332 22.9098 36.5722 22.8237C36.5112 22.7377 36.4718 22.6383 36.4573 22.5338C36.4427 22.4294 36.4535 22.323 36.4886 22.2235C36.5335 22.0938 36.6182 21.9816 36.7306 21.9027C36.843 21.8239 36.9774 21.7826 37.1147 21.7846C37.9862 21.7827 38.8215 21.4357 39.4377 20.8194C40.054 20.2032 40.401 19.3679 40.4029 18.4964C40.4009 18.3591 40.4422 18.2247 40.521 18.1123C40.5998 17.9999 40.7121 17.9152 40.8418 17.8703C40.9413 17.8352 41.0477 17.8244 41.1521 17.839C41.2566 17.8535 41.356 17.893 41.442 17.9539C41.5281 18.0149 41.5982 18.0957 41.6465 18.1894C41.6948 18.2831 41.7199 18.3871 41.7197 18.4925C41.7184 19.7145 41.2324 20.886 40.3684 21.7501C39.5043 22.6141 38.3328 23.1001 37.1108 23.1014Z" fill="#CB8020"/>
<defs>
<clipPath id="clip0_4253_21047">
<rect width="28.5513" height="28.5513" fill="white" transform="translate(0.71875 18.8037)"/>
</clipPath>
</defs>
</svg>
