<svg width="51" height="61" viewBox="0 0 51 61" fill="none" xmlns="http://www.w3.org/2000/svg">
<g clip-path="url(#clip0_4253_21060)">
<path d="M4.83347 8.45582C4.27781 8.37158 3.71004 8.43672 3.18831 8.64412C3.33895 8.51248 3.49836 8.39123 3.66547 8.2812C4.17803 7.94985 4.75213 7.73157 5.34964 7.63732L5.28523 8.55857C5.13789 8.5135 4.98693 8.47908 4.83347 8.45582ZM9.68075 9.57171L9.70577 9.55554C9.70565 9.55537 9.70554 9.55519 9.70542 9.55501C9.70538 9.55494 9.70533 9.55487 9.70528 9.5548L9.68029 9.57102C9.68044 9.57125 9.6806 9.57148 9.68075 9.57171ZM3.64755 15.5776C3.14084 15.2465 2.70641 14.8117 2.37461 14.2989L2.37464 14.2989L2.37117 14.2937C2.26441 14.1331 2.16829 13.9658 2.08343 13.7927C2.47458 14.1964 2.96631 14.4889 3.50831 14.6399C3.65686 14.6813 3.80767 14.7117 3.95954 14.7309L3.64755 15.5776Z" stroke="#CB8020"/>
</g>
<path d="M25.7623 2.75706L25.3466 3.03485L25.7623 2.75706C25.2272 1.95615 24.4665 1.33192 23.5766 0.963296C22.6867 0.594677 21.7074 0.498229 20.7627 0.68615C19.818 0.87407 18.9502 1.33792 18.269 2.01904C17.5879 2.70016 17.1241 3.56796 16.9362 4.5127C16.7482 5.45744 16.8447 6.43669 17.2133 7.32662C17.5819 8.21654 18.2062 8.97718 19.0071 9.51233C19.808 10.0475 20.7496 10.3331 21.7128 10.3331C23.0045 10.3331 24.2433 9.82 25.1567 8.90665C26.07 7.99329 26.5831 6.75452 26.5831 5.46284C26.5831 4.49959 26.2975 3.55798 25.7623 2.75706ZM18.9556 1.33639C19.7718 0.791066 20.7313 0.5 21.7128 0.5C22.3646 0.5 23.0099 0.628368 23.612 0.877774C24.2142 1.12718 24.7613 1.49274 25.2221 1.95358C25.6829 2.41443 26.0485 2.96153 26.2979 3.56365C26.5473 4.16576 26.6757 4.81111 26.6757 5.46284C26.6757 6.4444 26.3846 7.40392 25.8393 8.22005C25.294 9.03619 24.5189 9.67229 23.612 10.0479C22.7052 10.4235 21.7073 10.5218 20.7446 10.3303C19.7819 10.1388 18.8977 9.66617 18.2036 8.9721C17.5095 8.27804 17.0369 7.39374 16.8454 6.43105C16.6539 5.46835 16.7522 4.47049 17.1278 3.56365C17.5034 2.6568 18.1395 1.88171 18.9556 1.33639Z" fill="#CB8020" stroke="#CB8020"/>
<path d="M21.7137 6.55525C22.3171 6.55525 22.8062 6.06609 22.8062 5.46269C22.8062 4.85928 22.3171 4.37012 21.7137 4.37012C21.1103 4.37012 20.6211 4.85928 20.6211 5.46269C20.6211 6.06609 21.1103 6.55525 21.7137 6.55525Z" fill="#CB8020"/>
<circle cx="26.0625" cy="36.0977" r="23.5" stroke="#CB8020"/>
<path d="M45.0133 36.0975C45.0133 46.5633 36.5291 55.0475 26.0633 55.0475C15.5975 55.0475 7.11328 46.5633 7.11328 36.0975C7.11328 25.6317 15.5975 17.1475 26.0633 17.1475C36.5291 17.1475 45.0133 25.6317 45.0133 36.0975Z" stroke="#CB8020" stroke-width="0.5"/>
<defs>
<clipPath id="clip0_4253_21060">
<rect width="10.9257" height="10.9257" fill="white" transform="translate(0.5 6.63477)"/>
</clipPath>
</defs>
</svg>
