<svg width="51" height="71" viewBox="0 0 51 71" fill="none" xmlns="http://www.w3.org/2000/svg">
<g clip-path="url(#clip0_4253_21088)">
<path d="M44.058 1.21539L43.7828 1.51818L44.0252 1.84788C44.4564 2.43455 44.6904 3.14295 44.6934 3.87106C44.6921 4.69698 44.3937 5.49487 43.8526 6.11891C43.3112 6.74327 42.5632 7.15185 41.7453 7.26991L41.3167 7.33177V7.76478V8.37258V8.87258H41.8167H42.3795C42.3962 8.87258 42.4121 8.87919 42.4239 8.89096C42.4357 8.90274 42.4423 8.9187 42.4423 8.93535C42.4423 8.952 42.4357 8.96797 42.4239 8.97974C42.4121 8.99152 42.3962 8.99813 42.3795 8.99813H41.8167H41.3167V9.49813V10.6237C41.3167 10.6403 41.3101 10.6563 41.2983 10.6681C41.2866 10.6798 41.2706 10.6865 41.2539 10.6865C41.2373 10.6865 41.2213 10.6798 41.2096 10.6681C41.1978 10.6563 41.1912 10.6403 41.1912 10.6237V9.49813V8.99813H40.6912H40.1284C40.1117 8.99813 40.0958 8.99152 40.084 8.97974C40.0722 8.96797 40.0656 8.952 40.0656 8.93535C40.0656 8.9187 40.0722 8.90274 40.084 8.89096C40.0958 8.87919 40.1117 8.87258 40.1284 8.87258H40.6912H41.1912V8.37258V7.74227V7.31176L40.7654 7.24781C40.183 7.16034 39.6329 6.92479 39.1676 6.56373C38.7024 6.20266 38.3376 5.72818 38.1083 5.18573C37.879 4.64328 37.7928 4.05104 37.858 3.46574C37.9232 2.88043 38.1376 2.32168 38.4807 1.84299L38.715 1.51599L38.4458 1.21708L37.835 0.539065C37.8233 0.525243 37.8174 0.507412 37.8185 0.489299C37.8197 0.470722 37.8282 0.45337 37.8421 0.44106C37.8561 0.428751 37.8744 0.422492 37.893 0.423662C37.9115 0.424831 37.9289 0.433332 37.9412 0.447295L37.9412 0.447301L37.9433 0.449655L38.5061 1.07996L38.8167 1.42792L39.1854 1.14211C39.7805 0.680712 40.5122 0.430309 41.2652 0.430309C42.0182 0.430309 42.7499 0.680712 43.345 1.14211L43.7137 1.42792L44.0243 1.07996L44.5871 0.449655L44.5958 0.439908L44.604 0.429719C44.6094 0.423047 44.616 0.417541 44.6236 0.41354C44.6312 0.409538 44.6395 0.407124 44.648 0.406447C44.6565 0.40577 44.6651 0.406844 44.6732 0.409603C44.6813 0.412361 44.6887 0.416747 44.6951 0.42249C44.7014 0.428235 44.7065 0.435215 44.7101 0.442999C44.7136 0.450784 44.7155 0.459214 44.7157 0.467771C44.7159 0.476324 44.7143 0.484824 44.7111 0.492748C44.7078 0.500671 44.703 0.507848 44.6969 0.51384L44.6867 0.523852L44.6771 0.534431L44.058 1.21539ZM38.4986 2.02927C38.1344 2.57424 37.9401 3.21494 37.9401 3.87037C37.9401 4.74926 38.2892 5.59216 38.9107 6.21363C39.5322 6.83511 40.3751 7.18425 41.2539 7.18425C41.9094 7.18425 42.5501 6.98989 43.095 6.62576C43.64 6.26162 44.0648 5.74407 44.3156 5.13853C44.5664 4.533 44.632 3.86669 44.5042 3.22386C44.3763 2.58103 44.0607 1.99055 43.5972 1.5271C43.1338 1.06364 42.5433 0.748026 41.9005 0.620159C41.2576 0.492292 40.5913 0.557918 39.9858 0.808738C39.3802 1.05956 38.8627 1.48431 38.4986 2.02927Z" stroke="#CB8020"/>
</g>
<g clip-path="url(#clip1_4253_21088)">
<path d="M21.4862 59.2163L21.4862 59.2163L21.488 59.2205C21.4911 59.2278 21.4928 59.2355 21.4931 59.2433V62.0589C21.4931 62.0758 21.4864 62.0921 21.4744 62.1041C21.4623 62.1161 21.4461 62.1229 21.4291 62.1229C21.4121 62.1229 21.3958 62.1161 21.3838 62.1041C21.3718 62.0921 21.3651 62.0758 21.3651 62.0589V60.5981V59.391L20.5115 60.2445L18.4303 62.3257L18.1168 62.6392L18.3906 62.988C18.94 63.688 19.2382 64.5524 19.2371 65.4423V65.4429C19.2371 66.2364 19.0018 67.0121 18.5609 67.6719C18.12 68.3317 17.4934 68.8459 16.7603 69.1496C16.0272 69.4533 15.2205 69.5327 14.4423 69.3779C13.664 69.2231 12.9491 68.841 12.388 68.2799C11.8269 67.7188 11.4448 67.0039 11.29 66.2256C11.1352 65.4474 11.2146 64.6407 11.5183 63.9076C11.822 63.1745 12.3362 62.5479 12.996 62.107C13.6558 61.6662 14.4315 61.4308 15.225 61.4308L15.2256 61.4308C16.1155 61.4297 16.9799 61.7279 17.6799 62.2773L18.0287 62.5511L18.3422 62.2376L20.4234 60.1564L21.2769 59.3028H20.0698H18.609C18.5921 59.3028 18.5758 59.2961 18.5638 59.2841C18.5518 59.2721 18.545 59.2558 18.545 59.2388C18.545 59.2218 18.5518 59.2056 18.5638 59.1936C18.5758 59.1815 18.5921 59.1748 18.609 59.1748H21.4246C21.4324 59.1751 21.4401 59.1768 21.4474 59.1799L21.4474 59.1799L21.4516 59.1817C21.4673 59.1882 21.4797 59.2006 21.4862 59.2163ZM15.225 60.9308C14.3326 60.9308 13.4602 61.1955 12.7182 61.6913C11.9762 62.1871 11.3979 62.8918 11.0564 63.7162C10.7148 64.5407 10.6255 65.4479 10.7996 66.3232C10.9737 67.1985 11.4034 68.0024 12.0345 68.6335C12.6655 69.2645 13.4695 69.6942 14.3447 69.8683C15.22 70.0424 16.1272 69.9531 16.9517 69.6116C17.7762 69.27 18.4808 68.6917 18.9766 67.9497C19.4724 67.2077 19.7371 66.3353 19.7371 65.4429C19.7383 64.4409 19.4026 63.4675 18.7839 62.6793L15.225 60.9308ZM13.0671 68.6724C13.7058 69.0992 14.4568 69.327 15.225 69.327C16.2551 69.327 17.243 68.9178 17.9714 68.1894C18.6998 67.461 19.109 66.473 19.109 65.4429C19.109 64.6747 18.8812 63.9238 18.4545 63.2851C18.0277 62.6463 17.4211 62.1485 16.7113 61.8545C16.0016 61.5605 15.2207 61.4836 14.4672 61.6335C13.7138 61.7834 13.0217 62.1533 12.4785 62.6965C11.9353 63.2397 11.5654 63.9318 11.4155 64.6852C11.2657 65.4386 11.3426 66.2196 11.6366 66.9293C11.9305 67.639 12.4284 68.2456 13.0671 68.6724Z" fill="white" stroke="#CB8020"/>
</g>
<circle cx="25.28" cy="32.6872" r="24.28" stroke="#CB8020"/>
<path d="M35.2852 16.1865L21.1729 51.4672" stroke="#66BF1C" stroke-width="0.6" stroke-linecap="round"/>
<path d="M44.855 32.6873C44.855 43.4977 36.0915 52.2613 25.281 52.2613C14.4706 52.2613 5.70703 43.4977 5.70703 32.6873C5.70703 21.8769 14.4706 13.1133 25.281 13.1133C36.0915 13.1133 44.855 21.8769 44.855 32.6873Z" stroke="#CB8020" stroke-width="0.5"/>
<defs>
<clipPath id="clip0_4253_21088">
<rect width="11.2808" height="11.2808" fill="white" transform="translate(35.6055)"/>
</clipPath>
<clipPath id="clip1_4253_21088">
<rect width="11.2808" height="11.2808" fill="white" transform="translate(10.8242 58.752)"/>
</clipPath>
</defs>
</svg>
