<svg width="63" height="54" viewBox="0 0 63 54" fill="none" xmlns="http://www.w3.org/2000/svg">
<g clip-path="url(#clip0_4257_22223)">
<path d="M5.0698 1.82105C4.51414 1.73682 3.94637 1.80195 3.42464 2.00935C3.57527 1.87771 3.73469 1.75646 3.9018 1.64643C4.41436 1.31509 4.98845 1.09681 5.58597 1.00255L5.52156 1.9238C5.37422 1.87874 5.22325 1.84432 5.0698 1.82105ZM9.91707 2.93695L9.94209 2.92078C9.94198 2.9206 9.94186 2.92042 9.94175 2.92025C9.9417 2.92018 9.94166 2.92011 9.94161 2.92004L9.91662 2.93625C9.91677 2.93648 9.91692 2.93672 9.91707 2.93695ZM3.88388 8.94283C3.37716 8.61172 2.94273 8.17695 2.61094 7.66417L2.61097 7.66415L2.6075 7.65894C2.50074 7.49838 2.40462 7.33101 2.31976 7.15793C2.71091 7.56161 3.20264 7.85416 3.74464 8.00517C3.89319 8.04656 4.044 8.07689 4.19586 8.09618L3.88388 8.94283Z" stroke="#CB8020"/>
</g>
<g clip-path="url(#clip1_4257_22223)">
<path d="M55.6733 21.8211C55.1177 21.7368 54.5499 21.8019 54.0282 22.0094C54.1788 21.8777 54.3382 21.7565 54.5053 21.6464C55.0179 21.3151 55.592 21.0968 56.1895 21.0026L56.1251 21.9238C55.9777 21.8787 55.8268 21.8443 55.6733 21.8211ZM60.5206 22.9369L60.5456 22.9208C60.5455 22.9206 60.5454 22.9204 60.5453 22.9202C60.5452 22.9202 60.5452 22.9201 60.5451 22.92L60.5201 22.9362C60.5203 22.9365 60.5204 22.9367 60.5206 22.9369ZM54.4874 28.9428C53.9807 28.6117 53.5462 28.1769 53.2145 27.6642L53.2145 27.6641L53.211 27.6589C53.1043 27.4984 53.0081 27.331 52.9233 27.1579C53.3144 27.5616 53.8062 27.8542 54.3482 28.0052C54.4967 28.0466 54.6475 28.0769 54.7994 28.0962L54.4874 28.9428Z" fill="white" stroke="#CB8020"/>
</g>
<circle cx="26.2988" cy="29.4629" r="23.5" stroke="#CB8020"/>
<path d="M12.9629 16.1294L44.3398 24" stroke="#66BF1C" stroke-width="0.6" stroke-linecap="round"/>
<path d="M45.2496 29.4632C45.2496 39.929 36.7654 48.4132 26.2996 48.4132C15.8338 48.4132 7.34961 39.929 7.34961 29.4632C7.34961 18.9974 15.8338 10.5132 26.2996 10.5132C36.7654 10.5132 45.2496 18.9974 45.2496 29.4632Z" stroke="#CB8020" stroke-width="0.5"/>
<defs>
<clipPath id="clip0_4257_22223">
<rect width="10.9257" height="10.9257" fill="white" transform="translate(0.736328)"/>
</clipPath>
<clipPath id="clip1_4257_22223">
<rect width="10.9257" height="10.9257" fill="white" transform="translate(51.3398 20)"/>
</clipPath>
</defs>
</svg>
