<svg width="63" height="54" viewBox="0 0 63 54" fill="none" xmlns="http://www.w3.org/2000/svg">
<g clip-path="url(#clip0_4257_22309)">
<path d="M6.27012 9.04905L6.2622 9.09301V9.13769C6.2622 9.5765 6.34397 10.0159 6.65968 10.3316C6.97539 10.6474 7.41482 10.7291 7.85363 10.7291C8.68686 10.7291 9.07562 10.0558 9.24343 9.53717C9.41806 8.99739 9.44506 8.38847 9.44506 8.04626C9.44506 8.03413 9.44988 8.0225 9.45845 8.01393C9.46702 8.00536 9.47865 8.00054 9.49078 8.00054C9.5029 8.00054 9.51453 8.00536 9.5231 8.01393C9.53167 8.0225 9.53649 8.03413 9.53649 8.04626C9.53649 9.01572 9.34158 9.72466 9.0408 10.1753C8.75471 10.6039 8.36219 10.8205 7.85363 10.8205H7.82747L7.80145 10.8233C7.58127 10.8464 7.35872 10.82 7.15004 10.7461C6.94136 10.6722 6.75183 10.5526 6.59528 10.396C6.43874 10.2395 6.31914 10.05 6.24523 9.84128C6.17184 9.63411 6.14532 9.41327 6.16755 9.19465C6.26056 8.45891 6.49079 7.74714 6.8463 7.09628L6.85564 7.07918L6.86362 7.06139L6.87262 7.04136C7.04919 6.64812 7.28159 6.13054 7.43907 5.65883C7.51891 5.41966 7.58698 5.17083 7.61512 4.94243C7.64036 4.73768 7.64916 4.43871 7.49012 4.18779L7.49024 4.18771L7.48383 4.1781C7.33276 3.9515 7.08559 3.85186 6.90294 3.80275C6.70151 3.74859 6.46599 3.72625 6.21649 3.72625C5.67964 3.72625 5.27889 4.01963 5.0027 4.37851C4.73258 4.7295 4.54795 5.18119 4.41867 5.62353C4.1589 6.51229 4.07934 7.51704 4.07934 8.04626C4.07934 8.05838 4.07453 8.07001 4.06595 8.07858C4.05738 8.08716 4.04575 8.09197 4.03363 8.09197C4.0215 8.09197 4.00988 8.08716 4.0013 8.07858C3.99273 8.07001 3.98791 8.05838 3.98791 8.04626V3.13482V2.63482H3.48791H2.9422C2.93008 2.63482 2.91845 2.63001 2.90987 2.62143C2.9013 2.61286 2.89648 2.60123 2.89648 2.58911C2.89648 2.57699 2.9013 2.56536 2.90987 2.55678C2.91845 2.54821 2.93008 2.54339 2.9422 2.54339H3.48791H3.98791V2.04339V0.951965C3.98791 0.939841 3.99273 0.928213 4.0013 0.91964L3.65846 0.5768L4.0013 0.919639C4.00988 0.911066 4.0215 0.90625 4.03363 0.90625C4.04575 0.90625 4.05738 0.911066 4.06595 0.919639L4.41407 0.571525L4.06595 0.91964C4.07453 0.928213 4.07934 0.939841 4.07934 0.951965V2.04339V2.54339H4.57934H5.12506C5.13718 2.54339 5.14881 2.54821 5.15738 2.55678C5.16596 2.56536 5.17077 2.57699 5.17077 2.58911C5.17077 2.60123 5.16596 2.61286 5.15738 2.62143C5.14881 2.63001 5.13718 2.63482 5.12506 2.63482H4.57934H4.07934V3.13482V3.96431V5.50957L4.98457 4.25721C5.1249 4.06307 5.30961 3.90529 5.52329 3.79702C5.73698 3.68875 5.97345 3.63314 6.21299 3.63481L6.24428 3.63503L6.27536 3.63135C6.52311 3.60197 6.77425 3.63662 7.0048 3.73197C7.22748 3.82406 7.42376 3.96982 7.57623 4.15609C7.73774 4.42372 7.75949 4.79537 7.62764 5.32518C7.50113 5.83358 7.25991 6.38751 6.99959 6.98531C6.98516 7.01844 6.97067 7.05171 6.95614 7.08511C6.62538 7.69945 6.39383 8.36228 6.27012 9.04905Z" stroke="#CB8020"/>
</g>
<g clip-path="url(#clip1_4257_22309)">
<path d="M56.8736 29.049L56.8657 29.093V29.1377C56.8657 29.5765 56.9475 30.0159 57.2632 30.3316C57.5789 30.6474 58.0183 30.7291 58.4571 30.7291C59.2904 30.7291 59.6791 30.0558 59.8469 29.5372C60.0216 28.9974 60.0486 28.3885 60.0486 28.0463C60.0486 28.0341 60.0534 28.0225 60.062 28.0139C60.0705 28.0054 60.0822 28.0005 60.0943 28.0005C60.1064 28.0005 60.118 28.0054 60.1266 28.0139C60.1352 28.0225 60.14 28.0341 60.14 28.0463C60.14 29.0157 59.9451 29.7247 59.6443 30.1753C59.3582 30.6039 58.9657 30.8205 58.4571 30.8205H58.431L58.405 30.8233C58.1848 30.8464 57.9622 30.82 57.7536 30.7461C57.5449 30.6722 57.3553 30.5526 57.1988 30.396C57.0423 30.2395 56.9227 30.05 56.8487 29.8413C56.7754 29.6341 56.7488 29.4133 56.7711 29.1947C56.8641 28.4589 57.0943 27.7471 57.4498 27.0963L57.4592 27.0792L57.4671 27.0614L57.4761 27.0414C57.6527 26.6481 57.8851 26.1305 58.0426 25.6588C58.1224 25.4197 58.1905 25.1708 58.2186 24.9424C58.2439 24.7377 58.2527 24.4387 58.0936 24.1878L58.0938 24.1877L58.0873 24.1781C57.9363 23.9515 57.6891 23.8519 57.5065 23.8027C57.305 23.7486 57.0695 23.7263 56.82 23.7263C56.2832 23.7263 55.8824 24.0196 55.6062 24.3785C55.3361 24.7295 55.1515 25.1812 55.0222 25.6235C54.7624 26.5123 54.6829 27.517 54.6829 28.0463C54.6829 28.0584 54.678 28.07 54.6695 28.0786C54.6609 28.0872 54.6493 28.092 54.6371 28.092C54.625 28.092 54.6134 28.0872 54.6048 28.0786C54.5962 28.07 54.5914 28.0584 54.5914 28.0463V23.1348V22.6348H54.0914H53.5457C53.5336 22.6348 53.522 22.63 53.5134 22.6214C53.5048 22.6129 53.5 22.6012 53.5 22.5891C53.5 22.577 53.5048 22.5654 53.5134 22.5568C53.522 22.5482 53.5336 22.5434 53.5457 22.5434H54.0914H54.5914V22.0434V20.952C54.5914 20.9398 54.5962 20.9282 54.6048 20.9196L54.262 20.5768L54.6048 20.9196C54.6134 20.9111 54.625 20.9062 54.6371 20.9062C54.6493 20.9062 54.6609 20.9111 54.6695 20.9196L55.0176 20.5715L54.6695 20.9196C54.678 20.9282 54.6829 20.9398 54.6829 20.952V22.0434V22.5434H55.1829H55.7286C55.7407 22.5434 55.7523 22.5482 55.7609 22.5568C55.7695 22.5654 55.7743 22.577 55.7743 22.5891C55.7743 22.6012 55.7695 22.6129 55.7609 22.6214C55.7523 22.63 55.7407 22.6348 55.7286 22.6348H55.1829H54.6829V23.1348V23.9643V25.5096L55.5881 24.2572C55.7284 24.0631 55.9131 23.9053 56.1268 23.797C56.3405 23.6888 56.577 23.6331 56.8165 23.6348L56.8478 23.635L56.8789 23.6313C57.1266 23.602 57.3778 23.6366 57.6083 23.732C57.831 23.8241 58.0273 23.9698 58.1797 24.1561C58.3413 24.4237 58.363 24.7954 58.2312 25.3252C58.1046 25.8336 57.8634 26.3875 57.6031 26.9853C57.5887 27.0184 57.5742 27.0517 57.5597 27.0851C57.2289 27.6995 56.9973 28.3623 56.8736 29.049Z" fill="white" stroke="#CB8020"/>
</g>
<circle cx="26.2988" cy="29.9272" r="23.5" stroke="#CB8020"/>
<path d="M12.9629 16.5938L44.3398 24.4644" stroke="#66BF1C" stroke-width="0.6" stroke-linecap="round"/>
<path d="M45.2496 29.9275C45.2496 40.3933 36.7654 48.8775 26.2996 48.8775C15.8338 48.8775 7.34961 40.3933 7.34961 29.9275C7.34961 19.4617 15.8338 10.9775 26.2996 10.9775C36.7654 10.9775 45.2496 19.4617 45.2496 29.9275Z" stroke="#CB8020" stroke-width="0.5"/>
<defs>
<clipPath id="clip0_4257_22309">
<rect width="10.9257" height="10.9257" fill="white" transform="translate(0.736328 0.464355)"/>
</clipPath>
<clipPath id="clip1_4257_22309">
<rect width="10.9257" height="10.9257" fill="white" transform="translate(51.3398 20.4644)"/>
</clipPath>
</defs>
</svg>
