<svg width="63" height="54" viewBox="0 0 63 54" fill="none" xmlns="http://www.w3.org/2000/svg">
<g clip-path="url(#clip0_4257_22288)">
<path d="M11.0486 0.919116L11.0486 0.919124L11.0504 0.923394C11.0526 0.92854 11.0538 0.934036 11.054 0.939616V3.66621C11.054 3.67848 11.0492 3.69025 11.0405 3.69892C11.0318 3.7076 11.0201 3.71247 11.0078 3.71247C10.9955 3.71247 10.9838 3.7076 10.9751 3.69892L10.6316 4.04237L10.9751 3.69892C10.9664 3.69025 10.9615 3.67848 10.9615 3.66621V2.25141V1.0443L10.108 1.89785L8.09229 3.91354L7.77878 4.22705L8.05254 4.57582C8.58252 5.25101 8.87009 6.08479 8.86902 6.94313V6.94376C8.86902 7.70918 8.64205 8.45742 8.2168 9.09384C7.79155 9.73027 7.18713 10.2263 6.47997 10.5192C5.77281 10.8121 4.99467 10.8888 4.24395 10.7394C3.49324 10.5901 2.80366 10.2215 2.26242 9.6803C1.72118 9.13906 1.3526 8.44948 1.20327 7.69877C1.05394 6.94805 1.13058 6.16991 1.4235 5.46275C1.71641 4.75559 2.21245 4.15117 2.84888 3.72592C3.4853 3.30067 4.23354 3.0737 4.99896 3.0737L4.99959 3.0737C5.85793 3.07263 6.69171 3.3602 7.3669 3.89018L7.71567 4.16394L8.02918 3.85043L10.0449 1.83474L10.8984 0.981186H9.69131H8.27651C8.26424 0.981186 8.25247 0.976312 8.2438 0.967638C8.23512 0.958962 8.23025 0.947196 8.23025 0.934929C8.23025 0.922662 8.23512 0.910895 8.2438 0.90222C8.25247 0.893545 8.26424 0.888672 8.27651 0.888672H11.0031C11.0087 0.888904 11.0142 0.890144 11.0193 0.892336L11.0193 0.892356L11.0236 0.894137C11.0349 0.898831 11.0439 0.907814 11.0486 0.919116ZM4.99896 2.5737C4.13465 2.5737 3.28974 2.83 2.57109 3.31019C1.85244 3.79037 1.29232 4.47288 0.961559 5.27141C0.6308 6.06993 0.544258 6.9486 0.712878 7.79631C0.881497 8.64402 1.2977 9.42269 1.90887 10.0339C2.52003 10.645 3.2987 11.0612 4.14641 11.2298C4.99412 11.3985 5.87279 11.3119 6.67131 10.9812C7.46984 10.6504 8.15235 10.0903 8.63253 9.37163C9.11272 8.65298 9.36902 7.80807 9.36902 6.94376C9.37023 5.97325 9.04508 5.03052 8.44585 4.2671L4.99896 2.5737ZM2.90027 10.0847L3.17806 9.66893L2.90027 10.0847C3.52149 10.4997 4.25184 10.7213 4.99896 10.7213C6.00083 10.7213 6.96166 10.3233 7.67009 9.61488C8.37852 8.90646 8.77651 7.94562 8.77651 6.94376C8.77651 6.19663 8.55496 5.46628 8.13988 4.84507C7.72479 4.22385 7.13482 3.73968 6.44457 3.45376C5.75431 3.16785 4.99477 3.09304 4.262 3.2388C3.52923 3.38456 2.85614 3.74433 2.32784 4.27263C1.79954 4.80093 1.43976 5.47402 1.29401 6.20679C1.14825 6.93957 1.22306 7.6991 1.50897 8.38936C1.79488 9.07961 2.27906 9.66958 2.90027 10.0847Z" stroke="#CB8020"/>
</g>
<g clip-path="url(#clip1_4257_22288)">
<path d="M56.7762 28.096V27.663L56.3476 27.6011C55.7172 27.5101 55.1262 27.2398 54.6451 26.8224C54.1639 26.4049 53.8129 25.858 53.6339 25.2467C53.4549 24.6354 53.4554 23.9855 53.6353 23.3745C53.8152 22.7634 54.167 22.217 54.6488 21.8003C55.1305 21.3836 55.7219 21.1142 56.3525 21.0241C56.9831 20.934 57.6263 21.0272 58.2054 21.2924C58.7845 21.5575 59.2752 21.9836 59.619 22.5199C59.9628 23.0561 60.1452 23.6799 60.1445 24.3168C60.1435 25.1151 59.8552 25.8863 59.3323 26.4893C58.8094 27.0924 58.0869 27.4871 57.2968 27.6011L56.8683 27.663V28.096V28.6857V29.1857H57.3683H57.9143C57.9265 29.1857 57.9382 29.1905 57.9468 29.1992C57.9555 29.2078 57.9603 29.2195 57.9603 29.2317C57.9603 29.2439 57.9555 29.2556 57.9468 29.2643C57.9382 29.2729 57.9265 29.2778 57.9143 29.2778H57.3683H56.8683V29.7778V30.8698C56.8683 30.882 56.8634 30.8937 56.8548 30.9024C56.8461 30.911 56.8344 30.9159 56.8222 30.9159C56.81 30.9159 56.7983 30.911 56.7897 30.9024C56.781 30.8937 56.7762 30.882 56.7762 30.8698V29.7778V29.2778H56.2762H55.7302C55.718 29.2778 55.7062 29.2729 55.6976 29.2643C55.689 29.2556 55.6841 29.2439 55.6841 29.2317C55.6841 29.2195 55.689 29.2078 55.6976 29.1992C55.7062 29.1905 55.718 29.1857 55.7302 29.1857H56.2762H56.7762V28.6857V28.096ZM54.1364 22.5229C53.7815 23.054 53.5921 23.6786 53.5921 24.3174C53.5921 25.1741 53.9324 25.9957 54.5382 26.6015C55.1439 27.2073 55.9655 27.5476 56.8222 27.5476C57.4611 27.5476 58.0856 27.3582 58.6168 27.0032C59.148 26.6483 59.562 26.1438 59.8065 25.5536C60.051 24.9633 60.115 24.3139 59.9903 23.6873C59.8657 23.0607 59.558 22.4851 59.1063 22.0334C58.6546 21.5816 58.079 21.274 57.4524 21.1493C56.8258 21.0247 56.1763 21.0887 55.5861 21.3332C54.9959 21.5776 54.4914 21.9917 54.1364 22.5229Z" fill="white" stroke="#CB8020"/>
</g>
<circle cx="26.2988" cy="29.9258" r="23.5" stroke="#CB8020"/>
<path d="M12.9629 16.5923L44.3398 24.4629" stroke="#66BF1C" stroke-width="0.6" stroke-linecap="round"/>
<path d="M45.2496 29.9261C45.2496 40.3919 36.7654 48.8761 26.2996 48.8761C15.8338 48.8761 7.34961 40.3919 7.34961 29.9261C7.34961 19.4603 15.8338 10.9761 26.2996 10.9761C36.7654 10.9761 45.2496 19.4603 45.2496 29.9261Z" stroke="#CB8020" stroke-width="0.5"/>
<defs>
<clipPath id="clip0_4257_22288">
<rect width="10.9257" height="10.9257" fill="white" transform="translate(0.736328 0.462891)"/>
</clipPath>
<clipPath id="clip1_4257_22288">
<rect width="10.9257" height="10.9257" fill="white" transform="translate(51.3398 20.4629)"/>
</clipPath>
</defs>
</svg>
