<svg width="19" height="15" viewBox="0 0 19 15" fill="none" xmlns="http://www.w3.org/2000/svg">
<path d="M8.5991 14.8074C12.6298 14.8074 15.8974 11.682 15.8974 7.82657C15.8974 3.97114 12.6298 0.845703 8.5991 0.845703C4.56835 0.845703 1.30078 3.97114 1.30078 7.82657C1.30078 11.682 4.56835 14.8074 8.5991 14.8074Z" fill="#0B3D91"/>
<path d="M8.16776 2.26492C8.21295 2.26492 8.24958 2.22988 8.24958 2.18666C8.24958 2.14344 8.21295 2.1084 8.16776 2.1084C8.12257 2.1084 8.08594 2.14344 8.08594 2.18666C8.08594 2.22988 8.12257 2.26492 8.16776 2.26492Z" fill="white"/>
<path d="M9.0076 2.36941C9.05279 2.36941 9.08942 2.33437 9.08942 2.29115C9.08942 2.24793 9.05279 2.21289 9.0076 2.21289C8.96241 2.21289 8.92578 2.24793 8.92578 2.29115C8.92578 2.33437 8.96241 2.36941 9.0076 2.36941Z" fill="white"/>
<path d="M10.1092 3.78836C10.1544 3.78836 10.191 3.75332 10.191 3.7101C10.191 3.66687 10.1544 3.63184 10.1092 3.63184C10.064 3.63184 10.0273 3.66687 10.0273 3.7101C10.0273 3.75332 10.064 3.78836 10.1092 3.78836Z" fill="white"/>
<path d="M4.06619 11.093C4.11138 11.093 4.14801 11.058 4.14801 11.0148C4.14801 10.9716 4.11138 10.9365 4.06619 10.9365C4.02101 10.9365 3.98438 10.9716 3.98438 11.0148C3.98438 11.058 4.02101 11.093 4.06619 11.093Z" fill="white"/>
<path d="M4.27909 11.719C4.32427 11.719 4.3609 11.684 4.3609 11.6408C4.3609 11.5975 4.32427 11.5625 4.27909 11.5625C4.2339 11.5625 4.19727 11.5975 4.19727 11.6408C4.19727 11.684 4.2339 11.719 4.27909 11.719Z" fill="white"/>
<path d="M3.2644 11.167C3.29824 11.167 3.32567 11.1408 3.32567 11.1084C3.32567 11.076 3.29824 11.0498 3.2644 11.0498C3.23056 11.0498 3.20312 11.076 3.20312 11.1084C3.20312 11.1408 3.23056 11.167 3.2644 11.167Z" fill="white"/>
<path d="M6.59271 12.3969C6.62665 12.3969 6.65416 12.3705 6.65416 12.3381C6.65416 12.3056 6.62665 12.2793 6.59271 12.2793C6.55876 12.2793 6.53125 12.3056 6.53125 12.3381C6.53125 12.3705 6.55876 12.3969 6.59271 12.3969Z" fill="white"/>
<path d="M11.8113 11.3604C11.8451 11.3604 11.8725 11.3341 11.8725 11.3018C11.8725 11.2694 11.8451 11.2432 11.8113 11.2432C11.7774 11.2432 11.75 11.2694 11.75 11.3018C11.75 11.3341 11.7774 11.3604 11.8113 11.3604Z" fill="white"/>
<path d="M13.3271 9.78456C13.361 9.78456 13.3885 9.75824 13.3885 9.72577C13.3885 9.69331 13.361 9.66699 13.3271 9.66699C13.2931 9.66699 13.2656 9.69331 13.2656 9.72577C13.2656 9.75824 13.2931 9.78456 13.3271 9.78456Z" fill="white"/>
<path d="M5.8933 4.22659C5.92715 4.22659 5.95458 4.20035 5.95458 4.16798C5.95458 4.13561 5.92715 4.10938 5.8933 4.10938C5.85946 4.10938 5.83203 4.13561 5.83203 4.16798C5.83203 4.20035 5.85946 4.22659 5.8933 4.22659Z" fill="white"/>
<path d="M7.56323 3.05374C7.59707 3.05374 7.6245 3.0275 7.6245 2.99513C7.6245 2.96276 7.59707 2.93652 7.56323 2.93652C7.52939 2.93652 7.50195 2.96276 7.50195 2.99513C7.50195 3.0275 7.52939 3.05374 7.56323 3.05374Z" fill="white"/>
<path d="M7.38159 2.93948C7.41543 2.93948 7.44286 2.91324 7.44286 2.88087C7.44286 2.84851 7.41543 2.82227 7.38159 2.82227C7.34775 2.82227 7.32031 2.84851 7.32031 2.88087C7.32031 2.91324 7.34775 2.93948 7.38159 2.93948Z" fill="white"/>
<path d="M7.21752 2.82425C7.25136 2.82425 7.2788 2.79801 7.2788 2.76564C7.2788 2.73327 7.25136 2.70703 7.21752 2.70703C7.18368 2.70703 7.15625 2.73327 7.15625 2.76564C7.15625 2.79801 7.18368 2.82425 7.21752 2.82425Z" fill="white"/>
<path d="M6.15502 4.52933C6.18886 4.52933 6.2163 4.50309 6.2163 4.47072C6.2163 4.43835 6.18886 4.41211 6.15502 4.41211C6.12118 4.41211 6.09375 4.43835 6.09375 4.47072C6.09375 4.50309 6.12118 4.52933 6.15502 4.52933Z" fill="white"/>
<path d="M8.61401 1.47855C8.64785 1.47855 8.67528 1.45231 8.67528 1.41994C8.67528 1.38757 8.64785 1.36133 8.61401 1.36133C8.58017 1.36133 8.55273 1.38757 8.55273 1.41994C8.55273 1.45231 8.58017 1.47855 8.61401 1.47855Z" fill="white"/>
<path d="M9.01831 3.16898C9.05215 3.16898 9.07958 3.14274 9.07958 3.11037C9.07958 3.078 9.05215 3.05176 9.01831 3.05176C8.98446 3.05176 8.95703 3.078 8.95703 3.11037C8.95703 3.14274 8.98446 3.16898 9.01831 3.16898Z" fill="white"/>
<path d="M8.38159 2.8389C8.41543 2.8389 8.44286 2.81266 8.44286 2.78029C8.44286 2.74792 8.41543 2.72168 8.38159 2.72168C8.34775 2.72168 8.32031 2.74792 8.32031 2.78029C8.32031 2.81266 8.34775 2.8389 8.38159 2.8389Z" fill="white"/>
<path d="M7.28979 3.28812C7.32363 3.28812 7.35106 3.26188 7.35106 3.22951C7.35106 3.19714 7.32363 3.1709 7.28979 3.1709C7.25595 3.1709 7.22852 3.19714 7.22852 3.22951C7.22852 3.26188 7.25595 3.28812 7.28979 3.28812Z" fill="white"/>
<path d="M12.1003 12.9082C12.1342 12.9082 12.1616 12.882 12.1616 12.8496C12.1616 12.8173 12.1342 12.791 12.1003 12.791C12.0665 12.791 12.0391 12.8173 12.0391 12.8496C12.0391 12.882 12.0665 12.9082 12.1003 12.9082Z" fill="white"/>
<path d="M3.96185 11.4701C3.99579 11.4701 4.0233 11.4438 4.0233 11.4113C4.0233 11.3789 3.99579 11.3525 3.96185 11.3525C3.92791 11.3525 3.90039 11.3789 3.90039 11.4113C3.90039 11.4438 3.92791 11.4701 3.96185 11.4701Z" fill="white"/>
<path d="M8.22747 12.2269C8.26141 12.2269 8.28893 12.2006 8.28893 12.1682C8.28893 12.1357 8.26141 12.1094 8.22747 12.1094C8.19353 12.1094 8.16602 12.1357 8.16602 12.1682C8.16602 12.2006 8.19353 12.2269 8.22747 12.2269Z" fill="white"/>
<path d="M5.23138 11.4232C5.26532 11.4232 5.29283 11.3969 5.29283 11.3644C5.29283 11.332 5.26532 11.3057 5.23138 11.3057C5.19744 11.3057 5.16992 11.332 5.16992 11.3644C5.16992 11.3969 5.19744 11.4232 5.23138 11.4232Z" fill="white"/>
<path d="M5.76263 12.2514C5.79657 12.2514 5.82408 12.225 5.82408 12.1926C5.82408 12.1601 5.79657 12.1338 5.76263 12.1338C5.72869 12.1338 5.70117 12.1601 5.70117 12.1926C5.70117 12.225 5.72869 12.2514 5.76263 12.2514Z" fill="white"/>
<path d="M9.6687 11.7295C9.70254 11.7295 9.72997 11.7033 9.72997 11.6709C9.72997 11.6385 9.70254 11.6123 9.6687 11.6123C9.63486 11.6123 9.60742 11.6385 9.60742 11.6709C9.60742 11.7033 9.63486 11.7295 9.6687 11.7295Z" fill="white"/>
<path d="M11.821 10.5674C11.8549 10.5674 11.8823 10.5412 11.8823 10.5088C11.8823 10.4764 11.8549 10.4502 11.821 10.4502C11.7872 10.4502 11.7598 10.4764 11.7598 10.5088C11.7598 10.5412 11.7872 10.5674 11.821 10.5674Z" fill="white"/>
<path d="M13.4539 11.2803C13.4877 11.2803 13.5151 11.2541 13.5151 11.2217C13.5151 11.1893 13.4877 11.1631 13.4539 11.1631C13.42 11.1631 13.3926 11.1893 13.3926 11.2217C13.3926 11.2541 13.42 11.2803 13.4539 11.2803Z" fill="white"/>
<path d="M14.0105 11.6211C14.0443 11.6211 14.0718 11.5949 14.0718 11.5625C14.0718 11.5301 14.0443 11.5039 14.0105 11.5039C13.9767 11.5039 13.9492 11.5301 13.9492 11.5625C13.9492 11.5949 13.9767 11.6211 14.0105 11.6211Z" fill="white"/>
<path d="M14.1023 10.6924C14.1361 10.6924 14.1636 10.6662 14.1636 10.6338C14.1636 10.6014 14.1361 10.5752 14.1023 10.5752C14.0684 10.5752 14.041 10.6014 14.041 10.6338C14.041 10.6662 14.0684 10.6924 14.1023 10.6924Z" fill="white"/>
<path d="M5.9851 9.37796C6.01894 9.37796 6.04638 9.35172 6.04638 9.31935C6.04638 9.28698 6.01894 9.26074 5.9851 9.26074C5.95126 9.26074 5.92383 9.28698 5.92383 9.31935C5.92383 9.35172 5.95126 9.37796 5.9851 9.37796Z" fill="white"/>
<path d="M6.0076 10.7434C6.05279 10.7434 6.08942 10.7084 6.08942 10.6652C6.08942 10.622 6.05279 10.5869 6.0076 10.5869C5.96241 10.5869 5.92578 10.622 5.92578 10.6652C5.92578 10.7084 5.96241 10.7434 6.0076 10.7434Z" fill="white"/>
<path d="M6.49979 11.7346C6.54498 11.7346 6.58161 11.6996 6.58161 11.6564C6.58161 11.6132 6.54498 11.5781 6.49979 11.5781C6.4546 11.5781 6.41797 11.6132 6.41797 11.6564C6.41797 11.6996 6.4546 11.7346 6.49979 11.7346Z" fill="white"/>
<path d="M12.3787 10.7014C12.4239 10.7014 12.4605 10.6664 12.4605 10.6232C12.4605 10.58 12.4239 10.5449 12.3787 10.5449C12.3335 10.5449 12.2969 10.58 12.2969 10.6232C12.2969 10.6664 12.3335 10.7014 12.3787 10.7014Z" fill="white"/>
<path d="M14.4959 10.5872C14.5411 10.5872 14.5777 10.5521 14.5777 10.5089C14.5777 10.4657 14.5411 10.4307 14.4959 10.4307C14.4507 10.4307 14.4141 10.4657 14.4141 10.5089C14.4141 10.5521 14.4507 10.5872 14.4959 10.5872Z" fill="white"/>
<path d="M13.449 10.1595C13.4942 10.1595 13.5308 10.1244 13.5308 10.0812C13.5308 10.038 13.4942 10.0029 13.449 10.0029C13.4038 10.0029 13.3672 10.038 13.3672 10.0812C13.3672 10.1244 13.4038 10.1595 13.449 10.1595Z" fill="white"/>
<path d="M12.3787 10.2005C12.4239 10.2005 12.4605 10.1654 12.4605 10.1222C12.4605 10.079 12.4239 10.0439 12.3787 10.0439C12.3335 10.0439 12.2969 10.079 12.2969 10.1222C12.2969 10.1654 12.3335 10.2005 12.3787 10.2005Z" fill="white"/>
<path d="M10.1747 2.1379L10.3782 2.1193L10.1751 2.10834C10.1687 2.07077 10.1373 2.04138 10.0976 2.03651L10.0782 1.84277L10.0665 2.03808C10.0298 2.0459 10.0016 2.0753 9.99707 2.11182L9.78906 2.1299L9.99852 2.14069C10.0062 2.17425 10.0345 2.20051 10.0702 2.20677L10.0891 2.40643L10.1002 2.20712C10.1378 2.20103 10.1676 2.17338 10.1747 2.1379Z" fill="white"/>
<path d="M6.73916 4.3049L6.94262 4.28629L6.73952 4.27533C6.73334 4.23777 6.7017 4.20837 6.66207 4.2035L6.64261 4.00977L6.63116 4.20507C6.59425 4.2129 6.56607 4.24229 6.56152 4.27881L6.35352 4.2969L6.56297 4.30768C6.57061 4.34124 6.59897 4.3675 6.63461 4.37377L6.65352 4.57342L6.66479 4.37411C6.70243 4.3682 6.73225 4.34037 6.73916 4.3049Z" fill="white"/>
<path d="M14.3464 10.0324L14.5499 10.0138L14.3468 10.0029C14.3406 9.9653 14.3089 9.93591 14.2693 9.93104L14.2499 9.7373L14.2384 9.93261C14.2017 9.94044 14.1735 9.96983 14.1689 10.0063L13.9609 10.0244L14.1704 10.0352C14.178 10.0688 14.2064 10.095 14.242 10.1013L14.2609 10.301L14.2722 10.1017C14.3095 10.0957 14.3393 10.0681 14.3464 10.0324Z" fill="white"/>
<path d="M6.05166 13.0284L6.25512 13.0097L6.05202 12.9988C6.04566 12.9612 6.0142 12.9318 5.97457 12.927L5.95511 12.7334L5.94366 12.9285C5.90675 12.9364 5.87857 12.9657 5.87402 13.0023L5.66602 13.0204L5.87547 13.0311C5.88311 13.0647 5.91147 13.0911 5.94711 13.0972L5.96602 13.2969L5.97729 13.0976C6.01475 13.0917 6.04475 13.0638 6.05166 13.0284Z" fill="white"/>
<path d="M13.6999 11.5666L13.9034 11.548L13.7003 11.537C13.6941 11.4995 13.6625 11.4701 13.6228 11.4652L13.6034 11.2715L13.5919 11.4666C13.5552 11.4744 13.527 11.5038 13.5225 11.5404L13.3145 11.5584L13.5239 11.5692C13.5315 11.6028 13.5599 11.6291 13.5955 11.6353L13.6145 11.835L13.6257 11.6357C13.663 11.6299 13.693 11.6021 13.6999 11.5666Z" fill="white"/>
<path d="M10.3306 6.15421C9.48203 6.46969 8.65438 6.75125 7.956 6.9603C6.53689 7.38534 2.65409 8.53595 0.308594 9.98638L0.504961 10.0594C1.93408 9.28725 2.863 9.04464 3.75593 8.77595C4.72686 8.48377 7.86564 7.78117 9.28694 7.39856C9.76713 7.26934 10.3295 7.10012 10.9251 6.89421C10.7866 6.70934 10.6404 6.52395 10.4866 6.3389C10.4351 6.27647 10.383 6.2149 10.3306 6.15421ZM11.3673 7.52099C11.1619 7.65369 10.9897 7.7596 10.8691 7.82638C10.171 8.21247 6.76707 10.4351 5.9927 10.9464C5.21832 11.4577 3.06901 13.3986 2.43627 13.962L2.41445 14.1914C4.45449 12.4384 5.0945 12.006 5.90542 11.4159C6.90908 10.6855 8.9853 9.33421 9.69095 8.90117C10.3655 8.48725 10.9739 8.10656 11.5199 7.75821C11.511 7.74395 11.5021 7.72969 11.4932 7.71525C11.4521 7.65073 11.4101 7.58604 11.3673 7.52099ZM14.5563 4.29943C13.5625 4.85664 11.9961 5.52917 10.4764 6.09977C10.5128 6.14238 10.549 6.18534 10.585 6.22864C10.7548 6.43317 10.915 6.63908 11.0657 6.84517C12.2603 6.4243 13.571 5.85943 14.611 5.17577C14.1156 5.62482 12.4775 6.79577 11.4788 7.44847C11.5303 7.52864 11.5801 7.60882 11.6283 7.68864C13.1414 6.72012 14.1596 6.00725 14.7529 5.53056C15.5711 4.87317 17.4365 3.40186 18.1456 1.42969C16.9018 2.9429 15.4312 3.80882 14.5563 4.29943Z" fill="#FC3D21"/>
<path d="M7.66052 9.55507C7.49961 9.36133 7.27706 9.10185 7.10996 8.90063C6.8865 8.63159 6.67977 8.35976 6.49031 8.08829C6.4285 8.10307 6.36686 8.11785 6.30522 8.13263C6.53395 8.47402 6.78796 8.81489 7.06469 9.14811C7.26687 9.39159 7.4507 9.58759 7.54488 9.7095C7.56397 9.7342 7.60179 9.78881 7.65288 9.8615C7.71179 9.82324 7.77125 9.78463 7.83125 9.74568C7.77325 9.68533 7.71597 9.62185 7.66052 9.55507ZM8.83508 10.5749C8.7029 10.4552 8.38235 10.2554 8.04871 9.95559C7.97507 10.0039 7.9007 10.053 7.82616 10.1024C8.04162 10.3928 8.33508 10.7495 8.5649 10.8535C8.91109 11.0104 9.00436 10.7283 8.83508 10.5749ZM10.5848 6.22881C8.67708 3.93211 6.34668 2.67037 5.34193 3.43402C4.56155 4.02707 4.88192 5.76029 5.95758 7.58098C6.01322 7.56272 6.06831 7.54481 6.12285 7.52707C5.0372 5.75315 4.7401 4.10463 5.47611 3.54516C6.40104 2.8422 8.63435 4.10881 10.4868 6.33889C10.8702 6.80046 11.2073 7.26376 11.4928 7.71542C12.5859 9.44585 12.9213 11.0107 12.1661 11.6495C11.935 11.845 11.2288 11.9217 10.3037 11.5234C10.2907 11.5389 10.3115 11.5808 10.3277 11.5911C11.1262 11.8982 11.8911 12.0152 12.2773 11.7219C13.2053 11.0165 12.4924 8.5255 10.5848 6.22881Z" fill="white"/>
<path d="M2.4043 6.50195H3.62614L4.65161 8.1663C4.65161 8.1663 4.65161 6.96108 4.65161 6.86717C4.65161 6.72108 4.45797 6.53065 4.38979 6.50195C4.47161 6.50195 5.18617 6.50195 5.23526 6.50195C5.18344 6.515 5.01707 6.70804 5.01707 6.86717C5.01707 6.94543 5.01707 8.69326 5.01707 8.77674C5.01707 8.89413 5.19435 9.05587 5.27889 9.11847H4.10069L3.05885 7.4463C3.05885 7.4463 3.05885 8.69326 3.05885 8.76108C3.05885 8.89152 3.19249 9.01674 3.33159 9.12369H2.43157C2.55975 9.07152 2.68248 8.90717 2.69339 8.77674C2.7043 8.6463 2.69339 6.96369 2.69339 6.89065C2.69339 6.73152 2.53248 6.60108 2.4043 6.50195Z" fill="white"/>
<path d="M13.5818 9.11847H15.2073C15.1173 9.09761 15.0164 8.99587 14.9618 8.86021C14.9073 8.72456 14.0455 6.50195 14.0455 6.50195H13.4274C13.2522 6.62265 13.0643 6.74995 12.8638 6.88404C12.8633 6.88891 12.8627 6.89378 12.8618 6.89847C12.8349 7.055 12.3512 8.73047 12.3218 8.81326C12.2809 8.92804 12.0709 9.05587 11.9863 9.12369H12.8618C12.7745 9.02978 12.7036 8.93848 12.72 8.83413C12.7363 8.72978 12.7854 8.52108 12.7854 8.52108H13.6909C13.7318 8.62543 13.7624 8.71917 13.7782 8.80804C13.7973 8.915 13.6827 9.035 13.5818 9.11847ZM12.8673 8.18717L13.1727 7.23239L13.5764 8.18717H12.8673ZM12.7296 6.59726C12.7745 6.56561 12.8196 6.53378 12.8645 6.50195H12.6272C12.6509 6.52282 12.69 6.55569 12.7296 6.59726Z" fill="white"/>
<path d="M6.51099 8.83413C6.52736 8.72978 6.57645 8.52108 6.57645 8.52108H7.48192C7.52283 8.62543 7.55338 8.71917 7.5692 8.80804C7.58829 8.915 7.47374 9.035 7.37283 9.11847H8.80394C8.83376 9.09934 8.8634 9.08021 8.89304 9.06126C8.83758 9.0143 8.78649 8.94387 8.75285 8.86021C8.69831 8.72456 7.83647 6.50195 7.83647 6.50195H6.41826C6.48645 6.56195 6.68282 6.72369 6.65281 6.89847C6.62609 7.055 6.14226 8.73047 6.1128 8.81326C6.07189 8.92804 5.86189 9.05587 5.77734 9.12369H6.65281C6.56554 9.02978 6.49463 8.93848 6.51099 8.83413ZM6.96373 7.23239L7.36737 8.18717H6.65827L6.96373 7.23239Z" fill="white"/>
<path d="M11.4553 7.80032C11.1884 7.97041 10.9068 8.14797 10.6101 8.33337C10.7431 8.3951 10.8491 8.47267 10.8593 8.57284C10.8782 8.76102 10.483 8.85197 10.1257 8.81284C10.0542 8.80502 9.98404 8.7871 9.91713 8.7631C9.84295 8.80884 9.76804 8.85493 9.69203 8.90154C9.61476 8.94902 9.52094 9.00745 9.41385 9.07493V9.34502C9.48476 9.21197 9.63985 9.09284 9.76022 9.08676C9.81204 9.08415 9.99204 9.24328 10.7339 9.20415C11.0939 9.18519 11.7893 8.81806 11.7784 8.39545C11.7719 8.14571 11.6355 7.95093 11.4553 7.80032ZM9.41367 8.45284V8.72797C9.4793 8.68606 9.54403 8.64484 9.60749 8.60467C9.50767 8.53823 9.43694 8.47615 9.41367 8.45284ZM11.2017 7.62763C11.1326 7.5885 11.0626 7.55423 10.9955 7.52397C10.6464 7.36745 10.281 7.33876 10.2046 7.12745C10.1508 6.97841 10.3028 6.8405 10.6737 6.84571C11.0446 6.85093 11.3882 7.06224 11.481 7.13789V6.46484C11.4537 6.49093 11.3341 6.62224 11.2246 6.6005C11.0146 6.55876 10.6573 6.50432 10.2482 6.50658C9.77913 6.50919 9.37548 6.85597 9.36185 7.29441C9.34276 7.90745 9.85549 8.07441 10.1446 8.17093C10.1744 8.18084 10.2084 8.19145 10.2453 8.20276C10.5226 8.03023 10.7419 7.89737 10.8702 7.82658C10.9564 7.7791 11.0693 7.71093 11.2017 7.62763Z" fill="white"/>
</svg>
