<svg xmlns="http://www.w3.org/2000/svg" viewBox="0 0 30 30"><defs><style>.cls-1{fill:none;stroke:#cb8020;stroke-linecap:round;stroke-linejoin:round;stroke-width:1.5px;}</style></defs><title>all2</title><g id="Layer_1" data-name="Layer 1"><path class="cls-1" d="M18.47,18.85a2.1,2.1,0,0,1,2.4,0c.22.16.33.24.39.24s.17-.08.39-.24a2.1,2.1,0,0,1,2.4,0c1.32.78,1.61,3.35-1.42,5.53a2.25,2.25,0,0,1-1.37.62,2.25,2.25,0,0,1-1.37-.62C16.86,22.2,17.15,19.63,18.47,18.85Z"/><path class="cls-1" d="M25,17V13c0-2.8,0-4.2-.55-5.27a5,5,0,0,0-2.18-2.19C21.2,5,19.8,5,17,5H13c-2.8,0-4.2,0-5.27.54A5,5,0,0,0,5.55,7.73C5,8.8,5,10.2,5,13v4c0,2.8,0,4.2.55,5.27a4.89,4.89,0,0,0,2.18,2.18C8.8,25,10.2,25,13,25h4"/><line class="cls-1" x1="5.04" y1="10.09" x2="24.96" y2="10.09"/><line class="cls-1" x1="13.1" y1="5" x2="8.9" y2="10.09"/><line class="cls-1" x1="20.99" y1="5.15" x2="16.93" y2="10.09"/></g></svg>