<svg width="37" height="36" viewBox="0 0 37 36" fill="none" xmlns="http://www.w3.org/2000/svg">
<path d="M31.997 18C32 17.295 32 18.045 32 17.25C32 10.533 32 7.173 29.9135 5.0865C27.827 3 24.4685 3 17.75 3C11.033 3 7.673 3 5.5865 5.0865C3.5 7.173 3.5 10.5315 3.5 17.25C3.5 23.967 3.5 27.327 5.5865 29.4135C7.673 31.5 11.0315 31.5 17.75 31.5H18.5M3.5 10.5H32M25.25 3L20.75 10.5M14.75 3L10.25 10.5" stroke="#CB8020" stroke-width="2" stroke-linecap="round" stroke-linejoin="round"/>
<path d="M23.0225 23.0803C24.632 22.1202 26.036 22.5072 26.879 23.1222C27.224 23.3757 27.398 23.5018 27.5 23.5018C27.602 23.5018 27.7745 23.3757 28.121 23.1222C28.964 22.5072 30.368 22.1202 31.9775 23.0803C34.0895 24.3403 34.5665 28.4938 29.6975 31.9978C28.7675 32.6653 28.3055 32.9998 27.5 32.9998C26.6945 32.9998 26.231 32.6653 25.304 31.9978C20.4335 28.4938 20.9105 24.3388 23.0225 23.0803Z" stroke="#CB8020" stroke-width="2" stroke-linecap="round" stroke-linejoin="round"/>
</svg>
