<svg width="122" height="135" viewBox="0 0 122 135" fill="none" xmlns="http://www.w3.org/2000/svg">
<path d="M56.3402 0.451164C47.2825 1.20751 38.4992 4.23289 30.791 9.22935C23.4716 13.9737 17.8219 19.6577 12.9271 27.1754C7.98647 34.7847 4.8986 43.4712 3.86931 52.6619C3.50334 56.054 3.41185 61.6005 3.66345 64.5572L3.84644 66.4595H8.60404H13.3845V65.9323C13.3845 65.6573 13.1787 63.8696 12.9271 61.9902C11.8292 53.6933 12.584 47.1612 15.2601 41.7064C16.2894 39.6207 16.724 39.0248 18.5081 37.237C21.7561 34.0054 25.0498 32.5844 30.5851 32.0343C35.0911 31.5759 43.0052 32.2635 47.008 33.4553C50.3017 34.4409 52.8864 36.687 54.3503 39.8728C54.7391 40.6979 55.1279 41.523 55.2194 41.7064C55.7455 42.669 61.784 43.0586 64.6203 42.3023C67.0677 41.6376 69.2864 40.4229 71.1391 38.681C74.6616 35.3806 76.3771 31.4155 76.3542 26.5795C76.3084 19.016 71.528 12.5527 64.2314 10.1691C62.4931 9.59607 61.8526 9.50439 59.5882 9.50439C58.1472 9.50439 56.5461 9.59607 56.0429 9.68774C54.7162 9.96278 55.2881 9.55023 57.0493 8.95432C65.1921 6.18105 73.4493 7.07492 80.2197 11.4984C85.3204 14.8217 89.2775 20.2766 90.6956 25.846C91.176 27.8171 91.6792 32.0114 91.4962 32.8594C91.4504 33.1115 91.359 34.0283 91.2675 34.8763L91.1531 36.4119L91.9994 36.5495C98.2209 37.5579 102.613 40.2395 106.066 45.1443C107.988 47.8717 108.331 48.8343 109.772 55.2977C110.732 59.5378 111.716 62.9069 112.768 65.4739L113.157 66.4595H115.742H118.326L118.486 63.0674C119.127 50.5075 115.49 37.1224 108.537 26.6024C100.257 14.0425 87.6306 5.058 73.6552 1.75758C68.3943 0.519928 61.6697 0.0156937 56.3402 0.451164ZM59.977 3.33903C59.7712 3.54531 59.3366 3.20151 59.4967 2.92648C59.5882 2.78896 59.7254 2.78896 59.8856 2.9494C60.0228 3.08691 60.0685 3.24735 59.977 3.33903ZM53.9843 4.11829C53.9843 4.27873 53.8471 4.46209 53.7098 4.50793C53.5268 4.57669 53.4125 4.41625 53.4125 4.11829C53.4125 3.82034 53.5268 3.6599 53.7098 3.70574C53.8471 3.7745 53.9843 3.95786 53.9843 4.11829ZM68.28 4.8288C68.28 4.9434 68.1885 5.03508 68.0513 5.03508C67.9369 5.03508 67.8225 4.87464 67.8225 4.66837C67.8225 4.48501 67.9369 4.39333 68.0513 4.46209C68.1885 4.53085 68.28 4.69128 68.28 4.8288ZM75.851 6.02062C75.5536 6.31857 75.2563 6.08938 75.485 5.74558C75.5536 5.60807 75.7366 5.56223 75.8739 5.63099C76.0111 5.72266 76.0111 5.86018 75.851 6.02062ZM50.8964 9.32103L51.4454 9.59607L50.8278 9.82526C50.439 9.9857 50.1645 10.3066 50.0272 10.8108C49.7985 11.5672 49.7756 11.5442 49.4097 10.3983C49.341 10.192 49.0894 9.9857 48.8378 9.91694C48.2431 9.7565 48.2431 9.48147 48.8378 9.32103C49.0894 9.25227 49.4097 8.90848 49.524 8.56469L49.7756 7.92294L50.0501 8.47301C50.2102 8.79388 50.5762 9.16059 50.8964 9.32103ZM43.6685 8.67929C43.7371 8.79388 43.6456 9.00016 43.4855 9.13768C43.1196 9.43563 42.7536 9.09184 43.0052 8.70221C43.1882 8.42717 43.5084 8.40425 43.6685 8.67929ZM85.4348 8.8168C85.4348 9.00016 85.3433 9.16059 85.229 9.16059C84.9316 9.16059 84.7258 8.79388 84.9087 8.61053C85.1603 8.35841 85.4348 8.47301 85.4348 8.8168ZM39.9173 10.742C39.9173 11.7276 40.0774 11.888 41.1525 12.1631L41.8615 12.3235L41.1754 12.3464C40.2376 12.3693 39.9173 12.736 39.9173 13.7903C39.9173 14.2717 39.8258 14.6613 39.6886 14.6613C39.5742 14.6613 39.4599 14.2487 39.4599 13.7674C39.4599 12.7819 39.2998 12.6214 38.2247 12.3464C37.6529 12.2318 37.63 12.186 38.0417 12.1631C39.071 12.1172 39.4599 11.7276 39.4599 10.765C39.4599 10.2607 39.5742 9.84818 39.6886 9.84818C39.8258 9.84818 39.9173 10.2607 39.9173 10.742ZM45.6356 10.5587C45.6356 10.6733 45.4755 10.765 45.2925 10.765C44.9494 10.765 44.835 10.4899 45.0867 10.2378C45.2696 10.0545 45.6356 10.2607 45.6356 10.5587ZM53.0465 12.1631C52.9779 12.2777 52.8178 12.3235 52.7034 12.2318C52.589 12.1631 52.5433 12.0026 52.6348 11.888C52.7034 11.7734 52.8635 11.7276 52.9779 11.8193C53.0922 11.888 53.138 12.0485 53.0465 12.1631ZM35.114 12.3693C35.114 12.4839 35.0225 12.5985 34.8852 12.5985C34.7709 12.5985 34.6565 12.4839 34.6565 12.3693C34.6565 12.2318 34.7709 12.1401 34.8852 12.1401C35.0225 12.1401 35.114 12.2318 35.114 12.3693ZM58.01 13.5841C57.9871 13.8591 57.6669 13.7903 57.5754 13.4924C57.5068 13.3549 57.5982 13.2632 57.7584 13.309C57.8956 13.3778 58.01 13.4924 58.01 13.5841ZM61.3723 13.9279C61.4181 14.0883 61.3037 14.2029 61.0978 14.2029C60.892 14.2029 60.7319 14.0425 60.7319 13.8362C60.7319 13.4466 61.2351 13.5153 61.3723 13.9279ZM89.5977 14.0883C89.5977 14.2029 89.4834 14.3404 89.3461 14.3863C89.2089 14.4321 89.0945 14.2946 89.0945 14.0883C89.0945 13.882 89.2089 13.7445 89.3461 13.7903C89.4834 13.8362 89.5977 13.9737 89.5977 14.0883ZM28.7095 14.3175C28.7095 14.5009 28.618 14.6613 28.4808 14.6613C28.3664 14.6613 28.252 14.5009 28.252 14.3175C28.252 14.1341 28.3664 13.9737 28.4808 13.9737C28.618 13.9737 28.7095 14.1341 28.7095 14.3175ZM44.9952 14.7071L45.5212 15.2343L44.9037 15.876C44.3318 16.4719 44.2861 16.4949 44.1489 16.0594C44.0802 15.8302 43.8744 15.5551 43.6914 15.4864C43.4169 15.3947 43.4398 15.2572 43.8744 14.7988C44.1489 14.5009 44.4005 14.2487 44.4233 14.2258C44.4462 14.2029 44.6978 14.4321 44.9952 14.7071ZM49.9815 14.5467C49.9815 14.73 49.8443 14.8905 49.6613 14.8905C49.2724 14.8905 49.0208 14.5696 49.2267 14.3404C49.5012 14.0654 49.9815 14.2029 49.9815 14.5467ZM32.5293 15.4864C32.3235 15.6927 31.8889 15.3489 32.049 15.0738C32.1405 14.9363 32.2777 14.9363 32.4378 15.0968C32.5751 15.2343 32.6208 15.3947 32.5293 15.4864ZM37.1726 15.4635C37.1726 15.6468 37.0124 15.8073 36.8295 15.8073C36.6465 15.8073 36.4864 15.6468 36.4864 15.4635C36.4864 15.2801 36.6465 15.1197 36.8295 15.1197C37.0124 15.1197 37.1726 15.2801 37.1726 15.4635ZM55.837 15.7385C56.3402 16.2427 56.386 16.3803 56.1115 16.5865C55.9285 16.724 55.6312 17.0908 55.4253 17.3658C55.0593 17.9159 55.0593 17.9159 54.8992 17.4346C54.8306 17.1595 54.5561 16.8386 54.3045 16.7011C53.8699 16.4719 53.8699 16.449 54.4875 15.8302C54.8306 15.4635 55.1508 15.1655 55.1737 15.1426C55.1966 15.1426 55.4939 15.3947 55.837 15.7385ZM63.957 17.2054L63.3623 17.8013L62.7904 17.2283L62.2186 16.6553L62.7904 16.0594L63.3623 15.4635L63.957 16.0365L64.5517 16.6095L63.957 17.2054ZM96.3453 18.8326C96.5511 19.0618 97.0772 19.2452 97.5347 19.2681L98.3581 19.291L97.3746 19.4973C96.0251 19.7494 95.9565 19.8182 95.9565 21.1017C95.9565 21.7205 95.865 22.2247 95.7277 22.2247C95.6133 22.2247 95.499 21.7205 95.499 21.0788C95.499 19.8411 95.1788 19.4973 93.9665 19.4515C93.2346 19.4286 93.4175 19.3369 94.6527 19.1306C95.499 18.9931 95.499 18.9931 95.499 17.8929C95.499 16.4949 95.8192 16.1511 95.9107 17.4575C95.9565 17.9846 96.1623 18.6264 96.3453 18.8326ZM36.0289 17.5262C36.0289 17.7096 35.8688 17.87 35.6858 17.87C35.5028 17.87 35.3427 17.7096 35.3427 17.5262C35.3427 17.3429 35.5028 17.1824 35.6858 17.1824C35.8688 17.1824 36.0289 17.3429 36.0289 17.5262ZM49.707 18.4889C50.073 18.8785 50.073 18.9243 49.6613 19.3827L49.2038 19.864L48.815 19.3827C48.449 18.9243 48.449 18.8785 48.7921 18.5118C49.2724 18.0305 49.2267 18.0305 49.707 18.4889ZM27.6802 18.9931C27.8403 19.2681 27.4057 19.5432 27.1084 19.3598C26.8568 19.1994 27.0169 18.7868 27.3371 18.7868C27.4515 18.7868 27.5887 18.8785 27.6802 18.9931ZM37.8587 19.1306C37.8587 19.314 37.7673 19.4744 37.6529 19.4744C37.3555 19.4744 37.1497 19.1077 37.3327 18.9243C37.5843 18.6722 37.8587 18.7868 37.8587 19.1306ZM32.4836 20.5516C31.9575 21.1475 31.683 21.2163 31.683 20.735C31.683 20.5516 31.5229 20.3912 31.3399 20.3912C30.8825 20.3912 30.9053 20.2766 31.5229 19.6577L32.0261 19.1306L32.4836 19.589L32.9639 20.0474L32.4836 20.5516ZM44.835 19.4744C44.9037 19.589 44.8122 19.7036 44.6292 19.7036C44.4233 19.7036 44.2632 19.589 44.2632 19.4744C44.2632 19.3369 44.3547 19.2452 44.4691 19.2452C44.6063 19.2452 44.7664 19.3369 44.835 19.4744ZM59.3595 19.7036C59.3595 19.8182 59.5653 20.0932 59.7941 20.3224C60.2287 20.735 60.2287 20.735 59.7026 21.3538L59.1536 21.9726L58.4445 21.308C57.8041 20.7121 57.7812 20.6433 58.1929 20.5058C58.4445 20.437 58.719 20.162 58.7876 19.9099C58.9249 19.4744 59.3595 19.291 59.3595 19.7036ZM70.6817 21.4226L70.1098 21.9726L69.5838 21.4455L69.0348 20.8954L69.6295 20.3224L70.2242 19.7494L70.7274 20.2995L71.2306 20.8496L70.6817 21.4226ZM64.6203 20.3912C64.6203 20.6433 64.5288 20.8496 64.4144 20.8496C64.0942 20.8496 63.8883 20.437 64.0485 20.162C64.2772 19.7723 64.6203 19.9099 64.6203 20.3912ZM25.2785 24.3333C25.6216 24.6084 26.1706 24.7459 27.0398 24.7459C27.7946 24.7459 28.2292 24.8376 28.1377 24.9751C28.0691 25.0897 27.4515 25.2043 26.811 25.2043C26.1477 25.2043 25.5073 25.296 25.3472 25.3876C24.8897 25.6856 24.5923 26.7857 24.5695 28.3672C24.5466 29.7882 24.5237 29.834 24.3407 28.986C24.2492 28.4818 24.1578 27.6108 24.1349 27.0378C24.112 25.571 23.929 25.3647 22.3737 25.273C20.3837 25.1355 20.1778 24.9063 21.8933 24.7459C23.9062 24.5396 24.1349 24.3333 24.1349 22.5915C24.1349 20.2078 24.4551 19.7953 24.6152 21.9726C24.7525 23.5999 24.8439 23.9895 25.2785 24.3333ZM43.9887 22.729C43.6456 22.9582 43.2797 23.4166 43.1882 23.7603L43.0281 24.4021L42.8908 23.8291C42.8222 23.5082 42.4334 23.0498 42.0445 22.7748L41.3126 22.2935L41.8844 22.0414C42.1818 21.8809 42.5477 21.5142 42.685 21.2163L42.9366 20.6662L43.7829 21.5142L44.6292 22.3393L43.9887 22.729ZM51.8113 21.308C51.8113 21.4226 51.7199 21.5372 51.5826 21.5372C51.4683 21.5372 51.3539 21.4226 51.3539 21.308C51.3539 21.1704 51.4683 21.0788 51.5826 21.0788C51.7199 21.0788 51.8113 21.1704 51.8113 21.308ZM21.4816 22.0185C21.413 22.1331 21.2529 22.1789 21.1385 22.0872C21.0241 22.0185 20.9784 21.858 21.0699 21.7434C21.1385 21.6288 21.2986 21.583 21.413 21.6747C21.5273 21.7434 21.5731 21.9039 21.4816 22.0185ZM38.3162 22.4769C38.3162 22.5915 38.2247 22.6831 38.0875 22.6831C37.9731 22.6831 37.8587 22.5227 37.8587 22.3164C37.8587 22.1331 37.9731 22.0414 38.0875 22.1101C38.2247 22.1789 38.3162 22.3393 38.3162 22.4769ZM53.1837 23.852C53.1837 23.9666 53.0236 24.0583 52.8406 24.0583C52.4975 24.0583 52.3832 23.7833 52.6348 23.5312C52.8178 23.3478 53.1837 23.5541 53.1837 23.852ZM71.528 24.7917C71.1849 25.1355 70.9333 24.8834 71.1162 24.3792C71.2306 24.0812 71.3221 24.0354 71.528 24.2417C71.7338 24.4479 71.7338 24.5855 71.528 24.7917ZM48.7235 24.9751C48.7235 25.1355 48.5862 25.3189 48.449 25.3647C48.266 25.4335 48.1516 25.273 48.1516 24.9751C48.1516 24.6771 48.266 24.5167 48.449 24.5625C48.5862 24.6313 48.7235 24.8146 48.7235 24.9751ZM35.0682 25.6168C35.4799 26.0294 35.4799 26.0752 34.9539 26.5795C34.5193 26.992 34.4278 27.0149 34.4278 26.717C34.4278 26.5107 34.2905 26.2815 34.1076 26.2127C33.8331 26.0981 33.8331 26.0065 34.1533 25.6627C34.6336 25.1355 34.5879 25.1355 35.0682 25.6168ZM61.2351 26.2357C61.2351 26.3503 61.1207 26.4878 60.9835 26.5336C60.8462 26.5795 60.7319 26.4419 60.7319 26.2357C60.7319 26.0294 60.8462 25.8919 60.9835 25.9377C61.1207 25.9835 61.2351 26.1211 61.2351 26.2357ZM57.9871 26.3503C57.9871 26.4649 57.8956 26.5795 57.7584 26.5795C57.644 26.5795 57.5296 26.4649 57.5296 26.3503C57.5296 26.2127 57.644 26.1211 57.7584 26.1211C57.8956 26.1211 57.9871 26.2127 57.9871 26.3503ZM99.3874 27.4962C99.3874 28.9172 99.7763 29.3298 101.126 29.3298C101.675 29.3298 102.132 29.4215 102.132 29.559C102.132 29.6736 101.629 29.7882 101.034 29.7882C100.44 29.7882 99.822 29.9028 99.6619 30.0632C99.5018 30.2237 99.3874 30.9342 99.3874 31.6676C99.3874 33.4324 99.0214 33.3866 98.8842 31.5988C98.7698 30.0174 98.564 29.7882 97.1687 29.7882C95.7963 29.7882 95.7506 29.3986 97.123 29.284C97.7406 29.2152 98.381 29.0548 98.5182 28.9172C98.6555 28.7797 98.8156 28.0921 98.8842 27.4046C98.9986 25.8689 99.3874 25.9377 99.3874 27.4962ZM45.7957 28.0463L45.2696 28.5964L44.7664 28.0692L44.2632 27.5421L44.7664 26.9691L45.2696 26.3961L45.7957 26.9462L46.2989 27.4962L45.7957 28.0463ZM19.1028 27.1524C19.1028 27.3358 19.0113 27.4962 18.8969 27.4962C18.5996 27.4962 18.3937 27.1295 18.5767 26.9462C18.8283 26.6941 19.1028 26.8087 19.1028 27.1524ZM51.9943 27.1983C51.9028 27.7025 51.4911 27.6567 51.3996 27.1754C51.3539 26.9462 51.4683 26.8087 51.697 26.8087C51.9257 26.8087 52.0401 26.9691 51.9943 27.1983ZM64.1628 27.0378C64.1628 27.1524 64.0713 27.267 63.9341 27.267C63.8197 27.267 63.7054 27.1524 63.7054 27.0378C63.7054 26.9003 63.8197 26.8087 63.9341 26.8087C64.0713 26.8087 64.1628 26.9003 64.1628 27.0378ZM68.2342 27.6567C68.28 27.6796 68.097 27.9088 67.8454 28.1609C67.3879 28.6193 67.3422 28.6193 66.9533 28.2297C66.5645 27.84 66.5645 27.7713 66.8847 27.3358C67.2278 26.8774 67.2736 26.8774 67.7082 27.2212C67.9598 27.4275 68.2114 27.6338 68.2342 27.6567ZM42.4562 27.3358C42.4334 27.6108 42.1131 27.5421 42.0217 27.2441C41.953 27.1066 42.0445 27.0149 42.2046 27.0608C42.3419 27.1295 42.4562 27.2441 42.4562 27.3358ZM39.6886 27.7254C39.6886 27.84 39.5971 27.9546 39.4599 27.9546C39.3455 27.9546 39.2311 27.84 39.2311 27.7254C39.2311 27.5879 39.3455 27.4962 39.4599 27.4962C39.5971 27.4962 39.6886 27.5879 39.6886 27.7254ZM28.8239 29.1006C28.7095 29.284 28.5723 29.284 28.435 29.1464C28.2978 29.0089 28.2749 28.7797 28.3664 28.6422C28.4808 28.4589 28.618 28.4589 28.7553 28.5964C28.8925 28.7339 28.9154 28.9631 28.8239 29.1006ZM74.1126 28.8714C74.1813 28.986 74.0898 29.1006 73.9068 29.1006C73.7009 29.1006 73.5408 28.986 73.5408 28.8714C73.5408 28.7339 73.6323 28.6422 73.7467 28.6422C73.8839 28.6422 74.044 28.7339 74.1126 28.8714ZM55.0136 29.3527C55.0136 29.4673 54.8535 29.559 54.6705 29.559C54.3274 29.559 54.213 29.284 54.4646 29.0318C54.6476 28.8485 55.0136 29.0548 55.0136 29.3527ZM59.1307 29.2152C59.1307 29.3986 59.0392 29.559 58.902 29.559C58.7876 29.559 58.6733 29.3986 58.6733 29.2152C58.6733 29.0318 58.7876 28.8714 58.902 28.8714C59.0392 28.8714 59.1307 29.0318 59.1307 29.2152ZM50.6677 29.6736C50.6677 29.8569 50.5076 30.0174 50.3246 30.0174C50.1416 30.0174 49.9815 29.8569 49.9815 29.6736C49.9815 29.4902 50.1416 29.3298 50.3246 29.3298C50.5076 29.3298 50.6677 29.4902 50.6677 29.6736ZM106.707 30.4987C106.707 30.6133 106.547 30.705 106.364 30.705C106.021 30.705 105.906 30.4299 106.158 30.1778C106.341 29.9945 106.707 30.2007 106.707 30.4987ZM15.6718 31.3238C15.6718 31.9426 15.7633 32.5385 15.8548 32.699C15.9463 32.8365 16.541 33.0657 17.1586 33.1574L18.3022 33.3636L17.273 33.5241C15.8777 33.7762 15.6718 34.0054 15.6718 35.4264C15.6718 36.114 15.5803 36.6641 15.4431 36.6641C15.3287 36.6641 15.2144 36.114 15.2144 35.4264C15.2144 34.0054 15.0543 33.822 13.6133 33.5241L12.584 33.3178L13.7276 33.1344C14.3681 33.0428 14.9399 32.8365 15.0314 32.699C15.1229 32.5385 15.2144 31.9426 15.2144 31.3238C15.2144 30.7279 15.3287 30.2466 15.4431 30.2466C15.5803 30.2466 15.6718 30.7279 15.6718 31.3238ZM19.789 30.4529C19.789 30.7737 19.3773 30.98 19.1028 30.8196C18.9656 30.7279 18.9198 30.5675 18.9884 30.4529C19.1714 30.1778 19.789 30.1778 19.789 30.4529ZM22.0763 31.5988C22.0763 31.9197 21.6646 32.126 21.3901 31.9655C21.2529 31.8739 21.2071 31.7134 21.2757 31.5988C21.4587 31.3238 22.0763 31.3238 22.0763 31.5988ZM63.591 31.5988C63.7511 31.8739 63.3165 32.1489 63.0192 31.9655C62.7676 31.8051 62.9277 31.3926 63.2479 31.3926C63.3623 31.3926 63.4995 31.4842 63.591 31.5988ZM103.161 32.0801C103.161 32.2406 103.024 32.4239 102.887 32.4698C102.704 32.5385 102.59 32.3781 102.59 32.0801C102.59 31.7822 102.704 31.6218 102.887 31.6676C103.024 31.7364 103.161 31.9197 103.161 32.0801ZM53.8699 32.974C53.8699 33.2949 53.4582 33.5012 53.1837 33.3407C53.0465 33.249 53.0007 33.0886 53.0694 32.974C53.2524 32.699 53.8699 32.699 53.8699 32.974ZM58.8563 33.6845L59.5425 34.3492L58.9935 34.7159C58.6962 34.8993 58.4445 35.2201 58.4445 35.4035C58.4445 35.9077 58.0328 35.816 57.8727 35.2889C57.8041 35.0368 57.6669 34.8305 57.5754 34.8305C57.4839 34.8305 57.278 34.7388 57.1179 34.6471C56.8892 34.4867 56.9807 34.2804 57.461 33.7304C57.8041 33.3407 58.1243 33.0198 58.1472 32.9969C58.1701 32.9969 58.4903 33.2949 58.8563 33.6845ZM69.3321 33.249C69.5609 33.6387 69.0348 34.0741 68.7146 33.7533C68.4401 33.4782 68.6231 32.9969 68.9662 32.9969C69.0805 32.9969 69.2407 33.1115 69.3321 33.249ZM12.2409 35.0826C12.2409 35.1972 12.0808 35.2889 11.8978 35.2889C11.5547 35.2889 11.4403 35.0138 11.6919 34.7617C11.8749 34.5784 12.2409 34.7847 12.2409 35.0826ZM63.7054 35.0597C63.7054 35.1743 63.6139 35.2889 63.4766 35.2889C63.3623 35.2889 63.2479 35.1743 63.2479 35.0597C63.2479 34.9222 63.3623 34.8305 63.4766 34.8305C63.6139 34.8305 63.7054 34.9222 63.7054 35.0597ZM66.9076 36.0911C66.9076 36.2744 66.8161 36.4349 66.6789 36.4349C66.5645 36.4349 66.4501 36.2744 66.4501 36.0911C66.4501 35.9077 66.5645 35.7473 66.6789 35.7473C66.8161 35.7473 66.9076 35.9077 66.9076 36.0911ZM105.678 36.6641C105.563 36.8474 105.426 36.8474 105.289 36.7099C105.151 36.5724 105.129 36.3432 105.22 36.2057C105.334 36.0223 105.472 36.0223 105.609 36.1598C105.746 36.2973 105.769 36.5265 105.678 36.6641ZM108.765 37.4662C108.765 37.6496 108.674 37.81 108.56 37.81C108.262 37.81 108.056 37.4433 108.239 37.26C108.491 37.0079 108.765 37.1224 108.765 37.4662ZM11.5547 37.81C11.5547 37.9246 11.3946 38.0392 11.2116 38.0392C11.0286 38.0392 10.8685 37.9246 10.8685 37.81C10.8685 37.6725 11.0286 37.5808 11.2116 37.5808C11.3946 37.5808 11.5547 37.6725 11.5547 37.81ZM65.0778 38.8414C65.0778 39.0248 64.9863 39.1852 64.849 39.1852C64.7347 39.1852 64.6203 39.0248 64.6203 38.8414C64.6203 38.6581 64.7347 38.4976 64.849 38.4976C64.9863 38.4976 65.0778 38.6581 65.0778 38.8414ZM59.8169 39.4144C59.8169 39.529 59.7254 39.6436 59.6111 39.6436C59.4738 39.6436 59.3137 39.529 59.2451 39.4144C59.1765 39.2769 59.268 39.1852 59.451 39.1852C59.6568 39.1852 59.8169 39.2769 59.8169 39.4144ZM110.595 40.675C110.595 40.8583 110.504 41.0188 110.367 41.0188C110.252 41.0188 110.138 40.8583 110.138 40.675C110.138 40.4916 110.252 40.3312 110.367 40.3312C110.504 40.3312 110.595 40.4916 110.595 40.675ZM11.0972 40.9042C11.0972 41.0875 11.0057 41.248 10.8685 41.248C10.7541 41.248 10.6397 41.0875 10.6397 40.9042C10.6397 40.7208 10.7541 40.5604 10.8685 40.5604C11.0057 40.5604 11.0972 40.7208 11.0972 40.9042ZM9.49609 43.8837C9.49609 44.0671 9.4046 44.2275 9.29024 44.2275C8.99289 44.2275 8.78703 43.8608 8.97001 43.6774C9.22162 43.4253 9.49609 43.5399 9.49609 43.8837ZM111.853 44.6859C111.922 44.8234 111.83 44.9839 111.625 45.0526C111.19 45.236 110.938 45.0526 111.167 44.7088C111.35 44.3879 111.67 44.3879 111.853 44.6859ZM10.1823 48.4676C10.1823 48.651 10.0222 48.8114 9.83919 48.8114C9.6562 48.8114 9.49609 48.651 9.49609 48.4676C9.49609 48.2843 9.6562 48.1238 9.83919 48.1238C10.0222 48.1238 10.1823 48.2843 10.1823 48.4676ZM113.34 49.3844C113.34 49.5678 113.249 49.7282 113.111 49.7282C112.997 49.7282 112.883 49.5678 112.883 49.3844C112.883 49.2011 112.997 49.0406 113.111 49.0406C113.249 49.0406 113.34 49.2011 113.34 49.3844ZM6.9343 53.1891C6.88856 53.3266 6.75132 53.4182 6.63695 53.4182C6.52259 53.4182 6.38535 53.3266 6.3396 53.1891C6.29386 53.0515 6.4311 52.9369 6.63695 52.9369C6.84281 52.9369 6.98005 53.0515 6.9343 53.1891ZM113.203 54.335C113.134 54.4496 112.974 54.4955 112.86 54.4038C112.745 54.335 112.7 54.1746 112.791 54.06C112.86 53.9454 113.02 53.8996 113.134 53.9912C113.249 54.06 113.294 54.2204 113.203 54.335ZM9.153 57.7042C10.1365 57.8646 10.2967 58.048 9.49609 58.1855C8.74128 58.323 8.69553 58.3918 8.5583 59.3544C8.44393 60.4316 8.19233 60.2483 8.07796 59.0106C8.03221 58.4605 7.8721 58.3001 7.32315 58.1855L6.63695 58.048L7.32315 57.8646C8.16945 57.6354 8.32956 57.4062 8.37531 56.3749C8.42106 55.6414 8.42106 55.6644 8.5583 56.6041C8.67266 57.4062 8.8099 57.6584 9.153 57.7042ZM114.484 58.5522C114.484 58.7356 114.392 58.896 114.278 58.896C113.98 58.896 113.775 58.5293 113.958 58.346C114.209 58.0938 114.484 58.2084 114.484 58.5522Z" fill="#CB8020"/>
<path d="M89.2093 2.42252C92.9605 3.98105 98.3128 6.6168 100.737 8.12949C103.665 9.94013 107.005 12.6676 108.651 14.5928C110.527 16.7931 110.779 16.9994 109.887 15.6929C108.583 13.7906 104.008 9.36714 101.79 7.85445C97.8554 5.19579 93.9898 3.38514 89.5295 2.07873C88.18 1.68909 86.9906 1.36822 86.8991 1.36822C86.7848 1.39114 87.8369 1.84953 89.2093 2.42252Z" fill="#CB8020"/>
<path d="M110.022 10.0775C110.343 12.0257 111.372 13.3321 113.202 14.0885C114.322 14.5698 114.231 14.3635 112.996 13.653C111.806 12.9425 110.96 11.9111 110.343 10.3755C109.931 9.38994 109.908 9.36702 110.022 10.0775Z" fill="#CB8020"/>
<path d="M29.8531 32.7678C25.0955 33.3407 21.5502 34.8993 18.8741 37.5809C15.5574 40.9271 13.8191 45.3048 13.1786 51.8827C12.8127 55.5956 12.8584 57.2917 13.5217 62.4027C14.025 66.1845 14.0936 67.5596 13.9792 69.8974C13.7962 73.9313 13.0414 77.7818 11.8978 80.4863C11.8063 80.7155 12.6068 80.005 13.659 78.9277C14.6883 77.8276 16.907 75.9253 18.5767 74.6876C22.0992 72.029 22.9683 71.0893 24.1577 68.6598C24.9354 67.0554 25.0498 66.6199 25.0498 65.2218C25.0498 63.3195 25.3243 62.2194 26.0333 61.1651C26.8339 59.9503 27.9089 59.3544 29.2127 59.3544C30.8824 59.3544 31.8431 59.9045 32.8266 61.4401L33.6958 62.7695L34.1762 61.4172C34.8395 59.5836 36.372 57.9564 38.4763 56.7875C40.4663 55.6873 41.2668 54.7476 41.9759 52.5703C42.7307 50.3241 43.6914 49.0636 45.2467 48.2614C46.4819 47.6426 46.7792 47.5738 49.707 47.4821C53.0922 47.3904 53.6183 47.2071 54.1673 46.1069C55.837 42.7836 53.0236 36.985 48.7463 34.968C46.8479 34.0513 45.0409 33.5929 41.7472 33.1345C38.705 32.699 32.0947 32.5156 29.8531 32.7678ZM43.0281 36.2286C43.2568 36.6182 42.7307 37.0537 42.4105 36.7328C42.136 36.4578 42.319 35.9765 42.6621 35.9765C42.7764 35.9765 42.9366 36.0911 43.0281 36.2286ZM28.3435 36.412C28.4121 36.5266 28.3206 36.7328 28.1605 36.8704C27.7946 37.1683 27.4286 36.8245 27.6802 36.4349C27.8632 36.1599 28.1834 36.1369 28.3435 36.412ZM33.7416 37.4663C33.7416 37.6496 33.6501 37.8101 33.5128 37.8101C33.3985 37.8101 33.2841 37.6496 33.2841 37.4663C33.2841 37.2829 33.3985 37.1225 33.5128 37.1225C33.6501 37.1225 33.7416 37.2829 33.7416 37.4663ZM35.8001 37.8101C35.8001 37.9247 35.7087 38.0393 35.5714 38.0393C35.4571 38.0393 35.3427 37.9247 35.3427 37.8101C35.3427 37.6725 35.4571 37.5809 35.5714 37.5809C35.7087 37.5809 35.8001 37.6725 35.8001 37.8101ZM49.2953 38.2685C49.2953 38.3831 49.2038 38.4977 49.0666 38.4977C48.9522 38.4977 48.8378 38.3831 48.8378 38.2685C48.8378 38.1309 48.9522 38.0393 49.0666 38.0393C49.2038 38.0393 49.2953 38.1309 49.2953 38.2685ZM39.0024 41.248C38.5678 41.6835 38.522 41.6835 38.1332 41.2938C37.7215 40.8813 37.7215 40.8584 38.1561 40.4C38.6135 39.9645 38.6364 39.9645 39.0481 40.3771C39.437 40.7667 39.437 40.8125 39.0024 41.248ZM25.6674 40.7667C25.8961 41.1334 25.8503 41.2709 25.4844 41.6147C25.0955 41.9585 25.0498 41.9814 25.0498 41.6376C25.0498 41.4084 24.8897 41.248 24.7067 41.248C24.4322 41.248 24.4322 41.1792 24.7753 40.8125C25.2785 40.2395 25.3471 40.2395 25.6674 40.7667ZM42.9594 41.1334C42.9823 41.248 42.8222 41.3855 42.6163 41.4314C42.3647 41.4772 42.2046 41.3626 42.2046 41.1334C42.2046 40.7438 42.8908 40.7208 42.9594 41.1334ZM52.0401 41.6147C52.0401 41.7981 51.9486 41.8897 51.8113 41.821C51.697 41.7522 51.5826 41.5918 51.5826 41.4543C51.5826 41.3397 51.697 41.248 51.8113 41.248C51.9486 41.248 52.0401 41.4084 52.0401 41.6147ZM20.2922 41.821C20.2922 41.9356 20.1778 42.0731 20.0406 42.1189C19.9033 42.1648 19.789 42.0273 19.789 41.821C19.789 41.6147 19.9033 41.4772 20.0406 41.523C20.1778 41.5689 20.2922 41.7064 20.2922 41.821ZM47.0308 41.7751C47.008 42.0502 46.6877 41.9814 46.5963 41.6835C46.5276 41.546 46.6191 41.4543 46.7792 41.5001C46.9165 41.5689 47.0308 41.6835 47.0308 41.7751ZM31.683 42.6232C31.683 42.7378 31.5915 42.8524 31.4543 42.8524C31.3399 42.8524 31.2255 42.7378 31.2255 42.6232C31.2255 42.4857 31.3399 42.394 31.4543 42.394C31.5915 42.394 31.683 42.4857 31.683 42.6232ZM48.8378 42.7378C48.8378 42.9211 48.7463 43.0816 48.6091 43.0816C48.4947 43.0816 48.3804 42.9211 48.3804 42.7378C48.3804 42.5544 48.4947 42.394 48.6091 42.394C48.7463 42.394 48.8378 42.5544 48.8378 42.7378ZM29.2127 46.4507C29.3499 46.6112 29.9218 46.7487 30.5622 46.7487C31.1798 46.7487 31.683 46.8404 31.683 46.9779C31.683 47.0925 31.1798 47.2071 30.5622 47.2071C29.167 47.2071 28.9382 47.4821 28.7552 49.3157L28.618 50.7596L28.4579 49.3386C28.2749 47.505 28.0233 47.2071 26.628 47.2071C26.0105 47.2071 25.5073 47.0925 25.5073 46.9779C25.5073 46.8404 25.9876 46.7487 26.6052 46.7487C28.1605 46.7487 28.3206 46.5653 28.4579 44.7547L28.5722 43.1962L28.7552 44.6859C28.8696 45.4881 29.0755 46.2903 29.2127 46.4507ZM35.2055 44.2505C35.0225 44.5713 34.4278 44.5026 34.4278 44.1588C34.4278 43.9754 34.4964 43.7691 34.5879 43.7004C34.7937 43.4941 35.3656 43.9983 35.2055 44.2505ZM41.9759 44.8005C41.9759 44.9839 41.8844 45.1443 41.77 45.1443C41.4727 45.1443 41.2668 44.7776 41.4498 44.5942C41.7014 44.3421 41.9759 44.4567 41.9759 44.8005ZM20.0177 45.2589C20.0177 45.4423 19.9262 45.6027 19.789 45.6027C19.6746 45.6027 19.5602 45.4423 19.5602 45.2589C19.5602 45.0756 19.6746 44.9151 19.789 44.9151C19.9262 44.9151 20.0177 45.0756 20.0177 45.2589ZM44.126 45.3964C44.0573 45.511 43.8972 45.5569 43.7829 45.4652C43.6685 45.3964 43.6228 45.236 43.7142 45.1214C43.7829 45.0068 43.943 44.961 44.0573 45.0526C44.1717 45.1214 44.2175 45.2818 44.126 45.3964ZM37.63 45.8319C37.63 45.9465 37.4699 46.0611 37.2869 46.0611C37.1039 46.0611 36.9438 45.9465 36.9438 45.8319C36.9438 45.6944 37.1039 45.6027 37.2869 45.6027C37.4699 45.6027 37.63 45.6944 37.63 45.8319ZM34.8852 46.8633C34.8852 47.0466 34.7937 47.2071 34.6794 47.2071C34.382 47.2071 34.1762 46.8404 34.3591 46.657C34.6108 46.4049 34.8852 46.5195 34.8852 46.8633ZM17.5017 48.2614C17.5017 48.4447 17.3416 48.5823 17.1586 48.5823C16.8155 48.5823 16.6782 48.1009 16.9527 47.8259C17.1814 47.6196 17.5017 47.8717 17.5017 48.2614ZM38.7737 48.3072C38.7737 48.6052 38.4992 48.8114 38.2704 48.6739C38.0417 48.5364 38.2476 48.1239 38.5678 48.1239C38.6822 48.1239 38.7737 48.2155 38.7737 48.3072ZM21.1614 48.926C21.1614 49.1094 21.0699 49.2698 20.9326 49.2698C20.8183 49.2698 20.7039 49.1094 20.7039 48.926C20.7039 48.7427 20.8183 48.5823 20.9326 48.5823C21.0699 48.5823 21.1614 48.7427 21.1614 48.926ZM35.5714 49.7282C35.5714 49.8428 35.4799 49.9574 35.3427 49.9574C35.2283 49.9574 35.114 49.8428 35.114 49.7282C35.114 49.5907 35.2283 49.499 35.3427 49.499C35.4799 49.499 35.5714 49.5907 35.5714 49.7282ZM24.6381 50.7596C24.6381 50.8742 24.5237 51.0117 24.3865 51.0576C24.2492 51.1034 24.1349 50.9659 24.1349 50.7596C24.1349 50.5533 24.2492 50.4158 24.3865 50.4617C24.5237 50.5075 24.6381 50.645 24.6381 50.7596ZM20.0177 51.8827C20.0177 52.9828 20.2236 53.1662 21.413 53.1662C21.7789 53.1662 22.0763 53.2578 22.0763 53.3954C22.0763 53.51 21.7789 53.6246 21.413 53.6246C20.2236 53.6246 20.0177 53.8079 20.0177 54.8851C20.0177 55.4352 19.9262 55.9623 19.789 56.0311C19.6517 56.1228 19.5602 55.779 19.5602 55.1831C19.5602 53.9683 19.2629 53.6246 18.2565 53.6246C17.1586 53.6246 17.3416 53.212 18.4852 53.1203L19.4459 53.0516L19.5145 51.9514C19.606 50.5992 20.0177 50.5304 20.0177 51.8827ZM31.2713 51.218C31.2713 51.3326 31.1569 51.4701 31.0197 51.516C30.8824 51.5618 30.7681 51.4243 30.7681 51.218C30.7681 51.0117 30.8824 50.8742 31.0197 50.92C31.1569 50.9659 31.2713 51.1034 31.2713 51.218ZM28.4808 54.4267C28.4808 54.6101 28.3206 54.7705 28.1377 54.7705C27.9547 54.7705 27.7946 54.6101 27.7946 54.4267C27.7946 54.2434 27.9547 54.0829 28.1377 54.0829C28.3206 54.0829 28.4808 54.2434 28.4808 54.4267ZM34.6794 54.6101C34.382 54.908 34.0847 54.6789 34.3134 54.3351C34.382 54.1975 34.565 54.1517 34.7022 54.2205C34.8395 54.3121 34.8395 54.4497 34.6794 54.6101ZM25.0498 55.4581C25.0498 55.5727 24.9583 55.6873 24.8211 55.6873C24.7067 55.6873 24.5923 55.5727 24.5923 55.4581C24.5923 55.3206 24.7067 55.2289 24.8211 55.2289C24.9583 55.2289 25.0498 55.3206 25.0498 55.4581ZM23.9061 56.9479C23.9061 57.1312 23.8146 57.2917 23.7003 57.2917C23.4029 57.2917 23.1971 56.925 23.3801 56.7416C23.6317 56.4895 23.9061 56.6041 23.9061 56.9479ZM17.2729 57.7501C17.2729 57.8647 17.1814 57.9793 17.0442 57.9793C16.9298 57.9793 16.8155 57.8647 16.8155 57.7501C16.8155 57.6126 16.9298 57.5209 17.0442 57.5209C17.1814 57.5209 17.2729 57.6126 17.2729 57.7501ZM21.047 58.4377C21.1156 58.5752 21.0241 58.7356 20.8183 58.8044C20.3837 58.9877 20.1321 58.8044 20.3608 58.4606C20.5438 58.1397 20.864 58.1397 21.047 58.4377ZM23.1284 62.1965L22.6481 62.7007L22.1907 62.2194L21.7103 61.761L22.1907 61.2797C22.6481 60.8213 22.6481 60.8213 23.1284 61.2568L23.6317 61.6693L23.1284 62.1965ZM17.5474 62.4944L17.0213 63.0216L16.5867 62.5173C16.1979 62.0131 16.1979 61.9902 16.6325 61.5318C17.0899 61.0505 17.1128 61.0505 17.5932 61.486L18.0964 61.9444L17.5474 62.4944ZM19.8118 64.6947C19.789 64.9697 19.4688 64.901 19.3773 64.603C19.3086 64.4655 19.4001 64.3738 19.5602 64.4197C19.6975 64.4884 19.8118 64.603 19.8118 64.6947ZM16.6325 67.7201C16.6325 67.8347 16.5181 67.9722 16.3809 68.018C16.2436 68.0639 16.1293 67.9264 16.1293 67.7201C16.1293 67.5138 16.2436 67.3763 16.3809 67.4221C16.5181 67.468 16.6325 67.6055 16.6325 67.7201ZM20.0177 68.6369C20.0177 68.8202 19.9262 68.9807 19.789 68.9807C19.6746 68.9807 19.5602 68.8202 19.5602 68.6369C19.5602 68.4535 19.6746 68.2931 19.789 68.2931C19.9262 68.2931 20.0177 68.4535 20.0177 68.6369ZM15.6947 71.5706C15.6718 71.8456 15.3516 71.7768 15.2601 71.4789C15.1915 71.3414 15.283 71.2497 15.4431 71.2955C15.5803 71.3643 15.6947 71.4789 15.6947 71.5706Z" fill="#CB8020"/>
<path d="M82.9181 37.4665C80.4707 37.8103 76.7881 38.6812 74.8668 39.4146C71.3443 40.721 68.2793 43.8152 68.2793 46.0384C68.2793 47.574 68.8969 47.9865 71.8475 48.3532C75.1184 48.7658 76.8567 49.8201 77.6573 51.9058C77.7945 52.2954 78.0004 53.4414 78.1147 54.4957C78.4121 57.2002 78.7781 57.7044 81.5 59.0567C82.8723 59.7443 84.0846 60.5235 84.6793 61.1424C85.6171 62.0821 85.64 62.105 85.8916 61.6466C86.2804 60.9132 88.156 59.813 89.0023 59.813C89.5284 59.813 89.963 60.0193 90.4433 60.5006C91.5641 61.6466 91.8843 63.5947 91.3583 65.9555C91.1067 66.9868 91.1295 67.1702 91.7928 68.5454C92.9365 70.9519 93.2796 72.6709 93.1424 75.2837C92.9136 79.7989 91.0609 83.5118 84.9538 91.717C82.392 95.155 80.6994 97.9053 80.1504 99.5326C79.5786 101.16 79.5786 104.162 80.1504 106.363C80.768 108.792 81.5 110.282 83.6043 113.559C85.8458 117.02 86.4405 118.304 86.9437 120.802C87.6071 124.102 86.898 126.532 84.5649 129.076C83.3069 130.428 80.4249 132.812 78.8009 133.843C77.4057 134.714 78.8924 134.164 81.9803 132.651C86.349 130.497 88.1332 128.503 89.0023 124.79C90.5348 118.143 91.0152 116.791 92.7306 114.66C93.9429 113.124 96.9164 110.649 100.919 107.807C102.658 106.592 105.265 104.758 106.706 103.727C109.931 101.435 112.79 98.7304 114.163 96.6906C117.273 91.9921 118.371 85.4142 117.09 79.0654C116.587 76.5443 115.604 73.794 113.477 68.7516C111.029 62.9988 110.366 60.9361 109.131 55.3437C108.582 52.8226 107.896 50.141 107.598 49.3846C106.592 46.6572 103.801 42.9442 101.377 41.1107C99.3181 39.5521 96.093 38.0853 93.5998 37.5581C91.1067 37.0539 86.3033 37.0081 82.9181 37.4665ZM101.308 46.2676C101.56 46.5426 102.04 46.7489 102.452 46.7718H103.161L102.383 47.0468C101.949 47.2073 101.4 47.5969 101.125 47.9636C100.69 48.5595 100.668 48.9033 100.645 54.8395C100.645 61.4403 100.713 61.9216 101.72 62.2425C102.2 62.38 102.2 62.4029 101.605 62.7009C100.622 63.228 100.485 64.1907 100.576 70.0122C100.645 75.5588 100.782 76.3151 101.674 76.3151C102.269 76.3151 102.269 76.6818 101.674 76.8423C100.713 77.0944 100.485 78.3091 100.53 83.3972C100.576 89.0125 100.599 88.7604 100.302 88.5771C100.142 88.4854 100.073 86.6518 100.096 83.3972C100.119 77.6444 100.073 77.4382 98.426 76.9798C97.7399 76.7735 97.5797 76.6589 97.9 76.6131C99.9357 76.2463 99.9814 76.1317 100.187 70.5623C100.256 68.087 100.279 65.5888 100.187 65.0158C100.004 63.801 99.158 62.7926 98.3346 62.7926C98.0601 62.7926 97.7399 62.678 97.6712 62.5634C97.5797 62.4258 97.7856 62.3342 98.1287 62.3342C99.0207 62.3342 99.524 61.9675 99.8442 61.1424C100.164 60.3173 100.462 49.7284 100.21 48.697C100.119 48.3762 99.8671 47.9178 99.6154 47.6657C99.1809 47.2302 98.8378 47.2073 93.5541 47.2073C87.5385 47.2073 86.7836 47.3219 86.4634 48.3532C86.3262 48.8116 86.2804 48.7887 85.5256 48.1241C85.091 47.7573 84.5192 47.4365 84.2905 47.4365C84.0389 47.4365 83.833 47.3219 83.833 47.2073C83.833 47.0698 84.016 46.9781 84.2447 46.9781C84.8394 46.9781 85.6629 46.3363 85.9145 45.6258L86.1661 45.0299L86.4405 45.58C87.0124 46.6343 87.5156 46.726 92.4333 46.7489C98.5633 46.7489 99.7298 46.6343 100.05 45.9009C100.187 45.6029 100.302 44.9612 100.302 44.4798C100.302 43.1047 100.622 43.1505 100.759 44.5257C100.828 45.3049 101.034 45.9696 101.308 46.2676ZM91.8386 50.5306C91.8386 50.714 91.7471 50.8744 91.6327 50.8744C91.3354 50.8744 91.1295 50.5077 91.3125 50.3243C91.5641 50.0722 91.8386 50.1868 91.8386 50.5306ZM97.4425 52.0204C97.5111 52.135 97.4654 52.2496 97.351 52.2496C97.2138 52.2496 97.0994 52.135 97.0994 52.0204C97.0994 51.8829 97.1452 51.7912 97.1909 51.7912C97.2595 51.7912 97.3739 51.8829 97.4425 52.0204ZM85.8916 52.9372C85.8916 53.0518 85.8001 53.1664 85.6629 53.1664C85.5485 53.1664 85.4341 53.0518 85.4341 52.9372C85.4341 52.7996 85.5485 52.708 85.6629 52.708C85.8001 52.708 85.8916 52.7996 85.8916 52.9372ZM82.9181 54.8624C82.9181 55.3208 82.4835 55.5729 82.1861 55.275C82.0489 55.1374 82.026 54.9312 82.0947 54.7936C82.3234 54.4269 82.9181 54.4957 82.9181 54.8624ZM90.6034 55.9396C90.7864 56.2605 90.2832 56.6043 89.8486 56.4438C89.6199 56.3522 89.597 56.2376 89.8029 56.0084C90.1231 55.6187 90.3747 55.5958 90.6034 55.9396ZM93.8972 56.1688C93.8972 56.2834 93.8057 56.3751 93.6684 56.3751C93.5541 56.3751 93.4397 56.2147 93.4397 56.0084C93.4397 55.825 93.5541 55.7333 93.6684 55.8021C93.8057 55.8709 93.8972 56.0313 93.8972 56.1688ZM97.4425 57.2919C97.5111 57.4065 97.4196 57.5211 97.2138 57.5211C97.0079 57.5211 96.9164 57.4065 96.985 57.2919C97.0537 57.1544 97.168 57.0627 97.2138 57.0627C97.2595 57.0627 97.3739 57.1544 97.4425 57.2919ZM94.8121 60.7298C94.8121 60.8444 94.7206 60.959 94.5834 60.959C94.469 60.959 94.3546 60.8444 94.3546 60.7298C94.3546 60.5923 94.469 60.5006 94.5834 60.5006C94.7206 60.5006 94.8121 60.5923 94.8121 60.7298ZM104.304 60.7069C104.465 60.9819 104.03 61.257 103.733 61.0736C103.481 60.9132 103.641 60.5006 103.961 60.5006C104.076 60.5006 104.213 60.5923 104.304 60.7069ZM107.85 63.8239C107.85 64.0073 107.758 64.1677 107.644 64.1677C107.347 64.1677 107.141 63.801 107.324 63.6177C107.575 63.3656 107.85 63.4802 107.85 63.8239ZM108.765 68.4079C108.765 68.5912 108.627 68.7516 108.444 68.7516C108.056 68.7516 107.804 68.4308 108.01 68.2016C108.284 67.9265 108.765 68.0641 108.765 68.4079ZM103.046 69.6684C103.046 69.783 102.955 69.8976 102.818 69.8976C102.703 69.8976 102.589 69.783 102.589 69.6684C102.589 69.5309 102.703 69.4392 102.818 69.4392C102.955 69.4392 103.046 69.5309 103.046 69.6684ZM105.814 72.4875C105.517 72.7855 105.219 72.5563 105.448 72.2125C105.517 72.075 105.7 72.0291 105.837 72.0979C105.974 72.1896 105.974 72.3271 105.814 72.4875ZM109.634 73.9773C109.68 74.1377 109.565 74.2523 109.359 74.2523C109.154 74.2523 108.993 74.0919 108.993 73.8856C108.993 73.496 109.497 73.5648 109.634 73.9773ZM107.164 76.6589C107.164 76.8423 107.072 77.0027 106.935 77.0027C106.82 77.0027 106.706 76.8423 106.706 76.6589C106.706 76.4755 106.82 76.3151 106.935 76.3151C107.072 76.3151 107.164 76.4755 107.164 76.6589ZM111.441 80.0281C111.647 80.2573 112.127 80.4635 112.516 80.4865L113.225 80.5094L112.493 80.6011C111.555 80.7157 111.258 81.1053 111.052 82.5492L110.869 83.764L110.846 82.7097C110.823 81.3574 110.48 80.9449 109.222 80.6927L108.193 80.4865L109.154 80.4635C110.434 80.4406 110.823 79.9822 110.869 78.5383L110.915 77.3465L110.983 78.4925C111.052 79.1113 111.235 79.8218 111.441 80.0281ZM104.876 82.5034C104.876 82.618 104.785 82.7326 104.648 82.7326C104.533 82.7326 104.419 82.618 104.419 82.5034C104.419 82.3659 104.533 82.2742 104.648 82.2742C104.785 82.2742 104.876 82.3659 104.876 82.5034ZM112.15 86.5831C112.196 86.7435 112.081 86.8581 111.875 86.8581C111.67 86.8581 111.509 86.6977 111.509 86.4914C111.509 86.1018 112.013 86.1705 112.15 86.5831ZM93.4397 86.9956C93.4397 87.179 93.2796 87.3165 93.0966 87.3165C92.7535 87.3165 92.6163 86.8352 92.8908 86.5601C93.1195 86.3539 93.4397 86.606 93.4397 86.9956ZM96.1845 87.4311C96.1845 87.6144 96.093 87.7749 95.9786 87.7749C95.6813 87.7749 95.4754 87.4082 95.6584 87.2248C95.91 86.9727 96.1845 87.0873 96.1845 87.4311ZM105.562 88.4854C105.562 88.6 105.402 88.6917 105.219 88.6917C104.876 88.6917 104.762 88.4166 105.014 88.1645C105.196 87.9812 105.562 88.1874 105.562 88.4854ZM112.722 90.1814C112.745 90.296 112.584 90.4335 112.379 90.4794C112.127 90.5252 111.967 90.4106 111.967 90.1814C111.967 89.7918 112.653 89.7689 112.722 90.1814ZM108.33 90.3648C108.307 90.6398 107.987 90.5711 107.896 90.2731C107.827 90.1356 107.918 90.0439 108.078 90.0898C108.216 90.1585 108.33 90.2731 108.33 90.3648ZM100.988 91.0065C101.377 91.3962 101.674 91.7629 101.628 91.7858C101.583 91.8087 101.331 91.9692 101.056 92.1067C100.759 92.2442 100.53 92.588 100.53 92.8172C100.53 93.0693 100.439 93.2756 100.302 93.2756C100.187 93.2756 100.073 93.1381 100.073 92.9547C100.073 92.7713 99.8213 92.4275 99.5011 92.1754L98.9293 91.717L99.5468 91.0295C99.9128 90.6627 100.21 90.3419 100.233 90.319C100.256 90.319 100.599 90.6169 100.988 91.0065ZM94.3546 90.9607C94.3546 91.0982 94.2631 91.2587 94.1259 91.3274C94.0115 91.3962 93.8972 91.3045 93.8972 91.1211C93.8972 90.9149 94.0115 90.7544 94.1259 90.7544C94.2631 90.7544 94.3546 90.8461 94.3546 90.9607ZM96.8935 91.2816C96.5962 91.5795 96.2988 91.3503 96.5276 91.0065C96.5962 90.869 96.7792 90.8232 96.9164 90.8919C97.0537 90.9836 97.0537 91.1211 96.8935 91.2816ZM107.164 94.4216C107.347 94.5361 107.896 94.6507 108.376 94.6507C108.902 94.6507 109.199 94.7424 109.108 94.8799C109.039 94.9945 108.582 95.1091 108.101 95.1091C106.981 95.1091 106.706 95.43 106.683 96.8052L106.637 97.9741L106.5 96.8281C106.294 95.2696 106.157 95.1091 104.968 95.1091C104.327 95.1091 103.984 95.0175 104.076 94.8799C104.144 94.7424 104.625 94.6507 105.105 94.6507C105.585 94.6507 106.066 94.5361 106.134 94.4216C106.226 94.284 106.34 93.5964 106.432 92.863L106.592 91.5566L106.706 92.8859C106.775 93.6881 106.958 94.3069 107.164 94.4216ZM92.1131 94.1007C92.5477 94.2382 92.5248 94.284 91.8843 94.8341C91.4955 95.1779 91.1295 95.6592 91.0838 95.9113C91.0152 96.3239 90.9694 96.301 90.7407 95.7509C90.6034 95.4071 90.2146 94.9487 89.8715 94.7424C89.2768 94.3299 89.2768 94.3299 89.7571 94.1465C90.0316 94.0548 90.4205 93.6652 90.6492 93.2985L91.0152 92.6338L91.3354 93.2985C91.5184 93.6423 91.8615 94.009 92.1131 94.1007ZM98.7005 95.1091C98.7005 95.2237 98.9064 95.5217 99.1809 95.7738L99.6612 96.2093L99.1809 96.4614C98.9064 96.6218 98.7005 96.8739 98.7005 97.0573C98.7005 97.2407 98.609 97.4011 98.4718 97.4011C98.3574 97.4011 98.2431 97.3094 98.2431 97.1719C98.2431 97.0573 98.0143 96.7593 97.7399 96.5072C97.3281 96.0947 97.3053 96.0259 97.6255 95.8884C97.8313 95.8196 98.0601 95.5675 98.1287 95.3154C98.2888 94.857 98.7005 94.6966 98.7005 95.1091ZM94.1259 97.424C94.1259 97.5386 94.0344 97.6303 93.8972 97.6303C93.7828 97.6303 93.6684 97.4698 93.6684 97.2636C93.6684 97.0802 93.7828 96.9885 93.8972 97.0573C94.0344 97.1261 94.1259 97.2865 94.1259 97.424ZM87.447 98.3866C87.4927 98.6617 87.3783 98.7763 87.0581 98.7763C86.7836 98.7763 86.5778 98.6387 86.5778 98.4783C86.5778 97.7678 87.3097 97.699 87.447 98.3866ZM101.72 98.2033C101.72 98.3179 101.605 98.4554 101.468 98.5012C101.331 98.5471 101.217 98.4095 101.217 98.2033C101.217 97.997 101.331 97.8595 101.468 97.9053C101.605 97.9512 101.72 98.0887 101.72 98.2033ZM100.759 100.06C100.759 100.243 100.668 100.335 100.53 100.266C100.416 100.197 100.302 100.037 100.302 99.8993C100.302 99.7847 100.416 99.693 100.53 99.693C100.668 99.693 100.759 99.8535 100.759 100.06ZM102.818 100.724C102.818 100.908 102.726 101.068 102.589 101.068C102.475 101.068 102.36 100.908 102.36 100.724C102.36 100.541 102.475 100.381 102.589 100.381C102.726 100.381 102.818 100.541 102.818 100.724ZM84.0617 100.839C84.0617 100.954 83.9016 101.068 83.7186 101.068C83.5357 101.068 83.3755 100.954 83.3755 100.839C83.3755 100.702 83.5357 100.61 83.7186 100.61C83.9016 100.61 84.0617 100.702 84.0617 100.839ZM98.7005 101.32C98.7005 101.435 98.5404 101.527 98.3574 101.527C98.0143 101.527 97.9 101.252 98.1516 100.999C98.3346 100.816 98.7005 101.022 98.7005 101.32ZM93.4626 102.581L94.0115 102.856L93.3711 103.154C93.028 103.314 92.6849 103.681 92.6163 103.979C92.4562 104.552 92.0673 104.712 92.0673 104.185C92.0673 104.002 91.7242 103.589 91.3354 103.268C90.7864 102.833 90.6949 102.673 90.9694 102.673C91.1981 102.673 91.587 102.352 91.8843 101.985C92.3875 101.297 92.3875 101.297 92.662 101.779C92.7993 102.054 93.1652 102.42 93.4626 102.581ZM85.8916 104.162C85.8916 104.346 85.8001 104.506 85.6629 104.506C85.5485 104.506 85.4341 104.346 85.4341 104.162C85.4341 103.979 85.5485 103.819 85.6629 103.819C85.8001 103.819 85.8916 103.979 85.8916 104.162ZM98.7005 105.538C98.7005 105.721 98.609 105.881 98.4718 105.881C98.3574 105.881 98.2431 105.721 98.2431 105.538C98.2431 105.354 98.3574 105.194 98.4718 105.194C98.609 105.194 98.7005 105.354 98.7005 105.538ZM88.1789 106.34C88.1789 106.454 88.0188 106.569 87.8358 106.569C87.6528 106.569 87.4927 106.454 87.4927 106.34C87.4927 106.202 87.6528 106.111 87.8358 106.111C88.0188 106.111 88.1789 106.202 88.1789 106.34ZM91.5641 109.342C91.5184 109.48 91.3811 109.571 91.2668 109.571C91.1524 109.571 91.0152 109.48 90.9694 109.342C90.9237 109.205 91.0609 109.09 91.2668 109.09C91.4726 109.09 91.6099 109.205 91.5641 109.342ZM87.9502 110.305C87.9502 110.488 87.8815 110.694 87.7901 110.763C87.5842 110.969 87.0124 110.465 87.1725 110.213C87.3555 109.892 87.9502 109.961 87.9502 110.305Z" fill="#CB8020"/>
<path d="M67.0453 47.8718C65.6729 52.5015 64.9639 57.3834 65.3298 59.8129C65.5128 61.211 65.5128 61.8527 65.2155 63.2508C64.8266 65.1302 63.2255 68.5911 61.5329 71.2268C60.4807 72.8541 60.4579 72.9 60.8696 73.3583C61.0983 73.6105 61.876 74.1376 62.6079 74.5502C64.0261 75.3294 64.3463 75.7878 63.9574 76.5212C63.5915 77.1859 63.6601 77.6443 64.1633 78.1485C64.5979 78.584 64.6665 78.584 65.307 78.2631C66.0389 77.8964 67.5028 77.8047 67.6858 78.1256C67.7544 78.2402 67.3884 78.4006 66.8395 78.4694C65.4671 78.6986 64.8495 79.157 64.8495 79.9821C64.8495 80.5322 65.0325 80.7843 65.7644 81.2427C67.0911 82.0907 67.2283 82.5032 67.1826 85.3223L67.1139 87.7977L67.9374 88.6228C68.7151 89.402 68.7837 89.4249 70.2247 89.3333C71.4141 89.2645 72.1003 89.0353 74.0445 88.0498C77.384 86.3766 82.4618 82.3657 83.9028 80.2571C85.2523 78.3319 85.6183 75.9024 84.7491 74.596C84.3145 73.9542 84.1087 72.2124 84.4289 71.8915C84.4975 71.8227 84.8406 71.8686 85.1608 71.9832C85.481 72.0978 86.03 72.1436 86.3731 72.0748C88.2029 71.6623 90.9248 66.7575 90.9248 63.8238C90.9248 62.8153 90.1243 61.0276 89.5296 60.6609C88.912 60.2713 87.9056 60.7067 86.7848 61.8298C85.5039 63.1133 84.9778 64.5114 85.3667 65.5657C85.6869 66.3908 85.2981 66.7346 84.8177 66.0928C84.4975 65.6574 84.5204 64.2364 84.8635 63.1133C85.1151 62.3111 83.857 61.1422 81.3181 59.8129C80.0601 59.1482 78.7563 58.3002 78.459 57.9335C77.7957 57.1542 77.4297 55.9395 77.4297 54.5414C77.4297 53.0287 77.0409 51.8827 76.2174 50.943C75.2339 49.8429 74.0674 49.3386 71.6199 49.0407C69.2869 48.7427 68.4406 48.376 67.823 47.3905L67.4113 46.68L67.0453 47.8718ZM74.6621 58.3231C75.3025 58.7586 75.9201 59.1253 76.0573 59.1253C76.1717 59.1253 76.2861 59.2399 76.2861 59.3774C76.2861 59.5608 76.0116 59.5837 75.4397 59.4691C74.5019 59.2857 74.0674 59.2628 72.2833 59.3316C71.3683 59.3774 68.5778 59.2628 67.7773 59.1482C67.3884 59.1024 67.64 58.4148 68.1661 58.071C68.6007 57.796 69.081 57.7272 69.9502 57.796C70.6135 57.8647 71.3912 57.8418 71.7114 57.7272C72.8551 57.4063 73.4955 57.5209 74.6621 58.3231ZM89.4838 62.0361C90.0557 63.5946 89.987 65.4053 89.278 66.9409C88.3402 68.9578 87.2423 69.8058 85.8013 69.6225C84.8406 69.5079 85.0007 69.1182 86.0529 68.9578C87.2423 68.7973 87.8598 68.2702 88.546 66.8033C89.1865 65.4511 89.278 63.4342 88.7519 62.1736C88.3173 61.1651 88.3173 60.9589 88.729 60.9589C88.912 60.9589 89.2551 61.4402 89.4838 62.0361ZM75.2339 62.5403C75.4169 62.8153 73.9987 64.053 72.7865 64.6718C71.6199 65.2677 68.8523 65.4282 68.8523 64.8781C68.8523 64.6489 69.2183 64.5572 70.2247 64.5114C71.6657 64.4885 72.8322 64.0072 74.1131 62.9299C74.8679 62.2882 75.0509 62.2194 75.2339 62.5403ZM86.7391 64.1905C87.3109 64.5572 87.4481 64.7635 87.288 64.9239C86.9678 65.2448 85.8241 64.6031 85.7098 64.0759C85.5954 63.5946 85.8013 63.6175 86.7391 64.1905ZM65.9245 73.0145C65.9703 73.1521 65.8788 73.3354 65.7187 73.3813C65.2612 73.5646 62.7909 73.3125 62.7909 73.0833C62.7909 72.6478 65.7873 72.5791 65.9245 73.0145Z" fill="#CB8020"/>
<path d="M52.0403 47.9403C51.4685 48.032 50.8509 48.0549 50.645 48.0091C50.4392 47.9403 49.387 47.9861 48.312 48.1007C44.9039 48.4904 43.6687 49.4988 42.4793 52.868C41.6559 55.16 40.7867 56.2601 39.1627 57.0852C36.3265 58.5291 35.2514 59.8126 34.2679 62.9526C33.9477 64.0069 33.6046 64.8549 33.5131 64.8549C33.4444 64.8549 33.1928 64.2361 32.987 63.4798C32.5066 61.7379 31.0885 60.1564 29.8076 59.9272C28.6411 59.698 27.0857 60.4773 26.3767 61.6004C25.6218 62.8151 25.6218 66.2072 26.3767 68.1783C27.6804 71.6162 30.1736 73.4727 31.8433 72.3038C32.3237 71.96 32.3694 71.9829 32.5066 72.533C32.5981 72.9455 32.4609 73.5644 32.0263 74.5041C31.2944 76.1543 31.363 77.3003 32.2779 79.2255C33.5131 81.8154 35.8232 83.6719 41.2899 86.3993C45.4757 88.5079 46.8252 88.9663 48.7466 88.9663C51.7658 88.9663 52.4977 88.1412 52.4977 84.6804C52.4977 82.5947 52.5206 82.4572 53.0924 81.93C53.4355 81.6091 53.8015 81.357 53.893 81.357C54.2818 81.357 54.8308 80.234 54.6707 79.7526C54.4877 79.2026 52.9552 78.4004 52.0403 78.3775L51.4685 78.3546L51.9717 78.1024C52.3605 77.9191 52.7265 77.942 53.4813 78.24C54.7851 78.7213 54.9452 78.7213 55.3798 78.0108C55.7457 77.4836 55.7457 77.369 55.4026 76.6585C55.1968 76.223 55.0824 75.7188 55.151 75.5355C55.2196 75.375 55.8601 75.0083 56.5692 74.7333C58.3075 74.0686 58.9022 73.656 58.9022 73.106C58.9022 72.8539 58.4219 72.0058 57.8501 71.2266C56.5005 69.393 54.8537 66.0468 54.6478 64.6945C54.5563 64.0298 54.6478 63.0214 54.8994 61.8066C55.1968 60.3856 55.2654 59.4001 55.1739 57.7499C54.9452 54.3578 53.8015 48.3758 53.2526 47.8945C53.1611 47.8257 52.6121 47.8257 52.0403 47.9403ZM48.838 58.0249C50.6908 57.8874 51.1711 57.9562 51.5828 58.3229C52.1089 58.7813 52.1775 59.3313 51.7658 59.3772C50.4163 59.4918 43.1198 59.7668 43.1198 59.6751C43.1198 59.6064 45.7502 58.0478 46.0933 57.9103C46.2763 57.8416 46.8481 57.8416 47.3513 57.9103C47.8545 58.002 48.5178 58.0478 48.838 58.0249ZM30.0592 60.3856C30.9513 60.8211 31.546 62.1504 31.3859 63.3193C31.2486 64.3736 30.2422 65.5425 29.4645 65.5425C28.7555 65.5425 28.8012 65.1758 29.556 64.8091C31.3172 63.9611 30.9513 61.2107 28.9842 60.6148C28.4352 60.4544 28.5039 60.0418 29.0757 60.0418C29.2587 60.0418 29.7161 60.2023 30.0592 60.3856ZM29.6246 62.6776C29.6246 62.8609 29.4188 63.0214 29.19 63.0214C28.4352 63.0214 28.0235 63.2735 27.6804 63.9611C26.857 65.5196 27.6576 67.9949 29.4874 69.5993C30.0592 70.1035 30.5396 70.6536 30.5396 70.7911C30.5396 71.8454 28.0464 69.5534 27.2001 67.7199C26.2852 65.7717 26.5596 63.5944 27.8405 62.7005C28.5039 62.2192 29.6246 62.2192 29.6246 62.6776ZM45.0869 63.0443C45.9332 64.0069 47.5572 64.6257 49.1811 64.6257C50.2791 64.6257 50.6679 64.6945 50.6679 64.9466C50.6679 65.3821 49.2498 65.5654 47.8545 65.2904C46.1619 64.9695 43.7831 63.3881 44.1491 62.7922C44.3549 62.4484 44.6065 62.5171 45.0869 63.0443ZM56.3633 73.106C56.592 73.2206 56.1803 73.3352 55.151 73.4498C54.076 73.5644 53.527 73.5414 53.344 73.3581C52.8866 72.8997 53.6414 72.6247 54.8765 72.7622C55.517 72.8539 56.1803 72.9914 56.3633 73.106Z" fill="#CB8020"/>
<path d="M24.9352 68.4762C23.9745 70.9745 22.259 72.8768 18.4621 75.5813C15.9918 77.3461 11.1885 82.0446 9.38148 84.4512C7.0713 87.5453 5.60742 91.2583 5.60742 94.0315C5.60742 95.4755 5.72179 95.9339 6.31649 97.1715C7.55164 99.6239 9.61022 101.412 16.495 106.064C23.0596 110.488 26.5592 113.192 27.8858 114.957C28.3433 115.553 29.0524 116.791 29.4641 117.662C33.2381 126.004 34.8621 128.365 38.499 130.84C40.0086 131.849 43.2794 133.499 44.2859 133.728L44.8806 133.866L44.446 131.276C43.2566 123.987 42.6619 117.57 42.6619 112.276C42.6619 106.935 42.1129 105.331 39.6884 103.543C36.8292 101.457 35.8228 100.014 35.4111 97.4466C35.3425 97.0569 35.2052 96.7131 35.1137 96.7131C34.7706 96.7131 34.1988 99.6927 34.1988 101.412C34.1988 102.512 34.1073 103.108 33.9701 103.016C33.5812 102.764 33.7185 99.2343 34.1759 97.607C35.2281 93.894 37.6069 88.783 38.9564 87.2703C39.4367 86.7202 39.6884 86.2847 39.5282 86.2389C39.391 86.1931 38.3617 85.6201 37.2638 84.9554C33.6499 82.801 31.4312 80.0048 31.0881 77.1627C30.9508 76.0855 31.0194 75.7188 31.5455 74.6416C31.8658 73.9311 32.1402 73.2664 32.1402 73.1289C32.1402 72.9914 31.7056 72.9455 31.0423 73.0372C30.2646 73.1289 29.7157 73.0601 29.2582 72.808C28.2061 72.258 26.9252 70.6994 26.0789 68.9575L25.324 67.399L24.9352 68.4762ZM26.1932 76.3835C26.1932 77.8274 26.4448 78.1483 27.68 78.1712L28.5949 78.1941L27.7486 78.3546C26.4906 78.6067 26.1932 78.9505 26.1932 80.234C26.1932 80.8528 26.1017 81.357 25.9645 81.357C25.8501 81.357 25.7358 80.8528 25.7358 80.234C25.7358 78.9505 25.5528 78.7442 24.1346 78.4233L23.1054 78.1941L24.1575 78.1712C24.7293 78.1483 25.3012 78.0337 25.4613 77.8733C25.6214 77.7128 25.7358 77.0481 25.7358 76.3835C25.7358 75.7188 25.8501 75.1687 25.9645 75.1687C26.1017 75.1687 26.1932 75.7188 26.1932 76.3835ZM23.2197 81.9529C23.2197 82.1363 23.1282 82.228 22.991 82.1592C22.8766 82.0905 22.7623 81.93 22.7623 81.7925C22.7623 81.6779 22.8766 81.5862 22.991 81.5862C23.1282 81.5862 23.2197 81.7467 23.2197 81.9529ZM25.6671 83.0989C25.4613 83.3052 25.0267 82.9614 25.1868 82.6864C25.2783 82.5488 25.4155 82.5488 25.5756 82.7093C25.7129 82.8468 25.7586 83.0072 25.6671 83.0989ZM18.6451 83.076C18.6451 83.2593 18.5536 83.4198 18.4392 83.4198C18.1419 83.4198 17.936 83.0531 18.119 82.8697C18.3706 82.6176 18.6451 82.7322 18.6451 83.076ZM22.4192 83.8782C22.3505 83.9928 22.1904 84.1074 22.0532 84.1074C21.9388 84.1074 21.8473 83.9928 21.8473 83.8782C21.8473 83.7407 22.0074 83.649 22.2133 83.649C22.3963 83.649 22.4878 83.7407 22.4192 83.8782ZM28.6178 84.2678C28.389 84.497 28.1832 84.1532 28.389 83.8553C28.5263 83.6031 28.572 83.6031 28.6635 83.8553C28.7093 84.0157 28.6864 84.199 28.6178 84.2678ZM13.7731 87.8203C14.0019 88.0725 14.5508 88.2329 15.3056 88.2787L16.4721 88.3475L15.3285 88.5538C13.6588 88.8288 13.3843 89.1726 13.3843 90.9145C13.3843 92.7939 12.9954 92.6105 12.9497 90.7311C12.9268 89.9519 12.8125 89.1726 12.6752 88.9892C12.5151 88.8288 11.9433 88.6913 11.3028 88.6913C10.6853 88.6913 10.182 88.5767 10.182 88.4621C10.182 88.3246 10.6853 88.2329 11.28 88.2329C11.8747 88.2329 12.4922 88.1183 12.6523 87.9579C12.8125 87.7974 12.9268 87.1098 12.9268 86.3993C12.9268 84.6574 13.247 84.4053 13.3385 86.0785C13.3843 86.8806 13.5444 87.5911 13.7731 87.8203ZM22.8309 86.5139C23.2426 86.8119 23.2426 86.8348 22.7851 87.2932C22.2133 87.8662 22.0761 87.8891 22.0761 87.4307C22.0761 87.2473 21.8931 87.0869 21.6872 87.0869C21.3441 87.0869 21.367 87.0411 21.7558 86.6514C22.2819 86.1014 22.3048 86.1014 22.8309 86.5139ZM29.6242 87.3161C29.6242 87.4307 29.5327 87.5453 29.3955 87.5453C29.2811 87.5453 29.1667 87.4307 29.1667 87.3161C29.1667 87.1786 29.2811 87.0869 29.3955 87.0869C29.5327 87.0869 29.6242 87.1786 29.6242 87.3161ZM26.9252 90.2727C26.5821 90.6394 26.4906 90.6394 26.1475 90.3644C25.8044 90.0435 25.8044 89.9977 26.1475 89.631C26.4906 89.2643 26.5821 89.2643 26.9252 89.5393C27.2683 89.8602 27.2683 89.906 26.9252 90.2727ZM31.454 89.4935C31.454 89.6768 31.2939 89.8373 31.1109 89.8373C30.745 89.8373 30.6535 89.5622 30.928 89.3101C31.1796 89.0351 31.454 89.1268 31.454 89.4935ZM22.259 90.2498C22.3048 90.4102 22.1904 90.5248 21.9846 90.5248C21.7787 90.5248 21.6186 90.3644 21.6186 90.1581C21.6186 89.7685 22.1218 89.8373 22.259 90.2498ZM20.5207 91.0978C20.5207 91.2124 20.4063 91.3499 20.2691 91.3958C20.1318 91.4416 20.0175 91.3041 20.0175 91.0978C20.0175 90.8916 20.1318 90.754 20.2691 90.7999C20.4063 90.8457 20.5207 90.9832 20.5207 91.0978ZM17.9589 92.4959C17.9589 92.8168 17.4786 92.9314 17.2041 92.6564C16.9982 92.4501 17.5014 91.8771 17.753 92.0375C17.8674 92.1063 17.9589 92.3126 17.9589 92.4959ZM9.65596 93.4127C9.4501 93.619 9.01552 93.2752 9.17563 93.0002C9.26712 92.8626 9.40436 92.8626 9.56447 93.0231C9.70171 93.1606 9.74745 93.321 9.65596 93.4127ZM31.9115 93.046C31.9115 93.1606 31.82 93.2752 31.6828 93.2752C31.5684 93.2752 31.454 93.1606 31.454 93.046C31.454 92.9085 31.5684 92.8168 31.6828 92.8168C31.82 92.8168 31.9115 92.9085 31.9115 93.046ZM22.991 95.2692C22.991 96.9423 23.3798 97.4007 24.7751 97.4007C26.0331 97.4007 25.9645 97.5382 24.5921 97.7216C23.2883 97.9049 22.991 98.3175 22.991 99.9906C22.991 100.816 22.8995 101.274 22.7623 101.182C22.6479 101.114 22.5335 100.449 22.5335 99.7156C22.5335 98.2258 22.2819 97.8591 21.2984 97.8362C20.9095 97.8362 20.3835 97.7445 20.1318 97.6299C19.7887 97.4924 19.9717 97.4236 20.8409 97.4236C21.4585 97.4007 22.0989 97.2861 22.259 97.1257C22.4192 96.9652 22.5335 96.2318 22.5335 95.4067C22.5335 94.6045 22.625 93.9628 22.7623 93.9628C22.8995 93.9628 22.991 94.5587 22.991 95.2692ZM28.5949 94.3524C28.8236 94.6504 28.8008 94.8108 28.5263 95.1088C28.2289 95.4755 28.1603 95.4755 27.8172 95.1317C27.497 94.8108 27.497 94.7191 27.7943 94.3753C28.2289 93.894 28.2518 93.894 28.5949 94.3524ZM14.5279 95.6817C14.5279 95.8651 14.4364 96.0255 14.3221 96.0255C14.0247 96.0255 13.8189 95.6588 14.0019 95.4755C14.2535 95.2234 14.5279 95.338 14.5279 95.6817ZM28.9609 98.1571C28.6635 98.455 28.3662 98.2258 28.5949 97.882C28.6635 97.7445 28.8465 97.6987 28.9837 97.7674C29.121 97.8591 29.121 97.9966 28.9609 98.1571ZM17.7302 99.2343C17.7302 99.3489 17.6387 99.4635 17.5014 99.4635C17.3871 99.4635 17.2727 99.3489 17.2727 99.2343C17.2727 99.0968 17.3871 99.0051 17.5014 99.0051C17.6387 99.0051 17.7302 99.0968 17.7302 99.2343ZM13.613 99.9219C13.613 100.036 13.4529 100.151 13.2699 100.151C13.0869 100.151 12.9268 100.036 12.9268 99.9219C12.9268 99.7843 13.0869 99.6927 13.2699 99.6927C13.4529 99.6927 13.613 99.7843 13.613 99.9219ZM28.572 103.383C28.5034 103.497 28.3433 103.543 28.2289 103.451C28.1146 103.383 28.0688 103.222 28.1603 103.108C28.2289 102.993 28.389 102.947 28.5034 103.039C28.6178 103.108 28.6635 103.268 28.572 103.383ZM20.8409 104.529C21.0696 104.918 20.5436 105.354 20.2233 105.033C19.9489 104.758 20.1318 104.277 20.4749 104.277C20.5893 104.277 20.7494 104.391 20.8409 104.529ZM26.1932 106.248C26.1932 106.637 25.69 106.569 25.5528 106.156C25.507 105.996 25.6214 105.881 25.8272 105.881C26.0331 105.881 26.1932 106.041 26.1932 106.248ZM31.3625 107.737C31.5913 108.127 31.0652 108.563 30.745 108.242C30.4705 107.967 30.6535 107.485 30.9966 107.485C31.1109 107.485 31.271 107.6 31.3625 107.737ZM35.5712 109.777C35.5712 109.892 35.4797 110.006 35.3425 110.006C35.2281 110.006 35.1137 109.892 35.1137 109.777C35.1137 109.64 35.2281 109.548 35.3425 109.548C35.4797 109.548 35.5712 109.64 35.5712 109.777ZM31.3397 111.817C31.4998 112.092 31.0652 112.367 30.7678 112.184C30.5162 112.023 30.6763 111.611 30.9966 111.611C31.1109 111.611 31.2482 111.703 31.3397 111.817ZM37.6298 112.871C37.6298 113.055 37.5383 113.215 37.4239 113.215C37.1266 113.215 36.9207 112.848 37.1037 112.665C37.3553 112.413 37.6298 112.528 37.6298 112.871ZM35.1137 115.255C35.1137 115.576 34.702 115.782 34.4275 115.622C34.2903 115.53 34.2446 115.37 34.3132 115.255C34.4962 114.98 35.1137 114.98 35.1137 115.255ZM38.3617 118.143C38.3617 118.258 38.2473 118.395 38.1101 118.441C37.9729 118.487 37.8585 118.349 37.8585 118.143C37.8585 117.937 37.9729 117.799 38.1101 117.845C38.2473 117.891 38.3617 118.028 38.3617 118.143ZM34.885 119.885C34.885 119.999 34.7935 120.091 34.6563 120.091C34.5419 120.091 34.4275 119.931 34.4275 119.724C34.4275 119.541 34.5419 119.449 34.6563 119.518C34.7935 119.587 34.885 119.747 34.885 119.885Z" fill="#CB8020"/>
<path d="M90.0774 69.0269C88.8194 71.5709 87.1039 73.0149 85.5257 72.8315C84.5879 72.7169 84.5193 73.1295 85.2055 74.413C85.7544 75.4673 85.8002 77.2321 85.3198 78.6302C84.7709 80.1658 83.3756 81.8389 80.8596 83.9017C79.6016 84.956 78.5723 85.8727 78.5723 85.9415C78.5723 86.0103 78.9611 86.2853 79.4414 86.5603C80.8596 87.3625 82.6894 89.1502 83.4214 90.4567L84.1076 91.6714L85.3656 90.0212C92.2504 81.1055 93.943 75.2151 91.3812 69.2561C91.1067 68.6143 90.7865 68.0642 90.7179 68.0642C90.6264 68.0642 90.3519 68.4997 90.0774 69.0269ZM90.9466 75.4902L91.6557 75.7881L90.8323 76.2694C90.2376 76.6362 90.0088 76.9112 90.0088 77.3467C90.0088 77.6675 89.9173 77.9197 89.7801 77.9197C89.6657 77.9197 89.5514 77.6675 89.5514 77.3467C89.5514 76.9341 89.3455 76.6362 88.8652 76.3611C88.0417 75.8798 88.0189 75.7652 88.7737 75.4443C89.0939 75.2839 89.4599 74.8484 89.5971 74.413L89.8716 73.6795L90.0546 74.4359C90.1918 74.986 90.4663 75.2839 90.9466 75.4902Z" fill="#CB8020"/>
<path d="M3.89229 80.0049C3.80079 80.1424 3.77792 80.2799 3.84654 80.3487C3.89229 80.4174 4.00665 80.3028 4.07527 80.0965C4.23538 79.7069 4.09814 79.6382 3.89229 80.0049Z" fill="#CB8020"/>
<path d="M119.08 80.0968C119.08 80.2114 119.309 81.1053 119.629 82.0679C120.864 85.9871 121.276 91.2128 120.544 94.3069C119.126 100.449 115.397 105.331 106.431 112.803C105.059 113.926 103.961 114.889 103.961 114.957C103.961 115.003 104.556 114.591 105.288 114.064C105.997 113.514 107.781 112.184 109.222 111.107C114.322 107.302 117.296 104.048 119.286 100.037C120.773 97.0573 121.139 95.6363 121.276 92.1067C121.436 88.6229 121.001 85.5975 119.858 82.1596C119.446 80.899 119.103 79.9593 119.08 80.0968Z" fill="#CB8020"/>
<path d="M2.65654 82.824C2.2677 83.7637 1.673 85.5514 1.3299 86.7891C0.780946 88.7372 0.712326 89.4707 0.689453 92.3585C0.689453 95.9569 1.05542 97.6988 2.33632 100.266C3.8002 103.154 7.09392 106.981 10.3876 109.617C11.7829 110.717 21.1609 117.157 21.1609 116.997C21.1609 116.951 19.0794 115.301 16.5405 113.353C7.84874 106.706 5.05822 103.772 2.65654 98.776C1.3299 96.0486 0.941057 94.0546 1.10117 90.6625C1.21553 87.7288 1.78736 85.2764 2.97676 82.6177C3.29699 81.8843 3.50285 81.2426 3.4571 81.1967C3.41135 81.1509 3.04538 81.8843 2.65654 82.824Z" fill="#CB8020"/>
<path d="M103.023 115.668C102.726 116.035 102.749 116.058 103.115 115.76C103.481 115.462 103.595 115.278 103.412 115.278C103.366 115.278 103.183 115.462 103.023 115.668Z" fill="#CB8020"/>
<path d="M13.0406 116.814C16.22 118.556 17.1806 119.381 18.8733 121.925C20.177 123.896 21.435 125.317 23.1048 126.784L24.4772 127.999L23.4708 126.853C22.9218 126.211 21.5037 124.24 20.3371 122.475C19.1706 120.687 17.7753 118.854 17.2493 118.395C16.7003 117.937 15.488 117.272 14.5502 116.905C11.8283 115.874 11.2336 115.851 13.0406 116.814Z" fill="#CB8020"/>
<path d="M21.7311 117.57C21.9598 117.822 22.1886 118.028 22.2572 118.028C22.3258 118.028 22.1886 117.822 21.9598 117.57C21.7311 117.318 21.5024 117.112 21.4337 117.112C21.3651 117.112 21.5024 117.318 21.7311 117.57Z" fill="#CB8020"/>
<path d="M24.1348 123.163C24.1348 123.208 24.7295 123.598 25.4614 124.056C27.1769 125.134 28.961 127.013 29.8073 128.709C30.6079 130.29 32.209 132.468 33.3984 133.614L34.2447 134.416L33.3526 133.201C32.8494 132.537 31.7973 130.703 31.0196 129.145C29.4185 126.027 28.778 125.271 26.7652 124.263C25.3242 123.529 24.1348 123.025 24.1348 123.163Z" fill="#CB8020"/>
</svg>
