<svg width="22" height="26" viewBox="0 0 22 26" fill="none" xmlns="http://www.w3.org/2000/svg">
<path d="M10.6983 1.27318L9.19933 0.375L8.91382 2.09878C8.45937 4.82068 6.59997 7.34985 4.54904 9.12716C0.534008 12.608 -0.345134 16.3911 0.898038 19.5139C2.08768 22.5023 5.10698 24.5484 8.17148 24.8899L8.88051 24.9684C7.12698 23.8965 6.00158 21.3923 6.39416 19.521C6.78199 17.6818 8.10486 15.9593 10.6459 14.3699L11.9272 13.5705L12.4054 15.004C12.6873 15.851 13.1751 16.5315 13.6712 17.2226C13.9091 17.5557 14.1506 17.8924 14.3719 18.2505C15.1368 19.4937 15.339 20.876 14.8453 22.2477C14.3957 23.4944 13.6545 24.4747 12.6326 25.0183L13.7866 24.8899C16.6631 24.5698 18.7747 23.586 20.1464 21.9408C21.5061 20.3098 21.9832 18.21 21.9832 15.9747C21.9832 13.8929 21.1278 11.7467 20.119 9.9611C18.9365 7.86972 17.3936 6.13285 15.709 4.44951C15.4176 5.03243 15.4402 5.26798 14.8406 6.20422C14.062 4.13658 12.6005 2.39688 10.6983 1.27318Z" fill="#CB8020"/>
</svg>
