<svg xmlns="http://www.w3.org/2000/svg" viewBox="0 0 30 30"><defs><style>.cls-1{fill:#cb8020;}</style></defs><title>all icons</title><g id="Layer_1" data-name="Layer 1"><path class="cls-1" d="M23.73,17.67v0a6.55,6.55,0,0,1-2.15,4.83A9.88,9.88,0,0,1,16.26,25,4,4,0,0,0,18,22.76a3.68,3.68,0,0,0-.38-3.25c-.17-.28-.37-.55-.56-.83a6.48,6.48,0,0,1-1-1.8l-.38-1.16-1,.65c-2,1.29-3.09,2.69-3.41,4.18s1.59,3.57,3,4.45a10.18,10.18,0,0,1-6.87-3.46c-2.23-2.87-.79-6.61,2.43-9.43A10.31,10.31,0,0,0,13.26,6.4L13.49,5l1.2.73a7.86,7.86,0,0,1,3.32,4,8.24,8.24,0,0,0,.69-1.43,20.7,20.7,0,0,1,3.53,4.48A10.37,10.37,0,0,1,23.73,17.67Z"/></g></svg>