<svg width="18" height="17" viewBox="0 0 18 17" fill="none" xmlns="http://www.w3.org/2000/svg">
<path d="M3.43452 6.5695C5.44536 3.01034 6.45119 1.23117 7.83119 0.772839C8.58973 0.521033 9.40932 0.521033 10.1679 0.772839C11.5479 1.23117 12.5537 3.01034 14.5645 6.5695C16.5762 10.1278 17.5812 11.9078 17.2804 13.3578C17.1137 14.1562 16.7054 14.8795 16.112 15.4245C15.0337 16.417 13.022 16.417 8.99952 16.417C4.97702 16.417 2.96536 16.417 1.88702 15.4253C1.29139 14.8753 0.882848 14.1526 0.718689 13.3587C0.417022 11.9087 1.42286 10.1287 3.43452 6.5695ZM8.99286 11.8337H9.00036H8.99286ZM8.99952 9.33367V6.00034V9.33367Z" fill="#CB8020"/>
<path d="M8.99286 11.8337H9.00036M8.99952 9.33367V6.00034M3.43452 6.5695C5.44536 3.01034 6.45119 1.23117 7.83119 0.772839C8.58973 0.521033 9.40932 0.521033 10.1679 0.772839C11.5479 1.23117 12.5537 3.01034 14.5645 6.5695C16.5762 10.1278 17.5812 11.9078 17.2804 13.3578C17.1137 14.1562 16.7054 14.8795 16.112 15.4245C15.0337 16.417 13.022 16.417 8.99952 16.417C4.97702 16.417 2.96536 16.417 1.88702 15.4253C1.29139 14.8753 0.882848 14.1526 0.718689 13.3587C0.417022 11.9087 1.42286 10.1287 3.43452 6.5695Z" stroke="#FAE4C8" stroke-linecap="round" stroke-linejoin="round"/>
</svg>
