<svg xmlns="http://www.w3.org/2000/svg" viewBox="0 0 30 30"><defs><style>.cls-1{fill:#cb8020;}.cls-2{fill:none;stroke:#fff;stroke-linecap:round;stroke-linejoin:round;stroke-width:1.5px;}</style></defs><title>all icons</title><g id="Layer_1" data-name="Layer 1"><path class="cls-1" d="M18.17,7.27c-1.18-.44-1.7-2.18-3-2.28h-.24c-1.33.1-1.86,1.84-3,2.28s-2.94-.48-4,.57-.12,2.78-.57,4S4.9,13.59,5,15.11c.1,1.33,1.84,1.86,2.28,3s-.45,3,.57,4,2.75.11,4,.57,1.7,2.18,3,2.28h.24c1.34-.1,1.86-1.84,3-2.28s3,.45,4-.57,0-2.85.61-4.1,2.35-1.7,2.24-3.16-1.85-1.86-2.28-3,.48-2.94-.57-4S19.41,7.73,18.17,7.27Z"/><path class="cls-2" d="M15.64,19.86l0-5.89c0-.7,0-1-.25-1.26s-.63-.21-1.41-.21"/><line class="cls-2" x1="15.31" y1="10.08" x2="15.33" y2="10.08"/></g></svg>