<svg width="18" height="18" viewBox="0 0 18 18" fill="none" xmlns="http://www.w3.org/2000/svg">
<path d="M11.6275 2.56999C10.6491 2.20666 10.215 0.753328 9.09998 0.669995C9.03338 0.665991 8.96659 0.665991 8.89998 0.669995C7.78582 0.753328 7.35165 2.20666 6.37332 2.56999C5.33748 2.95416 3.92082 2.16666 3.04415 3.04333C2.19998 3.8875 2.94665 5.35833 2.56998 6.37249C2.18582 7.41 0.575816 7.83916 0.669982 9.09999C0.754149 10.2142 2.20748 10.6492 2.56998 11.6275C2.94665 12.6417 2.19998 14.1125 3.04415 14.9567C3.92082 15.8333 5.33748 15.0458 6.37332 15.43C7.35082 15.7933 7.78582 17.2467 8.90082 17.33C8.96748 17.335 9.03387 17.335 9.09998 17.33C10.215 17.2467 10.65 15.7933 11.6275 15.43C12.6416 15.0542 14.1125 15.8008 14.9566 14.9567C15.8625 14.0508 14.99 12.5817 15.4683 11.535C15.91 10.5717 17.4216 10.12 17.33 8.90083C17.2466 7.78583 15.7941 7.35083 15.43 6.37249C15.0466 5.33666 15.8333 3.92083 14.9566 3.04333C14.08 2.16583 12.6633 2.95416 11.6275 2.56999Z" fill="#CB8020" stroke="#CB8020" stroke-linecap="round" stroke-linejoin="round"/>
<path d="M9.20247 12.3337V9.00033C9.20247 8.60783 9.20247 8.41116 9.08081 8.28866C8.95831 8.16699 8.76247 8.16699 8.36914 8.16699M8.99414 5.66699H9.00247H8.99414Z" fill="#CB8020"/>
<path d="M9.20247 12.3337V9.00033C9.20247 8.60783 9.20247 8.41116 9.08081 8.28866C8.95831 8.16699 8.76247 8.16699 8.36914 8.16699M8.99414 5.66699H9.00247" stroke="#FFF9F1" stroke-linecap="round" stroke-linejoin="round"/>
</svg>
