<svg width="81" height="20" viewBox="0 0 81 20" fill="none" xmlns="http://www.w3.org/2000/svg">
<g clip-path="url(#clip0_4227_14745)">
<path d="M14.7752 13.0138C14.7752 17.1243 12.5233 20.0004 7.45781 20.0004C0.703425 20.0004 0.562958 15.0691 0.562958 15.0691H4.50256C4.50256 15.0691 4.64303 17.1243 7.45781 17.1243C9.96204 17.1243 10.8345 15.7541 10.8345 13.2885V12.6034H10.694C10.694 12.6034 9.42761 14.5208 6.3319 14.5208C2.11027 14.5208 0 10.9596 0 7.26057C0 3.56152 2.11027 0.000379792 6.3319 0.000379792C9.56808 0.000379792 10.8312 2.32924 10.8312 2.32924H10.9727V0.411873H14.7719L14.7752 13.0138ZM7.45781 2.87754C5.06552 2.87754 3.93961 4.95929 3.93961 7.26057C3.93961 9.56186 5.06552 11.6447 7.45781 11.6447C9.85011 11.6447 10.976 9.56186 10.976 7.26057C10.976 4.95929 9.85559 2.87754 7.45781 2.87754ZM23.7649 0.000379792C28.578 0.000379792 31.2271 3.37067 31.2271 7.53527C31.2271 11.6999 28.5824 15.0691 23.7649 15.0691C18.9474 15.0691 16.3027 11.6988 16.3027 7.53527C16.3027 3.37177 18.9529 0.000379792 23.7649 0.000379792ZM23.7649 12.1919C26.2702 12.1919 27.2831 10.1101 27.2831 7.53527C27.2831 4.96039 26.2702 2.87754 23.7649 2.87754C21.2596 2.87754 20.2467 4.95928 20.2467 7.53527C20.2467 10.1113 21.2607 12.1919 23.7649 12.1919ZM36.2904 10.0009C36.2904 10.0009 36.2904 12.4666 39.3862 12.4666C41.4964 12.4666 42.0594 11.5079 42.0594 10.686C42.0594 7.67207 32.7722 10.0009 32.7722 4.52131C32.7722 2.05565 35.1645 -0.00182877 39.1041 -0.00182877C44.7337 -0.00182877 45.5787 3.14892 45.5787 4.52131H41.7785C41.7785 4.52131 41.7785 2.60394 39.1041 2.60394C37.5568 2.60394 36.7129 3.37067 36.7129 4.24772C36.7129 6.71338 46.0001 4.93171 46.0001 10.2745C46.0001 13.0138 43.6078 15.0691 39.3862 15.0691C33.6161 15.0691 32.4913 11.6491 32.4913 10.0009H36.2904ZM59.6526 0.411873V3.42583H54.868V10.1377C54.868 11.37 55.2905 11.7815 56.5569 11.7815C57.4008 11.7815 57.8233 11.6447 57.8233 11.6447V14.5208C57.8233 14.5208 57.1199 14.7955 55.431 14.7955C52.7578 14.7955 50.9317 14.1104 50.9317 10.8239V3.43245H46.4324V0.411873H59.6526ZM60.8082 4.7916C61.0276 1.15102 64.0443 -0.00292969 67.4221 -0.00292969C70.9392 -0.00292969 73.754 1.23045 73.754 4.92839V14.6543H69.8144V11.9183H69.6728C69.6728 11.9183 68.773 15.0691 65.0298 15.0691C62.3555 15.0691 60.3857 13.8633 60.3857 11.2332C60.3857 8.57559 62.6375 7.37199 65.0572 6.76743C67.5066 6.16508 69.8144 5.97313 69.8144 4.38451C69.8144 3.26145 68.9694 2.60394 67.4221 2.60394C65.7332 2.60394 64.8048 3.26587 64.7478 4.79491L60.8082 4.7916ZM66.7187 8.62744C65.4512 8.92862 64.3823 9.55855 64.3823 10.8195C64.3823 11.915 65.1703 12.6001 66.4366 12.6001C69.1099 12.6001 69.8144 9.58613 69.8144 7.4768C69.1669 8.05488 67.8435 8.35715 66.7187 8.63075V8.62744Z" fill="#CB8020"/>
<path d="M78.7499 0.430664C79.9877 0.430664 81.0006 1.41693 81.0006 2.62273C81.0006 3.82853 79.9877 4.8148 78.7499 4.8148C77.512 4.8148 76.498 3.82853 76.498 2.62273C76.498 1.41693 77.5109 0.430664 78.7499 0.430664ZM78.7499 10.7048C79.9877 10.7048 81.0006 11.6911 81.0006 12.8958C81.0006 14.1005 79.9877 15.0878 78.7499 15.0878C77.512 15.0878 76.498 14.1016 76.498 12.8958C76.498 11.69 77.5109 10.7048 78.7499 10.7048Z" fill="#CB8020"/>
</g>
<defs>
<clipPath id="clip0_4227_14745">
<rect width="81" height="20" fill="white"/>
</clipPath>
</defs>
</svg>
