<svg xmlns="http://www.w3.org/2000/svg" viewBox="0 0 30 30"><defs><style>.cls-1{fill:none;stroke:#cb8020;stroke-linecap:round;stroke-linejoin:round;stroke-width:1.5px;}</style></defs><title>all2</title><g id="Layer_1" data-name="Layer 1"><path class="cls-1" d="M24.1,10.84a3.48,3.48,0,0,1-1.14.84,3.48,3.48,0,0,1-2.76.07A3.42,3.42,0,0,1,18.25,9.8a3.5,3.5,0,0,1,.91-3.9m4.94,4.94A10.14,10.14,0,0,1,25,15a10,10,0,1,1-.9-4.16ZM13,11h0m-3,6h0"/><path class="cls-1" d="M19,19a2,2,0,0,1-2,2,2,2,0,0,1,0-4,2,2,0,0,1,2,2Z"/></g></svg>