<svg width="8" height="8" viewBox="0 0 8 8" fill="none" xmlns="http://www.w3.org/2000/svg">
<path d="M7.03235 2.61533C6.92639 2.73298 6.79758 2.82783 6.65378 2.8941C6.50998 2.96038 6.3542 2.99669 6.19591 3.00082C6.03763 3.00496 5.88016 2.97683 5.7331 2.91815C5.58604 2.85947 5.45246 2.77147 5.3405 2.65951C5.22854 2.54755 5.14054 2.41397 5.08186 2.26691C5.02318 2.11984 4.99505 1.96238 4.99919 1.80409C5.00332 1.64581 5.03963 1.49003 5.1059 1.34623C5.17218 1.20243 5.26703 1.07362 5.38468 0.967659M7.03235 2.61533C7.23058 3.05013 7.333 3.52247 7.33268 4.00033C7.33268 5.84133 5.84035 7.33366 3.99935 7.33366C2.15835 7.33366 0.666016 5.84133 0.666016 4.00033C0.666016 2.15933 2.15835 0.666992 3.99935 0.666992C4.49368 0.666992 4.96268 0.774659 5.38435 0.967326C6.11358 1.30148 6.6982 1.8861 7.03235 2.61533ZM3.33268 2.66699H3.33468M2.33268 4.66699H2.33468" stroke="#E5AD65" stroke-width="0.5" stroke-linecap="round" stroke-linejoin="round"/>
<path d="M5.33333 5.33366C5.33333 5.51047 5.2631 5.68004 5.13807 5.80506C5.01305 5.93009 4.84348 6.00033 4.66667 6.00033C4.48986 6.00033 4.32029 5.93009 4.19526 5.80506C4.07024 5.68004 4 5.51047 4 5.33366C4 5.15685 4.07024 4.98728 4.19526 4.86225C4.32029 4.73723 4.48986 4.66699 4.66667 4.66699C4.84348 4.66699 5.01305 4.73723 5.13807 4.86225C5.2631 4.98728 5.33333 5.15685 5.33333 5.33366Z" stroke="#E5AD65" stroke-width="0.5" stroke-linecap="round" stroke-linejoin="round"/>
</svg>
