<svg width="247" height="168" viewBox="0 0 247 168" fill="none" xmlns="http://www.w3.org/2000/svg">
<path d="M247 84C247 130.392 209.392 168 163 168C116.608 168 79 130.392 79 84C79 37.6081 116.608 0 163 0C209.392 0 247 37.6081 247 84ZM107.319 84C107.319 114.752 132.248 139.681 163 139.681C193.752 139.681 218.681 114.752 218.681 84C218.681 53.2483 193.752 28.3191 163 28.3191C132.248 28.3191 107.319 53.2483 107.319 84Z" fill="#FFF9F1"/>
<path d="M237.339 99.8013C241.661 100.72 244.457 104.984 243.131 109.199C239.174 121.783 232.296 133.296 223.014 142.773C211.861 154.162 197.697 162.143 182.177 165.782C166.657 169.421 150.422 168.569 135.368 163.325C122.841 158.961 111.562 151.706 102.423 142.193C99.3623 139.007 99.971 133.944 103.434 131.2L113.089 123.549C116.552 120.805 121.549 121.439 124.76 124.473C130.451 129.85 137.234 133.987 144.684 136.582C154.662 140.058 165.424 140.623 175.712 138.21C185.999 135.798 195.388 130.508 202.781 122.959C208.301 117.323 212.538 110.601 215.245 103.256C216.773 99.1102 220.968 96.3214 225.289 97.24L237.339 99.8013Z" fill="#679E26"/>
<path d="M103.111 130.79C99.6295 133.51 94.5657 132.911 92.1889 129.186C82.7426 114.384 78.1355 96.9262 79.1338 79.2608C80.1321 61.5953 86.6766 44.7678 97.7303 31.1238C100.512 27.6908 105.611 27.6655 108.764 30.7606L117.555 39.3904C120.708 42.4855 120.7 47.5224 118.088 51.0861C111.759 59.7233 108.018 70.0545 107.408 80.8585C106.797 91.6626 109.35 102.349 114.666 111.645C116.86 115.48 116.3 120.486 112.819 123.206L103.111 130.79Z" fill="#679E26"/>
<path d="M109.057 30.4634C105.921 27.351 105.88 22.252 109.276 19.4261C122.775 8.19524 139.515 1.43161 157.166 0.202816C174.817 -1.02598 192.334 3.35279 207.258 12.6049C211.013 14.9329 211.679 19.9885 209.004 23.5054L201.547 33.3112C198.873 36.8281 193.875 37.4529 190.011 35.3095C180.647 30.1148 169.928 27.7021 159.133 28.4536C148.338 29.2051 138.056 33.0798 129.503 39.5219C125.973 42.18 120.937 42.2537 117.801 39.1413L109.057 30.4634Z" fill="#679E26"/>
<path d="M127.333 12.9996C127.333 14.4724 128.527 15.6663 130 15.6663C131.473 15.6663 132.667 14.4724 132.667 12.9996C132.667 11.5269 131.473 10.333 130 10.333C128.527 10.333 127.333 11.5269 127.333 12.9996ZM74.5 18.9996L74.7404 18.5612L74.5 18.9996ZM0.333333 18C0.333333 19.4728 1.52724 20.6667 3 20.6667C4.47276 20.6667 5.66667 19.4728 5.66667 18C5.66667 16.5272 4.47276 15.3333 3 15.3333C1.52724 15.3333 0.333333 16.5272 0.333333 18ZM130 12.9996C129.841 12.5255 129.841 12.5256 129.841 12.5256C129.841 12.5257 129.84 12.5259 129.84 12.5261C129.838 12.5265 129.837 12.5271 129.834 12.5279C129.829 12.5295 129.822 12.5319 129.812 12.5352C129.793 12.5417 129.763 12.5514 129.725 12.5642C129.647 12.5899 129.531 12.6279 129.379 12.6773C129.075 12.7761 128.626 12.9201 128.05 13.1008C126.898 13.4622 125.234 13.97 123.194 14.5552C119.112 15.7258 113.523 17.2047 107.492 18.4397C101.459 19.6752 94.9974 20.6636 89.1658 20.8585C83.3152 21.0541 78.1795 20.4471 74.7404 18.5612L74.5 18.9996L74.2596 19.438C77.9442 21.4586 83.3078 22.0549 89.1992 21.858C95.1095 21.6604 101.632 20.6605 107.693 19.4193C113.756 18.1777 119.371 16.6917 123.469 15.5165C125.519 14.9288 127.19 14.4185 128.349 14.055C128.929 13.8733 129.381 13.7282 129.688 13.6284C129.841 13.5785 129.959 13.54 130.038 13.5139C130.077 13.5008 130.108 13.4908 130.128 13.4841C130.138 13.4807 130.146 13.4782 130.151 13.4765C130.153 13.4756 130.155 13.4749 130.157 13.4745C130.157 13.4743 130.158 13.4741 130.158 13.474C130.159 13.4738 130.159 13.4738 130 12.9996ZM74.5 18.9996L74.7404 18.5612C59.1058 9.98744 41.1059 9.74786 27.0586 11.6293C20.0289 12.5708 13.9731 14.0456 9.67398 15.2852C7.52409 15.905 5.81258 16.4663 4.63722 16.8732C4.04952 17.0766 3.59578 17.2415 3.28824 17.3558C3.13447 17.4129 3.01723 17.4574 2.93806 17.4878C2.89848 17.503 2.86841 17.5146 2.84805 17.5225C2.83787 17.5265 2.83012 17.5295 2.82482 17.5316C2.82217 17.5327 2.82013 17.5335 2.8187 17.534C2.81799 17.5343 2.81739 17.5345 2.81703 17.5347C2.81658 17.5349 2.81628 17.535 3 18C3.18372 18.465 3.18373 18.465 3.1839 18.465C3.18416 18.4649 3.18448 18.4647 3.185 18.4645C3.18604 18.4641 3.1877 18.4635 3.18997 18.4626C3.1945 18.4608 3.20149 18.4581 3.21089 18.4544C3.2297 18.4471 3.2582 18.436 3.29619 18.4215C3.37217 18.3923 3.48614 18.349 3.63656 18.2931C3.93742 18.1814 4.38408 18.019 4.96434 17.8182C6.12492 17.4164 7.81966 16.8605 9.95102 16.246C14.2144 15.0167 20.2211 13.554 27.1914 12.6204C41.1441 10.7517 58.8942 11.0119 74.2596 19.438L74.5 18.9996Z" fill="#FAE4C8"/>
<path d="M81.3333 80.0005C81.3333 81.4733 82.5272 82.6672 84 82.6672C85.4728 82.6672 86.6667 81.4733 86.6667 80.0005C86.6667 78.5278 85.4728 77.3339 84 77.3339C82.5272 77.3339 81.3333 78.5278 81.3333 80.0005ZM56.5 81.5007L56.382 81.0148L56.5 81.5007ZM0.333333 75C0.333333 76.4728 1.52724 77.6667 3 77.6667C4.47276 77.6667 5.66667 76.4728 5.66667 75C5.66667 73.5272 4.47276 72.3333 3 72.3333C1.52724 72.3333 0.333333 73.5272 0.333333 75ZM84 80.0005C84.0977 79.5102 84.0976 79.5101 84.0973 79.5101C84.0972 79.5101 84.0969 79.51 84.0967 79.51C84.0961 79.5098 84.0954 79.5097 84.0945 79.5095C84.0927 79.5092 84.0902 79.5087 84.087 79.5081C84.0806 79.5068 84.0713 79.505 84.0592 79.5027C84.0351 79.4981 83.9997 79.4915 83.9534 79.4832C83.8607 79.4665 83.724 79.4427 83.5452 79.414C83.1877 79.3567 82.6618 79.2795 81.9823 79.1992C80.6235 79.0386 78.6502 78.8653 76.1819 78.8128C71.246 78.7078 64.3268 79.0856 56.382 81.0148L56.5 81.5007L56.618 81.9866C64.4634 80.0815 71.2941 79.7091 76.1607 79.8126C78.5937 79.8644 80.5347 80.035 81.8649 80.1923C82.53 80.2709 83.0422 80.3461 83.3868 80.4014C83.559 80.429 83.6894 80.4517 83.7759 80.4673C83.8192 80.4751 83.8515 80.4812 83.8726 80.4852C83.8832 80.4872 83.891 80.4887 83.8959 80.4896C83.8984 80.4901 83.9002 80.4905 83.9012 80.4907C83.9017 80.4908 83.9021 80.4908 83.9023 80.4909C83.9024 80.4909 83.9024 80.4909 83.9024 80.4909C83.9023 80.4909 83.9023 80.4909 84 80.0005ZM56.5 81.5007L56.382 81.0148C38.9719 85.2426 25.687 83.6218 16.7681 80.9585C12.3067 79.6262 8.93409 78.032 6.68121 76.7744C5.55477 76.1456 4.70838 75.601 4.14595 75.2155C3.86474 75.0228 3.65455 74.8698 3.51587 74.7661C3.44653 74.7142 3.39507 74.6746 3.36156 74.6484C3.3448 74.6354 3.33253 74.6257 3.32475 74.6195C3.32086 74.6164 3.31809 74.6142 3.31645 74.6129C3.31563 74.6122 3.31509 74.6118 3.31483 74.6116C3.3147 74.6115 3.31472 74.6115 3.31465 74.6114C3.31474 74.6115 3.3149 74.6116 3 75C2.6851 75.3884 2.6854 75.3886 2.68577 75.3889C2.68599 75.3891 2.68643 75.3895 2.68686 75.3898C2.68773 75.3905 2.68889 75.3914 2.69032 75.3926C2.6932 75.3949 2.6972 75.3981 2.70234 75.4022C2.71261 75.4104 2.72741 75.422 2.74672 75.4371C2.78534 75.4672 2.84204 75.5108 2.91674 75.5667C3.06615 75.6785 3.2876 75.8395 3.58061 76.0404C4.16662 76.442 5.03898 77.0029 6.19379 77.6475C8.50341 78.9368 11.9433 80.5613 16.4819 81.9167C25.563 84.6284 39.0281 86.258 56.618 81.9866L56.5 81.5007Z" fill="#FAE4C8"/>
<path d="M124.333 152.293C124.333 153.766 125.527 154.96 127 154.96C128.473 154.96 129.667 153.766 129.667 152.293C129.667 150.82 128.473 149.626 127 149.626C125.527 149.626 124.333 150.82 124.333 152.293ZM66 149.5L65.7669 149.058L66 149.5ZM0.833333 132.5C0.833333 133.973 2.02724 135.167 3.5 135.167C4.97276 135.167 6.16667 133.973 6.16667 132.5C6.16667 131.027 4.97276 129.833 3.5 129.833C2.02724 129.833 0.833333 131.027 0.833333 132.5ZM127 152.293C127.109 151.805 127.108 151.805 127.108 151.805C127.108 151.805 127.107 151.805 127.106 151.804C127.105 151.804 127.103 151.804 127.1 151.803C127.094 151.802 127.085 151.8 127.074 151.797C127.051 151.792 127.017 151.785 126.973 151.775C126.883 151.755 126.751 151.727 126.578 151.69C126.232 151.615 125.722 151.507 125.069 151.373C123.764 151.103 121.883 150.727 119.582 150.3C114.979 149.445 108.691 148.383 101.951 147.559C95.2136 146.735 88.0128 146.147 81.5883 146.24C75.1853 146.334 69.4725 147.105 65.7669 149.058L66 149.5L66.2331 149.942C69.7149 148.107 75.2208 147.333 81.6029 147.24C87.9636 147.147 95.1144 147.731 101.83 148.552C108.543 149.373 114.81 150.43 119.399 151.283C121.693 151.709 123.567 152.084 124.868 152.352C125.518 152.486 126.024 152.593 126.368 152.667C126.54 152.704 126.671 152.733 126.759 152.752C126.803 152.762 126.836 152.769 126.858 152.774C126.87 152.776 126.878 152.778 126.883 152.779C126.886 152.78 126.888 152.78 126.89 152.781C126.89 152.781 126.891 152.781 126.891 152.781C126.891 152.781 126.891 152.781 127 152.293ZM66 149.5L65.7669 149.058C47.4601 158.706 32.0249 154.506 21.1347 147.885C15.6825 144.571 11.3725 140.649 8.42457 137.554C6.95127 136.007 5.81996 134.668 5.05809 133.718C4.6772 133.242 4.38877 132.864 4.19624 132.606C4.09997 132.477 4.02769 132.378 3.97982 132.312C3.95588 132.278 3.93805 132.253 3.92638 132.237C3.92054 132.229 3.91624 132.223 3.91349 132.219C3.91211 132.217 3.91112 132.215 3.91052 132.215C3.91022 132.214 3.91006 132.214 3.90991 132.214C3.90985 132.214 3.90988 132.214 3.5 132.5C3.09012 132.786 3.09035 132.787 3.09067 132.787C3.09091 132.787 3.09133 132.788 3.09181 132.789C3.09276 132.79 3.09411 132.792 3.09584 132.794C3.0993 132.799 3.10431 132.807 3.11087 132.816C3.12399 132.834 3.1433 132.861 3.16874 132.897C3.21963 132.967 3.29505 133.071 3.39458 133.204C3.59365 133.471 3.88921 133.858 4.27784 134.343C5.05504 135.313 6.20498 136.673 7.70043 138.243C10.69 141.382 15.0675 145.367 20.6153 148.74C31.7251 155.494 47.5399 159.794 66.2331 149.942L66 149.5Z" fill="#FAE4C8"/>
<path d="M88.4458 90.5666C88.3808 91.7515 88.6686 92.9291 89.2729 93.9504C89.8772 94.9717 90.7707 95.7909 91.8405 96.3044C92.9104 96.8179 94.1085 97.0026 95.2833 96.8352C96.4581 96.6678 97.5569 96.1558 98.4407 95.3639C99.3245 94.572 99.9537 93.5358 100.249 92.3863C100.543 91.2369 100.491 90.0258 100.097 88.9062C99.7041 87.7866 98.9875 86.8088 98.0384 86.0965C97.0893 85.3841 95.9503 84.9692 94.7654 84.9042C93.9787 84.8611 93.1911 84.9733 92.4477 85.2345C91.7044 85.4957 91.0197 85.9008 90.4329 86.4266C89.8461 86.9524 89.3685 87.5886 89.0276 88.299C88.6866 89.0093 88.489 89.7799 88.4458 90.5666ZM99.2296 91.1581C99.1776 92.106 98.8457 93.0173 98.2758 93.7765C97.7059 94.5358 96.9237 95.1091 96.028 95.4238C95.1324 95.7385 94.1635 95.7806 93.2439 95.5446C92.3244 95.3087 91.4954 94.8054 90.8619 94.0984C90.2284 93.3913 89.8187 92.5123 89.6848 91.5724C89.5509 90.6326 89.6986 89.6741 90.1094 88.8182C90.5202 87.9624 91.1756 87.2475 91.9926 86.7641C92.8097 86.2807 93.7518 86.0504 94.6997 86.1024C95.9708 86.1722 97.1622 86.744 98.0117 87.6921C98.8612 88.6402 99.2993 89.887 99.2296 91.1581Z" fill="#FFF9F1"/>
<path d="M95.6359 90.9616C95.6722 90.2998 95.1652 89.7339 94.5035 89.6976C93.8417 89.6613 93.2758 90.1684 93.2395 90.8301C93.2033 91.4919 93.7103 92.0577 94.372 92.094C95.0338 92.1303 95.5996 91.6233 95.6359 90.9616Z" fill="#FFF9F1"/>
<g clip-path="url(#clip0_4855_23176)">
<path d="M90.0416 66.7861C89.8919 66.8389 89.7692 66.9488 89.7004 67.0919C89.6657 67.1622 89.6452 67.2387 89.64 67.3169L89.4757 70.3122C89.4669 70.4711 89.5217 70.627 89.6279 70.7455C89.7341 70.864 89.883 70.9355 90.0419 70.9442C90.2007 70.9529 90.3566 70.8981 90.4751 70.7919C90.5936 70.6858 90.6651 70.5368 90.6738 70.378L90.7589 68.8264L92.8482 71.1582C92.1451 71.9594 91.7318 72.9737 91.6748 74.0381C91.6228 74.986 91.853 75.928 92.3364 76.745C92.8198 77.562 93.5346 78.2173 94.3904 78.6281C95.2463 79.0389 96.2047 79.1867 97.1445 79.0527C98.0843 78.9188 98.9633 78.5092 99.6703 77.8757C100.377 77.2422 100.881 76.4133 101.117 75.4938C101.352 74.5743 101.31 73.6054 100.996 72.7098C100.681 71.8142 100.108 71.032 99.3485 70.4622C98.5893 69.8923 97.6781 69.5604 96.7302 69.5084C95.6659 69.4487 94.6125 69.7486 93.7392 70.3598L91.6499 68.028L93.2015 68.1131C93.3604 68.1218 93.5162 68.0671 93.6347 67.9609C93.7532 67.8547 93.8247 67.7058 93.8334 67.5469C93.8422 67.388 93.7874 67.2322 93.6812 67.1137C93.575 66.9952 93.4261 66.9237 93.2672 66.915L90.2719 66.7507C90.1935 66.7473 90.1153 66.7594 90.0416 66.7861ZM100.062 74.4981C100.023 75.209 99.7738 75.8924 99.3464 76.4619C98.9191 77.0313 98.3324 77.4612 97.6607 77.6972C96.989 77.9333 96.2624 77.9648 95.5727 77.7879C94.8831 77.6109 94.2614 77.2335 93.7863 76.7032C93.3112 76.1729 93.004 75.5137 92.9035 74.8088C92.8031 74.104 92.9139 73.3852 93.222 72.7433C93.5301 72.1014 94.0215 71.5653 94.6343 71.2028C95.2471 70.8403 95.9536 70.6676 96.6645 70.7066C97.6178 70.7588 98.5113 71.1877 99.1484 71.8987C99.7855 72.6098 100.114 73.5448 100.062 74.4981Z" fill="#FFF9F1"/>
</g>
<g clip-path="url(#clip1_4855_23176)">
<g clip-path="url(#clip2_4855_23176)">
<path d="M144.71 12.4151C144.621 12.5086 144.569 12.6315 144.564 12.7606C144.558 12.8898 144.6 13.0166 144.681 13.1172C144.758 13.2179 144.869 13.2877 144.993 13.3141C145.118 13.3405 145.247 13.3216 145.359 13.261C145.831 13.0104 146.362 12.8937 146.896 12.9236C147.43 12.9534 147.945 13.1287 148.386 13.4304C148.827 13.732 149.178 14.1486 149.399 14.6351C149.621 15.1215 149.705 15.6593 149.643 16.1901C149.581 16.721 149.375 17.2248 149.047 17.6469C148.719 18.0691 148.282 18.3935 147.783 18.5851C147.284 18.7767 146.742 18.8282 146.216 18.734C145.69 18.6398 145.199 18.4035 144.798 18.0506C144.71 17.9398 144.582 17.8683 144.442 17.8518C144.301 17.8354 144.16 17.8754 144.049 17.963C143.939 18.0507 143.867 18.1787 143.851 18.3191C143.834 18.4594 143.874 18.6006 143.962 18.7114C144.096 18.9383 144.247 19.155 144.413 19.3598C145.067 20.1865 145.951 20.8009 146.953 21.1253C147.956 21.4496 149.032 21.4694 150.046 21.182C151.06 20.8947 151.966 20.3132 152.649 19.511C153.332 18.7088 153.763 17.722 153.885 16.6754C154.008 15.6287 153.817 14.5693 153.337 13.6309C152.858 12.6926 152.111 11.9176 151.191 11.4039C150.271 10.8901 149.219 10.6608 148.168 10.7448C147.118 10.8288 146.116 11.2225 145.289 11.8759C145.083 12.0412 144.89 12.2214 144.71 12.4151ZM151.937 13.4128C152.544 14.1787 152.869 15.1298 152.859 16.107C152.848 17.0841 152.502 18.0278 151.878 18.7802C151.254 19.5325 150.391 20.0477 149.433 20.2395C148.475 20.4313 147.48 20.288 146.615 19.8337C147.617 19.8672 148.594 19.523 149.354 18.8693C150.114 18.2156 150.601 17.3001 150.717 16.3045C150.834 15.3089 150.572 14.3059 149.983 13.4944C149.395 12.6828 148.523 12.122 147.541 11.9233C148.339 11.7201 149.179 11.7527 149.959 12.017C150.74 12.2814 151.427 12.7662 151.937 13.4128Z" fill="#FFF9F1"/>
</g>
<path d="M170.492 12.3836C170.417 11.5822 170.113 10.8193 169.616 10.1858C169.12 9.55222 168.452 9.07474 167.692 8.81022C166.931 8.54571 166.111 8.50531 165.329 8.69384C164.546 8.88236 163.834 9.29187 163.278 9.87357C162.722 10.4553 162.344 11.1846 162.191 11.9748C162.037 12.7649 162.114 13.5825 162.413 14.3301C162.711 15.0778 163.218 15.724 163.873 16.1917C164.528 16.6594 165.303 16.9289 166.107 16.9682L166.168 17.613L165.571 17.6696C165.413 17.6846 165.267 17.7619 165.166 17.8845C165.064 18.0071 165.016 18.165 165.031 18.3233C165.046 18.4816 165.123 18.6275 165.246 18.7289C165.368 18.8302 165.526 18.8787 165.685 18.8637L166.282 18.8071L166.395 20.0012C166.41 20.1595 166.487 20.3054 166.61 20.4068C166.732 20.5081 166.89 20.5566 167.049 20.5416C167.207 20.5266 167.353 20.4493 167.454 20.3267C167.556 20.2041 167.604 20.0463 167.589 19.8879L167.476 18.6938L168.073 18.6372C168.231 18.6222 168.377 18.5449 168.478 18.4223C168.58 18.2997 168.628 18.1419 168.613 17.9835C168.598 17.8252 168.521 17.6793 168.398 17.578C168.276 17.4766 168.118 17.4281 167.96 17.4431L167.363 17.4997L167.301 16.8549C168.282 16.6172 169.143 16.0346 169.729 15.2135C170.315 14.3924 170.586 13.3879 170.492 12.3836ZM163.327 13.0631C163.271 12.4727 163.392 11.879 163.673 11.3569C163.955 10.8349 164.384 10.4081 164.909 10.1304C165.433 9.8527 166.027 9.73666 166.617 9.79692C167.207 9.85719 167.766 10.0911 168.223 10.4689C168.68 10.8468 169.015 11.3518 169.185 11.9199C169.355 12.4881 169.353 13.0939 169.179 13.6608C169.005 14.2277 168.666 14.7303 168.206 15.1048C167.747 15.4794 167.186 15.7092 166.596 15.7652C165.804 15.8403 165.015 15.5978 164.402 15.0911C163.789 14.5844 163.402 13.8549 163.327 13.0631Z" fill="#FFF9F1"/>
</g>
<g clip-path="url(#clip3_4855_23176)">
<path d="M164.616 151.441C164.507 150.561 164.121 149.737 163.514 149.089L164.082 148.292C164.133 148.228 164.171 148.155 164.192 148.076C164.214 147.997 164.219 147.915 164.208 147.834C164.197 147.753 164.169 147.676 164.126 147.606C164.084 147.536 164.028 147.476 163.961 147.429C163.895 147.382 163.819 147.349 163.739 147.332C163.659 147.315 163.577 147.314 163.497 147.33C163.417 147.346 163.341 147.379 163.274 147.425C163.207 147.472 163.15 147.531 163.107 147.601L162.592 148.337C161.804 147.865 160.881 147.667 159.969 147.776C159.056 147.886 158.206 148.295 157.552 148.941L156.877 148.346C156.758 148.239 156.6 148.184 156.439 148.193C156.279 148.202 156.128 148.274 156.021 148.394C155.914 148.514 155.859 148.672 155.868 148.833C155.877 148.993 155.949 149.144 156.069 149.251L156.803 149.892C156.458 150.521 156.279 151.228 156.285 151.946C156.291 152.663 156.481 153.367 156.837 153.99C157.193 154.613 157.703 155.135 158.318 155.504C158.933 155.873 159.633 156.079 160.35 156.1L160.43 156.766L159.835 156.837C159.677 156.856 159.534 156.937 159.436 157.061C159.338 157.186 159.293 157.345 159.312 157.503C159.331 157.66 159.411 157.804 159.536 157.902C159.661 158 159.82 158.045 159.977 158.026L160.572 157.955L160.714 159.144C160.733 159.301 160.814 159.445 160.939 159.543C161.063 159.641 161.222 159.686 161.38 159.667C161.537 159.648 161.681 159.567 161.779 159.442C161.877 159.318 161.922 159.159 161.903 159.001L161.761 157.812L162.355 157.741C162.513 157.722 162.656 157.642 162.755 157.517C162.853 157.392 162.897 157.233 162.878 157.076C162.859 156.918 162.779 156.774 162.654 156.676C162.529 156.578 162.37 156.534 162.213 156.553L161.618 156.624L161.542 155.982C162.514 155.72 163.36 155.118 163.924 154.284C164.489 153.45 164.734 152.441 164.616 151.441ZM157.483 152.295C157.412 151.707 157.518 151.112 157.786 150.584C158.054 150.056 158.473 149.62 158.989 149.33C159.505 149.04 160.096 148.909 160.686 148.955C161.276 149.001 161.839 149.22 162.305 149.586C162.77 149.952 163.117 150.448 163.3 151.011C163.484 151.574 163.497 152.178 163.337 152.748C163.177 153.318 162.851 153.828 162.402 154.213C161.952 154.598 161.398 154.841 160.811 154.912C160.022 155.006 159.229 154.783 158.605 154.293C157.981 153.802 157.577 153.083 157.483 152.295Z" fill="#FFF9F1"/>
</g>
<g clip-path="url(#clip4_4855_23176)">
<path fill-rule="evenodd" clip-rule="evenodd" d="M182.589 153.314L181.682 145.733C181.646 145.433 181.857 145.162 182.158 145.126C182.457 145.09 182.728 145.298 182.765 145.604L184.061 156.432C184.097 156.732 183.885 157.004 183.584 157.04C183.285 157.076 183.014 156.867 182.978 156.562L182.719 154.397L174.595 155.369C174.296 155.405 174.024 155.194 173.988 154.892C173.952 154.593 174.17 154.322 174.465 154.286L177.173 153.962C178.369 153.819 179.223 152.733 179.08 151.537C178.937 150.34 177.851 149.486 176.654 149.629C175.458 149.772 174.604 150.859 174.747 152.055C174.783 152.354 174.57 152.626 174.271 152.662C173.972 152.697 173.7 152.484 173.664 152.185C173.449 150.39 174.73 148.761 176.525 148.546C178.32 148.332 179.948 149.612 180.163 151.407C180.263 152.239 180.041 153.036 179.595 153.672L182.589 153.314Z" fill="#FFF9F1"/>
</g>
<defs>
<clipPath id="clip0_4855_23176">
<rect width="12" height="12" fill="white" transform="translate(89.1035 78.585) rotate(-86.8604)"/>
</clipPath>
<clipPath id="clip1_4855_23176">
<rect width="30" height="12" fill="white" transform="translate(142 10.833) rotate(-5.41792)"/>
</clipPath>
<clipPath id="clip2_4855_23176">
<rect width="12" height="12" fill="white" transform="translate(142 10.833) rotate(-5.41792)"/>
</clipPath>
<clipPath id="clip3_4855_23176">
<rect width="12" height="12" fill="white" transform="translate(154 148.565) rotate(-6.82484)"/>
</clipPath>
<clipPath id="clip4_4855_23176">
<rect width="12" height="12" fill="white" transform="translate(171.873 146.427) rotate(-6.82484)"/>
</clipPath>
</defs>
</svg>
