<svg width="191" height="183" viewBox="0 0 191 183" fill="none" xmlns="http://www.w3.org/2000/svg">
<path d="M60.0347 1.71193C51.5472 4.67059 48.7978 5.14877 38.6666 5.47751C28.386 5.80624 25.7561 6.46373 22.3491 9.48218C21.5721 10.1396 20.8548 10.5879 20.7353 10.4684C20.5859 10.3488 20.5859 10.4385 20.7054 10.6477C20.8548 10.8868 20.7353 11.2753 20.4663 11.5443C19.3307 12.8293 18.464 15.4892 18.0157 19.1352C17.687 21.9743 17.3881 23.2295 16.7008 24.6043C15.8042 26.487 10.5444 32.9124 10.126 32.6734C9.97653 32.5837 9.55813 32.9423 9.1995 33.4803C8.81099 33.9883 8.69145 34.3171 8.90065 34.1676C9.16962 34.0182 9.25927 34.078 9.16962 34.347C9.07996 34.586 8.84088 34.7355 8.66157 34.6757C8.45237 34.6458 8.36271 34.7355 8.48225 34.8849C8.57191 35.0642 8.33282 35.8412 7.94431 36.6183C6.1213 40.2344 5.40405 44.6276 5.94199 48.5725C6.47992 52.4875 7.07763 54.9979 8.3926 58.7336C9.02019 60.5865 9.46847 62.26 9.34893 62.4692C9.22939 62.6486 9.25927 62.7083 9.46847 62.5888C9.85698 62.3497 10.2455 63.4555 9.94664 63.9336C9.8271 64.1428 9.85698 64.2026 10.0363 64.113C10.4248 63.8739 12.0386 67.9383 11.7398 68.4464C11.6202 68.6556 11.6501 68.7452 11.7697 68.5958C12.0984 68.3268 13.4731 71.674 13.2639 72.2119C13.2042 72.4211 13.234 72.5407 13.3835 72.4211C13.7421 72.2119 14.4295 74.2442 14.1306 74.6924C14.0111 74.9315 14.041 74.9614 14.2501 74.8419C14.6685 74.6028 15.0571 75.9476 14.7283 76.4856C14.6088 76.6948 14.6387 76.7545 14.8479 76.635C15.2065 76.4258 17.149 82.2834 18.1651 86.6168C19.779 93.6698 20.287 98.3618 20.1376 105.744C20.0479 111.452 19.779 114.052 18.7629 118.744C17.8364 123.017 15.6548 128.397 14.9076 128.217C14.7283 128.188 14.6387 128.277 14.7283 128.427C14.9973 128.845 13.2938 130.668 11.6202 131.744C10.7834 132.282 10.126 132.76 10.126 132.85C10.126 133.776 14.3697 137.452 16.8502 138.677C20.1077 140.321 22.7077 140.829 29.5515 141.307C37.2919 141.845 40.6988 143.1 44.5241 146.956C48.7978 151.289 50.292 155.204 51.2185 164.618C51.4875 167.338 52.0553 171.372 52.4438 173.584C53.2208 177.708 53.8185 179.411 53.43 176.363C53.1013 173.733 53.1312 168.832 53.4898 169.549C53.699 170.027 53.7289 169.938 53.5794 169.25C53.4898 168.742 53.4001 166.83 53.43 164.977C53.4898 160.703 53.161 158.76 51.6668 154.128C48.2001 143.549 46.8253 134.105 47.4828 125.319C47.6621 123.017 47.9311 120.716 48.0805 120.238C48.3196 119.551 48.3495 119.82 48.2299 121.433C47.4529 131.953 47.9311 138.139 50.1725 146.986C51.0392 150.363 52.8622 156.041 53.3702 156.997C53.5794 157.356 53.8783 156.878 54.5956 154.995C55.6415 152.216 58.5703 147.583 61.798 143.549C64.9359 139.634 65.3842 138.648 65.7428 134.643C66.0716 130.847 66.6394 128.546 67.6555 126.783C69.1498 124.213 72.3475 122.151 76.5315 121.075C77.6373 120.776 78.5637 120.477 78.5637 120.387C78.5637 120.298 77.0993 119.73 75.3361 119.102C71.451 117.758 64.7865 114.56 61.0508 112.229C56.0599 109.15 54.1473 106.849 52.5633 102.068C51.7265 99.5572 50.561 93.879 50.8599 93.61C50.9196 93.5203 51.0989 94.0583 51.1886 94.8054C52.0254 100.274 53.968 105.475 56.1197 107.895C59.9749 112.199 74.6487 118.893 85.2879 121.135C94.1938 123.047 96.8536 122.3 99.2146 117.279C100.231 115.128 100.32 113.454 99.5732 110.256C99.095 108.254 99.095 108.015 99.5433 107.238C99.9916 106.431 99.9916 106.431 98.9157 106.042C97.81 105.654 94.7019 104.01 94.7019 103.801C94.7019 103.741 95.7479 104.219 97.0329 104.877C99.6927 106.252 100.769 106.311 101.665 105.086C102.562 103.891 102.681 101.589 101.934 100.663C101.336 99.9457 101.187 99.9158 98.0789 99.9457C95.3594 99.9756 95.0904 99.9158 96.3456 99.7066C97.1824 99.5572 98.7962 99.5273 99.9617 99.5871C101.874 99.7365 102.143 99.6768 102.681 99.079C104.056 97.6146 104.325 96.21 103.488 95.0146C102.98 94.3272 102.084 94.2675 100.53 94.8054C100.141 94.9548 100.201 94.8652 100.679 94.5663C101.097 94.3272 101.665 94.118 101.964 94.0882C102.502 94.0882 102.651 93.6399 102.203 93.341C102.024 93.2514 101.815 92.5939 101.725 91.8766C101.426 90.0237 102.143 88.7088 104.415 86.9156C107.881 84.1662 108.897 82.4627 108.18 80.55C108.001 80.1017 107.074 78.9063 106.118 77.8902C103.847 75.4396 102.801 73.8556 100.828 70.0004C97.4214 63.3957 97.2122 60.9152 99.6927 56.9105C101.247 54.4001 101.277 53.2047 99.9617 48.8713C98.7364 44.9264 97.0329 38.1723 96.4651 35.2136C96.2559 34.1377 96.1065 31.717 96.0766 29.8342C96.0766 26.6066 96.1364 26.1284 97.3617 22.1238C98.5571 18.149 98.6468 17.6708 98.5272 15.2501C98.3479 12.0523 97.2421 9.39252 95.1502 7.18098C92.9087 4.73036 91.6535 4.37175 85.1385 4.13266C79.012 3.89357 77.8166 3.6246 72.7659 1.38319C70.4946 0.367081 69.6578 0.127991 67.6555 0.0383453C65.3543 -0.0812073 65.0555 -0.0214386 60.0347 1.71193ZM67.536 5.47751C67.9842 6.43385 67.9842 6.55339 67.4164 7.42007L66.8187 8.3764L66.2509 7.47984C65.713 6.61316 65.713 6.55339 66.221 5.5074C66.5199 4.93958 66.8187 4.4614 66.9084 4.4614C66.998 4.4614 67.267 4.90968 67.536 5.47751ZM88.1271 10.1098C88.1271 10.2592 88.0075 10.4086 87.8282 10.4086C87.6788 10.4086 87.5294 10.2592 87.5294 10.1098C87.5294 9.93045 87.6788 9.81091 87.8282 9.81091C88.0075 9.81091 88.1271 9.93045 88.1271 10.1098ZM53.6392 11.5144C53.3404 11.8132 53.0714 11.365 53.3404 10.9765C53.5197 10.6477 53.5794 10.6477 53.699 10.9765C53.7588 11.1857 53.7289 11.4247 53.6392 11.5144ZM41.5057 11.7236C41.5057 11.9627 41.3563 12.2615 41.177 12.3811C40.7586 12.6201 40.1908 12.0523 40.4298 11.6339C40.7287 11.1558 41.5057 11.2454 41.5057 11.7236ZM78.4442 12.2316C78.743 12.7397 78.0557 13.3075 77.6373 12.8891C77.2786 12.5305 77.5177 11.9029 77.966 11.9029C78.1154 11.9029 78.3246 12.0523 78.4442 12.2316ZM27.9975 14.2041C27.9377 14.5029 27.6986 14.742 27.4595 14.742C27.2204 14.742 26.9814 14.5029 26.9216 14.2041C26.8618 13.8455 27.0113 13.696 27.4595 13.696C27.9078 13.696 28.0572 13.8455 27.9975 14.2041ZM64.5175 14.4133C64.5175 14.6524 64.398 14.9213 64.2486 15.0409C63.8899 15.2501 63.5313 14.6823 63.7704 14.2937C64.0394 13.8455 64.5175 13.9351 64.5175 14.4133ZM34.9309 16.834C34.9309 17.0731 34.7217 17.2823 34.4826 17.2823C34.0045 17.2823 33.8849 16.9237 34.2435 16.5949C34.5723 16.2363 34.9309 16.3559 34.9309 16.834ZM92.311 17.1329C92.311 17.372 92.1915 17.5812 92.0421 17.5812C91.6535 17.5812 91.3846 17.103 91.6237 16.8639C91.9524 16.5352 92.311 16.6846 92.311 17.1329ZM48.3196 18.5973C42.7908 21.3766 39.2643 25.7997 38.0689 31.4779C37.5309 34.1079 37.5011 35.4826 38.039 38.2619C38.6367 41.2206 39.1448 42.5655 40.6091 44.8667C43.9563 50.1863 49.8139 53.4438 55.9404 53.4438C59.0784 53.4438 61.1405 52.9656 63.8601 51.6208C66.1911 50.4851 69.3889 47.5564 70.5544 45.4644C71.0625 44.5977 71.5107 43.8804 71.5705 43.8804C71.8395 43.8804 70.2257 47.7058 69.2992 49.2598C66.5199 53.9818 61.7681 57.5381 56.299 58.9726C53.9082 59.6002 48.7978 59.6002 46.4368 58.9726C40.5195 57.3887 35.5884 53.3243 32.9883 47.915C31.2849 44.2988 30.8964 42.5954 30.9262 38.501C30.9262 34.4665 31.4343 32.2849 33.1378 28.9675C36.0964 23.1698 41.177 19.3444 47.7817 18.0294C48.8575 17.8202 49.8736 17.611 50.0231 17.611C50.2024 17.5812 49.4254 18.0294 48.3196 18.5973ZM84.8098 27.4434C84.9891 28.5193 85.1385 29.4756 85.1385 29.5951C85.1385 29.9538 86.2742 29.894 86.9914 29.5055C87.4995 29.2365 87.5891 29.2365 87.4696 29.5653C86.842 31.2687 86.842 31.3285 87.888 31.3584C88.4259 31.3584 89.5616 31.5377 90.3685 31.7469L91.8627 32.0756L89.3823 32.494C87.4995 32.7929 86.9316 33.0021 87.0512 33.3009C87.1408 33.54 87.2903 33.8987 87.3799 34.1079C87.4995 34.3768 87.2305 34.4665 86.3638 34.3768C85.2282 34.2573 85.1684 34.2872 85.019 35.2734C84.7201 37.0068 84.242 41.5793 84.2121 43.2827L84.1523 44.9264L83.8833 43.1333C83.7638 42.1471 83.4649 39.7861 83.2557 37.9033L82.8971 34.4665L81.7913 34.4964C80.7453 34.5263 80.6856 34.4964 80.8649 33.6895C81.0143 32.8826 81.0143 32.8826 78.7131 32.494C76.143 32.0756 76.2625 31.8067 79.1016 31.4779C80.9844 31.2687 81.0143 31.2687 80.8948 30.4021C80.7752 29.5653 80.7752 29.5354 81.8511 29.7147L82.9569 29.894L83.1362 28.0112C83.2557 26.9652 83.4052 24.9629 83.4948 23.5583C83.7937 19.5536 84.0328 19.195 84.2718 22.5123C84.3914 24.156 84.6305 26.3675 84.8098 27.4434ZM62.5152 21.6456C62.3359 22.1238 61.6485 22.2134 61.3796 21.7651C61.26 21.5858 61.3497 21.2571 61.529 20.9881C61.9773 20.4502 62.7842 20.9881 62.5152 21.6456ZM28.2963 22.1238C28.117 22.6617 27.4595 22.7514 27.4595 22.2433C27.4595 21.9743 27.6687 21.7651 27.9377 21.7651C28.2067 21.7651 28.3561 21.9146 28.2963 22.1238ZM72.5866 22.8111C72.5866 23.0502 72.3774 23.2594 72.1383 23.2594C71.8992 23.2594 71.69 23.0502 71.69 22.8111C71.69 22.572 71.8992 22.3628 72.1383 22.3628C72.3774 22.3628 72.5866 22.572 72.5866 22.8111ZM51.6668 23.7077C51.6668 23.9468 51.4576 24.156 51.2185 24.156C50.9794 24.156 50.7702 23.9468 50.7702 23.7077C50.7702 23.4686 50.9794 23.2594 51.2185 23.2594C51.4576 23.2594 51.6668 23.4686 51.6668 23.7077ZM23.7537 30.7308C23.3055 31.717 23.2756 31.717 23.3951 30.94C23.4549 30.4319 23.3353 30.0135 23.0365 29.8641C22.7974 29.7147 22.6779 29.4457 22.7974 29.2664C22.9169 29.0871 23.1261 28.9974 23.2756 29.0871C23.3951 29.1767 23.4549 28.9377 23.3951 28.579C23.2756 28.0411 23.3652 28.1009 23.7537 28.7882C24.1721 29.625 24.1721 29.8043 23.7537 30.7308ZM61.7681 30.3423C61.9175 30.8503 60.991 31.209 60.5727 30.7906C60.3933 30.6113 60.3634 30.3423 60.483 30.1331C60.752 29.7147 61.5888 29.8641 61.7681 30.3423ZM46.2874 31.1791C46.2874 31.4182 46.1678 31.6274 45.9885 31.6274C45.8391 31.6274 45.6897 31.4182 45.6897 31.1791C45.6897 30.94 45.8391 30.7308 45.9885 30.7308C46.1678 30.7308 46.2874 30.94 46.2874 31.1791ZM9.70756 33.6596C9.16962 34.1377 9.16962 34.1377 9.52824 33.4803C9.70756 33.0918 9.94664 32.8527 10.0662 32.9423C10.1558 33.0619 10.0064 33.3607 9.70756 33.6596ZM68.7912 35.6619C68.821 35.8113 68.6118 35.9906 68.3429 36.0504C68.0141 36.1102 67.8049 35.9608 67.8049 35.6619C67.8049 35.1539 68.7015 35.124 68.7912 35.6619ZM16.7008 36.5585C16.7008 36.7976 16.5812 37.0068 16.4318 37.0068C16.0433 37.0068 15.7743 36.5286 16.0134 36.2895C16.3421 35.9608 16.7008 36.1102 16.7008 36.5585ZM51.0691 37.3056C51.0691 37.9332 50.6208 38.1125 50.3219 37.6045C50.1127 37.2458 50.3817 36.7079 50.8001 36.7079C50.9495 36.7079 51.0691 36.9769 51.0691 37.3056ZM62.4255 39.8758C62.4255 40.3539 61.9474 40.4436 61.6784 39.9953C61.4393 39.6068 61.798 39.039 62.1566 39.2482C62.306 39.3677 62.4255 39.6367 62.4255 39.8758ZM10.6041 43.6115C10.903 44.1195 10.2156 44.6873 9.79721 44.269C9.43859 43.9103 9.67767 43.2827 10.126 43.2827C10.2754 43.2827 10.4846 43.4322 10.6041 43.6115ZM25.0687 43.731C25.0687 43.9701 24.8595 44.1793 24.6204 44.1793C24.3813 44.1793 24.1721 43.9701 24.1721 43.731C24.1721 43.4919 24.3813 43.2827 24.6204 43.2827C24.8595 43.2827 25.0687 43.4919 25.0687 43.731ZM55.7611 47.2874C55.6415 47.5564 55.3726 47.6759 55.1036 47.5862C54.5657 47.377 54.5059 46.6598 55.0438 46.4805C55.5519 46.3012 55.9703 46.7495 55.7611 47.2874ZM16.2525 52.0691C16.4318 53.7128 16.4916 53.8024 17.1789 53.653C17.7766 53.5634 17.8962 53.653 17.8962 54.2208C17.8962 54.8484 18.0456 54.9381 19.0318 54.968L20.1376 55.0277L19.0916 55.2071C18.4341 55.3266 18.0157 55.5956 17.8962 55.9841C17.8065 56.3427 17.5077 56.5818 17.149 56.5818C16.7605 56.5818 16.5214 56.8209 16.4617 57.2393C16.4019 57.6278 16.1927 57.9266 16.0134 57.9266C15.7743 57.9266 15.7743 58.0163 15.9536 58.1657C16.1329 58.2853 16.1927 59.3014 16.1031 60.6163L15.9536 62.8578L15.7145 59.929C15.4456 56.9703 15.0869 56.2829 14.0708 56.6416C13.8616 56.7312 13.7122 56.6714 13.7421 56.522C13.9214 55.5657 13.6524 55.2369 12.7559 55.1772L11.7697 55.1473L12.7858 55.0277C13.4432 54.9381 13.8318 54.699 13.9214 54.3105C14.0111 53.9519 14.3398 53.7427 14.7881 53.7427C15.3858 53.7427 15.5053 53.5932 15.5053 52.876C15.5053 51.6806 15.9237 48.9909 16.0134 49.7081C16.0433 50.0369 16.1628 51.0829 16.2525 52.0691ZM96.6743 52.0093C96.9134 52.4576 97.0927 52.9358 97.0927 53.0553C97.0628 53.1748 96.8536 52.876 96.5847 52.3978C96.3456 51.8898 95.8375 51.1725 95.4789 50.7541L94.8513 50.007L95.5686 50.6047C95.9272 50.9334 96.4352 51.561 96.6743 52.0093ZM96.1961 52.6369C96.1961 52.8162 96.0168 52.7266 95.8375 52.3978C95.6582 52.0691 95.2996 51.5311 95.0306 51.2024C94.7616 50.8438 94.9111 50.9633 95.3892 51.4116C95.8375 51.8898 96.1961 52.4277 96.1961 52.6369ZM92.6995 50.9633C92.4903 51.0231 92.0719 51.0231 91.803 50.9633C91.5041 50.8737 91.6834 50.8139 92.1616 50.8139C92.6697 50.8139 92.8789 50.8737 92.6995 50.9633ZM97.3916 51.8001C97.3916 51.9495 97.2421 51.8898 97.0927 51.6507C96.9433 51.4116 96.7939 51.053 96.7939 50.9035C96.7939 50.7242 96.9433 50.8139 97.0927 51.053C97.2421 51.2921 97.3916 51.6208 97.3916 51.8001ZM94.5226 51.6806C94.941 52.0093 95.449 52.5771 95.6283 52.9358C95.8375 53.384 95.6881 53.2645 95.1203 52.6369C94.6421 52.1288 93.9846 51.561 93.6559 51.3817C93.3271 51.2024 93.2076 51.053 93.3869 51.053C93.5662 51.053 94.0743 51.3219 94.5226 51.6806ZM84.5707 51.8898C84.1822 51.9495 83.7638 51.8898 83.6144 51.7403C83.435 51.561 83.704 51.5311 84.3017 51.6208C85.1385 51.7403 85.1684 51.8001 84.5707 51.8898ZM91.4145 51.6507C91.8926 51.8001 91.4742 51.83 90.3685 51.7403C89.3823 51.6507 88.5156 51.5311 88.4558 51.4714C88.2167 51.2622 90.6673 51.4116 91.4145 51.6507ZM87.8282 52.3978C88.7248 52.607 89.2029 52.8162 88.8742 52.8162C88.5455 52.8162 87.619 52.6369 86.7822 52.4277C84.8397 51.8898 85.6765 51.8599 87.8282 52.3978ZM93.5363 52.5771L94.2536 53.1748L93.357 52.6668C92.1915 51.9495 92.1616 51.9495 92.5202 51.9495C92.6995 51.9495 93.1478 52.2185 93.5363 52.5771ZM84.242 52.5472C85.2879 52.7564 85.0787 52.7863 83.196 52.6668C81.8511 52.5771 80.1178 52.6668 79.3407 52.8461C78.5338 53.0254 77.8166 53.1151 77.7568 53.0254C77.5177 52.8162 80.0879 52.3082 81.5523 52.3082C82.2994 52.3082 83.4948 52.3978 84.242 52.5472ZM86.7224 53.0553C86.5132 53.1151 86.1546 53.1151 85.9753 53.0553C85.7661 52.9656 85.9155 52.9059 86.3339 52.9059C86.7523 52.9059 86.9018 52.9656 86.7224 53.0553ZM93.5064 53.6231C93.5064 53.6829 93.2375 53.6231 92.9087 53.4438C92.58 53.2645 92.311 53.0553 92.311 52.9656C92.311 52.9059 92.58 52.9656 92.9087 53.145C93.2375 53.3243 93.5064 53.5335 93.5064 53.6231ZM86.3339 53.8921C87.888 54.3703 89.8007 55.5358 89.0535 55.5358C88.8443 55.5358 88.4857 55.3266 88.2466 55.0875C87.35 54.2208 84.5109 53.6231 81.2534 53.6231C78.6235 53.6231 77.8763 53.7128 76.5614 54.3105C75.6947 54.699 74.828 55.1772 74.6487 55.4163C74.2004 55.9841 74.3499 55.9542 76.0234 55.2071C77.7269 54.4599 80.3568 54.4001 82.5983 55.0875C83.435 55.3266 83.704 55.4461 83.196 55.3565C82.7178 55.2668 81.2235 55.1174 79.8787 55.0277C77.8166 54.9082 77.2487 54.968 76.0234 55.5059C75.0372 55.9542 74.4694 56.0439 74.2602 55.8347C73.9315 55.5059 74.4993 54.968 76.2326 54.1013C76.8602 53.7726 77.2786 53.4737 77.2189 53.384C77.1292 53.2944 78.7729 53.2645 80.8649 53.2944C83.5546 53.3243 85.1684 53.5036 86.3339 53.8921ZM89.6213 53.8921C90.4581 54.3105 91.1156 54.7289 91.1156 54.7887C91.1156 54.8783 90.6972 54.7289 90.1593 54.4599C89.6512 54.1909 88.7547 53.8024 88.157 53.5932C87.5592 53.3542 87.3202 53.1748 87.619 53.1748C87.9179 53.145 88.8144 53.4737 89.6213 53.8921ZM90.9662 53.8921C92.5202 54.8484 92.1616 54.8484 90.488 53.8921C89.7708 53.4737 89.3225 53.145 89.4719 53.145C89.6512 53.145 90.3087 53.4737 90.9662 53.8921ZM95.6283 54.4001C96.1065 55.2668 95.6881 55.0277 94.9708 53.9519C94.4628 53.2645 94.4329 53.1151 94.7915 53.4139C95.0904 53.653 95.4789 54.1013 95.6283 54.4001ZM98.8858 53.8921C98.8858 54.5197 97.1226 56.4324 96.5249 56.4025C96.2559 56.4025 95.5088 55.745 94.8513 54.9979L93.6858 53.5932L94.9111 54.7588L96.1663 55.9243L96.3456 55.0576C96.6444 53.7128 96.7939 53.5036 96.7042 54.5496C96.6444 55.0875 96.7042 55.4461 96.8536 55.3565C96.9732 55.2668 97.0927 54.9381 97.0927 54.6392C97.0927 54.3404 97.2421 53.9818 97.4513 53.8622C97.6904 53.7128 97.7203 53.922 97.6008 54.6093C97.3617 55.745 97.7502 55.5956 98.2881 54.3404C98.7065 53.3542 98.8858 53.2047 98.8858 53.8921ZM95.2996 55.9841C95.6283 56.3726 95.5387 56.4324 94.8214 56.4025C94.3432 56.3726 93.5662 56.2531 93.0582 56.1036C92.4007 55.9243 92.5501 55.8944 93.6559 56.014L95.1502 56.1634L93.8053 54.9381L92.4605 53.6829L93.6858 54.6093C94.3432 55.1174 95.0904 55.7151 95.2996 55.9841ZM81.9408 54.2507C81.7316 54.3105 81.3132 54.3105 81.0442 54.2507C80.7453 54.1611 80.9247 54.1013 81.4028 54.1013C81.9109 54.1013 82.1201 54.1611 81.9408 54.2507ZM84.8397 54.7588C85.5868 54.9979 85.9753 55.2071 85.7362 55.2071C85.4971 55.2071 84.6902 55.0277 83.9431 54.8186C83.196 54.5795 82.8074 54.3703 83.0465 54.3703C83.2856 54.3703 84.0925 54.5496 84.8397 54.7588ZM87.9179 55.4461C87.7087 55.5059 87.2903 55.5059 87.0213 55.4461C86.7224 55.3565 86.9018 55.2967 87.3799 55.2967C87.888 55.2967 88.0972 55.3565 87.9179 55.4461ZM91.6535 55.745C91.3547 55.8048 90.8168 55.8048 90.4581 55.745C90.0696 55.6852 90.3087 55.6255 90.9662 55.6255C91.6237 55.5956 91.9225 55.6553 91.6535 55.745ZM80.6557 56.1335C81.1339 56.2829 80.7155 56.3128 79.6097 56.2232C78.6235 56.1335 77.7568 56.014 77.697 55.9542C77.4579 55.745 79.9086 55.8944 80.6557 56.1335ZM31.3446 56.8508C31.3446 57.0899 31.1952 57.3887 31.0159 57.5082C30.5975 57.7473 30.0297 57.1795 30.2688 56.7611C30.5676 56.2829 31.3446 56.3726 31.3446 56.8508ZM77.1591 56.7013C76.2326 56.8209 75.2165 57.1795 74.6487 57.5979C74.1407 57.9864 73.8119 58.1358 73.9315 57.9565C74.4395 57.1197 76.0533 56.4324 77.3683 56.4622L78.7131 56.522L77.1591 56.7013ZM45.1517 62.9474C46.7058 63.7244 48.5288 65.398 49.3955 66.8923C49.784 67.5797 49.4254 67.3107 48.0207 65.9061C45.4506 63.3658 42.7011 62.26 40.3999 62.8876C39.8321 63.0371 40.0114 63.2164 41.5057 63.9635C45.0621 65.7268 47.8414 70.8372 46.5564 73.228C46.2575 73.766 46.3173 73.9453 46.7954 74.3637C48.1702 75.4695 49.6047 77.8304 50.8898 81.1477C51.6369 83.0903 52.2645 84.7937 52.2645 84.9432C52.2645 85.0627 51.8461 84.8236 51.3082 84.3754C50.8001 83.9271 48.6483 82.7317 46.5564 81.6857C44.4644 80.6098 42.6712 79.6236 42.5517 79.4442C42.3724 79.1454 48.6782 82.0144 50.3518 83.0006L51.2783 83.5386L49.9035 80.4305C48.2897 76.6649 46.5265 74.4534 45.4207 74.812C45.0621 74.9315 44.4943 75.4396 44.1655 75.9476C43.8069 76.5752 43.5977 76.7247 43.5977 76.3959C43.5977 76.1269 44.1356 75.2603 44.7931 74.5131C45.4506 73.766 46.0782 72.8395 46.1678 72.451C46.7058 70.2395 43.8368 65.7567 41.0574 64.4716C39.1746 63.6049 38.6965 63.7244 37.5011 65.3681C35.6183 67.9084 34.9309 69.7613 34.9309 72.2119C34.9309 76.3063 36.5746 79.5339 40.9379 83.8972C42.5218 85.4811 44.2851 87.5133 44.8529 88.4099C46.3472 90.7709 46.5862 90.9203 48.7679 90.741C50.5012 90.5915 50.561 90.5915 49.7242 90.9801C48.6483 91.4582 46.7656 91.518 45.9885 91.0996C45.6598 90.9203 45.0322 90.1433 44.5839 89.3662C44.1356 88.5892 42.4919 86.6168 40.8781 84.9731C37.4712 81.4167 36.0964 79.4144 35.0504 76.2465C33.6159 71.9728 34.3631 67.8486 37.2321 64.5313C38.9356 62.4991 39.862 62.0508 41.954 62.1704C43.0299 62.2302 44.3149 62.5589 45.1517 62.9474ZM91.6834 63.9038C91.8329 64.1428 92.58 64.5911 93.3869 64.8601C94.7616 65.3681 94.7915 65.398 93.7157 65.2187C93.0881 65.1291 92.3409 64.9796 92.1018 64.89C91.7731 64.7704 91.6834 64.8302 91.8329 65.0394C91.9524 65.2486 92.2513 65.398 92.4903 65.398C92.7294 65.398 92.9087 65.5475 92.9087 65.6969C92.9087 65.8762 93.2076 66.1452 93.5961 66.2946C94.1639 66.5337 94.1042 66.5636 93.2076 66.4739C92.2513 66.4141 90.8168 65.8463 90.8168 65.5475C90.8168 65.4877 91.2949 65.6371 91.8627 65.8762C93.2972 66.4739 93.1777 66.1452 91.7133 65.4279C91.0558 65.0992 90.5777 64.9796 90.6972 65.1291C90.8765 65.4578 90.4581 65.4877 90.0397 65.1589C89.8604 65.0394 90.2788 65.4578 90.9363 66.1153L92.1616 67.2509L90.7869 66.3544C90.0098 65.8463 89.3225 65.5176 89.2029 65.6072C89.1133 65.7268 89.0236 65.6371 89.0236 65.4578C89.0236 65.2486 88.9041 65.0992 88.7248 65.0992C88.5753 65.0992 88.7248 65.7268 89.0535 66.4739C89.3823 67.2509 89.5915 67.9383 89.5317 67.9981C89.442 68.0578 89.2328 67.6992 89.0236 67.1912C88.7248 66.4739 88.5753 66.3544 88.3661 66.6532C88.1271 66.9521 88.0972 66.9222 88.2167 66.5337C88.3064 66.2647 88.1868 65.8164 87.9478 65.4877C87.5294 65.0095 87.4995 65.0693 87.619 66.2946C87.7087 67.0417 87.7087 67.4601 87.619 67.2509C87.5294 67.0716 87.35 66.982 87.1707 67.0716C86.9615 67.1912 86.9316 66.9521 87.0811 66.3245C87.2305 65.6072 87.1707 65.398 86.8121 65.398C86.4834 65.398 86.3339 65.6969 86.304 66.3544L86.2742 67.3406L86.065 66.444C85.8558 65.398 85.3178 65.3383 85.2282 66.3544C85.1684 67.0118 85.1983 66.982 85.4075 66.2946C85.6466 65.667 85.6765 65.6371 85.7063 66.1452C85.7063 66.4739 85.5868 66.9521 85.4374 67.1912C85.2282 67.5199 85.1385 67.5199 85.1385 67.2509C85.1385 67.0417 85.019 66.9521 84.8397 67.0417C84.481 67.2808 84.481 67.2808 84.8098 66.0555C84.9891 65.5176 84.9891 65.1589 84.8397 65.2486C84.6902 65.3383 84.5109 65.8164 84.3914 66.2946C84.2718 66.7728 84.0626 67.2808 83.8833 67.3705C83.704 67.49 83.6442 67.3107 83.7638 66.8624L83.973 66.1452L83.3753 66.8027C83.0764 67.1912 82.6879 67.49 82.5684 67.49C82.4488 67.49 82.658 67.1613 83.0465 66.7429C83.8534 65.8762 83.6741 65.7865 82.5086 66.5038C81.9109 66.8624 81.9707 66.7728 82.7477 66.0555C83.6741 65.2486 83.7339 65.1291 83.2557 64.9199C82.927 64.8003 82.2695 64.9199 81.6419 65.2187C80.2971 65.8463 79.9683 65.6072 81.2833 64.9497C82.0005 64.5612 82.15 64.3819 81.8212 64.1727C81.5821 64.0233 81.0741 63.9038 80.6557 63.8739C80.1476 63.844 80.058 63.7842 80.4465 63.6946C80.7155 63.6348 81.7913 63.844 82.8373 64.1727C85.3776 65.0394 88.1868 65.0693 90.8765 64.3222C91.2949 64.2026 91.3248 64.0233 91.1156 63.4256C90.7271 62.4095 90.7869 61.752 91.1754 62.7083C91.3248 63.1267 91.5639 63.6647 91.6834 63.9038ZM83.3454 65.2785C83.3454 65.4578 81.4028 66.2946 81.0442 66.2946C80.7752 66.2647 82.7776 65.1291 83.1362 65.0992C83.2557 65.0992 83.3454 65.1589 83.3454 65.2785ZM42.0437 66.7429C41.9241 67.5797 41.4161 68.8349 40.6091 70.1797C39.8321 71.4947 39.2643 72.8395 39.085 73.8258L38.8459 75.4097L38.9356 73.5568C38.9953 72.0326 39.1746 71.405 40.1011 69.9406C40.6988 68.9843 41.3563 67.5498 41.5655 66.8027C42.0138 65.0394 42.223 65.0095 42.0437 66.7429ZM89.98 67.0417C90.2489 67.6395 90.2489 67.6395 89.8007 67.0716C89.5317 66.7429 89.3225 66.2647 89.3524 66.0256C89.3524 65.6072 89.3823 65.6072 89.5317 65.9957C89.6213 66.2348 89.8305 66.713 89.98 67.0417ZM28.2067 66.5636C28.4159 66.9222 27.848 67.2808 27.4595 67.0417C27.1308 66.8325 27.34 66.2946 27.7584 66.2946C27.9078 66.2946 28.0871 66.4141 28.2067 66.5636ZM55.7013 69.2831C55.7013 69.5222 55.4622 69.7613 55.1933 69.8211C54.8048 69.8809 54.6553 69.7314 54.6553 69.2831C54.6553 68.8349 54.8048 68.6854 55.1933 68.7452C55.4622 68.805 55.7013 69.0441 55.7013 69.2831ZM21.4526 70.1199C21.3031 70.1797 21.1836 70.4487 21.1836 70.7177C21.1836 71.1062 21.1238 71.1062 20.7652 70.628C20.2571 69.9406 20.7652 69.1636 21.3629 69.7015C21.5721 69.8809 21.602 70.0602 21.4526 70.1199ZM23.5147 78.2787C23.4549 78.458 23.2756 78.5776 23.1261 78.5776C22.9767 78.5776 22.7974 78.458 22.7376 78.2787C22.6779 78.0994 22.8572 77.95 23.1261 77.95C23.3951 77.95 23.5744 78.0994 23.5147 78.2787ZM28.8044 84.9133C28.9837 85.9593 29.0733 86.0489 29.7009 85.8995C30.2688 85.7501 30.4182 85.8397 30.5079 86.3777C30.5676 86.9156 30.8366 87.0949 31.6435 87.2444C32.6895 87.4237 32.5102 87.6628 31.1952 87.872C30.8067 87.9317 30.5975 88.2007 30.6274 88.6191C30.6274 89.157 30.5079 89.2467 29.8504 89.0973C29.1032 88.9777 29.0136 89.0375 28.8642 90.1134C28.7446 90.741 28.655 91.8467 28.6251 92.5939C28.5952 94.5962 28.117 95.5227 28.0871 93.6399C28.0572 92.8031 27.9676 91.4283 27.848 90.5617C27.6986 89.0973 27.609 88.9777 26.9814 89.0973C26.4733 89.1869 26.2641 89.0674 26.2043 88.5892C26.1446 88.1409 25.7859 87.9018 24.7698 87.6926C23.7238 87.4536 23.6043 87.3639 24.1721 87.3041C25.8756 87.0651 26.2641 86.8857 26.2641 86.3478C26.2641 85.9294 26.4434 85.8397 26.9814 85.9294C27.609 86.0489 27.6986 85.9294 27.8779 84.6443C27.9676 83.8673 28.0871 82.8213 28.0871 82.3132C28.117 81.4466 28.1469 81.4765 28.386 82.5822C28.5055 83.2397 28.7147 84.2857 28.8044 84.9133ZM102.084 85.6903C100.559 85.8696 100.231 86.0191 99.4835 86.9156C98.7364 87.8421 98.5571 87.9018 97.81 87.6628C97.3617 87.4835 96.9134 87.1547 96.8536 86.9156C96.7341 86.557 96.8237 86.5869 97.3019 86.9754C98.1088 87.7225 98.8559 87.6329 99.1847 86.7961C99.5732 85.7501 100.29 85.4213 102.173 85.4811L103.817 85.511L102.084 85.6903ZM37.7401 89.8444C37.7999 89.964 37.77 90.2628 37.6206 90.5019C37.4114 90.8306 37.262 90.8605 36.993 90.5915C36.8137 90.4122 36.7539 90.1134 36.8436 89.9341C37.0827 89.5456 37.5309 89.5157 37.7401 89.8444ZM99.7824 95.1043C99.7824 95.4629 95.8076 97.6146 93.9249 98.2721C92.7593 98.6905 91.7731 99.1388 91.7432 99.3181C91.7133 99.4676 92.311 99.7066 93.0881 99.8262C93.8352 99.9457 94.5524 100.125 94.6421 100.215C94.941 100.484 91.9823 100.035 91.3547 99.7066C91.0558 99.5572 90.8168 99.348 90.8168 99.2285C90.8168 99.1089 91.9225 98.6308 93.2972 98.1825C94.6421 97.7342 96.6145 96.8376 97.6904 96.1801C99.6927 94.9548 99.7824 94.8951 99.7824 95.1043ZM41.8046 99.4974C41.8046 100.155 41.954 100.364 42.4023 100.364C42.7908 100.364 43 100.573 43 100.962C43 101.44 43.2092 101.56 43.9862 101.589C44.9127 101.649 44.9127 101.649 44.0759 101.769C43.5678 101.858 43.1793 102.127 43.0896 102.486C43 102.785 42.6712 103.054 42.3724 103.054C41.954 103.054 41.8046 103.263 41.8046 103.95C41.8046 104.429 41.685 104.847 41.5057 104.847C41.3563 104.847 41.2069 104.429 41.2069 103.95C41.2069 103.263 41.0574 103.054 40.639 103.054C40.3402 103.054 40.0114 102.785 39.9218 102.456C39.8022 102.038 39.5034 101.858 38.7562 101.799L37.77 101.769L38.7861 101.649C39.4436 101.56 39.8321 101.32 39.9218 100.932C40.0114 100.633 40.3402 100.364 40.639 100.364C41.0873 100.364 41.2069 100.155 41.2069 99.2882C41.2069 98.6606 41.3264 98.302 41.5057 98.4216C41.685 98.5112 41.8046 98.9894 41.8046 99.4974ZM94.2835 103.383C94.3731 103.562 94.134 103.472 93.6858 103.203C93.2674 102.904 92.9087 102.635 92.9087 102.546C92.9087 102.337 94.0743 103.054 94.2835 103.383ZM26.8319 107.985L26.4434 109.031L26.0848 108.134C25.7859 107.447 25.7859 106.999 26.025 106.311L26.3538 105.355L26.7722 106.162C27.1308 106.819 27.1308 107.148 26.8319 107.985ZM35.17 110.017C35.2895 110.675 34.3631 111.063 34.0343 110.495C33.7355 110.047 34.2435 109.24 34.7516 109.419C34.9309 109.479 35.1102 109.748 35.17 110.017ZM41.8046 115.636C41.8046 115.785 41.5954 115.905 41.3563 115.905C40.908 115.905 40.7586 115.546 41.0873 115.217C41.3264 114.978 41.8046 115.247 41.8046 115.636ZM23.7537 120.417C24.0526 120.925 23.3652 121.493 22.9468 121.075C22.5882 120.716 22.8273 120.089 23.2756 120.089C23.425 120.089 23.6342 120.238 23.7537 120.417ZM33.5562 124.183C33.6159 124.243 34.1539 124.004 34.7516 123.645C35.9769 122.928 36.216 123.316 35.0803 124.213C34.6619 124.542 34.3332 124.87 34.3332 124.96C34.3332 125.05 35.1102 125.229 36.0666 125.348L37.77 125.588L35.8872 125.886L33.9746 126.215L34.9309 126.902C36.1263 127.799 35.947 128.008 34.4826 127.411C33.8849 127.142 33.3171 126.992 33.2573 127.052C33.1975 127.112 33.0481 128.337 32.9286 129.831L32.7194 132.491L32.3906 129.891C32.2113 128.457 31.9722 127.201 31.8826 127.112C31.7929 126.992 31.2849 127.142 30.7469 127.411C29.5216 128.038 29.3423 127.859 30.3285 126.932L31.1056 126.215L29.3423 125.886L27.609 125.558L29.3423 125.319C30.2688 125.199 31.0458 125.02 31.0458 124.93C31.0458 124.84 30.6872 124.362 30.2389 123.884L29.4021 123.017L30.6573 123.645C31.3446 123.974 31.9722 124.273 32.0619 124.273C32.1217 124.273 32.301 123.376 32.4205 122.24L32.6297 120.238L33.0481 122.151C33.2573 123.227 33.4964 124.123 33.5562 124.183ZM42.0138 128.337C42.2528 128.965 41.6253 129.592 41.177 129.144C40.7885 128.755 41.0275 127.859 41.5057 127.859C41.685 127.859 41.8942 128.068 42.0138 128.337ZM21.3928 131.863C21.2732 132.132 21.064 132.342 20.8847 132.342C20.3767 132.342 20.1675 131.415 20.6158 131.116C21.1537 130.788 21.6319 131.266 21.3928 131.863ZM28.0572 136.406C28.0572 136.675 27.9078 136.824 27.6986 136.765C27.1607 136.585 27.071 135.928 27.5791 135.928C27.848 135.928 28.0572 136.137 28.0572 136.406ZM38.6666 136.824C38.6666 137.482 37.7999 137.362 37.6804 136.735C37.5907 136.316 37.7103 136.197 38.1287 136.287C38.4275 136.346 38.6666 136.585 38.6666 136.824Z" fill="#CB8020"/>
<path d="M27.3097 14.2939C27.3994 14.4433 27.5488 14.5928 27.6384 14.5928C27.6982 14.5928 27.758 14.4433 27.758 14.2939C27.758 14.1146 27.6086 13.9951 27.4292 13.9951C27.2798 13.9951 27.22 14.1146 27.3097 14.2939Z" fill="#CB8020"/>
<path d="M86.4835 30.4321C86.5732 30.5815 86.7226 30.731 86.8123 30.731C86.872 30.731 86.9318 30.5815 86.9318 30.4321C86.9318 30.2528 86.7824 30.1332 86.6031 30.1332C86.4536 30.1332 86.3939 30.2528 86.4835 30.4321Z" fill="#CB8020"/>
<path d="M87.2305 31.9565C87.2305 32.1059 87.3799 32.1657 87.5293 32.076C87.7086 31.9864 87.8282 31.837 87.8282 31.7473C87.8282 31.6875 87.7086 31.6278 87.5293 31.6278C87.3799 31.6278 87.2305 31.7772 87.2305 31.9565Z" fill="#CB8020"/>
<path d="M85.9747 33.9288C86.1541 33.9886 86.5127 33.9886 86.7219 33.9288C86.9012 33.8391 86.7518 33.7794 86.3334 33.7794C85.915 33.7794 85.7655 33.8391 85.9747 33.9288Z" fill="#CB8020"/>
<path d="M84.002 65.6969C84.002 66.1153 84.0617 66.2647 84.1514 66.0555C84.2112 65.8762 84.2112 65.5176 84.1514 65.3084C84.0617 65.1291 84.002 65.2785 84.002 65.6969Z" fill="#CB8020"/>
<path d="M123.66 12.0524C120.881 12.5903 116.966 13.7858 114.575 14.8915C113.589 15.3398 110.182 17.2525 107.044 19.1951C103.876 21.1077 100.409 23.1101 99.3334 23.6181C98.2874 24.1561 97.3311 24.7836 97.2115 25.0227C96.9127 25.7699 96.7035 30.8504 96.9127 32.0458C97.092 32.9723 97.2414 33.1217 97.9885 33.1217C99.5127 33.1217 100.469 32.524 102.95 30.1033C105.31 27.832 105.43 27.7423 106.805 27.7423C108 27.7423 108.329 27.8917 109.106 28.6987C109.644 29.2665 109.943 29.8642 109.853 30.1929C109.763 30.5217 109.823 30.6711 110.032 30.5217C110.212 30.4021 110.271 30.5217 110.152 30.8205C110.032 31.1194 110.092 31.2987 110.301 31.2389C110.481 31.209 110.69 31.3585 110.78 31.5975C110.869 31.8665 110.78 31.9263 110.511 31.7769C110.271 31.6274 110.361 31.8067 110.66 32.1654C111.198 32.793 111.616 33.062 111.347 32.5838C111.258 32.4642 113.649 32.3746 116.607 32.3746C122.016 32.3746 122.046 32.3746 123.451 33.2114C124.945 34.078 126.111 35.393 126.679 36.8574C126.888 37.3655 127.157 39.308 127.276 41.2207C127.575 45.6736 128.083 46.9587 131.938 52.6967C136.033 58.8233 137.527 62.5889 138.364 68.9246C138.842 72.4212 138.513 79.7133 137.766 83.0306C136.511 88.4697 135.166 91.5778 130.205 100.424C124.138 111.302 122.196 117.339 122.196 125.378C122.226 133.119 124.437 137.034 132.297 143.31C137.318 147.284 140.396 150.273 142.129 152.843C143.235 154.457 144.909 157.505 144.909 157.894C144.909 157.984 144.281 158.043 143.474 158.043C142.697 158.043 141.591 158.193 141.024 158.342C140.456 158.521 139.051 158.79 137.886 158.94C136.69 159.119 135.286 159.567 134.568 159.986C132.984 160.912 131.879 160.942 130.534 160.016C128.95 158.94 126.559 158.342 124.019 158.402L121.747 158.432L124.437 158.671C127.665 158.94 128.681 159.209 130.534 160.434C131.311 160.912 132.148 161.331 132.387 161.331C132.626 161.331 133.552 160.942 134.449 160.434C135.345 159.956 136.361 159.567 136.69 159.567C137.019 159.538 138.782 159.269 140.575 158.91C144.102 158.223 145.327 158.372 145.716 159.448C146.403 161.331 149.242 167.397 150.348 169.31C151.035 170.565 152.619 172.627 153.815 173.913C155.757 175.975 156.385 176.453 159.583 178.037C163.976 180.248 165.56 180.577 169.863 180.368C177.992 179.92 182.266 177.917 186.151 172.657C188.153 169.968 189.677 166.919 190.484 164.02C191.171 161.51 191.171 156.519 190.484 150.124C190.036 146.059 190.006 144.176 190.215 137.422C190.335 133.059 190.424 128.218 190.394 126.663C190.305 121.045 188.542 116.622 183.401 108.971C179.636 103.353 177.215 98.7504 175.84 94.5664C173.778 88.2307 173.868 83.8076 176.318 76.3063C178.41 69.7913 178.978 66.8924 179.187 61.7222C179.516 53.5634 178.022 46.7196 174.346 39.4276C167.383 25.5308 155.458 16.0571 140.456 12.4708C137.049 11.634 127.097 11.3949 123.66 12.0524ZM131.401 15.1007C130.922 15.1605 130.205 15.1605 129.757 15.1007C129.279 15.041 129.667 14.9812 130.564 14.9812C131.46 14.9812 131.849 15.041 131.401 15.1007ZM127.515 15.3996C127.217 15.4594 126.738 15.4594 126.469 15.3996C126.171 15.3099 126.41 15.2502 126.977 15.2502C127.545 15.2502 127.784 15.3099 127.515 15.3996ZM135.286 15.3996C134.987 15.4594 134.509 15.4594 134.24 15.3996C133.941 15.3099 134.18 15.2502 134.748 15.2502C135.316 15.2502 135.555 15.3099 135.286 15.3996ZM125.573 15.6984C125.364 15.7582 124.945 15.7582 124.676 15.6984C124.377 15.6088 124.557 15.549 125.035 15.549C125.543 15.549 125.752 15.6088 125.573 15.6984ZM137.228 15.6984C137.019 15.7582 136.601 15.7582 136.332 15.6984C136.033 15.6088 136.212 15.549 136.69 15.549C137.198 15.549 137.407 15.6088 137.228 15.6984ZM123.899 15.9674C123.81 16.0571 123.541 16.087 123.331 15.9973C123.092 15.9076 123.182 15.818 123.511 15.818C123.839 15.7881 124.019 15.8778 123.899 15.9674ZM138.543 15.9674C138.453 16.0571 138.185 16.087 137.975 15.9973C137.736 15.9076 137.826 15.818 138.155 15.818C138.483 15.7881 138.663 15.8778 138.543 15.9674ZM122.704 16.2663C122.614 16.3559 122.345 16.3858 122.136 16.2962C121.897 16.2065 121.987 16.1168 122.315 16.1168C122.644 16.087 122.823 16.1766 122.704 16.2663ZM139.739 16.2663C139.649 16.3559 139.38 16.3858 139.171 16.2962C138.932 16.2065 139.021 16.1168 139.35 16.1168C139.679 16.087 139.858 16.1766 139.739 16.2663ZM142.906 17.1628C144.819 17.7904 145.178 17.9996 144.879 18.3583C144.431 18.9261 144.072 18.8962 143.952 18.2686C143.893 17.9697 143.146 17.5215 141.92 17.1031C140.844 16.7444 140.097 16.4157 140.276 16.4157C140.426 16.3858 141.621 16.7444 142.906 17.1628ZM119.656 17.2824C118.998 17.5812 118.341 17.8203 118.161 17.8203C118.012 17.8203 118.4 17.5812 119.058 17.2525C119.715 16.9536 120.403 16.7146 120.552 16.7146C120.731 16.7146 120.313 16.9835 119.656 17.2824ZM116.697 18.5675C116.398 18.7767 115.322 19.4341 114.306 20.0916C111.885 21.6158 109.644 23.5285 109.734 23.9469C109.823 24.425 108.986 24.3951 108.837 23.917C108.747 23.7377 108.837 23.5583 109.016 23.5583C109.225 23.5583 110.212 22.8411 111.258 21.9744C112.991 20.5698 116.727 18.1491 117.115 18.2088C117.205 18.2088 117.026 18.3881 116.697 18.5675ZM146.971 18.956C147.389 19.3146 146.403 18.9859 145.925 18.5973C145.387 18.1789 145.387 18.1789 146.104 18.5077C146.523 18.687 146.911 18.8962 146.971 18.956ZM139.41 20.5997C140.814 19.7629 140.964 19.9422 139.828 21.0181L138.932 21.8848L139.739 22.2733L140.575 22.6319L139.768 22.4825C138.782 22.2733 138.752 22.4825 139.529 23.7974C140.396 25.2319 140.247 25.3515 139.201 24.0664C138.693 23.4687 138.185 22.9606 138.035 22.9606C137.886 22.9606 137.348 23.3193 136.81 23.7675L135.794 24.6043L136.481 23.4388C137.198 22.2434 137.139 21.9445 136.093 21.6457C135.734 21.556 135.824 21.5261 136.332 21.5859C137.318 21.7054 137.318 21.6457 136.511 20.1215L135.883 18.9261L137.079 20.0916L138.304 21.2572L139.41 20.5997ZM127.067 21.0778C126.858 21.1376 126.44 21.1376 126.171 21.0778C125.872 20.9882 126.051 20.9284 126.529 20.9284C127.037 20.9284 127.246 20.9882 127.067 21.0778ZM133.194 21.0778C132.895 21.1376 132.417 21.1376 132.148 21.0778C131.849 20.9882 132.088 20.9284 132.656 20.9284C133.224 20.9284 133.463 20.9882 133.194 21.0778ZM124.975 21.3767C124.766 21.4365 124.407 21.4365 124.228 21.3767C124.019 21.287 124.168 21.2273 124.587 21.2273C125.005 21.2273 125.154 21.287 124.975 21.3767ZM135.136 21.3767C134.927 21.4365 134.568 21.4365 134.389 21.3767C134.18 21.287 134.329 21.2273 134.748 21.2273C135.166 21.2273 135.316 21.287 135.136 21.3767ZM150.886 21.7652C150.886 21.9146 150.826 22.0641 150.766 22.0641C150.677 22.0641 150.527 21.9146 150.438 21.7652C150.348 21.5859 150.408 21.4664 150.557 21.4664C150.736 21.4664 150.886 21.5859 150.886 21.7652ZM108.09 22.4526C107.223 23.1698 105.161 24.425 105.52 24.0066C105.819 23.6779 108.568 21.7951 108.747 21.7951C108.837 21.7951 108.538 22.0939 108.09 22.4526ZM143.414 23.5583C143.654 23.7078 143.743 23.8572 143.564 23.8572C143.414 23.8572 143.056 23.7078 142.817 23.5583C142.578 23.4089 142.518 23.2595 142.667 23.2595C142.847 23.2595 143.175 23.4089 143.414 23.5583ZM156.803 25.3515C157.162 25.3515 157.192 25.4411 156.923 25.7101C156.714 25.9193 156.564 26.3676 156.564 26.7262C156.564 27.3837 156.564 27.3837 155.757 26.6067C155.189 26.0388 155.04 25.74 155.279 25.5906C155.458 25.4411 155.548 25.0526 155.488 24.694L155.339 24.0066L155.847 24.6641C156.116 25.0526 156.564 25.3515 156.803 25.3515ZM104.563 24.6043C104.563 24.7836 102.89 25.6503 102.561 25.6503C102.441 25.6204 102.8 25.3814 103.368 25.0526C104.533 24.3951 104.563 24.3951 104.563 24.6043ZM127.067 24.6641C126.858 24.7239 126.44 24.7239 126.171 24.6641C125.872 24.5744 126.051 24.5147 126.529 24.5147C127.037 24.5147 127.246 24.5744 127.067 24.6641ZM129.458 24.6641C129.069 24.7239 128.472 24.7239 128.113 24.6641C127.725 24.6043 128.023 24.5446 128.771 24.5446C129.518 24.5446 129.817 24.6043 129.458 24.6641ZM124.796 24.9331C124.706 25.0227 124.437 25.0526 124.228 24.963C123.989 24.8733 124.079 24.7836 124.407 24.7836C124.736 24.7538 124.915 24.8434 124.796 24.9331ZM132.686 25.6204C133.582 26.0986 135.316 27.0251 136.541 27.7124C137.766 28.3699 138.663 28.9377 138.543 28.9377C138.214 28.9377 135.465 27.5331 134.001 26.6067C133.343 26.1883 132.207 25.5906 131.46 25.3216C130.713 25.0227 130.325 24.7836 130.594 24.7538C130.892 24.7538 131.819 25.1423 132.686 25.6204ZM122.495 25.6503C122.256 25.7998 121.927 25.9492 121.747 25.9492C121.598 25.9492 121.658 25.7998 121.897 25.6503C122.136 25.5009 122.495 25.3515 122.644 25.3515C122.823 25.3515 122.734 25.5009 122.495 25.6503ZM114.814 26.7262C114.695 27.0549 114.545 27.0848 114.246 26.8159C113.738 26.3975 113.977 25.9193 114.575 26.1285C114.784 26.2182 114.904 26.4871 114.814 26.7262ZM119.357 27.0848C118.341 27.9515 116.816 28.9377 116.816 28.7285C116.816 28.609 117.384 28.1308 118.101 27.6825C119.327 26.8756 119.924 26.6067 119.357 27.0848ZM146.702 27.4435C146.941 27.5929 147.031 27.7423 146.851 27.7423C146.702 27.7423 146.343 27.5929 146.104 27.4435C145.865 27.294 145.805 27.1446 145.955 27.1446C146.134 27.1446 146.463 27.294 146.702 27.4435ZM149.84 28.9377C149.93 29.1171 149.81 29.1469 149.571 29.0573C149.033 28.8481 148.943 28.6389 149.362 28.6389C149.541 28.6389 149.75 28.7584 149.84 28.9377ZM141.681 29.5952C142.458 29.5653 142.966 30.3125 142.309 30.5516C142.01 30.6711 141.651 30.5815 141.472 30.3722C141.322 30.163 140.844 29.8044 140.426 29.5952L139.679 29.2366L140.426 29.4458C140.844 29.5354 141.412 29.6251 141.681 29.5952ZM154.024 31.4182C157.64 33.8689 161.107 37.7241 162.96 41.4C164.155 43.7908 163.886 43.7311 162.601 41.3103C160.36 37.0965 157.55 34.0482 153.396 31.3286C152.111 30.4918 150.976 29.7148 150.886 29.6251C150.587 29.2665 152.29 30.2527 154.024 31.4182ZM131.759 31.6274C131.55 31.747 131.49 32.0159 131.61 32.2251C131.789 32.4941 131.699 32.4941 131.221 32.255C130.444 31.8366 130.653 31.0297 131.49 31.2389C131.909 31.3585 131.998 31.478 131.759 31.6274ZM145.506 31.3286C145.746 31.478 145.835 31.6274 145.656 31.6274C145.506 31.6274 145.148 31.478 144.909 31.3286C144.67 31.1792 144.61 31.0297 144.759 31.0297C144.939 31.0297 145.267 31.1792 145.506 31.3286ZM150.109 34.2275C151.842 35.5723 153.904 37.9931 155.04 40.0253C155.966 41.6391 155.608 41.4897 154.651 39.846C153.187 37.3954 150.946 35.0045 148.585 33.4206C147.3 32.5539 146.194 31.8067 146.104 31.6872C145.656 31.1792 148.704 33.1217 150.109 34.2275ZM167.502 39.4276C168.07 40.5931 168.518 41.6092 168.459 41.669C168.399 41.7287 167.831 40.7724 167.233 39.5471C166.635 38.3218 166.187 37.3057 166.277 37.3057C166.367 37.3057 166.904 38.262 167.502 39.4276ZM145.805 39.0988C145.805 39.4276 145.686 39.6965 145.536 39.6965C145.118 39.6965 144.849 39.1586 145.058 38.8C145.357 38.2919 145.805 38.4712 145.805 39.0988ZM130.952 39.2482C130.982 39.3977 130.773 39.577 130.504 39.6368C130.175 39.6965 129.966 39.5471 129.966 39.2482C129.966 38.7402 130.863 38.7103 130.952 39.2482ZM139.171 41.6989C139.051 42.3564 138.513 42.2966 138.394 41.669C138.334 41.3701 138.483 41.1908 138.782 41.1908C139.081 41.1908 139.231 41.4 139.171 41.6989ZM150.288 41.6391C150.288 41.8782 150.169 42.0874 149.989 42.0874C149.84 42.0874 149.69 41.8782 149.69 41.6391C149.69 41.4 149.84 41.1908 149.989 41.1908C150.169 41.1908 150.288 41.4 150.288 41.6391ZM169.564 44.6575C169.684 45.4047 169.654 45.3748 169.325 44.4782C169.086 43.9104 168.817 43.1035 168.727 42.6851C168.578 42.1173 168.638 42.177 168.967 42.8644C169.176 43.3725 169.445 44.1794 169.564 44.6575ZM156.863 43.7311C156.863 43.8805 156.714 43.8207 156.564 43.5816C156.415 43.3426 156.265 42.9839 156.265 42.8345C156.265 42.6552 156.415 42.7449 156.564 42.9839C156.714 43.223 156.863 43.5518 156.863 43.7311ZM172.105 43.7311C172.105 43.8805 171.955 43.8207 171.806 43.5816C171.656 43.3426 171.507 42.9839 171.507 42.8345C171.507 42.6552 171.656 42.7449 171.806 42.9839C171.955 43.223 172.105 43.5518 172.105 43.7311ZM164.783 46.1518C164.902 46.899 164.872 46.8691 164.544 45.9725C164.304 45.4047 164.035 44.5978 163.946 44.1794C163.796 43.6115 163.856 43.6713 164.185 44.3587C164.394 44.8667 164.663 45.6736 164.783 46.1518ZM151.065 49.1703C151.573 49.6783 151.573 49.6783 151.424 49.0208C151.334 48.6622 151.364 48.4231 151.513 48.5426C151.663 48.6323 151.782 48.9909 151.812 49.3496C151.842 49.9473 151.872 49.9473 152.081 49.2599C152.32 48.5426 152.32 48.5426 152.35 49.1703C152.38 50.007 153.008 50.0668 153.725 49.2599C154.024 48.9312 154.382 48.7519 154.502 48.8415C154.651 48.9312 154.771 48.8714 154.771 48.7519C154.771 48.6024 154.98 48.2139 155.219 47.8852C155.518 47.5266 155.458 47.7656 155.1 48.5426C154.771 49.23 154.592 49.8875 154.711 50.007C154.831 50.0967 154.741 50.1565 154.502 50.0967C154.293 50.0369 154.024 50.1864 153.964 50.3657C153.874 50.5749 153.964 50.7542 154.143 50.7542C154.323 50.7542 154.472 50.9036 154.472 51.0829C154.472 51.2324 154.382 51.322 154.233 51.2324C154.113 51.1726 153.546 51.2025 152.978 51.3519C152.231 51.5312 152.858 51.591 155.159 51.5611H158.357L158.387 50.6346C158.417 49.9174 158.477 50.007 158.686 51.1427C158.865 51.9496 158.925 53.8324 158.865 55.3267L158.776 58.0761L158.716 54.9979L158.656 51.9496L157.102 51.9795C156.235 52.0094 155.13 52.099 154.651 52.2186L153.755 52.3979L154.95 53.683C156.355 55.1175 156.146 55.2669 154.263 54.1611L152.948 53.414L153.426 54.5198C154.054 56.014 153.994 56.5221 153.336 55.2669C152.559 53.683 152.081 53.7427 152.021 55.4462C151.992 56.6118 151.962 56.6715 151.872 55.8347C151.723 54.4899 151.513 53.8922 151.274 54.1313C151.005 54.4301 150.557 56.821 150.318 59.421L150.079 61.6624L150.049 59.6601C150.019 58.5543 149.84 56.7014 149.631 55.5359C149.242 53.2646 148.794 52.9059 147.748 54.0416C147.449 54.3703 147.09 54.5497 146.941 54.46C146.792 54.3405 147.001 53.8922 147.449 53.4439L148.256 52.6071L146.702 52.2784C144.281 51.7404 143.982 51.8002 144.162 52.7565C144.281 53.4439 144.221 53.3841 143.893 52.5473C143.355 51.2324 143.325 50.9036 143.803 51.2622C144.311 51.6806 146.463 51.9795 146.254 51.6209C146.134 51.4714 146.313 51.3519 146.612 51.3519C146.941 51.3519 147.449 51.1427 147.778 50.9036C148.346 50.4852 148.346 50.4852 147.748 50.4553C147.27 50.4553 147.24 50.3956 147.598 50.1565C147.957 49.9174 147.897 49.7381 147.15 48.9013L146.254 47.9151L147.329 48.9013C148.555 50.007 148.704 49.9473 149.063 48.0047C149.242 47.0783 149.332 46.9587 149.362 47.5266C149.392 47.9748 149.541 48.4231 149.69 48.5128C149.87 48.6323 150.019 47.8254 150.019 46.361L150.079 44.0299L150.288 46.3311C150.438 47.9151 150.677 48.7817 151.065 49.1703ZM173.121 46.5702C173.27 47.0783 173.24 47.1679 173.061 46.8691C172.911 46.63 172.672 46.092 172.583 45.6736C172.433 45.1656 172.463 45.0759 172.642 45.3748C172.792 45.6139 173.031 46.1518 173.121 46.5702ZM170.252 47.3174C170.252 47.7955 170.192 47.7656 170.013 47.1679C169.684 46.1518 169.684 45.3748 170.013 46.1219C170.162 46.4507 170.252 46.9886 170.252 47.3174ZM157.67 46.63C157.58 46.8691 157.491 46.7794 157.491 46.4507C157.461 46.1219 157.55 45.9426 157.64 46.0621C157.73 46.1518 157.76 46.4208 157.67 46.63ZM165.47 49.2599V50.3059L165.231 49.4093C165.111 48.9013 164.992 48.184 164.992 47.7656C164.962 47.0783 164.992 47.0783 165.231 47.6162C165.38 47.9449 165.47 48.6921 165.47 49.2599ZM136.391 48.8415C136.272 49.5887 136.481 50.5749 137.168 52.4577C141.621 64.8303 142.219 67.4004 142.219 73.9454C142.219 78.1592 141.741 81.5064 140.545 86.0191C139.44 90.0836 138.334 92.833 135.047 99.7665C130.175 110.017 128.98 113.962 129.01 119.79C129.01 123.376 129.548 126.036 130.833 128.875C132.327 132.162 134.837 135.39 135.973 135.45C136.421 135.48 136.81 135.749 137.049 136.287C137.557 137.303 139.559 138.558 144.042 140.65C149.541 143.19 151.155 144.176 153.187 146.268C155.548 148.749 157.52 152.604 158.357 156.549C160.21 165.096 160.658 166.322 162.541 168.204C164.215 169.878 165.619 170.446 168.219 170.446C171.118 170.446 173.449 169.43 175.631 167.218C178.59 164.2 179.367 161.211 178.56 155.682C178.261 153.829 178.112 152.245 178.171 152.156C178.44 151.887 179.128 157.147 179.128 159.538C179.128 161.749 179.008 162.317 178.171 164.08C176.976 166.62 175.003 168.593 172.523 169.758C168.518 171.641 164.812 171.073 162.123 168.204C160.27 166.232 159.672 164.768 158.507 159.239C157.012 152.186 155.578 149.227 151.962 145.88C150.527 144.505 149.182 143.638 147.061 142.622C145.477 141.875 143.205 140.799 142.01 140.232C140.844 139.664 139.171 138.737 138.334 138.169C137.467 137.602 136.66 137.183 136.541 137.273C136.152 137.512 135.345 137.094 135.345 136.615C135.345 136.376 134.628 135.3 133.732 134.195C129.548 129.024 127.964 123.406 128.741 116.801C129.368 111.511 130.444 108.493 135.196 98.5711C138.185 92.4146 140.008 87.364 141.083 82.5524C141.621 80.1317 141.741 78.6075 141.741 74.0649C141.771 66.5039 141.681 66.1154 136.87 52.5473C136.212 50.6645 135.525 49.0806 135.345 49.0208C135.017 48.9013 134.927 47.9748 135.226 47.7059C135.316 47.6162 135.644 47.6162 135.973 47.676C136.481 47.8254 136.571 48.0047 136.391 48.8415ZM171.088 54.3405C171.178 56.7313 171.148 59.421 170.999 60.3176C170.79 61.5728 170.73 60.7061 170.76 56.7313C170.76 53.8623 170.67 50.6944 170.55 49.7082C170.371 48.2737 170.401 48.1243 170.64 48.9611C170.79 49.5289 170.999 51.9496 171.088 54.3405ZM158.268 49.3197C158.178 49.5289 158.118 49.3795 158.118 48.9611C158.118 48.5426 158.178 48.3932 158.268 48.5725C158.327 48.7817 158.327 49.1404 158.268 49.3197ZM174.107 50.2162C174.017 50.4553 173.928 50.3657 173.928 50.0369C173.898 49.7082 173.987 49.5289 174.077 49.6484C174.167 49.7381 174.197 50.007 174.107 50.2162ZM165.56 58.1359L165.261 59.5704L165.38 58.106C165.47 57.2991 165.56 55.2071 165.59 53.4738L165.649 50.3059L165.739 53.5037C165.799 55.2669 165.709 57.329 165.56 58.1359ZM174.764 52.1887C174.734 52.8462 174.675 53.0554 174.585 52.6967C174.495 52.368 174.286 51.9496 174.137 51.7404C173.987 51.5312 173.928 51.2324 174.047 51.053C174.406 50.4852 174.794 51.0829 174.764 52.1887ZM175.003 54.5497C174.914 54.8485 174.854 54.6692 174.854 54.191C174.854 53.683 174.914 53.4738 175.003 53.6531C175.063 53.8623 175.063 54.2807 175.003 54.5497ZM144.52 54.4002C144.431 54.6393 144.341 54.5497 144.341 54.2209C144.311 53.8922 144.401 53.7129 144.49 53.8324C144.58 53.9221 144.61 54.191 144.52 54.4002ZM148.704 56.4922C148.644 57.0302 148.585 56.6118 148.585 55.5359C148.585 54.46 148.644 54.0416 148.704 54.5497C148.764 55.0876 148.764 55.9842 148.704 56.4922ZM175.302 58.1359C175.243 58.7635 175.183 58.3152 175.183 57.1796C175.183 56.014 175.243 55.5359 175.302 56.0439C175.362 56.5819 175.362 57.5382 175.302 58.1359ZM145.417 57.3888C145.327 57.6279 145.237 57.5382 145.237 57.2095C145.208 56.8807 145.297 56.7014 145.387 56.821C145.477 56.9106 145.506 57.1796 145.417 57.3888ZM145.716 58.5842C145.626 58.8233 145.536 58.7336 145.536 58.4049C145.506 58.0761 145.596 57.8968 145.686 58.0164C145.775 58.106 145.805 58.375 145.716 58.5842ZM158.566 59.7796C158.357 61.3337 157.192 65.2487 156.982 65.0096C156.923 64.9498 157.132 64.113 157.461 63.1567C157.789 62.1705 158.148 60.6762 158.268 59.8095C158.357 58.9428 158.507 58.2256 158.596 58.2256C158.686 58.2256 158.656 58.9129 158.566 59.7796ZM146.015 59.7796C145.925 60.0187 145.835 59.929 145.835 59.6003C145.805 59.2716 145.895 59.0923 145.985 59.2118C146.074 59.3015 146.104 59.5704 146.015 59.7796ZM175.601 60.5268C175.511 60.8256 175.452 60.6463 175.452 60.1681C175.452 59.6601 175.511 59.4509 175.601 59.6302C175.661 59.8394 175.661 60.2578 175.601 60.5268ZM164.185 63.8739C162.989 67.5798 161.166 71.7637 157.999 78.0995C156.833 80.4006 155.488 83.2995 155.04 84.5248C154.592 85.7502 154.203 86.587 154.173 86.4076C154.173 85.6605 155.668 82.1639 158.596 76.1569C161.943 69.2832 163.378 65.7866 164.394 62.1705C164.783 60.8256 165.111 59.8992 165.171 60.1382C165.231 60.3474 164.783 62.0509 164.185 63.8739ZM146.672 62.5291C146.732 63.8739 146.493 63.336 146.313 61.6624C146.194 60.6463 146.224 60.4072 146.403 60.9153C146.523 61.3337 146.642 62.0509 146.672 62.5291ZM174.944 66.1154C174.675 67.4303 173.928 70.7476 173.27 73.4373C170.222 86.0191 170.55 91.8169 174.764 100.753C176.109 103.592 177.155 105.385 181.817 112.916C185.463 118.774 186.778 123.077 186.689 128.666L186.659 131.893L186.45 127.859C186.33 125.647 186.061 123.137 185.852 122.33C185.105 119.431 183.252 115.695 179.905 110.376C171.955 97.6745 169.893 90.741 171.357 81.2374C171.567 79.6535 172.463 75.4994 173.3 71.9729C174.137 68.4464 174.914 64.5912 175.033 63.4555C175.183 61.8417 175.272 61.6325 175.332 62.5291C175.392 63.1567 175.213 64.7705 174.944 66.1154ZM169.714 66.6832C167.562 74.9316 166.785 78.8765 166.426 84.0168L166.157 87.364L166.277 83.7777C166.426 79.773 167.144 75.2902 168.518 70.1499C169.026 68.2671 169.654 65.6671 169.953 64.382C170.222 63.067 170.491 62.2302 170.55 62.5291C170.61 62.7981 170.222 64.6808 169.714 66.6832ZM152.38 62.8578C152.38 63.0969 152.201 63.3061 151.962 63.3061C151.454 63.3061 151.125 62.8877 151.394 62.5889C151.753 62.2302 152.38 62.4095 152.38 62.8578ZM146.911 65.159C146.851 65.5475 146.792 65.3084 146.792 64.651C146.762 63.9935 146.821 63.6946 146.911 63.9636C146.971 64.2625 146.971 64.8004 146.911 65.159ZM151.992 66.9521C151.932 67.6694 151.872 67.1613 151.872 65.8464C151.872 64.5314 151.932 63.9636 151.992 64.5613C152.051 65.1889 152.051 66.2648 151.992 66.9521ZM156.594 66.205C156.235 66.8027 156.176 66.6234 156.445 65.8464C156.564 65.5774 156.714 65.428 156.773 65.5176C156.863 65.5774 156.773 65.9062 156.594 66.205ZM147.21 69.9407C147.15 70.658 147.09 70.0901 147.09 68.6855C147.09 67.2809 147.15 66.7131 147.21 67.4004C147.27 68.1177 147.27 69.2533 147.21 69.9407ZM155.548 68.5959C155.309 69.0441 155.1 69.343 155.07 69.2234C155.07 68.8648 155.757 67.4901 155.877 67.6096C155.966 67.6694 155.817 68.1177 155.548 68.5959ZM151.693 70.6878C151.603 70.9867 151.543 70.7476 151.543 70.1798C151.543 69.612 151.603 69.3729 151.693 69.6419C151.753 69.9407 151.753 70.4189 151.693 70.6878ZM154.801 70.389C154.442 70.9867 154.382 70.8074 154.651 70.0304C154.771 69.7614 154.92 69.612 154.98 69.7016C155.07 69.7614 154.98 70.0901 154.801 70.389ZM153.755 73.3477C153.336 74.4833 153.008 75.2603 153.008 75.081C152.978 74.6327 154.203 71.0166 154.353 71.166C154.412 71.2258 154.143 72.212 153.755 73.3477ZM151.394 72.3316C151.304 72.5407 151.244 72.3913 151.244 71.9729C151.244 71.5545 151.304 71.4051 151.394 71.5844C151.454 71.7936 151.454 72.1522 151.394 72.3316ZM146.911 73.8258C146.851 74.2143 146.792 73.9155 146.792 73.1683C146.792 72.4212 146.851 72.1224 146.911 72.481C146.971 72.8695 146.971 73.4672 146.911 73.8258ZM151.095 73.8258C151.005 74.035 150.946 73.8856 150.946 73.4672C150.946 73.0488 151.005 72.8994 151.095 73.0787C151.155 73.2879 151.155 73.6465 151.095 73.8258ZM150.408 76.4259C150.139 77.442 149.84 78.219 149.78 78.1592C149.72 78.0696 149.9 77.2029 150.169 76.1868C150.467 75.2006 150.736 74.4235 150.796 74.4833C150.886 74.5431 150.707 75.4396 150.408 76.4259ZM146.612 75.7684C146.523 76.0672 146.463 75.8879 146.463 75.4098C146.463 74.9017 146.523 74.6925 146.612 74.8718C146.672 75.081 146.672 75.4994 146.612 75.7684ZM152.888 76.2167C152.799 76.4558 152.709 76.3661 152.709 76.0374C152.679 75.7086 152.769 75.5293 152.858 75.6488C152.948 75.7385 152.978 76.0075 152.888 76.2167ZM146.313 77.4121C146.224 77.6213 146.164 77.4719 146.164 77.0535C146.164 76.6351 146.224 76.4856 146.313 76.665C146.373 76.8742 146.373 77.2328 146.313 77.4121ZM152.32 78.488C152.141 79.3547 151.932 79.9822 151.842 79.8926C151.782 79.8328 151.872 79.0857 152.081 78.2489C152.29 77.4121 152.5 76.7845 152.559 76.8443C152.649 76.904 152.53 77.6512 152.32 78.488ZM162.481 78.4282C162.153 79.2351 161.465 80.9685 161.017 82.2834C160.569 83.5984 160.18 84.5248 160.18 84.3157C160.12 83.5087 162.78 76.6052 163.019 76.8443C163.079 76.904 162.84 77.6213 162.481 78.4282ZM146.015 78.6075C145.925 78.8466 145.835 78.7569 145.835 78.4282C145.805 78.0995 145.895 77.9201 145.985 78.0397C146.074 78.1293 146.104 78.3983 146.015 78.6075ZM148.943 81.2374C148.495 82.5823 148.077 83.6283 148.017 83.5685C147.957 83.5087 148.286 82.3432 148.704 80.9984C149.152 79.6535 149.571 78.6075 149.631 78.6972C149.69 78.7569 149.392 79.8926 148.943 81.2374ZM145.716 79.8029C145.626 80.042 145.536 79.9524 145.536 79.6236C145.506 79.2949 145.596 79.1156 145.686 79.2351C145.775 79.3248 145.805 79.5937 145.716 79.8029ZM151.693 81.2972C151.603 81.5064 151.543 81.357 151.543 80.9386C151.543 80.5202 151.603 80.3708 151.693 80.5501C151.753 80.7593 151.753 81.1179 151.693 81.2972ZM151.394 82.7915C151.304 83.0007 151.244 82.8513 151.244 82.4329C151.244 82.0145 151.304 81.865 151.394 82.0443C151.454 82.2535 151.454 82.6122 151.394 82.7915ZM151.095 84.4352C151.005 84.734 150.946 84.5547 150.946 84.0766C150.946 83.5685 151.005 83.3593 151.095 83.5386C151.155 83.7478 151.155 84.1662 151.095 84.4352ZM143.982 85.0927C143.803 85.6306 143.594 85.9892 143.534 85.9295C143.474 85.8697 143.564 85.3915 143.743 84.8536C143.923 84.3157 144.132 83.957 144.191 84.0168C144.251 84.0766 144.162 84.5547 143.982 85.0927ZM147.031 86.6467C146.702 87.5433 146.433 88.1111 146.433 87.9318C146.403 87.4835 147.329 84.7639 147.479 84.9134C147.539 84.9731 147.329 85.7502 147.031 86.6467ZM160.061 85.78C159.971 85.9892 159.911 85.8398 159.911 85.4214C159.911 85.003 159.971 84.8536 160.061 85.0329C160.12 85.2421 160.12 85.6007 160.061 85.78ZM150.796 86.826C150.707 87.1249 150.647 86.8858 150.647 86.318C150.647 85.7502 150.707 85.5111 150.796 85.78C150.856 86.0789 150.856 86.5571 150.796 86.826ZM143.146 87.1249C142.787 87.7226 142.727 87.5433 142.996 86.7663C143.116 86.4973 143.265 86.3479 143.325 86.4375C143.414 86.4973 143.325 86.826 143.146 87.1249ZM159.762 88.1709C159.702 88.5594 159.642 88.2605 159.642 87.5134C159.642 86.7663 159.702 86.4674 159.762 86.826C159.822 87.2145 159.822 87.8123 159.762 88.1709ZM154.113 89.8146C154.143 93.0721 154.711 96.7182 155.817 100.932C156.235 102.486 156.534 103.801 156.445 103.861C156.086 104.219 154.323 96.0906 153.904 92.2353C153.665 89.9341 153.725 86.9157 154.024 86.9157C154.054 86.9157 154.084 88.2307 154.113 89.8146ZM150.497 89.8146C150.438 90.2928 150.378 89.9043 150.378 89.0077C150.378 88.1111 150.438 87.7226 150.497 88.1709C150.557 88.6491 150.557 89.3663 150.497 89.8146ZM167.144 94.2675C167.502 94.6262 167.562 94.8652 167.353 95.0744C167.173 95.2538 167.024 95.6722 166.994 96.0308C166.994 96.5687 166.934 96.5388 166.665 95.8814C166.486 95.463 166.307 93.5204 166.277 91.548L166.187 87.9617L166.426 90.8606C166.606 92.9526 166.785 93.9089 167.144 94.2675ZM142.249 89.2169C141.89 89.8146 141.831 89.6353 142.1 88.8583C142.219 88.5893 142.368 88.4399 142.428 88.5295C142.518 88.5893 142.428 88.918 142.249 89.2169ZM159.463 89.964C159.373 90.1732 159.314 90.0238 159.314 89.6054C159.314 89.187 159.373 89.0376 159.463 89.2169C159.523 89.4261 159.523 89.7847 159.463 89.964ZM145.477 91.6675C145.267 92.3549 145.058 92.833 144.998 92.7733C144.909 92.7135 145.028 92.0859 145.237 91.4284C145.447 90.741 145.656 90.2629 145.716 90.3226C145.805 90.3824 145.686 91.01 145.477 91.6675ZM141.203 91.6077C140.964 92.056 140.755 92.3549 140.725 92.2353C140.725 91.8767 141.412 90.502 141.532 90.6215C141.621 90.6813 141.472 91.1296 141.203 91.6077ZM159.941 93.0422C160.031 94.2974 160.001 94.7756 159.851 94.2377C159.612 93.3411 159.463 90.5916 159.672 90.8307C159.732 90.8905 159.851 91.8767 159.941 93.0422ZM150.497 97.5251C150.497 98.84 150.467 98.7504 150.288 96.9274C150.169 95.7618 150.079 93.9687 150.079 92.8928C150.079 91.01 150.079 91.01 150.318 93.4905C150.438 94.8951 150.527 96.6883 150.497 97.5251ZM140.306 93.6997C140.067 94.148 139.858 94.4469 139.828 94.3273C139.828 93.9687 140.516 92.5939 140.635 92.7135C140.725 92.7733 140.575 93.2215 140.306 93.6997ZM144.52 94.7457C144.431 94.9848 144.341 94.8951 144.341 94.5664C144.311 94.2377 144.401 94.0583 144.49 94.1779C144.58 94.2675 144.61 94.5365 144.52 94.7457ZM139.559 95.4928C139.201 96.0906 139.141 95.9112 139.41 95.1342C139.529 94.8652 139.679 94.7158 139.739 94.8055C139.828 94.8652 139.739 95.194 139.559 95.4928ZM156.355 95.9112C155.847 96.4193 155.249 95.9411 155.697 95.4032C155.936 95.1043 156.146 95.0446 156.385 95.2836C156.594 95.4928 156.594 95.6722 156.355 95.9112ZM144.162 96.24C144.042 96.7779 143.833 97.3457 143.713 97.4952C143.564 97.6446 143.594 97.1963 143.773 96.509C144.132 95.0744 144.46 94.8354 144.162 96.24ZM160.36 95.9411C160.27 96.1802 160.18 96.0906 160.18 95.7618C160.15 95.4331 160.24 95.2538 160.33 95.3733C160.419 95.463 160.449 95.7319 160.36 95.9411ZM146.851 97.3756C146.702 97.6147 146.523 97.6147 146.343 97.4354C146.164 97.2561 146.134 96.9572 146.254 96.7779C146.403 96.5388 146.582 96.5388 146.762 96.7182C146.941 96.8975 146.971 97.1963 146.851 97.3756ZM161.017 97.9733C161.017 98.2423 160.897 98.2124 160.748 97.8239C160.599 97.4952 160.479 97.017 160.479 96.7779C160.479 96.509 160.599 96.5388 160.748 96.9274C160.897 97.2561 161.017 97.7343 161.017 97.9733ZM138.663 97.5848C138.304 98.1825 138.244 98.0032 138.513 97.2262C138.633 96.9572 138.782 96.8078 138.842 96.8975C138.932 96.9572 138.842 97.286 138.663 97.5848ZM167.233 97.4354C167.144 97.6745 167.054 97.5848 167.054 97.2561C167.024 96.9274 167.114 96.748 167.203 96.8676C167.293 96.9572 167.323 97.2262 167.233 97.4354ZM168.967 103.293C168.847 103.442 167.323 98.6607 167.353 98.1825C167.353 97.9733 167.741 99.0193 168.219 100.514C168.698 101.978 169.026 103.233 168.967 103.293ZM138.065 99.0791C137.706 99.6768 137.647 99.4975 137.916 98.7205C138.035 98.4515 138.185 98.3021 138.244 98.3917C138.334 98.4515 138.244 98.7803 138.065 99.0791ZM143.325 99.2285C143.235 99.4676 143.146 99.378 143.146 99.0492C143.116 98.7205 143.205 98.5412 143.295 98.6607C143.385 98.7504 143.414 99.0193 143.325 99.2285ZM150.796 100.275C150.707 100.573 150.647 100.394 150.647 99.9159C150.647 99.4079 150.707 99.1987 150.796 99.378C150.856 99.5872 150.856 100.006 150.796 100.275ZM143.026 101.261C143.026 101.918 142.906 102.456 142.787 102.456C142.637 102.456 142.518 102.755 142.488 103.114C142.458 103.652 142.398 103.562 142.189 102.815C141.95 102.068 142.01 101.739 142.368 101.38C142.608 101.111 142.817 100.723 142.817 100.484C142.817 100.245 142.877 100.065 142.936 100.065C142.996 100.065 143.026 100.603 143.026 101.261ZM151.095 101.918C151.005 102.127 150.946 101.978 150.946 101.56C150.946 101.141 151.005 100.992 151.095 101.171C151.155 101.38 151.155 101.739 151.095 101.918ZM163.019 103.861C162.9 103.98 161.943 101.679 161.973 101.321C161.973 101.201 162.242 101.709 162.571 102.426C162.9 103.144 163.109 103.801 163.019 103.861ZM151.394 103.413C151.304 103.622 151.244 103.472 151.244 103.054C151.244 102.635 151.304 102.486 151.394 102.665C151.454 102.875 151.454 103.233 151.394 103.413ZM169.983 105.295C169.983 105.445 169.803 105.265 169.564 104.847C169.325 104.429 169.146 103.95 169.146 103.801C169.146 103.622 169.325 103.831 169.564 104.249C169.803 104.668 169.983 105.116 169.983 105.295ZM152.32 106.192C152.32 106.341 152.141 106.072 151.932 105.594C151.693 105.086 151.513 104.488 151.513 104.249C151.513 104.01 151.723 104.279 151.932 104.847C152.141 105.415 152.32 106.013 152.32 106.192ZM164.304 106.491C164.304 106.64 164.065 106.311 163.737 105.744C163.408 105.176 163.169 104.548 163.169 104.399C163.169 104.219 163.408 104.578 163.737 105.146C164.065 105.714 164.304 106.311 164.304 106.491ZM142.129 105.505C142.04 105.744 141.95 105.654 141.95 105.325C141.92 104.996 142.01 104.817 142.1 104.937C142.189 105.026 142.219 105.295 142.129 105.505ZM157.58 106.64C157.73 107.148 157.7 107.238 157.52 106.939C157.371 106.7 157.132 106.162 157.042 105.744C156.893 105.236 156.923 105.146 157.102 105.445C157.251 105.684 157.491 106.222 157.58 106.64ZM170.73 106.849C170.999 107.387 171.148 107.836 171.088 107.836C170.909 107.836 170.013 106.192 170.013 105.863C170.013 105.534 170.162 105.773 170.73 106.849ZM142.219 106.76C142.219 106.999 142.1 107.268 141.95 107.387C141.591 107.596 141.233 107.029 141.472 106.64C141.741 106.192 142.219 106.282 142.219 106.76ZM155.877 111.99C159.045 115.666 160.718 118.475 161.196 120.836C161.286 121.314 161.047 120.896 160.658 119.909C159.672 117.339 158.686 115.785 156.295 112.886C154.412 110.645 152.38 107.417 152.38 106.76C152.38 106.61 152.858 107.357 153.426 108.403C153.994 109.449 155.1 111.063 155.877 111.99ZM166.845 111.631C168.1 114.141 169.056 116.204 168.967 116.204C168.817 116.204 164.334 107.357 164.334 107.029C164.334 106.67 164.573 107.088 166.845 111.631ZM175.691 108.015C175.691 108.433 175.063 108.583 174.705 108.224C174.436 107.955 175.093 107.208 175.422 107.417C175.571 107.507 175.691 107.776 175.691 108.015ZM158.626 109.18C158.626 109.33 158.447 109.151 158.208 108.732C157.969 108.314 157.789 107.836 157.789 107.686C157.789 107.507 157.969 107.716 158.208 108.134C158.447 108.553 158.626 109.001 158.626 109.18ZM134.957 109.091C134.867 109.33 134.778 109.24 134.778 108.911C134.748 108.583 134.837 108.403 134.927 108.523C135.017 108.613 135.047 108.882 134.957 109.091ZM161.943 109.18C161.943 109.42 161.764 109.629 161.525 109.629C161.017 109.629 160.688 109.21 160.957 108.911C161.316 108.553 161.943 108.732 161.943 109.18ZM172.702 110.525C173.21 111.511 173.539 112.318 173.449 112.318C173.39 112.318 172.911 111.511 172.403 110.525C171.895 109.539 171.567 108.732 171.656 108.732C171.716 108.732 172.194 109.539 172.702 110.525ZM162.691 116.951C163.318 118.086 163.677 118.893 163.527 118.744C163.079 118.325 158.656 110.167 158.656 109.778C158.656 109.629 159.314 110.675 160.091 112.169C160.897 113.633 162.033 115.785 162.691 116.951ZM134.658 110.585C134.568 110.824 134.479 110.734 134.479 110.406C134.449 110.077 134.538 109.898 134.628 110.017C134.718 110.107 134.748 110.376 134.658 110.585ZM149.87 110.555C150.169 111.063 149.481 111.631 149.063 111.213C148.704 110.854 148.943 110.226 149.392 110.226C149.541 110.226 149.75 110.376 149.87 110.555ZM141.711 112.199C141.442 112.916 141.083 112.139 141.263 111.183C141.412 110.436 141.412 110.436 141.651 111.063C141.801 111.422 141.831 111.93 141.711 112.199ZM134.359 112.378C134.27 112.587 134.21 112.438 134.21 112.02C134.21 111.601 134.27 111.452 134.359 111.631C134.419 111.84 134.419 112.199 134.359 112.378ZM174.346 113.544C174.615 114.052 174.794 114.53 174.734 114.59C174.645 114.649 174.376 114.231 174.107 113.663C173.479 112.378 173.718 112.259 174.346 113.544ZM134.03 116.741C133.702 117.04 133.672 116.652 133.821 115.008L134.001 113.364L134.09 114.978C134.15 115.845 134.12 116.652 134.03 116.741ZM142.428 115.247C142.428 115.516 142.488 116.144 142.608 116.652C142.787 117.489 142.787 117.518 142.488 116.801C142.309 116.383 142.04 115.815 141.89 115.546C141.741 115.247 141.621 114.799 141.621 114.53C141.621 114.141 141.711 114.112 142.04 114.381C142.279 114.59 142.458 114.978 142.428 115.247ZM149.093 115.875C149.093 116.054 148.973 116.263 148.794 116.353C148.644 116.443 148.495 116.323 148.495 116.084C148.495 115.815 148.644 115.606 148.794 115.606C148.973 115.606 149.093 115.725 149.093 115.875ZM176.438 116.472C176.528 116.622 176.468 116.831 176.318 116.951C176.109 117.07 176.109 117.399 176.318 117.907C176.468 118.325 176.528 118.744 176.468 118.833C176.378 118.893 176.229 118.624 176.109 118.176C176.02 117.758 175.751 117.399 175.511 117.399C175.272 117.399 175.093 117.13 175.093 116.801C175.093 116.174 176.079 115.935 176.438 116.472ZM172.911 123.525C174.794 127.411 176.318 130.638 176.259 130.668C176.199 130.728 174.555 127.56 172.642 123.645C170.73 119.73 169.236 116.502 169.295 116.502C169.385 116.502 170.999 119.67 172.911 123.525ZM134.538 118.594C134.748 118.594 134.718 118.714 134.449 118.863C133.821 119.282 133.612 119.013 133.821 118.086C133.971 117.339 134.001 117.309 134.09 117.907C134.15 118.296 134.359 118.594 134.538 118.594ZM144.7 120.836C144.879 121.165 145.656 122.151 146.373 123.017C147.329 124.213 147.748 124.512 147.927 124.213C148.136 123.914 148.196 123.944 148.196 124.362C148.196 124.691 148.316 124.811 148.555 124.691C148.794 124.542 148.824 124.631 148.704 124.96C148.405 125.707 151.573 128.397 157.012 131.983C162.153 135.36 165.53 137.96 165.53 138.528C165.53 138.707 165.619 138.917 165.769 138.976C166.546 139.305 170.909 146.209 170.55 146.537C170.491 146.597 170.013 145.82 169.475 144.774C168.937 143.728 168.279 142.652 167.98 142.323C167.681 142.025 167.173 141.307 166.845 140.799C165.35 138.379 161.764 135.271 157.61 132.76C154.472 130.907 147.867 125.707 147.031 124.452C146.792 124.123 146.044 123.167 145.387 122.36C144.341 121.105 142.787 118.296 142.817 117.758C142.847 117.638 143.175 118.146 143.594 118.893C143.982 119.64 144.49 120.507 144.7 120.836ZM154.92 119.342C155.518 119.162 155.518 119.162 154.95 119.61C154.412 120.059 154.412 120.089 154.92 120.896L155.458 121.732L154.801 121.165C154.323 120.716 154.084 120.656 153.815 120.925C153.307 121.433 152.978 121.374 153.187 120.836C153.277 120.567 153.127 120.178 152.799 119.909C152.261 119.491 152.261 119.491 152.828 119.551C153.277 119.61 153.426 119.461 153.396 118.923L153.366 118.236L153.845 118.863C154.203 119.312 154.532 119.461 154.92 119.342ZM165.619 122.091C169.385 128.815 173.838 137.9 173.509 138.229C173.449 138.289 172.672 136.675 171.776 134.673C170.879 132.641 168.847 128.576 167.233 125.617C165.619 122.659 164.155 119.999 164.006 119.7C163.856 119.431 163.766 119.192 163.856 119.192C163.916 119.192 164.723 120.507 165.619 122.091ZM177.155 120.686C177.155 120.955 177.036 120.925 176.886 120.537C176.737 120.208 176.617 119.73 176.617 119.491C176.617 119.222 176.737 119.252 176.886 119.64C177.036 119.969 177.155 120.447 177.155 120.686ZM134.359 120.447C134.27 120.656 134.21 120.507 134.21 120.089C134.21 119.67 134.27 119.521 134.359 119.7C134.419 119.909 134.419 120.268 134.359 120.447ZM168.459 119.82C168.399 119.999 168.219 120.119 168.07 120.119C167.921 120.119 167.741 119.999 167.681 119.82C167.622 119.64 167.801 119.491 168.07 119.491C168.339 119.491 168.518 119.64 168.459 119.82ZM182.804 120.716C182.744 120.896 182.564 121.015 182.415 121.015C182.266 121.015 182.086 120.896 182.027 120.716C181.967 120.537 182.146 120.388 182.415 120.388C182.684 120.388 182.863 120.537 182.804 120.716ZM134.658 121.643C134.568 121.882 134.479 121.792 134.479 121.463C134.449 121.135 134.538 120.955 134.628 121.075C134.718 121.165 134.748 121.433 134.658 121.643ZM177.394 121.942C177.305 122.181 177.215 122.091 177.215 121.762C177.185 121.433 177.275 121.254 177.364 121.374C177.454 121.463 177.484 121.732 177.394 121.942ZM161.914 123.376C161.914 123.645 161.794 123.615 161.645 123.227C161.495 122.898 161.376 122.42 161.376 122.181C161.376 121.912 161.495 121.942 161.645 122.33C161.794 122.659 161.914 123.137 161.914 123.376ZM178.022 124.571C178.022 125.229 177.992 125.229 177.783 124.422C177.663 123.914 177.544 123.257 177.544 122.928C177.544 122.45 177.603 122.479 177.783 123.077C177.902 123.496 178.022 124.153 178.022 124.571ZM135.644 123.824C135.644 123.974 135.495 123.914 135.345 123.675C135.196 123.436 135.047 123.077 135.047 122.928C135.047 122.748 135.196 122.838 135.345 123.077C135.495 123.316 135.644 123.645 135.644 123.824ZM141.472 123.705C141.771 124.153 141.442 124.392 140.874 124.153C140.605 124.063 140.486 123.854 140.575 123.675C140.814 123.286 141.233 123.286 141.472 123.705ZM167.741 137.273C171.238 144.087 173.18 148.39 172.911 148.659C172.852 148.749 172.493 147.942 172.105 146.926C171.716 145.88 169.714 141.666 167.592 137.572C164.125 130.758 161.943 125.617 161.943 124.332C161.943 124.063 162.422 125.229 163.019 126.962C163.617 128.785 165.619 133.119 167.741 137.273ZM136.78 125.737C138.035 127.68 140.605 129.981 142.936 131.296C143.982 131.864 146.971 133.298 149.571 134.493C152.171 135.659 155.279 137.183 156.415 137.841C159.373 139.574 162.81 143.041 164.304 145.79C165.888 148.779 166.785 151.289 166.635 152.275C166.516 153.082 166.516 153.052 166.456 152.156C166.456 151.648 166.307 151.11 166.127 151.02C165.978 150.931 165.829 150.512 165.829 150.154C165.829 149.257 163.498 144.595 162.96 144.386C162.72 144.296 162.541 144.057 162.541 143.848C162.541 143.22 160.18 140.769 159.642 140.829C159.343 140.829 159.134 140.68 159.164 140.5C159.284 139.903 157.012 138.408 152.978 136.466C140.336 130.369 141.352 130.937 138.902 128.486C137.647 127.231 136.391 125.767 136.122 125.229C135.405 123.824 135.704 124.063 136.78 125.737ZM178.291 127.172C178.201 127.47 178.141 127.231 178.141 126.663C178.141 126.096 178.201 125.857 178.291 126.126C178.351 126.424 178.351 126.903 178.291 127.172ZM157.67 128.337C157.401 128.606 156.833 128.158 157.042 127.799C157.162 127.62 157.341 127.62 157.55 127.829C157.73 128.008 157.789 128.218 157.67 128.337ZM132.715 128.606C132.715 128.755 132.566 128.935 132.387 128.995C132.207 129.054 132.058 128.875 132.058 128.606C132.058 128.337 132.207 128.158 132.387 128.218C132.566 128.277 132.715 128.457 132.715 128.606ZM177.155 132.79C177.155 132.939 176.976 132.76 176.737 132.342C176.498 131.923 176.318 131.445 176.318 131.296C176.318 131.116 176.498 131.326 176.737 131.744C176.976 132.162 177.155 132.611 177.155 132.79ZM186.36 136.585C186.3 137.452 186.27 136.765 186.27 135.031C186.27 133.298 186.3 132.611 186.36 133.447C186.42 134.314 186.42 135.749 186.36 136.585ZM178.201 135.33C178.291 135.749 178.112 135.539 177.813 134.882C177.484 134.225 177.215 133.537 177.215 133.388C177.215 132.939 177.992 134.493 178.201 135.33ZM179.098 137.721C179.247 138.229 179.217 138.319 179.038 138.02C178.889 137.781 178.649 137.243 178.56 136.825C178.41 136.316 178.44 136.227 178.62 136.526C178.769 136.765 179.008 137.303 179.098 137.721ZM186.3 140.142C186.3 141.158 186.39 143.728 186.509 145.91C186.689 149.018 186.838 149.885 187.227 150.183C187.705 150.512 187.705 150.632 187.256 151.528C186.868 152.305 186.748 152.365 186.748 151.887C186.748 151.558 186.689 151.199 186.599 151.11C186.509 151.02 186.39 149.825 186.33 148.42C186.24 147.045 186.091 144.176 185.971 142.114C185.852 139.963 185.882 138.319 186.031 138.319C186.181 138.319 186.3 139.126 186.3 140.142ZM134.748 139.813C134.748 139.903 134.509 139.992 134.21 139.992C133.732 139.992 133.642 139.664 133.821 138.648C133.851 138.468 134.718 139.604 134.748 139.813ZM135.345 138.737C135.345 138.797 135.136 138.946 134.867 139.036C134.628 139.126 134.509 139.096 134.598 138.917C134.778 138.618 135.345 138.498 135.345 138.737ZM174.197 139.664C174.197 139.813 174.047 139.753 173.898 139.514C173.748 139.275 173.599 138.917 173.599 138.767C173.599 138.588 173.748 138.677 173.898 138.917C174.047 139.156 174.197 139.484 174.197 139.664ZM180.622 141.965C181.787 145.76 183.162 151.528 183.132 152.664C183.132 153.082 182.804 151.857 182.415 149.944C181.787 147.016 180.144 140.979 179.426 139.126C179.307 138.857 179.277 138.618 179.397 138.618C179.486 138.618 180.024 140.142 180.622 141.965ZM174.794 141.158C174.794 141.307 174.645 141.248 174.495 141.009C174.346 140.769 174.197 140.411 174.197 140.261C174.197 140.082 174.346 140.172 174.495 140.411C174.645 140.65 174.794 140.979 174.794 141.158ZM175.511 143.101C175.661 143.609 175.631 143.698 175.452 143.399C175.302 143.16 175.063 142.622 174.974 142.204C174.824 141.696 174.854 141.606 175.033 141.905C175.183 142.144 175.422 142.682 175.511 143.101ZM176.737 146.567C176.856 147.314 176.826 147.284 176.498 146.388C176.259 145.82 175.99 145.013 175.9 144.595C175.751 144.027 175.81 144.087 176.139 144.774C176.348 145.282 176.617 146.089 176.737 146.567ZM140.336 145.073C140.067 145.342 139.499 144.894 139.709 144.535C139.828 144.356 140.008 144.356 140.217 144.565C140.396 144.744 140.456 144.953 140.336 145.073ZM147.21 150.931C148.286 152.544 149.242 153.859 149.362 153.859C149.451 153.859 149.571 154.158 149.571 154.517C149.631 155.264 153.067 163.243 153.635 163.961C153.845 164.2 154.054 164.648 154.084 165.007C154.263 166.112 156.235 169.31 157.76 170.984C158.656 171.97 160.001 173.016 161.166 173.614C162.242 174.181 163.049 174.66 162.989 174.719C162.84 174.899 160.091 173.404 158.895 172.478C157.55 171.492 155.608 168.952 154.562 166.86C154.143 166.053 153.665 165.276 153.516 165.186C153.366 165.096 153.187 164.678 153.127 164.289C152.918 163.184 149.78 155.921 149.093 154.995C148.764 154.547 148.495 153.979 148.495 153.77C148.495 153.142 145.716 148.958 144.102 147.195L142.697 145.641L143.982 146.836C144.67 147.494 146.134 149.347 147.21 150.931ZM171.477 149.078C171.477 149.317 171.268 149.048 171.059 148.48C170.521 147.105 170.55 146.567 171.059 147.733C171.298 148.211 171.477 148.839 171.477 149.078ZM177.454 149.078C177.454 149.347 177.334 149.317 177.185 148.928C177.036 148.599 176.916 148.121 176.916 147.882C176.916 147.613 177.036 147.643 177.185 148.032C177.334 148.36 177.454 148.839 177.454 149.078ZM173.718 150.691C174.286 152.634 174.316 153.65 173.778 151.857C173.18 150.034 172.971 149.078 173.121 149.078C173.21 149.078 173.479 149.795 173.718 150.691ZM172.284 150.482C172.194 150.721 172.075 151.468 172.075 152.156L172.015 153.411L171.836 152.216C171.716 151.558 171.537 150.841 171.417 150.632C171.088 150.124 171.417 149.675 171.985 149.885C172.224 149.974 172.374 150.243 172.284 150.482ZM177.693 150.333C177.603 150.572 177.514 150.482 177.514 150.154C177.484 149.825 177.574 149.645 177.663 149.765C177.753 149.855 177.783 150.124 177.693 150.333ZM163.019 151.379C162.72 151.678 162.452 151.229 162.72 150.841C162.9 150.512 162.96 150.512 163.079 150.841C163.139 151.05 163.109 151.289 163.019 151.379ZM177.992 151.528C177.902 151.767 177.813 151.678 177.813 151.349C177.783 151.02 177.872 150.841 177.962 150.96C178.052 151.05 178.082 151.319 177.992 151.528ZM187.256 154.367C187.167 154.666 187.107 154.427 187.107 153.859C187.107 153.291 187.167 153.052 187.256 153.321C187.316 153.62 187.316 154.098 187.256 154.367ZM166.934 154.367C166.845 154.666 166.785 154.487 166.785 154.009C166.785 153.501 166.845 153.291 166.934 153.471C166.994 153.68 166.994 154.098 166.934 154.367ZM174.406 154.218C174.316 154.427 174.256 154.278 174.256 153.859C174.256 153.441 174.316 153.291 174.406 153.471C174.465 153.68 174.465 154.039 174.406 154.218ZM172.314 154.218C172.224 154.457 172.134 154.367 172.134 154.039C172.105 153.71 172.194 153.531 172.284 153.65C172.374 153.74 172.403 154.009 172.314 154.218ZM183.371 155.413C183.312 155.802 183.252 155.503 183.252 154.756C183.252 154.009 183.312 153.71 183.371 154.069C183.431 154.457 183.431 155.055 183.371 155.413ZM172.463 155.115C172.553 155.324 172.493 155.832 172.374 156.25C172.254 156.669 172.134 156.788 172.134 156.549C172.105 156.31 172.015 155.802 171.925 155.413C171.716 154.726 172.224 154.457 172.463 155.115ZM174.675 160.643C174.406 161.719 173.868 163.064 173.449 163.632C172.672 164.588 171.298 165.515 170.55 165.515C170.341 165.515 170.79 165.216 171.507 164.827C172.613 164.289 173.031 163.841 173.748 162.377C174.555 160.733 174.645 160.344 174.645 157.595L174.615 154.606L174.884 156.639C175.123 158.252 175.063 159.119 174.675 160.643ZM167.084 156.011C166.815 156.28 166.725 156.22 166.725 155.652C166.725 155.085 166.815 155.025 167.084 155.294C167.353 155.563 167.353 155.742 167.084 156.011ZM183.67 160.225C183.61 160.912 183.581 160.255 183.581 158.79C183.581 157.296 183.61 156.758 183.67 157.535C183.73 158.312 183.73 159.538 183.67 160.225ZM172.015 158.701C171.925 158.94 171.836 158.85 171.836 158.521C171.806 158.193 171.895 158.013 171.985 158.133C172.075 158.223 172.105 158.492 172.015 158.701ZM183.312 163.572C183.222 164.349 183.073 164.917 182.983 164.857C182.923 164.768 182.953 164.08 183.043 163.303C183.162 162.556 183.312 161.988 183.401 162.048C183.461 162.138 183.431 162.825 183.312 163.572ZM168.518 164.08C168.967 164.708 169.026 164.917 168.698 164.648C168.219 164.259 167.472 163.124 167.711 163.124C167.771 163.124 168.13 163.572 168.518 164.08ZM182.086 167.816C181.638 168.922 181.279 170.087 181.309 170.386C181.309 170.685 181.13 171.014 180.861 171.103C180.622 171.193 179.785 171.91 178.978 172.717C177.723 173.972 175.511 175.407 174.884 175.377C174.764 175.347 175.302 175.018 176.109 174.6C177.843 173.703 180.263 171.283 180.054 170.685C179.964 170.476 180.084 170.207 180.353 170.087C180.891 169.878 181.758 168.264 182.295 166.441C182.505 165.724 182.744 165.276 182.804 165.455C182.863 165.634 182.535 166.68 182.086 167.816ZM167.203 175.467C167.323 175.586 167.771 175.676 168.19 175.706C168.847 175.736 168.817 175.765 167.921 176.004C167.203 176.154 166.606 176.124 165.978 175.855C165.5 175.616 164.872 175.377 164.633 175.317C164.394 175.227 164.812 175.198 165.59 175.227C166.367 175.257 167.114 175.347 167.203 175.467ZM174.406 175.556C174.316 175.646 174.047 175.676 173.838 175.586C173.599 175.496 173.688 175.407 174.017 175.407C174.346 175.377 174.525 175.467 174.406 175.556ZM172.941 175.885C172.642 175.945 172.105 175.945 171.746 175.885C171.357 175.825 171.596 175.765 172.254 175.765C172.911 175.736 173.21 175.795 172.941 175.885Z" fill="#CB8020"/>
<path d="M149.093 50.9038C148.376 51.3222 148.376 51.3222 148.973 51.3521C149.332 51.3521 149.691 51.1429 149.81 50.9038C149.99 50.3658 150.019 50.3658 149.093 50.9038Z" fill="#CB8020"/>
<path d="M153.485 53.1756C153.694 53.3848 153.933 53.4745 154.023 53.3848C154.112 53.2952 153.963 53.1158 153.664 53.0262C153.246 52.8469 153.216 52.8768 153.485 53.1756Z" fill="#CB8020"/>
<path d="M149.99 56.1635C149.99 56.313 150.14 56.3727 150.289 56.2831C150.468 56.1934 150.588 56.044 150.588 55.9543C150.588 55.8946 150.468 55.8348 150.289 55.8348C150.14 55.8348 149.99 55.9842 149.99 56.1635Z" fill="#CB8020"/>
<path d="M106.894 28.5494C107.103 28.639 107.581 29.3264 108 30.1333C109.614 33.331 111.347 34.5265 114.993 34.8851C117.832 35.1839 119.087 35.7219 120.313 37.1265C121.568 38.5311 122.106 40.4737 122.494 45.0163C122.853 49.0807 123.6 52.4279 124.586 54.3705C125.154 55.4463 125.154 55.5958 124.736 55.4165C124.467 55.3268 123.331 55.1475 122.255 55.0578C119.207 54.7889 114.395 55.805 111.078 57.4487C109.643 58.1659 108.448 58.6441 108.448 58.5246C108.448 58.1659 114.246 55.5659 115.471 55.3866C118.729 54.9084 118.788 54.8785 118.161 54.6096C117.772 54.4302 118.071 54.4003 119.057 54.49L120.552 54.6096L119.356 54.3107C117.862 53.9222 115.232 54.1613 113.02 54.9084C111.765 55.3268 111.466 55.3567 111.885 55.0578C112.214 54.8187 113.2 54.4003 114.066 54.1613C114.903 53.8923 115.62 53.6532 115.62 53.6233C115.62 53.5934 114.575 53.5636 113.319 53.5934C110.689 53.6233 108.627 54.4003 107.492 55.7751C107.043 56.3728 106.924 56.4326 107.103 55.9843C107.223 55.6555 107.342 55.2371 107.342 55.0279C107.342 54.8486 107.551 54.759 107.79 54.8785C108.089 54.9682 108.179 54.9084 108.03 54.6992C107.94 54.5199 108 54.2808 108.179 54.1613C108.418 54.0118 108.448 54.0716 108.299 54.3406C108.149 54.6096 108.179 54.6693 108.418 54.5199C108.597 54.4003 108.657 54.1613 108.568 53.982C108.418 53.7728 108.538 53.713 108.836 53.8325C109.135 53.9222 109.345 53.8923 109.345 53.7429C109.345 53.6233 109.853 53.3245 110.48 53.1153C111.078 52.9061 111.437 52.6969 111.227 52.6371C110.779 52.4877 108.209 53.5934 107.462 54.2808C107.133 54.5498 106.774 55.1176 106.625 55.5061C106.147 56.7314 106.027 55.9544 106.476 54.6394C106.894 53.444 106.894 53.3842 106.416 53.8624C106.087 54.1912 105.908 54.8486 105.908 55.8647V57.359L105.25 56.6119C104.384 55.5958 104.144 55.6257 104.712 56.6418C106.117 59.2717 106.834 59.5108 110.988 58.7636C114.814 58.1062 121.388 57.8671 121.179 58.4349C121.09 58.674 121.747 58.8533 123.271 58.9728C125.333 59.182 125.991 59.4809 125.124 59.8096C124.915 59.8993 125.094 59.9889 125.513 59.9889C125.931 60.0188 127.126 60.4372 128.143 60.9752C130.175 62.0212 131.4 63.5453 132.984 67.0419C134.598 70.5983 135.166 73.2581 135.166 77.203C135.195 80.2215 135.076 81.1479 134.478 83.0008C132.835 87.9618 129.129 92.1757 124.915 93.8194C124.168 94.1182 123.749 94.3573 124.018 94.3872C124.855 94.3872 127.993 92.6538 129.577 91.2492C131.549 89.5159 133.552 86.4974 134.628 83.6284C135.405 81.5663 135.464 81.0583 135.464 77.3524C135.435 73.8558 135.345 72.9593 134.628 70.6282C133.612 67.281 131.759 63.7246 130.085 61.8419C129.009 60.6464 128.471 60.3177 127.186 59.9889C126.349 59.7797 125.811 59.5705 126.021 59.4809C126.23 59.4211 126.828 59.5108 127.336 59.6901C127.844 59.8694 128.322 59.9591 128.411 59.8694C128.651 59.6303 126.947 59.0924 124.736 58.674C123.271 58.405 122.972 58.2855 123.69 58.2556C125.034 58.2257 127.694 58.943 128.68 59.5705C129.189 59.8993 129.517 59.9889 129.726 59.7797C130.175 59.3315 128.591 57.4786 126.917 56.582C125.632 55.8647 125.453 55.6257 124.586 53.4141C123.719 51.1129 123.421 49.6187 122.524 42.1174C121.896 37.1863 119.894 35.0943 115.202 34.6161C111.825 34.2575 110.301 33.4207 109.076 31.2391C107.88 29.0873 107.282 28.3402 106.864 28.37C106.595 28.37 106.625 28.4298 106.894 28.5494ZM112.483 54.2509C112.004 54.5199 110.779 55.3268 109.793 56.0441L108 57.359L109.434 55.9843C110.241 55.2371 110.809 54.6394 110.689 54.6394C110.211 54.6394 108.448 55.9245 107.88 56.6716C107.551 57.1199 107.253 57.3291 107.253 57.1498C107.223 56.2831 110.779 53.7728 111.437 54.1912C111.616 54.2808 111.974 54.221 112.243 54.0716C112.542 53.8923 112.931 53.7728 113.08 53.7728C113.26 53.7728 112.991 53.982 112.483 54.2509ZM112.632 55.6555C112.632 55.7153 112.423 55.8647 112.154 55.9544C111.915 56.0441 111.795 56.0142 111.885 55.8349C112.064 55.536 112.632 55.4165 112.632 55.6555ZM121 55.8349C119.027 55.9843 116.906 56.3429 115.322 56.851C112.453 57.7176 111.676 57.8372 113.23 57.1498C115.322 56.2234 118.729 55.5958 121.448 55.6257H124.138L121 55.8349ZM125.094 56.0142C125.005 56.1038 124.736 56.1337 124.526 56.0441C124.287 55.9544 124.377 55.8647 124.706 55.8647C125.034 55.8349 125.214 55.9245 125.094 56.0142ZM109.793 57.1797C109.195 57.628 108.627 57.897 108.538 57.8372C108.388 57.6878 110.271 56.4326 110.66 56.4326C110.809 56.4326 110.42 56.7613 109.793 57.1797ZM125.931 57.0303C127.814 57.7176 127.545 57.7774 125.154 57.1498C123.331 56.6716 118.818 56.6716 116.816 57.1498C116.398 57.2395 116.607 57.1199 117.264 56.9107C119.057 56.2533 124.078 56.3429 125.931 57.0303ZM119.715 57.5084C119.625 57.5981 119.356 57.628 119.147 57.5383C118.908 57.4487 118.998 57.359 119.326 57.359C119.655 57.3291 119.834 57.4188 119.715 57.5084ZM123.182 57.5383C122.793 57.5981 122.195 57.5981 121.837 57.5383C121.448 57.4786 121.747 57.4188 122.494 57.4188C123.241 57.4188 123.54 57.4786 123.182 57.5383ZM126.887 58.1062C126.798 58.1958 126.529 58.2257 126.319 58.136C126.08 58.0464 126.17 57.9567 126.499 57.9567C126.828 57.9268 127.007 58.0165 126.887 58.1062ZM129.248 59.182L129.816 59.8694L129.069 59.2717C128.651 58.943 128.262 58.6441 128.202 58.6142C128.143 58.5544 128.202 58.5246 128.382 58.5246C128.531 58.5246 128.92 58.8234 129.248 59.182Z" fill="#CB8020"/>
<path d="M104.564 35.0639C104.564 35.303 104.714 35.5122 104.863 35.5122C105.043 35.5122 105.162 35.303 105.162 35.0639C105.162 34.8248 105.043 34.6156 104.863 34.6156C104.714 34.6156 104.564 34.8248 104.564 35.0639Z" fill="#CB8020"/>
<path d="M115.023 39.8462C115.023 40.0852 115.173 40.2944 115.322 40.2944C115.502 40.2944 115.621 40.0852 115.621 39.8462C115.621 39.6071 115.502 39.3979 115.322 39.3979C115.173 39.3979 115.023 39.6071 115.023 39.8462Z" fill="#CB8020"/>
<path d="M188.244 60.0192C188.094 77.9505 188.035 80.3115 187.586 81.2379C186.869 82.7621 185.943 83.8679 184.897 84.4058C183.104 85.3322 183.163 85.8104 183.163 67.909C183.163 57.2697 183.074 51.6512 182.864 51.6512C182.506 51.6512 182.476 80.0425 182.835 82.8219C183.044 84.4656 183.432 85.0932 184.239 85.123C185.046 85.123 186.66 83.6288 187.497 82.1345L188.393 80.4908L188.483 64.0537C188.513 54.9984 188.513 45.8534 188.483 43.7316C188.423 41.5798 188.333 48.9316 188.244 60.0192Z" fill="#CB8020"/>
<path d="M107.254 42.5355C107.254 42.8045 107.403 42.9838 107.583 42.924C107.762 42.8643 107.911 42.6849 107.911 42.5355C107.911 42.3861 107.762 42.2068 107.583 42.147C107.403 42.0872 107.254 42.2665 107.254 42.5355Z" fill="#CB8020"/>
<path d="M115.322 49.4391C115.322 49.6781 115.472 49.7977 115.621 49.708C115.8 49.6184 115.92 49.4092 115.92 49.2299C115.92 49.0804 115.8 48.9609 115.621 48.9609C115.472 48.9609 115.322 49.1701 115.322 49.4391Z" fill="#CB8020"/>
<path d="M179.875 69.7016C179.875 79.9822 179.965 85.4214 180.174 85.4214C180.383 85.4214 180.473 80.042 180.473 69.9108C180.473 59.8692 180.353 54.3105 180.174 54.191C179.965 54.0714 179.875 59.3313 179.875 69.7016Z" fill="#CB8020"/>
<path d="M100.23 58.7037C101.605 61.8716 101.934 64.7705 101.186 66.8924C100.798 67.9683 100.828 68.9844 101.246 68.9844C101.635 68.9844 102.292 65.6372 102.232 63.7245C102.203 61.7222 101.127 58.5244 100.409 58.2853C100.081 58.1658 100.051 58.2853 100.23 58.7037Z" fill="#CB8020"/>
<path d="M112.454 61.3936C111.229 61.9913 110.601 63.1569 110.362 65.2787C110.123 67.2213 109.406 68.1179 107.642 68.7156C106.805 68.9846 106.656 69.1041 107.015 69.3133C107.284 69.4627 107.881 69.4328 108.419 69.2535C109.674 68.8052 109.943 69.1041 108.748 69.5823C108.27 69.7915 107.851 70.0604 107.851 70.2099C107.851 70.5984 108.031 70.5386 109.435 69.8512C110.392 69.3432 110.601 69.3133 110.272 69.7018C109.734 70.3593 110.093 70.2995 111.079 69.5823C111.527 69.2834 112.304 68.9248 112.783 68.8052C113.649 68.596 113.679 68.596 113.141 69.1938C112.872 69.5225 112.723 69.8811 112.812 69.9708C112.932 70.0903 112.842 70.3593 112.633 70.6283C111.916 71.4949 112.633 71.0765 113.709 69.9708C114.337 69.3432 114.875 69.0144 114.934 69.1938C115.024 69.403 115.263 69.4627 115.532 69.3731C115.921 69.2236 115.95 69.3731 115.771 70.2099C115.622 70.8972 115.652 71.1363 115.861 70.9271C116.04 70.7478 116.219 70.2995 116.279 69.8811C116.399 68.9846 117.206 68.865 117.355 69.7317C117.415 70.0604 117.624 70.4489 117.773 70.6283C118.013 70.8375 118.042 70.8076 117.893 70.5685C117.803 70.3892 117.833 69.911 117.983 69.5225C118.222 68.8351 118.252 68.8351 118.879 69.8811C119.268 70.5087 119.507 70.7179 119.507 70.4191C119.507 70.1501 119.387 69.8213 119.208 69.7317C118.76 69.4627 118.849 68.9846 119.387 68.9846C119.626 68.9846 119.746 69.1041 119.656 69.2834C119.567 69.4328 119.656 69.4926 119.895 69.403C120.134 69.3133 120.433 69.3731 120.553 69.5524C120.822 70.0007 121.21 69.9708 121.21 69.4627C121.21 69.2535 121.001 69.0742 120.762 69.1041C120.523 69.1041 120.254 68.9547 120.194 68.7455C119.985 68.1776 121.24 68.3271 121.569 68.8949C121.957 69.642 122.316 69.1639 121.928 68.4167C121.509 67.6397 121.898 67.4006 123.571 67.4006C124.288 67.4006 124.797 67.2811 124.707 67.1317C124.438 66.7133 123.242 66.8627 120.822 67.6696C118.042 68.5662 114.904 68.7156 112.155 68.088L110.332 67.6995L110.72 65.5776C110.93 64.4121 111.169 63.2166 111.288 62.9477C111.647 62.0511 113.022 61.3936 114.635 61.3936C115.472 61.3637 116.1 61.2741 116.04 61.1545C115.771 60.766 113.41 60.9155 112.454 61.3936Z" fill="#CB8020"/>
<path d="M10.484 76.1568L10.5438 86.1685L10.7231 76.4557C10.8128 71.1061 10.7829 66.6233 10.6633 66.444C10.5139 66.2946 10.4541 70.6877 10.484 76.1568Z" fill="#CB8020"/>
<path d="M114.276 70.8074C114.156 70.9867 114.127 71.166 114.216 71.2557C114.276 71.3453 114.425 71.1959 114.515 70.9269C114.724 70.4189 114.545 70.3292 114.276 70.8074Z" fill="#CB8020"/>
<path d="M4.71539 76.6352C4.44642 76.9639 4.44642 77.1731 4.68551 77.4122C5.1039 77.8306 5.9407 77.5019 5.9407 76.934C5.9407 76.3363 5.13379 76.1271 4.71539 76.6352Z" fill="#CB8020"/>
<path d="M176.348 83.9868C176.318 89.0375 176.199 90.8007 175.93 90.9203C175.541 91.0996 177.006 90.9501 179.068 90.6214C180.203 90.4122 180.203 90.4122 179.964 91.2789C179.337 93.5502 179.994 95.4927 181.757 96.479C182.355 96.8077 182.684 96.8376 183.072 96.5985C184.268 95.8514 183.879 93.7594 182.236 91.8766C181.548 91.0996 181.07 90.4122 181.13 90.3524C181.19 90.2628 182.325 89.9938 183.64 89.7547C186.39 89.1869 186.898 89.0375 186.689 88.8582C186.599 88.7685 185.583 88.888 184.387 89.157C181.249 89.8145 181.279 89.8444 181.967 88.2604C182.714 86.5271 182.505 86.557 181.489 88.3202C181.04 89.1271 180.622 89.8145 180.562 89.8743C180.532 89.934 180.233 89.7547 179.905 89.4858C179.038 88.6788 178.052 86.1386 178.261 85.2719C178.5 84.2558 178.201 84.3156 177.842 85.3615C177.484 86.4075 178.022 88.1409 179.008 89.1869C179.367 89.5754 179.636 89.9639 179.546 90.0237C179.486 90.0835 178.799 90.2329 178.022 90.3225L176.587 90.5317L176.498 83.8673L176.438 77.2028L176.348 83.9868ZM182.086 92.0858C183.192 93.5203 183.341 94.6858 182.594 95.5824L181.967 96.3295L181.22 95.4927C180.472 94.6261 180.323 93.7594 180.652 92.026C180.891 90.8605 181.16 90.8605 182.086 92.0858Z" fill="#CB8020"/>
<path d="M13.2638 81.8352C13.1742 82.0145 13.2937 82.2237 13.5627 82.3133C14.1305 82.5524 14.4592 82.3133 14.1604 81.8651C13.9213 81.4467 13.5029 81.4467 13.2638 81.8352Z" fill="#CB8020"/>
<path d="M105.908 86.7363C105.549 87.0949 105.101 87.4834 104.862 87.5731C104.145 87.8122 104.772 88.2007 105.549 87.9915C106.117 87.872 106.954 86.7662 106.954 86.1685C106.954 85.8099 106.446 86.0788 105.908 86.7363Z" fill="#CB8020"/>
<path d="M111.438 87.2148C111.438 87.3642 111.587 87.5137 111.736 87.5137C111.916 87.5137 112.035 87.3642 112.035 87.2148C112.035 87.0355 111.916 86.916 111.736 86.916C111.587 86.916 111.438 87.0355 111.438 87.2148Z" fill="#CB8020"/>
<path d="M121.598 87.5136C121.598 87.6631 121.747 87.8125 121.897 87.8125C122.076 87.8125 122.195 87.6631 122.195 87.5136C122.195 87.3343 122.076 87.2148 121.897 87.2148C121.747 87.2148 121.598 87.3343 121.598 87.5136Z" fill="#CB8020"/>
<path d="M125.334 87.8125C125.424 87.9619 125.633 88.1113 125.813 88.1113C125.962 88.1113 126.082 87.9619 126.082 87.8125C126.082 87.6332 125.872 87.5136 125.603 87.5136C125.364 87.5136 125.245 87.6332 125.334 87.8125Z" fill="#CB8020"/>
<path d="M114.127 90.6513C114.127 90.8904 114.336 91.0996 114.575 91.0996C114.814 91.0996 115.024 90.8904 115.024 90.6513C115.024 90.4122 114.814 90.203 114.575 90.203C114.336 90.203 114.127 90.4122 114.127 90.6513Z" fill="#CB8020"/>
<path d="M0.0837291 90.9501C-0.155355 91.5777 0.1435 92.2949 0.651553 92.2949C1.24926 92.2949 1.84697 91.488 1.63777 90.9501C1.42858 90.3822 0.292928 90.3524 0.0837291 90.9501Z" fill="#CB8020"/>
<path d="M10.5723 112.02C10.5723 122.958 10.6022 127.411 10.632 121.942C10.6918 116.503 10.6918 107.537 10.632 102.068C10.6022 96.6286 10.5723 101.082 10.5723 112.02Z" fill="#CB8020"/>
<path d="M13.1133 94.3875C13.1133 94.8358 13.2627 94.9852 13.6512 94.9254C13.9202 94.8657 14.1593 94.6266 14.1593 94.3875C14.1593 94.1484 13.9202 93.9093 13.6512 93.8496C13.2627 93.7898 13.1133 93.9392 13.1133 94.3875Z" fill="#CB8020"/>
<path d="M108.15 94.686C108.15 94.8354 108.3 94.9849 108.449 94.9849C108.629 94.9849 108.748 94.8354 108.748 94.686C108.748 94.5067 108.629 94.3872 108.449 94.3872C108.3 94.3872 108.15 94.5067 108.15 94.686Z" fill="#CB8020"/>
<path d="M5.25442 95.1641C4.98545 95.4629 5.31419 95.8813 5.82224 95.8813C6.06133 95.8813 6.24064 95.6721 6.24064 95.4331C6.24064 94.9848 5.61304 94.8055 5.25442 95.1641Z" fill="#CB8020"/>
<path d="M16.5499 96.1502C16.3109 96.5985 16.6396 97.0767 17.1775 97.0767C17.4465 97.0767 17.5959 96.8675 17.5362 96.5686C17.4166 95.9709 16.8189 95.7318 16.5499 96.1502Z" fill="#CB8020"/>
<path d="M104.413 96.7777C104.324 96.9271 105.28 97.6444 106.565 98.3915C107.85 99.1387 109.105 99.8858 109.344 100.035C110.091 100.513 107.551 100.424 105.788 99.8858C104.921 99.6467 103.935 99.4674 103.576 99.5272C103.068 99.6168 103.248 99.7663 104.264 100.065L105.609 100.484L104.443 100.633C103.786 100.752 103.218 100.992 103.128 101.231C103.009 101.559 103.218 101.589 103.995 101.47C104.563 101.35 105.967 101.171 107.103 101.081C109.016 100.872 109.165 100.902 108.806 101.35C108.209 102.067 105.788 103.502 104.204 104.1C102.68 104.667 102.232 105.295 103.606 104.966C105.579 104.488 109.942 101.709 110.659 100.454C110.958 99.8858 110.719 99.6766 109.105 99.049C108.388 98.78 107.073 98.0927 106.176 97.5248C105.31 96.957 104.503 96.6283 104.413 96.7777Z" fill="#CB8020"/>
<path d="M125.783 99.7661C125.783 99.9155 125.933 100.065 126.082 100.065C126.261 100.065 126.381 99.9155 126.381 99.7661C126.381 99.5868 126.261 99.4672 126.082 99.4672C125.933 99.4672 125.783 99.5868 125.783 99.7661Z" fill="#CB8020"/>
<path d="M5.04492 100.812C5.04492 101.052 5.25412 101.261 5.4932 101.261C5.73229 101.261 5.94149 101.052 5.94149 100.812C5.94149 100.573 5.73229 100.364 5.4932 100.364C5.25412 100.364 5.04492 100.573 5.04492 100.812Z" fill="#CB8020"/>
<path d="M0.442043 102.426C0.143188 102.905 0.621356 103.682 1.12941 103.592C1.39838 103.532 1.63746 103.203 1.69723 102.815C1.78689 102.337 1.63746 102.157 1.18918 102.157C0.86044 102.157 0.5317 102.277 0.442043 102.426Z" fill="#CB8020"/>
<path d="M118.521 103.263C118.132 103.622 118.312 104.488 118.82 104.667C119.089 104.787 119.507 104.697 119.716 104.458C119.955 104.249 120.045 103.831 119.925 103.562C119.746 103.054 118.879 102.874 118.521 103.263Z" fill="#CB8020"/>
<path d="M14.1002 103.831C13.8313 104.518 14.429 104.967 14.8773 104.429C15.2658 103.951 15.0865 103.353 14.5784 103.353C14.429 103.353 14.2198 103.562 14.1002 103.831Z" fill="#CB8020"/>
<path d="M5.82095 109.001C5.52209 109.479 6.00026 110.256 6.50832 110.166C6.77728 110.106 7.01637 109.778 7.07614 109.389C7.1658 108.911 7.01637 108.732 6.56809 108.732C6.23935 108.732 5.91061 108.851 5.82095 109.001Z" fill="#CB8020"/>
<path d="M119.655 109.33C119.566 109.479 119.626 109.629 119.775 109.629C119.954 109.629 120.104 109.479 120.104 109.33C120.104 109.151 120.044 109.031 119.984 109.031C119.894 109.031 119.745 109.151 119.655 109.33Z" fill="#CB8020"/>
<path d="M121.747 109.33C121.837 109.479 121.986 109.629 122.076 109.629C122.136 109.629 122.195 109.479 122.195 109.33C122.195 109.151 122.046 109.031 121.867 109.031C121.717 109.031 121.658 109.151 121.747 109.33Z" fill="#CB8020"/>
<path d="M102.621 110.496C102.412 110.854 102.98 111.213 103.368 110.974C103.697 110.765 103.488 110.227 103.069 110.227C102.92 110.227 102.741 110.346 102.621 110.496Z" fill="#CB8020"/>
<path d="M109.495 111.721C109.584 111.87 109.435 112.019 109.166 112.019C108.748 112.019 108.718 112.109 108.987 112.378C109.285 112.677 109.435 112.677 109.644 112.318C110.033 111.721 110.003 111.422 109.614 111.422C109.465 111.422 109.405 111.541 109.495 111.721Z" fill="#CB8020"/>
<path d="M104.683 113.933C104.414 114.65 104.802 115.367 105.37 115.248C105.729 115.188 105.908 114.889 105.908 114.411C105.908 113.544 104.952 113.186 104.683 113.933Z" fill="#CB8020"/>
<path d="M118.609 114.709C118.609 114.859 118.759 115.008 118.908 115.008C119.088 115.008 119.207 114.859 119.207 114.709C119.207 114.53 119.088 114.411 118.908 114.411C118.759 114.411 118.609 114.53 118.609 114.709Z" fill="#CB8020"/>
<path d="M113.768 116.562C114.037 116.831 114.216 116.831 114.485 116.562C114.754 116.293 114.694 116.203 114.126 116.203C113.559 116.203 113.499 116.293 113.768 116.562Z" fill="#CB8020"/>
<path d="M100.887 117.878C100.767 117.997 100.678 118.296 100.678 118.565C100.678 118.894 100.767 118.924 101.006 118.684C101.186 118.505 101.305 118.206 101.216 117.997C101.156 117.818 101.006 117.758 100.887 117.878Z" fill="#CB8020"/>
<path d="M109.823 119.461C109.703 119.67 109.673 119.909 109.763 119.999C110.032 120.268 110.331 119.879 110.181 119.461C110.062 119.132 110.002 119.132 109.823 119.461Z" fill="#CB8020"/>
<path d="M116.368 120.268C114.067 120.627 110.032 121.105 107.402 121.314C102.621 121.673 101.126 121.553 98.825 120.537C98.4365 120.388 98.2871 120.448 98.2871 120.776C98.2871 121.344 100.26 122.061 102.411 122.33C103.278 122.42 105.729 122.36 107.85 122.151L111.736 121.822L114.336 122.928C118.28 124.632 119.715 125.678 121.179 127.979C121.478 128.457 121.777 128.696 121.837 128.517C122.046 127.859 121 126.096 119.775 125.11C118.43 124.004 114.485 121.882 113.798 121.882C112.811 121.882 114.007 121.583 117.264 121.015C121.448 120.268 121.897 120.149 121.897 119.76C121.897 119.402 121.269 119.461 116.368 120.268Z" fill="#CB8020"/>
<path d="M106.357 120.089C106.357 120.238 106.507 120.388 106.656 120.388C106.836 120.388 106.955 120.238 106.955 120.089C106.955 119.91 106.836 119.79 106.656 119.79C106.507 119.79 106.357 119.91 106.357 120.089Z" fill="#CB8020"/>
<path d="M78.5625 123.077C78.5625 123.914 78.8315 126.185 79.1901 128.098C80.5947 135.928 79.7878 138.08 72.8544 145.372C63.291 155.443 60.8105 159.568 60.8105 165.515C60.8105 168.772 61.468 170.834 63.1715 173.076C65.2037 175.736 67.8635 176.274 70.7624 174.63L72.0475 173.883L73.7808 175.497C76.5901 178.097 79.6683 178.724 82.5971 177.349C83.4339 176.991 85.227 175.915 86.6316 175.018C92.6087 171.103 97.8088 169.161 102.919 168.892L105.908 168.713V171.671C105.908 174.48 105.968 174.749 107.014 176.871C107.88 178.694 111.138 183.058 111.138 182.43C111.138 182.34 110.51 181.414 109.763 180.398C107.043 176.722 106.057 173.793 106.296 170.356C106.416 168.862 106.565 168.832 109.524 169.729C113.17 170.834 116.487 172.897 121 176.841C126.051 181.294 127.336 182.34 127.037 181.743C126.618 180.966 119.147 174.451 116.786 172.807C114.306 171.073 111.018 169.49 108.627 168.922L106.625 168.414L106.834 167.487C108.508 159.986 105.459 154.696 99.4525 154.726C94.3421 154.726 90.4868 157.027 81.2522 165.515C78.5326 168.025 75.4544 170.715 74.3786 171.522C72.5854 172.926 72.436 172.986 72.0475 172.478C71.2705 171.402 70.7026 168.772 70.9118 167.099C71.2406 164.26 72.2866 162.765 77.2476 157.804C82.3281 152.724 84.3304 150.273 85.8546 147.135C87.2293 144.386 87.827 141.786 87.827 138.468C87.827 132.88 88.9029 128.008 90.8455 124.721C91.4432 123.735 91.5328 123.466 91.0845 123.974C88.9328 126.484 87.8569 130.399 87.5282 137.124C87.1098 146.089 86.0638 148.121 77.1579 157.177C71.121 163.333 70.4934 164.319 70.4934 167.906C70.4934 169.549 70.7026 170.595 71.2107 171.851L71.8981 173.554L70.1946 174.301C67.4451 175.526 65.9509 175.287 64.0382 173.225C62.2749 171.402 61.4381 169.25 61.2887 166.352C60.9899 160.404 63.2612 156.28 72.0176 147.046C77.0981 141.636 78.8614 139.305 79.6683 137.004C80.3258 135.061 80.3258 131.565 79.6384 128.008C79.3395 126.514 79.0706 124.482 79.0706 123.466C79.0108 121.224 78.5625 120.926 78.5625 123.077ZM101.784 155.503C103.577 156.041 105.28 157.595 106.147 159.508C106.864 161.092 107.014 165.156 106.416 167.158L106.087 168.354L103.278 168.414C97.8088 168.503 92.9972 170.296 85.9144 174.869C81.1626 177.917 79.6683 178.246 76.5901 176.871C75.2153 176.274 72.8843 174.301 72.8843 173.763C72.8843 173.554 73.7808 172.687 74.8567 171.791C75.9625 170.924 78.951 168.294 81.5212 165.963C89.8293 158.372 92.4892 156.519 96.6432 155.473C98.6755 154.965 99.9904 154.965 101.784 155.503Z" fill="#CB8020"/>
</svg>
