<svg width="247" height="168" viewBox="0 0 247 168" fill="none" xmlns="http://www.w3.org/2000/svg">
<path d="M247 84C247 130.392 209.392 168 163 168C116.608 168 79 130.392 79 84C79 37.6081 116.608 0 163 0C209.392 0 247 37.6081 247 84ZM107.319 84C107.319 114.752 132.248 139.681 163 139.681C193.752 139.681 218.681 114.752 218.681 84C218.681 53.2483 193.752 28.3191 163 28.3191C132.248 28.3191 107.319 53.2483 107.319 84Z" fill="#FFF9F1"/>
<path d="M237.339 99.8013C241.661 100.72 244.457 104.984 243.131 109.199C239.174 121.783 232.296 133.296 223.014 142.773C211.861 154.162 197.697 162.143 182.177 165.782C166.657 169.421 150.422 168.569 135.368 163.325C122.841 158.961 111.562 151.706 102.423 142.193C99.3623 139.007 99.971 133.944 103.434 131.2L113.089 123.549C116.552 120.805 121.549 121.439 124.76 124.473C130.451 129.85 137.234 133.987 144.684 136.582C154.662 140.058 165.424 140.623 175.712 138.21C185.999 135.798 195.388 130.508 202.781 122.959C208.301 117.323 212.538 110.601 215.245 103.256C216.773 99.1102 220.968 96.3214 225.289 97.24L237.339 99.8013Z" fill="#DF6363"/>
<path d="M103.111 130.79C99.6295 133.51 94.5657 132.911 92.1889 129.186C82.7426 114.384 78.1355 96.9262 79.1338 79.2608C80.1321 61.5953 86.6766 44.7678 97.7303 31.1238C100.512 27.6908 105.611 27.6655 108.764 30.7606L117.555 39.3904C120.708 42.4855 120.7 47.5224 118.088 51.0861C111.759 59.7233 108.018 70.0545 107.408 80.8585C106.797 91.6626 109.35 102.349 114.666 111.645C116.86 115.48 116.3 120.486 112.819 123.206L103.111 130.79Z" fill="#DF6363"/>
<path d="M109.057 30.4634C105.921 27.351 105.88 22.252 109.276 19.4261C122.775 8.19524 139.515 1.43161 157.166 0.202816C174.817 -1.02598 192.334 3.35279 207.258 12.6049C211.013 14.9329 211.679 19.9885 209.004 23.5054L201.547 33.3112C198.873 36.8281 193.875 37.4529 190.011 35.3095C180.647 30.1148 169.928 27.7021 159.133 28.4536C148.338 29.2051 138.056 33.0798 129.503 39.5219C125.973 42.18 120.937 42.2537 117.801 39.1413L109.057 30.4634Z" fill="#DF6363"/>
<path d="M127.333 13.0001C127.333 14.4729 128.527 15.6668 130 15.6668C131.473 15.6668 132.667 14.4729 132.667 13.0001C132.667 11.5274 131.473 10.3335 130 10.3335C128.527 10.3335 127.333 11.5274 127.333 13.0001ZM74.5 19.0001L74.7404 18.5617L74.5 19.0001ZM0.333333 18.0005C0.333333 19.4732 1.52724 20.6672 3 20.6672C4.47276 20.6672 5.66667 19.4732 5.66667 18.0005C5.66667 16.5277 4.47276 15.3338 3 15.3338C1.52724 15.3338 0.333333 16.5277 0.333333 18.0005ZM130 13.0001C129.841 12.526 129.841 12.526 129.841 12.5261C129.841 12.5262 129.84 12.5264 129.84 12.5266C129.838 12.5269 129.837 12.5275 129.834 12.5283C129.829 12.53 129.822 12.5324 129.812 12.5356C129.793 12.5421 129.763 12.5519 129.725 12.5647C129.647 12.5904 129.531 12.6284 129.379 12.6778C129.075 12.7766 128.626 12.9206 128.05 13.1013C126.898 13.4627 125.234 13.9705 123.194 14.5557C119.112 15.7263 113.523 17.2052 107.492 18.4402C101.459 19.6757 94.9974 20.6641 89.1658 20.859C83.3152 21.0546 78.1795 20.4476 74.7404 18.5617L74.5 19.0001L74.2596 19.4385C77.9442 21.4591 83.3078 22.0554 89.1992 21.8584C95.1095 21.6609 101.632 20.661 107.693 19.4198C113.756 18.1782 119.371 16.6922 123.469 15.517C125.519 14.9292 127.19 14.419 128.349 14.0555C128.929 13.8737 129.381 13.7287 129.688 13.6289C129.841 13.579 129.959 13.5405 130.038 13.5143C130.077 13.5013 130.108 13.4913 130.128 13.4846C130.138 13.4812 130.146 13.4787 130.151 13.4769C130.153 13.4761 130.155 13.4754 130.157 13.475C130.157 13.4748 130.158 13.4746 130.158 13.4745C130.159 13.4743 130.159 13.4743 130 13.0001ZM74.5 19.0001L74.7404 18.5617C59.1058 9.98793 41.1059 9.74834 27.0586 11.6298C20.0289 12.5713 13.9731 14.0461 9.67398 15.2856C7.52409 15.9055 5.81258 16.4668 4.63722 16.8737C4.04952 17.0771 3.59578 17.242 3.28824 17.3563C3.13447 17.4134 3.01723 17.4579 2.93806 17.4883C2.89848 17.5035 2.86841 17.5151 2.84805 17.523C2.83787 17.527 2.83012 17.53 2.82482 17.5321C2.82217 17.5331 2.82013 17.5339 2.8187 17.5345C2.81799 17.5348 2.81739 17.535 2.81703 17.5352C2.81658 17.5353 2.81628 17.5355 3 18.0005C3.18372 18.4655 3.18373 18.4655 3.1839 18.4654C3.18416 18.4653 3.18448 18.4652 3.185 18.465C3.18604 18.4646 3.1877 18.4639 3.18997 18.4631C3.1945 18.4613 3.20149 18.4585 3.21089 18.4549C3.2297 18.4476 3.2582 18.4365 3.29619 18.4219C3.37217 18.3928 3.48614 18.3495 3.63656 18.2936C3.93742 18.1818 4.38408 18.0195 4.96434 17.8187C6.12492 17.4169 7.81966 16.861 9.95102 16.2465C14.2144 15.0172 20.2211 13.5545 27.1914 12.6209C41.1441 10.7522 58.8942 11.0124 74.2596 19.4385L74.5 19.0001Z" fill="#FAE4C8"/>
<path d="M81.3333 80C81.3333 81.4728 82.5272 82.6667 84 82.6667C85.4728 82.6667 86.6667 81.4728 86.6667 80C86.6667 78.5273 85.4728 77.3334 84 77.3334C82.5272 77.3334 81.3333 78.5273 81.3333 80ZM56.5 81.5002L56.382 81.0143L56.5 81.5002ZM0.333333 74.9995C0.333333 76.4723 1.52724 77.6662 3 77.6662C4.47276 77.6662 5.66667 76.4723 5.66667 74.9995C5.66667 73.5268 4.47276 72.3328 3 72.3328C1.52724 72.3328 0.333333 73.5268 0.333333 74.9995ZM84 80C84.0977 79.5097 84.0976 79.5096 84.0973 79.5096C84.0972 79.5096 84.0969 79.5095 84.0967 79.5095C84.0961 79.5094 84.0954 79.5092 84.0945 79.509C84.0927 79.5087 84.0902 79.5082 84.087 79.5076C84.0806 79.5063 84.0713 79.5045 84.0592 79.5022C84.0351 79.4977 83.9997 79.4911 83.9534 79.4827C83.8607 79.466 83.724 79.4422 83.5452 79.4135C83.1877 79.3562 82.6618 79.279 81.9823 79.1987C80.6235 79.0381 78.6502 78.8648 76.1819 78.8123C71.246 78.7073 64.3268 79.0851 56.382 81.0143L56.5 81.5002L56.618 81.9861C64.4634 80.081 71.2941 79.7086 76.1607 79.8121C78.5937 79.8639 80.5347 80.0345 81.8649 80.1918C82.53 80.2704 83.0422 80.3456 83.3868 80.4009C83.559 80.4286 83.6894 80.4512 83.7759 80.4668C83.8192 80.4746 83.8515 80.4807 83.8726 80.4847C83.8832 80.4867 83.891 80.4882 83.8959 80.4891C83.8984 80.4896 83.9002 80.49 83.9012 80.4902C83.9017 80.4903 83.9021 80.4904 83.9023 80.4904C83.9024 80.4904 83.9024 80.4904 83.9024 80.4904C83.9023 80.4904 83.9023 80.4904 84 80ZM56.5 81.5002L56.382 81.0143C38.9719 85.2421 25.687 83.6213 16.7681 80.958C12.3067 79.6257 8.93409 78.0315 6.68121 76.7739C5.55477 76.1451 4.70838 75.6005 4.14595 75.215C3.86474 75.0223 3.65455 74.8693 3.51587 74.7656C3.44653 74.7137 3.39507 74.6741 3.36156 74.648C3.3448 74.6349 3.33253 74.6252 3.32475 74.619C3.32086 74.6159 3.31809 74.6137 3.31645 74.6124C3.31563 74.6117 3.31509 74.6113 3.31483 74.6111C3.3147 74.611 3.31472 74.611 3.31465 74.6109C3.31474 74.611 3.3149 74.6111 3 74.9995C2.6851 75.3879 2.6854 75.3881 2.68577 75.3884C2.68599 75.3886 2.68643 75.389 2.68686 75.3893C2.68773 75.39 2.68889 75.3909 2.69032 75.3921C2.6932 75.3944 2.6972 75.3976 2.70234 75.4017C2.71261 75.4099 2.72741 75.4216 2.74672 75.4366C2.78534 75.4667 2.84204 75.5103 2.91674 75.5662C3.06615 75.678 3.2876 75.839 3.58061 76.0399C4.16662 76.4415 5.03898 77.0024 6.19379 77.647C8.50341 78.9363 11.9433 80.5608 16.4819 81.9162C25.563 84.628 39.0281 86.2575 56.618 81.9861L56.5 81.5002Z" fill="#FAE4C8"/>
<path d="M124.333 152.293C124.333 153.766 125.527 154.96 127 154.96C128.473 154.96 129.667 153.766 129.667 152.293C129.667 150.821 128.473 149.627 127 149.627C125.527 149.627 124.333 150.821 124.333 152.293ZM66 149.5L65.7669 149.058L66 149.5ZM0.833333 132.5C0.833333 133.973 2.02724 135.167 3.5 135.167C4.97276 135.167 6.16667 133.973 6.16667 132.5C6.16667 131.028 4.97276 129.834 3.5 129.834C2.02724 129.834 0.833333 131.028 0.833333 132.5ZM127 152.293C127.109 151.805 127.108 151.805 127.108 151.805C127.108 151.805 127.107 151.805 127.106 151.805C127.105 151.805 127.103 151.804 127.1 151.803C127.094 151.802 127.085 151.8 127.074 151.798C127.051 151.793 127.017 151.785 126.973 151.775C126.883 151.756 126.751 151.727 126.578 151.69C126.232 151.616 125.722 151.508 125.069 151.373C123.764 151.104 121.883 150.728 119.582 150.3C114.979 149.445 108.691 148.384 101.951 147.56C95.2136 146.736 88.0128 146.147 81.5883 146.241C75.1853 146.334 69.4725 147.105 65.7669 149.058L66 149.5L66.2331 149.943C69.7149 148.108 75.2208 147.334 81.6029 147.241C87.9636 147.148 95.1144 147.731 101.83 148.552C108.543 149.373 114.81 150.431 119.399 151.283C121.693 151.709 123.567 152.084 124.868 152.352C125.518 152.486 126.024 152.594 126.368 152.668C126.54 152.705 126.671 152.733 126.759 152.752C126.803 152.762 126.836 152.769 126.858 152.774C126.87 152.777 126.878 152.779 126.883 152.78C126.886 152.78 126.888 152.781 126.89 152.781C126.89 152.781 126.891 152.781 126.891 152.781C126.891 152.782 126.891 152.782 127 152.293ZM66 149.5L65.7669 149.058C47.4601 158.706 32.0249 154.506 21.1347 147.886C15.6825 144.571 11.3725 140.649 8.42457 137.554C6.95127 136.007 5.81996 134.668 5.05809 133.718C4.6772 133.243 4.38877 132.865 4.19624 132.607C4.09997 132.478 4.02769 132.379 3.97982 132.312C3.95588 132.279 3.93805 132.254 3.92638 132.237C3.92054 132.229 3.91624 132.223 3.91349 132.219C3.91211 132.217 3.91112 132.216 3.91052 132.215C3.91022 132.215 3.91006 132.214 3.90991 132.214C3.90985 132.214 3.90988 132.214 3.5 132.5C3.09012 132.787 3.09035 132.787 3.09067 132.788C3.09091 132.788 3.09133 132.789 3.09181 132.789C3.09276 132.791 3.09411 132.793 3.09584 132.795C3.0993 132.8 3.10431 132.807 3.11087 132.816C3.12399 132.835 3.1433 132.862 3.16874 132.897C3.21963 132.968 3.29505 133.071 3.39458 133.205C3.59365 133.471 3.88921 133.859 4.27784 134.343C5.05504 135.313 6.20498 136.674 7.70043 138.244C10.69 141.383 15.0675 145.367 20.6153 148.74C31.7251 155.495 47.5399 159.795 66.2331 149.943L66 149.5Z" fill="#FAE4C8"/>
<g clip-path="url(#clip0_4855_23825)">
<path d="M90.0847 94.113C90.164 94.2152 90.2777 94.285 90.4046 94.3095C90.5316 94.334 90.6631 94.3116 90.7747 94.2463C90.8858 94.1848 90.9713 94.0858 91.0159 93.9669C91.0604 93.848 91.061 93.7172 91.0177 93.5979C90.8401 93.0937 90.8039 92.5506 90.9128 92.0273C91.0217 91.5041 91.2717 91.0205 91.6357 90.6291C91.9997 90.2377 92.4637 89.9533 92.9777 89.8066C93.4917 89.66 94.036 89.6567 94.5517 89.7971C95.0674 89.9376 95.5349 90.2164 95.9036 90.6034C96.2722 90.9904 96.528 91.4709 96.6432 91.9928C96.7585 92.5148 96.7287 93.0583 96.5573 93.5645C96.3859 94.0708 96.0792 94.5205 95.6706 94.865C95.5479 94.9352 95.4581 95.0512 95.421 95.1875C95.3839 95.3239 95.4024 95.4694 95.4726 95.592C95.5427 95.7147 95.6587 95.8045 95.7951 95.8416C95.9314 95.8787 96.0769 95.8602 96.1996 95.79C96.4439 95.6909 96.6807 95.5739 96.9079 95.4402C97.8227 94.917 98.5618 94.1344 99.0317 93.1912C99.5016 92.248 99.6813 91.1866 99.548 90.1413C99.4148 89.0959 98.9745 88.1136 98.2829 87.3185C97.5914 86.5234 96.6796 85.9512 95.6628 85.6743C94.6461 85.3974 93.57 85.4282 92.5708 85.7629C91.5715 86.0975 90.694 86.721 90.0491 87.5544C89.4041 88.3878 89.0208 89.3937 88.9476 90.4449C88.8744 91.4962 89.1146 92.5455 89.6377 93.4603C89.7705 93.6885 89.9199 93.9067 90.0847 94.113ZM92.1467 87.1151C92.9943 86.6289 93.9833 86.4487 94.948 86.6048C95.9126 86.7608 96.7944 87.2436 97.4455 87.9722C98.0967 88.7009 98.4777 89.6311 98.5248 90.6072C98.5719 91.5832 98.2822 92.5458 97.7042 93.3337C97.8864 92.348 97.6915 91.3299 97.1581 90.4811C96.6247 89.6324 95.7919 89.0152 94.8247 88.7518C93.8575 88.4884 92.8267 88.5981 91.9366 89.0592C91.0466 89.5202 90.3623 90.299 90.0195 91.2409C89.9375 90.4212 90.0947 89.5953 90.4722 88.863C90.8497 88.1308 91.4313 87.5237 92.1467 87.1151Z" fill="#FFF9F1"/>
</g>
<g clip-path="url(#clip1_4855_23825)">
<path d="M97.3456 69.4078C97.3369 69.5665 97.3916 69.7222 97.4977 69.8406C97.6037 69.959 97.7525 70.0304 97.9112 70.0391C98.6294 70.0785 100.299 70.2901 100.239 71.3674C100.192 72.2292 99.8387 72.5459 98.9769 72.4987C98.2802 72.3333 97.6144 72.0577 97.0047 71.6822C95.6611 71.0082 94.2728 70.2717 93.2691 70.841C92.9684 71.0528 92.7269 71.3383 92.5679 71.6701C92.4089 72.0019 92.3376 72.3689 92.3608 72.736C92.3392 73.086 92.4015 73.4361 92.5426 73.7571C92.6837 74.0781 92.8995 74.3607 93.172 74.5814L92.2624 74.5315L92.2952 73.933C92.3039 73.7743 92.2492 73.6186 92.1431 73.5002C92.037 73.3818 91.8883 73.3104 91.7295 73.3017C91.5708 73.293 91.4151 73.3477 91.2967 73.4538C91.1783 73.5598 91.1069 73.7086 91.0982 73.8673L91.0654 74.4658L89.8685 74.4002C89.7097 74.3915 89.554 74.4462 89.4357 74.5522C89.3173 74.6583 89.2459 74.8071 89.2372 74.9658C89.2284 75.1245 89.2831 75.2802 89.3892 75.3986C89.4953 75.517 89.6441 75.5884 89.8028 75.5971L90.9997 75.6628L90.9669 76.2612C90.9582 76.42 91.0129 76.5756 91.119 76.694C91.2251 76.8124 91.3738 76.8838 91.5326 76.8925C91.6913 76.9012 91.847 76.8465 91.9654 76.7405C92.0838 76.6344 92.1552 76.4856 92.1639 76.3269L92.1967 75.7284L97.583 76.0239C97.7417 76.0326 97.8974 75.9779 98.0158 75.8718C98.1342 75.7657 98.2056 75.6169 98.2143 75.4582C98.223 75.2995 98.1683 75.1438 98.0622 75.0254C97.9561 74.907 97.8073 74.8356 97.6486 74.8269C96.5594 74.7672 93.4777 74.262 93.5578 72.8017C93.5847 72.3109 93.6929 71.9807 93.8604 71.8819C94.3 71.6359 95.5958 72.3072 96.4539 72.7505C97.2065 73.2168 98.0401 73.5374 98.9112 73.6956C99.2321 73.7472 99.5604 73.7264 99.8721 73.6349C100.184 73.5433 100.471 73.3833 100.713 73.1664C100.955 72.9496 101.146 72.6814 101.271 72.3815C101.396 72.0816 101.453 71.7576 101.436 71.433C101.518 69.9368 100.227 68.9656 97.9769 68.8422C97.8182 68.8335 97.6625 68.8882 97.5441 68.9942C97.4257 69.1003 97.3543 69.2491 97.3456 69.4078Z" fill="#FFF9F1"/>
</g>
<g clip-path="url(#clip2_4855_23825)">
<g clip-path="url(#clip3_4855_23825)">
<path d="M152.543 13.9686C152.455 13.0852 152.09 12.2523 151.499 11.59L152.086 10.8067C152.139 10.7443 152.178 10.6718 152.202 10.5937C152.225 10.5156 152.233 10.4335 152.223 10.3524C152.214 10.2713 152.188 10.193 152.147 10.1223C152.107 10.0516 152.052 9.9899 151.987 9.94108C151.921 9.89227 151.847 9.85734 151.767 9.83844C151.688 9.81955 151.605 9.81707 151.525 9.83118C151.445 9.84529 151.368 9.87568 151.3 9.92048C151.232 9.96529 151.173 10.0236 151.128 10.0917L150.596 10.8158C149.82 10.3237 148.902 10.1038 147.987 10.1906C147.072 10.2774 146.212 10.6659 145.542 11.2951L144.883 10.6841C144.765 10.574 144.609 10.515 144.448 10.5201C144.288 10.5252 144.135 10.594 144.025 10.7113C143.915 10.8286 143.856 10.9848 143.861 11.1456C143.866 11.3064 143.935 11.4586 144.052 11.5686L144.77 12.2282C144.409 12.8483 144.214 13.5507 144.202 14.2681C144.19 14.9856 144.363 15.694 144.703 16.3256C145.044 16.9572 145.541 17.4908 146.147 17.8752C146.753 18.2596 147.447 18.482 148.164 18.5211L148.227 19.1886L147.631 19.2452C147.473 19.2602 147.327 19.3373 147.226 19.4597C147.125 19.5821 147.076 19.7396 147.091 19.8977C147.106 20.0557 147.184 20.2014 147.306 20.3025C147.428 20.4037 147.586 20.4521 147.744 20.4371L148.34 20.3806L148.453 21.5726C148.468 21.7306 148.545 21.8763 148.667 21.9774C148.79 22.0786 148.947 22.127 149.105 22.112C149.264 22.097 149.409 22.0199 149.51 21.8975C149.612 21.7751 149.66 21.6176 149.645 21.4595L149.532 20.2676L150.128 20.211C150.286 20.196 150.432 20.1189 150.533 19.9965C150.634 19.8741 150.682 19.7166 150.667 19.5585C150.652 19.4005 150.575 19.2548 150.453 19.1537C150.33 19.0525 150.173 19.0041 150.015 19.0191L149.419 19.0756L149.358 18.4319C150.336 18.1946 151.197 17.613 151.781 16.7934C152.366 15.9738 152.636 14.971 152.543 13.9686ZM145.391 14.6469C145.335 14.0575 145.455 13.4648 145.736 12.9437C146.017 12.4226 146.446 11.9965 146.969 11.7193C147.492 11.4421 148.086 11.3263 148.675 11.3865C149.264 11.4466 149.822 11.6801 150.278 12.0573C150.734 12.4345 151.068 12.9386 151.238 13.5057C151.408 14.0728 151.406 14.6776 151.232 15.2435C151.058 15.8094 150.72 16.311 150.261 16.6849C149.802 17.0589 149.243 17.2883 148.653 17.3442C147.863 17.4191 147.075 17.1771 146.463 16.6712C145.852 16.1654 145.466 15.4372 145.391 14.6469Z" fill="#FFF9F1"/>
</g>
<path d="M171.728 8.30486C171.654 8.16466 171.527 8.05968 171.375 8.01292C171.3 7.98912 171.222 7.9802 171.143 7.98666L168.157 8.2699C167.999 8.28493 167.853 8.36226 167.751 8.4849C167.65 8.60754 167.601 8.76543 167.616 8.92384C167.631 9.08225 167.709 9.22821 167.831 9.3296C167.954 9.43099 168.112 9.47951 168.27 9.46448L169.817 9.31776L167.822 11.7308C166.925 11.1547 165.861 10.897 164.8 10.999C163.855 11.0886 162.958 11.4565 162.222 12.056C161.486 12.6556 160.944 13.46 160.665 14.3674C160.386 15.2748 160.383 16.2445 160.655 17.154C160.927 18.0634 161.463 18.8716 162.195 19.4765C162.926 20.0814 163.821 20.4557 164.765 20.5522C165.71 20.6486 166.661 20.4629 167.5 20.0184C168.339 19.574 169.027 18.8907 169.478 18.0551C169.928 17.2196 170.121 16.2691 170.031 15.3241C169.932 14.2628 169.479 13.2657 168.744 12.4931L170.739 10.0801L170.886 11.627C170.901 11.7855 170.978 11.9314 171.101 12.0328C171.224 12.1342 171.382 12.1827 171.54 12.1677C171.698 12.1527 171.844 12.0753 171.946 11.9527C172.047 11.83 172.096 11.6722 172.081 11.5137L171.797 8.5273C171.789 8.44934 171.765 8.37377 171.728 8.30486ZM165.593 19.361C164.884 19.4282 164.171 19.2838 163.545 18.9459C162.918 18.608 162.406 18.0918 162.072 17.4627C161.739 16.8336 161.599 16.1198 161.672 15.4115C161.744 14.7032 162.025 14.0323 162.479 13.4835C162.932 12.9348 163.538 12.5329 164.221 12.3287C164.903 12.1245 165.63 12.1271 166.31 12.3363C166.991 12.5454 167.594 12.9516 168.044 13.5036C168.494 14.0556 168.77 14.7286 168.837 15.4374C168.927 16.3878 168.636 17.3352 168.027 18.071C167.419 18.8068 166.543 19.2709 165.593 19.361Z" fill="#FFF9F1"/>
</g>
<g clip-path="url(#clip4_4855_23825)">
<path d="M164.649 151.554C164.554 150.755 164.231 150 163.72 149.379C163.208 148.757 162.528 148.297 161.762 148.051C160.995 147.805 160.174 147.785 159.396 147.992C158.619 148.2 157.917 148.627 157.375 149.222C156.834 149.817 156.474 150.556 156.34 151.349C156.206 152.143 156.303 152.959 156.62 153.699C156.936 154.439 157.459 155.072 158.125 155.524C158.791 155.975 159.573 156.226 160.378 156.245L160.455 156.888L159.859 156.96C159.702 156.978 159.558 157.059 159.459 157.184C159.361 157.309 159.316 157.468 159.335 157.626C159.354 157.784 159.435 157.928 159.56 158.027C159.685 158.125 159.844 158.169 160.002 158.151L160.597 158.079L160.74 159.27C160.759 159.428 160.84 159.572 160.965 159.67C161.09 159.769 161.249 159.813 161.407 159.794C161.565 159.776 161.709 159.695 161.807 159.57C161.905 159.445 161.95 159.286 161.931 159.128L161.788 157.937L162.384 157.865C162.542 157.847 162.686 157.766 162.784 157.641C162.882 157.516 162.927 157.357 162.908 157.199C162.889 157.041 162.808 156.897 162.683 156.799C162.558 156.7 162.399 156.656 162.241 156.674L161.646 156.746L161.569 156.103C162.543 155.841 163.39 155.237 163.956 154.402C164.521 153.567 164.767 152.556 164.649 151.554ZM157.503 152.41C157.432 151.821 157.538 151.224 157.807 150.695C158.075 150.167 158.495 149.729 159.012 149.439C159.529 149.148 160.12 149.018 160.712 149.064C161.303 149.109 161.867 149.329 162.334 149.696C162.8 150.063 163.147 150.559 163.331 151.123C163.515 151.687 163.528 152.292 163.367 152.863C163.207 153.434 162.881 153.945 162.431 154.331C161.98 154.717 161.425 154.96 160.837 155.031C160.047 155.125 159.252 154.902 158.627 154.411C158.002 153.919 157.597 153.199 157.503 152.41Z" fill="#FFF9F1"/>
</g>
<g clip-path="url(#clip5_4855_23825)">
<path d="M184.157 152.156L182.966 152.299L182.253 146.346L183.444 146.203C183.602 146.184 183.746 146.103 183.844 145.978C183.942 145.853 183.987 145.694 183.968 145.537C183.949 145.379 183.868 145.235 183.743 145.136C183.618 145.038 183.459 144.994 183.302 145.012L181.516 145.226C181.358 145.245 181.214 145.326 181.115 145.451C181.017 145.576 180.973 145.735 180.991 145.893L181.348 148.869L178.966 149.154L178.61 146.178C178.591 146.02 178.51 145.876 178.385 145.778C178.26 145.679 178.101 145.635 177.944 145.654C177.786 145.673 177.642 145.753 177.543 145.878C177.445 146.003 177.401 146.162 177.419 146.32L177.776 149.297L175.394 149.582L175.038 146.605C175.019 146.447 174.938 146.303 174.813 146.205C174.688 146.107 174.529 146.062 174.372 146.081L172.586 146.295C172.428 146.314 172.284 146.395 172.185 146.52C172.087 146.645 172.043 146.804 172.061 146.962C172.08 147.119 172.161 147.263 172.286 147.362C172.411 147.46 172.57 147.505 172.728 147.486L173.919 147.343L174.631 153.296L173.441 153.439C173.283 153.458 173.139 153.539 173.04 153.664C172.942 153.789 172.898 153.948 172.916 154.106C172.935 154.263 173.016 154.407 173.141 154.506C173.266 154.604 173.425 154.649 173.583 154.63L175.369 154.416C175.527 154.397 175.671 154.316 175.769 154.191C175.867 154.066 175.912 153.907 175.893 153.749L175.537 150.773L177.918 150.488L178.213 152.952C177.669 153.164 177.222 153.567 176.954 154.086C176.686 154.605 176.616 155.203 176.758 155.77C176.9 156.336 177.243 156.831 177.724 157.162C178.205 157.493 178.79 157.637 179.369 157.568C179.949 157.499 180.484 157.22 180.873 156.785C181.262 156.35 181.479 155.788 181.483 155.204C181.487 154.62 181.278 154.055 180.895 153.614C180.513 153.174 179.982 152.888 179.404 152.81L179.109 150.345L181.49 150.06L181.846 153.037C181.865 153.195 181.946 153.339 182.071 153.437C182.196 153.535 182.355 153.58 182.513 153.561L184.299 153.347C184.457 153.328 184.601 153.247 184.699 153.122C184.797 152.997 184.842 152.838 184.823 152.681C184.804 152.523 184.723 152.379 184.598 152.28C184.473 152.182 184.314 152.138 184.157 152.156ZM180.274 155.037C180.302 155.272 180.26 155.511 180.153 155.722C180.045 155.933 179.878 156.108 179.671 156.225C179.464 156.341 179.228 156.393 178.991 156.375C178.755 156.356 178.529 156.268 178.342 156.122C178.156 155.975 178.017 155.777 177.944 155.551C177.87 155.326 177.865 155.083 177.929 154.855C177.993 154.627 178.123 154.422 178.304 154.268C178.484 154.114 178.706 154.017 178.941 153.988C179.257 153.951 179.575 154.04 179.825 154.236C180.075 154.433 180.236 154.721 180.274 155.037Z" fill="#FFF9F1"/>
</g>
<defs>
<clipPath id="clip0_4855_23825">
<rect width="12" height="12" fill="white" transform="translate(88.1172 96.5576) rotate(-86.8604)"/>
</clipPath>
<clipPath id="clip1_4855_23825">
<rect width="12" height="12" fill="white" transform="translate(89.1035 78.5845) rotate(-86.8604)"/>
</clipPath>
<clipPath id="clip2_4855_23825">
<rect width="30" height="12" fill="white" transform="translate(142 10.833) rotate(-5.41792)"/>
</clipPath>
<clipPath id="clip3_4855_23825">
<rect width="12" height="12" fill="white" transform="translate(142 10.833) rotate(-5.41792)"/>
</clipPath>
<clipPath id="clip4_4855_23825">
<rect width="12" height="12" fill="white" transform="translate(154 148.565) rotate(-6.82484)"/>
</clipPath>
<clipPath id="clip5_4855_23825">
<rect width="12" height="12" fill="white" transform="translate(171.873 146.426) rotate(-6.82484)"/>
</clipPath>
</defs>
</svg>
