<svg xmlns="http://www.w3.org/2000/svg" viewBox="0 0 30 30"><defs><style>.cls-1{fill:none;stroke:#cb8020;stroke-linecap:round;stroke-linejoin:round;stroke-width:1.5px;}</style></defs><title>all2</title><g id="Layer_1" data-name="Layer 1"><line class="cls-1" x1="15" y1="10.09" x2="15" y2="19.91"/><line class="cls-1" x1="19.91" y1="15" x2="10.19" y2="15"/><path class="cls-1" d="M17,5H13c-2.8,0-4.2,0-5.27.54A5,5,0,0,0,5.55,7.73C5,8.8,5,10.2,5,13v4c0,2.8,0,4.2.55,5.27a4.89,4.89,0,0,0,2.18,2.18C8.8,25,10.2,25,13,25h4c2.8,0,4.2,0,5.27-.55a4.89,4.89,0,0,0,2.18-2.18C25,21.2,25,19.8,25,17V13c0-2.8,0-4.2-.55-5.27a5,5,0,0,0-2.18-2.19C21.2,5,19.8,5,17,5Z"/></g></svg>