<svg width="104" height="104" viewBox="0 0 104 104" fill="none" xmlns="http://www.w3.org/2000/svg">
<path d="M12 0.5625H91.999C98.3503 0.5625 103.499 5.71122 103.499 12.0625V92C103.499 98.3511 98.3502 103.5 91.999 103.5H12C5.64882 103.5 0.500144 98.3512 0.5 92V12.0625C0.5 5.71123 5.64873 0.5625 12 0.5625Z" stroke="#CB8020"/>
<path d="M21.3027 41.8233H41.6974V21.4448H21.3027V41.8233ZM23.8414 23.9815H39.1586V39.2865H23.8414V23.9815Z" fill="#CB8020"/>
<path d="M35.9859 27.1528H27.0156V36.116H35.9859V27.1528Z" fill="#CB8020"/>
<path d="M21.3027 82.5802H41.6974V62.2017H21.3027V82.5802ZM23.8414 64.7384H39.1586V80.0434H23.8414V64.7384Z" fill="#CB8020"/>
<path d="M35.9859 67.9097H27.0156V76.8729H35.9859V67.9097Z" fill="#CB8020"/>
<path d="M82.4884 21.4448H62.0938V41.8233H82.4884V21.4448ZM79.9496 39.2865H64.6324V23.9815H79.9496V39.2865Z" fill="#CB8020"/>
<path d="M76.775 27.1528H67.8047V36.116H76.775V27.1528Z" fill="#CB8020"/>
<path d="M15.479 15.5387H32.4964V12.0625H12V32.5427H15.479V15.5387Z" fill="#CB8020"/>
<path d="M71.5039 12.0625V15.5387H88.5214V32.5427H92.0003V12.0625H71.5039Z" fill="#CB8020"/>
<path d="M15.479 71.5195H12V91.9997H32.4964V88.5235H15.479V71.5195Z" fill="#CB8020"/>
<path d="M88.5214 88.5235H71.5039V91.9997H92.0003V71.5195H88.5214V88.5235Z" fill="#CB8020"/>
<path d="M47.5249 27.2671H44.6113V30.1783H47.5249V27.2671Z" fill="#CB8020"/>
<path d="M53.353 27.2671H50.4395V30.1783H53.353V27.2671Z" fill="#CB8020"/>
<path d="M53.353 21.4448H50.4395V24.356H53.353V21.4448Z" fill="#CB8020"/>
<path d="M59.1811 24.356V21.4448H56.2676V24.356V27.2672H59.1811V24.356Z" fill="#CB8020"/>
<path d="M59.1811 38.9121H56.2676V41.8233H59.1811V38.9121Z" fill="#CB8020"/>
<path d="M70.834 62.2018H73.7475V59.2906V56.3794H70.834V59.2906V62.2018Z" fill="#CB8020"/>
<path d="M82.4872 70.9354V68.0242V65.113V62.2018V59.2906H79.5737V56.3794H76.6602V59.2906V62.2018V65.113V68.0242V70.9354V73.8466H79.5737V70.9354H82.4872Z" fill="#CB8020"/>
<path d="M76.6616 73.8467H73.748V76.7579H76.6616V73.8467Z" fill="#CB8020"/>
<path d="M82.4878 73.8467H79.5742V76.7579H82.4878V73.8467Z" fill="#CB8020"/>
<path d="M76.6602 79.669V82.5803H79.5737H82.4872V79.669H79.5737V76.7578H76.6602V79.669Z" fill="#CB8020"/>
<path d="M67.9195 68.0246H70.833V65.1134V62.2022H67.9195V65.1134H65.006H62.0925V68.0246V70.9358H65.006V73.847H62.0925V70.9358H59.179V73.847V76.7583H56.2655V73.847V70.9358H53.3519V73.847V76.7583H50.4384V79.6695H47.5249V76.7583H50.4384V73.847V70.9358V68.0246H47.5249V65.1134V62.2022H50.4384H53.3519V59.291H50.4384H47.5249H44.6113V62.2022V65.1134V68.0246V70.9358H47.5249V73.847H44.6113V76.7583V79.6695V82.5807H47.5249H50.4384H53.3519H56.2655V79.6695H59.179V82.5807H62.0925H65.006V79.6695H62.0925V76.7583H65.006H67.9195H70.833V73.847V70.9358H67.9195V68.0246Z" fill="#CB8020"/>
<path d="M73.7475 68.0244H70.834V70.9356H73.7475V68.0244Z" fill="#CB8020"/>
<path d="M76.6616 44.7344H73.748V47.6456H76.6616V44.7344Z" fill="#CB8020"/>
<path d="M76.661 53.468H79.5746H82.4881V50.5567V47.6455H79.5746H76.661V50.5567H73.7475V47.6455H70.834V50.5567V53.468H73.7475H76.661Z" fill="#CB8020"/>
<path d="M50.4389 41.8231V44.7343V47.6456H53.3525V44.7343V41.8231V38.9119H56.266V36.0007H59.1795V33.0894V30.1782H56.266V33.0894H53.3525V36.0007H50.4389V33.0894H47.5254V36.0007V38.9119H50.4389V41.8231Z" fill="#CB8020"/>
<path d="M35.8711 56.3795V59.2907H38.7846H41.6982V56.3795H38.7846V53.4683H35.8711V56.3795Z" fill="#CB8020"/>
<path d="M41.6987 50.5571H38.7852V53.4684H41.6987V50.5571Z" fill="#CB8020"/>
<path d="M32.9568 50.5568V47.6456H30.0432V44.7344H27.1298H24.2163H21.3027V47.6456V50.5568V53.468V56.3793V59.2905H24.2163V56.3793H27.1298H30.0432V53.468H27.1298V50.5568H30.0432V53.468H32.9568H35.8703V50.5568H32.9568Z" fill="#CB8020"/>
<path d="M32.9585 56.3794H30.0449V59.2906H32.9585V56.3794Z" fill="#CB8020"/>
<path d="M56.2672 56.3794H59.1808V59.2907H62.0943V62.2019H65.0078H67.9214V59.2907V56.3794H70.8349V53.4682H67.9214V50.557V47.6458H65.0078V50.557H62.0943V47.6458H65.0078V44.7346H62.0943H59.1808H56.2672V47.6458H59.1808V50.557V53.4682H56.2672V50.557V47.6458H53.3537V50.557H50.4402H47.5266V47.6458V44.7346V41.8233V38.9121H44.6131V41.8233V44.7346H41.6996H38.786H35.8725H32.959V47.6458H35.8725V50.557H38.786V47.6458H41.6996H44.6131V50.557V53.4682V56.3794H47.5266H50.4402H53.3537V59.2907H56.2672V56.3794ZM65.0077 53.4682V56.3794H62.0942V53.4682H65.0077Z" fill="#CB8020"/>
<path d="M59.1811 62.2017H56.2676V65.1129H59.1811V62.2017Z" fill="#CB8020"/>
<path d="M59.1811 68.0244H56.2676V70.9356H59.1811V68.0244Z" fill="#CB8020"/>
<path d="M53.353 65.1128H50.4395V68.024H53.353V65.1128Z" fill="#CB8020"/>
</svg>
