<svg width="152" height="151" viewBox="0 0 152 151" fill="none" xmlns="http://www.w3.org/2000/svg">
<path d="M1 12C1 5.64874 6.14873 0.5 12.5 0.5H139.5C145.851 0.5 151 5.64873 151 12V138.9C151 145.252 145.851 150.401 139.5 150.401H12.5C6.14871 150.401 1 145.252 1 138.901V12Z" stroke="#CB8020"/>
<path d="M27.2695 59.2454H59.646V26.8945H27.2695V59.2454ZM31.2997 30.9215H55.6157V55.2183H31.2997V30.9215Z" fill="#CB8020"/>
<path d="M50.5782 35.9556H36.3379V50.1847H50.5782V35.9556Z" fill="#CB8020"/>
<path d="M27.2695 123.947H59.646V91.5962H27.2695V123.947ZM31.2997 95.6233H55.6157V119.92H31.2997V95.6233Z" fill="#CB8020"/>
<path d="M50.5782 100.657H36.3379V114.886H50.5782V100.657Z" fill="#CB8020"/>
<path d="M124.4 26.8945H92.0234V59.2454H124.4V26.8945ZM120.37 55.2183H96.0536V30.9215H120.37V55.2183Z" fill="#CB8020"/>
<path d="M115.33 35.9556H101.09V50.1847H115.33V35.9556Z" fill="#CB8020"/>
<path d="M18.0229 17.5185H45.0381V12H12.5V44.5124H18.0229V17.5185Z" fill="#CB8020"/>
<path d="M106.961 12V17.5185H133.976V44.5124H139.499V12H106.961Z" fill="#CB8020"/>
<path d="M18.0229 106.388H12.5V138.901H45.0381V133.382H18.0229V106.388Z" fill="#CB8020"/>
<path d="M133.976 133.382H106.961V138.901H139.499V106.388H133.976V133.382Z" fill="#CB8020"/>
<path d="M68.8967 36.1377H64.2715V40.7593H68.8967V36.1377Z" fill="#CB8020"/>
<path d="M78.1487 36.1377H73.5234V40.7593H78.1487V36.1377Z" fill="#CB8020"/>
<path d="M78.1487 26.8945H73.5234V31.5161H78.1487V26.8945Z" fill="#CB8020"/>
<path d="M87.3987 31.5161V26.8945H82.7734V31.5161V36.1375H87.3987V31.5161Z" fill="#CB8020"/>
<path d="M87.3987 54.6235H82.7734V59.2451H87.3987V54.6235Z" fill="#CB8020"/>
<path d="M105.898 91.596H110.524V86.9746V82.353H105.898V86.9746V91.596Z" fill="#CB8020"/>
<path d="M124.399 105.461V100.839V96.2176V91.596V86.9746H119.774V82.353H115.148V86.9746V91.596V96.2176V100.839V105.461V110.082H119.774V105.461H124.399Z" fill="#CB8020"/>
<path d="M115.149 110.083H110.523V114.704H115.149V110.083Z" fill="#CB8020"/>
<path d="M124.399 110.083H119.773V114.704H124.399V110.083Z" fill="#CB8020"/>
<path d="M115.148 119.326V123.947H119.774H124.399V119.326H119.774V114.704H115.148V119.326Z" fill="#CB8020"/>
<path d="M101.273 100.84H105.898V96.2181V91.5965H101.273V96.2181H96.6479H92.0228V100.84V105.461H96.6479V110.083H92.0228V105.461H87.3976V110.083V114.704H82.7724V110.083V105.461H78.1472V110.083V114.704H73.5219V119.326H68.8967V114.704H73.5219V110.083V105.461V100.84H68.8967V96.2181V91.5965H73.5219H78.1472V86.9751H73.5219H68.8967H64.2715V91.5965V96.2181V100.84V105.461H68.8967V110.083H64.2715V114.704V119.326V123.948H68.8967H73.5219H78.1472H82.7724V119.326H87.3976V123.948H92.0228H96.6479V119.326H92.0228V114.704H96.6479H101.273H105.898V110.083V105.461H101.273V100.84Z" fill="#CB8020"/>
<path d="M110.524 100.839H105.898V105.461H110.524V100.839Z" fill="#CB8020"/>
<path d="M115.149 63.8667H110.523V68.4883H115.149V63.8667Z" fill="#CB8020"/>
<path d="M115.149 77.7314H119.774H124.399V73.1099V68.4883H119.774H115.149V73.1099H110.524V68.4883H105.898V73.1099V77.7314H110.524H115.149Z" fill="#CB8020"/>
<path d="M73.5217 59.2451V63.8667V68.4882H78.1469V63.8667V59.2451V54.6235H82.7722V50.0019H87.3974V45.3804V40.7588H82.7722V45.3804H78.1469V50.0019H73.5217V45.3804H68.8965V50.0019V54.6235H73.5217V59.2451Z" fill="#CB8020"/>
<path d="M50.3945 82.353V86.9746H55.0198H59.645V82.353H55.0198V77.7314H50.3945V82.353Z" fill="#CB8020"/>
<path d="M59.6467 73.1104H55.0215V77.7319H59.6467V73.1104Z" fill="#CB8020"/>
<path d="M45.7703 73.1098V68.4883H41.1451V63.8667H36.52H31.8948H27.2695V68.4883V73.1098V77.7314V82.353V86.9746H31.8948V82.353H36.52H41.1451V77.7314H36.52V73.1098H41.1451V77.7314H45.7703H50.3955V73.1098H45.7703Z" fill="#CB8020"/>
<path d="M45.7717 82.353H41.1465V86.9746H45.7717V82.353Z" fill="#CB8020"/>
<path d="M82.7733 82.353H87.3985V86.9745H92.0237V91.5961H96.649H101.274V86.9745V82.353H105.899V77.7314H101.274V73.1098V68.4883H96.649V73.1098H92.0237V68.4883H96.649V63.8667H92.0237H87.3985H82.7733V68.4883H87.3985V73.1098V77.7314H82.7733V73.1098V68.4883H78.1481V73.1098H73.5228H68.8976V68.4883V63.8667V59.2451V54.6235H64.2724V59.2451V63.8667H59.6472H55.0219H50.3967H45.7715V68.4883H50.3967V73.1098H55.0219V68.4883H59.6472H64.2724V73.1098V77.7314V82.353H68.8976H73.5228H78.1481V86.9745H82.7733V82.353ZM96.6488 77.7314V82.353H92.0236V77.7314H96.6488Z" fill="#CB8020"/>
<path d="M87.3987 91.5962H82.7734V96.2178H87.3987V91.5962Z" fill="#CB8020"/>
<path d="M87.3987 100.839H82.7734V105.461H87.3987V100.839Z" fill="#CB8020"/>
<path d="M78.1487 96.2178H73.5234V100.839H78.1487V96.2178Z" fill="#CB8020"/>
</svg>
