<svg width="100" height="20" viewBox="0 0 100 20" fill="none" xmlns="http://www.w3.org/2000/svg">
  <defs>
    <clipPath id="star-clip">
      <path d="M10 1L12.3 6.4L18 7.1L13.9 11.2L15 17L10 14L5 17L6.1 11.2L2 7.1L7.7 6.4L10 1Z"/>
    </clipPath>
    <linearGradient id="half-fill" x1="0" y1="0" x2="20" y2="0" gradientUnits="userSpaceOnUse">
      <stop offset="50%" stop-color="#CB8020"/>
      <stop offset="50%" stop-color="white" stop-opacity="0"/>
    </linearGradient>
  </defs>

  <!-- 1st star -->
  <g transform="translate(0,0)">
    <path d="M10 1L12.3 6.4L18 7.1L13.9 11.2L15 17L10 14L5 17L6.1 11.2L2 7.1L7.7 6.4L10 1Z" fill="#CB8020" stroke="#CB8020" stroke-width="1.5" stroke-linecap="round" stroke-linejoin="round"/>
  </g>

  <!-- 2nd star -->
  <g transform="translate(20,0)">
    <path d="M10 1L12.3 6.4L18 7.1L13.9 11.2L15 17L10 14L5 17L6.1 11.2L2 7.1L7.7 6.4L10 1Z" fill="#CB8020" stroke="#CB8020" stroke-width="1.5" stroke-linecap="round" stroke-linejoin="round"/>
  </g>

  <!-- 3rd star -->
  <g transform="translate(40,0)">
    <path d="M10 1L12.3 6.4L18 7.1L13.9 11.2L15 17L10 14L5 17L6.1 11.2L2 7.1L7.7 6.4L10 1Z" fill="#CB8020" stroke="#CB8020" stroke-width="1.5" stroke-linecap="round" stroke-linejoin="round"/>
  </g>

  <!-- 4th star -->
  <g transform="translate(60,0)">
    <path d="M10 1L12.3 6.4L18 7.1L13.9 11.2L15 17L10 14L5 17L6.1 11.2L2 7.1L7.7 6.4L10 1Z" fill="#CB8020" stroke="#CB8020" stroke-width="1.5" stroke-linecap="round" stroke-linejoin="round"/>
  </g>

  <!-- 5th star - half filled -->
  <g transform="translate(80,0)">
    <path d="M10 1L12.3 6.4L18 7.1L13.9 11.2L15 17L10 14L5 17L6.1 11.2L2 7.1L7.7 6.4L10 1Z" fill="url(#half-fill)" stroke="#CB8020" stroke-width="1.5" stroke-linecap="round" stroke-linejoin="round" clip-path="url(#star-clip)"/>
  </g>
</svg>
