<svg width="97" height="17" viewBox="0 0 97 17" fill="none" xmlns="http://www.w3.org/2000/svg">
<g clip-path="url(#clip0_4895_23671)">
<g clip-path="url(#clip1_4895_23671)">
<path d="M9.65213 2.32725L10.8255 4.69325C10.9855 5.02258 11.4121 5.33858 11.7721 5.39858L13.8981 5.75525C15.2581 5.98391 15.5781 6.97858 14.5981 7.95991L12.9448 9.62658C12.6648 9.90858 12.5115 10.4532 12.5981 10.8432L13.0715 12.9066C13.4448 14.5399 12.5848 15.1712 11.1515 14.3179L9.15813 13.1279C8.79813 12.9132 8.2048 12.9132 7.83813 13.1279L5.84613 14.3179C4.41946 15.1712 3.5528 14.5326 3.92613 12.9066L4.39946 10.8432C4.48613 10.4532 4.3328 9.90858 4.0528 9.62658L2.39946 7.95991C1.4268 6.97791 1.74013 5.98391 3.09946 5.75525L5.22613 5.39858C5.57946 5.33858 6.00613 5.02258 6.16613 4.69325L7.33946 2.32725C7.97946 1.04391 9.01946 1.04391 9.6528 2.32725" fill="#CB8020"/>
<path d="M9.65213 2.32725L10.8255 4.69325C10.9855 5.02258 11.4121 5.33858 11.7721 5.39858L13.8981 5.75525C15.2581 5.98391 15.5781 6.97858 14.5981 7.95991L12.9448 9.62658C12.6648 9.90858 12.5115 10.4532 12.5981 10.8432L13.0715 12.9066C13.4448 14.5399 12.5848 15.1712 11.1515 14.3179L9.15813 13.1279C8.79813 12.9132 8.2048 12.9132 7.83813 13.1279L5.84613 14.3179C4.41946 15.1712 3.5528 14.5326 3.92613 12.9066L4.39946 10.8432C4.48613 10.4532 4.3328 9.90858 4.0528 9.62658L2.39946 7.95991C1.4268 6.97791 1.74013 5.98391 3.09946 5.75525L5.22613 5.39858C5.57946 5.33858 6.00613 5.02258 6.16613 4.69325L7.33946 2.32725C7.97946 1.04391 9.01946 1.04391 9.6528 2.32725" stroke="#CB8020" stroke-width="1.5" stroke-linecap="round" stroke-linejoin="round"/>
</g>
<g clip-path="url(#clip2_4895_23671)">
<path d="M29.6521 2.32725L30.8255 4.69325C30.9855 5.02258 31.4121 5.33858 31.7721 5.39858L33.8981 5.75525C35.2581 5.98391 35.5781 6.97858 34.5981 7.95991L32.9448 9.62658C32.6648 9.90858 32.5115 10.4532 32.5981 10.8432L33.0715 12.9066C33.4448 14.5399 32.5848 15.1712 31.1515 14.3179L29.1581 13.1279C28.7981 12.9132 28.2048 12.9132 27.8381 13.1279L25.8461 14.3179C24.4195 15.1712 23.5528 14.5326 23.9261 12.9066L24.3995 10.8432C24.4861 10.4532 24.3328 9.90858 24.0528 9.62658L22.3995 7.95991C21.4268 6.97791 21.7401 5.98391 23.0995 5.75525L25.2261 5.39858C25.5795 5.33858 26.0061 5.02258 26.1661 4.69325L27.3395 2.32725C27.9795 1.04391 29.0195 1.04391 29.6528 2.32725" fill="#CB8020"/>
<path d="M29.6521 2.32725L30.8255 4.69325C30.9855 5.02258 31.4121 5.33858 31.7721 5.39858L33.8981 5.75525C35.2581 5.98391 35.5781 6.97858 34.5981 7.95991L32.9448 9.62658C32.6648 9.90858 32.5115 10.4532 32.5981 10.8432L33.0715 12.9066C33.4448 14.5399 32.5848 15.1712 31.1515 14.3179L29.1581 13.1279C28.7981 12.9132 28.2048 12.9132 27.8381 13.1279L25.8461 14.3179C24.4195 15.1712 23.5528 14.5326 23.9261 12.9066L24.3995 10.8432C24.4861 10.4532 24.3328 9.90858 24.0528 9.62658L22.3995 7.95991C21.4268 6.97791 21.7401 5.98391 23.0995 5.75525L25.2261 5.39858C25.5795 5.33858 26.0061 5.02258 26.1661 4.69325L27.3395 2.32725C27.9795 1.04391 29.0195 1.04391 29.6528 2.32725" stroke="#CB8020" stroke-width="1.5" stroke-linecap="round" stroke-linejoin="round"/>
</g>
<g clip-path="url(#clip3_4895_23671)">
<path d="M49.6521 2.32725L50.8255 4.69325C50.9855 5.02258 51.4121 5.33858 51.7721 5.39858L53.8981 5.75525C55.2581 5.98391 55.5781 6.97858 54.5981 7.95991L52.9448 9.62658C52.6648 9.90858 52.5115 10.4532 52.5981 10.8432L53.0715 12.9066C53.4448 14.5399 52.5848 15.1712 51.1515 14.3179L49.1581 13.1279C48.7981 12.9132 48.2048 12.9132 47.8381 13.1279L45.8461 14.3179C44.4195 15.1712 43.5528 14.5326 43.9261 12.9066L44.3995 10.8432C44.4861 10.4532 44.3328 9.90858 44.0528 9.62658L42.3995 7.95991C41.4268 6.97791 41.7401 5.98391 43.0995 5.75525L45.2261 5.39858C45.5795 5.33858 46.0061 5.02258 46.1661 4.69325L47.3395 2.32725C47.9795 1.04391 49.0195 1.04391 49.6528 2.32725" fill="#CB8020"/>
<path d="M49.6521 2.32725L50.8255 4.69325C50.9855 5.02258 51.4121 5.33858 51.7721 5.39858L53.8981 5.75525C55.2581 5.98391 55.5781 6.97858 54.5981 7.95991L52.9448 9.62658C52.6648 9.90858 52.5115 10.4532 52.5981 10.8432L53.0715 12.9066C53.4448 14.5399 52.5848 15.1712 51.1515 14.3179L49.1581 13.1279C48.7981 12.9132 48.2048 12.9132 47.8381 13.1279L45.8461 14.3179C44.4195 15.1712 43.5528 14.5326 43.9261 12.9066L44.3995 10.8432C44.4861 10.4532 44.3328 9.90858 44.0528 9.62658L42.3995 7.95991C41.4268 6.97791 41.7401 5.98391 43.0995 5.75525L45.2261 5.39858C45.5795 5.33858 46.0061 5.02258 46.1661 4.69325L47.3395 2.32725C47.9795 1.04391 49.0195 1.04391 49.6528 2.32725" stroke="#CB8020" stroke-width="1.5" stroke-linecap="round" stroke-linejoin="round"/>
</g>
<g clip-path="url(#clip4_4895_23671)">
<path d="M68.5 1.03125V13.0312L64.5 15.0312L64 14.0312L64.5 10.0312L62 6.53125L65.5 5.03125L68.5 1.03125Z" fill="#CB8020"/>
<path d="M69.6521 2.32725L70.8255 4.69325C70.9855 5.02258 71.4121 5.33858 71.7721 5.39858L73.8981 5.75525C75.2581 5.98391 75.5781 6.97858 74.5981 7.95991L72.9448 9.62658C72.6648 9.90858 72.5115 10.4532 72.5981 10.8432L73.0715 12.9066C73.4448 14.5399 72.5848 15.1712 71.1515 14.3179L69.1581 13.1279C68.7981 12.9132 68.2048 12.9132 67.8381 13.1279L65.8461 14.3179C64.4195 15.1712 63.5528 14.5326 63.9261 12.9066L64.3995 10.8432C64.4861 10.4532 64.3328 9.90858 64.0528 9.62658L62.3995 7.95991C61.4268 6.97791 61.7401 5.98391 63.0995 5.75525L65.2261 5.39858C65.5795 5.33858 66.0061 5.02258 66.1661 4.69325L67.3395 2.32725C67.9795 1.04391 69.0195 1.04391 69.6528 2.32725" stroke="#CB8020" stroke-width="1.5" stroke-linecap="round" stroke-linejoin="round"/>
</g>
<g clip-path="url(#clip5_4895_23671)">
<path d="M89.6521 2.32725L90.8255 4.69325C90.9855 5.02258 91.4121 5.33858 91.7721 5.39858L93.8981 5.75525C95.2581 5.98391 95.5781 6.97858 94.5981 7.95991L92.9448 9.62658C92.6648 9.90858 92.5115 10.4532 92.5981 10.8432L93.0715 12.9066C93.4448 14.5399 92.5848 15.1712 91.1515 14.3179L89.1581 13.1279C88.7981 12.9132 88.2048 12.9132 87.8381 13.1279L85.8461 14.3179C84.4195 15.1712 83.5528 14.5326 83.9261 12.9066L84.3995 10.8432C84.4861 10.4532 84.3328 9.90858 84.0528 9.62658L82.3995 7.95991C81.4268 6.97791 81.7401 5.98391 83.0995 5.75525L85.2261 5.39858C85.5795 5.33858 86.0061 5.02258 86.1661 4.69325L87.3395 2.32725C87.9795 1.04391 89.0195 1.04391 89.6528 2.32725" stroke="#CB8020" stroke-width="1.5" stroke-linecap="round" stroke-linejoin="round"/>
</g>
</g>
<defs>
<clipPath id="clip0_4895_23671">
<rect width="96" height="16" fill="white" transform="translate(0.5 0.03125)"/>
</clipPath>
<clipPath id="clip1_4895_23671">
<rect width="16" height="16" fill="white" transform="translate(0.5 0.03125)"/>
</clipPath>
<clipPath id="clip2_4895_23671">
<rect width="16" height="16" fill="white" transform="translate(20.5 0.03125)"/>
</clipPath>
<clipPath id="clip3_4895_23671">
<rect width="16" height="16" fill="white" transform="translate(40.5 0.03125)"/>
</clipPath>
<clipPath id="clip4_4895_23671">
<rect width="16" height="16" fill="white" transform="translate(60.5 0.03125)"/>
</clipPath>
<clipPath id="clip5_4895_23671">
<rect width="16" height="16" fill="white" transform="translate(80.5 0.03125)"/>
</clipPath>
</defs>
</svg>
