<svg width="12" height="13" viewBox="0 0 12 13" fill="none" xmlns="http://www.w3.org/2000/svg">
<path d="M1.5 6.5C3.75 6.5 6 4.25 6 2C6 4.25 8.25 6.5 10.5 6.5C8.25 6.5 6 8.75 6 11C6 8.75 3.75 6.5 1.5 6.5ZM1 10.25C1.4165 10.25 2.25 9.4165 2.25 9C2.25 9.4165 3.0835 10.25 3.5 10.25C3.0835 10.25 2.25 11.0835 2.25 11.5C2.25 11.0835 1.4165 10.25 1 10.25ZM8 3C8.5 3 9.5 2 9.5 1.5C9.5 2 10.5 3 11 3C10.5 3 9.5 4 9.5 4.5C9.5 4 8.5 3 8 3Z" stroke="#E5AD65" stroke-width="0.5" stroke-linecap="round" stroke-linejoin="round"/>
</svg>
