<svg width="44" height="44" viewBox="0 0 44 44" fill="none" xmlns="http://www.w3.org/2000/svg">
<path d="M21.9641 0.942521C21.3198 5.59794 20.6252 10.2799 20.2618 14.9664C20.2595 14.9964 20.3093 15.006 20.3138 14.9766C21.0078 10.3184 21.4402 5.62337 22.0359 0.952697C22.041 0.910874 21.9692 0.901263 21.9641 0.942521Z" fill="#CB8020"/>
<path d="M21.9631 0.952274C22.5577 5.62352 22.9907 10.3185 23.6841 14.9762C23.6887 15.0061 23.7395 14.9988 23.7367 14.9688C23.3738 10.2823 22.6781 5.59752 22.0349 0.942107C22.0298 0.901414 21.9581 0.911016 21.9631 0.952274Z" fill="#CB8020"/>
<path d="M22.0365 43.0494C21.4408 38.3782 21.009 33.6832 20.3144 29.025C20.3098 28.995 20.2595 29.0024 20.2618 29.0323C20.6246 33.7194 21.3204 38.4042 21.9641 43.0596C21.9698 43.1003 22.0416 43.0901 22.0365 43.0494Z" fill="#CB8020"/>
<path d="M22.035 43.0594C22.6782 38.4034 23.3739 33.7192 23.7368 29.0321C23.7396 29.0021 23.6887 28.9954 23.6842 29.0248C22.9901 33.683 22.5572 38.378 21.9632 43.0492C21.9576 43.0899 22.0293 43.1001 22.035 43.0594Z" fill="#CB8020"/>
<path d="M29.1164 21.9771C29.1164 21.9771 29.1012 22.1512 29.0927 22.4768C29.0887 22.6395 29.0577 22.839 29.026 23.0753C28.9938 23.3127 28.9395 23.5794 28.8576 23.8739C28.6943 24.46 28.4314 25.1659 27.9589 25.8792C27.4893 26.5879 26.8371 27.3204 25.9633 27.9065C25.0918 28.4909 24.0072 28.9278 22.8096 29.0691C21.6125 29.2098 20.3165 29.0357 19.1053 28.5107C18.5006 28.2484 17.9303 27.8878 17.407 27.4589C16.8825 27.0288 16.4252 26.5082 16.0375 25.9363C15.6492 25.3626 15.3537 24.7228 15.1457 24.0542C14.9377 23.3844 14.8371 22.6808 14.8359 21.9777C14.8348 21.2803 14.9382 20.5704 15.1468 19.9012C15.3554 19.2332 15.6498 18.5934 16.0381 18.0203C16.4258 17.4478 16.8825 16.9272 17.407 16.4971C17.9298 16.0681 18.5 15.7076 19.1048 15.4448C20.3109 14.9203 21.6176 14.7451 22.8056 14.8852C24.0094 15.0271 25.0901 15.4623 25.9627 16.0467C26.8371 16.6322 27.4893 17.3658 27.9589 18.0745C28.4314 18.7872 28.6948 19.4932 28.8576 20.0793C28.9395 20.3743 29 20.6405 29.0254 20.8773C29.0633 21.1118 29.0882 21.3119 29.0921 21.4758C29.1012 21.8025 29.1164 21.9771 29.1164 21.9771ZM29.0447 21.976C29.0447 21.976 29.0277 21.8048 29.0181 21.4809C29.013 21.3181 28.9876 21.1209 28.9491 20.8892C28.9226 20.6552 28.861 20.3924 28.7785 20.1013C28.614 19.5231 28.3517 18.8268 27.8815 18.1254C27.4141 17.428 26.7664 16.7091 25.9034 16.1354C25.0437 15.564 23.9704 15.1396 22.7983 15.0062C21.6181 14.8722 20.3437 15.0508 19.1613 15.5702C18.5695 15.8302 18.0123 16.1863 17.5019 16.6085C16.9899 17.0318 16.5451 17.5438 16.1681 18.1051C15.7905 18.6674 15.5057 19.2942 15.3045 19.9476C15.1021 20.6038 15.0078 21.2842 15.0066 21.9766C15.0055 22.6633 15.1033 23.3505 15.3062 24.005C15.5085 24.6578 15.7928 25.284 16.1703 25.847C16.5473 26.4082 16.9916 26.9202 17.5031 27.3436C18.0134 27.7658 18.5707 28.1218 19.1624 28.3824C20.3397 28.9012 21.6261 29.0798 22.796 28.9476C23.9744 28.8142 25.0437 28.3903 25.9051 27.8189C26.7687 27.2458 27.4158 26.5257 27.8826 25.8283C28.3523 25.1269 28.6151 24.4312 28.7796 23.8524C28.8621 23.5614 28.9231 23.2991 28.9497 23.0651C28.9881 22.8345 29.0136 22.6367 29.0187 22.4734C29.0277 22.1478 29.0447 21.976 29.0447 21.976Z" fill="#CB8020"/>
<path d="M28.6398 21.9768C28.6398 21.9768 28.6257 22.1396 28.6178 22.4431C28.6139 22.5952 28.5912 22.7817 28.5556 23.0015C28.5319 23.2236 28.4754 23.4723 28.3991 23.747C28.247 24.2941 28.0012 24.9525 27.5609 25.6183C27.1229 26.2796 26.5142 26.964 25.6986 27.5111C24.8853 28.0565 23.8731 28.464 22.7546 28.5963C21.6367 28.728 20.4283 28.5663 19.2968 28.0757C18.7322 27.831 18.1998 27.4942 17.7109 27.094C17.2209 26.6927 16.7947 26.2067 16.4324 25.672C16.0696 25.1368 15.7938 24.54 15.5999 23.916C15.4055 23.2898 15.3117 22.6336 15.3106 21.9768C15.3094 21.3263 15.4061 20.6628 15.6011 20.0383C15.7961 19.4143 16.0707 18.8175 16.4336 18.2822C16.7959 17.7481 17.222 17.2621 17.7115 16.8602C18.1998 16.4601 18.7322 16.1232 19.2962 15.878C20.4226 15.3879 21.6423 15.2252 22.7512 15.3557C23.8748 15.488 24.8836 15.8949 25.6981 16.4403C26.5142 16.9868 27.1223 17.6718 27.5609 18.3331C28.0018 18.9983 28.2465 19.6573 28.3985 20.2044C28.4748 20.4797 28.5313 20.7278 28.5551 20.9488C28.5912 21.1675 28.6138 21.354 28.6172 21.5072C28.6257 21.8135 28.6398 21.9768 28.6398 21.9768ZM28.5681 21.9757C28.5681 21.9757 28.5522 21.8158 28.5432 21.514C28.5387 21.3625 28.5149 21.1782 28.4788 20.9618C28.4539 20.7436 28.3968 20.4989 28.32 20.227C28.1668 19.6878 27.9215 19.0385 27.4835 18.3851C27.0477 17.7351 26.4435 17.0643 25.6387 16.5302C24.8367 15.9972 23.8358 15.6016 22.7433 15.4778C21.6434 15.3529 20.4549 15.5196 19.3522 16.0046C18.8006 16.247 18.2817 16.5793 17.8058 16.9727C17.3283 17.3678 16.914 17.8448 16.563 18.3681C16.2109 18.8926 15.9458 19.4765 15.7582 20.0857C15.57 20.6973 15.4818 21.3308 15.4807 21.9768C15.4796 22.6172 15.5705 23.2575 15.7599 23.8674C15.9487 24.4761 16.2126 25.0605 16.5647 25.5844C16.9157 26.1072 17.33 26.5848 17.807 26.9798C18.2829 27.3732 18.8023 27.705 19.3533 27.948C20.4503 28.4312 21.6497 28.5991 22.741 28.4759C23.8392 28.3515 24.8362 27.9565 25.6393 27.4241C26.4447 26.89 27.0483 26.2191 27.484 25.5691C27.9221 24.9152 28.1679 24.2658 28.3205 23.7267C28.3974 23.4548 28.4545 23.2101 28.4788 22.9925C28.5149 22.7771 28.5387 22.5935 28.5432 22.4403C28.5522 22.1362 28.5681 21.9757 28.5681 21.9757Z" fill="#CB8020"/>
<path d="M43.0566 22.133C38.3667 21.4468 33.644 20.7212 28.9208 20.3165C28.8908 20.3142 28.884 20.364 28.9134 20.369C33.6033 21.1043 38.3333 21.5667 43.0362 22.2042C43.0831 22.2104 43.1035 22.1398 43.0566 22.133Z" fill="#CB8020"/>
<path d="M43.0468 22.1312C38.3711 22.6879 33.6727 23.0841 29.0094 23.7402C28.9794 23.7448 28.9868 23.7951 29.0167 23.7928C33.7032 23.4684 38.3897 22.8088 43.0468 22.2046C43.0932 22.1984 43.0943 22.1255 43.0468 22.1312Z" fill="#CB8020"/>
<path d="M0.953224 21.8692C5.66572 21.3057 10.398 20.8773 15.0981 20.2137C15.128 20.2098 15.1207 20.1595 15.0907 20.1612C10.3675 20.4924 5.64707 21.1836 0.952655 21.7951C0.906875 21.8019 0.905749 21.8748 0.953224 21.8692Z" fill="#CB8020"/>
<path d="M0.943109 21.867C5.59231 22.5475 10.2732 23.2811 14.9557 23.6801C14.9857 23.6829 14.9924 23.6326 14.9631 23.6275C10.3139 22.8979 5.62565 22.4282 0.962323 21.7964C0.915978 21.7896 0.895634 21.8602 0.943109 21.867Z" fill="#CB8020"/>
<path d="M33.8894 10.062C31.2263 12.026 28.2478 13.6266 25.7446 15.8003C25.7214 15.8201 25.7519 15.8596 25.7768 15.8421C28.4851 13.9307 31.2885 12.1334 33.9273 10.1253C33.964 10.097 33.9284 10.0332 33.8894 10.062Z" fill="#CB8020"/>
<path d="M33.8769 10.075C31.8693 12.7138 30.0732 15.5171 28.1606 18.2249C28.1431 18.2498 28.1827 18.2803 28.2024 18.2571C30.3773 15.7545 31.9762 12.7754 33.9408 10.1123C33.9684 10.0739 33.9057 10.0382 33.8769 10.075Z" fill="#CB8020"/>
<path d="M10.1253 33.9262C12.1328 31.2873 13.9295 28.484 15.8421 25.7768C15.8596 25.7519 15.8201 25.7214 15.8003 25.7446C13.6255 28.2466 12.026 31.2257 10.062 33.8889C10.0332 33.9273 10.097 33.9629 10.1253 33.9262Z" fill="#CB8020"/>
<path d="M10.1111 33.9388C12.7743 31.9748 15.7533 30.3747 18.256 28.2005C18.2786 28.1807 18.2486 28.1411 18.2237 28.1587C15.516 30.0707 12.7126 31.868 10.0744 33.8755C10.0371 33.9032 10.0727 33.967 10.1111 33.9388Z" fill="#CB8020"/>
<path d="M33.8439 33.9825C31.9019 31.3035 30.3251 28.3126 28.1712 25.7924C28.1519 25.7692 28.1118 25.7998 28.1293 25.8246C30.0199 28.5477 31.794 31.3657 33.7812 34.0204C33.8089 34.0571 33.8722 34.0209 33.8439 33.9825Z" fill="#CB8020"/>
<path d="M33.8379 33.9743C31.177 31.913 28.3596 30.0468 25.628 28.0805C25.6037 28.063 25.5732 28.1026 25.5958 28.1224C28.1171 30.3469 31.1097 32.0159 33.7932 34.0314C33.8271 34.0573 33.8712 33.9997 33.8379 33.9743Z" fill="#CB8020"/>
<path d="M10.164 10.0259C12.7887 12.0566 15.5801 13.8771 18.2749 15.8134C18.2998 15.8309 18.3297 15.7913 18.3071 15.7716C15.8226 13.577 12.8559 11.9537 10.2086 9.96825C10.1747 9.94282 10.1312 10.0005 10.164 10.0259Z" fill="#CB8020"/>
<path d="M10.1572 10.0183C12.0992 12.6979 13.6761 15.6894 15.8306 18.209C15.8503 18.2321 15.8893 18.2016 15.8724 18.1768C13.9813 15.4543 12.2072 12.6363 10.2211 9.9816C10.1929 9.9443 10.1296 9.9799 10.1572 10.0183Z" fill="#CB8020"/>
<path d="M26.3257 11.7368C25.5034 12.8988 24.5607 13.8992 23.6275 14.96C23.5931 14.999 23.6371 15.0623 23.6846 15.0335C24.2068 14.7187 24.6375 14.1394 25.0122 13.668C25.4989 13.0554 25.9708 12.4331 26.4128 11.7877C26.4489 11.7334 26.3625 11.6854 26.3257 11.7368Z" fill="#CB8020"/>
<path d="M26.2281 11.9872C26.1196 12.571 26.0071 13.1537 25.8964 13.737C25.7884 14.3005 25.5544 14.9454 25.6155 15.5156C25.6206 15.5591 25.6805 15.5721 25.6946 15.5264C26.036 14.3932 26.145 13.1803 26.3186 12.012C26.327 11.9533 26.24 11.9273 26.2281 11.9872Z" fill="#CB8020"/>
<path d="M28.162 18.4554C28.604 18.5249 29.1132 18.4085 29.5467 18.3283C30.2142 18.2062 30.8636 17.9417 31.5107 17.7388C31.5537 17.7252 31.5463 17.6608 31.5006 17.6602C30.3804 17.6529 29.3116 18.3622 28.1739 18.3695C28.1264 18.3701 28.1123 18.4469 28.162 18.4554Z" fill="#CB8020"/>
<path d="M28.8778 20.1576C29.3203 20.0349 29.6368 19.6257 29.998 19.3663C30.5999 18.9345 31.1702 18.462 31.7376 17.9861C31.7952 17.9375 31.7184 17.8369 31.6568 17.881C31.1148 18.2676 30.6033 18.6909 30.0743 19.0956C29.7001 19.3821 29.2858 19.9004 28.8495 20.0547C28.7856 20.0773 28.8105 20.1757 28.8778 20.1576Z" fill="#CB8020"/>
<path d="M28.0148 25.8628C28.6219 26.0419 29.3193 26.008 29.9489 26.0408C31.0358 26.0973 32.1203 26.1815 33.21 26.1714C32.3357 26.1109 31.4693 26.0029 30.5966 25.947C29.7884 25.8944 28.8282 25.956 28.0448 25.7531C27.9736 25.7345 27.9448 25.8424 28.0148 25.8628Z" fill="#CB8020"/>
<path d="M28.958 23.7716C30.3172 24.6482 31.6788 25.544 33.1771 26.1697C33.2093 26.1827 33.2279 26.1318 33.1997 26.1143C31.8195 25.2778 30.4201 24.4685 29.0021 23.6964C28.9529 23.6693 28.9111 23.7411 28.958 23.7716Z" fill="#CB8020"/>
<path d="M23.5622 29.0014C23.7176 29.189 23.8222 29.4247 23.9454 29.6338C24.1104 29.9142 24.3693 30.1476 24.5908 30.3816C25.1442 30.9665 25.6517 31.56 26.2757 32.0743C26.3084 32.1014 26.3661 32.0658 26.3384 32.0257C25.9173 31.4113 25.364 30.9162 24.8864 30.3477C24.6253 30.0368 24.3003 29.7768 24.0765 29.436C23.9431 29.2326 23.8408 29.0427 23.6391 28.9025C23.5752 28.8578 23.5187 28.95 23.5622 29.0014Z" fill="#CB8020"/>
<path d="M25.5703 28.1064C25.589 28.7241 25.7811 29.3498 25.9004 29.9563C26.027 30.6023 26.0372 31.2935 26.2553 31.9146C26.2638 31.9378 26.3062 31.935 26.3028 31.9073C26.2282 31.3234 26.2485 30.7402 26.1089 30.1659C25.9428 29.4843 25.7834 28.7835 25.6557 28.0945C25.6472 28.0459 25.5692 28.0578 25.5703 28.1064Z" fill="#CB8020"/>
<path d="M18.0989 28.2824C17.9876 28.8052 17.7926 29.4258 17.779 29.9582C17.761 30.6742 17.8124 31.3841 17.8825 32.0962C17.8859 32.1307 17.9328 32.1307 17.9362 32.0962C17.9887 31.474 17.9882 30.8489 18.0192 30.2249C18.052 29.567 18.2843 28.9561 18.1973 28.2954C18.1905 28.2445 18.1119 28.2219 18.0989 28.2824Z" fill="#CB8020"/>
<path d="M20.1157 28.9917C19.5121 30.1458 18.4286 31.0218 17.8821 32.2223C17.8674 32.2556 17.9069 32.2924 17.9346 32.263C18.3828 31.7832 18.7372 31.2163 19.1244 30.6878C19.4878 30.1922 20.0049 29.61 20.1767 29.0177C20.1869 28.9815 20.1332 28.9584 20.1157 28.9917Z" fill="#CB8020"/>
<path d="M14.8536 23.6242C14.406 24.0701 13.834 24.4007 13.3265 24.7766C12.7353 25.214 12.1277 25.6311 11.5417 26.0765C11.4478 26.1477 11.527 26.2963 11.636 26.2376C12.2854 25.8934 12.8602 25.4214 13.4446 24.9795C13.9652 24.5855 14.5377 24.2357 14.9763 23.7468C15.0509 23.6637 14.9333 23.5439 14.8536 23.6242Z" fill="#CB8020"/>
<path d="M11.5023 26.2744C12.7519 26.0518 14.0501 26.2371 15.3065 25.9992C15.3438 25.9924 15.3348 25.9319 15.2975 25.9336C14.5373 25.9692 13.7766 25.9924 13.0164 26.0331C12.5241 26.0602 11.9228 25.9698 11.4842 26.232C11.4604 26.2456 11.4768 26.2784 11.5023 26.2744Z" fill="#CB8020"/>
<path d="M11.0342 17.206C11.3219 17.731 12.0764 18.1442 12.5642 18.4923C13.3639 19.0643 14.3309 19.4571 15.0741 20.0946C15.0934 20.1116 15.1199 20.0856 15.1024 20.0669C14.613 19.5323 13.9342 19.1813 13.3339 18.7851C12.9553 18.5353 12.5856 18.2725 12.2245 17.9978C11.8995 17.7503 11.3846 17.4858 11.1727 17.1246C11.1201 17.0359 10.9845 17.1156 11.0342 17.206Z" fill="#CB8020"/>
<path d="M11.2183 17.1008C11.4461 17.1528 11.7145 17.3331 11.9734 17.3879C12.3583 17.4693 12.7454 17.5399 13.1315 17.6151C13.921 17.7694 14.6908 18.0056 15.4781 18.156C15.5165 18.1633 15.5307 18.1113 15.4939 18.0983C14.6382 17.7847 13.795 17.5202 12.8964 17.3596C12.4069 17.272 11.6445 16.9414 11.1635 17.0929C11.1166 17.1076 11.1364 17.1777 11.1838 17.1664C11.1951 17.1641 11.2065 17.1613 11.2178 17.1584C11.2471 17.1522 11.2471 17.1076 11.2183 17.1008Z" fill="#CB8020"/>
<path d="M17.8384 10.6448C17.7661 12.2448 17.8396 14.0297 18.1278 15.6071C18.1335 15.6387 18.1877 15.6399 18.1922 15.6071C18.4178 13.9805 18.069 12.2663 17.9119 10.6448C17.9074 10.5984 17.8407 10.5967 17.8384 10.6448Z" fill="#CB8020"/>
<path d="M17.8137 10.6969C18.7943 11.968 19.2436 13.5347 20.1264 14.8601C20.1383 14.8782 20.1711 14.8668 20.1632 14.8448C19.9105 14.1361 19.5392 13.498 19.238 12.8113C18.896 12.0319 18.5456 11.2096 17.903 10.6285C17.8578 10.5873 17.7724 10.6432 17.8137 10.6969Z" fill="#CB8020"/>
<path d="M21.6856 7.90589C21.3618 10.2254 21.0894 12.5636 20.9746 14.8978C20.9735 14.9238 21.0165 14.93 21.021 14.904C21.4036 12.5935 21.4624 10.2429 21.7382 7.91268C21.7416 7.88329 21.6896 7.87594 21.6856 7.90589Z" fill="#CB8020"/>
<path d="M21.838 10.6675C21.8149 11.8826 21.66 13.1125 21.7391 14.327C21.7408 14.353 21.7776 14.3525 21.7792 14.327C21.8719 13.1153 21.8804 11.8826 21.8714 10.6675C21.8714 10.646 21.8386 10.646 21.838 10.6675Z" fill="#CB8020"/>
<path d="M22.4524 12.7109C22.4134 13.2823 22.5101 13.852 22.5508 14.4212C22.5525 14.4426 22.5836 14.4432 22.5841 14.4212C22.605 13.8475 22.4643 13.2857 22.4926 12.7109C22.4943 12.6849 22.4547 12.6849 22.4524 12.7109Z" fill="#CB8020"/>
<path d="M21.9671 3.06572C22.3203 5.85264 22.7216 8.63674 23.0325 11.4288C22.8019 8.63109 22.3899 5.85038 22.027 3.06572C22.0225 3.02785 21.962 3.02729 21.9671 3.06572Z" fill="#CB8020"/>
<path d="M22.9165 11.7214C23.0894 12.7455 22.9397 13.9363 23.3477 14.9039C23.3607 14.9344 23.4082 14.9243 23.3997 14.8898C23.1245 13.8583 23.1736 12.7539 22.9753 11.7055C22.9674 11.6671 22.9103 11.6835 22.9165 11.7214Z" fill="#CB8020"/>
<path d="M24.152 15.009C24.4911 14.6072 24.8822 14.2557 25.2422 13.8736C25.6045 13.4898 25.7944 12.9812 26.1934 12.6307C26.2098 12.6161 26.1872 12.5855 26.1691 12.5991C25.778 12.8913 25.5977 13.3367 25.2948 13.7069C24.9297 14.1534 24.4849 14.5286 24.1192 14.9757C24.1 14.9989 24.1322 15.0322 24.152 15.009Z" fill="#CB8020"/>
<path d="M24.835 15.1345C24.8627 14.8938 25.056 14.7056 25.195 14.5219C25.3273 14.3467 25.4307 14.1522 25.537 13.9607C25.5533 13.9301 25.5093 13.9047 25.4906 13.9335C25.3352 14.1732 25.1775 14.4128 25.0051 14.6394C24.8887 14.792 24.7858 14.9413 24.7677 15.1345C24.7638 15.1775 24.8299 15.1764 24.835 15.1345Z" fill="#CB8020"/>
<path d="M25.7591 13.735C25.6461 13.9972 25.6127 14.2759 25.5647 14.5562C25.5002 14.9309 25.442 15.2734 25.4776 15.6577C25.4821 15.7007 25.5404 15.7007 25.5449 15.6577C25.6037 15.0406 25.5946 14.351 25.8388 13.7683C25.8574 13.7237 25.7789 13.6903 25.7591 13.735Z" fill="#CB8020"/>
<path d="M26.2948 16.1666C27.0832 15.7196 27.6546 15.0109 28.3306 14.4197C29.1908 13.6668 30.0889 12.9654 30.9005 12.1572C30.9219 12.1358 30.8897 12.103 30.8677 12.1239C30.1205 12.8338 29.3038 13.456 28.5154 14.1179C27.7501 14.761 27.125 15.5919 26.2541 16.0977C26.2089 16.1237 26.2496 16.1926 26.2948 16.1666Z" fill="#CB8020"/>
<path d="M26.9953 16.292C27.6192 15.8422 28.1121 15.2527 28.6846 14.744C29.4097 14.1003 30.1965 13.5447 30.8527 12.8246C30.8758 12.7992 30.8402 12.763 30.8154 12.7873C30.1829 13.4028 29.4877 13.9426 28.8078 14.5032C28.1505 15.0452 27.643 15.7365 26.971 16.2604C26.9535 16.2745 26.9772 16.305 26.9953 16.292Z" fill="#CB8020"/>
<path d="M32.341 11.7052C31.1162 13.6941 29.3834 15.2783 28.1535 17.261C28.14 17.2836 28.1739 17.3107 28.1903 17.2892C29.6377 15.4405 31.2389 13.7919 32.3698 11.7222C32.38 11.703 32.3517 11.6871 32.341 11.7052Z" fill="#CB8020"/>
<path d="M28.3629 18.9059C29.239 18.929 29.9856 18.4034 30.7503 18.0524C30.7751 18.0411 30.7576 18.0033 30.7328 18.0095C29.9291 18.2282 29.2005 18.7227 28.3635 18.8256C28.3126 18.8318 28.3098 18.9042 28.3629 18.9059Z" fill="#CB8020"/>
<path d="M28.9041 19.3802C29.4038 19.1733 29.8819 18.9371 30.3267 18.629C30.3589 18.607 30.3318 18.5595 30.2968 18.577C29.826 18.8133 29.358 19.0552 28.8691 19.2513C28.7894 19.283 28.825 19.413 28.9041 19.3802Z" fill="#CB8020"/>
<path d="M29.076 21.1681C32.4337 21.5174 35.6558 22.1317 39.0537 22.0029C39.0882 22.0017 39.0882 21.9503 39.0537 21.9492C35.6994 21.8751 32.4145 21.198 29.076 21.0743C29.0149 21.072 29.0178 21.1619 29.076 21.1681Z" fill="#CB8020"/>
<path d="M29.072 21.8533C30.867 22.2201 32.9158 21.89 34.7306 21.816C34.769 21.8143 34.769 21.7566 34.7306 21.756C32.8858 21.7165 30.9133 22.0714 29.0844 21.8081C29.055 21.8041 29.0414 21.847 29.072 21.8533Z" fill="#CB8020"/>
<path d="M30.3103 22.444C33.2769 22.3592 36.2317 22.1269 39.1961 21.9692C39.2475 21.9664 39.2481 21.8907 39.1961 21.889C36.2453 21.7906 33.2537 22.1721 30.3103 22.3637C30.2588 22.3671 30.2583 22.4457 30.3103 22.444Z" fill="#CB8020"/>
<path d="M28.9106 23.5939C30.5683 23.5775 32.2231 23.3164 33.8746 23.187C33.9046 23.1847 33.9051 23.1395 33.8746 23.1406C32.2135 23.196 30.5677 23.4577 28.9106 23.5199C28.8631 23.5221 28.8631 23.5939 28.9106 23.5939Z" fill="#CB8020"/>
<path d="M29.0647 24.3497C30.1815 24.7798 31.2152 25.3857 32.2998 25.887C32.319 25.8961 32.3354 25.8684 32.3162 25.8582C31.2452 25.3122 30.212 24.699 29.0901 24.2593C29.0336 24.2372 29.0088 24.3282 29.0647 24.3497Z" fill="#CB8020"/>
<path d="M28.817 24.5533C28.9509 24.8359 29.2951 24.8874 29.5653 24.98C30.2893 25.2265 30.9505 25.6142 31.683 25.8442C31.7045 25.851 31.7192 25.8177 31.6983 25.808C31.1783 25.5531 30.6436 25.3248 30.118 25.0818C29.7812 24.9258 29.0702 24.858 28.8577 24.5302C28.8413 24.5042 28.8045 24.5262 28.817 24.5533Z" fill="#CB8020"/>
<path d="M28.1993 25.6088C28.379 25.7507 28.5859 25.7105 28.7978 25.7608C29.1692 25.8484 29.5523 25.8841 29.9322 25.9129C29.9768 25.9163 29.9875 25.8405 29.9423 25.8337C29.6496 25.7902 29.3562 25.7529 29.0646 25.7043C28.9493 25.6857 28.812 25.6286 28.6967 25.628C28.5452 25.6275 28.3734 25.641 28.236 25.5613C28.2066 25.5449 28.1722 25.5868 28.1993 25.6088Z" fill="#CB8020"/>
<path d="M27.8692 26.4832C27.8415 26.3933 27.8268 26.4204 27.8252 26.564C27.9048 26.7488 28.0603 26.9223 28.1744 27.0879C28.409 27.4293 28.6633 27.7458 28.9306 28.0617C29.7897 29.0768 30.529 30.1659 31.2942 31.2511C31.3061 31.2686 31.3344 31.2528 31.3231 31.2347C30.7907 30.3835 30.2571 29.5278 29.6388 28.736C29.0273 27.9532 28.3366 27.2366 27.8252 26.378C27.8008 26.3374 27.737 26.3741 27.7613 26.4154C27.7788 26.4459 27.7975 26.4758 27.815 26.5063C27.8302 26.534 27.8822 26.5148 27.8692 26.4832Z" fill="#CB8020"/>
<path d="M27.5038 27.0432C28.7054 28.6799 30.137 30.0748 31.6274 31.446C31.6466 31.4629 31.6743 31.4358 31.6562 31.4171C30.2545 29.9923 28.8224 28.5743 27.6078 26.9821C27.562 26.9222 27.4574 26.9804 27.5038 27.0432Z" fill="#CB8020"/>
<path d="M26.0672 27.9255C26.577 28.8807 27.9747 29.6697 28.827 30.3005C30.1722 31.2952 31.5201 32.4137 32.9608 33.2597C32.9862 33.2744 33.0179 33.2366 32.993 33.2179C31.8734 32.3526 30.8108 31.4404 29.6579 30.617C28.8638 30.0489 28.0889 29.4476 27.3203 28.8457C26.9602 28.5636 26.3758 28.263 26.1017 27.9052C26.087 27.8854 26.0548 27.9024 26.0672 27.9255Z" fill="#CB8020"/>
<path d="M27.3962 27.7922C28.0038 28.462 28.6442 29.104 29.3026 29.724C29.9486 30.3321 30.5194 31.0217 31.1926 31.5982C31.2254 31.6258 31.2706 31.5823 31.2401 31.5507C29.9882 30.2654 28.7651 28.9627 27.4341 27.7543C27.4081 27.7317 27.3731 27.7668 27.3962 27.7922Z" fill="#CB8020"/>
<path d="M23.9977 29.0506C24.421 29.4904 24.7567 29.9747 25.0941 30.4794C25.3264 30.8264 25.5186 31.2096 25.8289 31.4956C25.8475 31.5126 25.8826 31.4888 25.8656 31.4674C25.5864 31.1017 25.4067 30.6795 25.1473 30.302C24.8189 29.8249 24.4917 29.3784 24.0825 28.9653C24.0282 28.9099 23.944 28.9947 23.9977 29.0506Z" fill="#CB8020"/>
<path d="M24.684 29.0002C25.0192 29.7327 25.4933 30.4002 25.8731 31.1101C25.8861 31.1344 25.9217 31.1174 25.9161 31.0926C25.7403 30.2917 25.1633 29.6474 24.8219 28.9194C24.7784 28.8256 24.641 28.9076 24.684 29.0002Z" fill="#CB8020"/>
<path d="M25.464 28.8313C25.5793 29.1551 25.7291 29.4705 25.7681 29.8158C25.772 29.8531 25.8269 29.8554 25.8274 29.8158C25.8359 29.4558 25.676 29.1382 25.5607 28.8047C25.5398 28.7442 25.4425 28.7708 25.464 28.8313Z" fill="#CB8020"/>
<path d="M20.7847 29.5861C21.1543 30.7176 21.1159 32.1074 21.2165 33.287C21.3307 34.6287 21.459 35.975 21.7794 37.2845C21.789 37.3229 21.8439 37.306 21.8376 37.2693C21.5856 35.7534 21.455 34.2421 21.3086 32.715C21.2125 31.7101 21.1995 30.5272 20.8361 29.572C20.8243 29.5404 20.774 29.5528 20.7847 29.5861Z" fill="#CB8020"/>
<path d="M21.5385 30.0064C21.1938 33.5523 22.0726 37.3266 22.2134 40.8878C22.2145 40.9138 22.2524 40.9138 22.2535 40.8878C22.3976 37.2481 21.4685 33.6241 21.5984 30.0064C21.6001 29.9674 21.5419 29.9685 21.5385 30.0064Z" fill="#CB8020"/>
<path d="M23.2004 30.0448C22.5465 32.8102 22.2707 35.6723 22.2012 38.5107C22.2001 38.5542 22.2639 38.5525 22.2679 38.5107C22.5205 35.6859 22.8444 32.8667 23.2643 30.0623C23.2711 30.021 23.2106 30.0018 23.2004 30.0448Z" fill="#CB8020"/>
<path d="M22.3278 30.3384C22.321 31.2449 22.2012 32.1441 22.1272 33.0467C22.1215 33.114 22.2362 33.1304 22.2453 33.0626C22.3696 32.1554 22.5024 31.2562 22.4278 30.3384C22.4233 30.2751 22.3284 30.2728 22.3278 30.3384Z" fill="#CB8020"/>
<path d="M18.5789 28.44C18.5885 28.4106 18.597 28.3807 18.6044 28.3513C18.6145 28.3145 18.5552 28.2982 18.5467 28.336C18.3647 29.1601 18.1765 30.0203 18.1076 30.863C18.1036 30.9076 18.1782 30.9183 18.1861 30.8731C18.2726 30.3916 18.4179 29.9259 18.5224 29.4489C18.5625 29.2669 18.6083 29.0747 18.6219 28.8888C18.6354 28.7684 18.64 28.6474 18.6343 28.5265C18.6349 28.4728 18.5343 28.3145 18.5789 28.44Z" fill="#CB8020"/>
<path d="M19.0978 28.5026C19.0543 28.7931 18.8502 29.0474 18.8039 29.3249C18.7479 29.664 18.6739 29.9964 18.6389 30.3389C18.6349 30.3762 18.6965 30.3841 18.7044 30.3479C18.783 29.9867 18.8355 29.5532 18.9847 29.217C19.0853 28.9903 19.1588 28.7597 19.1566 28.5105C19.1566 28.4771 19.1029 28.4675 19.0978 28.5026Z" fill="#CB8020"/>
<path d="M18.8743 30.2571C19.2541 29.8066 19.4564 29.2166 19.8984 28.8187C19.9272 28.7927 19.8899 28.7475 19.8577 28.7661C19.3276 29.0685 19.1603 29.7501 18.8426 30.2328C18.8308 30.252 18.8596 30.2746 18.8743 30.2571Z" fill="#CB8020"/>
<path d="M11.8778 32.3163C12.534 31.2108 13.267 30.1613 14.021 29.1208C14.5935 28.3306 15.434 27.445 15.6018 26.448C15.6063 26.4226 15.5719 26.4124 15.5634 26.4367C15.2231 27.4122 14.5251 28.2436 13.9266 29.0648C13.1698 30.103 12.4368 31.1537 11.78 32.2581C11.7422 32.3219 11.8399 32.379 11.8778 32.3163Z" fill="#CB8020"/>
<path d="M13.223 31.1554C14.2319 29.6898 15.2068 28.2 16.2191 26.7384C16.2315 26.7204 16.2016 26.6966 16.1874 26.7141C15.0757 28.1073 14.1528 29.6412 13.1942 31.139C13.1823 31.1571 13.2112 31.1734 13.223 31.1554Z" fill="#CB8020"/>
<path d="M12.8395 31.5034C13.7212 30.9535 14.4978 30.2566 15.38 29.7067C16.1102 29.2517 16.854 28.7905 17.4989 28.218C17.5192 28.2005 17.4932 28.1677 17.4706 28.1807C15.8372 29.1703 14.2977 30.2691 12.8073 31.461C12.7836 31.4802 12.8147 31.5187 12.8395 31.5034Z" fill="#CB8020"/>
<path d="M12.7498 31.2131C13.6207 30.4998 14.4826 29.7775 15.4197 29.1507C16.1313 28.6748 16.9457 28.1588 17.5493 27.5541C17.5702 27.5332 17.5425 27.4947 17.5171 27.5123C15.8656 28.6833 14.252 29.8566 12.7125 31.1758C12.6854 31.1978 12.7232 31.2346 12.7498 31.2131Z" fill="#CB8020"/>
<path d="M16.1486 27.9407C16.3962 27.6157 16.7613 27.3145 16.9201 26.9324C16.9422 26.8804 16.8608 26.8346 16.8252 26.877C16.559 27.1986 16.3046 27.5485 16.0622 27.8898C16.0243 27.9435 16.1102 27.991 16.1486 27.9407Z" fill="#CB8020"/>
<path d="M13.2068 25.3224C13.5657 25.3524 13.8867 25.2145 14.2072 25.0681C14.6022 24.8872 15.0335 24.7572 15.3664 24.469C15.3946 24.4447 15.3584 24.4091 15.3302 24.4215C15.0052 24.5622 14.6904 24.7295 14.366 24.8737C13.9901 25.0415 13.6318 25.2823 13.2068 25.2828C13.1808 25.2828 13.1814 25.3207 13.2068 25.3224Z" fill="#CB8020"/>
<path d="M13.8251 25.4246C14.3603 25.3907 14.9306 25.2776 15.4483 25.142C15.476 25.1341 15.4782 25.0894 15.4483 25.0832C14.9153 24.9764 14.3411 25.2951 13.8177 25.372C13.7883 25.3765 13.7951 25.4263 13.8251 25.4246Z" fill="#CB8020"/>
<path d="M12.5895 25.8379C13.0953 25.8419 13.5831 25.7611 14.0804 25.6757C14.6456 25.578 15.2221 25.5853 15.7805 25.4802C15.8223 25.4723 15.8218 25.405 15.7805 25.3965C14.6857 25.1688 13.6701 25.6407 12.59 25.7175C12.5126 25.7232 12.5109 25.8374 12.5895 25.8379Z" fill="#CB8020"/>
<path d="M3.99386 21.9007C5.75101 21.5955 8.09936 22.337 9.81808 22.5845C11.1491 22.7767 12.8876 22.5874 14.1491 23.0508C14.1858 23.0638 14.2005 23.0062 14.1649 22.992C13.6619 22.7976 13.0781 22.84 12.5411 22.7903C11.1287 22.6608 9.72934 22.4952 8.32486 22.2839C7.00515 22.0849 5.30848 21.5904 3.98312 21.8617C3.95769 21.8673 3.96899 21.9052 3.99386 21.9007Z" fill="#CB8020"/>
<path d="M9.16794 22.1876C10.9183 22.256 12.6399 22.7268 14.3948 22.6725C14.4338 22.6714 14.4332 22.6149 14.3948 22.6132C12.6489 22.4951 10.92 22.1441 9.16794 22.1475C9.14194 22.1475 9.14194 22.1865 9.16794 22.1876Z" fill="#CB8020"/>
<path d="M7.02925 21.5318C9.51606 21.5318 12.0023 21.4577 14.4891 21.4436C14.5366 21.443 14.5366 21.3701 14.4891 21.3701C12.0017 21.3701 9.51606 21.4583 7.02925 21.4718C6.99025 21.4718 6.99025 21.5318 7.02925 21.5318Z" fill="#CB8020"/>
<path d="M11.5427 21.0571C12.6505 21.009 13.8176 21.0107 14.9163 20.8638C14.9508 20.8593 14.9508 20.8152 14.9163 20.8101C13.8046 20.6631 12.6516 20.9124 11.5427 20.9966C11.5043 21 11.5037 21.0588 11.5427 21.0571Z" fill="#CB8020"/>
<path d="M12.1015 17.4828C12.3982 17.6749 12.6576 17.9072 12.9679 18.0779C13.3189 18.2712 13.6348 18.4351 13.949 18.6917C14.3147 18.9901 14.807 19.4818 15.2902 19.5547C15.3496 19.5638 15.3722 19.4863 15.3151 19.4649C14.8064 19.2704 14.2927 18.7731 13.8558 18.4532C13.5947 18.2622 13.3126 18.1248 13.0233 17.9813C12.7056 17.8236 12.4524 17.5811 12.1246 17.4426C12.0975 17.4313 12.0755 17.4664 12.1015 17.4828Z" fill="#CB8020"/>
<path d="M12.9991 17.6696C13.2822 17.9064 13.6733 18.0313 14.0085 18.1771C14.5245 18.4009 15.0377 18.6016 15.5718 18.7813C15.6119 18.7949 15.6351 18.7355 15.6 18.7141C14.815 18.2438 13.7598 18.1766 13.0273 17.6329C13.0064 17.617 12.9793 17.6526 12.9991 17.6696Z" fill="#CB8020"/>
<path d="M11.804 11.7862C12.7105 12.8911 13.5962 14.0124 14.5112 15.11C15.1205 15.8408 15.7727 16.9254 16.5945 17.421C16.6651 17.4634 16.7267 17.356 16.6583 17.3114C15.762 16.7253 14.9984 15.5073 14.3151 14.7031C13.4826 13.7242 12.6806 12.7198 11.856 11.7342C11.8254 11.6974 11.774 11.75 11.804 11.7862Z" fill="#CB8020"/>
<path d="M14.5631 14.2928C14.9841 14.8603 15.4792 15.3661 15.906 15.929C16.1902 16.3043 16.5067 16.7711 16.9255 17.0034C17.0109 17.0509 17.0725 16.9322 16.9996 16.8763C16.57 16.5462 16.2275 16.1172 15.8924 15.6945C15.4928 15.1909 15.0101 14.7596 14.6055 14.26C14.5862 14.2369 14.545 14.2685 14.5631 14.2928Z" fill="#CB8020"/>
<path d="M16.029 14.8781C16.5027 15.3749 16.9859 16.1 17.6291 16.3866C17.6901 16.4137 17.7647 16.338 17.7059 16.2865C17.4335 16.0486 17.1317 15.8513 16.8672 15.6009C16.6004 15.3477 16.3501 15.0776 16.0861 14.8216C16.0488 14.7848 15.9934 14.8408 16.029 14.8781Z" fill="#CB8020"/>
<path d="M18.2716 11.761C18.2648 12.5161 18.5689 13.2638 18.6763 14.0064C18.7226 14.3252 18.7808 15.1837 19.1267 15.3595C19.1578 15.3753 19.1945 15.3499 19.1855 15.3143C18.8826 14.141 18.5237 12.9524 18.3106 11.7559C18.3066 11.7327 18.2716 11.7389 18.2716 11.761Z" fill="#CB8020"/>
<path d="M19.0174 13.4244C18.9739 13.816 19.1898 14.0862 19.2904 14.4457C19.3679 14.7209 19.443 15.0572 19.6889 15.229C19.7279 15.2561 19.7804 15.2115 19.7674 15.1685C19.6877 14.9063 19.5425 14.661 19.4447 14.4033C19.3164 14.0642 19.0751 13.8115 19.0836 13.4244C19.0853 13.3809 19.022 13.3831 19.0174 13.4244Z" fill="#CB8020"/>
<path d="M21.8019 15.3559C19.6056 17.0661 17.2443 19.6168 18.0259 22.6739C18.7641 25.5603 20.4607 27.6775 23.5308 28.1805C23.5811 28.189 23.602 28.12 23.5517 28.103C20.6715 27.1547 19.015 25.6298 18.2294 22.6174C17.446 19.6146 19.7667 17.1181 21.8584 15.413C21.8991 15.3796 21.842 15.3248 21.8019 15.3559Z" fill="#CB8020"/>
<path d="M18.438 18.3158C17.2279 20.0243 17.1132 21.9426 18.0604 23.8105C18.078 23.8444 18.1328 23.8207 18.1215 23.7845C17.5117 21.8256 17.3217 20.1521 18.5245 18.3667C18.5612 18.313 18.4747 18.2644 18.438 18.3158Z" fill="#CB8020"/>
<path d="M17.1225 20.0408C16.9253 20.9716 16.8235 21.8143 17.1287 22.7328C17.1423 22.7734 17.2039 22.7571 17.1932 22.7152C16.9547 21.7816 17.001 21.0016 17.1994 20.0623C17.2107 20.0114 17.1333 19.9899 17.1225 20.0408Z" fill="#CB8020"/>
<path d="M17.2383 18.0595C17.4124 17.6656 17.8453 17.2547 18.1703 16.9738C18.6298 16.5759 19.1424 16.2741 19.6742 15.9858C19.7172 15.9627 19.6793 15.9039 19.6375 15.9225C19.0746 16.1644 18.5676 16.5081 18.1138 16.9173C17.7956 17.2032 17.3835 17.648 17.2383 18.0595Z" fill="#CB8020"/>
<path d="M18.1768 17.4598C18.6736 16.7522 19.4892 16.5397 20.1703 16.0864C20.1968 16.0683 20.1804 16.018 20.1471 16.0316C19.396 16.3283 18.5883 16.7319 18.1418 17.4395C18.1282 17.4621 18.1622 17.4807 18.1768 17.4598Z" fill="#CB8020"/>
<path d="M16.8127 25.0493C17.1383 25.8259 17.4864 26.3091 18.1799 26.798C18.8474 27.2682 19.6884 27.6757 20.5124 27.7413C20.5446 27.7441 20.5458 27.6989 20.5198 27.6887C19.8257 27.4265 19.1271 27.188 18.4907 26.8008C17.734 26.3402 17.2519 25.8134 16.8675 25.0267C16.8529 24.9956 16.7992 25.0177 16.8127 25.0493Z" fill="#CB8020"/>
<path d="M18.2372 26.2606C18.4311 27.0807 19.7044 27.5136 20.4397 27.4628C20.4753 27.4599 20.4883 27.4029 20.4488 27.3972C19.7451 27.291 18.5204 27.044 18.2954 26.2454C18.2847 26.2075 18.2287 26.2233 18.2372 26.2606Z" fill="#CB8020"/>
<path d="M22.053 16.3728C22.7018 16.253 23.3071 16.3452 23.909 16.6102C24.3324 16.7962 24.5053 17.3382 24.6749 17.7265C24.6946 17.7728 24.7709 17.7491 24.7681 17.701C24.6913 16.2903 23.1913 15.9309 22.0383 16.3214C22.0055 16.3327 22.0191 16.3796 22.053 16.3728Z" fill="#CB8020"/>
<path d="M23.4625 16.9092C24.0396 17.0415 24.1911 17.4416 23.9158 18.1097C23.722 18.2572 23.5049 18.3312 23.2659 18.3312C23.0454 18.3516 22.7832 18.3041 22.5701 18.3691C22.2446 18.4691 21.8913 18.6805 21.7964 19.0388C21.5861 19.8329 22.1123 20.5643 22.9369 20.5456C22.9697 20.545 22.9793 20.4925 22.9448 20.4868C22.552 20.4196 22.2666 20.2449 22.0586 19.8996C21.5607 19.0711 22.4107 18.5697 23.1065 18.5296C23.4563 18.5093 23.7581 18.4522 24.0306 18.2244C24.6257 17.7259 24.0696 16.9414 23.4789 16.8521C23.4411 16.8454 23.4241 16.8996 23.4625 16.9092Z" fill="#CB8020"/>
<path d="M23.0486 19.0763C22.8225 19.2193 22.4913 19.4973 22.6411 19.8054C22.7892 20.1094 23.1023 20.1394 23.3979 20.1631C23.4374 20.1665 23.4527 20.106 23.4182 20.0885C23.2786 20.0162 23.1492 19.9297 23.0062 19.8613C22.6422 19.6867 22.9 19.3334 23.117 19.1656C23.169 19.126 23.1023 19.0424 23.0486 19.0763Z" fill="#CB8020"/>
<path d="M23.611 19.3195C23.52 19.532 23.6228 19.7321 23.8597 19.7581C23.8868 19.7609 23.8953 19.7208 23.8727 19.7084C23.7381 19.6507 23.6748 19.5315 23.6839 19.3506C23.7008 19.3082 23.6291 19.2782 23.611 19.3195Z" fill="#CB8020"/>
<path d="M25.3095 17.2922C26.1189 17.7738 26.805 18.4062 26.8332 19.4111C26.8621 20.4284 26.1528 21.0976 25.4107 21.6622C25.3773 21.6877 25.405 21.7402 25.4446 21.7205C27.4787 20.6737 27.4838 18.1587 25.3265 17.2499C25.3027 17.2391 25.2875 17.2792 25.3095 17.2922Z" fill="#CB8020"/>
<path d="M25.9203 19.4822C25.8881 19.8529 25.7836 20.1977 25.5468 20.4899C25.3331 20.7527 24.9974 20.9104 24.6995 21.0568C24.6707 21.0709 24.6837 21.1229 24.7165 21.119C25.5518 21.0206 25.9786 20.2633 26.0074 19.4822C26.0096 19.4257 25.9254 19.4274 25.9203 19.4822Z" fill="#CB8020"/>
<path d="M25.3424 19.1253C25.3933 19.6226 25.022 19.8425 24.667 20.1002C24.6388 20.1206 24.662 20.1612 24.6936 20.1466C25.122 19.9459 25.4916 19.6368 25.443 19.1253C25.4368 19.0614 25.3356 19.0608 25.3424 19.1253Z" fill="#CB8020"/>
<path d="M21.0168 17.7942C20.1357 18.4674 19.3501 19.4644 19.2834 20.623C19.245 21.2961 19.7164 22.5017 20.5958 22.1682C20.6506 22.1473 20.6387 22.0766 20.5828 22.0698C19.5191 21.9348 19.4552 20.7247 19.6807 19.8979C19.9006 19.0885 20.4641 18.4188 21.0864 17.8841C21.1344 17.8417 21.0677 17.7547 21.0168 17.7942Z" fill="#CB8020"/>
<path d="M20.2518 20.3378C20.2461 20.7221 20.1919 21.1036 20.3275 21.4733C20.4202 21.7253 20.6078 21.9864 20.8865 21.8276C20.9136 21.8124 20.904 21.7615 20.8695 21.7655C20.5377 21.8039 20.427 21.2732 20.4072 21.0414C20.3868 20.8086 20.4168 20.5707 20.4191 20.3378C20.4202 20.2298 20.2535 20.2298 20.2518 20.3378Z" fill="#CB8020"/>
<path d="M20.8263 20.7143C20.9082 20.9788 20.9133 21.306 21.2129 21.4123C21.2524 21.4264 21.2892 21.3665 21.2553 21.3394C21.0478 21.176 21.0461 20.9064 20.9812 20.6713C20.9535 20.5724 20.7952 20.6154 20.8263 20.7143Z" fill="#CB8020"/>
<path d="M21.4905 22.663C21.8291 22.1334 22.2823 21.5858 22.9052 21.397C23.4031 21.2461 23.9208 21.7225 24.1876 22.0724C24.4566 22.4262 24.4233 22.8806 24.4108 23.2943C24.4097 23.3169 24.4453 23.322 24.4498 23.3C24.5589 22.8054 24.6256 22.4239 24.3628 21.9695C24.1458 21.5959 23.7241 21.3162 23.3223 21.1884C22.5039 20.9285 21.7573 22.065 21.4555 22.6427C21.4442 22.6658 21.4764 22.6851 21.4905 22.663Z" fill="#CB8020"/>
<path d="M21.8858 22.6755C22.2877 22.3404 22.8088 21.9448 23.3536 22.2177C23.6679 22.3754 23.5667 22.8767 23.6204 23.1599C23.6255 23.1859 23.6667 23.1848 23.6724 23.1599C23.7622 22.7484 23.7752 22.2652 23.3491 22.0516C22.793 21.7724 22.2153 22.2776 21.8434 22.6326C21.8152 22.6603 21.8564 22.6998 21.8858 22.6755Z" fill="#CB8020"/>
<path d="M22.6374 23.2036C22.9607 23.1222 23.0584 23.3557 23.263 23.5371C23.289 23.5608 23.3297 23.545 23.3314 23.5088C23.3456 23.1245 22.9138 22.9453 22.5899 23.029C22.4769 23.0589 22.5249 23.2319 22.6374 23.2036Z" fill="#CB8020"/>
<path d="M26.2857 22.1937C26.7186 22.0445 26.9735 23.0431 27.0317 23.2952C27.1544 23.8208 27.0775 24.369 26.8532 24.8534C26.3688 25.8956 24.6896 26.4681 24.1849 25.1383C24.1702 25.0993 24.1001 25.101 24.1058 25.149C24.2951 26.5727 25.8494 26.2229 26.6576 25.4859C27.2126 24.98 27.3228 24.2176 27.2573 23.51C27.2109 23.0041 26.9481 22.227 26.3824 22.0976C26.3716 22.0953 26.3586 22.097 26.3507 22.1061C26.3281 22.1332 26.3055 22.1603 26.2857 22.1937Z" fill="#CB8020"/>
<path d="M25.7575 23.2511C26.0146 23.5772 26.1955 23.9411 26.2141 24.3611C26.2373 24.889 25.7343 25.3468 25.2245 25.2219C25.1861 25.2117 25.1691 25.2609 25.1985 25.2823C25.6727 25.6327 26.1322 25.2094 26.3385 24.7714C26.5888 24.2379 26.1621 23.5664 25.814 23.1945C25.7784 23.1561 25.7264 23.2121 25.7575 23.2511Z" fill="#CB8020"/>
<path d="M26.9043 21.0715C27.2186 21.3202 27.322 21.7237 27.2237 22.1041C27.2146 22.1386 27.235 22.1662 27.2655 22.1781C27.5074 22.2702 27.4882 21.8458 27.4724 21.7243C27.4294 21.3869 27.2875 21.1376 27.001 20.9455C26.9264 20.8957 26.8331 21.015 26.9043 21.0715Z" fill="#CB8020"/>
<path d="M27.4734 20.9684C27.5373 21.2589 27.4864 21.5788 27.6096 21.8506C27.6198 21.8726 27.6571 21.8726 27.6673 21.8506C27.7955 21.5658 27.726 21.2136 27.6599 20.9175C27.6328 20.7954 27.4463 20.8468 27.4734 20.9684Z" fill="#CB8020"/>
<path d="M21.2002 23.8061C20.7435 24.3622 20.4033 25.0727 20.7492 25.787C21.0097 26.3257 21.8078 27.1407 22.4187 26.6766C22.4521 26.6518 22.4328 26.602 22.3905 26.6099C21.758 26.7213 21.116 26.0612 20.908 25.5451C20.6723 24.9613 20.9244 24.3306 21.2527 23.8468C21.2736 23.8157 21.2245 23.7772 21.2002 23.8061Z" fill="#CB8020"/>
<path d="M21.2674 24.764C21.2301 25.0132 21.1216 25.2969 21.1708 25.5518C21.2273 25.8446 21.4166 26.0899 21.6399 26.2803C21.8931 26.4962 22.4893 26.7986 22.6973 26.3866C22.716 26.3499 22.6843 26.2888 22.6369 26.308C22.313 26.438 21.9733 26.2662 21.7235 26.0582C21.5359 25.9022 21.3906 25.6671 21.3771 25.4224C21.3663 25.2257 21.4409 25.0132 21.4675 24.8194C21.485 24.6888 21.2872 24.6311 21.2674 24.764Z" fill="#CB8020"/>
<path d="M21.9621 24.8625C21.9434 25.1547 21.8739 25.4497 22.0101 25.7232C22.1299 25.9646 22.421 26.0499 22.6612 25.9697C22.7008 25.9567 22.6979 25.9064 22.6612 25.8922C22.4374 25.8075 22.2 25.786 22.0954 25.5316C22.0129 25.3327 22.0598 25.0721 22.0559 24.8613C22.0542 24.802 21.9654 24.8031 21.9621 24.8625Z" fill="#CB8020"/>
<path d="M19.8773 22.8569C19.5094 23.1366 19.3189 23.482 19.3777 23.9528C19.4161 24.263 19.6739 24.6106 19.9977 24.4015C20.0367 24.3761 20.0175 24.3258 19.9757 24.3207C19.6795 24.2834 19.5976 23.9923 19.5783 23.7419C19.5552 23.4356 19.7462 23.1558 19.9423 22.9411C19.9813 22.8981 19.9276 22.8184 19.8773 22.8569Z" fill="#CB8020"/>
<path d="M20.1661 23.6511C20.1734 23.833 20.191 24.0009 20.2656 24.1688C20.2831 24.2078 20.3419 24.1795 20.3328 24.1399C20.2944 23.9749 20.2814 23.8195 20.2865 23.6511C20.2887 23.5731 20.1627 23.5736 20.1661 23.6511Z" fill="#CB8020"/>
<path d="M23.1527 26.6528C23.2172 27.1123 24.2775 27.1191 24.5193 26.8382C24.5623 26.7885 24.5227 26.6862 24.4481 26.7156C24.1825 26.8207 23.3845 26.9343 23.2132 26.6268C23.1934 26.5918 23.1476 26.6184 23.1527 26.6528Z" fill="#CB8020"/>
</svg>
