<svg width="33" height="33" viewBox="0 0 33 33" fill="none" xmlns="http://www.w3.org/2000/svg">
<rect x="0.5" y="0.900391" width="32" height="32" rx="16" fill="#E5AD65"/>
<path d="M23.2681 9.90159C23.0514 9.91071 22.8496 9.97092 22.6718 10.0394C22.5053 10.1033 21.8692 10.3636 20.8673 10.7734C19.8645 11.1836 18.5367 11.7274 17.1203 12.3084C14.2874 13.4704 11.1026 14.7785 9.47126 15.448C9.40992 15.4731 9.19588 15.5383 8.96871 15.7075C8.74153 15.8767 8.5 16.2272 8.5 16.6178C8.5 16.9328 8.65736 17.2457 8.85544 17.4325C9.05351 17.6193 9.26309 17.7116 9.44262 17.7815C10.094 18.035 12.1142 18.8236 12.4957 18.9725C12.63 19.3648 13.3612 21.4985 13.5308 22.0214C13.6426 22.3665 13.749 22.5826 13.8875 22.7541C13.9568 22.8399 14.0373 22.915 14.1349 22.9739C14.1739 22.9975 14.2167 23.0156 14.2599 23.0323L14.2625 23.0335C14.2724 23.0374 14.281 23.0438 14.2911 23.0472C14.3102 23.0536 14.3229 23.0543 14.3484 23.0596C14.4499 23.0909 14.5525 23.1105 14.6439 23.1105C15.034 23.1105 15.2728 22.9056 15.2728 22.9056L15.2871 22.8957L17.2934 21.2402L19.7268 23.4359C19.7611 23.4821 20.0806 23.9004 20.7853 23.9004C21.2037 23.9004 21.5356 23.7001 21.7487 23.4868C21.9618 23.2736 22.0946 23.0495 22.151 22.7678V22.7665C22.2038 22.5003 24.4464 11.5186 24.4464 11.5186L24.4425 11.5335C24.5081 11.2476 24.5253 10.9814 24.4529 10.7188C24.3805 10.4561 24.1896 10.2046 23.953 10.0693C23.7163 9.93394 23.4848 9.89247 23.2681 9.90159ZM23.1431 11.2304C23.1399 11.249 23.1455 11.2397 23.1405 11.2615L23.1392 11.2689L23.1379 11.2764C23.1379 11.2764 20.9231 22.1177 20.8413 22.5306C20.8473 22.4994 20.8199 22.5614 20.7918 22.5989C20.7521 22.5728 20.6707 22.5393 20.6707 22.5393L20.6577 22.5256L17.3338 19.5264L14.9838 21.4638L15.6829 18.7937C15.6829 18.7937 20.0533 14.4783 20.3166 14.2272C20.5286 14.0262 20.5731 13.9562 20.5731 13.8869C20.5731 13.794 20.5223 13.7267 20.409 13.7267C20.307 13.7267 20.1699 13.8213 20.0966 13.8658C19.1412 14.4467 14.9473 16.7782 13.0673 17.8212C12.7685 17.7046 10.6929 16.8942 9.98944 16.6203C9.99477 16.6181 9.99301 16.6189 9.99856 16.6166C11.6303 15.9469 14.8138 14.6389 17.6463 13.477C19.0625 12.8961 20.3913 12.3519 21.3933 11.942C22.3799 11.5385 23.0654 11.2607 23.1431 11.2304Z" fill="#FFF9F1"/>
</svg>
