<svg width="357" height="396" viewBox="0 0 357 396" fill="none" xmlns="http://www.w3.org/2000/svg">
<path d="M164.923 1.22902C138.304 3.45279 112.492 12.3479 89.8388 27.0384C68.3286 40.9876 51.7253 57.6996 37.3403 79.8027C22.8209 102.175 13.7463 127.715 10.7214 154.737C9.64589 164.711 9.37701 181.019 10.1164 189.712L10.6542 195.305H24.6359H38.6847V193.755C38.6847 192.946 38.0798 187.69 37.3403 182.164C34.1138 157.77 36.3321 138.565 44.1967 122.526C47.2216 116.394 48.4988 114.642 53.7419 109.386C63.2871 99.8841 72.9667 95.7061 89.2338 94.0888C102.476 92.7411 125.734 94.7627 137.497 98.2669C147.177 101.165 154.773 107.768 159.075 117.135C160.218 119.561 161.36 121.987 161.629 122.526C163.175 125.357 180.921 126.502 189.257 124.278C196.449 122.324 202.969 118.753 208.414 113.631C218.766 103.927 223.807 92.2694 223.74 78.0506C223.606 55.8128 209.557 36.8096 188.114 29.8013C183.005 28.1166 181.123 27.847 174.468 27.847C170.233 27.847 165.528 28.1166 164.049 28.3861C160.15 29.1948 161.831 27.9818 167.007 26.2297C190.937 18.0759 215.203 20.704 235.1 33.7097C250.09 43.4809 261.719 59.5191 265.887 75.8942C267.298 81.6896 268.777 94.0214 268.24 96.5148C268.105 97.256 267.836 99.9515 267.567 102.445L267.231 106.96L269.718 107.364C288.002 110.329 300.908 118.214 311.058 132.634C316.705 140.654 317.713 143.484 321.948 162.487C324.771 174.954 327.662 184.86 330.754 192.407L331.896 195.305H339.492H347.088L347.559 185.331C349.441 148.403 338.753 109.049 318.318 78.118C293.985 41.1897 256.879 14.7739 215.808 5.0701C200.348 1.43117 180.585 -0.0513458 164.923 1.22902ZM175.611 9.71982C175.006 10.3263 173.729 9.31551 174.199 8.50685C174.468 8.10252 174.872 8.10252 175.342 8.57423C175.745 8.97856 175.88 9.45027 175.611 9.71982ZM157.999 12.011C157.999 12.4827 157.596 13.0218 157.193 13.1566C156.655 13.3587 156.319 12.887 156.319 12.011C156.319 11.135 156.655 10.6633 157.193 10.798C157.596 11.0002 157.999 11.5393 157.999 12.011ZM200.012 14.1C200.012 14.4369 199.743 14.7065 199.339 14.7065C199.003 14.7065 198.667 14.2348 198.667 13.6283C198.667 13.0892 199.003 12.8196 199.339 13.0218C199.743 13.224 200.012 13.6957 200.012 14.1ZM222.261 17.6041C221.387 18.4802 220.514 17.8063 221.186 16.7955C221.387 16.3912 221.925 16.2564 222.329 16.4586C222.732 16.7281 222.732 17.1324 222.261 17.6041ZM148.925 27.3079L150.538 28.1166L148.723 28.7905C147.58 29.2622 146.774 30.2056 146.37 31.6881C145.698 33.9119 145.631 33.8445 144.556 30.4751C144.354 29.8687 143.614 29.2622 142.875 29.06C141.127 28.5883 141.127 27.7796 142.875 27.3079C143.614 27.1058 144.556 26.095 144.892 25.0842L145.631 23.1973L146.438 24.8146C146.908 25.758 147.984 26.8362 148.925 27.3079ZM127.683 25.4211C127.885 25.758 127.616 26.3645 127.146 26.7688C126.07 27.6449 124.995 26.6341 125.734 25.4885C126.272 24.6798 127.213 24.6124 127.683 25.4211ZM250.426 25.8254C250.426 26.3645 250.157 26.8362 249.821 26.8362C248.947 26.8362 248.343 25.758 248.88 25.2189C249.62 24.4777 250.426 24.8146 250.426 25.8254ZM116.659 31.4859C116.659 34.3836 117.13 34.8553 120.289 35.664L122.373 36.1357L120.356 36.2031C117.6 36.2704 116.659 37.3486 116.659 40.4485C116.659 41.8636 116.391 43.0092 115.987 43.0092C115.651 43.0092 115.315 41.7962 115.315 40.3811C115.315 37.4834 114.844 37.0117 111.685 36.2031C110.005 35.8661 109.937 35.7314 111.147 35.664C114.172 35.5292 115.315 34.3836 115.315 31.5533C115.315 30.0708 115.651 28.8578 115.987 28.8578C116.391 28.8578 116.659 30.0708 116.659 31.4859ZM133.464 30.9469C133.464 31.2838 132.994 31.5533 132.456 31.5533C131.448 31.5533 131.112 30.7447 131.851 30.0034C132.389 29.4643 133.464 30.0708 133.464 30.9469ZM155.243 35.664C155.042 36.0009 154.571 36.1357 154.235 35.8661C153.899 35.664 153.765 35.1923 154.033 34.8553C154.235 34.5184 154.706 34.3836 155.042 34.6532C155.378 34.8553 155.512 35.327 155.243 35.664ZM102.543 36.2704C102.543 36.6074 102.274 36.9443 101.871 36.9443C101.535 36.9443 101.199 36.6074 101.199 36.2704C101.199 35.8661 101.535 35.5966 101.871 35.5966C102.274 35.5966 102.543 35.8661 102.543 36.2704ZM169.83 39.842C169.763 40.6506 168.822 40.4485 168.553 39.5724C168.351 39.1681 168.62 38.8986 169.091 39.0333C169.494 39.2355 169.83 39.5724 169.83 39.842ZM179.711 40.8528C179.846 41.3245 179.51 41.6614 178.905 41.6614C178.3 41.6614 177.829 41.1897 177.829 40.5833C177.829 39.4377 179.308 39.6398 179.711 40.8528ZM262.66 41.3245C262.66 41.6614 262.324 42.0658 261.921 42.2005C261.518 42.3353 261.181 41.931 261.181 41.3245C261.181 40.718 261.518 40.3137 261.921 40.4485C262.324 40.5833 262.66 40.9876 262.66 41.3245ZM83.7218 41.9984C83.7218 42.5375 83.453 43.0092 83.0496 43.0092C82.7135 43.0092 82.3774 42.5375 82.3774 41.9984C82.3774 41.4593 82.7135 40.9876 83.0496 40.9876C83.453 40.9876 83.7218 41.4593 83.7218 41.9984ZM131.582 43.144L133.128 44.6939L131.313 46.5807C129.633 48.3328 129.498 48.4002 129.095 47.1198C128.893 46.446 128.288 45.6373 127.751 45.4351C126.944 45.1656 127.011 44.7613 128.288 43.4135C129.095 42.5375 129.834 41.7962 129.902 41.7288C129.969 41.6614 130.708 42.3353 131.582 43.144ZM146.236 42.6723C146.236 43.2113 145.833 43.6831 145.295 43.6831C144.152 43.6831 143.413 42.7396 144.018 42.0658C144.824 41.2571 146.236 41.6614 146.236 42.6723ZM94.9475 45.4351C94.3425 46.0416 93.0654 45.0308 93.5359 44.2222C93.8048 43.8178 94.2081 43.8178 94.6786 44.2896C95.0819 44.6939 95.2164 45.1656 94.9475 45.4351ZM108.593 45.3678C108.593 45.9068 108.123 46.3786 107.585 46.3786C107.047 46.3786 106.576 45.9068 106.576 45.3678C106.576 44.8287 107.047 44.3569 107.585 44.3569C108.123 44.3569 108.593 44.8287 108.593 45.3678ZM163.444 46.1764C164.923 47.6589 165.057 48.0632 164.251 48.6697C163.713 49.0741 162.839 50.1523 162.234 50.9609C161.159 52.5782 161.159 52.5782 160.688 51.1631C160.487 50.3544 159.68 49.411 158.941 49.0067C157.663 48.3328 157.663 48.2654 159.478 46.446C160.487 45.3678 161.428 44.4917 161.495 44.4243C161.562 44.4243 162.436 45.1656 163.444 46.1764ZM187.307 50.4892L185.559 52.2413L183.879 50.5566L182.198 48.8719L183.879 47.1198L185.559 45.3678L187.307 47.0524L189.055 48.7371L187.307 50.4892ZM282.49 55.2737C283.095 55.9476 284.641 56.4867 285.985 56.5541L288.405 56.6214L285.515 57.2279C281.549 57.9692 281.347 58.1714 281.347 61.9451C281.347 63.7645 281.078 65.247 280.675 65.247C280.339 65.247 280.003 63.7645 280.003 61.8777C280.003 58.2387 279.062 57.2279 275.499 57.0932C273.348 57.0258 273.886 56.7562 277.516 56.1497C280.003 55.7454 280.003 55.7454 280.003 52.5108C280.003 48.4002 280.944 47.3894 281.213 51.2305C281.347 52.7804 281.952 54.6672 282.49 55.2737ZM105.232 51.4326C105.232 51.9717 104.762 52.4434 104.224 52.4434C103.686 52.4434 103.215 51.9717 103.215 51.4326C103.215 50.8935 103.686 50.4218 104.224 50.4218C104.762 50.4218 105.232 50.8935 105.232 51.4326ZM145.429 54.2629C146.505 55.4085 146.505 55.5432 145.295 56.891L143.951 58.3061L142.808 56.891C141.732 55.5432 141.732 55.4085 142.741 54.3303C144.152 52.9151 144.018 52.9151 145.429 54.2629ZM80.697 55.7454C81.1675 56.5541 79.8903 57.3627 79.0165 56.8236C78.277 56.3519 78.7476 55.1389 79.6887 55.1389C80.0248 55.1389 80.4281 55.4085 80.697 55.7454ZM110.61 56.1497C110.61 56.6888 110.341 57.1605 110.005 57.1605C109.131 57.1605 108.526 56.0824 109.064 55.5432C109.803 54.802 110.61 55.1389 110.61 56.1497ZM94.8131 60.3277C93.267 62.0798 92.4604 62.282 92.4604 60.8669C92.4604 60.3277 91.9898 59.856 91.4521 59.856C90.1077 59.856 90.1749 59.5191 91.9898 57.6996L93.4687 56.1497L94.8131 57.4975L96.2247 58.8452L94.8131 60.3277ZM131.112 57.1605C131.313 57.4975 131.044 57.8344 130.507 57.8344C129.902 57.8344 129.431 57.4975 129.431 57.1605C129.431 56.7562 129.7 56.4867 130.036 56.4867C130.439 56.4867 130.91 56.7562 131.112 57.1605ZM173.796 57.8344C173.796 58.1714 174.401 58.98 175.073 59.6539C176.35 60.8669 176.35 60.8669 174.804 62.6863L173.191 64.5058L171.107 62.5515C169.225 60.7995 169.158 60.5973 170.368 60.193C171.107 59.9908 171.914 59.1822 172.116 58.4409C172.519 57.1605 173.796 56.6214 173.796 57.8344ZM207.07 62.8885L205.389 64.5058L203.843 62.9559L202.23 61.3386L203.978 59.6539L205.725 57.9692L207.204 59.5865L208.683 61.2038L207.07 62.8885ZM189.257 59.856C189.257 60.5973 188.988 61.2038 188.652 61.2038C187.71 61.2038 187.105 59.9908 187.576 59.1822C188.248 58.0366 189.257 58.4409 189.257 59.856ZM73.6389 71.4467C74.6472 72.2553 76.2605 72.6596 78.8148 72.6596C81.0331 72.6596 82.3102 72.9292 82.0413 73.3335C81.8397 73.6705 80.0248 74.0074 78.1426 74.0074C76.1932 74.0074 74.3111 74.2769 73.8406 74.5465C72.4962 75.4225 71.6223 78.6571 71.5551 83.3068C71.4879 87.4849 71.4207 87.6196 70.8829 85.1263C70.614 83.6438 70.3451 81.0831 70.2779 79.3984C70.2107 75.0856 69.6729 74.4791 65.102 74.2096C59.2539 73.8052 58.6489 73.1314 63.6904 72.6596C69.6057 72.0532 70.2779 71.4467 70.2779 66.3252C70.2779 59.3169 71.219 58.104 71.6895 64.5058C72.0928 69.2903 72.3617 70.4359 73.6389 71.4467ZM128.624 66.7296C127.616 67.4034 126.541 68.7512 126.272 69.762L125.801 71.6488L125.398 69.9641C125.196 69.0207 124.054 67.673 122.911 66.8643L120.76 65.4492L122.44 64.7079C123.314 64.2362 124.39 63.158 124.793 62.282L125.532 60.6647L128.02 63.158L130.507 65.584L128.624 66.7296ZM151.614 62.5515C151.614 62.8885 151.345 63.2254 150.941 63.2254C150.605 63.2254 150.269 62.8885 150.269 62.5515C150.269 62.1472 150.605 61.8777 150.941 61.8777C151.345 61.8777 151.614 62.1472 151.614 62.5515ZM62.4805 64.6405C62.2788 64.9775 61.8083 65.1123 61.4722 64.8427C61.1361 64.6405 61.0016 64.1688 61.2705 63.8319C61.4722 63.495 61.9427 63.3602 62.2788 63.6297C62.6149 63.8319 62.7493 64.3036 62.4805 64.6405ZM111.954 65.9883C111.954 66.3252 111.685 66.5948 111.282 66.5948C110.946 66.5948 110.61 66.1231 110.61 65.5166C110.61 64.9775 110.946 64.7079 111.282 64.9101C111.685 65.1123 111.954 65.584 111.954 65.9883ZM155.647 70.0315C155.647 70.3685 155.176 70.638 154.638 70.638C153.63 70.638 153.294 69.8294 154.033 69.0881C154.571 68.549 155.647 69.1555 155.647 70.0315ZM209.557 72.7944C208.549 73.8052 207.809 73.064 208.347 71.5814C208.683 70.7054 208.952 70.5706 209.557 71.1771C210.162 71.7836 210.162 72.1879 209.557 72.7944ZM142.539 73.3335C142.539 73.8052 142.136 74.3443 141.732 74.4791C141.195 74.6813 140.858 74.2096 140.858 73.3335C140.858 72.4575 141.195 71.9858 141.732 72.1205C142.136 72.3227 142.539 72.8618 142.539 73.3335ZM102.409 75.2204C103.619 76.4333 103.619 76.5681 102.073 78.0506C100.796 79.2636 100.527 79.331 100.527 78.455C100.527 77.8485 100.123 77.1746 99.5856 76.9724C98.779 76.6355 98.779 76.366 99.7201 75.3551C101.132 73.8052 100.997 73.8052 102.409 75.2204ZM179.308 77.0398C179.308 77.3768 178.972 77.7811 178.569 77.9159C178.165 78.0506 177.829 77.6463 177.829 77.0398C177.829 76.4333 178.165 76.029 178.569 76.1638C178.972 76.2986 179.308 76.7029 179.308 77.0398ZM169.763 77.3768C169.763 77.7137 169.494 78.0506 169.091 78.0506C168.755 78.0506 168.418 77.7137 168.418 77.3768C168.418 76.9724 168.755 76.7029 169.091 76.7029C169.494 76.7029 169.763 76.9724 169.763 77.3768ZM291.43 80.7461C291.43 84.9241 292.573 86.1371 296.539 86.1371C298.152 86.1371 299.497 86.4067 299.497 86.811C299.497 87.1479 298.018 87.4849 296.27 87.4849C294.522 87.4849 292.707 87.8218 292.237 88.2935C291.766 88.7652 291.43 90.8542 291.43 93.0106C291.43 98.1995 290.355 98.0647 289.951 92.8085C289.615 88.1587 289.01 87.4849 284.91 87.4849C280.877 87.4849 280.742 86.3393 284.776 86.0023C286.59 85.8002 288.473 85.3285 288.876 84.9241C289.279 84.5198 289.75 82.4982 289.951 80.4766C290.288 75.9616 291.43 76.1638 291.43 80.7461ZM133.935 82.3634L132.389 83.9807L130.91 82.4308L129.431 80.8809L130.91 79.1962L132.389 77.5115L133.935 79.1288L135.414 80.7461L133.935 82.3634ZM55.4896 79.7353C55.4896 80.2744 55.2207 80.7461 54.8846 80.7461C54.0108 80.7461 53.4058 79.6679 53.9436 79.1288C54.683 78.3876 55.4896 78.7245 55.4896 79.7353ZM152.151 79.8701C151.882 81.3526 150.673 81.2178 150.404 79.8027C150.269 79.1288 150.605 78.7245 151.277 78.7245C151.95 78.7245 152.286 79.1962 152.151 79.8701ZM187.912 79.3984C187.912 79.7353 187.643 80.0723 187.24 80.0723C186.904 80.0723 186.568 79.7353 186.568 79.3984C186.568 78.9941 186.904 78.7245 187.24 78.7245C187.643 78.7245 187.912 78.9941 187.912 79.3984ZM199.877 81.2178C200.012 81.2852 199.474 81.9591 198.734 82.7004C197.39 84.0481 197.256 84.0481 196.113 82.9025C194.97 81.7569 194.97 81.5548 195.911 80.2744C196.92 78.9267 197.054 78.9267 198.331 79.9375C199.071 80.544 199.81 81.1505 199.877 81.2178ZM124.121 80.2744C124.054 81.0831 123.112 80.8809 122.844 80.0049C122.642 79.6005 122.911 79.331 123.381 79.4658C123.785 79.6679 124.121 80.0049 124.121 80.2744ZM115.987 81.42C115.987 81.7569 115.718 82.0939 115.315 82.0939C114.979 82.0939 114.643 81.7569 114.643 81.42C114.643 81.0157 114.979 80.7461 115.315 80.7461C115.718 80.7461 115.987 81.0157 115.987 81.42ZM84.0579 85.4632C83.7218 86.0023 83.3185 86.0023 82.9152 85.598C82.5119 85.1937 82.4447 84.5198 82.7135 84.1155C83.0496 83.5764 83.453 83.5764 83.8563 83.9807C84.2596 84.385 84.3268 85.0589 84.0579 85.4632ZM217.153 84.7894C217.354 85.1263 217.085 85.4632 216.548 85.4632C215.943 85.4632 215.472 85.1263 215.472 84.7894C215.472 84.385 215.741 84.1155 216.077 84.1155C216.48 84.1155 216.951 84.385 217.153 84.7894ZM161.024 86.2045C161.024 86.5414 160.554 86.811 160.016 86.811C159.008 86.811 158.672 86.0023 159.411 85.2611C159.949 84.722 161.024 85.3285 161.024 86.2045ZM173.124 85.8002C173.124 86.3393 172.855 86.811 172.452 86.811C172.116 86.811 171.779 86.3393 171.779 85.8002C171.779 85.2611 172.116 84.7894 172.452 84.7894C172.855 84.7894 173.124 85.2611 173.124 85.8002ZM148.253 87.1479C148.253 87.687 147.782 88.1587 147.244 88.1587C146.707 88.1587 146.236 87.687 146.236 87.1479C146.236 86.6088 146.707 86.1371 147.244 86.1371C147.782 86.1371 148.253 86.6088 148.253 87.1479ZM312.94 89.5739C312.94 89.9108 312.47 90.1804 311.932 90.1804C310.924 90.1804 310.588 89.3717 311.327 88.6305C311.865 88.0914 312.94 88.6978 312.94 89.5739ZM45.4067 91.9998C45.4067 93.8193 45.6756 95.5714 45.9444 96.0431C46.2133 96.4474 47.961 97.1213 49.776 97.3908L53.1369 97.9973L50.1121 98.469C46.0117 99.2103 45.4067 99.8841 45.4067 104.062C45.4067 106.084 45.1378 107.701 44.7345 107.701C44.3984 107.701 44.0623 106.084 44.0623 104.062C44.0623 99.8841 43.5918 99.345 39.3569 98.469L36.3321 97.8625L39.693 97.3234C41.5752 97.0539 43.2557 96.4474 43.5245 96.0431C43.7934 95.5714 44.0623 93.8193 44.0623 91.9998C44.0623 90.2477 44.3984 88.8326 44.7345 88.8326C45.1378 88.8326 45.4067 90.2477 45.4067 91.9998ZM57.5062 89.4391C57.5062 90.3825 56.2963 90.989 55.4896 90.5173C55.0863 90.2477 54.9519 89.776 55.1535 89.4391C55.6913 88.6305 57.5062 88.6305 57.5062 89.4391ZM64.2282 92.8085C64.2282 93.7519 63.0182 94.3584 62.2116 93.8867C61.8083 93.6171 61.6738 93.1454 61.8755 92.8085C62.4132 91.9998 64.2282 91.9998 64.2282 92.8085ZM186.232 92.8085C186.702 93.6171 185.425 94.4258 184.551 93.8867C183.812 93.415 184.282 92.202 185.223 92.202C185.559 92.202 185.963 92.4715 186.232 92.8085ZM302.521 94.2236C302.521 94.6953 302.118 95.2344 301.715 95.3692C301.177 95.5714 300.841 95.0996 300.841 94.2236C300.841 93.3476 301.177 92.8759 301.715 93.0106C302.118 93.2128 302.521 93.7519 302.521 94.2236ZM157.663 96.8517C157.663 97.7951 156.453 98.4016 155.647 97.9299C155.243 97.6604 155.109 97.1887 155.311 96.8517C155.848 96.0431 157.663 96.0431 157.663 96.8517ZM172.317 98.9407L174.334 100.895L172.721 101.973C171.847 102.512 171.107 103.456 171.107 103.995C171.107 105.477 169.897 105.208 169.427 103.658C169.225 102.917 168.822 102.31 168.553 102.31C168.284 102.31 167.679 102.041 167.209 101.771C166.536 101.299 166.805 100.693 168.217 99.0755C169.225 97.9299 170.166 96.9865 170.233 96.9191C170.301 96.9191 171.242 97.7951 172.317 98.9407ZM203.104 97.6604C203.776 98.8059 202.23 100.086 201.289 99.1429C200.482 98.3342 201.02 96.9191 202.028 96.9191C202.364 96.9191 202.835 97.256 203.104 97.6604ZM35.3238 103.051C35.3238 103.388 34.8532 103.658 34.3155 103.658C33.3072 103.658 32.9711 102.849 33.7105 102.108C34.2482 101.569 35.3238 102.175 35.3238 103.051ZM186.568 102.984C186.568 103.321 186.299 103.658 185.896 103.658C185.559 103.658 185.223 103.321 185.223 102.984C185.223 102.58 185.559 102.31 185.896 102.31C186.299 102.31 186.568 102.58 186.568 102.984ZM195.978 106.016C195.978 106.555 195.71 107.027 195.306 107.027C194.97 107.027 194.634 106.555 194.634 106.016C194.634 105.477 194.97 105.006 195.306 105.006C195.71 105.006 195.978 105.477 195.978 106.016ZM309.916 107.701C309.579 108.24 309.176 108.24 308.773 107.836C308.37 107.432 308.302 106.758 308.571 106.353C308.907 105.814 309.311 105.814 309.714 106.219C310.117 106.623 310.184 107.297 309.916 107.701ZM318.99 110.06C318.99 110.599 318.721 111.07 318.385 111.07C317.511 111.07 316.906 109.992 317.444 109.453C318.184 108.712 318.99 109.049 318.99 110.06ZM33.3072 111.07C33.3072 111.407 32.8366 111.744 32.2989 111.744C31.7611 111.744 31.2906 111.407 31.2906 111.07C31.2906 110.666 31.7611 110.397 32.2989 110.397C32.8366 110.397 33.3072 110.666 33.3072 111.07ZM190.601 114.103C190.601 114.642 190.332 115.114 189.929 115.114C189.593 115.114 189.257 114.642 189.257 114.103C189.257 113.564 189.593 113.092 189.929 113.092C190.332 113.092 190.601 113.564 190.601 114.103ZM175.14 115.788C175.14 116.125 174.872 116.461 174.535 116.461C174.132 116.461 173.662 116.125 173.46 115.788C173.258 115.383 173.527 115.114 174.065 115.114C174.67 115.114 175.14 115.383 175.14 115.788ZM324.368 119.494C324.368 120.033 324.099 120.505 323.696 120.505C323.36 120.505 323.023 120.033 323.023 119.494C323.023 118.955 323.36 118.483 323.696 118.483C324.099 118.483 324.368 118.955 324.368 119.494ZM31.9628 120.168C31.9628 120.707 31.6939 121.179 31.2906 121.179C30.9545 121.179 30.6184 120.707 30.6184 120.168C30.6184 119.629 30.9545 119.157 31.2906 119.157C31.6939 119.157 31.9628 119.629 31.9628 120.168ZM27.2574 128.928C27.2574 129.467 26.9885 129.939 26.6524 129.939C25.7786 129.939 25.1736 128.861 25.7114 128.322C26.4508 127.58 27.2574 127.917 27.2574 128.928ZM328.065 131.287C328.267 131.691 327.998 132.163 327.393 132.365C326.116 132.904 325.376 132.365 326.048 131.354C326.586 130.411 327.527 130.411 328.065 131.287ZM29.274 142.406C29.274 142.945 28.8035 143.416 28.2657 143.416C27.7279 143.416 27.2574 142.945 27.2574 142.406C27.2574 141.866 27.7279 141.395 28.2657 141.395C28.8035 141.395 29.274 141.866 29.274 142.406ZM332.434 145.101C332.434 145.64 332.165 146.112 331.762 146.112C331.426 146.112 331.09 145.64 331.09 145.101C331.09 144.562 331.426 144.09 331.762 144.09C332.165 144.09 332.434 144.562 332.434 145.101ZM19.7288 156.287C19.5944 156.692 19.1911 156.961 18.855 156.961C18.5189 156.961 18.1156 156.692 17.9811 156.287C17.8467 155.883 18.25 155.546 18.855 155.546C19.4599 155.546 19.8633 155.883 19.7288 156.287ZM332.031 159.657C331.829 159.994 331.359 160.128 331.023 159.859C330.686 159.657 330.552 159.185 330.821 158.848C331.023 158.511 331.493 158.376 331.829 158.646C332.165 158.848 332.3 159.32 332.031 159.657ZM26.2491 169.563C29.1396 170.034 29.6101 170.574 27.2574 170.978C25.0392 171.382 24.9047 171.584 24.5014 174.415C24.1653 177.582 23.4259 177.043 23.0898 173.404C22.9554 171.786 22.4848 171.315 20.8716 170.978L18.855 170.574L20.8716 170.034C23.3587 169.361 23.8292 168.687 23.9637 165.654C24.0981 163.498 24.0981 163.565 24.5014 166.328C24.8375 168.687 25.2408 169.428 26.2491 169.563ZM335.795 172.056C335.795 172.595 335.526 173.067 335.19 173.067C334.316 173.067 333.711 171.989 334.249 171.45C334.988 170.708 335.795 171.045 335.795 172.056Z" fill="#CB8020"/>
<path d="M261.517 7.02411C272.541 11.6064 288.271 19.356 295.396 23.8036C304 29.1272 313.814 37.1463 318.654 42.8068C324.166 49.276 324.905 49.8825 322.284 46.0414C318.452 40.4483 305.008 27.4425 298.488 22.9949C286.926 15.178 275.566 9.85438 262.458 6.0133C258.492 4.86771 254.997 3.92429 254.728 3.92429C254.392 3.99168 257.484 5.33942 261.517 7.02411Z" fill="#CB8020"/>
<path d="M322.686 29.5321C323.627 35.2601 326.652 39.1011 332.03 41.3249C335.324 42.7401 335.055 42.1336 331.425 40.0446C327.929 37.9556 325.442 34.9231 323.627 30.4082C322.417 27.5105 322.35 27.4431 322.686 29.5321Z" fill="#CB8020"/>
<path d="M87.0813 96.2458C73.0996 97.9305 62.6806 102.513 54.8159 110.397C45.069 120.236 39.9604 133.107 38.0782 152.447C37.0027 163.364 37.1371 168.35 39.0865 183.378C40.5653 194.497 40.767 198.54 40.4309 205.413C39.8931 217.274 37.6749 228.595 34.3139 236.546C34.045 237.22 36.3977 235.131 39.4898 231.964C42.5147 228.729 49.035 223.136 53.942 219.497C64.2938 211.68 66.8482 208.918 70.3436 201.774C72.6291 197.057 72.9652 195.777 72.9652 191.666C72.9652 186.073 73.7718 182.839 75.8556 179.739C78.2083 176.167 81.3676 174.415 85.1991 174.415C90.1061 174.415 92.9294 176.032 95.8198 180.547L98.3741 184.456L99.7858 180.48C101.735 175.089 106.239 170.305 112.423 166.868C118.271 163.633 120.624 160.87 122.708 154.468C124.926 147.865 127.749 144.158 132.32 141.8C135.95 139.98 136.824 139.778 145.428 139.508C155.376 139.239 156.922 138.7 158.536 135.465C163.443 125.694 155.175 108.645 142.605 102.715C137.025 100.019 131.715 98.6717 122.035 97.324C113.095 96.0436 93.6688 95.5045 87.0813 96.2458ZM125.8 106.421C126.472 107.567 124.926 108.847 123.985 107.904C123.178 107.095 123.716 105.68 124.724 105.68C125.06 105.68 125.531 106.017 125.8 106.421ZM82.6448 106.96C82.8464 107.297 82.5775 107.904 82.107 108.308C81.0315 109.184 79.956 108.173 80.6954 107.028C81.2332 106.219 82.1742 106.152 82.6448 106.96ZM98.5086 110.06C98.5086 110.599 98.2397 111.071 97.8364 111.071C97.5003 111.071 97.1642 110.599 97.1642 110.06C97.1642 109.521 97.5003 109.049 97.8364 109.049C98.2397 109.049 98.5086 109.521 98.5086 110.06ZM104.558 111.071C104.558 111.408 104.289 111.745 103.886 111.745C103.55 111.745 103.214 111.408 103.214 111.071C103.214 110.667 103.55 110.397 103.886 110.397C104.289 110.397 104.558 110.667 104.558 111.071ZM144.218 112.419C144.218 112.756 143.949 113.093 143.546 113.093C143.21 113.093 142.873 112.756 142.873 112.419C142.873 112.014 143.21 111.745 143.546 111.745C143.949 111.745 144.218 112.014 144.218 112.419ZM113.969 121.179C112.692 122.459 112.557 122.459 111.415 121.314C110.205 120.101 110.205 120.034 111.482 118.686C112.826 117.405 112.894 117.405 114.104 118.618C115.246 119.764 115.246 119.899 113.969 121.179ZM74.7801 119.764C75.4523 120.842 75.3178 121.247 74.2423 122.257C73.0996 123.268 72.9652 123.336 72.9652 122.325C72.9652 121.651 72.4946 121.179 71.9569 121.179C71.1502 121.179 71.1502 120.977 72.1585 119.899C73.6373 118.214 73.839 118.214 74.7801 119.764ZM125.598 120.842C125.665 121.179 125.195 121.583 124.59 121.718C123.85 121.853 123.38 121.516 123.38 120.842C123.38 119.697 125.396 119.629 125.598 120.842ZM152.284 122.257C152.284 122.796 152.015 123.066 151.612 122.864C151.276 122.662 150.94 122.19 150.94 121.786C150.94 121.449 151.276 121.179 151.612 121.179C152.015 121.179 152.284 121.651 152.284 122.257ZM58.9835 122.864C58.9835 123.201 58.6474 123.605 58.2441 123.74C57.8408 123.875 57.5047 123.47 57.5047 122.864C57.5047 122.257 57.8408 121.853 58.2441 121.988C58.6474 122.123 58.9835 122.527 58.9835 122.864ZM137.563 122.729C137.496 123.538 136.555 123.336 136.286 122.459C136.084 122.055 136.353 121.786 136.824 121.92C137.227 122.123 137.563 122.459 137.563 122.729ZM92.4588 125.222C92.4588 125.559 92.1899 125.896 91.7866 125.896C91.4505 125.896 91.1144 125.559 91.1144 125.222C91.1144 124.818 91.4505 124.548 91.7866 124.548C92.1899 124.548 92.4588 124.818 92.4588 125.222ZM142.873 125.559C142.873 126.098 142.605 126.57 142.201 126.57C141.865 126.57 141.529 126.098 141.529 125.559C141.529 125.02 141.865 124.548 142.201 124.548C142.605 124.548 142.873 125.02 142.873 125.559ZM85.1991 136.476C85.6024 136.948 87.2829 137.352 89.1651 137.352C90.98 137.352 92.4588 137.622 92.4588 138.026C92.4588 138.363 90.98 138.7 89.1651 138.7C85.0647 138.7 84.3925 139.508 83.8547 144.899L83.4514 149.145L82.9809 144.967C82.4431 139.576 81.7037 138.7 77.6033 138.7C75.7884 138.7 74.3095 138.363 74.3095 138.026C74.3095 137.622 75.7212 137.352 77.5361 137.352C82.107 137.352 82.5775 136.813 82.9809 131.489L83.317 126.907L83.8547 131.287C84.1908 133.646 84.7958 136.004 85.1991 136.476ZM102.811 130.007C102.273 130.95 100.525 130.748 100.525 129.737C100.525 129.198 100.727 128.592 100.996 128.39C101.601 127.783 103.281 129.266 102.811 130.007ZM122.708 131.624C122.708 132.163 122.439 132.635 122.103 132.635C121.229 132.635 120.624 131.557 121.162 131.018C121.901 130.276 122.708 130.613 122.708 131.624ZM58.1769 132.972C58.1769 133.511 57.908 133.983 57.5047 133.983C57.1686 133.983 56.8325 133.511 56.8325 132.972C56.8325 132.433 57.1686 131.961 57.5047 131.961C57.908 131.961 58.1769 132.433 58.1769 132.972ZM129.026 133.376C128.825 133.713 128.354 133.848 128.018 133.578C127.682 133.376 127.547 132.905 127.816 132.568C128.018 132.231 128.488 132.096 128.825 132.365C129.161 132.568 129.295 133.039 129.026 133.376ZM109.936 134.657C109.936 134.994 109.465 135.33 108.928 135.33C108.39 135.33 107.919 134.994 107.919 134.657C107.919 134.252 108.39 133.983 108.928 133.983C109.465 133.983 109.936 134.252 109.936 134.657ZM101.87 137.689C101.87 138.228 101.601 138.7 101.265 138.7C100.391 138.7 99.7858 137.622 100.324 137.083C101.063 136.341 101.87 136.678 101.87 137.689ZM50.7827 141.8C50.7827 142.339 50.3122 142.743 49.7744 142.743C48.7661 142.743 48.3628 141.328 49.1694 140.519C49.8416 139.913 50.7827 140.654 50.7827 141.8ZM113.297 141.934C113.297 142.81 112.49 143.417 111.818 143.013C111.146 142.608 111.751 141.395 112.692 141.395C113.028 141.395 113.297 141.665 113.297 141.934ZM61.5378 143.754C61.5378 144.293 61.269 144.765 60.8656 144.765C60.5295 144.765 60.1934 144.293 60.1934 143.754C60.1934 143.215 60.5295 142.743 60.8656 142.743C61.269 142.743 61.5378 143.215 61.5378 143.754ZM103.886 146.112C103.886 146.449 103.617 146.786 103.214 146.786C102.878 146.786 102.542 146.449 102.542 146.112C102.542 145.708 102.878 145.439 103.214 145.439C103.617 145.439 103.886 145.708 103.886 146.112ZM71.7552 149.145C71.7552 149.482 71.4191 149.886 71.0158 150.021C70.6125 150.156 70.2764 149.751 70.2764 149.145C70.2764 148.538 70.6125 148.134 71.0158 148.269C71.4191 148.404 71.7552 148.808 71.7552 149.145ZM58.1769 152.447C58.1769 155.681 58.7818 156.221 62.2772 156.221C63.3528 156.221 64.2266 156.49 64.2266 156.894C64.2266 157.231 63.3528 157.568 62.2772 157.568C58.7818 157.568 58.1769 158.107 58.1769 161.275C58.1769 162.892 57.908 164.442 57.5047 164.644C57.1013 164.914 56.8325 163.903 56.8325 162.151C56.8325 158.579 55.9586 157.568 53.0009 157.568C49.7744 157.568 50.3122 156.355 53.6731 156.086L56.4964 155.884L56.698 152.649C56.9669 148.673 58.1769 148.471 58.1769 152.447ZM91.2489 150.493C91.2489 150.83 90.9128 151.234 90.5095 151.369C90.1061 151.503 89.77 151.099 89.77 150.493C89.77 149.886 90.1061 149.482 90.5095 149.617C90.9128 149.751 91.2489 150.156 91.2489 150.493ZM83.0481 159.927C83.0481 160.466 82.5775 160.938 82.0398 160.938C81.502 160.938 81.0315 160.466 81.0315 159.927C81.0315 159.388 81.502 158.916 82.0398 158.916C82.5775 158.916 83.0481 159.388 83.0481 159.927ZM101.265 160.466C100.391 161.342 99.5169 160.668 100.189 159.657C100.391 159.253 100.928 159.118 101.332 159.32C101.735 159.59 101.735 159.994 101.265 160.466ZM72.9652 162.959C72.9652 163.296 72.6963 163.633 72.293 163.633C71.9569 163.633 71.6208 163.296 71.6208 162.959C71.6208 162.555 71.9569 162.285 72.293 162.285C72.6963 162.285 72.9652 162.555 72.9652 162.959ZM69.6042 167.339C69.6042 167.879 69.3353 168.35 68.9992 168.35C68.1253 168.35 67.5204 167.272 68.0581 166.733C68.7975 165.992 69.6042 166.329 69.6042 167.339ZM50.1105 169.698C50.1105 170.035 49.8416 170.372 49.4383 170.372C49.1022 170.372 48.7661 170.035 48.7661 169.698C48.7661 169.294 49.1022 169.024 49.4383 169.024C49.8416 169.024 50.1105 169.294 50.1105 169.698ZM61.2017 171.72C61.4034 172.124 61.1345 172.596 60.5295 172.798C59.2524 173.337 58.513 172.798 59.1851 171.787C59.7229 170.844 60.664 170.844 61.2017 171.72ZM67.3187 182.771L65.9071 184.254L64.5627 182.839L63.1511 181.491L64.5627 180.076C65.9071 178.728 65.9071 178.728 67.3187 180.008L68.7975 181.221L67.3187 182.771ZM50.9171 183.647L49.3711 185.197L48.0939 183.715C46.9512 182.232 46.9512 182.165 48.2284 180.817C49.5728 179.402 49.64 179.402 51.0516 180.682L52.5304 182.03L50.9171 183.647ZM57.5719 190.116C57.5047 190.925 56.5636 190.723 56.2947 189.847C56.093 189.443 56.3619 189.173 56.8325 189.308C57.2358 189.51 57.5719 189.847 57.5719 190.116ZM48.2284 199.012C48.2284 199.349 47.8923 199.753 47.4889 199.888C47.0856 200.022 46.7495 199.618 46.7495 199.012C46.7495 198.405 47.0856 198.001 47.4889 198.136C47.8923 198.27 48.2284 198.675 48.2284 199.012ZM58.1769 201.707C58.1769 202.246 57.908 202.718 57.5047 202.718C57.1686 202.718 56.8325 202.246 56.8325 201.707C56.8325 201.168 57.1686 200.696 57.5047 200.696C57.908 200.696 58.1769 201.168 58.1769 201.707ZM45.4724 210.333C45.4051 211.141 44.4641 210.939 44.1952 210.063C43.9935 209.659 44.2624 209.389 44.7329 209.524C45.1363 209.726 45.4724 210.063 45.4724 210.333Z" fill="#CB8020"/>
<path d="M243.03 110.06C235.838 111.07 225.015 113.631 219.369 115.787C209.017 119.629 200.01 128.726 200.01 135.262C200.01 139.777 201.825 140.99 210.496 142.069C220.108 143.282 225.217 146.381 227.57 152.514C227.973 153.659 228.578 157.029 228.914 160.128C229.788 168.08 230.864 169.563 238.863 173.538C242.896 175.56 246.458 177.851 248.206 179.671C250.962 182.434 251.029 182.501 251.769 181.153C252.912 178.997 258.424 175.762 260.911 175.762C262.457 175.762 263.734 176.369 265.146 177.784C268.439 181.153 269.38 186.881 267.834 193.822C267.095 196.854 267.162 197.394 269.111 201.437C272.472 208.512 273.481 213.567 273.077 221.249C272.405 234.524 266.96 245.441 249.013 269.565C241.484 279.674 236.51 287.76 234.897 292.545C233.216 297.329 233.216 306.157 234.897 312.626C236.712 319.769 238.863 324.149 245.047 333.786C251.634 343.961 253.382 347.735 254.861 355.08C256.81 364.784 254.726 371.927 247.87 379.407C244.173 383.383 235.703 390.391 230.931 393.423C226.83 395.984 231.2 394.367 240.274 389.919C253.113 383.585 258.356 377.722 260.911 366.805C265.414 347.263 266.826 343.287 271.867 337.02C275.43 332.505 284.169 325.227 295.932 316.871C301.041 313.3 308.704 307.909 312.939 304.876C322.417 298.138 330.819 290.186 334.852 284.189C343.994 270.374 347.221 251.034 343.456 232.368C341.977 224.955 339.087 216.869 332.836 202.043C325.643 185.129 323.694 179.064 320.064 162.622C318.451 155.209 316.434 147.325 315.56 145.101C312.603 137.082 304.402 126.165 297.276 120.774C291.227 116.192 281.749 111.879 274.422 110.329C267.095 108.847 252.979 108.712 243.03 110.06ZM297.075 135.936C297.814 136.745 299.226 137.351 300.436 137.419H302.52L300.234 138.227C298.957 138.699 297.344 139.845 296.537 140.923C295.26 142.675 295.193 143.686 295.125 161.139C295.125 180.547 295.327 181.962 298.285 182.905C299.696 183.31 299.696 183.377 297.949 184.253C295.058 185.803 294.655 188.633 294.924 205.75C295.125 222.057 295.529 224.281 298.15 224.281C299.898 224.281 299.898 225.359 298.15 225.831C295.327 226.572 294.655 230.144 294.789 245.104C294.924 261.614 294.991 260.872 294.117 260.333C293.647 260.064 293.445 254.673 293.512 245.104C293.579 228.19 293.445 227.583 288.605 226.235C286.589 225.629 286.118 225.292 287.059 225.157C293.042 224.079 293.176 223.742 293.781 207.367C293.983 200.089 294.05 192.744 293.781 191.059C293.243 187.488 290.756 184.523 288.336 184.523C287.53 184.523 286.589 184.186 286.387 183.849C286.118 183.444 286.723 183.175 287.731 183.175C290.353 183.175 291.832 182.097 292.773 179.671C293.714 177.245 294.588 146.112 293.848 143.079C293.579 142.136 292.84 140.788 292.101 140.047C290.823 138.767 289.815 138.699 274.287 138.699C256.609 138.699 254.39 139.036 253.449 142.069C253.046 143.416 252.912 143.349 250.693 141.395C249.416 140.316 247.736 139.373 247.063 139.373C246.324 139.373 245.719 139.036 245.719 138.699C245.719 138.295 246.257 138.025 246.929 138.025C248.677 138.025 251.097 136.138 251.836 134.049L252.575 132.297L253.382 133.915C255.063 137.014 256.541 137.284 270.994 137.351C289.008 137.351 292.437 137.014 293.378 134.858C293.781 133.982 294.117 132.095 294.117 130.68C294.117 126.637 295.058 126.772 295.462 130.815C295.663 133.106 296.268 135.06 297.075 135.936ZM269.246 148.47C269.246 149.009 268.977 149.481 268.641 149.481C267.767 149.481 267.162 148.403 267.7 147.864C268.439 147.123 269.246 147.46 269.246 148.47ZM285.715 152.851C285.916 153.187 285.782 153.524 285.446 153.524C285.042 153.524 284.706 153.187 284.706 152.851C284.706 152.446 284.841 152.177 284.975 152.177C285.177 152.177 285.513 152.446 285.715 152.851ZM251.769 155.546C251.769 155.883 251.5 156.22 251.097 156.22C250.761 156.22 250.424 155.883 250.424 155.546C250.424 155.142 250.761 154.872 251.097 154.872C251.5 154.872 251.769 155.142 251.769 155.546ZM243.03 161.207C243.03 162.554 241.753 163.296 240.879 162.42C240.476 162.015 240.409 161.409 240.61 161.004C241.283 159.926 243.03 160.128 243.03 161.207ZM265.616 164.374C266.154 165.317 264.675 166.328 263.398 165.856C262.726 165.587 262.658 165.25 263.263 164.576C264.204 163.43 264.944 163.363 265.616 164.374ZM275.296 165.048C275.296 165.385 275.027 165.654 274.623 165.654C274.287 165.654 273.951 165.182 273.951 164.576C273.951 164.037 274.287 163.767 274.623 163.969C275.027 164.172 275.296 164.643 275.296 165.048ZM285.715 168.35C285.916 168.687 285.647 169.023 285.042 169.023C284.438 169.023 284.169 168.687 284.37 168.35C284.572 167.945 284.908 167.676 285.042 167.676C285.177 167.676 285.513 167.945 285.715 168.35ZM277.984 178.458C277.984 178.795 277.716 179.132 277.312 179.132C276.976 179.132 276.64 178.795 276.64 178.458C276.64 178.053 276.976 177.784 277.312 177.784C277.716 177.784 277.984 178.053 277.984 178.458ZM305.881 178.39C306.351 179.199 305.074 180.008 304.2 179.469C303.461 178.997 303.931 177.784 304.872 177.784C305.208 177.784 305.612 178.053 305.881 178.39ZM316.3 187.555C316.3 188.094 316.031 188.566 315.695 188.566C314.821 188.566 314.216 187.488 314.754 186.949C315.493 186.207 316.3 186.544 316.3 187.555ZM318.988 201.033C318.988 201.572 318.585 202.043 318.047 202.043C316.905 202.043 316.165 201.1 316.77 200.426C317.577 199.617 318.988 200.022 318.988 201.033ZM302.183 204.739C302.183 205.076 301.915 205.413 301.511 205.413C301.175 205.413 300.839 205.076 300.839 204.739C300.839 204.334 301.175 204.065 301.511 204.065C301.915 204.065 302.183 204.334 302.183 204.739ZM310.317 213.027C309.443 213.903 308.569 213.23 309.242 212.219C309.443 211.814 309.981 211.68 310.384 211.882C310.788 212.151 310.788 212.556 310.317 213.027ZM321.543 217.408C321.677 217.879 321.341 218.216 320.736 218.216C320.131 218.216 319.661 217.745 319.661 217.138C319.661 215.992 321.139 216.195 321.543 217.408ZM314.283 225.292C314.283 225.831 314.014 226.303 313.611 226.303C313.275 226.303 312.939 225.831 312.939 225.292C312.939 224.753 313.275 224.281 313.611 224.281C314.014 224.281 314.283 224.753 314.283 225.292ZM326.853 235.198C327.458 235.872 328.87 236.478 330.012 236.546L332.096 236.613L329.945 236.883C327.189 237.22 326.315 238.365 325.71 242.611L325.173 246.182L325.105 243.082C325.038 239.106 324.03 237.893 320.333 237.152L317.308 236.546L320.131 236.478C323.895 236.411 325.038 235.063 325.173 230.818L325.307 227.314L325.509 230.683C325.71 232.502 326.248 234.591 326.853 235.198ZM307.561 242.476C307.561 242.813 307.292 243.15 306.889 243.15C306.553 243.15 306.217 242.813 306.217 242.476C306.217 242.071 306.553 241.802 306.889 241.802C307.292 241.802 307.561 242.071 307.561 242.476ZM328.937 254.471C329.071 254.942 328.735 255.279 328.13 255.279C327.525 255.279 327.055 254.808 327.055 254.201C327.055 253.056 328.534 253.258 328.937 254.471ZM273.951 255.684C273.951 256.223 273.481 256.627 272.943 256.627C271.935 256.627 271.531 255.212 272.338 254.403C273.01 253.797 273.951 254.538 273.951 255.684ZM282.018 256.964C282.018 257.503 281.749 257.975 281.413 257.975C280.539 257.975 279.934 256.897 280.472 256.358C281.211 255.616 282.018 255.953 282.018 256.964ZM309.578 260.064C309.578 260.401 309.107 260.67 308.569 260.67C307.561 260.67 307.225 259.862 307.964 259.12C308.502 258.581 309.578 259.188 309.578 260.064ZM330.617 265.051C330.685 265.387 330.214 265.792 329.609 265.927C328.87 266.061 328.399 265.724 328.399 265.051C328.399 263.905 330.416 263.838 330.617 265.051ZM317.711 265.59C317.644 266.398 316.703 266.196 316.434 265.32C316.232 264.916 316.501 264.646 316.972 264.781C317.375 264.983 317.711 265.32 317.711 265.59ZM296.134 267.476C297.276 268.622 298.15 269.7 298.016 269.768C297.881 269.835 297.142 270.307 296.335 270.711C295.462 271.115 294.789 272.126 294.789 272.8C294.789 273.541 294.52 274.148 294.117 274.148C293.781 274.148 293.445 273.743 293.445 273.204C293.445 272.665 292.706 271.654 291.764 270.913L290.084 269.565L291.899 267.544C292.974 266.466 293.848 265.522 293.915 265.455C293.983 265.455 294.991 266.331 296.134 267.476ZM276.64 267.342C276.64 267.746 276.371 268.218 275.968 268.42C275.632 268.622 275.296 268.352 275.296 267.813C275.296 267.207 275.632 266.735 275.968 266.735C276.371 266.735 276.64 267.005 276.64 267.342ZM284.101 268.285C283.228 269.161 282.354 268.487 283.026 267.476C283.228 267.072 283.765 266.937 284.169 267.14C284.572 267.409 284.572 267.813 284.101 268.285ZM314.283 277.517C314.821 277.854 316.434 278.191 317.846 278.191C319.392 278.191 320.266 278.461 319.997 278.865C319.795 279.202 318.451 279.539 317.039 279.539C313.745 279.539 312.939 280.482 312.871 284.525L312.737 287.962L312.334 284.593C311.729 280.011 311.325 279.539 307.83 279.539C305.948 279.539 304.939 279.269 305.208 278.865C305.41 278.461 306.822 278.191 308.233 278.191C309.645 278.191 311.056 277.854 311.258 277.517C311.527 277.113 311.863 275.091 312.132 272.935L312.603 269.094L312.939 273.002C313.14 275.361 313.678 277.18 314.283 277.517ZM270.053 276.574C271.33 276.978 271.262 277.113 269.38 278.73C268.238 279.741 267.162 281.156 267.028 281.897C266.826 283.11 266.692 283.043 266.019 281.426C265.616 280.415 264.473 279.067 263.465 278.461C261.717 277.248 261.717 277.248 263.129 276.709C263.936 276.439 265.078 275.293 265.75 274.215L266.826 272.261L267.767 274.215C268.305 275.226 269.313 276.304 270.053 276.574ZM289.412 279.539C289.412 279.876 290.017 280.752 290.823 281.493L292.235 282.773L290.823 283.515C290.017 283.986 289.412 284.728 289.412 285.267C289.412 285.806 289.143 286.278 288.74 286.278C288.403 286.278 288.067 286.008 288.067 285.604C288.067 285.267 287.395 284.391 286.589 283.649C285.379 282.436 285.311 282.234 286.252 281.83C286.857 281.628 287.53 280.887 287.731 280.145C288.202 278.798 289.412 278.326 289.412 279.539ZM275.968 286.345C275.968 286.682 275.699 286.951 275.296 286.951C274.96 286.951 274.623 286.48 274.623 285.873C274.623 285.334 274.96 285.065 275.296 285.267C275.699 285.469 275.968 285.941 275.968 286.345ZM256.34 289.175C256.474 289.984 256.138 290.321 255.197 290.321C254.39 290.321 253.785 289.916 253.785 289.445C253.785 287.356 255.936 287.154 256.34 289.175ZM298.285 288.636C298.285 288.973 297.949 289.377 297.545 289.512C297.142 289.647 296.806 289.243 296.806 288.636C296.806 288.03 297.142 287.625 297.545 287.76C297.949 287.895 298.285 288.299 298.285 288.636ZM295.462 294.094C295.462 294.634 295.193 294.903 294.789 294.701C294.453 294.499 294.117 294.027 294.117 293.623C294.117 293.286 294.453 293.016 294.789 293.016C295.193 293.016 295.462 293.488 295.462 294.094ZM301.511 296.049C301.511 296.588 301.242 297.06 300.839 297.06C300.503 297.06 300.167 296.588 300.167 296.049C300.167 295.51 300.503 295.038 300.839 295.038C301.242 295.038 301.511 295.51 301.511 296.049ZM246.391 296.386C246.391 296.723 245.921 297.06 245.383 297.06C244.845 297.06 244.375 296.723 244.375 296.386C244.375 295.981 244.845 295.712 245.383 295.712C245.921 295.712 246.391 295.981 246.391 296.386ZM289.412 297.801C289.412 298.138 288.941 298.407 288.403 298.407C287.395 298.407 287.059 297.599 287.798 296.857C288.336 296.318 289.412 296.925 289.412 297.801ZM274.018 301.507L275.632 302.316L273.75 303.192C272.741 303.663 271.733 304.742 271.531 305.618C271.061 307.302 269.918 307.774 269.918 306.224C269.918 305.685 268.91 304.472 267.767 303.529C266.154 302.248 265.885 301.777 266.692 301.777C267.364 301.777 268.506 300.833 269.38 299.755C270.859 297.733 270.859 297.733 271.666 299.149C272.069 299.957 273.145 301.035 274.018 301.507ZM251.769 306.157C251.769 306.696 251.5 307.168 251.097 307.168C250.761 307.168 250.424 306.696 250.424 306.157C250.424 305.618 250.761 305.146 251.097 305.146C251.5 305.146 251.769 305.618 251.769 306.157ZM289.412 310.2C289.412 310.739 289.143 311.211 288.74 311.211C288.403 311.211 288.067 310.739 288.067 310.2C288.067 309.661 288.403 309.189 288.74 309.189C289.143 309.189 289.412 309.661 289.412 310.2ZM258.491 312.559C258.491 312.896 258.02 313.232 257.482 313.232C256.945 313.232 256.474 312.896 256.474 312.559C256.474 312.154 256.945 311.885 257.482 311.885C258.02 311.885 258.491 312.154 258.491 312.559ZM268.439 321.386C268.305 321.791 267.902 322.06 267.565 322.06C267.229 322.06 266.826 321.791 266.692 321.386C266.557 320.982 266.96 320.645 267.565 320.645C268.17 320.645 268.574 320.982 268.439 321.386ZM257.819 324.217C257.819 324.756 257.617 325.362 257.348 325.564C256.743 326.171 255.063 324.688 255.533 323.947C256.071 323.004 257.819 323.206 257.819 324.217Z" fill="#CB8020"/>
<path d="M196.381 140.653C192.348 154.266 190.264 168.619 191.34 175.762C191.878 179.873 191.878 181.76 191.004 185.87C189.861 191.396 185.156 201.572 180.182 209.321C177.089 214.106 177.022 214.24 178.232 215.588C178.904 216.329 181.19 217.879 183.341 219.092C187.508 221.384 188.45 222.731 187.307 224.888C186.231 226.842 186.433 228.19 187.912 229.672C189.189 230.953 189.391 230.953 191.273 230.009C193.424 228.931 197.726 228.661 198.264 229.605C198.465 229.942 197.39 230.413 195.776 230.616C191.743 231.289 189.928 232.637 189.928 235.063C189.928 236.68 190.466 237.422 192.617 238.769C196.516 241.263 196.919 242.476 196.785 250.764L196.583 258.042L199.003 260.468C201.289 262.759 201.49 262.827 205.725 262.557C209.22 262.355 211.237 261.681 216.951 258.784C226.765 253.864 241.687 242.071 245.922 235.872C249.888 230.211 250.964 223.068 248.409 219.227C247.132 217.34 246.527 212.219 247.468 211.275C247.67 211.073 248.678 211.208 249.619 211.545C250.56 211.882 252.174 212.017 253.182 211.815C258.56 210.602 266.559 196.181 266.559 187.555C266.559 184.59 264.206 179.334 262.458 178.256C260.643 177.11 257.686 178.39 254.392 181.692C250.628 185.466 249.082 189.577 250.224 192.676C251.165 195.102 250.023 196.113 248.611 194.226C247.67 192.946 247.737 188.768 248.746 185.466C249.485 183.107 245.788 179.671 238.326 175.762C234.629 173.808 230.798 171.315 229.924 170.236C227.975 167.945 226.899 164.374 226.899 160.263C226.899 155.816 225.756 152.446 223.337 149.683C220.446 146.449 217.018 144.966 209.825 144.09C202.969 143.214 200.482 142.136 198.667 139.238L197.457 137.149L196.381 140.653ZM218.766 171.382C220.648 172.662 222.463 173.741 222.866 173.741C223.202 173.741 223.538 174.078 223.538 174.482C223.538 175.021 222.732 175.088 221.051 174.751C218.295 174.212 217.018 174.145 211.775 174.347C209.086 174.482 200.885 174.145 198.532 173.808C197.39 173.673 198.129 171.652 199.675 170.641C200.952 169.832 202.364 169.63 204.918 169.832C206.868 170.034 209.153 169.967 210.094 169.63C213.455 168.687 215.337 169.024 218.766 171.382ZM262.324 182.299C264.004 186.881 263.803 192.205 261.719 196.72C258.963 202.65 255.736 205.143 251.502 204.604C248.678 204.267 249.149 203.122 252.241 202.65C255.736 202.178 257.551 200.628 259.568 196.315C261.45 192.34 261.719 186.409 260.173 182.703C258.896 179.738 258.896 179.132 260.106 179.132C260.643 179.132 261.652 180.547 262.324 182.299ZM220.446 183.781C220.984 184.59 216.816 188.229 213.254 190.048C209.825 191.8 201.692 192.272 201.692 190.655C201.692 189.981 202.767 189.711 205.725 189.577C209.96 189.509 213.388 188.094 217.152 184.927C219.371 183.04 219.908 182.838 220.446 183.781ZM254.258 188.633C255.938 189.711 256.341 190.318 255.871 190.79C254.93 191.733 251.569 189.846 251.233 188.296C250.897 186.881 251.502 186.949 254.258 188.633ZM193.088 214.577C193.222 214.982 192.953 215.521 192.483 215.656C191.138 216.195 183.879 215.453 183.879 214.78C183.879 213.499 192.684 213.297 193.088 214.577Z" fill="#CB8020"/>
<path d="M152.285 140.856C150.605 141.126 148.79 141.193 148.185 141.058C147.58 140.856 144.488 140.991 141.328 141.328C131.313 142.473 127.683 145.438 124.187 155.344C121.768 162.083 119.213 165.318 114.441 167.744C106.105 171.989 102.946 175.763 100.056 184.995C99.1145 188.095 98.1062 190.588 97.8374 190.588C97.6357 190.588 96.8963 188.768 96.2913 186.545C94.8797 181.423 90.7121 176.774 86.9478 176.1C83.5196 175.426 78.9487 177.717 76.8649 181.019C74.6466 184.59 74.6466 194.564 76.8649 200.359C80.6964 210.467 88.0233 215.926 92.9303 212.489C94.3419 211.478 94.4764 211.545 94.8797 213.163C95.1486 214.376 94.7453 216.195 93.4681 218.958C91.3171 223.81 91.5187 227.179 94.2075 232.84C97.8374 240.455 104.627 245.913 120.692 253.932C132.993 260.132 136.959 261.479 142.606 261.479C151.479 261.479 153.63 259.054 153.63 248.878C153.63 242.746 153.697 242.341 155.377 240.792C156.386 239.848 157.461 239.107 157.73 239.107C158.873 239.107 160.486 235.805 160.015 234.39C159.478 232.772 154.974 230.414 152.285 230.347L150.605 230.279L152.084 229.538C153.226 228.999 154.302 229.066 156.52 229.942C160.352 231.357 160.822 231.357 162.099 229.268C163.175 227.718 163.175 227.381 162.166 225.292C161.561 224.012 161.225 222.53 161.427 221.99C161.629 221.519 163.511 220.441 165.595 219.632C170.703 217.678 172.451 216.465 172.451 214.847C172.451 214.106 171.039 211.613 169.359 209.322C165.393 203.931 160.553 194.092 159.948 190.116C159.679 188.162 159.948 185.197 160.688 181.625C161.561 177.447 161.763 174.55 161.494 169.698C160.822 159.725 157.461 142.136 155.848 140.721C155.579 140.519 153.966 140.519 152.285 140.856ZM142.874 170.507C148.319 170.102 149.731 170.304 150.941 171.383C152.487 172.73 152.689 174.348 151.479 174.482C147.513 174.819 126.07 175.628 126.07 175.358C126.07 175.156 133.8 170.574 134.808 170.17C135.346 169.967 137.026 169.967 138.505 170.17C139.984 170.439 141.933 170.574 142.874 170.507ZM87.6872 177.447C90.3088 178.728 92.0565 182.636 91.5859 186.073C91.1826 189.173 88.225 192.61 85.9395 192.61C83.8557 192.61 83.9901 191.531 86.2084 190.453C91.3843 187.96 90.3088 179.873 84.5279 178.121C82.9146 177.65 83.1163 176.437 84.7968 176.437C85.3345 176.437 86.6789 176.908 87.6872 177.447ZM86.41 184.186C86.41 184.725 85.8051 185.197 85.1329 185.197C82.9146 185.197 81.7047 185.938 80.6964 187.96C78.2765 192.542 80.6292 199.82 86.0067 204.537C87.6872 206.02 89.0988 207.637 89.0988 208.041C89.0988 211.141 81.7719 204.402 79.2848 199.011C76.596 193.283 77.4026 186.882 81.1669 184.254C83.1163 182.838 86.41 182.838 86.41 184.186ZM131.85 185.264C134.338 188.095 139.11 189.914 143.883 189.914C147.109 189.914 148.252 190.116 148.252 190.858C148.252 192.138 144.084 192.677 139.984 191.868C135.01 190.925 128.019 186.275 129.094 184.523C129.699 183.512 130.439 183.714 131.85 185.264ZM164.99 214.847C165.662 215.184 164.452 215.521 161.427 215.858C158.268 216.195 156.654 216.128 156.117 215.589C154.772 214.241 156.991 213.432 160.62 213.837C162.503 214.106 164.452 214.51 164.99 214.847Z" fill="#CB8020"/>
<path d="M72.6306 201.235C69.8074 208.58 64.7659 214.173 53.6075 222.125C46.3478 227.314 32.2316 241.128 26.9213 248.204C20.1321 257.301 15.8301 268.218 15.8301 276.372C15.8301 280.617 16.1662 281.965 17.9139 285.604C21.5437 292.814 27.5935 298.071 47.8266 311.75C67.1186 324.756 77.4032 332.708 81.3019 337.897C82.6463 339.649 84.7301 343.288 85.9401 345.848C97.0313 370.377 101.804 377.318 112.492 384.596C116.928 387.561 126.541 392.413 129.498 393.087L131.246 393.491L129.969 385.876C126.473 364.447 124.726 345.579 124.726 330.012C124.726 314.311 123.112 309.594 115.987 304.338C107.585 298.205 104.627 293.96 103.417 286.413C103.215 285.267 102.812 284.256 102.543 284.256C101.535 284.256 99.8545 293.017 99.8545 298.071C99.8545 301.305 99.5856 303.057 99.1823 302.788C98.0396 302.047 98.4429 291.669 99.7873 286.884C102.879 275.968 109.87 260.94 113.836 256.493C115.248 254.875 115.987 253.595 115.517 253.46C115.113 253.325 112.088 251.641 108.862 249.687C98.2412 243.352 91.7209 235.131 90.7127 226.775C90.3093 223.608 90.511 222.529 92.057 219.362C92.9981 217.273 93.8048 215.319 93.8048 214.915C93.8048 214.51 92.5276 214.376 90.5782 214.645C88.2927 214.915 86.6795 214.712 85.3351 213.971C82.243 212.354 78.4787 207.772 75.9916 202.65L73.7733 198.068L72.6306 201.235ZM76.3277 224.484C76.3277 228.729 77.0671 229.672 80.6969 229.74L83.3857 229.807L80.8986 230.279C77.2015 231.02 76.3277 232.031 76.3277 235.805C76.3277 237.624 76.0588 239.107 75.6555 239.107C75.3194 239.107 74.9833 237.624 74.9833 235.805C74.9833 232.031 74.4455 231.425 70.2779 230.481L67.253 229.807L70.3451 229.74C72.0256 229.672 73.7061 229.336 74.1766 228.864C74.6472 228.392 74.9833 226.438 74.9833 224.484C74.9833 222.529 75.3194 220.912 75.6555 220.912C76.0588 220.912 76.3277 222.529 76.3277 224.484ZM67.5891 240.859C67.5891 241.398 67.3203 241.667 66.9169 241.465C66.5808 241.263 66.2447 240.791 66.2447 240.387C66.2447 240.05 66.5808 239.781 66.9169 239.781C67.3203 239.781 67.5891 240.252 67.5891 240.859ZM74.7816 244.228C74.1766 244.835 72.8995 243.824 73.37 243.015C73.6389 242.611 74.0422 242.611 74.5127 243.083C74.9161 243.487 75.0505 243.959 74.7816 244.228ZM54.1452 244.161C54.1452 244.7 53.8763 245.172 53.5402 245.172C52.6664 245.172 52.0614 244.093 52.5992 243.554C53.3386 242.813 54.1452 243.15 54.1452 244.161ZM65.2364 246.519C65.0348 246.856 64.5643 247.193 64.1609 247.193C63.8248 247.193 63.556 246.856 63.556 246.519C63.556 246.115 64.0265 245.845 64.6315 245.845C65.1692 245.845 65.4381 246.115 65.2364 246.519ZM83.4529 247.665C82.7807 248.339 82.1758 247.328 82.7807 246.452C83.1841 245.711 83.3185 245.711 83.5874 246.452C83.7218 246.924 83.6546 247.463 83.4529 247.665ZM39.8275 258.11C40.4997 258.851 42.1129 259.323 44.3312 259.458L47.7594 259.66L44.3984 260.266C39.4914 261.075 38.6847 262.086 38.6847 267.207C38.6847 272.733 37.542 272.194 37.4076 266.668C37.3403 264.377 37.0042 262.086 36.6009 261.547C36.1304 261.075 34.4499 260.671 32.5677 260.671C30.7528 260.671 29.274 260.334 29.274 259.997C29.274 259.592 30.7528 259.323 32.5005 259.323C34.2482 259.323 36.0632 258.986 36.5337 258.514C37.0042 258.043 37.3403 256.021 37.3403 253.932C37.3403 248.81 38.2814 248.069 38.5503 252.988C38.6847 255.347 39.1553 257.436 39.8275 258.11ZM66.4464 254.269C67.6563 255.145 67.6563 255.212 66.312 256.56C64.6315 258.245 64.2282 258.312 64.2282 256.964C64.2282 256.425 63.6904 255.954 63.0854 255.954C62.0771 255.954 62.1443 255.819 63.2871 254.673C64.8331 253.056 64.9003 253.056 66.4464 254.269ZM86.4106 256.627C86.4106 256.964 86.1417 257.301 85.7384 257.301C85.4023 257.301 85.0662 256.964 85.0662 256.627C85.0662 256.223 85.4023 255.954 85.7384 255.954C86.1417 255.954 86.4106 256.223 86.4106 256.627ZM78.4787 265.32C77.4704 266.399 77.2015 266.399 76.1932 265.59C75.1849 264.647 75.1849 264.512 76.1932 263.434C77.2015 262.355 77.4704 262.355 78.4787 263.164C79.487 264.107 79.487 264.242 78.4787 265.32ZM91.7882 263.029C91.7882 263.568 91.3176 264.04 90.7799 264.04C89.7044 264.04 89.4355 263.231 90.2421 262.49C90.9815 261.681 91.7882 261.951 91.7882 263.029ZM64.7659 265.253C64.9003 265.725 64.5643 266.062 63.9593 266.062C63.3543 266.062 62.8838 265.59 62.8838 264.983C62.8838 263.838 64.3626 264.04 64.7659 265.253ZM59.6572 267.746C59.6572 268.083 59.3211 268.488 58.9178 268.622C58.5145 268.757 58.1784 268.353 58.1784 267.746C58.1784 267.14 58.5145 266.736 58.9178 266.87C59.3211 267.005 59.6572 267.409 59.6572 267.746ZM52.1286 271.857C52.1286 272.8 50.717 273.137 49.9104 272.329C49.3054 271.722 50.7842 270.038 51.5237 270.509C51.8598 270.711 52.1286 271.318 52.1286 271.857ZM27.7279 274.552C27.123 275.159 25.8458 274.148 26.3163 273.339C26.5852 272.935 26.9885 272.935 27.4591 273.407C27.8624 273.811 27.9968 274.283 27.7279 274.552ZM93.1326 273.474C93.1326 273.811 92.8637 274.148 92.4604 274.148C92.1243 274.148 91.7882 273.811 91.7882 273.474C91.7882 273.07 92.1243 272.8 92.4604 272.8C92.8637 272.8 93.1326 273.07 93.1326 273.474ZM66.9169 280.011C66.9169 284.93 68.0597 286.278 72.1601 286.278C75.8571 286.278 75.6555 286.682 71.6223 287.221C67.7908 287.76 66.9169 288.973 66.9169 293.893C66.9169 296.319 66.6481 297.666 66.2447 297.397C65.9086 297.195 65.5725 295.24 65.5725 293.084C65.5725 288.704 64.8331 287.626 61.9427 287.558C60.8 287.558 59.2539 287.289 58.5145 286.952C57.5062 286.547 58.044 286.345 60.5983 286.345C62.4132 286.278 64.2954 285.941 64.7659 285.469C65.2364 284.998 65.5725 282.841 65.5725 280.415C65.5725 278.057 65.8414 276.17 66.2447 276.17C66.6481 276.17 66.9169 277.922 66.9169 280.011ZM83.3857 277.315C84.0579 278.191 83.9907 278.663 83.1841 279.539C82.3102 280.617 82.1086 280.617 81.1003 279.607C80.1592 278.663 80.1592 278.394 81.033 277.383C82.3102 275.968 82.3774 275.968 83.3857 277.315ZM42.0457 281.224C42.0457 281.763 41.7768 282.235 41.4407 282.235C40.5669 282.235 39.9619 281.156 40.4997 280.617C41.2391 279.876 42.0457 280.213 42.0457 281.224ZM84.4612 288.502C83.5874 289.378 82.7135 288.704 83.3857 287.693C83.5874 287.289 84.1251 287.154 84.5285 287.356C84.9318 287.626 84.9318 288.03 84.4612 288.502ZM51.4564 291.669C51.4564 292.006 51.1876 292.343 50.7842 292.343C50.4481 292.343 50.112 292.006 50.112 291.669C50.112 291.265 50.4481 290.995 50.7842 290.995C51.1876 290.995 51.4564 291.265 51.4564 291.669ZM39.3569 293.69C39.3569 294.027 38.8864 294.364 38.3486 294.364C37.8109 294.364 37.3403 294.027 37.3403 293.69C37.3403 293.286 37.8109 293.017 38.3486 293.017C38.8864 293.017 39.3569 293.286 39.3569 293.69ZM83.3185 303.866C83.1168 304.203 82.6463 304.338 82.3102 304.068C81.9741 303.866 81.8397 303.394 82.1086 303.057C82.3102 302.72 82.7807 302.586 83.1168 302.855C83.4529 303.057 83.5874 303.529 83.3185 303.866ZM60.5983 307.235C61.2705 308.381 59.7244 309.661 58.7834 308.718C57.9767 307.909 58.5145 306.494 59.5228 306.494C59.8589 306.494 60.3294 306.831 60.5983 307.235ZM76.3277 312.289C76.3277 313.435 74.8488 313.233 74.4455 312.02C74.3111 311.548 74.6472 311.211 75.2522 311.211C75.8571 311.211 76.3277 311.683 76.3277 312.289ZM91.5193 316.67C92.1915 317.815 90.6454 319.096 89.7044 318.152C88.8977 317.343 89.4355 315.928 90.4438 315.928C90.7799 315.928 91.2504 316.265 91.5193 316.67ZM103.888 322.667C103.888 323.004 103.619 323.341 103.215 323.341C102.879 323.341 102.543 323.004 102.543 322.667C102.543 322.263 102.879 321.993 103.215 321.993C103.619 321.993 103.888 322.263 103.888 322.667ZM91.4521 328.665C91.9226 329.473 90.6454 330.282 89.7716 329.743C89.0322 329.271 89.5027 328.058 90.4438 328.058C90.7799 328.058 91.1832 328.328 91.4521 328.665ZM109.937 331.764C109.937 332.303 109.669 332.775 109.332 332.775C108.459 332.775 107.854 331.697 108.391 331.158C109.131 330.417 109.937 330.754 109.937 331.764ZM102.543 338.773C102.543 339.716 101.333 340.323 100.527 339.851C100.123 339.581 99.989 339.11 100.191 338.773C100.728 337.964 102.543 337.964 102.543 338.773ZM112.088 347.263C112.088 347.6 111.752 348.005 111.349 348.139C110.946 348.274 110.61 347.87 110.61 347.263C110.61 346.657 110.946 346.253 111.349 346.387C111.752 346.522 112.088 346.927 112.088 347.263ZM101.871 352.385C101.871 352.722 101.602 352.991 101.199 352.991C100.863 352.991 100.527 352.52 100.527 351.913C100.527 351.374 100.863 351.105 101.199 351.307C101.602 351.509 101.871 351.981 101.871 352.385Z" fill="#CB8020"/>
<path d="M264.071 202.852C260.374 210.332 255.333 214.577 250.695 214.038C247.939 213.701 247.737 214.914 249.753 218.688C251.367 221.788 251.501 226.977 250.09 231.087C248.476 235.602 244.376 240.521 236.982 246.586C233.285 249.686 230.26 252.382 230.26 252.584C230.26 252.786 231.402 253.595 232.814 254.403C236.982 256.762 242.359 262.018 244.51 265.859L246.527 269.431L250.224 264.579C270.457 238.365 275.431 221.047 267.903 203.526C267.096 201.639 266.155 200.022 265.953 200.022C265.684 200.022 264.878 201.302 264.071 202.852ZM266.626 221.855L268.709 222.731L266.289 224.146C264.542 225.225 263.87 226.033 263.87 227.314C263.87 228.257 263.601 228.998 263.197 228.998C262.861 228.998 262.525 228.257 262.525 227.314C262.525 226.101 261.92 225.225 260.509 224.416C258.089 223.001 258.021 222.664 260.24 221.72C261.181 221.249 262.256 219.968 262.66 218.688L263.466 216.532L264.004 218.755C264.407 220.373 265.214 221.249 266.626 221.855Z" fill="#CB8020"/>
<path d="M10.7868 235.131C10.518 235.535 10.4508 235.939 10.6524 236.141C10.7868 236.344 11.1229 236.007 11.3246 235.4C11.7951 234.255 11.3918 234.052 10.7868 235.131Z" fill="#CB8020"/>
<path d="M349.305 235.401C349.305 235.738 349.977 238.366 350.918 241.196C354.548 252.719 355.758 268.084 353.607 277.181C349.44 295.241 338.483 309.594 312.133 331.563C308.1 334.865 304.873 337.695 304.873 337.897C304.873 338.032 306.621 336.819 308.772 335.269C310.856 333.652 316.099 329.743 320.334 326.576C335.324 315.39 344.062 305.821 349.91 294.028C354.279 285.267 355.355 281.089 355.758 270.712C356.229 260.469 354.952 251.574 351.591 241.466C350.381 237.759 349.372 234.996 349.305 235.401Z" fill="#CB8020"/>
<path d="M7.15783 243.419C6.0151 246.182 4.26739 251.438 3.2591 255.077C1.64583 260.805 1.44417 262.961 1.37695 271.452C1.37695 282.032 2.45247 287.154 6.21676 294.701C10.5188 303.192 20.1984 314.445 29.878 322.195C33.9784 325.43 61.5384 344.365 61.5384 343.894C61.5384 343.759 55.4215 338.907 47.9601 333.179C22.4167 313.637 14.2159 305.011 7.15783 290.321C3.2591 282.302 2.11637 276.439 2.5869 266.466C2.923 257.84 4.60349 250.63 8.09891 242.813C9.03998 240.656 9.64496 238.769 9.51052 238.635C9.37608 238.5 8.30057 240.656 7.15783 243.419Z" fill="#CB8020"/>
<path d="M302.118 339.985C301.244 341.064 301.311 341.131 302.387 340.255C303.462 339.379 303.798 338.84 303.26 338.84C303.126 338.84 302.588 339.379 302.118 339.985Z" fill="#CB8020"/>
<path d="M37.6757 343.355C47.0192 348.477 49.8424 350.903 54.8167 358.383C58.6482 364.178 62.3453 368.356 67.2523 372.669L71.2855 376.24L68.3278 372.871C66.7146 370.984 62.5469 365.189 59.1187 360C55.6905 354.744 51.5902 349.353 50.0441 348.005C48.4308 346.657 44.8682 344.703 42.1122 343.625C34.1131 340.592 32.3654 340.525 37.6757 343.355Z" fill="#CB8020"/>
<path d="M63.2189 345.579C63.8911 346.32 64.5633 346.927 64.765 346.927C64.9666 346.927 64.5633 346.32 63.8911 345.579C63.2189 344.838 62.5467 344.231 62.3451 344.231C62.1434 344.231 62.5467 344.838 63.2189 345.579Z" fill="#CB8020"/>
<path d="M70.2773 362.021C70.2773 362.156 72.0251 363.302 74.1761 364.649C79.2175 367.817 84.4607 373.342 86.9478 378.329C89.3005 382.979 94.0058 389.38 97.5013 392.75L99.9884 395.108L97.3668 391.537C95.888 389.583 92.7959 384.192 90.5104 379.609C85.8051 370.445 83.9229 368.221 78.0076 365.256C73.7728 363.099 70.2773 361.617 70.2773 362.021Z" fill="#CB8020"/>
</svg>
