<svg width="16" height="23" viewBox="0 0 16 23" fill="none" xmlns="http://www.w3.org/2000/svg">
<path d="M8.54585 0.252635C8.48404 0.180448 8.40734 0.122499 8.32101 0.0827662C8.23468 0.0430339 8.14077 0.0224609 8.04573 0.0224609C7.9507 0.0224609 7.85679 0.0430339 7.77046 0.0827662C7.68413 0.122499 7.60743 0.180448 7.54562 0.252635C5.80851 2.28438 0.144531 9.30853 0.144531 14.5116C0.144531 19.3603 3.19736 22.4125 8.04546 22.4125C12.8936 22.4125 15.9464 19.3603 15.9464 14.5116C15.9464 9.30853 10.2824 2.28438 8.54585 0.252635ZM8.92334 19.5594C8.81789 19.5597 8.71392 19.5346 8.62019 19.4862C8.52645 19.4379 8.4457 19.3678 8.38472 19.2817C8.32374 19.1957 8.28432 19.0963 8.26978 18.9918C8.25523 18.8874 8.26599 18.781 8.30114 18.6815C8.34604 18.5518 8.43072 18.4396 8.54312 18.3608C8.65552 18.2819 8.78992 18.2406 8.92718 18.2426C9.79869 18.2407 10.634 17.8937 11.2502 17.2774C11.8665 16.6612 12.2135 15.8259 12.2154 14.9544C12.2134 14.8171 12.2547 14.6827 12.3335 14.5703C12.4123 14.4579 12.5246 14.3733 12.6543 14.3284C12.7538 14.2932 12.8602 14.2824 12.9646 14.297C13.0691 14.3115 13.1685 14.351 13.2545 14.4119C13.3406 14.4729 13.4107 14.5537 13.459 14.6474C13.5073 14.7411 13.5324 14.8451 13.5322 14.9506C13.5309 16.1725 13.0449 17.344 12.1809 18.2081C11.3168 19.0721 10.1453 19.5581 8.92334 19.5594Z" fill="#CB8020"/>
</svg>
